<svg xmlns="http://www.w3.org/2000/svg" width="21.348" height="21.379" viewBox="0 0 21.348 21.379">
  <g id="phone-call_3_" data-name="phone-call (3)" transform="translate(-0.344 0)">
    <g id="Agrupar_76" data-name="Agrupar 76" transform="translate(0.344 0)">
      <path id="Caminho_49" data-name="Caminho 49" d="M17.225,39.413a2.1,2.1,0,0,0-1.525-.7,2.174,2.174,0,0,0-1.543.695L12.731,40.83c-.117-.063-.235-.122-.347-.18-.162-.081-.316-.158-.447-.239a15.5,15.5,0,0,1-3.714-3.384A9.142,9.142,0,0,1,7,35.1c.37-.338.713-.69,1.047-1.029.126-.126.253-.257.379-.384a2.07,2.07,0,0,0,0-3.122L7.2,29.337c-.14-.14-.284-.284-.42-.429-.271-.28-.555-.569-.848-.839a2.136,2.136,0,0,0-1.512-.663,2.21,2.21,0,0,0-1.534.663l-.009.009L1.342,29.626a3.3,3.3,0,0,0-.979,2.1,7.91,7.91,0,0,0,.578,3.348A19.428,19.428,0,0,0,4.392,40.83a21.234,21.234,0,0,0,7.071,5.536,11.017,11.017,0,0,0,3.971,1.173c.095,0,.194.009.284.009a3.4,3.4,0,0,0,2.6-1.119c0-.009.014-.014.018-.023a10.257,10.257,0,0,1,.79-.817c.194-.185.393-.379.587-.582a2.251,2.251,0,0,0,.681-1.561A2.169,2.169,0,0,0,19.7,41.9Zm1.615,4.751s0,0,0,0c-.176.19-.356.361-.55.55a11.865,11.865,0,0,0-.871.9,2.175,2.175,0,0,1-1.7.717c-.068,0-.14,0-.208,0A9.787,9.787,0,0,1,12,45.274a20.043,20.043,0,0,1-6.66-5.216,18.318,18.318,0,0,1-3.249-5.41,6.443,6.443,0,0,1-.505-2.825,2.071,2.071,0,0,1,.623-1.34l1.539-1.539a1.026,1.026,0,0,1,.686-.32.965.965,0,0,1,.659.316l.014.014c.275.257.537.523.812.808.14.144.284.289.429.438l1.232,1.232a.861.861,0,0,1,0,1.4c-.131.131-.257.262-.388.388-.379.388-.74.749-1.133,1.1-.009.009-.018.014-.023.023A.92.92,0,0,0,5.8,35.365l.014.041a9.89,9.89,0,0,0,1.457,2.378l0,0a16.561,16.561,0,0,0,4.007,3.646,6.162,6.162,0,0,0,.555.3c.162.081.316.158.447.239.018.009.036.023.054.032a.978.978,0,0,0,.447.113.965.965,0,0,0,.686-.311l1.543-1.543a1.021,1.021,0,0,1,.681-.338.919.919,0,0,1,.65.329l.009.009,2.486,2.486A.892.892,0,0,1,18.84,44.164Z" transform="translate(-0.344 -26.169)" fill="#14377d"/>
      <path id="Caminho_50" data-name="Caminho 50" d="M245.445,87.134a5.807,5.807,0,0,1,4.729,4.729.605.605,0,0,0,.6.505.805.805,0,0,0,.1-.009.61.61,0,0,0,.5-.7,7.022,7.022,0,0,0-5.721-5.721.612.612,0,0,0-.7.5A.6.6,0,0,0,245.445,87.134Z" transform="translate(-233.907 -82.048)" fill="#14377d"/>
      <path id="Caminho_51" data-name="Caminho 51" d="M258.9,9.431A11.562,11.562,0,0,0,249.483.009a.608.608,0,1,0-.2,1.2,10.327,10.327,0,0,1,8.42,8.42.605.605,0,0,0,.6.505.806.806,0,0,0,.1-.009A.6.6,0,0,0,258.9,9.431Z" transform="translate(-237.566 0)" fill="#14377d"/>
    </g>
  </g>
</svg>
