<svg xmlns="http://www.w3.org/2000/svg" width="29.271" height="29.271" viewBox="0 0 29.271 29.271">
  <g id="icone-instagram" transform="translate(-1 -1)">
    <path id="Path_87" d="M22.191,1H9.081A8.093,8.093,0,0,0,1,9.081V22.189a8.093,8.093,0,0,0,8.081,8.081H22.189a8.093,8.093,0,0,0,8.081-8.081V9.081A8.093,8.093,0,0,0,22.191,1Zm5.472,21.191a5.472,5.472,0,0,1-5.472,5.472H9.081a5.472,5.472,0,0,1-5.472-5.472V9.081A5.472,5.472,0,0,1,9.081,3.609H22.189a5.472,5.472,0,0,1,5.472,5.472Z" transform="translate(0 0)" fill="#d8ad2c"/>
    <path id="Path_88" d="M19.672,12.1a7.572,7.572,0,1,0,7.572,7.572A7.572,7.572,0,0,0,19.672,12.1Zm0,12.536a4.963,4.963,0,1,1,4.963-4.963h0a4.971,4.971,0,0,1-4.963,4.963Z" transform="translate(-4.036 -4.036)" fill="#d8ad2c"/>
    <path id="Path_89" d="M35.309,8.7a1.909,1.909,0,1,0,1.909,1.909,1.733,1.733,0,0,0-.572-1.337A1.831,1.831,0,0,0,35.309,8.7Z" transform="translate(-11.783 -2.8)" fill="#d8ad2c"/>
  </g>
</svg>
