<svg xmlns="http://www.w3.org/2000/svg" width="16.862" height="23.981" viewBox="0 0 16.862 23.981">
  <g id="placeholder_2_" data-name="placeholder (2)" transform="translate(-76)">
    <g id="Agrupar_73" data-name="Agrupar 73" transform="translate(76)">
      <g id="Agrupar_72" data-name="Agrupar 72">
        <path id="Caminho_47" data-name="Caminho 47" d="M84.431,0a8.432,8.432,0,0,0-7.172,12.864l6.692,10.785a.7.7,0,0,0,.6.332h.006a.7.7,0,0,0,.6-.342L91.673,12.75A8.433,8.433,0,0,0,84.431,0Zm6.036,12.029-5.929,9.9-6.084-9.805a7.03,7.03,0,1,1,12.014-.095Z" transform="translate(-76 0)" fill="#14377d"/>
      </g>
    </g>
    <g id="Agrupar_75" data-name="Agrupar 75" transform="translate(80.215 4.215)">
      <g id="Agrupar_74" data-name="Agrupar 74">
        <path id="Caminho_48" data-name="Caminho 48" d="M170.215,90a4.215,4.215,0,1,0,4.215,4.215A4.22,4.22,0,0,0,170.215,90Zm0,7.035a2.82,2.82,0,1,1,2.815-2.82A2.822,2.822,0,0,1,170.215,97.035Z" transform="translate(-166 -90)" fill="#14377d"/>
      </g>
    </g>
  </g>
</svg>
