<svg xmlns="http://www.w3.org/2000/svg" width="29.27" height="29.271" viewBox="0 0 29.27 29.271">
  <path id="facebook_4_" data-name="facebook (4)" d="M25.328,0H3.946A3.944,3.944,0,0,0,0,3.944V25.326A3.944,3.944,0,0,0,3.946,29.27H14.492l.018-10.46H11.792a.641.641,0,0,1-.641-.639L11.138,14.8a.641.641,0,0,1,.641-.644h2.712V10.9c0-3.781,2.309-5.839,5.682-5.839h2.767a.641.641,0,0,1,.641.641V8.544a.641.641,0,0,1-.641.641h-1.7c-1.834,0-2.189.872-2.189,2.151v2.82h4.03a.641.641,0,0,1,.637.717l-.4,3.372a.641.641,0,0,1-.637.566H19.071l-.018,10.46h6.275a3.944,3.944,0,0,0,3.944-3.944V3.944A3.944,3.944,0,0,0,25.328,0Z" transform="translate(-0.002)" fill="#d8ad2c"/>
</svg>
