<?xml version="1.0" standalone="no"?>
<!DOCTYPE svg PUBLIC "-//W3C//DTD SVG 1.1//EN" "http://www.w3.org/Graphics/SVG/1.1/DTD/svg11.dtd" >
<svg xmlns="http://www.w3.org/2000/svg" xmlns:xlink="http://www.w3.org/1999/xlink" version="1.1">
<metadata>
Created by FontForge 20170731 at Mon May 15 10:04:51 2017
 By Aleksey,,,
Copyright (c) 2017 by TypeType. Designers Ivan Gladkikh, Pavel Emelyanov. Technical designers Olexa Volochay, Nadyr Rakhimov, Dmitriy Greshnev. All rights reserved.
</metadata>
<defs>
<font id="TTNorms-Light" horiz-adv-x="580" >
  <font-face 
    font-family="TT Norms Light"
    font-weight="300"
    font-stretch="normal"
    units-per-em="1000"
    panose-1="2 0 5 3 2 0 0 2 0 3"
    ascent="800"
    descent="-200"
    x-height="480"
    cap-height="700"
    bbox="-120 -220 1438 965"
    underline-thickness="50"
    underline-position="-150"
    unicode-range="U+000D-FB06"
  />
<missing-glyph horiz-adv-x="0" 
 />
    <glyph glyph-name="i_j" unicode="ij" horiz-adv-x="470" 
d="M330 15q-11 -8 -24 -13q-11 -5 -26.5 -8.5t-34.5 -3.5q-34 0 -63 12.5t-50.5 34.5t-34 52t-12.5 66v325h45v-325q0 -53 33 -86.5t82 -33.5q19 0 34.5 4.5t26.5 10.5q13 6 24 15v415h45v-560q0 -60 -33.5 -95t-86.5 -35q-14 0 -24.5 2t-18.5 5q-10 3 -17 7v46q7 -4 17 -8
q8 -3 18.5 -5t24.5 -2q34 0 54.5 21.5t20.5 63.5v95zM75 650q0 15 10 25t25 10t25 -10t10 -25t-10 -25t-25 -10t-25 10t-10 25zM315 650q0 15 10 25t25 10t25 -10t10 -25t-10 -25t-25 -10t-25 10t-10 25z" />
    <glyph glyph-name="f_f" unicode="ff" 
d="M545 435h-120v-435h-45v435h-225v-435h-45v435h-80v45h80v80q0 64 31.5 97t88.5 33q13 0 25 -2.5t21 -5.5q11 -4 19 -7v-45q-8 3 -19 7q-9 3 -21 5.5t-25 2.5q-34 0 -54.5 -21.5t-20.5 -63.5v-80h225v100q0 64 31.5 97t88.5 33q13 0 25 -2.5t21 -5.5q11 -4 19 -7v-45
q-8 3 -19 7q-9 3 -21 5.5t-25 2.5q-34 0 -54.5 -21.5t-20.5 -63.5v-100h120v-45z" />
    <glyph glyph-name="uniFB01" unicode="fi" horiz-adv-x="520" 
d="M155 0h-45v435h-80v45h80v100q0 64 31.5 97t88.5 33q13 0 25 -2.5t21 -5.5q11 -4 19 -7v-45q-8 3 -19 7q-9 3 -21 5.5t-25 2.5q-34 0 -54.5 -21.5t-20.5 -63.5v-100h270v-480h-45v435h-225v-435zM370 650q0 15 10 25t25 10t25 -10t10 -25t-10 -25t-25 -10t-25 10t-10 25z
" />
    <glyph glyph-name="uniFB02" unicode="fl" horiz-adv-x="535" 
d="M395 540q0 26 -9.5 49t-26 40t-38.5 26.5t-46 9.5t-46 -9.5t-38.5 -26.5t-26 -40t-9.5 -49v-60h120v-45h-120v-435h-45v435h-80v45h80v60q0 36 13 67t35.5 54t52.5 36t64 13t64 -13t52.5 -36t35.5 -54t13 -67v-540h-45v540z" />
    <glyph glyph-name="f_f_i" unicode="ffi" horiz-adv-x="795" 
d="M425 0h-45v435h-225v-435h-45v435h-80v45h80v80q0 64 31.5 97t88.5 33q13 0 25 -2.5t21 -5.5q11 -4 19 -7v-45q-8 3 -19 7q-9 3 -21 5.5t-25 2.5q-34 0 -54.5 -21.5t-20.5 -63.5v-80h225v100q0 64 31.5 97t88.5 33q13 0 25 -2.5t21 -5.5q11 -4 19 -7v-45q-8 3 -19 7
q-9 3 -21 5.5t-25 2.5q-34 0 -54.5 -21.5t-20.5 -63.5v-100h275v-480h-45v435h-230v-435zM645 650q0 15 10 25t25 10t25 -10t10 -25t-10 -25t-25 -10t-25 10t-10 25z" />
    <glyph glyph-name="s_t" unicode="st" horiz-adv-x="770" 
d="M540 540q0 60 -33.5 95t-86.5 35q-57 0 -91 -33.5t-34 -86.5q0 -25 6 -44t14 -33q9 -16 20 -28l25 -25l-35 -35q-12 17 -29 30q-14 11 -36 20.5t-50 9.5q-53 0 -81.5 -26t-28.5 -59q0 -29 20.5 -45.5t51 -27.5t66 -20.5t66 -25t51 -40.5t20.5 -66q0 -30 -12 -56.5
t-34 -46t-53.5 -31t-70.5 -11.5q-42 0 -73 12.5t-53 27.5q-26 18 -44 40l35 35q16 -20 36 -35q17 -14 42 -24.5t57 -10.5q60 0 92.5 29t32.5 71q0 30 -20.5 47t-51 29t-66 21.5t-66 24.5t-51 39t-20.5 64q0 24 11.5 47.5t32 42t49 29.5t62.5 11q11 0 21 -1.5t18 -3.5
q9 -3 16 -5q-3 9 -5 20q-5 20 -5 50q0 34 12.5 63t34.5 50.5t52 34t66 12.5t66 -12.5t52 -35t34.5 -54t12.5 -68.5v-60h110v-45h-110v-315q0 -42 20.5 -63.5t54.5 -21.5q13 0 25 2t21 5q11 4 19 8v-45q-8 -4 -19 -8q-9 -3 -21 -5t-25 -2q-57 0 -88.5 33t-31.5 97v315h-95v45
h95v60z" />
    <glyph glyph-name="c_t" unicode="ct" horiz-adv-x="850" 
d="M45 240q0 52 19 98t51.5 79.5t75 53t89.5 19.5q13 0 25 -1.5t21 -3.5q11 -3 19 -5q-3 7 -5 18q-5 20 -5 52q0 34 12.5 63t34.5 50.5t52 34t66 12.5t66 -12.5t52 -35t34.5 -54t12.5 -68.5v-60h110v-45h-110v-315q0 -42 20.5 -63.5t54.5 -21.5q13 0 25 2t21 5q11 4 19 8
v-45q-8 -4 -19 -8q-9 -3 -21 -5t-25 -2q-57 0 -88.5 33t-31.5 97v315h-95v45h95v60q0 60 -33.5 95t-86.5 35q-57 0 -91 -33.5t-34 -86.5q0 -26 5 -45t12 -31q8 -14 18 -24l60 -60l-35 -30q-15 24 -38 42q-20 16 -49 29.5t-68 13.5q-38 0 -72 -16t-60.5 -43.5t-42 -65
t-15.5 -80.5t15.5 -80.5t42 -65t60.5 -43.5t72 -16q39 0 68 13t49 29q23 18 38 43l35 -30q-20 -28 -48 -50q-24 -19 -59.5 -34.5t-82.5 -15.5t-89.5 19.5t-75 53t-51.5 79t-19 98.5z" />
    <glyph glyph-name="s_p" unicode="sp" horiz-adv-x="1020" 
d="M555 -210h-45v750q0 30 -8.5 54t-23 41t-33.5 26t-40 9q-23 0 -43 -9t-35 -25t-23.5 -38t-8.5 -48q0 -25 6 -44t14 -33q9 -16 20 -28l25 -25l-35 -35q-12 17 -29 30q-14 11 -36 20.5t-50 9.5q-53 0 -81.5 -26t-28.5 -59q0 -29 20.5 -45.5t51 -27.5t66 -20.5t66 -25
t51 -40.5t20.5 -66q0 -30 -12 -56.5t-34 -46t-53.5 -31t-70.5 -11.5q-42 0 -73 12.5t-53 27.5q-26 18 -44 40l35 35q16 -20 36 -35q17 -14 42 -24.5t57 -10.5q60 0 92.5 29t32.5 71q0 30 -20.5 47t-51 29t-66 21.5t-66 24.5t-51 39t-20.5 64q0 24 11.5 47.5t32 42t49 29.5
t62.5 11q28 0 54 -8q-2 4 -5.5 21t-3.5 47q0 34 12 63t33 50.5t48 34t57 12.5t57 -12.5t48 -35t33 -54t12 -68.5v-155q19 29 46 52q23 20 57 36.5t82 16.5q43 0 83.5 -19.5t72 -53t50.5 -79.5t19 -98q0 -53 -19 -98.5t-50.5 -79t-72 -53t-83.5 -19.5q-48 0 -82 16t-57 36
q-27 23 -46 53v-305zM555 240q0 -43 15.5 -80.5t41.5 -65t59 -43.5t69 -16q34 0 66 16t57.5 43.5t41 65t15.5 80.5t-15.5 80.5t-41 65t-57.5 43.5t-66 16q-36 0 -69 -16t-59 -43.5t-41.5 -65t-15.5 -80.5z" />
    <glyph glyph-name="f_t" unicode="ft" horiz-adv-x="615" 
d="M395 640h40v-160h110v-45h-110v-315q0 -42 20.5 -63.5t54.5 -21.5q13 0 25 2t21 5q11 4 19 8v-45q-8 -4 -19 -8q-9 -3 -21 -5t-25 -2q-57 0 -88.5 33t-31.5 97v315h-235v-435h-45v435h-80v45h80v100q0 64 31.5 97t88.5 33q13 0 25 -2.5t21 -5.5q11 -4 19 -7v-45
q-8 3 -19 7q-9 3 -21 5.5t-25 2.5q-34 0 -54.5 -21.5t-20.5 -63.5v-100h205q15 0 25 10.5t10 29.5v120z" />
    <glyph glyph-name=".notdef" horiz-adv-x="0" 
 />
    <glyph glyph-name=".null" horiz-adv-x="0" 
 />
    <glyph glyph-name=".null" horiz-adv-x="0" 
 />
    <glyph glyph-name="nonmarkingreturn" unicode="&#xd;" horiz-adv-x="0" 
 />
    <glyph glyph-name="space" unicode=" " horiz-adv-x="185" 
 />
    <glyph glyph-name="exclam" unicode="!" horiz-adv-x="300" 
d="M130 160l-10 540h60l-10 -540h-40zM115 30q0 15 10 25t25 10t25 -10t10 -25t-10 -25t-25 -10t-25 10t-10 25z" />
    <glyph glyph-name="quotedbl" unicode="&#x22;" horiz-adv-x="335" 
d="M115 490h-45v210h45v-210zM265 490h-45v210h45v-210z" />
    <glyph glyph-name="numbersign" unicode="#" horiz-adv-x="715" 
d="M580 700l-40 -215h150l-10 -45h-150l-35 -180h150l-10 -45h-150l-40 -215h-45l40 215h-220l-40 -215h-45l40 215h-150l10 45h150l35 180h-150l10 45h150l40 215h45l-40 -215h220l40 215h45zM230 260h220l35 180h-220z" />
    <glyph glyph-name="dollar" unicode="$" horiz-adv-x="560" 
d="M455 186q0 36 -17 59.5t-44 40t-62 28.5t-72 23.5t-72 25.5t-62 35t-44 51.5t-17 75.5q0 34 13 65.5t37.5 56.5t60 41t79.5 20v102h50v-101q44 -3 77.5 -17t56.5 -29q26 -18 46 -39l-35 -35q-17 19 -41 35q-21 13 -51.5 24t-72.5 11q-41 0 -73 -10.5t-53.5 -29t-32.5 -43
t-11 -52.5q0 -36 17 -59.5t44 -40t62 -28.5t72 -23.5t72 -25.5t62 -35t44 -51.5t17 -75.5q0 -38 -13.5 -71.5t-39 -59.5t-63 -42t-84.5 -20v-102h-50v101q-54 3 -93 20t-65 36q-31 22 -52 49l35 35q19 -26 47 -45q24 -17 60.5 -31t87.5 -14q91 0 135.5 40.5t44.5 104.5z" />
    <glyph glyph-name="percent" unicode="%" horiz-adv-x="760" 
d="M575 700h50l-440 -700h-50zM90 555q0 -49 30 -79.5t75 -30.5t75 30.5t30 79.5t-30 79.5t-75 30.5t-75 -30.5t-30 -79.5zM345 555q0 -34 -11.5 -62.5t-31.5 -49t-47.5 -32t-59.5 -11.5t-59.5 11.5t-47.5 32t-31.5 49t-11.5 62.5t11.5 62.5t31.5 49t47.5 32t59.5 11.5
t59.5 -11.5t47.5 -32t31.5 -49t11.5 -62.5zM460 145q0 -49 30 -79.5t75 -30.5t75 30.5t30 79.5t-30 79.5t-75 30.5t-75 -30.5t-30 -79.5zM715 145q0 -34 -11.5 -62.5t-31.5 -49t-47.5 -32t-59.5 -11.5t-59.5 11.5t-47.5 32t-31.5 49t-11.5 62.5t11.5 62.5t31.5 49t47.5 32
t59.5 11.5t59.5 -11.5t47.5 -32t31.5 -49t11.5 -62.5z" />
    <glyph glyph-name="ampersand" unicode="&#x26;" horiz-adv-x="615" 
d="M405 560q0 -41 -21 -76.5t-47 -61.5q-30 -31 -67 -57l180 -220q14 23 25 53q9 26 17 61.5t8 80.5h45q0 -53 -10.5 -95t-22.5 -72q-14 -35 -32 -63q13 -20 28 -35q13 -14 29 -24.5t33 -10.5q5 0 10.5 0.5t10.5 1.5t9 3v-45q-4 -2 -9 -3t-10.5 -1.5t-10.5 -0.5
q-26 0 -48 12.5t-38 27.5q-18 18 -34 40q-19 -25 -46 -43q-23 -16 -58 -29t-81 -13q-43 0 -79 14t-61.5 37.5t-40 54t-14.5 64.5q0 47 22 84.5t48 64.5q31 32 70 56q-31 30 -55 63q-21 28 -38 61.5t-17 65.5t12.5 60t33.5 49t49 33.5t60 12.5t59.5 -11.5t47.5 -31.5
t31.5 -47.5t11.5 -59.5zM235 335q-34 -24 -60 -52q-23 -24 -41.5 -56t-18.5 -67q0 -53 39 -89t111 -36q38 0 67 11.5t49 25.5q23 17 39 38zM145 555q0 -26 15.5 -54.5t34.5 -51.5q22 -27 50 -54q31 25 57 52q22 23 40 52.5t18 60.5q0 45 -30 75t-75 30q-23 0 -43 -9t-35 -24
t-23.5 -35t-8.5 -42z" />
    <glyph glyph-name="quotesingle" unicode="'" horiz-adv-x="185" 
d="M115 490h-45v210h45v-210z" />
    <glyph glyph-name="parenleft" unicode="(" horiz-adv-x="330" 
d="M125 250q0 -102 25.5 -184t56.5 -140q36 -69 83 -121l-40 -25q-48 56 -85 128q-16 31 -31.5 68t-27.5 80t-19 91.5t-7 102.5q0 53 7 101.5t19 92t27.5 80.5t31.5 68q37 72 85 128l40 -25q-47 -53 -83 -121q-31 -59 -56.5 -140.5t-25.5 -183.5z" />
    <glyph glyph-name="parenright" unicode=")" horiz-adv-x="330" 
d="M205 250q0 51 -7 97t-19 86.5t-27 76t-30 64.5q-36 68 -82 121l40 25q47 -56 85 -128q16 -31 31 -68t27 -80.5t19.5 -92t7.5 -101.5q0 -54 -7.5 -102.5t-19.5 -91.5t-27 -80t-31 -68q-38 -72 -85 -128l-40 25q46 52 82 121q31 58 57 140t26 184z" />
    <glyph glyph-name="asterisk" unicode="*" horiz-adv-x="390" 
d="M115 400l-30 25l85 110l-130 30l15 40l125 -40l-5 135h40l-5 -135l125 40l15 -40l-130 -30l85 -110l-30 -25l-80 115z" />
    <glyph glyph-name="plus" unicode="+" horiz-adv-x="505" 
d="M275 510v-195h185v-45h-185v-195h-45v195h-185v45h185v195h45z" />
    <glyph glyph-name="comma" unicode="," horiz-adv-x="195" 
d="M135 40l-105 -165l-30 15l85 180z" />
    <glyph glyph-name="hyphen" unicode="-" horiz-adv-x="420" 
d="M375 275h-330v45h330v-45z" />
    <glyph glyph-name="period" unicode="." horiz-adv-x="200" 
d="M65 30q0 15 10 25t25 10t25 -10t10 -25t-10 -25t-25 -10t-25 10t-10 25z" />
    <glyph glyph-name="slash" unicode="/" horiz-adv-x="425" 
d="M85 -210h-50l305 920h50z" />
    <glyph glyph-name="zero" unicode="0" horiz-adv-x="670" 
d="M115 350q0 -75 19 -133t50 -97t70.5 -59.5t80.5 -20.5t80.5 20.5t70.5 59.5t50 97t19 133t-19 133t-50 97t-70.5 59.5t-80.5 20.5t-80.5 -20.5t-70.5 -59.5t-50 -97t-19 -133zM605 350q0 -84 -23 -151t-61 -113.5t-86.5 -71t-99.5 -24.5t-99.5 24.5t-86.5 71t-61 113.5
t-23 151t23 151t61 113.5t86.5 71t99.5 24.5t99.5 -24.5t86.5 -71t61 -113.5t23 -151z" />
    <glyph glyph-name="one" unicode="1" horiz-adv-x="345" 
d="M230 700v-700h-50v610q-13 -16 -32 -28q-17 -11 -42.5 -19t-60.5 -8v40q35 0 62.5 16t45.5 36q21 23 37 53h40z" />
    <glyph glyph-name="two" unicode="2" horiz-adv-x="545" 
d="M45 0q0 69 29 119t72 89t94 71.5t94 66t72 72.5t29 92q0 31 -12 58t-34 47.5t-53.5 32.5t-70.5 12q-52 0 -84 -20t-50 -43q-21 -27 -31 -62l-45 20q12 43 39 77q12 15 27.5 29t36.5 25t47.5 17.5t59.5 6.5q49 0 89.5 -16t69.5 -43.5t45 -64t16 -76.5q0 -56 -25.5 -98
t-64.5 -76.5t-85.5 -64.5t-89.5 -62.5t-76 -70.5t-44 -88h385v-50h-440z" />
    <glyph glyph-name="three" unicode="3" horiz-adv-x="540" 
d="M335 370q40 -10 72 -33q27 -20 50 -55t23 -92q0 -39 -17 -75t-47.5 -64t-72.5 -44.5t-93 -16.5q-57 0 -98 16t-68 36q-32 23 -54 53l35 35q19 -26 46 -45q23 -17 57 -31t82 -14q41 0 74.5 12t57 33t36 48t12.5 57t-12.5 57t-36 47.5t-57 33t-74.5 12.5h-65v50h65
q36 0 64.5 10.5t48.5 29.5t31 44.5t11 55.5q0 26 -11 49.5t-31 41.5t-48.5 28.5t-64.5 10.5q-41 0 -71.5 -12.5t-51.5 -27.5q-25 -18 -42 -40l-35 40q21 25 51 45q26 17 63 31t86 14q45 0 82.5 -15t65 -39.5t42.5 -57t15 -68.5q0 -49 -18.5 -80t-41.5 -49q-26 -21 -60 -31z
" />
    <glyph glyph-name="four" unicode="4" horiz-adv-x="565" 
d="M525 210v-50h-90v-160h-50v160h-360v60l350 480h60v-490h90zM385 635l-310 -425h310v425z" />
    <glyph glyph-name="five" unicode="5" horiz-adv-x="593" 
d="M300 445q47 0 88 -17.5t71.5 -48.5t48 -73t17.5 -91q0 -47 -17.5 -88t-49 -71.5t-74.5 -48t-94 -17.5q-55 0 -95 16t-67 36q-32 23 -53 53l35 35q19 -26 45 -45q23 -17 56.5 -31t78.5 -14q41 0 75 13.5t58.5 36.5t38 55t13.5 70q0 39 -13.5 72t-36.5 57t-55.5 37.5
t-69.5 13.5q-42 0 -71.5 -13.5t-49.5 -29.5q-23 -18 -39 -42h-40l25 390h355v-50h-310l-15 -260q17 15 39 27q19 11 45.5 19.5t60.5 8.5z" />
    <glyph glyph-name="six" unicode="6" horiz-adv-x="575" 
d="M285 440q49 0 91 -17.5t73 -48t48.5 -71.5t17.5 -88t-17.5 -88t-48.5 -71.5t-73 -48t-91 -17.5t-91 17.5t-73 48t-48.5 71.5t-17.5 88q0 32 7.5 59.5t17.5 47.5q11 24 25 43l210 335h55l-175 -280q10 6 24 10q12 4 28.5 7t37.5 3zM465 215q0 37 -13.5 69.5t-37.5 55.5
t-57 36.5t-72 13.5t-72 -13.5t-57 -36.5t-37.5 -55.5t-13.5 -69.5q0 -38 13.5 -70t37.5 -55t57 -36.5t72 -13.5t72 13.5t57 36.5t37.5 55t13.5 70z" />
    <glyph glyph-name="seven" unicode="7" horiz-adv-x="475" 
d="M455 700v-50l-320 -650h-50l320 650h-380v50h430z" />
    <glyph glyph-name="eight" unicode="8" 
d="M290 405q32 0 58.5 9.5t46 26.5t30 39.5t10.5 49.5q0 26 -10.5 49.5t-30 41.5t-46 28.5t-58.5 10.5t-58.5 -10.5t-46 -28.5t-30 -41.5t-10.5 -49.5q0 -27 10.5 -49.5t30 -39.5t46 -26.5t58.5 -9.5zM290 40q39 0 71.5 12.5t55.5 33.5t35.5 49t12.5 60t-13.5 61t-36.5 51
t-55.5 35t-69.5 13q-38 0 -70 -13t-55 -35t-36.5 -51t-13.5 -61t12.5 -60t35.5 -49t55.5 -33.5t71.5 -12.5zM290 -10q-49 0 -90 16.5t-71 44.5t-47 65.5t-17 78.5q0 53 20.5 88t46.5 57q30 26 68 40q-30 12 -53 32q-20 17 -36 45.5t-16 72.5q0 36 15 68.5t41 57t62 39.5
t77 15t76.5 -15t62 -39.5t41.5 -57t15 -68.5q0 -44 -16.5 -72.5t-36.5 -45.5q-23 -20 -52 -32q37 -14 67 -40q26 -22 47 -57t21 -88q0 -41 -17 -78.5t-47 -65.5t-71 -44.5t-90 -16.5z" />
    <glyph glyph-name="nine" unicode="9" horiz-adv-x="575" 
d="M290 260q-49 0 -91 17.5t-73 48t-48.5 71.5t-17.5 88t17.5 88t48.5 71.5t73 48t91 17.5t91 -17.5t73 -48t48.5 -71.5t17.5 -88q0 -32 -8 -59.5t-17 -47.5q-11 -24 -25 -43l-210 -335h-55l175 280q-10 -6 -24 -10q-12 -4 -29 -7t-37 -3zM110 485q0 -38 13.5 -70t37.5 -55
t57 -36.5t72 -13.5t72 13.5t57 36.5t37.5 55t13.5 70q0 37 -13.5 69.5t-37.5 55.5t-57 36.5t-72 13.5t-72 -13.5t-57 -36.5t-37.5 -55.5t-13.5 -69.5z" />
    <glyph glyph-name="colon" unicode=":" horiz-adv-x="200" 
d="M65 30q0 15 10 25t25 10t25 -10t10 -25t-10 -25t-25 -10t-25 10t-10 25zM65 450q0 15 10 25t25 10t25 -10t10 -25t-10 -25t-25 -10t-25 10t-10 25z" />
    <glyph glyph-name="semicolon" unicode=";" horiz-adv-x="200" 
d="M65 450q0 15 10 25t25 10t25 -10t10 -25t-10 -25t-25 -10t-25 10t-10 25zM135 40l-105 -165l-30 15l85 180z" />
    <glyph glyph-name="less" unicode="&#x3c;" horiz-adv-x="490" 
d="M50 265l390 205v-50l-335 -175l335 -175v-50l-390 205v40z" />
    <glyph glyph-name="equal" unicode="=" horiz-adv-x="500" 
d="M445 185h-395v45h395v-45zM445 360h-395v45h395v-45z" />
    <glyph glyph-name="greater" unicode="&#x3e;" horiz-adv-x="490" 
d="M440 225l-390 -205v50l335 175l-335 175v50l390 -205v-40z" />
    <glyph glyph-name="question" unicode="?" horiz-adv-x="515" 
d="M225 160q-2 6 -3 13q-1 6 -1.5 14t-0.5 18q0 41 14.5 71t36 53.5t47 43t47 41.5t36 48.5t14.5 62.5q0 28 -11 52.5t-31.5 43t-50.5 29t-67 10.5q-53 0 -85 -18.5t-50 -41.5q-21 -26 -30 -60l-45 15q14 43 41 77q23 29 64 53.5t105 24.5q47 0 85.5 -15t66.5 -40t43 -59
t15 -71q0 -46 -14.5 -77t-36 -54.5t-47 -42.5t-47 -41.5t-36 -51.5t-14.5 -73v-25h-45zM210 30q0 15 10 25t25 10t25 -10t10 -25t-10 -25t-25 -10t-25 10t-10 25z" />
    <glyph glyph-name="at" unicode="@" horiz-adv-x="890" 
d="M435 385q-26 0 -49 -10t-40 -28t-26.5 -44t-9.5 -58t9.5 -58t26.5 -44t40 -28t49 -10t49 10t40 28t26.5 44t9.5 58t-9.5 58t-26.5 44t-40 28t-49 10zM435 430q34 0 57.5 -11t38.5 -24q18 -16 29 -35v65h45v-222q0 -53 21.5 -75.5t53.5 -22.5q19 0 36 9t30 28.5t21 51
t8 76.5q0 66 -25 123.5t-69 100t-104.5 67t-131.5 24.5q-68 0 -128 -26.5t-105 -72t-71 -106.5t-26 -130t26 -130t71 -106.5t105 -72t128 -26.5q47 0 84 10.5t63 24.5q30 15 53 35l25 -35q-25 -22 -58 -40q-29 -15 -71 -27.5t-96 -12.5q-75 0 -143 30.5t-119.5 82.5t-82 121
t-30.5 146t30.5 146t82 121t119.5 82.5t143 30.5q79 0 147.5 -29t119 -78t79.5 -114.5t29 -138.5q0 -54 -11.5 -94t-30.5 -65.5t-44.5 -38t-53.5 -12.5q-32 0 -53 13t-34 29q-15 18 -23 43q-12 -25 -30 -43q-16 -16 -41.5 -29t-63.5 -13q-34 0 -64.5 14t-54 39t-37.5 59
t-14 73t14 73t37.5 59t54 39t64.5 14z" />
    <glyph glyph-name="A" unicode="A" horiz-adv-x="680" 
d="M340 630l-155 -375h310zM165 205l-85 -205h-55l290 700h50l290 -700h-55l-85 205h-350z" />
    <glyph glyph-name="B" unicode="B" horiz-adv-x="660" 
d="M470 375q35 -14 62 -38q23 -21 43 -55t20 -87q0 -41 -15.5 -77t-43.5 -62t-67.5 -41t-88.5 -15h-270v700h260q43 0 78 -13.5t60 -36.5t38.5 -55.5t13.5 -69.5q0 -44 -14 -72.5t-31 -45.5q-20 -20 -45 -32zM380 50q79 0 122 40.5t43 104.5q0 68 -43 109t-122 41h-220v-295
h220zM160 650v-255h210q68 0 104 35t36 95q0 57 -36 91t-104 34h-210z" />
    <glyph glyph-name="C" unicode="C" horiz-adv-x="750" 
d="M60 350q0 75 28 140.5t76.5 114.5t113 77t137.5 28q72 0 125 -23.5t89 -51.5q41 -33 71 -75l-35 -30q-26 36 -62 65q-31 24 -78 44.5t-110 20.5q-64 0 -119.5 -24t-97 -65.5t-65 -98t-23.5 -122.5t23.5 -122.5t65 -98t97 -65.5t119.5 -24t111.5 20t79.5 45q37 28 64 65
l35 -30q-31 -42 -74 -75q-37 -29 -90.5 -52t-125.5 -23q-73 0 -137.5 28t-113 77t-76.5 114.5t-28 140.5z" />
    <glyph glyph-name="D" unicode="D" horiz-adv-x="740" 
d="M315 700q79 0 145.5 -27.5t115.5 -74.5t76.5 -111t27.5 -137t-27.5 -137t-76.5 -111t-115.5 -74.5t-145.5 -27.5h-205v700h205zM160 650v-600h155q69 0 127 23t100 63.5t65 95t23 118.5t-23 118.5t-65 95t-100 63.5t-127 23h-155z" />
    <glyph glyph-name="E" unicode="E" horiz-adv-x="630" 
d="M590 50v-50h-480v700h470v-50h-420v-260h340v-50h-340v-290h430z" />
    <glyph glyph-name="F" unicode="F" horiz-adv-x="610" 
d="M575 700v-50h-415v-270h335v-50h-335v-330h-50v700h465z" />
    <glyph glyph-name="G" unicode="G" horiz-adv-x="790" 
d="M60 350q0 75 28 140.5t76.5 114.5t113 77t137.5 28q72 0 125 -23.5t89 -51.5q41 -33 71 -75l-35 -30q-26 36 -62 65q-31 24 -78 44.5t-110 20.5q-64 0 -119.5 -24t-97 -65.5t-65 -98t-23.5 -122.5t23.5 -122.5t65 -98t97 -65.5t119.5 -24q60 0 105.5 17.5t76.5 39.5
q36 26 63 58v145h-180v50h230v-210q-32 -42 -76 -75q-38 -29 -92.5 -52t-126.5 -23q-73 0 -137.5 28t-113 77t-76.5 114.5t-28 140.5z" />
    <glyph glyph-name="H" unicode="H" horiz-adv-x="750" 
d="M110 700h50v-320h425v320h50v-700h-50v330h-425v-330h-50v700z" />
    <glyph glyph-name="I" unicode="I" horiz-adv-x="270" 
d="M110 700h50v-700h-50v700z" />
    <glyph glyph-name="J" unicode="J" horiz-adv-x="490" 
d="M385 700v-495q0 -47 -16 -86.5t-44 -68t-66.5 -44.5t-83.5 -16q-40 0 -70.5 11.5t-51.5 25.5q-25 17 -43 38l35 35q14 -17 33 -30q17 -11 41 -20.5t56 -9.5q36 0 65.5 11.5t50.5 33.5t32.5 52t11.5 68v495h50z" />
    <glyph glyph-name="K" unicode="K" horiz-adv-x="655" 
d="M550 700h65l-265 -290l290 -410h-60l-260 375l-160 -175v-200h-50v700h50v-430z" />
    <glyph glyph-name="L" unicode="L" horiz-adv-x="560" 
d="M110 0v700h50v-650h375v-50h-425z" />
    <glyph glyph-name="M" unicode="M" horiz-adv-x="920" 
d="M160 605v-605h-50v700h40l310 -410l310 410h40v-700h-50v605l-300 -400z" />
    <glyph glyph-name="N" unicode="N" horiz-adv-x="775" 
d="M665 700v-700h-40l-465 605v-605h-50v700h40l465 -605v605h50z" />
    <glyph glyph-name="O" unicode="O" horiz-adv-x="830" 
d="M720 350q0 66 -24 122.5t-65 98t-96.5 65.5t-119.5 24t-119.5 -24t-97 -65.5t-65 -98t-23.5 -122.5t23.5 -122.5t65 -98t97 -65.5t119.5 -24t119.5 24t96.5 65.5t65 98t24 122.5zM770 350q0 -75 -28 -140.5t-76 -114.5t-112.5 -77t-138.5 -28t-138.5 28t-112.5 77
t-76 114.5t-28 140.5t28 140.5t76.5 114.5t113 77t137.5 28q74 0 138.5 -28t112.5 -77t76 -114.5t28 -140.5z" />
    <glyph glyph-name="P" unicode="P" horiz-adv-x="640" 
d="M360 700q49 0 90 -16.5t71 -46t47 -68.5t17 -84t-17 -84t-47 -68.5t-71 -46t-90 -16.5h-200v-270h-50v700h250zM160 650v-330h200q39 0 71.5 12.5t55.5 34.5t35.5 52t12.5 66t-12.5 66t-35.5 52t-55.5 34.5t-71.5 12.5h-200z" />
    <glyph glyph-name="Q" unicode="Q" horiz-adv-x="835" 
d="M510 3q-12 -4 -27 -7q-13 -2 -30.5 -4t-37.5 -2q-74 0 -138.5 28t-112.5 77t-76 114.5t-28 140.5t28 140.5t76.5 114.5t113 77t137.5 28q74 0 138.5 -28t112.5 -77t76 -114.5t28 -140.5q0 -45 -9 -83t-24 -70t-34 -57.5t-38 -44.5q-47 -47 -105 -75q16 -31 43 -55
q23 -21 60 -38t92 -17q13 0 22.5 0.5t15.5 1.5q7 1 12 3v-50q-5 -2 -12 -3q-6 -1 -15.5 -1.5t-22.5 -0.5q-68 0 -114.5 22t-75.5 49q-34 32 -55 72zM720 350q0 66 -24 122.5t-65 98t-96.5 65.5t-119.5 24t-119.5 -24t-97 -65.5t-65 -98t-23.5 -122.5t23.5 -122.5t65 -98
t97 -65.5t119.5 -24t119.5 24t96.5 65.5t65 98t24 122.5z" />
    <glyph glyph-name="R" unicode="R" horiz-adv-x="660" 
d="M375 700q47 0 86.5 -16t68 -43.5t44.5 -65t16 -80.5q0 -31 -6.5 -56t-17.5 -44.5t-25 -34t-29 -24.5q-34 -25 -77 -36l170 -300h-55l-165 290h-225v-290h-50v700h265zM160 650v-310h215q37 0 67.5 11.5t52.5 32t33.5 49t11.5 62.5t-11.5 62.5t-33.5 49t-52.5 32
t-67.5 11.5h-215z" />
    <glyph glyph-name="S" unicode="S" horiz-adv-x="560" 
d="M455 185q0 36 -17 59.5t-44 40t-62 28.5t-72 23.5t-72 25.5t-62 35.5t-44 52t-17 75.5q0 37 15.5 71t44 59t69 40t91.5 15q49 0 86 -13.5t63 -29.5q30 -18 51 -42l-35 -35q-17 19 -41 35q-21 13 -51.5 24t-72.5 11q-41 0 -73 -10.5t-53.5 -29t-32.5 -43t-11 -52.5
q0 -36 17 -59.5t44 -40t62 -28.5t72 -23.5t72 -25.5t62 -35.5t44 -52t17 -75.5q0 -41 -15.5 -77t-45 -62t-72.5 -41t-97 -15q-59 0 -101.5 16t-71.5 36q-33 23 -57 53l35 35q19 -26 47 -45q24 -17 60.5 -31t87.5 -14q91 0 135.5 40.5t44.5 104.5z" />
    <glyph glyph-name="T" unicode="T" horiz-adv-x="550" 
d="M530 700v-50h-230v-650h-50v650h-230v50h510z" />
    <glyph glyph-name="U" unicode="U" horiz-adv-x="750" 
d="M375 40q47 0 88 17.5t71.5 48.5t48 73t17.5 91v430h50v-430q0 -58 -22 -109t-59.5 -89t-87.5 -60t-106 -22t-106 22t-87.5 60t-59.5 89t-22 109v430h50v-430q0 -49 17.5 -91t48 -73t71.5 -48.5t88 -17.5z" />
    <glyph glyph-name="V" unicode="V" horiz-adv-x="660" 
d="M30 700h55l245 -625l245 625h55l-275 -700h-50z" />
    <glyph glyph-name="W" unicode="W" horiz-adv-x="1010" 
d="M305 0h-50l-225 700h55l195 -620l200 620h50l200 -620l195 620h55l-225 -700h-50l-200 620z" />
    <glyph glyph-name="X" unicode="X" horiz-adv-x="630" 
d="M345 365l260 -365h-60l-230 325l-230 -325h-60l260 365l-240 335h60l210 -295l210 295h60z" />
    <glyph glyph-name="Y" unicode="Y" horiz-adv-x="620" 
d="M310 300l225 400h60l-260 -455v-245h-50v245l-260 455h60z" />
    <glyph glyph-name="Z" unicode="Z" horiz-adv-x="585" 
d="M60 650v50h470v-50l-425 -600h435v-50h-495v50l425 600h-410z" />
    <glyph glyph-name="bracketleft" unicode="[" horiz-adv-x="340" 
d="M150 -160h145v-50h-195v920h195v-50h-145v-820z" />
    <glyph glyph-name="backslash" unicode="\" horiz-adv-x="425" 
d="M35 710h50l305 -920h-50z" />
    <glyph glyph-name="bracketright" unicode="]" horiz-adv-x="340" 
d="M190 660h-145v50h195v-920h-195v50h145v820z" />
    <glyph glyph-name="asciicircum" unicode="^" horiz-adv-x="390" 
d="M215 700l125 -275h-45l-100 220l-100 -220h-45l125 275h40z" />
    <glyph glyph-name="underscore" unicode="_" horiz-adv-x="320" 
d="M330 -160h-340v45h340v-45z" />
    <glyph glyph-name="grave" unicode="`" horiz-adv-x="190" 
d="M160 565h-40l-90 130h55z" />
    <glyph glyph-name="a" unicode="a" horiz-adv-x="500" 
d="M370 300q0 31 -10.5 57.5t-28.5 46t-42.5 30.5t-53.5 11q-33 0 -59 -11t-44 -24q-21 -16 -37 -35l-30 30q18 24 44 42q22 16 53.5 29.5t72.5 13.5q39 0 72 -14.5t57 -40t37.5 -60.5t13.5 -75v-300h-45v80q-17 -26 -43 -45q-22 -17 -54.5 -31t-77.5 -14q-36 0 -65.5 11
t-50.5 30t-32.5 43.5t-11.5 50.5q0 57 38.5 95.5t106.5 49.5zM195 35q37 0 69.5 13.5t55.5 36.5t36.5 55t13.5 70v45l-180 -30q-57 -9 -83.5 -35.5t-26.5 -64.5q0 -17 8 -33t23 -29t36.5 -20.5t47.5 -7.5z" />
    <glyph glyph-name="b" unicode="b" horiz-adv-x="595" 
d="M130 240q0 -43 15.5 -80.5t41.5 -65t59 -43.5t69 -16q34 0 66 16t57.5 43.5t41 65t15.5 80.5t-15.5 80.5t-41 65t-57.5 43.5t-66 16q-36 0 -69 -16t-59 -43.5t-41.5 -65t-15.5 -80.5zM130 385q19 29 46 52q23 20 57 36.5t82 16.5q43 0 83.5 -19.5t72 -53t50.5 -79.5
t19 -98q0 -53 -19 -98.5t-50.5 -79t-72 -53t-83.5 -19.5q-48 0 -82 16t-57 36q-27 23 -46 53v-95h-45v700h45v-315z" />
    <glyph glyph-name="c" unicode="c" horiz-adv-x="515" 
d="M45 240q0 52 19 98t51.5 79.5t75 53t89.5 19.5t82.5 -15.5t59.5 -34.5q28 -22 48 -50l-35 -30q-15 24 -38 42q-20 16 -49 29.5t-68 13.5q-38 0 -72 -16t-60.5 -43.5t-42 -65t-15.5 -80.5t15.5 -80.5t42 -65t60.5 -43.5t72 -16q39 0 68 13t49 29q23 18 38 43l35 -30
q-20 -28 -48 -50q-24 -19 -59.5 -34.5t-82.5 -15.5t-89.5 19.5t-75 53t-51.5 79t-19 98.5z" />
    <glyph glyph-name="d" unicode="d" horiz-adv-x="595" 
d="M455 240q0 43 -15.5 80.5t-41.5 65t-59 43.5t-69 16q-34 0 -66 -16t-57.5 -43.5t-41 -65t-15.5 -80.5t15.5 -80.5t41 -65t57.5 -43.5t66 -16q36 0 69 16t59 43.5t41.5 65t15.5 80.5zM455 700h45v-700h-45v95q-19 -30 -46 -53q-23 -20 -57.5 -36t-81.5 -16
q-43 0 -83.5 19.5t-72 53t-50.5 79t-19 98.5q0 52 19 98t50.5 79.5t72 53t83.5 19.5q47 0 81.5 -16.5t57.5 -36.5q27 -23 46 -52v315z" />
    <glyph glyph-name="e" unicode="e" horiz-adv-x="550" 
d="M90 220q2 -38 18 -71.5t41.5 -58.5t59 -40t71.5 -15q39 0 69 13t50 29q24 18 41 42l30 -29q-20 -28 -48 -50q-24 -19 -59.5 -34.5t-82.5 -15.5t-89.5 19.5t-75 53t-51.5 79t-19 98.5q0 52 19 98t51 79.5t73.5 53t86.5 19.5t85 -18t70 -51t47.5 -79t17.5 -102v-20h-405z
M275 445q-36 0 -68.5 -15t-58 -39.5t-41 -57t-17.5 -68.5h360q-2 39 -16 72t-37.5 57t-54.5 37.5t-67 13.5z" />
    <glyph glyph-name="f" unicode="f" horiz-adv-x="310" 
d="M275 435h-120v-435h-45v435h-80v45h80v100q0 64 31.5 97t88.5 33q13 0 25 -2.5t21 -5.5q11 -4 19 -7v-45q-8 3 -19 7q-9 3 -21 5.5t-25 2.5q-34 0 -54.5 -21.5t-20.5 -63.5v-100h120v-45z" />
    <glyph glyph-name="g" unicode="g" horiz-adv-x="585" 
d="M90 250q0 -41 14.5 -77t39 -62t56 -41t65.5 -15t66 15t57.5 41t41 62t15.5 77t-15.5 76.5t-41 62t-57.5 41.5t-66 15t-65.5 -15t-56 -41.5t-39 -62t-14.5 -76.5zM445 110q-17 -28 -43 -50q-22 -19 -56 -34.5t-81 -15.5q-43 0 -83 18.5t-70.5 51t-48.5 76t-18 94.5
t18 94.5t48.5 76t70.5 51t83 18.5q47 0 81 -15.5t56 -34.5q26 -22 43 -50v90h45v-450q0 -51 -18.5 -94.5t-50 -76t-73 -51t-88.5 -18.5q-49 0 -85 15.5t-59 34.5q-27 22 -46 50l30 30q17 -25 41 -43q20 -16 49.5 -29t69.5 -13q37 0 71 15t59 41t40 62t15 77v80z" />
    <glyph glyph-name="h" unicode="h" horiz-adv-x="575" 
d="M130 395q14 26 37 47q20 18 51.5 33t76.5 15q41 0 76.5 -15t62 -42.5t41.5 -65t15 -82.5v-285h-45v285q0 36 -11.5 65.5t-31.5 50.5t-47.5 32.5t-59.5 11.5q-34 0 -64 -13.5t-52.5 -36.5t-35.5 -55.5t-13 -69.5v-270h-45v700h45v-305z" />
    <glyph glyph-name="i" unicode="i" horiz-adv-x="225" 
d="M85 480h45v-480h-45v480zM75 650q0 15 10 25t25 10t25 -10t10 -25t-10 -25t-25 -10t-25 10t-10 25z" />
    <glyph glyph-name="j" unicode="j" horiz-adv-x="225" 
d="M85 480h45v-560q0 -60 -33.5 -95t-86.5 -35q-14 0 -24.5 2t-18.5 5q-10 4 -17 8v45q7 -4 17 -8q8 -3 18.5 -5t24.5 -2q34 0 54.5 21.5t20.5 63.5v560zM75 650q0 15 10 25t25 10t25 -10t10 -25t-10 -25t-25 -10t-25 10t-10 25z" />
    <glyph glyph-name="k" unicode="k" horiz-adv-x="500" 
d="M130 0h-45v700h45v-505l265 285h60l-180 -195l205 -285h-55l-180 250h-5l-110 -120v-130z" />
    <glyph glyph-name="l" unicode="l" horiz-adv-x="225" 
d="M130 0h-45v700h45v-700z" />
    <glyph glyph-name="m" unicode="m" horiz-adv-x="865" 
d="M735 285q0 37 -10.5 67t-29 50.5t-43 31.5t-52.5 11q-30 0 -56.5 -12t-46 -34.5t-31 -55t-11.5 -73.5v-270h-45v285q0 37 -10.5 67t-29 50.5t-43 31.5t-52.5 11q-30 0 -56.5 -12t-46 -34.5t-31 -55t-11.5 -73.5v-270h-45v480h45v-70q13 22 33 40q17 15 44.5 27.5
t67.5 12.5q45 0 75.5 -17.5t49.5 -37.5q22 -25 35 -55q12 30 34 55q19 20 51 37.5t80 17.5q37 0 70 -14t57.5 -40t38.5 -64t14 -87v-285h-45v285z" />
    <glyph glyph-name="n" unicode="n" horiz-adv-x="575" 
d="M130 395q14 26 37 47q20 18 51.5 33t76.5 15q41 0 76.5 -15t62 -42.5t41.5 -65t15 -82.5v-285h-45v285q0 36 -11.5 65.5t-31.5 50.5t-47.5 32.5t-59.5 11.5q-34 0 -64 -13.5t-52.5 -36.5t-35.5 -55.5t-13 -69.5v-270h-45v480h45v-85z" />
    <glyph glyph-name="o" unicode="o" 
d="M45 240q0 52 19 98t52 79.5t76.5 53t92.5 19.5t92.5 -19.5t76.5 -53t52 -79.5t19 -98q0 -53 -19 -98.5t-52 -79t-76.5 -53t-92.5 -19.5t-92.5 19.5t-76.5 53t-52 79t-19 98.5zM480 240q0 43 -15.5 80.5t-42.5 65t-62.5 43.5t-74.5 16t-74.5 -16t-62.5 -43.5t-42.5 -65
t-15.5 -80.5t15.5 -80.5t42.5 -65t62.5 -43.5t74.5 -16t74.5 16t62.5 43.5t42.5 65t15.5 80.5z" />
    <glyph glyph-name="p" unicode="p" horiz-adv-x="595" 
d="M130 240q0 -43 15.5 -80.5t41.5 -65t59 -43.5t69 -16q34 0 66 16t57.5 43.5t41 65t15.5 80.5t-15.5 80.5t-41 65t-57.5 43.5t-66 16q-36 0 -69 -16t-59 -43.5t-41.5 -65t-15.5 -80.5zM130 -210h-45v690h45v-95q19 29 46 52q23 20 57 36.5t82 16.5q43 0 83.5 -19.5t72 -53
t50.5 -79.5t19 -98q0 -53 -19 -98.5t-50.5 -79t-72 -53t-83.5 -19.5q-48 0 -82 16t-57 36q-27 23 -46 53v-305z" />
    <glyph glyph-name="q" unicode="q" horiz-adv-x="595" 
d="M455 240q0 43 -15.5 80.5t-41.5 65t-59 43.5t-69 16q-34 0 -66 -16t-57.5 -43.5t-41 -65t-15.5 -80.5t15.5 -80.5t41 -65t57.5 -43.5t66 -16q36 0 69 16t59 43.5t41.5 65t15.5 80.5zM455 95q-19 -30 -46 -53q-23 -20 -57.5 -36t-81.5 -16q-43 0 -83.5 19.5t-72 53
t-50.5 79t-19 98.5q0 52 19 98t50.5 79.5t72 53t83.5 19.5q47 0 81.5 -16.5t57.5 -36.5q27 -23 46 -52v95h45v-690h-45v305z" />
    <glyph glyph-name="r" unicode="r" horiz-adv-x="340" 
d="M320 445h-20q-34 0 -64.5 -12.5t-54 -35.5t-37.5 -55.5t-14 -71.5v-270h-45v480h45v-80q14 25 38 45q20 17 52 31t80 14h20v-45z" />
    <glyph glyph-name="s" unicode="s" horiz-adv-x="430" 
d="M325 385q-12 17 -29 30q-14 11 -36 20.5t-50 9.5q-53 0 -81.5 -26t-28.5 -59q0 -29 20.5 -45.5t51 -27.5t66 -20.5t66 -25t51 -40.5t20.5 -66q0 -30 -12 -56.5t-34 -46t-53.5 -31t-70.5 -11.5q-42 0 -73 12.5t-53 27.5q-26 18 -44 40l35 35q16 -20 36 -35
q17 -14 42 -24.5t57 -10.5q60 0 92.5 29t32.5 71q0 30 -20.5 47t-51 29t-66 21.5t-66 24.5t-51 39t-20.5 64q0 24 11.5 47.5t32 42t49 29.5t62.5 11q35 0 63 -11t48 -24q23 -16 39 -35z" />
    <glyph glyph-name="t" unicode="t" horiz-adv-x="350" 
d="M125 640h40v-160h110v-45h-110v-315q0 -42 20.5 -63.5t54.5 -21.5q13 0 25 2t21 5q11 4 19 8v-45q-8 -4 -19 -8q-9 -3 -21 -5t-25 -2q-57 0 -88.5 33t-31.5 97v315h-95v45h65q15 0 25 10.5t10 29.5v120z" />
    <glyph glyph-name="u" unicode="u" 
d="M445 85q-15 -27 -38 -48q-20 -18 -51 -32.5t-76 -14.5q-41 0 -77 15t-62 42.5t-41 65t-15 82.5v285h45v-285q0 -36 11.5 -65.5t31.5 -50.5t47.5 -32.5t59.5 -11.5q34 0 64 13.5t52.5 36.5t35.5 55t13 70v270h45v-480h-45v85z" />
    <glyph glyph-name="v" unicode="v" horiz-adv-x="480" 
d="M210 0l-195 480h50l170 -420l170 420h50l-195 -480h-50z" />
    <glyph glyph-name="w" unicode="w" horiz-adv-x="710" 
d="M370 480l130 -410l135 410h50l-160 -480h-45l-130 405l-130 -405h-45l-160 480h50l135 -405l130 405h40z" />
    <glyph glyph-name="x" unicode="x" horiz-adv-x="460" 
d="M255 250l180 -250h-55l-155 215l-155 -215h-55l180 250l-165 230h55l140 -195l140 195h55z" />
    <glyph glyph-name="y" unicode="y" horiz-adv-x="480" 
d="M210 0l-195 480h50l170 -420l170 420h50l-230 -570q-26 -64 -56.5 -92t-83.5 -28q-19 0 -32 5q-7 2 -13 5v45q6 -3 13 -5q13 -5 32 -5q34 0 54.5 18.5t35.5 56.5z" />
    <glyph glyph-name="z" unicode="z" horiz-adv-x="445" 
d="M395 435l-310 -390h320v-45h-375v45l310 390h-300v45h355v-45z" />
    <glyph glyph-name="braceleft" unicode="{" horiz-adv-x="355" 
d="M65 270q75 0 75 75v235q0 60 36 95t104 35h35v-45h-35q-95 0 -95 -85v-235q0 -30 -10.5 -48.5t-22.5 -29.5q-14 -12 -32 -17q18 -6 32 -18q12 -11 22.5 -29t10.5 -48v-235q0 -85 95 -85h35v-45h-35q-68 0 -104 35t-36 95v235q0 75 -75 75v40z" />
    <glyph glyph-name="bar" unicode="|" horiz-adv-x="325" 
d="M185 -210h-45v920h45v-920z" />
    <glyph glyph-name="braceright" unicode="}" horiz-adv-x="355" 
d="M290 230q-75 0 -75 -75v-235q0 -60 -36 -95t-104 -35h-35v45h35q95 0 95 85v235q0 30 10 48t22 29q14 12 33 18q-19 5 -33 17q-12 11 -22 29.5t-10 48.5v235q0 85 -95 85h-35v45h35q68 0 104 -35t36 -95v-235q0 -75 75 -75v-40z" />
    <glyph glyph-name="asciitilde" unicode="~" horiz-adv-x="520" 
d="M165 305q-25 0 -41.5 -9.5t-27.5 -20.5q-12 -13 -21 -30l-35 25q13 22 31 40q16 15 39 27.5t55 12.5q36 0 59.5 -11t43 -24t39.5 -24t48 -11q24 0 41 9.5t28 20.5q12 13 21 30l35 -25q-13 -22 -31 -40q-16 -15 -39 -27.5t-55 -12.5q-36 0 -59.5 11t-43 24t-39.5 24
t-48 11z" />
    <glyph glyph-name="nonbreakingspace" unicode="&#xa0;" horiz-adv-x="185" 
 />
    <glyph glyph-name="exclamdown" unicode="&#xa1;" horiz-adv-x="280" 
d="M160 320l10 -530h-60l10 530h40zM105 450q0 15 10 25t25 10t25 -10t10 -25t-10 -25t-25 -10t-25 10t-10 25z" />
    <glyph glyph-name="cent" unicode="&#xa2;" horiz-adv-x="515" 
d="M45 240q0 49 17.5 92.5t47 77.5t68.5 55t82 24v101h45v-102q42 -5 72.5 -21.5t51.5 -33.5q24 -20 41 -44l-35 -30q-15 24 -38 42q-20 16 -49 29.5t-68 13.5q-38 0 -72 -16t-60.5 -43.5t-42 -64.5t-15.5 -80t15.5 -80t42 -64.5t60.5 -43.5t72 -16q39 0 68 13t49 29
q23 18 38 43l35 -30q-17 -24 -41 -44q-21 -17 -51.5 -33.5t-72.5 -21.5v-102h-45v101q-43 3 -82 23.5t-68.5 53.5t-47 77t-17.5 95z" />
    <glyph glyph-name="sterling" unicode="&#xa3;" horiz-adv-x="550" 
d="M145 500q0 47 15 85.5t42 66.5t63.5 43t79.5 15t76 -13.5t55 -29.5q26 -18 44 -42l-35 -35q-15 19 -36 35q-18 13 -44 24t-60 11q-32 0 -59.5 -11.5t-47.5 -32.5t-31.5 -50.5t-11.5 -65.5v-150h205v-50h-205v-175q0 -21 -7.5 -35t-15.5 -23q-10 -11 -22 -17h370v-50h-455
v50q17 0 31.5 7t25.5 17.5t17 24t6 26.5v175h-70v50h70v150v0z" />
    <glyph glyph-name="currency" unicode="&#xa4;" horiz-adv-x="660" 
d="M50 340h85v360h250q47 0 86.5 -16t68 -43.5t44.5 -65t16 -80.5t-16 -80.5t-44.5 -65t-68 -43.5t-86.5 -16h-200v-100h259v-50h-259v-140h-50v140h-85v50h85v100h-85v50zM185 650v-310h200q37 0 67.5 11.5t52.5 32t33.5 49t11.5 62.5t-11.5 62.5t-33.5 49t-52.5 32
t-67.5 11.5h-200z" />
    <glyph glyph-name="yen" unicode="&#xa5;" horiz-adv-x="620" 
d="M310 305l225 395h60l-225 -395h130v-45h-155l-10 -15v-75h165v-45h-165v-125h-50v125h-165v45h165v75l-10 15h-155v45h130l-225 395h60z" />
    <glyph glyph-name="brokenbar" unicode="&#xa6;" horiz-adv-x="325" 
d="M185 170v-380h-45v380h45zM140 330v380h45v-380h-45z" />
    <glyph glyph-name="section" unicode="&#xa7;" horiz-adv-x="528" 
d="M105 320q0 -36 23 -59.5t55 -39.5t67.5 -26.5t59.5 -19.5q29 8 52 23q20 13 36.5 34t16.5 53q0 36 -23 59.5t-55 39.5t-67.5 26.5t-59.5 19.5q-30 -8 -53 -23q-20 -13 -36 -34t-16 -53zM460 285q0 -38 -17.5 -63.5t-37.5 -41.5q-25 -18 -55 -30q20 -10 37 -25
q14 -14 26 -34.5t12 -50.5t-12.5 -57t-35.5 -48t-55.5 -33t-71.5 -12q-42 0 -73 13t-53 29q-26 18 -44 43l35 35q16 -21 36 -38q17 -14 42 -25.5t57 -11.5q30 0 54 8.5t41 23t26 33.5t9 40q0 34 -23.5 54.5t-59.5 36t-77 29t-77 33.5t-59.5 49.5t-23.5 77.5q0 38 17 63.5
t38 41.5q24 18 55 30q-21 9 -38 25q-14 13 -25.5 34t-11.5 51t12 56.5t34 46t53.5 31t70.5 11.5q38 0 66.5 -11t48.5 -24q23 -16 40 -35l-35 -35q-14 17 -32 30q-16 11 -38 20.5t-50 9.5q-60 0 -92.5 -29t-32.5 -71q0 -34 23.5 -54.5t59.5 -36t77 -29t77 -33.5t59.5 -50
t23.5 -77z" />
    <glyph glyph-name="dieresis" unicode="&#xa8;" horiz-adv-x="305" 
d="M30 635q0 15 10 25t25 10t25 -10t10 -25t-10 -25t-25 -10t-25 10t-10 25zM205 635q0 15 10 25t25 10t25 -10t10 -25t-10 -25t-25 -10t-25 10t-10 25z" />
    <glyph glyph-name="copyright" unicode="&#xa9;" horiz-adv-x="870" 
d="M435 710q75 0 140.5 -28t114.5 -77t77 -114.5t28 -140.5t-28 -140.5t-77 -114.5t-114.5 -77t-140.5 -28t-140.5 28t-114.5 77t-77 114.5t-28 140.5t28 140.5t77 114.5t114.5 77t140.5 28zM435 35q67 0 125 24t100 66t66 99.5t24 125.5q0 67 -24 125t-66 100t-100 66
t-125 24q-68 0 -125.5 -24t-99.5 -66t-66 -100t-24 -125q0 -68 24 -125.5t66 -99.5t99.5 -66t125.5 -24zM300 350q0 -32 10.5 -58.5t29.5 -46t44.5 -30t55.5 -10.5q29 0 50.5 9.5t35.5 20.5q17 13 29 30l30 -30q-16 -21 -37 -38q-18 -14 -45.5 -25.5t-62.5 -11.5
q-39 0 -73 14t-59 39.5t-39 60.5t-14 76t14 76t39 60.5t59 39.5t73 14q35 0 62.5 -12t45.5 -26q21 -17 37 -37l-30 -30q-12 17 -29 30q-14 11 -35.5 20.5t-50.5 9.5q-30 0 -55.5 -10.5t-44.5 -30t-29.5 -46t-10.5 -58.5z" />
    <glyph glyph-name="ordfeminine" unicode="&#xaa;" horiz-adv-x="320" 
d="M125 405q-42 0 -66 23t-24 57t24 58t66 32l105 20q0 75 -75 75q-17 0 -30 -6t-22 -14q-11 -9 -18 -20l-30 25q11 15 26 27q13 11 31 19.5t43 8.5q53 0 84 -29t31 -71v-195h-40v45q-9 -16 -24 -28q-13 -11 -33 -19t-48 -8zM125 535q-50 -10 -50 -50q0 -15 14.5 -27.5
t40.5 -12.5q45 0 72.5 27.5t27.5 73.5v9z" />
    <glyph glyph-name="guillemotleft" unicode="&#xab;" horiz-adv-x="440" 
d="M50 240l115 160h55l-115 -160l115 -160h-55zM220 240l115 160h55l-115 -160l115 -160h-55z" />
    <glyph glyph-name="logicalnot" unicode="&#xac;" horiz-adv-x="455" 
d="M410 195h-50v140h-315v45h365v-185z" />
    <glyph glyph-name="uni00AD" unicode="&#xad;" horiz-adv-x="420" 
d="M375 270h-330v45h330v-45z" />
    <glyph glyph-name="registered" unicode="&#xae;" horiz-adv-x="870" 
d="M585 165h-50l-80 150h-95v-150h-45v370h130q28 0 51.5 -9t39.5 -24t25 -35t9 -42q0 -29 -11 -47.5t-24 -30.5q-16 -14 -35 -22zM360 360h85q42 0 61 17.5t19 47.5t-19 47.5t-61 17.5h-85v-130zM435 710q75 0 140.5 -28t114.5 -77t77 -114.5t28 -140.5t-28 -140.5
t-77 -114.5t-114.5 -77t-140.5 -28t-140.5 28t-114.5 77t-77 114.5t-28 140.5t28 140.5t77 114.5t114.5 77t140.5 28zM435 35q67 0 125 24t100 66t66 99.5t24 125.5q0 67 -24 125t-66 100t-100 66t-125 24q-68 0 -125.5 -24t-99.5 -66t-66 -100t-24 -125q0 -68 24 -125.5
t66 -99.5t99.5 -66t125.5 -24z" />
    <glyph glyph-name="macron" unicode="&#xaf;" horiz-adv-x="330" 
d="M300 645h-270v40h270v-40z" />
    <glyph glyph-name="degree" unicode="&#xb0;" horiz-adv-x="350" 
d="M90 580q0 -38 23.5 -61.5t61.5 -23.5t61.5 23.5t23.5 61.5t-23.5 61.5t-61.5 23.5t-61.5 -23.5t-23.5 -61.5zM305 580q0 -57 -36.5 -93.5t-93.5 -36.5t-93.5 36.5t-36.5 93.5t36.5 93.5t93.5 36.5t93.5 -36.5t36.5 -93.5z" />
    <glyph glyph-name="plusminus" unicode="&#xb1;" horiz-adv-x="505" 
d="M45 90h415v-45h-415v45zM275 595v-195h185v-45h-185v-195h-45v195h-185v45h185v195h45z" />
    <glyph glyph-name="twosuperior" unicode="&#xb2;" horiz-adv-x="285" 
d="M25 450q0 37 14 64.5t35 48.5t46 37t46 32t35 33t14 39q0 23 -20 42t-50 19q-23 0 -38.5 -9.5t-24.5 -20.5q-11 -13 -17 -30l-35 15q8 24 24 42q13 16 35 29.5t56 13.5q26 0 46.5 -8.5t34.5 -23t21.5 -32.5t7.5 -37q0 -29 -11.5 -49.5t-29.5 -36.5t-40.5 -30t-43 -28
t-37.5 -31t-25 -39h187v-40h-230z" />
    <glyph glyph-name="threesuperior" unicode="&#xb3;" horiz-adv-x="295" 
d="M205 635q17 -3 30 -14q11 -9 20.5 -26t9.5 -45q0 -21 -9 -40.5t-25 -33.5t-38 -22.5t-48 -8.5q-30 0 -53.5 9.5t-39.5 20.5q-18 13 -32 30l30 30q11 -14 25 -25q12 -10 29.5 -17.5t40.5 -7.5q38 0 59 18t21 47q0 28 -20 46.5t-58 18.5h-47v40h45q65 0 65 55q0 23 -18 39
t-52 16q-20 0 -35 -7.5t-25 -15.5q-11 -10 -20 -22l-30 30q11 15 28 27q14 11 34.5 19.5t47.5 8.5q24 0 44.5 -8t35 -21t22.5 -30t8 -36q0 -23 -7.5 -37.5t-15.5 -22.5q-10 -10 -22 -15z" />
    <glyph glyph-name="acute" unicode="&#xb4;" horiz-adv-x="190" 
d="M105 695h55l-90 -130h-40z" />
    <glyph glyph-name="mu" unicode="&#xb5;" 
d="M435 80q-13 -26 -34 -45q-18 -17 -48 -31t-73 -14q-38 0 -66 10.5t-47 24.5q-22 15 -37 35v-270h-45v690h45v-285q0 -36 11.5 -65.5t31.5 -50.5t47.5 -32.5t59.5 -11.5q34 0 62.5 13.5t49 36.5t32 55t11.5 70v270h45v-390q0 -23 13.5 -36.5t36.5 -13.5q14 0 22 3q4 1 8 3
v-46q-4 -2 -8 -3t-9 -1.5t-13 -0.5q-42 0 -68.5 25.5t-26.5 59.5z" />
    <glyph glyph-name="paragraph" unicode="&#xb6;" horiz-adv-x="523" 
d="M210 380q-32 0 -61 13t-51 35t-35 51t-13 61t13 61t35 51t51 35t61 13h205v-800h-45v755h-115v-755h-45v480z" />
    <glyph glyph-name="periodcentered" unicode="&#xb7;" horiz-adv-x="185" 
d="M61 250q0 15 10 25t25 10t25 -10t10 -25t-10 -25t-25 -10t-25 10t-10 25z" />
    <glyph glyph-name="cedilla" unicode="&#xb8;" horiz-adv-x="230" 
d="M145 20l-40 -80q1 1 5 2q3 1 7.5 2t12.5 1q30 0 50 -20t20 -50t-24 -52.5t-66 -22.5q-17 0 -31.5 4t-25.5 9q-12 6 -23 14l15 28q8 -8 19 -13q9 -5 20.5 -8.5t25.5 -3.5q27 0 41 13t14 32q0 15 -12 27.5t-28 12.5q-8 0 -14 -1.5t-11 -3.5l-10 -5l-25 25l45 90h35z" />
    <glyph glyph-name="onesuperior" unicode="&#xb9;" horiz-adv-x="200" 
d="M140 800v-350h-40v290q-6 -9 -16 -15q-8 -6 -21.5 -10.5t-32.5 -4.5v35q19 0 32.5 8t23.5 19q11 12 19 28h35z" />
    <glyph glyph-name="ordmasculine" unicode="&#xba;" horiz-adv-x="360" 
d="M180 440q49 0 79.5 31t30.5 84t-30.5 84t-79.5 31t-79.5 -31t-30.5 -84t30.5 -84t79.5 -31zM180 400q-32 0 -59.5 11.5t-47.5 32t-31.5 49t-11.5 62.5t11.5 62.5t31.5 49t47.5 32t59.5 11.5t59.5 -11.5t47.5 -32t31.5 -49t11.5 -62.5t-11.5 -62.5t-31.5 -49t-47.5 -32
t-59.5 -11.5z" />
    <glyph glyph-name="guillemotright" unicode="&#xbb;" horiz-adv-x="440" 
d="M275 80h-55l115 160l-115 160h55l115 -160zM105 80h-55l115 160l-115 160h55l115 -160z" />
    <glyph glyph-name="onequarter" unicode="&#xbc;" horiz-adv-x="665" 
d="M505 700h45l-435 -700h-45zM150 701v-350h-40v290q-6 -9 -16 -15q-8 -6 -21.5 -10.5t-32.5 -4.5v35q19 0 32.5 8t23.5 19q11 12 19 28h35zM620 126v-40h-45v-85h-40v85h-170v40l160 225h50v-225h45zM535 301l-125 -175h125v175z" />
    <glyph glyph-name="onehalf" unicode="&#xbd;" horiz-adv-x="690" 
d="M505 700h45l-435 -700h-45zM150 701v-350h-40v290q-6 -9 -16 -15q-8 -6 -21.5 -10.5t-32.5 -4.5v35q19 0 32.5 8t23.5 19q11 12 19 28h35zM415 1q0 37 14 64.5t35 48.5t46 37t46 32t35 33t14 39q0 23 -20 42t-50 19q-23 0 -38.5 -9.5t-24.5 -20.5q-11 -13 -17 -30l-35 15
q8 24 24 42q13 16 35 29.5t56 13.5q26 0 46.5 -8.5t34.5 -23t21.5 -32.5t7.5 -37q0 -29 -11.5 -49.5t-29.5 -36.5t-40.5 -30t-43 -28t-37.5 -31t-25 -39h187v-40h-230z" />
    <glyph glyph-name="threequarters" unicode="&#xbe;" horiz-adv-x="730" 
d="M570 700h45l-435 -700h-45zM685 126v-40h-45v-85h-40v85h-170v40l160 225h50v-225h45zM600 301l-125 -175h125v175zM210 536q17 -3 30 -14q11 -9 20.5 -26t9.5 -45q0 -21 -9 -40.5t-25 -33.5t-38 -22.5t-48 -8.5q-30 0 -53.5 9.5t-39.5 20.5q-18 13 -32 30l30 30
q11 -14 25 -25q12 -10 29.5 -17.5t40.5 -7.5q38 0 59 18t21 47q0 28 -20 46.5t-58 18.5h-47v40h45q65 0 65 55q0 23 -18 39t-52 16q-20 0 -35 -7.5t-25 -15.5q-11 -10 -20 -22l-30 30q11 15 28 27q14 11 34.5 19.5t47.5 8.5q24 0 44.5 -8t35 -21t22.5 -30t8 -36
q0 -23 -7.5 -37.5t-15.5 -22.5q-10 -10 -22 -15z" />
    <glyph glyph-name="questiondown" unicode="&#xbf;" horiz-adv-x="450" 
d="M270 320q1 -6 2 -13q1 -6 2 -14.5t1 -17.5q0 -41 -14.5 -70t-36 -51.5t-47 -41t-47 -39.5t-36 -46.5t-14.5 -61.5q0 -28 11 -52.5t31.5 -43t50 -29t67.5 -10.5q53 0 85 18.5t50 41.5q21 26 30 60l45 -15q-14 -44 -41 -78q-23 -29 -64 -53t-105 -24q-47 0 -85.5 15
t-66.5 40t-43 58.5t-15 71.5q0 46 14.5 76.5t36 52.5t47 40t47 39t36 49.5t14.5 72.5v25h45zM285 450q0 -15 -10 -25t-25 -10t-25 10t-10 25t10 25t25 10t25 -10t10 -25z" />
    <glyph glyph-name="Agrave" unicode="&#xc0;" horiz-adv-x="680" 
d="M340 630l-155 -375h310zM165 205l-85 -205h-55l290 700h50l290 -700h-55l-85 205h-350zM360 795h-40l-90 130h55z" />
    <glyph glyph-name="Aacute" unicode="&#xc1;" horiz-adv-x="680" 
d="M340 630l-155 -375h310zM165 205l-85 -205h-55l290 700h50l290 -700h-55l-85 205h-350zM405 925h55l-90 -130h-40z" />
    <glyph glyph-name="Acircumflex" unicode="&#xc2;" horiz-adv-x="680" 
d="M340 630l-155 -375h310zM165 205l-85 -205h-55l290 700h50l290 -700h-55l-85 205h-350zM470 795h-45l-85 100l-85 -100h-45l105 130h50z" />
    <glyph glyph-name="Atilde" unicode="&#xc3;" horiz-adv-x="680" 
d="M340 630l-155 -375h310zM165 205l-85 -205h-55l290 700h50l290 -700h-55l-85 205h-350zM277 870q-15 0 -27.5 -16.5t-12.5 -58.5h-40q0 60 23 87.5t57 27.5q24 0 40.5 -11.5t29.5 -26t25.5 -26t29.5 -11.5q15 0 27.5 16.5t12.5 58.5h40q0 -60 -23 -87.5t-57 -27.5
q-24 0 -40.5 11.5t-29.5 26t-25.5 26t-29.5 11.5z" />
    <glyph glyph-name="Adieresis" unicode="&#xc4;" horiz-adv-x="680" 
d="M340 630l-155 -375h310zM165 205l-85 -205h-55l290 700h50l290 -700h-55l-85 205h-350zM220 859q0 15 10 25t25 10t25 -10t10 -25t-10 -25t-25 -10t-25 10t-10 25zM395 859q0 15 10 25t25 10t25 -10t10 -25t-10 -25t-25 -10t-25 10t-10 25z" />
    <glyph glyph-name="Aring" unicode="&#xc5;" horiz-adv-x="680" 
d="M340 630l-155 -375h310zM165 205l-85 -205h-55l290 700h50l290 -700h-55l-85 205h-350zM285 860q0 -55 55 -55t55 55t-55 55t-55 -55zM435 860q0 -42 -26.5 -68.5t-68.5 -26.5t-68.5 26.5t-26.5 68.5t26.5 68.5t68.5 26.5t68.5 -26.5t26.5 -68.5z" />
    <glyph glyph-name="AE" unicode="&#xc6;" horiz-adv-x="945" 
d="M905 50v-50h-430v215h-320l-120 -215h-55l390 700h525v-50h-370v-260h290v-50h-290v-290h380zM180 265h295v385h-79z" />
    <glyph glyph-name="Ccedilla" unicode="&#xc7;" horiz-adv-x="750" 
d="M60 350q0 75 28 140.5t76.5 114.5t113 77t137.5 28q72 0 125 -23.5t89 -51.5q41 -33 71 -75l-35 -30q-26 36 -62 65q-31 24 -78 44.5t-110 20.5q-64 0 -119.5 -24t-97 -65.5t-65 -98t-23.5 -122.5t23.5 -122.5t65 -98t97 -65.5t119.5 -24t111.5 20t79.5 45q37 28 64 65
l35 -30q-31 -41 -73 -74q-36 -28 -89 -51.5t-123 -24.5l-25 -50q1 1 5 2q3 1 7.5 2t12.5 1q30 0 50 -20t20 -50t-24 -52.5t-66 -22.5q-17 0 -31.5 4t-25.5 9q-12 6 -23 14l15 28q8 -8 19 -13q9 -5 20.5 -8.5t25.5 -3.5q27 0 41 13t14 32q0 15 -12 27.5t-28 12.5
q-8 0 -14 -1.5t-11 -3.5l-10 -5l-25 25l30 61q-68 6 -127 36t-103 78t-69.5 111t-25.5 134z" />
    <glyph glyph-name="Egrave" unicode="&#xc8;" horiz-adv-x="630" 
d="M590 50v-50h-480v700h470v-50h-420v-260h340v-50h-340v-290h430zM380 795h-40l-90 130h55z" />
    <glyph glyph-name="Eacute" unicode="&#xc9;" horiz-adv-x="630" 
d="M590 50v-50h-480v700h470v-50h-420v-260h340v-50h-340v-290h430zM395 925h55l-90 -130h-40z" />
    <glyph glyph-name="Ecircumflex" unicode="&#xca;" horiz-adv-x="630" 
d="M590 50v-50h-480v700h470v-50h-420v-260h340v-50h-340v-290h430zM475 790h-45l-85 100l-85 -100h-45l105 130h50z" />
    <glyph glyph-name="Edieresis" unicode="&#xcb;" horiz-adv-x="630" 
d="M590 50v-50h-480v700h470v-50h-420v-260h340v-50h-340v-290h430zM225 855q0 15 10 25t25 10t25 -10t10 -25t-10 -25t-25 -10t-25 10t-10 25zM400 855q0 15 10 25t25 10t25 -10t10 -25t-10 -25t-25 -10t-25 10t-10 25z" />
    <glyph glyph-name="Igrave" unicode="&#xcc;" horiz-adv-x="270" 
d="M110 700h50v-700h-50v700zM156 795h-40l-90 130h55z" />
    <glyph glyph-name="Iacute" unicode="&#xcd;" horiz-adv-x="270" 
d="M110 700h50v-700h-50v700zM196 925h55l-90 -130h-40z" />
    <glyph glyph-name="Icircumflex" unicode="&#xce;" horiz-adv-x="270" 
d="M110 700h50v-700h-50v700zM266 790h-45l-85 100l-85 -100h-45l105 130h50z" />
    <glyph glyph-name="Idieresis" unicode="&#xcf;" horiz-adv-x="270" 
d="M110 700h50v-700h-50v700zM16 855q0 15 10 25t25 10t25 -10t10 -25t-10 -25t-25 -10t-25 10t-10 25zM191 855q0 15 10 25t25 10t25 -10t10 -25t-10 -25t-25 -10t-25 10t-10 25z" />
    <glyph glyph-name="Eth" unicode="&#xd0;" horiz-adv-x="750" 
d="M20 375h100v325h205q79 0 145.5 -27.5t115.5 -74.5t76.5 -111t27.5 -137t-27.5 -137t-76.5 -111t-115.5 -74.5t-145.5 -27.5h-205v325h-100v50zM170 650v-275h175v-50h-175v-275h155q69 0 127 23t100 63.5t65 95t23 118.5t-23 118.5t-65 95t-100 63.5t-127 23h-155z" />
    <glyph glyph-name="Ntilde" unicode="&#xd1;" horiz-adv-x="775" 
d="M665 700v-700h-40l-465 605v-605h-50v700h40l465 -605v605h50zM325 870q-15 0 -27.5 -16.5t-12.5 -58.5h-40q0 60 23 87.5t57 27.5q24 0 40.5 -11.5t29.5 -26t25.5 -26t29.5 -11.5q15 0 27.5 16.5t12.5 58.5h40q0 -60 -23 -87.5t-57 -27.5q-24 0 -40.5 11.5t-29.5 26
t-25.5 26t-29.5 11.5z" />
    <glyph glyph-name="Ograve" unicode="&#xd2;" horiz-adv-x="830" 
d="M720 350q0 66 -24 122.5t-65 98t-96.5 65.5t-119.5 24t-119.5 -24t-97 -65.5t-65 -98t-23.5 -122.5t23.5 -122.5t65 -98t97 -65.5t119.5 -24t119.5 24t96.5 65.5t65 98t24 122.5zM770 350q0 -75 -28 -140.5t-76 -114.5t-112.5 -77t-138.5 -28t-138.5 28t-112.5 77
t-76 114.5t-28 140.5t28 140.5t76.5 114.5t113 77t137.5 28q74 0 138.5 -28t112.5 -77t76 -114.5t28 -140.5zM435 795h-40l-90 130h55z" />
    <glyph glyph-name="Oacute" unicode="&#xd3;" horiz-adv-x="830" 
d="M720 350q0 66 -24 122.5t-65 98t-96.5 65.5t-119.5 24t-119.5 -24t-97 -65.5t-65 -98t-23.5 -122.5t23.5 -122.5t65 -98t97 -65.5t119.5 -24t119.5 24t96.5 65.5t65 98t24 122.5zM770 350q0 -75 -28 -140.5t-76 -114.5t-112.5 -77t-138.5 -28t-138.5 28t-112.5 77
t-76 114.5t-28 140.5t28 140.5t76.5 114.5t113 77t137.5 28q74 0 138.5 -28t112.5 -77t76 -114.5t28 -140.5zM475 925h55l-90 -130h-40z" />
    <glyph glyph-name="Ocircumflex" unicode="&#xd4;" horiz-adv-x="830" 
d="M720 350q0 66 -24 122.5t-65 98t-96.5 65.5t-119.5 24t-119.5 -24t-97 -65.5t-65 -98t-23.5 -122.5t23.5 -122.5t65 -98t97 -65.5t119.5 -24t119.5 24t96.5 65.5t65 98t24 122.5zM770 350q0 -75 -28 -140.5t-76 -114.5t-112.5 -77t-138.5 -28t-138.5 28t-112.5 77
t-76 114.5t-28 140.5t28 140.5t76.5 114.5t113 77t137.5 28q74 0 138.5 -28t112.5 -77t76 -114.5t28 -140.5zM545 790h-45l-85 100l-85 -100h-45l105 130h50z" />
    <glyph glyph-name="Otilde" unicode="&#xd5;" horiz-adv-x="830" 
d="M720 350q0 66 -24 122.5t-65 98t-96.5 65.5t-119.5 24t-119.5 -24t-97 -65.5t-65 -98t-23.5 -122.5t23.5 -122.5t65 -98t97 -65.5t119.5 -24t119.5 24t96.5 65.5t65 98t24 122.5zM770 350q0 -75 -28 -140.5t-76 -114.5t-112.5 -77t-138.5 -28t-138.5 28t-112.5 77
t-76 114.5t-28 140.5t28 140.5t76.5 114.5t113 77t137.5 28q74 0 138.5 -28t112.5 -77t76 -114.5t28 -140.5zM355 870q-15 0 -27.5 -16.5t-12.5 -58.5h-40q0 60 23 87.5t57 27.5q24 0 40.5 -11.5t29.5 -26t25.5 -26t29.5 -11.5q15 0 27.5 16.5t12.5 58.5h40q0 -60 -23 -87.5
t-57 -27.5q-24 0 -40.5 11.5t-29.5 26t-25.5 26t-29.5 11.5z" />
    <glyph glyph-name="Odieresis" unicode="&#xd6;" horiz-adv-x="830" 
d="M720 350q0 66 -24 122.5t-65 98t-96.5 65.5t-119.5 24t-119.5 -24t-97 -65.5t-65 -98t-23.5 -122.5t23.5 -122.5t65 -98t97 -65.5t119.5 -24t119.5 24t96.5 65.5t65 98t24 122.5zM770 350q0 -75 -28 -140.5t-76 -114.5t-112.5 -77t-138.5 -28t-138.5 28t-112.5 77
t-76 114.5t-28 140.5t28 140.5t76.5 114.5t113 77t137.5 28q74 0 138.5 -28t112.5 -77t76 -114.5t28 -140.5zM295 855q0 15 10 25t25 10t25 -10t10 -25t-10 -25t-25 -10t-25 10t-10 25zM470 855q0 15 10 25t25 10t25 -10t10 -25t-10 -25t-25 -10t-25 10t-10 25z" />
    <glyph glyph-name="multiply" unicode="&#xd7;" horiz-adv-x="450" 
d="M400 170l-35 -35l-140 140l-140 -140l-35 35l140 140l-140 140l35 35l140 -140l140 140l35 -35l-140 -140z" />
    <glyph glyph-name="Oslash" unicode="&#xd8;" horiz-adv-x="830" 
d="M720 350q0 45 -11 82t-24 63q-16 31 -35 55l-435 -435q23 -21 53 -38q26 -14 62.5 -25.5t84.5 -11.5q64 0 119.5 24t96.5 65.5t65 98t24 122.5zM615 585q-23 20 -53 37q-26 14 -63 26t-84 12q-64 0 -119.5 -24t-97 -65.5t-65 -98t-23.5 -122.5q0 -45 10.5 -82t24.5 -63
q15 -31 35 -55zM770 350q0 -75 -28 -140.5t-76 -114.5t-112.5 -77t-138.5 -28q-55 0 -98 14t-74 31q-36 19 -63 45l-90 -95l-35 35l90 95q-25 29 -43 65q-16 31 -29 74t-13 96q0 75 28 140.5t76.5 114.5t113 77t137.5 28q54 0 97.5 -14t74.5 -31q36 -20 63 -45l90 95l35 -35
l-90 -95q24 -29 42 -65q16 -31 29.5 -74t13.5 -96z" />
    <glyph glyph-name="Ugrave" unicode="&#xd9;" horiz-adv-x="750" 
d="M375 40q47 0 88 17.5t71.5 48.5t48 73t17.5 91v430h50v-430q0 -58 -22 -109t-59.5 -89t-87.5 -60t-106 -22t-106 22t-87.5 60t-59.5 89t-22 109v430h50v-430q0 -49 17.5 -91t48 -73t71.5 -48.5t88 -17.5zM410 795h-40l-90 130h55z" />
    <glyph glyph-name="Uacute" unicode="&#xda;" horiz-adv-x="750" 
d="M375 40q47 0 88 17.5t71.5 48.5t48 73t17.5 91v430h50v-430q0 -58 -22 -109t-59.5 -89t-87.5 -60t-106 -22t-106 22t-87.5 60t-59.5 89t-22 109v430h50v-430q0 -49 17.5 -91t48 -73t71.5 -48.5t88 -17.5zM425 925h55l-90 -130h-40z" />
    <glyph glyph-name="Ucircumflex" unicode="&#xdb;" horiz-adv-x="750" 
d="M375 40q47 0 88 17.5t71.5 48.5t48 73t17.5 91v430h50v-430q0 -58 -22 -109t-59.5 -89t-87.5 -60t-106 -22t-106 22t-87.5 60t-59.5 89t-22 109v430h50v-430q0 -49 17.5 -91t48 -73t71.5 -48.5t88 -17.5zM505 790h-45l-85 100l-85 -100h-45l105 130h50z" />
    <glyph glyph-name="Udieresis" unicode="&#xdc;" horiz-adv-x="750" 
d="M375 40q47 0 88 17.5t71.5 48.5t48 73t17.5 91v430h50v-430q0 -58 -22 -109t-59.5 -89t-87.5 -60t-106 -22t-106 22t-87.5 60t-59.5 89t-22 109v430h50v-430q0 -49 17.5 -91t48 -73t71.5 -48.5t88 -17.5zM250 855q0 15 10 25t25 10t25 -10t10 -25t-10 -25t-25 -10t-25 10
t-10 25zM425 855q0 15 10 25t25 10t25 -10t10 -25t-10 -25t-25 -10t-25 10t-10 25z" />
    <glyph glyph-name="Yacute" unicode="&#xdd;" horiz-adv-x="620" 
d="M310 300l225 400h60l-260 -455v-245h-50v245l-260 455h60zM370 925h55l-90 -130h-40z" />
    <glyph glyph-name="Thorn" unicode="&#xde;" horiz-adv-x="640" 
d="M160 150h145q51 0 92.5 16t71 44t45.5 66.5t16 83.5t-16 83.5t-45.5 66.5t-71 44t-92.5 16h-145v-420zM305 620q60 0 110.5 -20t87 -55.5t57 -83t20.5 -101.5t-20.5 -101.5t-57 -83t-87 -55.5t-110.5 -20h-145v-120h-50v740h50v-100h145z" />
    <glyph glyph-name="germandbls" unicode="&#xdf;" horiz-adv-x="570" 
d="M365 385q42 -12 75 -36q28 -21 51.5 -57t23.5 -92q0 -41 -16 -77.5t-44 -63.5t-66.5 -43t-83.5 -16h-35v50h35q37 0 67.5 11.5t52.5 31.5t33.5 47.5t11.5 59.5t-12.5 60t-34.5 49t-52 33.5t-66 12.5h-35v45h5q30 0 56.5 11t46 30t31 43.5t11.5 50.5t-10.5 49.5t-30 41.5
t-46 28.5t-58.5 10.5t-58.5 -10.5t-46 -29t-30 -43t-10.5 -52.5v-530h-45v530q0 37 14 70t39.5 57.5t60.5 38.5t76 14t76 -14t60.5 -38t39.5 -55.5t14 -67.5q0 -40 -15.5 -68t-34.5 -46q-22 -21 -50 -36z" />
    <glyph glyph-name="agrave" unicode="&#xe0;" horiz-adv-x="500" 
d="M370 300q0 31 -10.5 57.5t-28.5 46t-42.5 30.5t-53.5 11q-33 0 -59 -11t-44 -24q-21 -16 -37 -35l-30 30q18 24 44 42q22 16 53.5 29.5t72.5 13.5q39 0 72 -14.5t57 -40t37.5 -60.5t13.5 -75v-300h-45v80q-17 -26 -43 -45q-22 -17 -54.5 -31t-77.5 -14q-36 0 -65.5 11
t-50.5 30t-32.5 43.5t-11.5 50.5q0 57 38.5 95.5t106.5 49.5zM195 35q37 0 69.5 13.5t55.5 36.5t36.5 55t13.5 70v45l-180 -30q-57 -9 -83.5 -35.5t-26.5 -64.5q0 -17 8 -33t23 -29t36.5 -20.5t47.5 -7.5zM270 565h-40l-90 130h55z" />
    <glyph glyph-name="aacute" unicode="&#xe1;" horiz-adv-x="500" 
d="M370 300q0 31 -10.5 57.5t-28.5 46t-42.5 30.5t-53.5 11q-33 0 -59 -11t-44 -24q-21 -16 -37 -35l-30 30q18 24 44 42q22 16 53.5 29.5t72.5 13.5q39 0 72 -14.5t57 -40t37.5 -60.5t13.5 -75v-300h-45v80q-17 -26 -43 -45q-22 -17 -54.5 -31t-77.5 -14q-36 0 -65.5 11
t-50.5 30t-32.5 43.5t-11.5 50.5q0 57 38.5 95.5t106.5 49.5zM195 35q37 0 69.5 13.5t55.5 36.5t36.5 55t13.5 70v45l-180 -30q-57 -9 -83.5 -35.5t-26.5 -64.5q0 -17 8 -33t23 -29t36.5 -20.5t47.5 -7.5zM295 695h55l-90 -130h-40z" />
    <glyph glyph-name="acircumflex" unicode="&#xe2;" horiz-adv-x="500" 
d="M370 300q0 31 -10.5 57.5t-28.5 46t-42.5 30.5t-53.5 11q-33 0 -59 -11t-44 -24q-21 -16 -37 -35l-30 30q18 24 44 42q22 16 53.5 29.5t72.5 13.5q39 0 72 -14.5t57 -40t37.5 -60.5t13.5 -75v-300h-45v80q-17 -26 -43 -45q-22 -17 -54.5 -31t-77.5 -14q-36 0 -65.5 11
t-50.5 30t-32.5 43.5t-11.5 50.5q0 57 38.5 95.5t106.5 49.5zM195 35q37 0 69.5 13.5t55.5 36.5t36.5 55t13.5 70v45l-180 -30q-57 -9 -83.5 -35.5t-26.5 -64.5q0 -17 8 -33t23 -29t36.5 -20.5t47.5 -7.5zM375 565h-45l-85 100l-85 -100h-45l105 130h50z" />
    <glyph glyph-name="atilde" unicode="&#xe3;" horiz-adv-x="500" 
d="M370 300q0 31 -10.5 57.5t-28.5 46t-42.5 30.5t-53.5 11q-33 0 -59 -11t-44 -24q-21 -16 -37 -35l-30 30q18 24 44 42q22 16 53.5 29.5t72.5 13.5q39 0 72 -14.5t57 -40t37.5 -60.5t13.5 -75v-300h-45v80q-17 -26 -43 -45q-22 -17 -54.5 -31t-77.5 -14q-36 0 -65.5 11
t-50.5 30t-32.5 43.5t-11.5 50.5q0 57 38.5 95.5t106.5 49.5zM195 35q37 0 69.5 13.5t55.5 36.5t36.5 55t13.5 70v45l-180 -30q-57 -9 -83.5 -35.5t-26.5 -64.5q0 -17 8 -33t23 -29t36.5 -20.5t47.5 -7.5zM185 641q-15 0 -27.5 -16.5t-12.5 -58.5h-40q0 60 23 87.5t57 27.5
q24 0 40.5 -11.5t29.5 -26t25.5 -26t29.5 -11.5q15 0 27.5 16.5t12.5 58.5h40q0 -60 -23 -87.5t-57 -27.5q-24 0 -40.5 11.5t-29.5 26t-25.5 26t-29.5 11.5z" />
    <glyph glyph-name="adieresis" unicode="&#xe4;" horiz-adv-x="500" 
d="M370 300q0 31 -10.5 57.5t-28.5 46t-42.5 30.5t-53.5 11q-33 0 -59 -11t-44 -24q-21 -16 -37 -35l-30 30q18 24 44 42q22 16 53.5 29.5t72.5 13.5q39 0 72 -14.5t57 -40t37.5 -60.5t13.5 -75v-300h-45v80q-17 -26 -43 -45q-22 -17 -54.5 -31t-77.5 -14q-36 0 -65.5 11
t-50.5 30t-32.5 43.5t-11.5 50.5q0 57 38.5 95.5t106.5 49.5zM195 35q37 0 69.5 13.5t55.5 36.5t36.5 55t13.5 70v45l-180 -30q-57 -9 -83.5 -35.5t-26.5 -64.5q0 -17 8 -33t23 -29t36.5 -20.5t47.5 -7.5zM125 635q0 15 10 25t25 10t25 -10t10 -25t-10 -25t-25 -10t-25 10
t-10 25zM300 635q0 15 10 25t25 10t25 -10t10 -25t-10 -25t-25 -10t-25 10t-10 25z" />
    <glyph glyph-name="aring" unicode="&#xe5;" horiz-adv-x="500" 
d="M370 300q0 31 -10.5 57.5t-28.5 46t-42.5 30.5t-53.5 11q-33 0 -59 -11t-44 -24q-21 -16 -37 -35l-30 30q18 24 44 42q22 16 53.5 29.5t72.5 13.5q39 0 72 -14.5t57 -40t37.5 -60.5t13.5 -75v-300h-45v80q-17 -26 -43 -45q-22 -17 -54.5 -31t-77.5 -14q-36 0 -65.5 11
t-50.5 30t-32.5 43.5t-11.5 50.5q0 57 38.5 95.5t106.5 49.5zM195 35q37 0 69.5 13.5t55.5 36.5t36.5 55t13.5 70v45l-180 -30q-57 -9 -83.5 -35.5t-26.5 -64.5q0 -17 8 -33t23 -29t36.5 -20.5t47.5 -7.5zM190 640q0 -55 55 -55t55 55t-55 55t-55 -55zM340 640
q0 -42 -26.5 -68.5t-68.5 -26.5t-68.5 26.5t-26.5 68.5t26.5 68.5t68.5 26.5t68.5 -26.5t26.5 -68.5z" />
    <glyph glyph-name="ae" unicode="&#xe6;" horiz-adv-x="855" 
d="M415 225q2 -39 17.5 -74t40.5 -60.5t56.5 -40.5t65.5 -15q39 0 68 13t49 29q23 18 38 43l30 -30q-19 -28 -46 -50q-23 -19 -57.5 -34.5t-81.5 -15.5q-53 0 -91 22t-62 48q-29 31 -47 70q-14 -39 -40 -70q-11 -13 -26.5 -25.5t-35 -22.5t-44 -16t-54.5 -6q-36 0 -65.5 11
t-50.5 30t-32.5 43.5t-11.5 50.5q0 64 41.5 104.5t113.5 40.5h180v30q0 31 -10.5 57.5t-28.5 46t-42.5 30.5t-53.5 11q-33 0 -59 -11t-44 -24q-21 -16 -37 -35l-30 30q18 24 44 42q22 16 53.5 29.5t72.5 13.5q49 0 80.5 -18.5t50.5 -41.5q22 -26 34 -60q21 34 50 60
q24 23 59.5 41.5t80.5 18.5q41 0 79 -18t67 -51t46.5 -79t17.5 -102v-15h-385zM590 445q-32 0 -62.5 -14.5t-55 -39t-40 -56t-17.5 -65.5h340q-2 37 -16 69.5t-36.5 55.5t-51.5 36.5t-61 13.5zM195 35q37 0 69.5 13.5t55.5 36.5t36.5 55t13.5 70v15h-180q-53 0 -81.5 -27.5
t-28.5 -72.5q0 -17 8 -33t23 -29t36.5 -20.5t47.5 -7.5z" />
    <glyph glyph-name="ccedilla" unicode="&#xe7;" horiz-adv-x="515" 
d="M45 240q0 52 19 98t51.5 79.5t75 53t89.5 19.5t82.5 -15.5t59.5 -34.5q28 -22 48 -50l-35 -30q-15 24 -38 42q-20 16 -49 29.5t-68 13.5q-38 0 -72 -16t-60.5 -43.5t-42 -65t-15.5 -80.5t15.5 -80.5t42 -65t60.5 -43.5t72 -16q39 0 68 13t49 29q23 18 38 43l35 -30
q-20 -27 -46 -48q-23 -18 -56 -34t-78 -18l-25 -50q1 1 5 2q3 1 7.5 2t12.5 1q30 0 50 -20t20 -50t-24 -52.5t-66 -22.5q-17 0 -31.5 4t-25.5 9q-12 6 -23 14l15 28q8 -8 19 -13q9 -5 20.5 -8.5t25.5 -3.5q27 0 41 13t14 32q0 15 -12 27.5t-28 12.5q-8 0 -14 -1.5t-11 -3.5
l-10 -5l-25 25l31 62q-43 4 -81.5 25t-67 54t-45.5 76.5t-17 92.5z" />
    <glyph glyph-name="egrave" unicode="&#xe8;" horiz-adv-x="550" 
d="M90 220q2 -38 18 -71.5t41.5 -58.5t59 -40t71.5 -15q39 0 69 13t50 29q24 18 41 42l30 -29q-20 -28 -48 -50q-24 -19 -59.5 -34.5t-82.5 -15.5t-89.5 19.5t-75 53t-51.5 79t-19 98.5q0 52 19 98t51 79.5t73.5 53t86.5 19.5t85 -18t70 -51t47.5 -79t17.5 -102v-20h-405z
M275 445q-36 0 -68.5 -15t-58 -39.5t-41 -57t-17.5 -68.5h360q-2 39 -16 72t-37.5 57t-54.5 37.5t-67 13.5zM300 565h-40l-90 130h55z" />
    <glyph glyph-name="eacute" unicode="&#xe9;" horiz-adv-x="550" 
d="M90 220q2 -38 18 -71.5t41.5 -58.5t59 -40t71.5 -15q39 0 69 13t50 29q24 18 41 42l30 -29q-20 -28 -48 -50q-24 -19 -59.5 -34.5t-82.5 -15.5t-89.5 19.5t-75 53t-51.5 79t-19 98.5q0 52 19 98t51 79.5t73.5 53t86.5 19.5t85 -18t70 -51t47.5 -79t17.5 -102v-20h-405z
M275 445q-36 0 -68.5 -15t-58 -39.5t-41 -57t-17.5 -68.5h360q-2 39 -16 72t-37.5 57t-54.5 37.5t-67 13.5zM330 695h55l-90 -130h-40z" />
    <glyph glyph-name="ecircumflex" unicode="&#xea;" horiz-adv-x="550" 
d="M90 220q2 -38 18 -71.5t41.5 -58.5t59 -40t71.5 -15q39 0 69 13t50 29q24 18 41 42l30 -29q-20 -28 -48 -50q-24 -19 -59.5 -34.5t-82.5 -15.5t-89.5 19.5t-75 53t-51.5 79t-19 98.5q0 52 19 98t51 79.5t73.5 53t86.5 19.5t85 -18t70 -51t47.5 -79t17.5 -102v-20h-405z
M275 445q-36 0 -68.5 -15t-58 -39.5t-41 -57t-17.5 -68.5h360q-2 39 -16 72t-37.5 57t-54.5 37.5t-67 13.5zM405 565h-45l-85 100l-85 -100h-45l105 130h50z" />
    <glyph glyph-name="edieresis" unicode="&#xeb;" horiz-adv-x="550" 
d="M90 220q2 -38 18 -71.5t41.5 -58.5t59 -40t71.5 -15q39 0 69 13t50 29q24 18 41 42l30 -29q-20 -28 -48 -50q-24 -19 -59.5 -34.5t-82.5 -15.5t-89.5 19.5t-75 53t-51.5 79t-19 98.5q0 52 19 98t51 79.5t73.5 53t86.5 19.5t85 -18t70 -51t47.5 -79t17.5 -102v-20h-405z
M275 445q-36 0 -68.5 -15t-58 -39.5t-41 -57t-17.5 -68.5h360q-2 39 -16 72t-37.5 57t-54.5 37.5t-67 13.5zM155 635q0 15 10 25t25 10t25 -10t10 -25t-10 -25t-25 -10t-25 10t-10 25zM330 635q0 15 10 25t25 10t25 -10t10 -25t-10 -25t-25 -10t-25 10t-10 25z" />
    <glyph glyph-name="igrave" unicode="&#xec;" horiz-adv-x="225" 
d="M85 480h45v-480h-45v480zM126 565h-40l-90 130h55z" />
    <glyph glyph-name="iacute" unicode="&#xed;" horiz-adv-x="225" 
d="M85 480h45v-480h-45v480zM160 695h55l-90 -130h-40z" />
    <glyph glyph-name="icircumflex" unicode="&#xee;" horiz-adv-x="225" 
d="M85 480h45v-480h-45v480zM236 565h-45l-85 100l-85 -100h-45l105 130h50z" />
    <glyph glyph-name="idieresis" unicode="&#xef;" horiz-adv-x="225" 
d="M85 480h45v-480h-45v480zM-14 635q0 15 10 25t25 10t25 -10t10 -25t-10 -25t-25 -10t-25 10t-10 25zM161 635q0 15 10 25t25 10t25 -10t10 -25t-10 -25t-25 -10t-25 10t-10 25z" />
    <glyph glyph-name="eth" unicode="&#xf0;" horiz-adv-x="570" 
d="M310 670q54 -35 97 -88q18 -23 36 -51.5t31.5 -63.5t22 -76.5t8.5 -90.5q0 -75 -19 -133t-51.5 -97t-75 -59.5t-89.5 -20.5q-45 0 -86 18.5t-71.5 51t-49 76t-18.5 94.5t18.5 94.5t49 76t71.5 51t86 18.5q47 0 81.5 -18.5t57.5 -41.5q27 -26 46 -60q-6 75 -35 129.5
t-61 90.5q-38 41 -84 70l-110 -80l-25 35l95 70q-21 11 -42.5 21t-38.5 18q-20 9 -39 16l15 40q24 -8 50 -19q22 -9 47 -21t48 -25l115 85l25 -35zM450 230q0 41 -15 76.5t-39.5 62t-57 41.5t-68.5 15t-68.5 -15t-57 -41.5t-39.5 -62t-15 -76.5t15 -77t39.5 -62t57 -41
t68.5 -15t68.5 15t57 41t39.5 62t15 77z" />
    <glyph glyph-name="ntilde" unicode="&#xf1;" horiz-adv-x="575" 
d="M130 395q14 26 37 47q20 18 51.5 33t76.5 15q41 0 76.5 -15t62 -42.5t41.5 -65t15 -82.5v-285h-45v285q0 36 -11.5 65.5t-31.5 50.5t-47.5 32.5t-59.5 11.5q-34 0 -64 -13.5t-52.5 -36.5t-35.5 -55.5t-13 -69.5v-270h-45v480h45v-85zM225 641q-15 0 -27.5 -16.5
t-12.5 -58.5h-40q0 60 23 87.5t57 27.5q24 0 40.5 -11.5t29.5 -26t25.5 -26t29.5 -11.5q15 0 27.5 16.5t12.5 58.5h40q0 -60 -23 -87.5t-57 -27.5q-24 0 -40.5 11.5t-29.5 26t-25.5 26t-29.5 11.5z" />
    <glyph glyph-name="ograve" unicode="&#xf2;" 
d="M45 240q0 52 19 98t52 79.5t76.5 53t92.5 19.5t92.5 -19.5t76.5 -53t52 -79.5t19 -98q0 -53 -19 -98.5t-52 -79t-76.5 -53t-92.5 -19.5t-92.5 19.5t-76.5 53t-52 79t-19 98.5zM480 240q0 43 -15.5 80.5t-42.5 65t-62.5 43.5t-74.5 16t-74.5 -16t-62.5 -43.5t-42.5 -65
t-15.5 -80.5t15.5 -80.5t42.5 -65t62.5 -43.5t74.5 -16t74.5 16t62.5 43.5t42.5 65t15.5 80.5zM305 565h-40l-90 130h55z" />
    <glyph glyph-name="oacute" unicode="&#xf3;" 
d="M45 240q0 52 19 98t52 79.5t76.5 53t92.5 19.5t92.5 -19.5t76.5 -53t52 -79.5t19 -98q0 -53 -19 -98.5t-52 -79t-76.5 -53t-92.5 -19.5t-92.5 19.5t-76.5 53t-52 79t-19 98.5zM480 240q0 43 -15.5 80.5t-42.5 65t-62.5 43.5t-74.5 16t-74.5 -16t-62.5 -43.5t-42.5 -65
t-15.5 -80.5t15.5 -80.5t42.5 -65t62.5 -43.5t74.5 -16t74.5 16t62.5 43.5t42.5 65t15.5 80.5zM340 695h55l-90 -130h-40z" />
    <glyph glyph-name="ocircumflex" unicode="&#xf4;" 
d="M45 240q0 52 19 98t52 79.5t76.5 53t92.5 19.5t92.5 -19.5t76.5 -53t52 -79.5t19 -98q0 -53 -19 -98.5t-52 -79t-76.5 -53t-92.5 -19.5t-92.5 19.5t-76.5 53t-52 79t-19 98.5zM480 240q0 43 -15.5 80.5t-42.5 65t-62.5 43.5t-74.5 16t-74.5 -16t-62.5 -43.5t-42.5 -65
t-15.5 -80.5t15.5 -80.5t42.5 -65t62.5 -43.5t74.5 -16t74.5 16t62.5 43.5t42.5 65t15.5 80.5zM415 565h-45l-85 100l-85 -100h-45l105 130h50z" />
    <glyph glyph-name="otilde" unicode="&#xf5;" 
d="M45 240q0 52 19 98t52 79.5t76.5 53t92.5 19.5t92.5 -19.5t76.5 -53t52 -79.5t19 -98q0 -53 -19 -98.5t-52 -79t-76.5 -53t-92.5 -19.5t-92.5 19.5t-76.5 53t-52 79t-19 98.5zM480 240q0 43 -15.5 80.5t-42.5 65t-62.5 43.5t-74.5 16t-74.5 -16t-62.5 -43.5t-42.5 -65
t-15.5 -80.5t15.5 -80.5t42.5 -65t62.5 -43.5t74.5 -16t74.5 16t62.5 43.5t42.5 65t15.5 80.5zM220 641q-15 0 -27.5 -16.5t-12.5 -58.5h-40q0 60 23 87.5t57 27.5q24 0 40.5 -11.5t29.5 -26t25.5 -26t29.5 -11.5q15 0 27.5 16.5t12.5 58.5h40q0 -60 -23 -87.5t-57 -27.5
q-24 0 -40.5 11.5t-29.5 26t-25.5 26t-29.5 11.5z" />
    <glyph glyph-name="odieresis" unicode="&#xf6;" 
d="M45 240q0 52 19 98t52 79.5t76.5 53t92.5 19.5t92.5 -19.5t76.5 -53t52 -79.5t19 -98q0 -53 -19 -98.5t-52 -79t-76.5 -53t-92.5 -19.5t-92.5 19.5t-76.5 53t-52 79t-19 98.5zM480 240q0 43 -15.5 80.5t-42.5 65t-62.5 43.5t-74.5 16t-74.5 -16t-62.5 -43.5t-42.5 -65
t-15.5 -80.5t15.5 -80.5t42.5 -65t62.5 -43.5t74.5 -16t74.5 16t62.5 43.5t42.5 65t15.5 80.5zM160 635q0 15 10 25t25 10t25 -10t10 -25t-10 -25t-25 -10t-25 10t-10 25zM335 635q0 15 10 25t25 10t25 -10t10 -25t-10 -25t-25 -10t-25 10t-10 25z" />
    <glyph glyph-name="divide" unicode="&#xf7;" horiz-adv-x="500" 
d="M455 270h-410v45h410v-45zM215 475q0 15 10 25t25 10t25 -10t10 -25t-10 -25t-25 -10t-25 10t-10 25zM285 110q0 -15 -10 -25t-25 -10t-25 10t-10 25t10 25t25 10t25 -10t10 -25z" />
    <glyph glyph-name="oslash" unicode="&#xf8;" 
d="M410 400q-17 12 -36 22q-17 8 -40 15.5t-49 7.5q-39 0 -74.5 -16t-62.5 -43.5t-42.5 -65t-15.5 -80.5q0 -29 6 -51.5t14 -39.5q9 -19 20 -34zM525 240q0 -53 -19 -98.5t-52 -79t-76.5 -53t-92.5 -19.5q-36 0 -64.5 9.5t-48.5 20.5q-24 13 -42 30l-65 -70l-30 30l65 70
q-16 19 -28 44q-11 21 -19 50.5t-8 65.5q0 52 19 98t52 79.5t76.5 53t92.5 19.5q35 0 64 -9.5t49 -20.5q24 -13 42 -30l65 70l30 -30l-65 -70q15 -19 27 -44q11 -21 19.5 -51t8.5 -65zM160 80q16 -13 36 -23q17 -8 40 -15t49 -7q39 0 74.5 16t62.5 43.5t42.5 65t15.5 80.5
q0 28 -6 51t-14 40q-9 19 -20 34z" />
    <glyph glyph-name="ugrave" unicode="&#xf9;" 
d="M445 85q-15 -27 -38 -48q-20 -18 -51 -32.5t-76 -14.5q-41 0 -77 15t-62 42.5t-41 65t-15 82.5v285h45v-285q0 -36 11.5 -65.5t31.5 -50.5t47.5 -32.5t59.5 -11.5q34 0 64 13.5t52.5 36.5t35.5 55t13 70v270h45v-480h-45v85zM315 565h-40l-90 130h55z" />
    <glyph glyph-name="uacute" unicode="&#xfa;" 
d="M445 85q-15 -27 -38 -48q-20 -18 -51 -32.5t-76 -14.5q-41 0 -77 15t-62 42.5t-41 65t-15 82.5v285h45v-285q0 -36 11.5 -65.5t31.5 -50.5t47.5 -32.5t59.5 -11.5q34 0 64 13.5t52.5 36.5t35.5 55t13 70v270h45v-480h-45v85zM335 695h55l-90 -130h-40z" />
    <glyph glyph-name="ucircumflex" unicode="&#xfb;" 
d="M445 85q-15 -27 -38 -48q-20 -18 -51 -32.5t-76 -14.5q-41 0 -77 15t-62 42.5t-41 65t-15 82.5v285h45v-285q0 -36 11.5 -65.5t31.5 -50.5t47.5 -32.5t59.5 -11.5q34 0 64 13.5t52.5 36.5t35.5 55t13 70v270h45v-480h-45v85zM415 565h-45l-85 100l-85 -100h-45l105 130
h50z" />
    <glyph glyph-name="udieresis" unicode="&#xfc;" 
d="M445 85q-15 -27 -38 -48q-20 -18 -51 -32.5t-76 -14.5q-41 0 -77 15t-62 42.5t-41 65t-15 82.5v285h45v-285q0 -36 11.5 -65.5t31.5 -50.5t47.5 -32.5t59.5 -11.5q34 0 64 13.5t52.5 36.5t35.5 55t13 70v270h45v-480h-45v85zM160 626q0 15 10 25t25 10t25 -10t10 -25
t-10 -25t-25 -10t-25 10t-10 25zM335 626q0 15 10 25t25 10t25 -10t10 -25t-10 -25t-25 -10t-25 10t-10 25z" />
    <glyph glyph-name="yacute" unicode="&#xfd;" horiz-adv-x="480" 
d="M210 0l-195 480h50l170 -420l170 420h50l-230 -570q-26 -64 -56.5 -92t-83.5 -28q-19 0 -32 5q-7 2 -13 5v45q6 -3 13 -5q13 -5 32 -5q34 0 54.5 18.5t35.5 56.5zM300 695h55l-90 -130h-40z" />
    <glyph glyph-name="thorn" unicode="&#xfe;" horiz-adv-x="595" 
d="M130 240q0 -43 15.5 -80.5t41.5 -65t59 -43.5t69 -16q34 0 66 16t57.5 43.5t41 65t15.5 80.5t-15.5 80.5t-41 65t-57.5 43.5t-66 16q-36 0 -69 -16t-59 -43.5t-41.5 -65t-15.5 -80.5zM130 -210h-45v910h45v-315q19 29 46 52q23 20 57 36.5t82 16.5q43 0 83.5 -19.5
t72 -53t50.5 -79.5t19 -98q0 -53 -19 -98.5t-50.5 -79t-72 -53t-83.5 -19.5q-48 0 -82 16t-57 36q-27 23 -46 53v-305z" />
    <glyph glyph-name="ydieresis" unicode="&#xff;" horiz-adv-x="480" 
d="M210 0l-195 480h50l170 -420l170 420h50l-230 -570q-26 -64 -56.5 -92t-83.5 -28q-19 0 -32 5q-7 2 -13 5v45q6 -3 13 -5q13 -5 32 -5q34 0 54.5 18.5t35.5 56.5zM110 635q0 15 10 25t25 10t25 -10t10 -25t-10 -25t-25 -10t-25 10t-10 25zM285 635q0 15 10 25t25 10
t25 -10t10 -25t-10 -25t-25 -10t-25 10t-10 25z" />
    <glyph glyph-name="Amacron" unicode="&#x100;" horiz-adv-x="680" 
d="M340 630l-155 -375h310zM165 205l-85 -205h-55l290 700h50l290 -700h-55l-85 205h-350zM475 840h-270v40h270v-40z" />
    <glyph glyph-name="amacron" unicode="&#x101;" horiz-adv-x="500" 
d="M370 300q0 31 -10.5 57.5t-28.5 46t-42.5 30.5t-53.5 11q-33 0 -59 -11t-44 -24q-21 -16 -37 -35l-30 30q18 24 44 42q22 16 53.5 29.5t72.5 13.5q39 0 72 -14.5t57 -40t37.5 -60.5t13.5 -75v-300h-45v80q-17 -26 -43 -45q-22 -17 -54.5 -31t-77.5 -14q-36 0 -65.5 11
t-50.5 30t-32.5 43.5t-11.5 50.5q0 57 38.5 95.5t106.5 49.5zM195 35q37 0 69.5 13.5t55.5 36.5t36.5 55t13.5 70v45l-180 -30q-57 -9 -83.5 -35.5t-26.5 -64.5q0 -17 8 -33t23 -29t36.5 -20.5t47.5 -7.5zM380 621h-270v40h270v-40z" />
    <glyph glyph-name="Abreve" unicode="&#x102;" horiz-adv-x="680" 
d="M340 630l-155 -375h310zM165 205l-85 -205h-55l290 700h50l290 -700h-55l-85 205h-350zM340 835q42 0 66 24t24 66h40q0 -57 -36.5 -93.5t-93.5 -36.5t-93.5 36.5t-36.5 93.5h40q0 -42 24 -66t66 -24z" />
    <glyph glyph-name="abreve" unicode="&#x103;" horiz-adv-x="500" 
d="M370 300q0 31 -10.5 57.5t-28.5 46t-42.5 30.5t-53.5 11q-33 0 -59 -11t-44 -24q-21 -16 -37 -35l-30 30q18 24 44 42q22 16 53.5 29.5t72.5 13.5q39 0 72 -14.5t57 -40t37.5 -60.5t13.5 -75v-300h-45v80q-17 -26 -43 -45q-22 -17 -54.5 -31t-77.5 -14q-36 0 -65.5 11
t-50.5 30t-32.5 43.5t-11.5 50.5q0 57 38.5 95.5t106.5 49.5zM195 35q37 0 69.5 13.5t55.5 36.5t36.5 55t13.5 70v45l-180 -30q-57 -9 -83.5 -35.5t-26.5 -64.5q0 -17 8 -33t23 -29t36.5 -20.5t47.5 -7.5zM245 605q42 0 66 24t24 66h40q0 -57 -36.5 -93.5t-93.5 -36.5
t-93.5 36.5t-36.5 93.5h40q0 -42 24 -66t66 -24z" />
    <glyph glyph-name="Aogonek" unicode="&#x104;" horiz-adv-x="680" 
d="M635 0q-19 -18 -33 -37q-12 -17 -22 -37.5t-10 -40.5q0 -23 14.5 -36.5t40.5 -13.5q22 0 41 7q10 4 19 8v-35q-9 -4 -19 -8q-19 -7 -41 -7q-42 0 -66 23.5t-24 61.5q0 24 10 45t22 37q14 18 33 33l-85 205h-350l-85 -205h-55l290 700h50l290 -700h-20zM340 630l-155 -375
h310z" />
    <glyph glyph-name="aogonek" unicode="&#x105;" horiz-adv-x="500" 
d="M405 0q-19 -18 -33 -37q-12 -17 -22 -37.5t-10 -40.5q0 -23 14.5 -36.5t40.5 -13.5q22 0 41 7q10 4 19 8v-35q-9 -4 -19 -8q-19 -7 -41 -7q-42 0 -66 23.5t-24 61.5q0 24 10 45t22 37q14 18 33 33v80q-17 -26 -43 -45q-22 -17 -54.5 -31t-77.5 -14q-36 0 -65.5 11
t-50.5 30t-32.5 43.5t-11.5 50.5q0 57 38.5 95.5t106.5 49.5l190 30q0 31 -10.5 57.5t-28.5 46t-42.5 30.5t-53.5 11q-33 0 -59 -11t-44 -24q-21 -16 -37 -35l-30 30q18 24 44 42q22 16 53.5 29.5t72.5 13.5q39 0 72 -14.5t57 -40t37.5 -60.5t13.5 -75v-300h-10zM195 35
q37 0 69.5 13.5t55.5 36.5t36.5 55t13.5 70v45l-180 -30q-57 -9 -83.5 -35.5t-26.5 -64.5q0 -17 8 -33t23 -29t36.5 -20.5t47.5 -7.5z" />
    <glyph glyph-name="Cacute" unicode="&#x106;" horiz-adv-x="750" 
d="M60 350q0 75 28 140.5t76.5 114.5t113 77t137.5 28q72 0 125 -23.5t89 -51.5q41 -33 71 -75l-35 -30q-26 36 -62 65q-31 24 -78 44.5t-110 20.5q-64 0 -119.5 -24t-97 -65.5t-65 -98t-23.5 -122.5t23.5 -122.5t65 -98t97 -65.5t119.5 -24t111.5 20t79.5 45q37 28 64 65
l35 -30q-31 -42 -74 -75q-37 -29 -90.5 -52t-125.5 -23q-73 0 -137.5 28t-113 77t-76.5 114.5t-28 140.5zM460 925h55l-90 -130h-40z" />
    <glyph glyph-name="cacute" unicode="&#x107;" horiz-adv-x="515" 
d="M45 240q0 52 19 98t51.5 79.5t75 53t89.5 19.5t82.5 -15.5t59.5 -34.5q28 -22 48 -50l-35 -30q-15 24 -38 42q-20 16 -49 29.5t-68 13.5q-38 0 -72 -16t-60.5 -43.5t-42 -65t-15.5 -80.5t15.5 -80.5t42 -65t60.5 -43.5t72 -16q39 0 68 13t49 29q23 18 38 43l35 -30
q-20 -28 -48 -50q-24 -19 -59.5 -34.5t-82.5 -15.5t-89.5 19.5t-75 53t-51.5 79t-19 98.5zM335 695h55l-90 -130h-40z" />
    <glyph glyph-name="Ccircumflex" unicode="&#x108;" horiz-adv-x="750" 
d="M60 350q0 75 28 140.5t76.5 114.5t113 77t137.5 28q72 0 125 -23.5t89 -51.5q41 -33 71 -75l-35 -30q-26 36 -62 65q-31 24 -78 44.5t-110 20.5q-64 0 -119.5 -24t-97 -65.5t-65 -98t-23.5 -122.5t23.5 -122.5t65 -98t97 -65.5t119.5 -24t111.5 20t79.5 45q37 28 64 65
l35 -30q-31 -42 -74 -75q-37 -29 -90.5 -52t-125.5 -23q-73 0 -137.5 28t-113 77t-76.5 114.5t-28 140.5zM540 795h-45l-85 100l-85 -100h-45l105 130h50z" />
    <glyph glyph-name="ccircumflex" unicode="&#x109;" horiz-adv-x="515" 
d="M45 240q0 52 19 98t51.5 79.5t75 53t89.5 19.5t82.5 -15.5t59.5 -34.5q28 -22 48 -50l-35 -30q-15 24 -38 42q-20 16 -49 29.5t-68 13.5q-38 0 -72 -16t-60.5 -43.5t-42 -65t-15.5 -80.5t15.5 -80.5t42 -65t60.5 -43.5t72 -16q39 0 68 13t49 29q23 18 38 43l35 -30
q-20 -28 -48 -50q-24 -19 -59.5 -34.5t-82.5 -15.5t-89.5 19.5t-75 53t-51.5 79t-19 98.5zM405 565h-45l-85 100l-85 -100h-45l105 130h50z" />
    <glyph glyph-name="Ccaron" unicode="&#x10c;" horiz-adv-x="750" 
d="M60 350q0 75 28 140.5t76.5 114.5t113 77t137.5 28q72 0 125 -23.5t89 -51.5q41 -33 71 -75l-35 -30q-26 36 -62 65q-31 24 -78 44.5t-110 20.5q-64 0 -119.5 -24t-97 -65.5t-65 -98t-23.5 -122.5t23.5 -122.5t65 -98t97 -65.5t119.5 -24t111.5 20t79.5 45q37 28 64 65
l35 -30q-31 -42 -74 -75q-37 -29 -90.5 -52t-125.5 -23q-73 0 -137.5 28t-113 77t-76.5 114.5t-28 140.5zM430 795h-50l-105 130h45l85 -100l85 100h45z" />
    <glyph glyph-name="ccaron" unicode="&#x10d;" horiz-adv-x="515" 
d="M45 240q0 52 19 98t51.5 79.5t75 53t89.5 19.5t82.5 -15.5t59.5 -34.5q28 -22 48 -50l-35 -30q-15 24 -38 42q-20 16 -49 29.5t-68 13.5q-38 0 -72 -16t-60.5 -43.5t-42 -65t-15.5 -80.5t15.5 -80.5t42 -65t60.5 -43.5t72 -16q39 0 68 13t49 29q23 18 38 43l35 -30
q-20 -28 -48 -50q-24 -19 -59.5 -34.5t-82.5 -15.5t-89.5 19.5t-75 53t-51.5 79t-19 98.5zM300 565h-50l-105 130h45l85 -100l85 100h45z" />
    <glyph glyph-name="Dcaron" unicode="&#x10e;" horiz-adv-x="740" 
d="M315 700q79 0 145.5 -27.5t115.5 -74.5t76.5 -111t27.5 -137t-27.5 -137t-76.5 -111t-115.5 -74.5t-145.5 -27.5h-205v700h205zM160 650v-600h155q69 0 127 23t100 63.5t65 95t23 118.5t-23 118.5t-65 95t-100 63.5t-127 23h-155zM385 795h-50l-105 130h45l85 -100
l85 100h45z" />
    <glyph glyph-name="dcaron" unicode="&#x10f;" horiz-adv-x="630" 
d="M455 240q0 43 -15.5 80.5t-41.5 65t-59 43.5t-69 16q-34 0 -66 -16t-57.5 -43.5t-41 -65t-15.5 -80.5t15.5 -80.5t41 -65t57.5 -43.5t66 -16q36 0 69 16t59 43.5t41.5 65t15.5 80.5zM455 700h45v-700h-45v95q-19 -30 -46 -53q-23 -20 -57.5 -36t-81.5 -16
q-43 0 -83.5 19.5t-72 53t-50.5 79t-19 98.5q0 52 19 98t50.5 79.5t72 53t83.5 19.5q47 0 81.5 -16.5t57.5 -36.5q27 -23 46 -52v315zM620 700h50l-60 -135h-35z" />
    <glyph glyph-name="Dcroat" unicode="&#x110;" horiz-adv-x="750" 
d="M20 375h100v325h205q79 0 145.5 -27.5t115.5 -74.5t76.5 -111t27.5 -137t-27.5 -137t-76.5 -111t-115.5 -74.5t-145.5 -27.5h-205v325h-100v50zM170 650v-275h175v-50h-175v-275h155q69 0 127 23t100 63.5t65 95t23 118.5t-23 118.5t-65 95t-100 63.5t-127 23h-155z" />
    <glyph glyph-name="dcroat" unicode="&#x111;" horiz-adv-x="600" 
d="M455 555h-145v45h145v100h45v-100h80v-45h-80v-555h-45v95q-19 -30 -46 -53q-23 -20 -57.5 -36t-81.5 -16q-43 0 -83.5 19t-72 52t-50.5 76.5t-19 92.5t19 92.5t50.5 76.5t72 52t83.5 19q47 0 81.5 -16.5t57.5 -36.5q27 -23 46 -52v190zM455 230q0 39 -15.5 74.5
t-41.5 62.5t-59 42.5t-69 15.5q-34 0 -66 -15.5t-57.5 -42.5t-41 -62.5t-15.5 -74.5t15.5 -74.5t41 -62.5t57.5 -42.5t66 -15.5q36 0 69 15.5t59 42.5t41.5 62.5t15.5 74.5z" />
    <glyph glyph-name="Emacron" unicode="&#x112;" horiz-adv-x="630" 
d="M590 50v-50h-480v700h470v-50h-420v-260h340v-50h-340v-290h430zM480 840h-270v40h270v-40z" />
    <glyph glyph-name="emacron" unicode="&#x113;" horiz-adv-x="550" 
d="M90 220q2 -38 18 -71.5t41.5 -58.5t59 -40t71.5 -15q39 0 69 13t50 29q24 18 41 42l30 -29q-20 -28 -48 -50q-24 -19 -59.5 -34.5t-82.5 -15.5t-89.5 19.5t-75 53t-51.5 79t-19 98.5q0 52 19 98t51 79.5t73.5 53t86.5 19.5t85 -18t70 -51t47.5 -79t17.5 -102v-20h-405z
M275 445q-36 0 -68.5 -15t-58 -39.5t-41 -57t-17.5 -68.5h360q-2 39 -16 72t-37.5 57t-54.5 37.5t-67 13.5zM410 611h-270v40h270v-40z" />
    <glyph glyph-name="Edotaccent" unicode="&#x116;" horiz-adv-x="630" 
d="M590 50v-50h-480v700h470v-50h-420v-260h340v-50h-340v-290h430zM310 860q0 15 10 25t25 10t25 -10t10 -25t-10 -25t-25 -10t-25 10t-10 25z" />
    <glyph glyph-name="edotaccent" unicode="&#x117;" horiz-adv-x="550" 
d="M90 220q2 -38 18 -71.5t41.5 -58.5t59 -40t71.5 -15q39 0 69 13t50 29q24 18 41 42l30 -29q-20 -28 -48 -50q-24 -19 -59.5 -34.5t-82.5 -15.5t-89.5 19.5t-75 53t-51.5 79t-19 98.5q0 52 19 98t51 79.5t73.5 53t86.5 19.5t85 -18t70 -51t47.5 -79t17.5 -102v-20h-405z
M275 445q-36 0 -68.5 -15t-58 -39.5t-41 -57t-17.5 -68.5h360q-2 39 -16 72t-37.5 57t-54.5 37.5t-67 13.5zM240 631q0 15 10 25t25 10t25 -10t10 -25t-10 -25t-25 -10t-25 10t-10 25z" />
    <glyph glyph-name="Eogonek" unicode="&#x118;" horiz-adv-x="630" 
d="M110 0v700h470v-50h-420v-260h340v-50h-340v-290h430v-50q-19 -18 -33 -37q-12 -17 -22 -37.5t-10 -40.5q0 -23 14.5 -36.5t40.5 -13.5q22 0 41 7q10 4 19 8v-35q-9 -4 -19 -8q-19 -7 -41 -7q-42 0 -66 23.5t-24 61.5q0 24 10 45t22 37q14 18 33 33h-445z" />
    <glyph glyph-name="eogonek" unicode="&#x119;" horiz-adv-x="550" 
d="M90 220q2 -38 18 -71.5t41.5 -58.5t59 -40t71.5 -15q39 0 69 13t50 29q24 18 41 42l30 -29q-17 -25 -42 -45q-21 -17 -51.5 -32.5t-70.5 -20.5q-6 -7 -15.5 -18.5t-18.5 -25.5t-15.5 -30.5t-6.5 -32.5q0 -23 14.5 -36.5t40.5 -13.5q22 0 41 7q10 4 19 8v-35q-9 -4 -19 -8
q-19 -7 -41 -7q-42 0 -66 23.5t-24 61.5q0 18 5.5 34.5t14 30t17.5 24t16 16.5q-45 3 -85.5 23t-71 53.5t-48.5 78t-18 95.5q0 52 19 98t51 79.5t73.5 53t86.5 19.5t85 -18t70 -51t47.5 -79t17.5 -102v-20h-405zM275 445q-36 0 -68.5 -15t-58 -39.5t-41 -57t-17.5 -68.5h360
q-2 39 -16 72t-37.5 57t-54.5 37.5t-67 13.5z" />
    <glyph glyph-name="Ecaron" unicode="&#x11a;" horiz-adv-x="630" 
d="M590 50v-50h-480v700h470v-50h-420v-260h340v-50h-340v-290h430zM370 790h-50l-105 130h45l85 -100l85 100h45z" />
    <glyph glyph-name="ecaron" unicode="&#x11b;" horiz-adv-x="550" 
d="M90 220q2 -38 18 -71.5t41.5 -58.5t59 -40t71.5 -15q39 0 69 13t50 29q24 18 41 42l30 -29q-20 -28 -48 -50q-24 -19 -59.5 -34.5t-82.5 -15.5t-89.5 19.5t-75 53t-51.5 79t-19 98.5q0 52 19 98t51 79.5t73.5 53t86.5 19.5t85 -18t70 -51t47.5 -79t17.5 -102v-20h-405z
M275 445q-36 0 -68.5 -15t-58 -39.5t-41 -57t-17.5 -68.5h360q-2 39 -16 72t-37.5 57t-54.5 37.5t-67 13.5zM300 565h-50l-105 130h45l85 -100l85 100h45z" />
    <glyph glyph-name="Gbreve" unicode="&#x11e;" horiz-adv-x="790" 
d="M60 350q0 75 28 140.5t76.5 114.5t113 77t137.5 28q72 0 125 -23.5t89 -51.5q41 -33 71 -75l-35 -30q-26 36 -62 65q-31 24 -78 44.5t-110 20.5q-64 0 -119.5 -24t-97 -65.5t-65 -98t-23.5 -122.5t23.5 -122.5t65 -98t97 -65.5t119.5 -24q60 0 105.5 17.5t76.5 39.5
q36 26 63 58v145h-180v50h230v-210q-32 -42 -76 -75q-38 -29 -92.5 -52t-126.5 -23q-73 0 -137.5 28t-113 77t-76.5 114.5t-28 140.5zM405 830q42 0 66 24t24 66h40q0 -57 -36.5 -93.5t-93.5 -36.5t-93.5 36.5t-36.5 93.5h40q0 -42 24 -66t66 -24z" />
    <glyph glyph-name="gbreve" unicode="&#x11f;" horiz-adv-x="585" 
d="M90 250q0 -41 14.5 -77t39 -62t56 -41t65.5 -15t66 15t57.5 41t41 62t15.5 77t-15.5 76.5t-41 62t-57.5 41.5t-66 15t-65.5 -15t-56 -41.5t-39 -62t-14.5 -76.5zM445 110q-17 -28 -43 -50q-22 -19 -56 -34.5t-81 -15.5q-43 0 -83 18.5t-70.5 51t-48.5 76t-18 94.5
t18 94.5t48.5 76t70.5 51t83 18.5q47 0 81 -15.5t56 -34.5q26 -22 43 -50v90h45v-450q0 -51 -18.5 -94.5t-50 -76t-73 -51t-88.5 -18.5q-49 0 -85 15.5t-59 34.5q-27 22 -46 50l30 30q17 -25 41 -43q20 -16 49.5 -29t69.5 -13q37 0 71 15t59 41t40 62t15 77v80zM280 605
q42 0 66 24t24 66h40q0 -57 -36.5 -93.5t-93.5 -36.5t-93.5 36.5t-36.5 93.5h40q0 -42 24 -66t66 -24z" />
    <glyph glyph-name="Gcommaaccent" unicode="&#x122;" horiz-adv-x="790" 
d="M60 350q0 75 28 140.5t76.5 114.5t113 77t137.5 28q72 0 125 -23.5t89 -51.5q41 -33 71 -75l-35 -30q-26 36 -62 65q-31 24 -78 44.5t-110 20.5q-64 0 -119.5 -24t-97 -65.5t-65 -98t-23.5 -122.5t23.5 -122.5t65 -98t97 -65.5t119.5 -24q60 0 105.5 17.5t76.5 39.5
q36 26 63 58v145h-180v50h230v-210q-32 -42 -76 -75q-38 -29 -92.5 -52t-126.5 -23q-73 0 -137.5 28t-113 77t-76.5 114.5t-28 140.5zM392 -80h50l-60 -135h-35z" />
    <glyph glyph-name="gcommaaccent" unicode="&#x123;" horiz-adv-x="585" 
d="M90 250q0 -41 14.5 -77t39 -62t56 -41t65.5 -15t66 15t57.5 41t41 62t15.5 77t-15.5 76.5t-41 62t-57.5 41.5t-66 15t-65.5 -15t-56 -41.5t-39 -62t-14.5 -76.5zM445 110q-17 -28 -43 -50q-22 -19 -56 -34.5t-81 -15.5q-43 0 -83 18.5t-70.5 51t-48.5 76t-18 94.5
t18 94.5t48.5 76t70.5 51t83 18.5q47 0 81 -15.5t56 -34.5q26 -22 43 -50v90h45v-450q0 -51 -18.5 -94.5t-50 -76t-73 -51t-88.5 -18.5q-49 0 -85 15.5t-59 34.5q-27 22 -46 50l30 30q17 -25 41 -43q20 -16 49.5 -29t69.5 -13q37 0 71 15t59 41t40 62t15 77v80zM300 560h-50
l60 135h35z" />
    <glyph glyph-name="Imacron" unicode="&#x12a;" horiz-adv-x="270" 
d="M110 700h50v-700h-50v700zM271 840h-270v40h270v-40z" />
    <glyph glyph-name="imacron" unicode="&#x12b;" horiz-adv-x="225" 
d="M85 480h45v-480h-45v480zM241 611h-270v40h270v-40z" />
    <glyph glyph-name="Iogonek" unicode="&#x12e;" horiz-adv-x="270" 
d="M145 0q-19 -18 -33 -37q-12 -17 -22 -37.5t-10 -40.5q0 -23 14.5 -36.5t40.5 -13.5q22 0 41 7q10 4 19 8v-35q-9 -4 -19 -8q-19 -7 -41 -7q-42 0 -66 23.5t-24 61.5q0 24 10 45t22 37q14 18 33 33v700h50v-700h-15z" />
    <glyph glyph-name="iogonek" unicode="&#x12f;" horiz-adv-x="225" 
d="M120 0q-19 -18 -33 -37q-12 -17 -22 -37.5t-10 -40.5q0 -23 14.5 -36.5t40.5 -13.5q22 0 41 7q10 4 19 8v-35q-9 -4 -19 -8q-19 -7 -41 -7q-42 0 -66 23.5t-24 61.5q0 24 10 45t22 37q14 18 33 33v480h45v-480h-10zM75 650q0 15 10 25t25 10t25 -10t10 -25t-10 -25
t-25 -10t-25 10t-10 25z" />
    <glyph glyph-name="Idotaccent" unicode="&#x130;" horiz-adv-x="270" 
d="M110 700h50v-700h-50v700zM100 860q0 15 10 25t25 10t25 -10t10 -25t-10 -25t-25 -10t-25 10t-10 25z" />
    <glyph glyph-name="dotlessi" unicode="&#x131;" horiz-adv-x="225" 
d="M85 480h45v-480h-45v480z" />
    <glyph glyph-name="Kcommaaccent" unicode="&#x136;" horiz-adv-x="655" 
d="M550 700h65l-265 -290l290 -410h-60l-260 375l-160 -175v-200h-50v700h50v-430zM330 -80h50l-60 -135h-35z" />
    <glyph glyph-name="kcommaaccent" unicode="&#x137;" horiz-adv-x="500" 
d="M130 0h-45v700h45v-505l265 285h60l-180 -195l205 -285h-55l-180 250h-5l-110 -120v-130zM250 -80h50l-60 -135h-35z" />
    <glyph glyph-name="Lacute" unicode="&#x139;" horiz-adv-x="560" 
d="M110 0v700h50v-650h375v-50h-425zM195 925h55l-90 -130h-40z" />
    <glyph glyph-name="lacute" unicode="&#x13a;" horiz-adv-x="225" 
d="M130 0h-45v700h45v-700zM170 925h55l-90 -130h-40z" />
    <glyph glyph-name="Lcommaaccent" unicode="&#x13b;" horiz-adv-x="560" 
d="M110 0v700h50v-650h375v-50h-425zM310 -80h50l-60 -135h-35z" />
    <glyph glyph-name="lcommaaccent" unicode="&#x13c;" horiz-adv-x="225" 
d="M130 0h-45v700h45v-700zM80 -80h50l-60 -135h-35z" />
    <glyph glyph-name="Lcaron" unicode="&#x13d;" horiz-adv-x="560" 
d="M110 0v700h50v-650h375v-50h-425zM315 700h50l-60 -135h-35z" />
    <glyph glyph-name="lcaron" unicode="&#x13e;" horiz-adv-x="264" 
d="M130 0h-45v700h45v-700zM249 700h50l-60 -135h-35z" />
    <glyph glyph-name="Lslash" unicode="&#x141;" horiz-adv-x="600" 
d="M155 0v300l-120 -70l-25 40l145 85v345h50v-315l155 92l25 -42l-180 -105v-280h375v-50h-425z" />
    <glyph glyph-name="lslash" unicode="&#x142;" horiz-adv-x="335" 
d="M185 405l130 80l20 -35l-150 -90v-360h-45v335l-130 -80l-20 35l150 90v320h45v-295z" />
    <glyph glyph-name="Nacute" unicode="&#x143;" horiz-adv-x="775" 
d="M665 700v-700h-40l-465 605v-605h-50v700h40l465 -605v605h50zM445 925h55l-90 -130h-40z" />
    <glyph glyph-name="nacute" unicode="&#x144;" horiz-adv-x="575" 
d="M130 395q14 26 37 47q20 18 51.5 33t76.5 15q41 0 76.5 -15t62 -42.5t41.5 -65t15 -82.5v-285h-45v285q0 36 -11.5 65.5t-31.5 50.5t-47.5 32.5t-59.5 11.5q-34 0 -64 -13.5t-52.5 -36.5t-35.5 -55.5t-13 -69.5v-270h-45v480h45v-85zM345 695h55l-90 -130h-40z" />
    <glyph glyph-name="Ncommaaccent" unicode="&#x145;" horiz-adv-x="775" 
d="M665 700v-700h-40l-465 605v-605h-50v700h40l465 -605v605h50zM380 -80h50l-60 -135h-35z" />
    <glyph glyph-name="ncommaaccent" unicode="&#x146;" horiz-adv-x="575" 
d="M130 395q14 26 37 47q20 18 51.5 33t76.5 15q41 0 76.5 -15t62 -42.5t41.5 -65t15 -82.5v-285h-45v285q0 36 -11.5 65.5t-31.5 50.5t-47.5 32.5t-59.5 11.5q-34 0 -64 -13.5t-52.5 -36.5t-35.5 -55.5t-13 -69.5v-270h-45v480h45v-85zM270 -80h50l-60 -135h-35z" />
    <glyph glyph-name="Ncaron" unicode="&#x147;" horiz-adv-x="775" 
d="M665 700v-700h-40l-465 605v-605h-50v700h40l465 -605v605h50zM410 790h-50l-105 130h45l85 -100l85 100h45z" />
    <glyph glyph-name="ncaron" unicode="&#x148;" horiz-adv-x="575" 
d="M130 395q14 26 37 47q20 18 51.5 33t76.5 15q41 0 76.5 -15t62 -42.5t41.5 -65t15 -82.5v-285h-45v285q0 36 -11.5 65.5t-31.5 50.5t-47.5 32.5t-59.5 11.5q-34 0 -64 -13.5t-52.5 -36.5t-35.5 -55.5t-13 -69.5v-270h-45v480h45v-85zM310 565h-50l-105 130h45l85 -100
l85 100h45z" />
    <glyph glyph-name="Omacron" unicode="&#x14c;" horiz-adv-x="830" 
d="M720 350q0 66 -24 122.5t-65 98t-96.5 65.5t-119.5 24t-119.5 -24t-97 -65.5t-65 -98t-23.5 -122.5t23.5 -122.5t65 -98t97 -65.5t119.5 -24t119.5 24t96.5 65.5t65 98t24 122.5zM770 350q0 -75 -28 -140.5t-76 -114.5t-112.5 -77t-138.5 -28t-138.5 28t-112.5 77
t-76 114.5t-28 140.5t28 140.5t76.5 114.5t113 77t137.5 28q74 0 138.5 -28t112.5 -77t76 -114.5t28 -140.5zM550 840h-270v40h270v-40z" />
    <glyph glyph-name="omacron" unicode="&#x14d;" 
d="M45 240q0 52 19 98t52 79.5t76.5 53t92.5 19.5t92.5 -19.5t76.5 -53t52 -79.5t19 -98q0 -53 -19 -98.5t-52 -79t-76.5 -53t-92.5 -19.5t-92.5 19.5t-76.5 53t-52 79t-19 98.5zM480 240q0 43 -15.5 80.5t-42.5 65t-62.5 43.5t-74.5 16t-74.5 -16t-62.5 -43.5t-42.5 -65
t-15.5 -80.5t15.5 -80.5t42.5 -65t62.5 -43.5t74.5 -16t74.5 16t62.5 43.5t42.5 65t15.5 80.5zM420 611h-270v40h270v-40z" />
    <glyph glyph-name="Ohungarumlaut" unicode="&#x150;" horiz-adv-x="830" 
d="M720 350q0 66 -24 122.5t-65 98t-96.5 65.5t-119.5 24t-119.5 -24t-97 -65.5t-65 -98t-23.5 -122.5t23.5 -122.5t65 -98t97 -65.5t119.5 -24t119.5 24t96.5 65.5t65 98t24 122.5zM770 350q0 -75 -28 -140.5t-76 -114.5t-112.5 -77t-138.5 -28t-138.5 28t-112.5 77
t-76 114.5t-28 140.5t28 140.5t76.5 114.5t113 77t137.5 28q74 0 138.5 -28t112.5 -77t76 -114.5t28 -140.5zM395 920h55l-90 -130h-40zM540 920h55l-90 -130h-40z" />
    <glyph glyph-name="ohungarumlaut" unicode="&#x151;" 
d="M45 240q0 52 19 98t52 79.5t76.5 53t92.5 19.5t92.5 -19.5t76.5 -53t52 -79.5t19 -98q0 -53 -19 -98.5t-52 -79t-76.5 -53t-92.5 -19.5t-92.5 19.5t-76.5 53t-52 79t-19 98.5zM480 240q0 43 -15.5 80.5t-42.5 65t-62.5 43.5t-74.5 16t-74.5 -16t-62.5 -43.5t-42.5 -65
t-15.5 -80.5t15.5 -80.5t42.5 -65t62.5 -43.5t74.5 -16t74.5 16t62.5 43.5t42.5 65t15.5 80.5zM265 695h55l-90 -130h-40zM410 695h55l-90 -130h-40z" />
    <glyph glyph-name="OE" unicode="&#x152;" horiz-adv-x="990" 
d="M950 50v-50h-530q-77 0 -143 27.5t-114 74.5t-75.5 111t-27.5 137t27.5 137t75.5 111t114 74.5t143 27.5h520v-50h-370v-260h290v-50h-290v-290h380zM110 350q0 -64 23 -118.5t64.5 -95t98 -63.5t124.5 -23h100v600h-100q-68 0 -124.5 -23t-98 -63.5t-64.5 -95
t-23 -118.5z" />
    <glyph glyph-name="oe" unicode="&#x153;" horiz-adv-x="940" 
d="M500 220q4 -39 20 -73t40 -59t55 -39t65 -14q39 0 68 13t49 29q23 18 38 43l30 -30q-19 -28 -46 -50q-23 -19 -57.5 -34.5t-81.5 -15.5q-56 0 -94.5 23t-62.5 51q-28 33 -46 74q-19 -41 -47 -74q-24 -28 -62.5 -51t-92.5 -23q-43 0 -83.5 19.5t-72 53t-50.5 79t-19 98.5
q0 52 19 98t50.5 79.5t72 53t83.5 19.5q54 0 92 -23.5t62 -51.5q28 -33 46 -75q18 42 46 75q24 28 61.5 51.5t92.5 23.5q41 0 79 -18t67 -51t46.5 -79t17.5 -102v-20h-385zM95 240q0 -43 15.5 -80.5t41 -65t57.5 -43.5t66 -16t66 16t57.5 43.5t41 65t15.5 80.5t-15.5 80.5
t-41 65t-57.5 43.5t-66 16t-66 -16t-57.5 -43.5t-41 -65t-15.5 -80.5zM675 445q-32 0 -62.5 -15t-55 -39.5t-40 -57t-17.5 -68.5h340q-2 39 -16 72t-36.5 57t-51.5 37.5t-61 13.5z" />
    <glyph glyph-name="Racute" unicode="&#x154;" horiz-adv-x="660" 
d="M375 700q47 0 86.5 -16t68 -43.5t44.5 -65t16 -80.5q0 -31 -6.5 -56t-17.5 -44.5t-25 -34t-29 -24.5q-34 -25 -77 -36l170 -300h-55l-165 290h-225v-290h-50v700h265zM160 650v-310h215q37 0 67.5 11.5t52.5 32t33.5 49t11.5 62.5t-11.5 62.5t-33.5 49t-52.5 32
t-67.5 11.5h-215zM390 925h55l-90 -130h-40z" />
    <glyph glyph-name="racute" unicode="&#x155;" horiz-adv-x="340" 
d="M320 445h-20q-34 0 -64.5 -12.5t-54 -35.5t-37.5 -55.5t-14 -71.5v-270h-45v480h45v-80q14 25 38 45q20 17 52 31t80 14h20v-45zM255 695h55l-90 -130h-40z" />
    <glyph glyph-name="Rcommaaccent" unicode="&#x156;" horiz-adv-x="660" 
d="M375 700q47 0 86.5 -16t68 -43.5t44.5 -65t16 -80.5q0 -31 -6.5 -56t-17.5 -44.5t-25 -34t-29 -24.5q-34 -25 -77 -36l170 -300h-55l-165 290h-225v-290h-50v700h265zM160 650v-310h215q37 0 67.5 11.5t52.5 32t33.5 49t11.5 62.5t-11.5 62.5t-33.5 49t-52.5 32
t-67.5 11.5h-215zM325 -80h50l-60 -135h-35z" />
    <glyph glyph-name="rcommaaccent" unicode="&#x157;" horiz-adv-x="340" 
d="M320 445h-20q-34 0 -64.5 -12.5t-54 -35.5t-37.5 -55.5t-14 -71.5v-270h-45v480h45v-80q14 25 38 45q20 17 52 31t80 14h20v-45zM80 -80h50l-60 -135h-35z" />
    <glyph glyph-name="Rcaron" unicode="&#x158;" horiz-adv-x="660" 
d="M375 700q47 0 86.5 -16t68 -43.5t44.5 -65t16 -80.5q0 -31 -6.5 -56t-17.5 -44.5t-25 -34t-29 -24.5q-34 -25 -77 -36l170 -300h-55l-165 290h-225v-290h-50v700h265zM160 650v-310h215q37 0 67.5 11.5t52.5 32t33.5 49t11.5 62.5t-11.5 62.5t-33.5 49t-52.5 32
t-67.5 11.5h-215zM360 790h-50l-105 130h45l85 -100l85 100h45z" />
    <glyph glyph-name="rcaron" unicode="&#x159;" horiz-adv-x="340" 
d="M320 445h-20q-34 0 -64.5 -12.5t-54 -35.5t-37.5 -55.5t-14 -71.5v-270h-45v480h45v-80q14 25 38 45q20 17 52 31t80 14h20v-45zM225 565h-50l-105 130h45l85 -100l85 100h45z" />
    <glyph glyph-name="Sacute" unicode="&#x15a;" horiz-adv-x="560" 
d="M455 185q0 36 -17 59.5t-44 40t-62 28.5t-72 23.5t-72 25.5t-62 35.5t-44 52t-17 75.5q0 37 15.5 71t44 59t69 40t91.5 15q49 0 86 -13.5t63 -29.5q30 -18 51 -42l-35 -35q-17 19 -41 35q-21 13 -51.5 24t-72.5 11q-41 0 -73 -10.5t-53.5 -29t-32.5 -43t-11 -52.5
q0 -36 17 -59.5t44 -40t62 -28.5t72 -23.5t72 -25.5t62 -35.5t44 -52t17 -75.5q0 -41 -15.5 -77t-45 -62t-72.5 -41t-97 -15q-59 0 -101.5 16t-71.5 36q-33 23 -57 53l35 35q19 -26 47 -45q24 -17 60.5 -31t87.5 -14q91 0 135.5 40.5t44.5 104.5zM335 925h55l-90 -130h-40z
" />
    <glyph glyph-name="sacute" unicode="&#x15b;" horiz-adv-x="430" 
d="M325 385q-12 17 -29 30q-14 11 -36 20.5t-50 9.5q-53 0 -81.5 -26t-28.5 -59q0 -29 20.5 -45.5t51 -27.5t66 -20.5t66 -25t51 -40.5t20.5 -66q0 -30 -12 -56.5t-34 -46t-53.5 -31t-70.5 -11.5q-42 0 -73 12.5t-53 27.5q-26 18 -44 40l35 35q16 -20 36 -35
q17 -14 42 -24.5t57 -10.5q60 0 92.5 29t32.5 71q0 30 -20.5 47t-51 29t-66 21.5t-66 24.5t-51 39t-20.5 64q0 24 11.5 47.5t32 42t49 29.5t62.5 11q35 0 63 -11t48 -24q23 -16 39 -35zM260 695h55l-90 -130h-40z" />
    <glyph glyph-name="Scedilla" unicode="&#x15e;" horiz-adv-x="560" 
d="M455 185q0 36 -17 59.5t-44 40t-62 28.5t-72 23.5t-72 25.5t-62 35.5t-44 52t-17 75.5q0 37 15.5 71t44 59t69 40t91.5 15q49 0 86 -13.5t63 -29.5q30 -18 51 -42l-35 -35q-17 19 -41 35q-21 13 -51.5 24t-72.5 11q-41 0 -73 -10.5t-53.5 -29t-32.5 -43t-11 -52.5
q0 -36 17 -59.5t44 -40t62 -28.5t72 -23.5t72 -25.5t62 -35.5t44 -52t17 -75.5q0 -40 -14.5 -74.5t-42 -60.5t-67.5 -42t-91 -18l-25 -50q1 1 5 2q3 1 7.5 2t12.5 1q30 0 50 -20t20 -50t-24 -52.5t-66 -22.5q-17 0 -31.5 4t-25.5 9q-12 6 -23 14l15 28q8 -8 19 -13
q9 -5 20.5 -8.5t25.5 -3.5q27 0 41 13t14 32q0 15 -12 27.5t-28 12.5q-8 0 -14 -1.5t-11 -3.5l-10 -5l-25 25l30 61q-54 3 -93 19.5t-65 35.5q-31 22 -52 49l35 35q19 -26 47 -45q24 -17 60.5 -31t87.5 -14q91 0 135.5 40.5t44.5 104.5z" />
    <glyph glyph-name="scedilla" unicode="&#x15f;" horiz-adv-x="430" 
d="M325 385q-12 17 -29 30q-14 11 -36 20.5t-50 9.5q-53 0 -81.5 -26t-28.5 -59q0 -29 20.5 -45.5t51 -27.5t66 -20.5t66 -25t51 -40.5t20.5 -66q0 -29 -10.5 -54t-31 -44.5t-49 -31.5t-64.5 -14l-25 -51q1 1 5 2q3 1 7.5 2t12.5 1q30 0 50 -20t20 -50t-24 -52.5t-66 -22.5
q-17 0 -31.5 4t-25.5 9q-12 6 -23 14l15 28q8 -8 19 -13q9 -5 20.5 -8.5t25.5 -3.5q27 0 41 13t14 32q0 15 -12 27.5t-28 12.5q-8 0 -14 -1.5t-11 -3.5l-10 -5l-25 25l30 61q-37 3 -64.5 16.5t-46.5 27.5q-22 17 -39 36l35 35q16 -20 36 -35q17 -14 42 -24.5t57 -10.5
q60 0 92.5 29t32.5 71q0 30 -20.5 47t-51 29t-66 21.5t-66 24t-51 38.5t-20.5 64q0 24 11.5 47.5t32 42t49 29.5t62.5 11q35 0 63 -11t48 -24q23 -16 39 -35z" />
    <glyph glyph-name="Scaron" unicode="&#x160;" horiz-adv-x="560" 
d="M455 185q0 36 -17 59.5t-44 40t-62 28.5t-72 23.5t-72 25.5t-62 35.5t-44 52t-17 75.5q0 37 15.5 71t44 59t69 40t91.5 15q49 0 86 -13.5t63 -29.5q30 -18 51 -42l-35 -35q-17 19 -41 35q-21 13 -51.5 24t-72.5 11q-41 0 -73 -10.5t-53.5 -29t-32.5 -43t-11 -52.5
q0 -36 17 -59.5t44 -40t62 -28.5t72 -23.5t72 -25.5t62 -35.5t44 -52t17 -75.5q0 -41 -15.5 -77t-45 -62t-72.5 -41t-97 -15q-59 0 -101.5 16t-71.5 36q-33 23 -57 53l35 35q19 -26 47 -45q24 -17 60.5 -31t87.5 -14q91 0 135.5 40.5t44.5 104.5zM305 790h-50l-105 130h45
l85 -100l85 100h45z" />
    <glyph glyph-name="scaron" unicode="&#x161;" horiz-adv-x="430" 
d="M325 385q-12 17 -29 30q-14 11 -36 20.5t-50 9.5q-53 0 -81.5 -26t-28.5 -59q0 -29 20.5 -45.5t51 -27.5t66 -20.5t66 -25t51 -40.5t20.5 -66q0 -30 -12 -56.5t-34 -46t-53.5 -31t-70.5 -11.5q-42 0 -73 12.5t-53 27.5q-26 18 -44 40l35 35q16 -20 36 -35
q17 -14 42 -24.5t57 -10.5q60 0 92.5 29t32.5 71q0 30 -20.5 47t-51 29t-66 21.5t-66 24.5t-51 39t-20.5 64q0 24 11.5 47.5t32 42t49 29.5t62.5 11q35 0 63 -11t48 -24q23 -16 39 -35zM230 565h-50l-105 130h45l85 -100l85 100h45z" />
    <glyph glyph-name="Tcommaaccent" unicode="&#x162;" horiz-adv-x="550" 
d="M530 700v-50h-230v-650h-50v650h-230v50h510zM250 -80h50l-60 -135h-35z" />
    <glyph glyph-name="tcommaaccent" unicode="&#x163;" horiz-adv-x="350" 
d="M125 640h40v-160h110v-45h-110v-315q0 -42 20.5 -63.5t54.5 -21.5q13 0 25 2t21 5q11 4 19 8v-45q-8 -4 -19 -8q-9 -3 -21 -5t-25 -2q-57 0 -88.5 33t-31.5 97v315h-95v45h65q15 0 25 10.5t10 29.5v120zM190 -80h50l-60 -135h-35z" />
    <glyph glyph-name="Tcaron" unicode="&#x164;" horiz-adv-x="550" 
d="M530 700v-50h-230v-650h-50v650h-230v50h510zM300 790h-50l-105 130h45l85 -100l85 100h45z" />
    <glyph glyph-name="tcaron" unicode="&#x165;" horiz-adv-x="358" 
d="M125 640h40v-160h110v-45h-110v-315q0 -42 20.5 -63.5t54.5 -21.5q13 0 25 2t21 5q11 4 19 8v-45q-8 -4 -19 -8q-9 -3 -21 -5t-25 -2q-57 0 -88.5 33t-31.5 97v315h-95v45h65q15 0 25 10.5t10 29.5v120zM343 700h50l-60 -135h-35z" />
    <glyph glyph-name="Umacron" unicode="&#x16a;" horiz-adv-x="750" 
d="M375 40q47 0 88 17.5t71.5 48.5t48 73t17.5 91v430h50v-430q0 -58 -22 -109t-59.5 -89t-87.5 -60t-106 -22t-106 22t-87.5 60t-59.5 89t-22 109v430h50v-430q0 -49 17.5 -91t48 -73t71.5 -48.5t88 -17.5zM510 840h-270v40h270v-40z" />
    <glyph glyph-name="umacron" unicode="&#x16b;" 
d="M445 85q-15 -27 -38 -48q-20 -18 -51 -32.5t-76 -14.5q-41 0 -77 15t-62 42.5t-41 65t-15 82.5v285h45v-285q0 -36 11.5 -65.5t31.5 -50.5t47.5 -32.5t59.5 -11.5q34 0 64 13.5t52.5 36.5t35.5 55t13 70v270h45v-480h-45v85zM420 611h-270v40h270v-40z" />
    <glyph glyph-name="Uring" unicode="&#x16e;" horiz-adv-x="750" 
d="M375 40q47 0 88 17.5t71.5 48.5t48 73t17.5 91v430h50v-430q0 -58 -22 -109t-59.5 -89t-87.5 -60t-106 -22t-106 22t-87.5 60t-59.5 89t-22 109v430h50v-430q0 -49 17.5 -91t48 -73t71.5 -48.5t88 -17.5zM325 870q0 -55 55 -55t55 55t-55 55t-55 -55zM475 870
q0 -42 -26.5 -68.5t-68.5 -26.5t-68.5 26.5t-26.5 68.5t26.5 68.5t68.5 26.5t68.5 -26.5t26.5 -68.5z" />
    <glyph glyph-name="uring" unicode="&#x16f;" 
d="M445 85q-15 -27 -38 -48q-20 -18 -51 -32.5t-76 -14.5q-41 0 -77 15t-62 42.5t-41 65t-15 82.5v285h45v-285q0 -36 11.5 -65.5t31.5 -50.5t47.5 -32.5t59.5 -11.5q34 0 64 13.5t52.5 36.5t35.5 55t13 70v270h45v-480h-45v85zM230 640q0 -55 55 -55t55 55t-55 55t-55 -55z
M380 640q0 -42 -26.5 -68.5t-68.5 -26.5t-68.5 26.5t-26.5 68.5t26.5 68.5t68.5 26.5t68.5 -26.5t26.5 -68.5z" />
    <glyph glyph-name="Uhungarumlaut" unicode="&#x170;" horiz-adv-x="750" 
d="M375 40q47 0 88 17.5t71.5 48.5t48 73t17.5 91v430h50v-430q0 -58 -22 -109t-59.5 -89t-87.5 -60t-106 -22t-106 22t-87.5 60t-59.5 89t-22 109v430h50v-430q0 -49 17.5 -91t48 -73t71.5 -48.5t88 -17.5zM350 920h55l-90 -130h-40zM495 920h55l-90 -130h-40z" />
    <glyph glyph-name="uhungarumlaut" unicode="&#x171;" 
d="M445 85q-15 -27 -38 -48q-20 -18 -51 -32.5t-76 -14.5q-41 0 -77 15t-62 42.5t-41 65t-15 82.5v285h45v-285q0 -36 11.5 -65.5t31.5 -50.5t47.5 -32.5t59.5 -11.5q34 0 64 13.5t52.5 36.5t35.5 55t13 70v270h45v-480h-45v85zM260 691h55l-90 -130h-40zM405 691h55
l-90 -130h-40z" />
    <glyph glyph-name="Uogonek" unicode="&#x172;" horiz-adv-x="750" 
d="M375 40q47 0 88 17.5t71.5 48.5t48 73t17.5 91v430h50v-430q0 -53 -18.5 -100.5t-50.5 -84.5t-75.5 -61t-93.5 -31q-6 -6 -16 -17.5t-19 -26t-15.5 -31t-6.5 -33.5q0 -23 14.5 -36.5t40.5 -13.5q22 0 41 7q10 4 19 8v-35q-9 -4 -19 -8q-19 -7 -41 -7q-42 0 -66 23.5
t-24 61.5q0 18 5.5 34.5t14 30t17.5 24t16 16.5q-56 0 -105.5 22t-87 60t-59 89t-21.5 109v430h50v-430q0 -49 17.5 -91t48 -73t71.5 -48.5t88 -17.5z" />
    <glyph glyph-name="uogonek" unicode="&#x173;" 
d="M480 0q-19 -18 -33 -37q-12 -17 -22 -37.5t-10 -40.5q0 -23 14.5 -36.5t40.5 -13.5q22 0 41 7q10 4 19 8v-35q-9 -4 -19 -8q-19 -7 -41 -7q-42 0 -66 23.5t-24 61.5q0 24 10 45t22 37q14 18 33 33v85q-15 -27 -38 -48q-20 -18 -51 -32.5t-76 -14.5q-41 0 -77 15t-62 42.5
t-41 65t-15 82.5v285h45v-285q0 -36 11.5 -65.5t31.5 -50.5t47.5 -32.5t59.5 -11.5q34 0 64 13.5t52.5 36.5t35.5 55t13 70v270h45v-480h-10z" />
    <glyph glyph-name="Ydieresis" unicode="&#x178;" horiz-adv-x="620" 
d="M310 300l225 400h60l-260 -455v-245h-50v245l-260 455h60zM190 855q0 15 10 25t25 10t25 -10t10 -25t-10 -25t-25 -10t-25 10t-10 25zM365 855q0 15 10 25t25 10t25 -10t10 -25t-10 -25t-25 -10t-25 10t-10 25z" />
    <glyph glyph-name="Zacute" unicode="&#x179;" horiz-adv-x="585" 
d="M60 650v50h470v-50l-425 -600h435v-50h-495v50l425 600h-410zM350 925h55l-90 -130h-40z" />
    <glyph glyph-name="zacute" unicode="&#x17a;" horiz-adv-x="445" 
d="M395 435l-310 -390h320v-45h-375v45l310 390h-300v45h355v-45zM270 695h55l-90 -130h-40z" />
    <glyph glyph-name="Zdotaccent" unicode="&#x17b;" horiz-adv-x="585" 
d="M60 650v50h470v-50l-425 -600h435v-50h-495v50l425 600h-410zM255 860q0 15 10 25t25 10t25 -10t10 -25t-10 -25t-25 -10t-25 10t-10 25z" />
    <glyph glyph-name="zdotaccent" unicode="&#x17c;" horiz-adv-x="445" 
d="M395 435l-310 -390h320v-45h-375v45l310 390h-300v45h355v-45zM180 626q0 15 10 25t25 10t25 -10t10 -25t-10 -25t-25 -10t-25 10t-10 25z" />
    <glyph glyph-name="Zcaron" unicode="&#x17d;" horiz-adv-x="585" 
d="M60 650v50h470v-50l-425 -600h435v-50h-495v50l425 600h-410zM320 790h-50l-105 130h45l85 -100l85 100h45z" />
    <glyph glyph-name="zcaron" unicode="&#x17e;" horiz-adv-x="445" 
d="M395 435l-310 -390h320v-45h-375v45l310 390h-300v45h355v-45zM239 565h-50l-105 130h45l85 -100l85 100h45z" />
    <glyph glyph-name="florin" unicode="&#x192;" horiz-adv-x="345" 
d="M115 -85q-13 -68 -43 -99t-87 -31q-14 0 -25.5 2t-20.5 5q-11 4 -19 8v45q8 -4 19 -8q9 -3 20.5 -5t25.5 -2q70 0 85 85l80 430h-85v45h95l35 190q13 68 43 99t87 31q13 0 25 -2.5t21 -5.5q11 -4 19 -7v-45q-8 3 -19 7q-9 3 -21 5.5t-25 2.5q-70 0 -85 -85l-35 -190h115
v-45h-125z" />
    <glyph glyph-name="Scommaaccent" unicode="&#x218;" horiz-adv-x="560" 
d="M455 185q0 36 -17 59.5t-44 40t-62 28.5t-72 23.5t-72 25.5t-62 35.5t-44 52t-17 75.5q0 37 15.5 71t44 59t69 40t91.5 15q49 0 86 -13.5t63 -29.5q30 -18 51 -42l-35 -35q-17 19 -41 35q-21 13 -51.5 24t-72.5 11q-41 0 -73 -10.5t-53.5 -29t-32.5 -43t-11 -52.5
q0 -36 17 -59.5t44 -40t62 -28.5t72 -23.5t72 -25.5t62 -35.5t44 -52t17 -75.5q0 -41 -15.5 -77t-45 -62t-72.5 -41t-97 -15q-59 0 -101.5 16t-71.5 36q-33 23 -57 53l35 35q19 -26 47 -45q24 -17 60.5 -31t87.5 -14q91 0 135.5 40.5t44.5 104.5zM260 -80h50l-60 -135h-35z
" />
    <glyph glyph-name="scommaaccent" unicode="&#x219;" horiz-adv-x="430" 
d="M325 385q-12 17 -29 30q-14 11 -36 20.5t-50 9.5q-53 0 -81.5 -26t-28.5 -59q0 -29 20.5 -45.5t51 -27.5t66 -20.5t66 -25t51 -40.5t20.5 -66q0 -30 -12 -56.5t-34 -46t-53.5 -31t-70.5 -11.5q-42 0 -73 12.5t-53 27.5q-26 18 -44 40l35 35q16 -20 36 -35
q17 -14 42 -24.5t57 -10.5q60 0 92.5 29t32.5 71q0 30 -20.5 47t-51 29t-66 21.5t-66 24.5t-51 39t-20.5 64q0 24 11.5 47.5t32 42t49 29.5t62.5 11q35 0 63 -11t48 -24q23 -16 39 -35zM185 -80h50l-60 -135h-35z" />
    <glyph glyph-name="uni021A" unicode="&#x21a;" horiz-adv-x="550" 
d="M530 700v-50h-230v-650h-50v650h-230v50h510zM250 -80h50l-60 -135h-35z" />
    <glyph glyph-name="uni021B" unicode="&#x21b;" horiz-adv-x="350" 
d="M125 640h40v-160h110v-45h-110v-315q0 -42 20.5 -63.5t54.5 -21.5q13 0 25 2t21 5q11 4 19 8v-45q-8 -4 -19 -8q-9 -3 -21 -5t-25 -2q-57 0 -88.5 33t-31.5 97v315h-95v45h65q15 0 25 10.5t10 29.5v120zM190 -80h50l-60 -135h-35z" />
    <glyph glyph-name="afii57929" unicode="&#x2bc;" horiz-adv-x="155" 
d="M75 700h50l-60 -135h-35z" />
    <glyph glyph-name="circumflex" unicode="&#x2c6;" horiz-adv-x="320" 
d="M290 565h-45l-85 100l-85 -100h-45l105 130h50z" />
    <glyph glyph-name="caron" unicode="&#x2c7;" horiz-adv-x="320" 
d="M185 565h-50l-105 130h45l85 -100l85 100h45z" />
    <glyph glyph-name="breve" unicode="&#x2d8;" horiz-adv-x="320" 
d="M160 605q42 0 66 24t24 66h40q0 -57 -36.5 -93.5t-93.5 -36.5t-93.5 36.5t-36.5 93.5h40q0 -42 24 -66t66 -24z" />
    <glyph glyph-name="dotaccent" unicode="&#x2d9;" horiz-adv-x="130" 
d="M30 640q0 15 10 25t25 10t25 -10t10 -25t-10 -25t-25 -10t-25 10t-10 25z" />
    <glyph glyph-name="ring" unicode="&#x2da;" horiz-adv-x="250" 
d="M70 600q0 -55 55 -55t55 55t-55 55t-55 -55zM220 600q0 -42 -26.5 -68.5t-68.5 -26.5t-68.5 26.5t-26.5 68.5t26.5 68.5t68.5 26.5t68.5 -26.5t26.5 -68.5z" />
    <glyph glyph-name="ogonek" unicode="&#x2db;" horiz-adv-x="210" 
d="M130 0q-19 -18 -33 -37q-12 -17 -22 -37.5t-10 -40.5q0 -23 14.5 -36.5t40.5 -13.5q22 0 41 7q10 4 19 8v-35q-9 -4 -19 -8q-19 -7 -41 -7q-42 0 -66 23.5t-24 61.5q0 24 10 45t22 37q14 18 33 33h35z" />
    <glyph glyph-name="tilde" unicode="&#x2dc;" horiz-adv-x="345" 
d="M110 650q-15 0 -27.5 -16.5t-12.5 -58.5h-40q0 60 23 87.5t57 27.5q24 0 40.5 -11.5t29.5 -26t25.5 -26t29.5 -11.5q15 0 27.5 16.5t12.5 58.5h40q0 -60 -23 -87.5t-57 -27.5q-24 0 -40.5 11.5t-29.5 26t-25.5 26t-29.5 11.5z" />
    <glyph glyph-name="hungarumlaut" unicode="&#x2dd;" horiz-adv-x="335" 
d="M105 695h55l-90 -130h-40zM250 695h55l-90 -130h-40z" />
    <glyph glyph-name="afii10023" unicode="&#x401;" horiz-adv-x="630" 
d="M590 50v-50h-480v700h470v-50h-420v-260h340v-50h-340v-290h430zM220 855q0 15 10 25t25 10t25 -10t10 -25t-10 -25t-25 -10t-25 10t-10 25zM395 855q0 15 10 25t25 10t25 -10t10 -25t-10 -25t-25 -10t-25 10t-10 25z" />
    <glyph glyph-name="afii10051" unicode="&#x402;" horiz-adv-x="710" 
d="M0 700h420v-50h-185v-275q24 19 55 35q26 13 63 24t82 11q43 0 80.5 -16t65 -45.5t43.5 -71t16 -92.5q0 -109 -59 -169.5t-161 -60.5v50q79 0 124.5 46.5t45.5 133.5q0 39 -12.5 71.5t-33.5 55.5t-49 35.5t-60 12.5q-45 0 -82 -12.5t-63 -27.5q-31 -18 -55 -40v-315h-50
v650h-185v50z" />
    <glyph glyph-name="afii10052" unicode="&#x403;" horiz-adv-x="550" 
d="M110 700h425v-50h-375v-650h-50v700zM375 925h55l-90 -130h-40z" />
    <glyph glyph-name="afii10053" unicode="&#x404;" horiz-adv-x="750" 
d="M60 350q0 75 28 140.5t76.5 114.5t113 77t137.5 28q72 0 125 -23.5t89 -51.5q41 -33 71 -75l-35 -30q-26 36 -62 65q-31 24 -78 44.5t-110 20.5q-62 0 -115 -22t-93.5 -60t-65.5 -89t-31 -109h385v-50h-385q4 -60 29 -113t65.5 -92t94.5 -62t116 -23q64 0 111.5 20
t79.5 45q37 28 64 65l35 -30q-31 -42 -74 -75q-37 -29 -90.5 -52t-125.5 -23q-73 0 -137.5 28t-113 77t-76.5 114.5t-28 140.5z" />
    <glyph glyph-name="afii10054" unicode="&#x405;" horiz-adv-x="560" 
d="M455 185q0 36 -17 59.5t-44 40t-62 28.5t-72 23.5t-72 25.5t-62 35.5t-44 52t-17 75.5q0 37 15.5 71t44 59t69 40t91.5 15q49 0 86 -13.5t63 -29.5q30 -18 51 -42l-35 -35q-17 19 -41 35q-21 13 -51.5 24t-72.5 11q-41 0 -73 -10.5t-53.5 -29t-32.5 -43t-11 -52.5
q0 -36 17 -59.5t44 -40t62 -28.5t72 -23.5t72 -25.5t62 -35.5t44 -52t17 -75.5q0 -41 -15.5 -77t-45 -62t-72.5 -41t-97 -15q-59 0 -101.5 16t-71.5 36q-33 23 -57 53l35 35q19 -26 47 -45q24 -17 60.5 -31t87.5 -14q91 0 135.5 40.5t44.5 104.5z" />
    <glyph glyph-name="afii10055" unicode="&#x406;" horiz-adv-x="270" 
d="M110 700h50v-700h-50v700z" />
    <glyph glyph-name="afii10056" unicode="&#x407;" horiz-adv-x="270" 
d="M110 700h50v-700h-50v700zM16 855q0 15 10 25t25 10t25 -10t10 -25t-10 -25t-25 -10t-25 10t-10 25zM191 855q0 15 10 25t25 10t25 -10t10 -25t-10 -25t-25 -10t-25 10t-10 25z" />
    <glyph glyph-name="afii10057" unicode="&#x408;" horiz-adv-x="490" 
d="M385 700v-495q0 -47 -16 -86.5t-44 -68t-66.5 -44.5t-83.5 -16q-40 0 -70.5 11.5t-51.5 25.5q-25 17 -43 38l35 35q14 -17 33 -30q17 -11 41 -20.5t56 -9.5q36 0 65.5 11.5t50.5 33.5t32.5 52t11.5 68v495h50z" />
    <glyph glyph-name="afii10058" unicode="&#x409;" horiz-adv-x="1070" 
d="M550 0v650h-315v-160q0 -158 -14 -255.5t-38.5 -152t-57.5 -73.5t-70 -19q-11 0 -22 2t-19 4q-10 3 -19 6v48q8 -3 18 -5q18 -5 37 -5q26 0 50.5 16t43 64.5t30 137t11.5 232.5v210h415v-270h185q49 0 90 -16.5t71 -46t47 -68.5t17 -84t-17 -84t-47 -68.5t-71 -46
t-90 -16.5h-235zM785 50q39 0 71.5 12.5t55.5 34.5t35.5 52t12.5 66t-12.5 66t-35.5 52t-55.5 34.5t-71.5 12.5h-185v-330h185z" />
    <glyph glyph-name="afii10059" unicode="&#x40a;" horiz-adv-x="1065" 
d="M545 0v380h-385v-380h-50v700h50v-270h385v270h50v-270h185q49 0 90 -16.5t71 -46t47 -68.5t17 -84t-17 -84t-47 -68.5t-71 -46t-90 -16.5h-235zM780 50q39 0 71.5 12.5t55.5 34.5t35.5 52t12.5 66t-12.5 66t-35.5 52t-55.5 34.5t-71.5 12.5h-185v-330h185z" />
    <glyph glyph-name="afii10060" unicode="&#x40b;" horiz-adv-x="730" 
d="M0 700h420v-50h-185v-275q24 19 55 35q26 13 63 24t82 11q43 0 80.5 -16t65 -44.5t43.5 -68t16 -86.5v-230h-50v230q0 36 -12.5 66t-33.5 52t-49 34.5t-60 12.5q-45 0 -82 -12.5t-63 -27.5q-31 -18 -55 -40v-315h-50v650h-185v50z" />
    <glyph glyph-name="afii10061" unicode="&#x40c;" horiz-adv-x="655" 
d="M550 700h65l-265 -290l290 -410h-60l-260 375l-160 -175v-200h-50v700h50v-430zM400 925h55l-90 -130h-40z" />
    <glyph glyph-name="afii10062" unicode="&#x40e;" horiz-adv-x="605" 
d="M310 795q-57 0 -93.5 36.5t-36.5 93.5h45q0 -38 23.5 -61.5t61.5 -23.5t61.5 23.5t23.5 61.5h45q0 -57 -36.5 -93.5t-93.5 -36.5zM530 700h55l-265 -555q-19 -39 -38.5 -68.5t-42 -48.5t-49 -28.5t-60.5 -9.5q-22 0 -39 5q-9 2 -16 5v50q7 -3 16 -5q17 -5 39 -5
q49 0 79 26t56 79l30 60l-265 495h55l235 -440z" />
    <glyph glyph-name="afii10145" unicode="&#x40f;" horiz-adv-x="740" 
d="M630 0h-235v-150h-50v150h-235v700h50v-650h420v650h50v-700z" />
    <glyph glyph-name="afii10017" unicode="&#x410;" horiz-adv-x="680" 
d="M340 630l-155 -375h310zM165 205l-85 -205h-55l290 700h50l290 -700h-55l-85 205h-350z" />
    <glyph glyph-name="afii10018" unicode="&#x411;" horiz-adv-x="645" 
d="M160 410h205q47 0 87 -16.5t69.5 -44.5t46.5 -65.5t17 -78.5t-17 -78.5t-46.5 -65.5t-69.5 -44.5t-87 -16.5h-255v700h420v-50h-370v-240zM365 50q37 0 68.5 12.5t54 33.5t35 49t12.5 60t-12.5 60t-35 49t-54 33.5t-68.5 12.5h-205v-310h205z" />
    <glyph glyph-name="afii10019" unicode="&#x412;" horiz-adv-x="660" 
d="M470 375q35 -14 62 -38q23 -21 43 -55t20 -87q0 -41 -15.5 -77t-43.5 -62t-67.5 -41t-88.5 -15h-270v700h260q43 0 78 -13.5t60 -36.5t38.5 -55.5t13.5 -69.5q0 -44 -14 -72.5t-31 -45.5q-20 -20 -45 -32zM380 50q79 0 122 40.5t43 104.5q0 68 -43 109t-122 41h-220v-295
h220zM160 650v-255h210q68 0 104 35t36 95q0 57 -36 91t-104 34h-210z" />
    <glyph glyph-name="afii10020" unicode="&#x413;" horiz-adv-x="550" 
d="M110 700h425v-50h-375v-650h-50v700z" />
    <glyph glyph-name="afii10021" unicode="&#x414;" horiz-adv-x="705" 
d="M40 50q35 35 62 96q23 52 43 136t20 208v210h415v-650h90v-200h-50v150h-570v-150h-50v200h40zM215 490q0 -121 -18 -204t-40 -136q-26 -62 -57 -100h430v600h-315v-160z" />
    <glyph glyph-name="afii10022" unicode="&#x415;" horiz-adv-x="630" 
d="M590 50v-50h-480v700h470v-50h-420v-260h340v-50h-340v-290h430z" />
    <glyph glyph-name="afii10024" unicode="&#x416;" horiz-adv-x="940" 
d="M495 255v-255h-50v255l-110 120l-260 -375h-60l290 410l-265 290h65l340 -375v375h50v-375l340 375h65l-265 -290l290 -410h-60l-260 375z" />
    <glyph glyph-name="afii10025" unicode="&#x417;" horiz-adv-x="570" 
d="M355 370q42 -12 75 -36q28 -20 51.5 -55t23.5 -89q0 -39 -17 -75.5t-48.5 -64t-76 -44t-98.5 -16.5q-59 0 -101.5 16t-71.5 36q-33 23 -57 53l35 35q19 -26 47 -45q24 -17 60.5 -31t87.5 -14q45 0 80.5 12t59.5 33t37 48t13 57q0 31 -13 59.5t-37 49.5t-59.5 33.5
t-80.5 12.5h-80v50h80q41 0 73 10.5t53.5 28.5t32.5 41.5t11 49.5q0 28 -11 52.5t-32.5 43t-53.5 29t-73 10.5q-44 0 -76.5 -12.5t-54.5 -27.5q-26 -18 -44 -40l-35 35q22 26 54 47q27 18 66 33t90 15t91.5 -15t69 -40t44 -59t15.5 -71q0 -47 -20.5 -77t-44.5 -47
q-29 -20 -65 -31z" />
    <glyph glyph-name="afii10026" unicode="&#x418;" horiz-adv-x="775" 
d="M615 0v605l-465 -605h-40v700h50v-605l465 605h40v-700h-50z" />
    <glyph glyph-name="afii10027" unicode="&#x419;" horiz-adv-x="775" 
d="M390 795q-57 0 -93.5 36.5t-36.5 93.5h45q0 -38 23.5 -61.5t61.5 -23.5t61.5 23.5t23.5 61.5h45q0 -57 -36.5 -93.5t-93.5 -36.5zM615 0v605l-465 -605h-40v700h50v-605l465 605h40v-700h-50z" />
    <glyph glyph-name="afii10028" unicode="&#x41a;" horiz-adv-x="655" 
d="M550 700h65l-265 -290l290 -410h-60l-260 375l-160 -175v-200h-50v700h50v-430z" />
    <glyph glyph-name="afii10029" unicode="&#x41b;" horiz-adv-x="730" 
d="M620 0h-50v650h-335v-160q0 -158 -14 -255.5t-38.5 -152t-57.5 -73.5t-70 -19q-11 0 -22 2t-19 4q-10 3 -19 6v48q8 -3 18 -5q18 -5 37 -5q26 0 50.5 16t43 64.5t30 137t11.5 232.5v210h435v-700z" />
    <glyph glyph-name="afii10030" unicode="&#x41c;" horiz-adv-x="920" 
d="M160 605v-605h-50v700h40l310 -410l310 410h40v-700h-50v605l-300 -400z" />
    <glyph glyph-name="afii10031" unicode="&#x41d;" horiz-adv-x="745" 
d="M110 700h50v-320h425v320h50v-700h-50v330h-425v-330h-50v700z" />
    <glyph glyph-name="afii10032" unicode="&#x41e;" horiz-adv-x="830" 
d="M720 350q0 66 -24 122.5t-65 98t-96.5 65.5t-119.5 24t-119.5 -24t-97 -65.5t-65 -98t-23.5 -122.5t23.5 -122.5t65 -98t97 -65.5t119.5 -24t119.5 24t96.5 65.5t65 98t24 122.5zM770 350q0 -75 -28 -140.5t-76 -114.5t-112.5 -77t-138.5 -28t-138.5 28t-112.5 77
t-76 114.5t-28 140.5t28 140.5t76.5 114.5t113 77t137.5 28q74 0 138.5 -28t112.5 -77t76 -114.5t28 -140.5z" />
    <glyph glyph-name="afii10033" unicode="&#x41f;" horiz-adv-x="745" 
d="M635 0h-50v650h-425v-650h-50v700h525v-700z" />
    <glyph glyph-name="afii10034" unicode="&#x420;" horiz-adv-x="640" 
d="M360 700q49 0 90 -16.5t71 -46t47 -68.5t17 -84t-17 -84t-47 -68.5t-71 -46t-90 -16.5h-200v-270h-50v700h250zM160 650v-330h200q39 0 71.5 12.5t55.5 34.5t35.5 52t12.5 66t-12.5 66t-35.5 52t-55.5 34.5t-71.5 12.5h-200z" />
    <glyph glyph-name="afii10035" unicode="&#x421;" horiz-adv-x="750" 
d="M60 350q0 75 28 140.5t76.5 114.5t113 77t137.5 28q72 0 125 -23.5t89 -51.5q41 -33 71 -75l-35 -30q-26 36 -62 65q-31 24 -78 44.5t-110 20.5q-64 0 -119.5 -24t-97 -65.5t-65 -98t-23.5 -122.5t23.5 -122.5t65 -98t97 -65.5t119.5 -24t111.5 20t79.5 45q37 28 64 65
l35 -30q-31 -42 -74 -75q-37 -29 -90.5 -52t-125.5 -23q-73 0 -137.5 28t-113 77t-76.5 114.5t-28 140.5z" />
    <glyph glyph-name="afii10036" unicode="&#x422;" horiz-adv-x="550" 
d="M530 700v-50h-230v-650h-50v650h-230v50h510z" />
    <glyph glyph-name="afii10037" unicode="&#x423;" horiz-adv-x="605" 
d="M530 700h55l-265 -555q-19 -39 -38.5 -68.5t-42 -48.5t-49 -28.5t-60.5 -9.5q-22 0 -39 5q-9 2 -16 5v50q7 -3 16 -5q17 -5 39 -5q49 0 79 26t56 79l30 60l-265 495h55l235 -440z" />
    <glyph glyph-name="afii10038" unicode="&#x424;" horiz-adv-x="840" 
d="M105 360q0 -47 19.5 -89t56.5 -73.5t91 -51t123 -21.5v470q-69 -2 -123 -21.5t-91 -51t-56.5 -73.5t-19.5 -89zM445 -20h-50v95q-79 2 -142 25.5t-107 62.5t-67.5 90t-23.5 107t23.5 107t67.5 90t107 62.5t142 25.5v75h50v-75q79 -2 142 -25.5t107 -62.5t67.5 -90
t23.5 -107t-23.5 -107t-67.5 -90t-107 -62.5t-142 -25.5v-95zM735 360q0 47 -19.5 89t-56.5 73.5t-91 51t-123 21.5v-470q69 2 123 21.5t91 51t56.5 73.5t19.5 89z" />
    <glyph glyph-name="afii10039" unicode="&#x425;" horiz-adv-x="630" 
d="M345 365l260 -365h-60l-230 325l-230 -325h-60l260 365l-240 335h60l210 -295l210 295h60z" />
    <glyph glyph-name="afii10040" unicode="&#x426;" horiz-adv-x="750" 
d="M110 700h50v-650h415v650h50v-650h90v-200h-50v150h-555v700z" />
    <glyph glyph-name="afii10041" unicode="&#x427;" horiz-adv-x="700" 
d="M150 490q0 -91 49.5 -140.5t140.5 -49.5q45 0 82 12.5t63 27.5q31 18 55 40v320h50v-700h-50v320q-24 -20 -55 -35q-26 -14 -63 -24.5t-82 -10.5q-54 0 -98.5 17t-76 48.5t-48.5 76t-17 98.5v210h50v-210z" />
    <glyph glyph-name="afii10042" unicode="&#x428;" horiz-adv-x="1010" 
d="M110 700h50v-650h320v650h50v-650h320v650h50v-700h-790v700z" />
    <glyph glyph-name="afii10043" unicode="&#x429;" horiz-adv-x="1025" 
d="M110 0v700h50v-650h320v650h50v-650h320v650h50v-650h90v-200h-50v150h-830z" />
    <glyph glyph-name="afii10044" unicode="&#x42a;" horiz-adv-x="700" 
d="M175 0v650h-175v50h225v-270h190q49 0 90 -16.5t71 -46t47 -68.5t17 -84t-17 -84t-47 -68.5t-71 -46t-90 -16.5h-240zM415 50q39 0 71.5 12.5t55.5 34.5t35.5 52t12.5 66t-12.5 66t-35.5 52t-55.5 34.5t-71.5 12.5h-190v-330h190z" />
    <glyph glyph-name="afii10045" unicode="&#x42b;" horiz-adv-x="865" 
d="M705 0v700h50v-700h-50zM110 0v700h50v-270h190q49 0 90 -16.5t71 -46t47 -68.5t17 -84t-17 -84t-47 -68.5t-71 -46t-90 -16.5h-240zM350 50q39 0 71.5 12.5t55.5 34.5t35.5 52t12.5 66t-12.5 66t-35.5 52t-55.5 34.5t-71.5 12.5h-190v-330h190z" />
    <glyph glyph-name="afii10046" unicode="&#x42c;" horiz-adv-x="645" 
d="M110 0v700h50v-270h200q49 0 90 -16.5t71 -46t47 -68.5t17 -84t-17 -84t-47 -68.5t-71 -46t-90 -16.5h-250zM360 50q39 0 71.5 12.5t55.5 34.5t35.5 52t12.5 66t-12.5 66t-35.5 52t-55.5 34.5t-71.5 12.5h-200v-330h200z" />
    <glyph glyph-name="afii10047" unicode="&#x42d;" horiz-adv-x="745" 
d="M685 350q0 -75 -28 -140.5t-76.5 -114.5t-113 -77t-137.5 -28q-72 0 -125.5 23t-90.5 52q-43 33 -74 75l35 30q26 -37 64 -65q32 -25 79.5 -45t111.5 -20q62 0 116 23t94.5 62t65.5 92t29 113h-385v50h385q-6 58 -31 109t-65.5 89t-93.5 60t-115 22q-64 0 -110.5 -20.5
t-77.5 -44.5q-36 -29 -62 -65l-35 30q29 42 71 75q35 28 88.5 51.5t125.5 23.5q73 0 137.5 -28t113 -77t76.5 -114.5t28 -140.5z" />
    <glyph glyph-name="afii10048" unicode="&#x42e;" horiz-adv-x="1040" 
d="M160 380h150q4 67 32 127t73.5 105t104.5 71.5t125 26.5q67 0 128 -27.5t107 -75.5t73 -114t27 -143t-27 -143t-73 -114t-107 -75.5t-128 -27.5q-66 0 -125 26.5t-104.5 72.5t-73.5 108t-32 133h-150v-330h-50v700h50v-320zM360 350q0 -68 22.5 -124.5t61.5 -98t91 -64.5
t110 -23t110 23t91 64.5t61.5 98t22.5 124.5q0 67 -22.5 124t-61.5 98.5t-91 64.5t-110 23t-110 -23t-91 -64.5t-61.5 -98.5t-22.5 -124z" />
    <glyph glyph-name="afii10049" unicode="&#x42f;" horiz-adv-x="660" 
d="M550 700v-700h-50v290h-225l-165 -290h-55l170 300q-44 11 -78 36q-15 10 -28.5 24.5t-24.5 34t-17.5 44.5t-6.5 56q0 43 16 80.5t44.5 65t68 43.5t86.5 16h265zM285 650q-38 0 -68 -11.5t-52 -32t-33.5 -49t-11.5 -62.5t11.5 -62.5t33.5 -49t52 -32t68 -11.5h215v310
h-215z" />
    <glyph glyph-name="afii10065" unicode="&#x430;" horiz-adv-x="500" 
d="M370 300q0 31 -10.5 57.5t-28.5 46t-42.5 30.5t-53.5 11q-33 0 -59 -11t-44 -24q-21 -16 -37 -35l-30 30q18 24 44 42q22 16 53.5 29.5t72.5 13.5q39 0 72 -14.5t57 -40t37.5 -60.5t13.5 -75v-300h-45v80q-17 -26 -43 -45q-22 -17 -54.5 -31t-77.5 -14q-36 0 -65.5 11
t-50.5 30t-32.5 43.5t-11.5 50.5q0 57 38.5 95.5t106.5 49.5zM195 35q37 0 69.5 13.5t55.5 36.5t36.5 55t13.5 70v45l-180 -30q-57 -9 -83.5 -35.5t-26.5 -64.5q0 -17 8 -33t23 -29t36.5 -20.5t47.5 -7.5z" />
    <glyph glyph-name="afii10066" unicode="&#x431;" horiz-adv-x="570" 
d="M515 230q0 -51 -18.5 -94.5t-49 -76t-71.5 -51t-86 -18.5q-47 0 -89.5 20.5t-75 59.5t-51.5 97t-19 133q0 92 18.5 158.5t51.5 111.5t77.5 70.5t97.5 34.5q43 8 73 17.5t50 17.5q23 10 37 20l25 -35q-15 -12 -41 -23q-22 -10 -56 -21.5t-83 -20.5q-39 -8 -74.5 -28.5
t-63 -55t-44 -83.5t-18.5 -113q19 34 46 60q23 23 57 41.5t82 18.5q45 0 86 -18.5t71.5 -51t49 -76t18.5 -94.5zM110 230q0 -41 15 -77t39.5 -62t57 -41t68.5 -15t68.5 15t57 41t39.5 62t15 77t-15 76.5t-39.5 62t-57 41.5t-68.5 15t-68.5 -15t-57 -41.5t-39.5 -62
t-15 -76.5z" />
    <glyph glyph-name="afii10067" unicode="&#x432;" horiz-adv-x="510" 
d="M295 480q32 0 58 -9.5t44 -26.5t28 -40t10 -49t-9.5 -45t-20.5 -31q-13 -14 -30 -24q22 -8 40 -23q15 -14 27.5 -36.5t12.5 -60.5q0 -59 -39 -97t-111 -38h-220v480h210zM130 230v-185h175q53 0 79 24t26 66q0 45 -26 70t-79 25h-175zM390 355q0 38 -23 59t-72 21h-165
v-160h165q49 0 72 21t23 59z" />
    <glyph glyph-name="afii10068" unicode="&#x433;" horiz-adv-x="410" 
d="M390 435h-260v-435h-45v480h305v-45z" />
    <glyph glyph-name="afii10069" unicode="&#x434;" horiz-adv-x="545" 
d="M510 -120h-45v120h-425v-120h-45v165h40q24 29 42 71q16 36 29.5 91t13.5 133v140h315v-435h75v-165zM165 340q0 -74 -12.5 -129t-27.5 -92q-18 -43 -40 -74h305v390h-225v-95z" />
    <glyph glyph-name="afii10070" unicode="&#x435;" horiz-adv-x="550" 
d="M90 220q2 -38 18 -71.5t41.5 -58.5t59 -40t71.5 -15q39 0 69 13t50 29q24 18 41 42l30 -29q-20 -28 -48 -50q-24 -19 -59.5 -34.5t-82.5 -15.5t-89.5 19.5t-75 53t-51.5 79t-19 98.5q0 52 19 98t51 79.5t73.5 53t86.5 19.5t85 -18t70 -51t47.5 -79t17.5 -102v-20h-405z
M275 445q-36 0 -68.5 -15t-58 -39.5t-41 -57t-17.5 -68.5h360q-2 39 -16 72t-37.5 57t-54.5 37.5t-67 13.5z" />
    <glyph glyph-name="afii10072" unicode="&#x436;" horiz-adv-x="715" 
d="M375 0h-45v160l-80 90h-5l-180 -250h-55l205 285l-180 195h60l235 -255v255h45v-255l235 255h60l-180 -195l205 -285h-55l-180 250h-5l-80 -90v-160z" />
    <glyph glyph-name="afii10073" unicode="&#x437;" horiz-adv-x="430" 
d="M355 360q0 -34 -13.5 -55.5t-29.5 -33.5q-18 -14 -42 -21q29 -8 52 -23q20 -14 36.5 -36.5t16.5 -60.5q0 -28 -12 -53.5t-34.5 -44.5t-55 -30.5t-73.5 -11.5q-44 0 -75.5 13t-52.5 29q-25 18 -42 43l30 30q15 -20 36 -35q18 -14 44 -24.5t60 -10.5q64 0 97 28.5t33 66.5
t-33 66.5t-97 28.5h-50v45h50q53 0 81.5 26t28.5 64q0 34 -28.5 59.5t-81.5 25.5q-30 0 -53.5 -9.5t-39.5 -20.5q-18 -13 -32 -30l-35 35q17 19 42 35q20 13 50 24t68 11q36 0 64.5 -10.5t48.5 -28.5t31 -41.5t11 -49.5z" />
    <glyph glyph-name="afii10074" unicode="&#x438;" horiz-adv-x="585" 
d="M490 480v-480h-45v400l-320 -400h-40v480h45v-400l320 400h40z" />
    <glyph glyph-name="afii10075" unicode="&#x439;" horiz-adv-x="585" 
d="M290 605q42 0 66 24t24 66h40q0 -57 -36.5 -93.5t-93.5 -36.5t-93.5 36.5t-36.5 93.5h40q0 -42 24 -66t66 -24zM490 480v-480h-45v400l-320 -400h-40v480h45v-400l320 400h40z" />
    <glyph glyph-name="afii10076" unicode="&#x43a;" horiz-adv-x="500" 
d="M130 0h-45v480h45v-285l265 285h60l-180 -195l205 -285h-55l-180 250h-5l-110 -120v-130z" />
    <glyph glyph-name="afii10077" unicode="&#x43b;" horiz-adv-x="560" 
d="M465 480v-480h-45v435h-245v-95q0 -109 -10.5 -177t-29 -106.5t-43 -52.5t-52.5 -14q-19 0 -32 5q-7 2 -13 5v43q5 -2 12 -4q5 -2 12.5 -3t15.5 -1q19 0 36 11t30 44t21 92.5t8 157.5v140h335z" />
    <glyph glyph-name="afii10078" unicode="&#x43c;" horiz-adv-x="660" 
d="M130 390v-390h-45v480h35l205 -265l205 265h35v-480h-45v390l-195 -250z" />
    <glyph glyph-name="afii10079" unicode="&#x43d;" 
d="M440 220h-310v-220h-45v480h45v-215h310v215h45v-480h-45v220z" />
    <glyph glyph-name="afii10080" unicode="&#x43e;" 
d="M45 240q0 52 19 98t52 79.5t76.5 53t92.5 19.5t92.5 -19.5t76.5 -53t52 -79.5t19 -98q0 -53 -19 -98.5t-52 -79t-76.5 -53t-92.5 -19.5t-92.5 19.5t-76.5 53t-52 79t-19 98.5zM480 240q0 43 -15.5 80.5t-42.5 65t-62.5 43.5t-74.5 16t-74.5 -16t-62.5 -43.5t-42.5 -65
t-15.5 -80.5t15.5 -80.5t42.5 -65t62.5 -43.5t74.5 -16t74.5 16t62.5 43.5t42.5 65t15.5 80.5z" />
    <glyph glyph-name="afii10081" unicode="&#x43f;" 
d="M440 435h-310v-435h-45v480h400v-480h-45v435z" />
    <glyph glyph-name="afii10082" unicode="&#x440;" horiz-adv-x="595" 
d="M130 240q0 -43 15.5 -80.5t41.5 -65t59 -43.5t69 -16q34 0 66 16t57.5 43.5t41 65t15.5 80.5t-15.5 80.5t-41 65t-57.5 43.5t-66 16q-36 0 -69 -16t-59 -43.5t-41.5 -65t-15.5 -80.5zM130 -210h-45v690h45v-95q19 29 46 52q23 20 57 36.5t82 16.5q43 0 83.5 -19.5t72 -53
t50.5 -79.5t19 -98q0 -53 -19 -98.5t-50.5 -79t-72 -53t-83.5 -19.5q-48 0 -82 16t-57 36q-27 23 -46 53v-305z" />
    <glyph glyph-name="afii10083" unicode="&#x441;" horiz-adv-x="515" 
d="M45 240q0 52 19 98t51.5 79.5t75 53t89.5 19.5t82.5 -15.5t59.5 -34.5q28 -22 48 -50l-35 -30q-15 24 -38 42q-20 16 -49 29.5t-68 13.5q-38 0 -72 -16t-60.5 -43.5t-42 -65t-15.5 -80.5t15.5 -80.5t42 -65t60.5 -43.5t72 -16q39 0 68 13t49 29q23 18 38 43l35 -30
q-20 -28 -48 -50q-24 -19 -59.5 -34.5t-82.5 -15.5t-89.5 19.5t-75 53t-51.5 79t-19 98.5z" />
    <glyph glyph-name="afii10084" unicode="&#x442;" horiz-adv-x="435" 
d="M10 480h405v-45h-180v-435h-45v435h-180v45z" />
    <glyph glyph-name="afii10085" unicode="&#x443;" horiz-adv-x="480" 
d="M210 0l-195 480h50l170 -420l170 420h50l-230 -570q-26 -64 -56.5 -92t-83.5 -28q-19 0 -32 5q-7 2 -13 5v45q6 -3 13 -5q13 -5 32 -5q34 0 54.5 18.5t35.5 56.5z" />
    <glyph glyph-name="afii10086" unicode="&#x444;" horiz-adv-x="695" 
d="M90 240q0 -43 16 -80.5t46 -65t72.5 -43.5t95.5 -16v410q-53 0 -95.5 -16t-72.5 -43.5t-46 -65t-16 -80.5zM595 240q0 43 -16.5 80.5t-46.5 65t-72.5 43.5t-94.5 16v-410q52 0 94.5 16t72.5 43.5t46.5 65t16.5 80.5zM365 -210h-45v200q-62 0 -112.5 19.5t-86.5 53t-56 79
t-20 98.5q0 52 20 98t56 79.5t86.5 53t112.5 19.5v210h45v-210q62 0 112.5 -19.5t86.5 -53t56 -79.5t20 -98q0 -53 -20 -98.5t-56 -79t-86.5 -53t-112.5 -19.5v-200z" />
    <glyph glyph-name="afii10087" unicode="&#x445;" horiz-adv-x="460" 
d="M255 250l180 -250h-55l-155 215l-155 -215h-55l180 250l-165 230h55l140 -195l140 195h55z" />
    <glyph glyph-name="afii10088" unicode="&#x446;" horiz-adv-x="590" 
d="M85 480h45v-435h300v435h45v-435h80v-165h-45v120h-425v480z" />
    <glyph glyph-name="afii10089" unicode="&#x447;" horiz-adv-x="545" 
d="M405 205q-18 -11 -41 -20q-20 -8 -47.5 -14t-61.5 -6q-83 0 -131.5 48t-48.5 127v140h45v-140q0 -60 35.5 -95t99.5 -35q34 0 61.5 7t47.5 15q23 10 41 23v225h45v-480h-45v205z" />
    <glyph glyph-name="afii10090" unicode="&#x448;" horiz-adv-x="785" 
d="M85 480h45v-435h235v435h45v-435h235v435h45v-480h-605v480z" />
    <glyph glyph-name="afii10091" unicode="&#x449;" horiz-adv-x="805" 
d="M85 480h45v-435h235v435h45v-435h235v435h45v-435h80v-165h-45v120h-640v480z" />
    <glyph glyph-name="afii10092" unicode="&#x44a;" horiz-adv-x="525" 
d="M475 155q0 -34 -12 -62.5t-34 -49t-53.5 -32t-70.5 -11.5h-175v435h-135v45h180v-170h130q39 0 70.5 -11.5t53.5 -32t34 -49t12 -62.5zM305 45q60 0 92.5 30.5t32.5 79.5t-32.5 79.5t-92.5 30.5h-130v-220h130z" />
    <glyph glyph-name="afii10093" unicode="&#x44b;" horiz-adv-x="680" 
d="M585 0h-45v480h45v-480zM260 45q60 0 92.5 30.5t32.5 79.5t-32.5 79.5t-92.5 30.5h-130v-220h130zM430 155q0 -34 -12 -62.5t-34 -49t-53.5 -32t-70.5 -11.5h-175v480h45v-170h130q39 0 70.5 -11.5t53.5 -32t34 -49t12 -62.5z" />
    <glyph glyph-name="afii10094" unicode="&#x44c;" horiz-adv-x="490" 
d="M270 45q60 0 92.5 30.5t32.5 79.5t-32.5 79.5t-92.5 30.5h-140v-220h140zM440 155q0 -34 -12 -62.5t-34 -49t-53.5 -32t-70.5 -11.5h-185v480h45v-170h140q39 0 70.5 -11.5t53.5 -32t34 -49t12 -62.5z" />
    <glyph glyph-name="afii10095" unicode="&#x44d;" horiz-adv-x="515" 
d="M460 240q0 -53 -19 -98.5t-51.5 -79t-75 -53t-89.5 -19.5q-48 0 -83 15.5t-59 34.5q-28 22 -48 50l35 30q15 -25 38 -43q20 -16 48.5 -29t68.5 -13q36 0 69 15t59.5 40.5t43 60.5t18.5 74h-255v45h255q-6 36 -23 67.5t-42 55.5t-57 38t-68 14q-40 0 -68.5 -13.5
t-48.5 -29.5q-23 -18 -38 -42l-35 30q20 28 48 50q24 19 59 34.5t83 15.5q47 0 89.5 -19.5t75 -53t51.5 -79.5t19 -98z" />
    <glyph glyph-name="afii10096" unicode="&#x44e;" horiz-adv-x="765" 
d="M705 240q0 -54 -18.5 -100t-50 -79.5t-73 -52t-88.5 -18.5q-45 0 -85 17.5t-71 48.5t-50.5 73t-23.5 91h-115v-220h-45v480h45v-215h115q4 47 23.5 88t50.5 71.5t71 48t85 17.5q47 0 88.5 -18.5t73 -52t50 -79.5t18.5 -100zM290 240q0 -45 15 -82.5t40 -65t58.5 -42.5
t71.5 -15q37 0 71 15t59 42.5t40 65t15 82.5t-15 82.5t-40 65t-59 42.5t-71 15q-38 0 -71.5 -15.5t-58.5 -42.5t-40 -64.5t-15 -82.5z" />
    <glyph glyph-name="afii10097" unicode="&#x44f;" horiz-adv-x="510" 
d="M50 330q0 32 12 59.5t34 47.5t53.5 31.5t70.5 11.5h195v-480h-45v175h-170l-100 -175h-55l115 185q-31 9 -55 27q-21 16 -38 44.5t-17 73.5zM220 435q-60 0 -92.5 -30t-32.5 -75q0 -49 32.5 -79.5t92.5 -30.5h150v215h-150z" />
    <glyph glyph-name="afii10071" unicode="&#x451;" horiz-adv-x="550" 
d="M90 220q2 -38 18 -71.5t41.5 -58.5t59 -40t71.5 -15q39 0 69 13t50 29q24 18 41 42l30 -29q-20 -28 -48 -50q-24 -19 -59.5 -34.5t-82.5 -15.5t-89.5 19.5t-75 53t-51.5 79t-19 98.5q0 52 19 98t51 79.5t73.5 53t86.5 19.5t85 -18t70 -51t47.5 -79t17.5 -102v-20h-405z
M275 445q-36 0 -68.5 -15t-58 -39.5t-41 -57t-17.5 -68.5h360q-2 39 -16 72t-37.5 57t-54.5 37.5t-67 13.5zM150 629q0 15 10 25t25 10t25 -10t10 -25t-10 -25t-25 -10t-25 10t-10 25zM325 629q0 15 10 25t25 10t25 -10t10 -25t-10 -25t-25 -10t-25 10t-10 25z" />
    <glyph glyph-name="afii10099" unicode="&#x452;" horiz-adv-x="575" 
d="M145 600h150v-45h-150v-200q14 26 37 47q20 18 51.5 33t76.5 15t82.5 -15.5t65 -44.5t42.5 -71t15 -94q0 -53 -16.5 -96t-45 -74t-67 -48t-81.5 -17v45q34 0 64 13.5t52.5 38.5t35.5 60t13 78q0 87 -44 133.5t-116 46.5q-34 0 -64 -13.5t-52.5 -38.5t-35.5 -60t-13 -78
v-215h-45v555h-90v45h90v100h45v-100z" />
    <glyph glyph-name="afii10100" unicode="&#x453;" horiz-adv-x="410" 
d="M290 695h55l-90 -130h-40zM390 435h-260v-435h-45v480h305v-45z" />
    <glyph glyph-name="afii10101" unicode="&#x454;" horiz-adv-x="515" 
d="M45 240q0 52 19 98t51.5 79.5t75 53t89.5 19.5t82.5 -15.5t59.5 -34.5q28 -22 48 -50l-35 -30q-15 24 -38 42q-20 16 -49 29.5t-68 13.5q-36 0 -68 -14t-57 -38t-42 -55.5t-23 -67.5h255v-45h-255q2 -39 18.5 -74t42.5 -60.5t59.5 -40.5t69.5 -15q39 0 68 13t49 29
q23 18 38 43l35 -30q-20 -28 -48 -50q-24 -19 -59.5 -34.5t-82.5 -15.5t-89.5 19.5t-75 53t-51.5 79t-19 98.5z" />
    <glyph glyph-name="afii10102" unicode="&#x455;" horiz-adv-x="430" 
d="M325 385q-12 17 -29 30q-14 11 -36 20.5t-50 9.5q-53 0 -81.5 -26t-28.5 -59q0 -29 20.5 -45.5t51 -27.5t66 -20.5t66 -25t51 -40.5t20.5 -66q0 -30 -12 -56.5t-34 -46t-53.5 -31t-70.5 -11.5q-42 0 -73 12.5t-53 27.5q-26 18 -44 40l35 35q16 -20 36 -35
q17 -14 42 -24.5t57 -10.5q60 0 92.5 29t32.5 71q0 30 -20.5 47t-51 29t-66 21.5t-66 24.5t-51 39t-20.5 64q0 24 11.5 47.5t32 42t49 29.5t62.5 11q35 0 63 -11t48 -24q23 -16 39 -35z" />
    <glyph glyph-name="afii10103" unicode="&#x456;" horiz-adv-x="225" 
d="M85 480h45v-480h-45v480zM75 650q0 15 10 25t25 10t25 -10t10 -25t-10 -25t-25 -10t-25 10t-10 25z" />
    <glyph glyph-name="afii10104" unicode="&#x457;" horiz-adv-x="245" 
d="M-4 631q0 15 10 25t25 10t25 -10t10 -25t-10 -25t-25 -10t-25 10t-10 25zM171 631q0 15 10 25t25 10t25 -10t10 -25t-10 -25t-25 -10t-25 10t-10 25zM94 480h45v-480h-45v480z" />
    <glyph glyph-name="afii10105" unicode="&#x458;" horiz-adv-x="225" 
d="M85 480h45v-560q0 -60 -33.5 -95t-86.5 -35q-14 0 -24.5 2t-18.5 5q-10 4 -17 8v45q7 -4 17 -8q8 -3 18.5 -5t24.5 -2q34 0 54.5 21.5t20.5 63.5v560zM75 650q0 15 10 25t25 10t25 -10t10 -25t-10 -25t-25 -10t-25 10t-10 25z" />
    <glyph glyph-name="afii10106" unicode="&#x459;" horiz-adv-x="795" 
d="M745 145q0 -64 -43.5 -104.5t-126.5 -40.5h-175v435h-225v-95q0 -109 -10.5 -177t-29 -106.5t-43 -52.5t-52.5 -14q-19 0 -32 5q-7 2 -13 5v43q5 -2 12 -4q5 -2 12.5 -3t15.5 -1q19 0 36 11t30 44t21 92.5t8 157.5v140h315v-190h130q83 0 126.5 -40.5t43.5 -104.5z
M575 45q64 0 94.5 27.5t30.5 72.5t-30.5 72.5t-94.5 27.5h-130v-200h130z" />
    <glyph glyph-name="afii10107" unicode="&#x45a;" horiz-adv-x="805" 
d="M755 145q0 -64 -43.5 -104.5t-126.5 -40.5h-175v245h-280v-245h-45v480h45v-190h280v190h45v-190h130q83 0 126.5 -40.5t43.5 -104.5zM585 45q64 0 94.5 27.5t30.5 72.5t-30.5 72.5t-94.5 27.5h-130v-200h130z" />
    <glyph glyph-name="afii10108" unicode="&#x45b;" horiz-adv-x="595" 
d="M145 600h150v-45h-150v-200q14 26 37 47q20 18 51.5 33t76.5 15q41 0 76.5 -15t62 -42.5t41.5 -65t15 -82.5v-245h-45v245q0 36 -11.5 65.5t-31.5 50.5t-47.5 32.5t-59.5 11.5q-34 0 -64 -13.5t-52.5 -36.5t-35.5 -55.5t-13 -69.5v-230h-45v555h-90v45h90v100h45v-100z
" />
    <glyph glyph-name="afii10109" unicode="&#x45c;" horiz-adv-x="500" 
d="M310 695h55l-90 -130h-40zM130 0h-45v480h45v-285l265 285h60l-180 -195l205 -285h-55l-180 250h-5l-110 -120v-130z" />
    <glyph glyph-name="afii10110" unicode="&#x45e;" horiz-adv-x="480" 
d="M210 0l-195 480h50l170 -420l170 420h50l-230 -570q-26 -64 -56.5 -92t-83.5 -28q-19 0 -32 5q-7 2 -13 5v45q6 -3 13 -5q13 -5 32 -5q34 0 54.5 18.5t35.5 56.5zM235 605q42 0 66 24t24 66h40q0 -57 -36.5 -93.5t-93.5 -36.5t-93.5 36.5t-36.5 93.5h40q0 -42 24 -66
t66 -24z" />
    <glyph glyph-name="afii10193" unicode="&#x45f;" horiz-adv-x="575" 
d="M85 480h45v-435h305v435h45v-480h-175v-120h-45v120h-175v480z" />
    <glyph glyph-name="afii10050" unicode="&#x490;" horiz-adv-x="550" 
d="M485 840h50v-190h-375v-650h-50v700h375v140z" />
    <glyph glyph-name="afii10098" unicode="&#x491;" horiz-adv-x="410" 
d="M85 480h260v120h45v-165h-260v-435h-45v480z" />
    <glyph glyph-name="uni1E9E" unicode="&#x1e9e;" horiz-adv-x="650" 
d="M365 415q41 0 80.5 -14.5t70.5 -41.5t50 -66t19 -88q0 -43 -16 -80.5t-45.5 -65t-71 -43.5t-92.5 -16h-45v50h45q83 0 129 43.5t46 111.5q0 33 -12 62t-34.5 50.5t-54 34.5t-69.5 13h-50v50l180 235h-185q-72 0 -111 -40.5t-39 -119.5v-490h-50v490q0 47 15 85.5t42 66.5
t63.5 43t79.5 15h235v-50z" />
    <glyph glyph-name="endash" unicode="&#x2013;" horiz-adv-x="465" 
d="M425 270h-385v45h385v-45z" />
    <glyph glyph-name="emdash" unicode="&#x2014;" horiz-adv-x="705" 
d="M665 270h-625v45h625v-45z" />
    <glyph glyph-name="quoteleft" unicode="&#x2018;" horiz-adv-x="195" 
d="M30 555l105 165l30 -15l-85 -180z" />
    <glyph glyph-name="quoteright" unicode="&#x2019;" horiz-adv-x="195" 
d="M165 690l-105 -165l-30 15l85 180z" />
    <glyph glyph-name="quotesinglbase" unicode="&#x201a;" horiz-adv-x="195" 
d="M135 40l-105 -165l-30 15l85 180z" />
    <glyph glyph-name="quotedblleft" unicode="&#x201c;" horiz-adv-x="335" 
d="M30 555l105 165l30 -15l-85 -180zM170 555l105 165l30 -15l-85 -180z" />
    <glyph glyph-name="quotedblright" unicode="&#x201d;" horiz-adv-x="335" 
d="M305 690l-105 -165l-30 15l85 180zM165 690l-105 -165l-30 15l85 180z" />
    <glyph glyph-name="quotedblbase" unicode="&#x201e;" horiz-adv-x="335" 
d="M135 40l-105 -165l-30 15l85 180zM275 40l-105 -165l-30 15l85 180z" />
    <glyph glyph-name="dagger" unicode="&#x2020;" horiz-adv-x="415" 
d="M185 700h45v-140h125v-45h-125v-315h-45v315h-125v45h125v140z" />
    <glyph glyph-name="daggerdbl" unicode="&#x2021;" horiz-adv-x="415" 
d="M185 700h45v-140h125v-45h-125v-130h125v-45h-125v-140h-45v140h-125v45h125v130h-125v45h125v140z" />
    <glyph glyph-name="bullet" unicode="&#x2022;" horiz-adv-x="380" 
d="M110 240q0 34 23 57t57 23t57 -23t23 -57q0 -35 -23 -57.5t-57 -22.5t-57 23t-23 57z" />
    <glyph glyph-name="ellipsis" unicode="&#x2026;" horiz-adv-x="620" 
d="M275 30q0 15 10 25t25 10t25 -10t10 -25t-10 -25t-25 -10t-25 10t-10 25zM485 30q0 15 10 25t25 10t25 -10t10 -25t-10 -25t-25 -10t-25 10t-10 25zM65 30q0 15 10 25t25 10t25 -10t10 -25t-10 -25t-25 -10t-25 10t-10 25z" />
    <glyph glyph-name="perthousand" unicode="&#x2030;" horiz-adv-x="1110" 
d="M575 700h50l-440 -700h-50zM90 555q0 -49 30 -79.5t75 -30.5t75 30.5t30 79.5t-30 79.5t-75 30.5t-75 -30.5t-30 -79.5zM345 555q0 -34 -11.5 -62.5t-31.5 -49t-47.5 -32t-59.5 -11.5t-59.5 11.5t-47.5 32t-31.5 49t-11.5 62.5t11.5 62.5t31.5 49t47.5 32t59.5 11.5
t59.5 -11.5t47.5 -32t31.5 -49t11.5 -62.5zM460 145q0 -49 30 -79.5t75 -30.5t75 30.5t30 79.5t-30 79.5t-75 30.5t-75 -30.5t-30 -79.5zM715 145q0 -34 -11.5 -62.5t-31.5 -49t-47.5 -32t-59.5 -11.5t-59.5 11.5t-47.5 32t-31.5 49t-11.5 62.5t11.5 62.5t31.5 49t47.5 32
t59.5 11.5t59.5 -11.5t47.5 -32t31.5 -49t11.5 -62.5zM810 145q0 -49 30 -79.5t75 -30.5t75 30.5t30 79.5t-30 79.5t-75 30.5t-75 -30.5t-30 -79.5zM1065 145q0 -34 -11.5 -62.5t-31.5 -49t-47.5 -32t-59.5 -11.5t-59.5 11.5t-47.5 32t-31.5 49t-11.5 62.5t11.5 62.5
t31.5 49t47.5 32t59.5 11.5t59.5 -11.5t47.5 -32t31.5 -49t11.5 -62.5z" />
    <glyph glyph-name="guilsinglleft" unicode="&#x2039;" horiz-adv-x="270" 
d="M105 240l115 -160h-55l-115 160l115 160h55z" />
    <glyph glyph-name="guilsinglright" unicode="&#x203a;" horiz-adv-x="270" 
d="M50 400h55l115 -160l-115 -160h-55l115 160z" />
    <glyph glyph-name="fraction" unicode="&#x2044;" horiz-adv-x="240" 
d="M315 700h45l-435 -700h-45z" />
    <glyph glyph-name="zerosuperior" unicode="&#x2070;" horiz-adv-x="350" 
d="M75 625q0 -34 8.5 -60t22.5 -44t32 -27t37 -9t37 9t32 27t22.5 44t8.5 60t-8.5 60t-22.5 44t-32 27t-37 9t-37 -9t-32 -27t-22.5 -44t-8.5 -60zM315 625q0 -43 -11.5 -76.5t-30.5 -56.5t-44.5 -35t-53.5 -12t-53.5 12t-44.5 35t-30.5 56.5t-11.5 76.5t11.5 76.5
t30.5 56.5t44.5 35t53.5 12t53.5 -12t44.5 -35t30.5 -56.5t11.5 -76.5z" />
    <glyph glyph-name="foursuperior" unicode="&#x2074;" horiz-adv-x="300" 
d="M275 575v-40h-45v-85h-40v85h-170v40l160 225h50v-225h45zM190 750l-125 -175h125v175z" />
    <glyph glyph-name="fivesuperior" unicode="&#x2075;" horiz-adv-x="280" 
d="M140 670q53 0 86.5 -33t33.5 -82q0 -23 -9 -43t-25.5 -35t-39.5 -23.5t-51 -8.5q-32 0 -55 8t-39 19q-18 12 -31 28l30 30q9 -13 23 -23q12 -8 29.5 -15t42.5 -7q42 0 63.5 20t21.5 50q0 34 -21 54.5t-59 20.5q-19 0 -32.5 -4t-21.5 -9q-10 -5 -16 -12h-35l15 195h190
v-40h-155l-10 -110q7 6 17 10q8 4 20.5 7t27.5 3z" />
    <glyph glyph-name="sixsuperior" unicode="&#x2076;" horiz-adv-x="290" 
d="M145 685q26 0 49 -9.5t40 -26t26.5 -38.5t9.5 -46t-9.5 -46t-26.5 -38.5t-40 -26t-49 -9.5t-49 9.5t-40 26t-26.5 38.5t-9.5 46q0 17 4.5 32t10.5 27q6 14 15 26l100 150h45l-80 -120q4 1 9 2l10 2t11 1zM230 565q0 34 -23.5 57t-61.5 23t-61.5 -23t-23.5 -57t23.5 -57
t61.5 -23t61.5 23t23.5 57z" />
    <glyph glyph-name="sevensuperior" unicode="&#x2077;" horiz-adv-x="265" 
d="M245 800v-40l-135 -310h-40l135 310h-185v40h225z" />
    <glyph glyph-name="eightsuperior" unicode="&#x2078;" horiz-adv-x="270" 
d="M135 485q34 0 54.5 19.5t20.5 45.5t-20.5 45.5t-54.5 19.5t-54.5 -19.5t-20.5 -45.5t20.5 -45.5t54.5 -19.5zM135 655q30 0 47.5 16t17.5 39t-17.5 39t-47.5 16t-47.5 -16t-17.5 -39t17.5 -39t47.5 -16zM135 445q-24 0 -45 8.5t-36.5 23t-24.5 33.5t-9 40q0 24 9.5 40.5
t20.5 26.5q13 11 30 18q-14 6 -25 17q-10 9 -17.5 23.5t-7.5 34.5q0 19 8 36t22 30t33 21t42 8q22 0 41.5 -8t33.5 -21t22 -30t8 -36q0 -21 -8 -35t-17 -23q-11 -11 -25 -17q17 -7 30 -18q11 -10 20.5 -26.5t9.5 -40.5q0 -21 -9 -40t-24.5 -33.5t-36.5 -23t-45 -8.5z" />
    <glyph glyph-name="ninesuperior" unicode="&#x2079;" horiz-adv-x="290" 
d="M145 565q-26 0 -49 9.5t-40 26t-26.5 38.5t-9.5 46t9.5 46t26.5 38.5t40 26t49 9.5t49 -9.5t40 -26t26.5 -38.5t9.5 -46q0 -17 -5 -32t-10 -27q-7 -14 -15 -26l-100 -150h-45l80 120q-4 -2 -9 -3t-10.5 -1.5t-10.5 -0.5zM60 685q0 -34 23.5 -57t61.5 -23t61.5 23t23.5 57
t-23.5 57t-61.5 23t-61.5 -23t-23.5 -57z" />
    <glyph glyph-name="zeroinferior" unicode="&#x2080;" horiz-adv-x="350" 
d="M75 75q0 -34 8.5 -60t22.5 -44t32 -27t37 -9t37 9t32 27t22.5 44t8.5 60t-8.5 60t-22.5 44t-32 27t-37 9t-37 -9t-32 -27t-22.5 -44t-8.5 -60zM315 75q0 -43 -11.5 -76.5t-30.5 -56.5t-44.5 -35t-53.5 -12t-53.5 12t-44.5 35t-30.5 56.5t-11.5 76.5t11.5 76.5t30.5 56.5
t44.5 35t53.5 12t53.5 -12t44.5 -35t30.5 -56.5t11.5 -76.5z" />
    <glyph glyph-name="oneinferior" unicode="&#x2081;" horiz-adv-x="200" 
d="M140 250v-350h-40v290q-6 -9 -16 -15q-8 -6 -21.5 -10.5t-32.5 -4.5v35q19 0 32.5 8t23.5 19q11 12 19 28h35z" />
    <glyph glyph-name="twoinferior" unicode="&#x2082;" horiz-adv-x="285" 
d="M25 -100q0 37 14 64.5t35 48.5t46 37t46 32t35 33t14 39q0 23 -20 42t-50 19q-23 0 -38.5 -9.5t-24.5 -20.5q-11 -13 -17 -30l-35 15q8 24 24 42q13 16 35 29.5t56 13.5q26 0 46.5 -8.5t34.5 -23t21.5 -32.5t7.5 -37q0 -28 -11.5 -49t-29.5 -37t-40.5 -30t-43 -28
t-37.5 -31t-25 -39h187v-40h-230z" />
    <glyph glyph-name="threeinferior" unicode="&#x2083;" horiz-adv-x="295" 
d="M205 85q17 -3 30 -14q11 -9 20.5 -26t9.5 -45q0 -21 -9 -40.5t-25 -33.5t-38 -22.5t-48 -8.5q-30 0 -53.5 9.5t-39.5 20.5q-18 13 -32 30l30 30q11 -14 25 -25q12 -10 29.5 -17.5t40.5 -7.5q38 0 59 18t21 47q0 28 -20 46.5t-58 18.5h-47v40h45q65 0 65 55q0 23 -18 39
t-52 16q-20 0 -35 -7.5t-25 -15.5q-11 -10 -20 -22l-30 30q11 15 28 27q14 11 34.5 19.5t47.5 8.5q24 0 44.5 -8t35 -21t22.5 -30t8 -36q0 -23 -7.5 -37.5t-15.5 -22.5q-10 -10 -22 -15z" />
    <glyph glyph-name="fourinferior" unicode="&#x2084;" horiz-adv-x="300" 
d="M275 25v-40h-45v-85h-40v85h-170v40l160 225h50v-225h45zM190 200l-125 -175h125v175z" />
    <glyph glyph-name="fiveinferior" unicode="&#x2085;" horiz-adv-x="280" 
d="M140 120q53 0 86.5 -33t33.5 -82q0 -23 -9 -43t-25.5 -35t-39.5 -23.5t-51 -8.5q-32 0 -55 8t-39 19q-18 12 -31 28l30 30q9 -13 23 -23q12 -8 29.5 -15t42.5 -7q42 0 63.5 20t21.5 50q0 34 -21 54.5t-59 20.5q-19 0 -32.5 -4t-21.5 -9q-10 -5 -16 -12h-35l15 195h190
v-40h-155l-10 -110q7 6 17 10q8 4 20.5 7t27.5 3z" />
    <glyph glyph-name="sixinferior" unicode="&#x2086;" horiz-adv-x="290" 
d="M145 135q26 0 49 -9.5t40 -26t26.5 -38.5t9.5 -46t-9.5 -46t-26.5 -38.5t-40 -26t-49 -9.5t-49 9.5t-40 26t-26.5 38.5t-9.5 46q0 17 4.5 32t10.5 27q6 14 15 26l100 150h45l-80 -120q4 1 9 2l10 2t11 1zM230 15q0 34 -23.5 57t-61.5 23t-61.5 -23t-23.5 -57t23.5 -57
t61.5 -23t61.5 23t23.5 57z" />
    <glyph glyph-name="seveninferior" unicode="&#x2087;" horiz-adv-x="265" 
d="M245 250v-40l-135 -310h-40l135 310h-185v40h225z" />
    <glyph glyph-name="eightinferior" unicode="&#x2088;" horiz-adv-x="270" 
d="M135 -65q34 0 54.5 19.5t20.5 45.5t-20.5 45.5t-54.5 19.5t-54.5 -19.5t-20.5 -45.5t20.5 -45.5t54.5 -19.5zM135 105q30 0 47.5 16t17.5 39t-17.5 39t-47.5 16t-47.5 -16t-17.5 -39t17.5 -39t47.5 -16zM135 -105q-24 0 -45 8.5t-36.5 23t-24.5 33.5t-9 40q0 24 9.5 40.5
t20.5 26.5q13 11 30 18q-14 6 -25 17q-10 9 -17.5 23.5t-7.5 34.5q0 19 8 36t22 30t33 21t42 8q22 0 41.5 -8t33.5 -21t22 -30t8 -36q0 -21 -8 -35t-17 -23q-11 -11 -25 -17q17 -7 30 -18q11 -10 20.5 -26.5t9.5 -40.5q0 -21 -9 -40t-24.5 -33.5t-36.5 -23t-45 -8.5z" />
    <glyph glyph-name="nineinferior" unicode="&#x2089;" horiz-adv-x="290" 
d="M145 15q-26 0 -49 9.5t-40 26t-26.5 38.5t-9.5 46t9.5 46t26.5 38.5t40 26t49 9.5t49 -9.5t40 -26t26.5 -38.5t9.5 -46q0 -17 -5 -32t-10 -27q-7 -14 -15 -26l-100 -150h-45l80 120q-4 -2 -9 -3t-10.5 -1.5t-10.5 -0.5zM60 135q0 -34 23.5 -57t61.5 -23t61.5 23t23.5 57
t-23.5 57t-61.5 23t-61.5 -23t-23.5 -57z" />
    <glyph glyph-name="Euro" unicode="&#x20ac;" horiz-adv-x="740" 
d="M445 455v-45h-260q-2 -9 -3 -19q-1 -8 -1.5 -19t-0.5 -22t0.5 -22t1.5 -19q1 -10 3 -19h260v-45h-250q6 -34 29 -70t58 -66t79.5 -49.5t93.5 -19.5q47 0 84.5 14.5t64.5 32.5q32 21 56 48l35 -35q-28 -31 -64 -55q-31 -21 -75 -38t-101 -17q-58 0 -110.5 22.5t-94 58.5
t-70.5 81.5t-40 92.5h-100v45h95q-2 9 -3 19q-1 8 -1.5 19t-0.5 22t0.5 22t1.5 19q1 10 3 19h-95v45h100q11 47 40 92.5t70.5 81.5t94 58.5t110.5 22.5q57 0 101 -17.5t75 -37.5q36 -25 64 -55l-35 -35q-24 26 -56 47q-27 18 -64.5 33t-84.5 15q-49 0 -93.5 -19.5
t-79.5 -49.5t-58 -66t-29 -70h250z" />
    <glyph glyph-name="uni20B4" unicode="&#x20b4;" horiz-adv-x="630" 
d="M70 455h370q8 7 15 18q5 9 10 22t5 30q0 28 -11 52.5t-32.5 43t-53.5 29t-73 10.5q-42 0 -73 -11t-51 -24q-25 -16 -41 -35l-35 35q21 24 51 42q26 16 63 29.5t86 13.5q51 0 91.5 -15t69 -40t44 -59t15.5 -71q0 -17 -2.5 -30t-5.5 -22q-4 -11 -7 -18h55v-50h-490v50z
M560 245h-370q-9 -7 -15 -18q-6 -9 -10.5 -22t-4.5 -30q0 -28 11 -52.5t32.5 -43t53.5 -29t73 -10.5q42 0 72.5 10.5t51.5 24.5q24 15 41 35l35 -35q-21 -25 -51 -43q-26 -16 -63 -29t-86 -13q-51 0 -91.5 15t-69 40t-44 58.5t-15.5 71.5q0 17 2 30t5 22q4 11 8 18h-55v50
h490v-50z" />
    <glyph glyph-name="uni20BD" unicode="&#x20bd;" horiz-adv-x="660" 
d="M50 340h85v360h250q47 0 86.5 -16t68 -43.5t44.5 -65t16 -80.5t-16 -80.5t-44.5 -65t-68 -43.5t-86.5 -16h-200v-100h259v-50h-259v-140h-50v140h-85v50h85v100h-85v50zM185 650v-310h200q37 0 67.5 11.5t52.5 32t33.5 49t11.5 62.5t-11.5 62.5t-33.5 49t-52.5 32
t-67.5 11.5h-200z" />
    <glyph glyph-name="afii61352" unicode="&#x2116;" horiz-adv-x="1110" 
d="M770 45h280v-45h-280v45zM655 700v-700h-40l-455 605v-605h-50v700h40l455 -605v605h50zM805 325q0 -49 30 -79.5t75 -30.5t75 30.5t30 79.5t-30 79.5t-75 30.5t-75 -30.5t-30 -79.5zM1060 325q0 -34 -11.5 -62.5t-31.5 -49t-47.5 -32t-59.5 -11.5t-59.5 11.5t-47.5 32
t-31.5 49t-11.5 62.5t11.5 62.5t31.5 49t47.5 32t59.5 11.5t59.5 -11.5t47.5 -32t31.5 -49t11.5 -62.5z" />
    <glyph glyph-name="trademark" unicode="&#x2122;" horiz-adv-x="670" 
d="M350 620v-220h-45v300h40l110 -150l110 150h40v-300h-45v220l-105 -145zM15 700h235v-40h-95v-260h-45v260h-95v40z" />
    <glyph glyph-name="minus" unicode="&#x2212;" horiz-adv-x="505" 
d="M460 270h-415v45h415v-45z" />
    <glyph glyph-name="approxequal" unicode="&#x2248;" horiz-adv-x="540" 
d="M175 395q-25 0 -42.5 -10.5t-29.5 -22.5q-14 -14 -23 -32l-35 25q14 22 33 40q17 15 41 27.5t56 12.5q37 0 60.5 -11t42 -24t38 -24t49.5 -11q24 0 42 10t30 22q14 14 23 33l35 -25q-14 -22 -33 -40q-17 -15 -41 -27.5t-56 -12.5q-38 0 -61 11t-41.5 24t-38 24t-49.5 11z
M175 225q-25 0 -42.5 -10.5t-29.5 -22.5q-14 -14 -23 -32l-35 25q14 22 33 40q17 15 41 27.5t56 12.5q37 0 60.5 -11t42 -24t38 -24t49.5 -11q24 0 42 10t30 22q14 14 23 33l35 -25q-14 -22 -33 -40q-17 -15 -41 -27.5t-56 -12.5q-38 0 -61 11t-41.5 24t-38 24t-49.5 11z
" />
    <glyph glyph-name="notequal" unicode="&#x2260;" horiz-adv-x="495" 
d="M50 405h225l60 115h50l-60 -115h120v-45h-140l-65 -130h205v-45h-230l-55 -115h-50l55 115h-115v45h140l65 130h-205v45z" />
    <glyph glyph-name="lessequal" unicode="&#x2264;" horiz-adv-x="490" 
d="M50 365l390 185v-50l-330 -150l330 -150v-50l-390 185v30zM50 70h390v-45h-390v45z" />
    <glyph glyph-name="greaterequal" unicode="&#x2265;" horiz-adv-x="490" 
d="M440 335l-390 -185v50l330 150l-330 150v50l390 -185v-30zM440 25h-390v45h390v-45z" />
    <glyph glyph-name="commaaccent" unicode="&#xf6c3;" horiz-adv-x="155" 
d="M75 -80h50l-60 -135h-35z" />
    <glyph glyph-name="cyrBreve" unicode="&#xf6d1;" horiz-adv-x="320" 
d="M160 795q-57 0 -93.5 36.5t-36.5 93.5h45q0 -38 23.5 -61.5t61.5 -23.5t61.5 23.5t23.5 61.5h45q0 -57 -36.5 -93.5t-93.5 -36.5z" />
    <glyph glyph-name="cyrbreve" unicode="&#xf6d4;" horiz-adv-x="320" 
d="M160 605q42 0 66 24t24 66h40q0 -57 -36.5 -93.5t-93.5 -36.5t-93.5 36.5t-36.5 93.5h40q0 -42 24 -66t66 -24z" />
    <glyph glyph-name="lslash.alt" horiz-adv-x="355" 
d="M145 333l-130 -78l-20 35l150 90v320h45v-293l130 78l20 -35l-150 -90v-240q0 -42 21 -63.5t59 -21.5q22 0 41 7q10 4 19 8v-45q-9 -4 -19 -8q-19 -7 -41 -7q-57 0 -91 35t-34 95v213z" />
    <glyph glyph-name="Germandbls" horiz-adv-x="650" 
d="M365 415q41 0 80.5 -14.5t70.5 -41.5t50 -66t19 -88q0 -43 -16 -80.5t-45.5 -65t-71 -43.5t-92.5 -16h-45v50h45q83 0 129 43.5t46 111.5q0 33 -12 62t-34.5 50.5t-54 34.5t-69.5 13h-50v50l180 235h-185q-72 0 -111 -40.5t-39 -119.5v-490h-50v490q0 47 15 85.5t42 66.5
t63.5 43t79.5 15h235v-50z" />
    <glyph glyph-name="afii10110.alt" horiz-adv-x="480" 
d="M235 605q42 0 66 24t24 66h40q0 -57 -36.5 -93.5t-93.5 -36.5t-93.5 36.5t-36.5 93.5h40q0 -42 24 -66t66 -24zM210 0l-195 480h50l170 -415l170 415h50l-280 -690h-50z" />
    <glyph glyph-name="agrave.alt" horiz-adv-x="510" 
d="M370 300q0 31 -10.5 57.5t-28.5 46t-42.5 30.5t-53.5 11q-33 0 -59 -11t-44 -24q-21 -16 -37 -35l-30 30q18 24 44 42q22 16 53.5 29.5t72.5 13.5q39 0 72 -14.5t57 -40t37.5 -60.5t13.5 -75v-210q0 -23 13.5 -36.5t36.5 -13.5q14 0 22 3q4 1 8 3v-46q-4 -2 -8 -3
t-9 -1.5t-13 -0.5q-42 0 -68.5 25.5t-26.5 59.5q-17 -26 -43 -45q-22 -17 -54.5 -31t-77.5 -14q-36 0 -65.5 11t-50.5 30t-32.5 43.5t-11.5 50.5q0 57 38.5 95.5t106.5 49.5zM195 35q37 0 69.5 13.5t55.5 36.5t36.5 55t13.5 70v45l-180 -30q-57 -9 -83.5 -35.5t-26.5 -64.5
q0 -17 8 -33t23 -29t36.5 -20.5t47.5 -7.5zM275 565h-40l-90 130h55z" />
    <glyph glyph-name="aacute.alt" horiz-adv-x="510" 
d="M370 300q0 31 -10.5 57.5t-28.5 46t-42.5 30.5t-53.5 11q-33 0 -59 -11t-44 -24q-21 -16 -37 -35l-30 30q18 24 44 42q22 16 53.5 29.5t72.5 13.5q39 0 72 -14.5t57 -40t37.5 -60.5t13.5 -75v-210q0 -23 13.5 -36.5t36.5 -13.5q14 0 22 3q4 1 8 3v-46q-4 -2 -8 -3
t-9 -1.5t-13 -0.5q-42 0 -68.5 25.5t-26.5 59.5q-17 -26 -43 -45q-22 -17 -54.5 -31t-77.5 -14q-36 0 -65.5 11t-50.5 30t-32.5 43.5t-11.5 50.5q0 57 38.5 95.5t106.5 49.5zM195 35q37 0 69.5 13.5t55.5 36.5t36.5 55t13.5 70v45l-180 -30q-57 -9 -83.5 -35.5t-26.5 -64.5
q0 -17 8 -33t23 -29t36.5 -20.5t47.5 -7.5zM305 695h55l-90 -130h-40z" />
    <glyph glyph-name="abreve.alt" horiz-adv-x="510" 
d="M370 300q0 31 -10.5 57.5t-28.5 46t-42.5 30.5t-53.5 11q-33 0 -59 -11t-44 -24q-21 -16 -37 -35l-30 30q18 24 44 42q22 16 53.5 29.5t72.5 13.5q39 0 72 -14.5t57 -40t37.5 -60.5t13.5 -75v-210q0 -23 13.5 -36.5t36.5 -13.5q14 0 22 3q4 1 8 3v-46q-4 -2 -8 -3
t-9 -1.5t-13 -0.5q-42 0 -68.5 25.5t-26.5 59.5q-17 -26 -43 -45q-22 -17 -54.5 -31t-77.5 -14q-36 0 -65.5 11t-50.5 30t-32.5 43.5t-11.5 50.5q0 57 38.5 95.5t106.5 49.5zM195 35q37 0 69.5 13.5t55.5 36.5t36.5 55t13.5 70v45l-180 -30q-57 -9 -83.5 -35.5t-26.5 -64.5
q0 -17 8 -33t23 -29t36.5 -20.5t47.5 -7.5zM250 605q42 0 66 24t24 66h40q0 -57 -36.5 -93.5t-93.5 -36.5t-93.5 36.5t-36.5 93.5h40q0 -42 24 -66t66 -24z" />
    <glyph glyph-name="acircumflex.alt" horiz-adv-x="510" 
d="M370 300q0 31 -10.5 57.5t-28.5 46t-42.5 30.5t-53.5 11q-33 0 -59 -11t-44 -24q-21 -16 -37 -35l-30 30q18 24 44 42q22 16 53.5 29.5t72.5 13.5q39 0 72 -14.5t57 -40t37.5 -60.5t13.5 -75v-210q0 -23 13.5 -36.5t36.5 -13.5q14 0 22 3q4 1 8 3v-46q-4 -2 -8 -3
t-9 -1.5t-13 -0.5q-42 0 -68.5 25.5t-26.5 59.5q-17 -26 -43 -45q-22 -17 -54.5 -31t-77.5 -14q-36 0 -65.5 11t-50.5 30t-32.5 43.5t-11.5 50.5q0 57 38.5 95.5t106.5 49.5zM195 35q37 0 69.5 13.5t55.5 36.5t36.5 55t13.5 70v45l-180 -30q-57 -9 -83.5 -35.5t-26.5 -64.5
q0 -17 8 -33t23 -29t36.5 -20.5t47.5 -7.5zM385 565h-45l-85 100l-85 -100h-45l105 130h50z" />
    <glyph glyph-name="adieresis.alt" horiz-adv-x="510" 
d="M370 300q0 31 -10.5 57.5t-28.5 46t-42.5 30.5t-53.5 11q-33 0 -59 -11t-44 -24q-21 -16 -37 -35l-30 30q18 24 44 42q22 16 53.5 29.5t72.5 13.5q39 0 72 -14.5t57 -40t37.5 -60.5t13.5 -75v-210q0 -23 13.5 -36.5t36.5 -13.5q14 0 22 3q4 1 8 3v-46q-4 -2 -8 -3
t-9 -1.5t-13 -0.5q-42 0 -68.5 25.5t-26.5 59.5q-17 -26 -43 -45q-22 -17 -54.5 -31t-77.5 -14q-36 0 -65.5 11t-50.5 30t-32.5 43.5t-11.5 50.5q0 57 38.5 95.5t106.5 49.5zM195 35q37 0 69.5 13.5t55.5 36.5t36.5 55t13.5 70v45l-180 -30q-57 -9 -83.5 -35.5t-26.5 -64.5
q0 -17 8 -33t23 -29t36.5 -20.5t47.5 -7.5zM130 635q0 15 10 25t25 10t25 -10t10 -25t-10 -25t-25 -10t-25 10t-10 25zM305 635q0 15 10 25t25 10t25 -10t10 -25t-10 -25t-25 -10t-25 10t-10 25z" />
    <glyph glyph-name="amacron.alt" horiz-adv-x="510" 
d="M370 300q0 31 -10.5 57.5t-28.5 46t-42.5 30.5t-53.5 11q-33 0 -59 -11t-44 -24q-21 -16 -37 -35l-30 30q18 24 44 42q22 16 53.5 29.5t72.5 13.5q39 0 72 -14.5t57 -40t37.5 -60.5t13.5 -75v-210q0 -23 13.5 -36.5t36.5 -13.5q14 0 22 3q4 1 8 3v-46q-4 -2 -8 -3
t-9 -1.5t-13 -0.5q-42 0 -68.5 25.5t-26.5 59.5q-17 -26 -43 -45q-22 -17 -54.5 -31t-77.5 -14q-36 0 -65.5 11t-50.5 30t-32.5 43.5t-11.5 50.5q0 57 38.5 95.5t106.5 49.5zM195 35q37 0 69.5 13.5t55.5 36.5t36.5 55t13.5 70v45l-180 -30q-57 -9 -83.5 -35.5t-26.5 -64.5
q0 -17 8 -33t23 -29t36.5 -20.5t47.5 -7.5zM390 621h-270v40h270v-40z" />
    <glyph glyph-name="aogonek.alt" horiz-adv-x="510" 
d="M495 0q-3 -1 -7 -2q-3 -1 -8 -2t-11 -1q-5 -5 -15 -16.5t-20 -26.5t-17 -32t-7 -35q0 -23 14.5 -36.5t40.5 -13.5q22 0 41 7q10 4 19 8v-35q-9 -4 -19 -8q-19 -7 -41 -7q-42 0 -66 23.5t-24 61.5q0 22 8.5 41.5t19 34.5t21 25t14.5 13q-31 8 -49.5 30t-18.5 51
q-17 -26 -43 -45q-22 -17 -54.5 -31t-77.5 -14q-36 0 -65.5 11t-50.5 30t-32.5 43.5t-11.5 50.5q0 57 38.5 95.5t106.5 49.5l190 30q0 31 -10.5 57.5t-28.5 46t-42.5 30.5t-53.5 11q-33 0 -59 -11t-44 -24q-21 -16 -37 -35l-30 30q18 24 44 42q22 16 53.5 29.5t72.5 13.5
q39 0 72 -14.5t57 -40t37.5 -60.5t13.5 -75v-210q0 -23 13.5 -36.5t36.5 -13.5q14 0 22 3q4 1 8 3v-46zM195 35q37 0 69.5 13.5t55.5 36.5t36.5 55t13.5 70v45l-180 -30q-57 -9 -83.5 -35.5t-26.5 -64.5q0 -17 8 -33t23 -29t36.5 -20.5t47.5 -7.5z" />
    <glyph glyph-name="aring.alt" horiz-adv-x="510" 
d="M200 640q0 -55 55 -55t55 55t-55 55t-55 -55zM350 640q0 -42 -26.5 -68.5t-68.5 -26.5t-68.5 26.5t-26.5 68.5t26.5 68.5t68.5 26.5t68.5 -26.5t26.5 -68.5zM370 300q0 31 -10.5 57.5t-28.5 46t-42.5 30.5t-53.5 11q-33 0 -59 -11t-44 -24q-21 -16 -37 -35l-30 30
q18 24 44 42q22 16 53.5 29.5t72.5 13.5q39 0 72 -14.5t57 -40t37.5 -60.5t13.5 -75v-210q0 -23 13.5 -36.5t36.5 -13.5q14 0 22 3q4 1 8 3v-46q-4 -2 -8 -3t-9 -1.5t-13 -0.5q-42 0 -68.5 25.5t-26.5 59.5q-17 -26 -43 -45q-22 -17 -54.5 -31t-77.5 -14q-36 0 -65.5 11
t-50.5 30t-32.5 43.5t-11.5 50.5q0 57 38.5 95.5t106.5 49.5zM195 35q37 0 69.5 13.5t55.5 36.5t36.5 55t13.5 70v45l-180 -30q-57 -9 -83.5 -35.5t-26.5 -64.5q0 -17 8 -33t23 -29t36.5 -20.5t47.5 -7.5z" />
    <glyph glyph-name="atilde.alt" horiz-adv-x="510" 
d="M370 300q0 31 -10.5 57.5t-28.5 46t-42.5 30.5t-53.5 11q-33 0 -59 -11t-44 -24q-21 -16 -37 -35l-30 30q18 24 44 42q22 16 53.5 29.5t72.5 13.5q39 0 72 -14.5t57 -40t37.5 -60.5t13.5 -75v-210q0 -23 13.5 -36.5t36.5 -13.5q14 0 22 3q4 1 8 3v-46q-4 -2 -8 -3
t-9 -1.5t-13 -0.5q-42 0 -68.5 25.5t-26.5 59.5q-17 -26 -43 -45q-22 -17 -54.5 -31t-77.5 -14q-36 0 -65.5 11t-50.5 30t-32.5 43.5t-11.5 50.5q0 57 38.5 95.5t106.5 49.5zM195 35q37 0 69.5 13.5t55.5 36.5t36.5 55t13.5 70v45l-180 -30q-57 -9 -83.5 -35.5t-26.5 -64.5
q0 -17 8 -33t23 -29t36.5 -20.5t47.5 -7.5zM195 641q-15 0 -27.5 -16.5t-12.5 -58.5h-40q0 60 23 87.5t57 27.5q24 0 40.5 -11.5t29.5 -26t25.5 -26t29.5 -11.5q15 0 27.5 16.5t12.5 58.5h40q0 -60 -23 -87.5t-57 -27.5q-24 0 -40.5 11.5t-29.5 26t-25.5 26t-29.5 11.5z" />
    <glyph glyph-name="lacute.alt" horiz-adv-x="285" 
d="M160 925h55l-90 -130h-40zM85 700h45v-580q0 -42 21 -63.5t59 -21.5q22 0 41 7q10 4 19 8v-45q-9 -4 -19 -8q-19 -7 -41 -7q-57 0 -91 35t-34 95v580z" />
    <glyph glyph-name="lcaron.alt" horiz-adv-x="285" 
d="M85 700h45v-580q0 -42 21 -63.5t59 -21.5q22 0 41 7q10 4 19 8v-45q-9 -4 -19 -8q-19 -7 -41 -7q-57 0 -91 35t-34 95v580zM250 700h50l-60 -135h-35z" />
    <glyph glyph-name="lcommaaccent.alt" horiz-adv-x="285" 
d="M85 700h45v-580q0 -42 21 -63.5t59 -21.5q22 0 41 7q10 4 19 8v-45q-9 -4 -19 -8q-19 -7 -41 -7q-57 0 -91 35t-34 95v580zM155 -80h50l-60 -135h-35z" />
    <glyph glyph-name="Igrave.alt" horiz-adv-x="370" 
d="M45 700h280v-50h-115v-600h115v-50h-280v50h115v600h-115v50zM210 795h-40l-90 130h55z" />
    <glyph glyph-name="Iacute.alt" horiz-adv-x="370" 
d="M45 700h280v-50h-115v-600h115v-50h-280v50h115v600h-115v50zM235 925h55l-90 -130h-40z" />
    <glyph glyph-name="Icircumflex.alt" horiz-adv-x="370" 
d="M45 700h280v-50h-115v-600h115v-50h-280v50h115v600h-115v50zM315 795h-45l-85 100l-85 -100h-45l105 130h50z" />
    <glyph glyph-name="Idieresis.alt" horiz-adv-x="370" 
d="M45 700h280v-50h-115v-600h115v-50h-280v50h115v600h-115v50zM63 855q0 15 10 25t25 10t25 -10t10 -25t-10 -25t-25 -10t-25 10t-10 25zM238 855q0 15 10 25t25 10t25 -10t10 -25t-10 -25t-25 -10t-25 10t-10 25z" />
    <glyph glyph-name="Idotaccent.alt" horiz-adv-x="370" 
d="M45 700h280v-50h-115v-600h115v-50h-280v50h115v600h-115v50zM150 860q0 15 10 25t25 10t25 -10t10 -25t-10 -25t-25 -10t-25 10t-10 25z" />
    <glyph glyph-name="Imacron.alt" horiz-adv-x="370" 
d="M45 700h280v-50h-115v-600h115v-50h-280v50h115v600h-115v50zM320 840h-270v40h270v-40z" />
    <glyph glyph-name="Iogonek.alt" horiz-adv-x="370" 
d="M45 0v50h115v600h-115v50h280v-50h-115v-600h115v-50q-19 -18 -33 -37q-12 -17 -22 -37.5t-10 -40.5q0 -23 14.5 -36.5t40.5 -13.5q22 0 41 7q10 4 19 8v-35q-9 -4 -19 -8q-19 -7 -41 -7q-42 0 -66 23.5t-24 61.5q0 24 10 45t22 37q14 18 33 33h-245z" />
    <glyph glyph-name="yacute.alt" horiz-adv-x="585" 
d="M340 695h55l-90 -130h-40zM445 115q-15 -27 -38 -48q-20 -18 -51 -32.5t-76 -14.5q-41 0 -77 15t-62 42.5t-41 65t-15 82.5v255h45v-255q0 -36 11.5 -65.5t31.5 -50.5t47.5 -32.5t59.5 -11.5q34 0 64 13.5t52.5 36.5t35.5 55t13 70v240h45v-465q0 -48 -16.5 -89.5
t-45 -71.5t-67 -47t-81.5 -17q-49 0 -85 15.5t-59 34.5q-27 22 -46 50l30 30q17 -25 41 -43q20 -16 49.5 -29t69.5 -13q34 0 64 13.5t52.5 37.5t35.5 57t13 72v100z" />
    <glyph glyph-name="ydieresis.alt" horiz-adv-x="585" 
d="M445 115q-15 -27 -38 -48q-20 -18 -51 -32.5t-76 -14.5q-41 0 -77 15t-62 42.5t-41 65t-15 82.5v255h45v-255q0 -36 11.5 -65.5t31.5 -50.5t47.5 -32.5t59.5 -11.5q34 0 64 13.5t52.5 36.5t35.5 55t13 70v240h45v-465q0 -48 -16.5 -89.5t-45 -71.5t-67 -47t-81.5 -17
q-49 0 -85 15.5t-59 34.5q-27 22 -46 50l30 30q17 -25 41 -43q20 -16 49.5 -29t69.5 -13q34 0 64 13.5t52.5 37.5t35.5 57t13 72v100zM165 626q0 15 10 25t25 10t25 -10t10 -25t-10 -25t-25 -10t-25 10t-10 25zM340 626q0 15 10 25t25 10t25 -10t10 -25t-10 -25t-25 -10
t-25 10t-10 25z" />
    <glyph glyph-name="ugrave.alt" 
d="M320 565h-40l-90 130h55zM435 80q-13 -26 -34 -45q-18 -17 -48 -31t-73 -14q-41 0 -77 15t-62 42.5t-41 65t-15 82.5v285h45v-285q0 -36 11.5 -65.5t31.5 -50.5t47.5 -32.5t59.5 -11.5q34 0 62.5 13.5t49 36.5t32 55t11.5 70v270h45v-390q0 -23 13.5 -36.5t36.5 -13.5
q14 0 22 3q4 1 8 3v-46q-4 -2 -8 -3t-9 -1.5t-13 -0.5q-42 0 -68.5 25.5t-26.5 59.5z" />
    <glyph glyph-name="uacute.alt" 
d="M340 695h55l-90 -130h-40zM435 80q-13 -26 -34 -45q-18 -17 -48 -31t-73 -14q-41 0 -77 15t-62 42.5t-41 65t-15 82.5v285h45v-285q0 -36 11.5 -65.5t31.5 -50.5t47.5 -32.5t59.5 -11.5q34 0 62.5 13.5t49 36.5t32 55t11.5 70v270h45v-390q0 -23 13.5 -36.5t36.5 -13.5
q14 0 22 3q4 1 8 3v-46q-4 -2 -8 -3t-9 -1.5t-13 -0.5q-42 0 -68.5 25.5t-26.5 59.5z" />
    <glyph glyph-name="ucircumflex.alt" 
d="M435 80q-13 -26 -34 -45q-18 -17 -48 -31t-73 -14q-41 0 -77 15t-62 42.5t-41 65t-15 82.5v285h45v-285q0 -36 11.5 -65.5t31.5 -50.5t47.5 -32.5t59.5 -11.5q34 0 62.5 13.5t49 36.5t32 55t11.5 70v270h45v-390q0 -23 13.5 -36.5t36.5 -13.5q14 0 22 3q4 1 8 3v-46
q-4 -2 -8 -3t-9 -1.5t-13 -0.5q-42 0 -68.5 25.5t-26.5 59.5zM420 565h-45l-85 100l-85 -100h-45l105 130h50z" />
    <glyph glyph-name="udieresis.alt" 
d="M435 80q-13 -26 -34 -45q-18 -17 -48 -31t-73 -14q-41 0 -77 15t-62 42.5t-41 65t-15 82.5v285h45v-285q0 -36 11.5 -65.5t31.5 -50.5t47.5 -32.5t59.5 -11.5q34 0 62.5 13.5t49 36.5t32 55t11.5 70v270h45v-390q0 -23 13.5 -36.5t36.5 -13.5q14 0 22 3q4 1 8 3v-46
q-4 -2 -8 -3t-9 -1.5t-13 -0.5q-42 0 -68.5 25.5t-26.5 59.5zM165 626q0 15 10 25t25 10t25 -10t10 -25t-10 -25t-25 -10t-25 10t-10 25zM340 626q0 15 10 25t25 10t25 -10t10 -25t-10 -25t-25 -10t-25 10t-10 25z" />
    <glyph glyph-name="uhungarumlaut.alt" 
d="M435 80q-13 -26 -34 -45q-18 -17 -48 -31t-73 -14q-41 0 -77 15t-62 42.5t-41 65t-15 82.5v285h45v-285q0 -36 11.5 -65.5t31.5 -50.5t47.5 -32.5t59.5 -11.5q34 0 62.5 13.5t49 36.5t32 55t11.5 70v270h45v-390q0 -23 13.5 -36.5t36.5 -13.5q14 0 22 3q4 1 8 3v-46
q-4 -2 -8 -3t-9 -1.5t-13 -0.5q-42 0 -68.5 25.5t-26.5 59.5zM265 691h55l-90 -130h-40zM410 691h55l-90 -130h-40z" />
    <glyph glyph-name="umacron.alt" 
d="M435 80q-13 -26 -34 -45q-18 -17 -48 -31t-73 -14q-41 0 -77 15t-62 42.5t-41 65t-15 82.5v285h45v-285q0 -36 11.5 -65.5t31.5 -50.5t47.5 -32.5t59.5 -11.5q34 0 62.5 13.5t49 36.5t32 55t11.5 70v270h45v-390q0 -23 13.5 -36.5t36.5 -13.5q14 0 22 3q4 1 8 3v-46
q-4 -2 -8 -3t-9 -1.5t-13 -0.5q-42 0 -68.5 25.5t-26.5 59.5zM425 611h-270v40h270v-40z" />
    <glyph glyph-name="uogonek.alt" 
d="M435 80q-13 -26 -34 -45q-18 -17 -48 -31t-73 -14q-41 0 -77 15t-62 42.5t-41 65t-15 82.5v285h45v-285q0 -36 11.5 -65.5t31.5 -50.5t47.5 -32.5t59.5 -11.5q34 0 62.5 13.5t49 36.5t32 55t11.5 70v270h45v-390q0 -23 13.5 -36.5t36.5 -13.5q14 0 22 3q4 1 8 3v-46
q-3 -1 -7 -2q-3 -1 -8 -2t-11 -1q-5 -5 -15 -16.5t-20 -26.5t-17 -32t-7 -35q0 -23 14.5 -36.5t40.5 -13.5q22 0 41 7q10 4 19 8v-35q-9 -4 -19 -8q-19 -7 -41 -7q-42 0 -66 23.5t-24 61.5q0 22 8.5 41.5t19 34.5t21 25t14.5 13q-31 8 -49.5 30t-18.5 51z" />
    <glyph glyph-name="uring.alt" 
d="M235 640q0 -55 55 -55t55 55t-55 55t-55 -55zM385 640q0 -42 -26.5 -68.5t-68.5 -26.5t-68.5 26.5t-26.5 68.5t26.5 68.5t68.5 26.5t68.5 -26.5t26.5 -68.5zM435 80q-13 -26 -34 -45q-18 -17 -48 -31t-73 -14q-41 0 -77 15t-62 42.5t-41 65t-15 82.5v285h45v-285
q0 -36 11.5 -65.5t31.5 -50.5t47.5 -32.5t59.5 -11.5q34 0 62.5 13.5t49 36.5t32 55t11.5 70v270h45v-390q0 -23 13.5 -36.5t36.5 -13.5q14 0 22 3q4 1 8 3v-46q-4 -2 -8 -3t-9 -1.5t-13 -0.5q-42 0 -68.5 25.5t-26.5 59.5z" />
    <glyph glyph-name="a.alt" horiz-adv-x="510" 
d="M370 300q0 31 -10.5 57.5t-28.5 46t-42.5 30.5t-53.5 11q-33 0 -59 -11t-44 -24q-21 -16 -37 -35l-30 30q18 24 44 42q22 16 53.5 29.5t72.5 13.5q39 0 72 -14.5t57 -40t37.5 -60.5t13.5 -75v-210q0 -23 13.5 -36.5t36.5 -13.5q14 0 22 3q4 1 8 3v-46q-4 -2 -8 -3
t-9 -1.5t-13 -0.5q-42 0 -68.5 25.5t-26.5 59.5q-17 -26 -43 -45q-22 -17 -54.5 -31t-77.5 -14q-36 0 -65.5 11t-50.5 30t-32.5 43.5t-11.5 50.5q0 57 38.5 95.5t106.5 49.5zM195 35q37 0 69.5 13.5t55.5 36.5t36.5 55t13.5 70v45l-180 -30q-57 -9 -83.5 -35.5t-26.5 -64.5
q0 -17 8 -33t23 -29t36.5 -20.5t47.5 -7.5z" />
    <glyph glyph-name="l.alt" horiz-adv-x="285" 
d="M85 700h45v-580q0 -42 21 -63.5t59 -21.5q22 0 41 7q10 4 19 8v-45q-9 -4 -19 -8q-19 -7 -41 -7q-57 0 -91 35t-34 95v580z" />
    <glyph glyph-name="afii10085.alt" horiz-adv-x="480" 
d="M210 0l-195 480h50l170 -415l170 415h50l-280 -690h-50z" />
    <glyph glyph-name="y.alt" horiz-adv-x="585" 
d="M445 115q-15 -27 -38 -48q-20 -18 -51 -32.5t-76 -14.5q-41 0 -77 15t-62 42.5t-41 65t-15 82.5v255h45v-255q0 -36 11.5 -65.5t31.5 -50.5t47.5 -32.5t59.5 -11.5q34 0 64 13.5t52.5 36.5t35.5 55t13 70v240h45v-465q0 -48 -16.5 -89.5t-45 -71.5t-67 -47t-81.5 -17
q-49 0 -85 15.5t-59 34.5q-27 22 -46 50l30 30q17 -25 41 -43q20 -16 49.5 -29t69.5 -13q34 0 64 13.5t52.5 37.5t35.5 57t13 72v100z" />
    <glyph glyph-name="I.alt" horiz-adv-x="370" 
d="M45 700h280v-50h-115v-600h115v-50h-280v50h115v600h-115v50z" />
    <glyph glyph-name="u.alt" 
d="M435 80q-13 -26 -34 -45q-18 -17 -48 -31t-73 -14q-41 0 -77 15t-62 42.5t-41 65t-15 82.5v285h45v-285q0 -36 11.5 -65.5t31.5 -50.5t47.5 -32.5t59.5 -11.5q34 0 62.5 13.5t49 36.5t32 55t11.5 70v270h45v-390q0 -23 13.5 -36.5t36.5 -13.5q14 0 22 3q4 1 8 3v-46
q-4 -2 -8 -3t-9 -1.5t-13 -0.5q-42 0 -68.5 25.5t-26.5 59.5z" />
    <glyph glyph-name="afii10065.alt" horiz-adv-x="510" 
d="M370 300q0 31 -10.5 57.5t-28.5 46t-42.5 30.5t-53.5 11q-33 0 -59 -11t-44 -24q-21 -16 -37 -35l-30 30q18 24 44 42q22 16 53.5 29.5t72.5 13.5q39 0 72 -14.5t57 -40t37.5 -60.5t13.5 -75v-210q0 -23 13.5 -36.5t36.5 -13.5q14 0 22 3q4 1 8 3v-46q-4 -2 -8 -3
t-9 -1.5t-13 -0.5q-42 0 -68.5 25.5t-26.5 59.5q-17 -26 -43 -45q-22 -17 -54.5 -31t-77.5 -14q-36 0 -65.5 11t-50.5 30t-32.5 43.5t-11.5 50.5q0 57 38.5 95.5t106.5 49.5zM195 35q37 0 69.5 13.5t55.5 36.5t36.5 55t13.5 70v45l-180 -30q-57 -9 -83.5 -35.5t-26.5 -64.5
q0 -17 8 -33t23 -29t36.5 -20.5t47.5 -7.5z" />
    <glyph glyph-name="at.case" horiz-adv-x="890" 
d="M435 485q-26 0 -49 -10t-40 -28t-26.5 -44t-9.5 -58t9.5 -58t26.5 -44t40 -28t49 -10t49 10t40 28t26.5 44t9.5 58t-9.5 58t-26.5 44t-40 28t-49 10zM435 530q34 0 57.5 -11t38.5 -24q18 -16 29 -35v65h45v-222q0 -53 21.5 -75.5t53.5 -22.5q19 0 36 9t30 28.5t21 51
t8 76.5q0 66 -25 123.5t-69 100t-104.5 67t-131.5 24.5q-68 0 -128 -26.5t-105 -72t-71 -106.5t-26 -130t26 -130t71 -106.5t105 -72t128 -26.5q47 0 84 10.5t63 24.5q30 15 53 35l25 -35q-25 -22 -58 -40q-29 -15 -71 -27.5t-96 -12.5q-75 0 -143 30.5t-119.5 82.5t-82 121
t-30.5 146t30.5 146t82 121t119.5 82.5t143 30.5q79 0 147.5 -29t119 -78t79.5 -114.5t29 -138.5q0 -54 -11.5 -94t-30.5 -65.5t-44.5 -38t-53.5 -12.5q-32 0 -53 13t-34 29q-15 18 -23 43q-12 -25 -30 -43q-16 -16 -41.5 -29t-63.5 -13q-34 0 -64.5 14t-54 39t-37.5 59
t-14 73t14 73t37.5 59t54 39t64.5 14z" />
    <glyph glyph-name="parenleft.case" horiz-adv-x="330" 
d="M125 350q0 -102 25.5 -184t56.5 -140q36 -69 83 -121l-40 -25q-48 56 -85 128q-16 31 -31.5 68t-27.5 80t-19 91.5t-7 102.5q0 53 7 101.5t19 92t27.5 80.5t31.5 68q37 72 85 128l40 -25q-47 -53 -83 -121q-31 -59 -56.5 -140.5t-25.5 -183.5z" />
    <glyph glyph-name="parenright.case" horiz-adv-x="330" 
d="M205 350q0 51 -7 97t-19 86.5t-27 76t-30 64.5q-36 68 -82 121l40 25q47 -56 85 -128q16 -31 31 -68t27 -80.5t19.5 -92t7.5 -101.5q0 -54 -7.5 -102.5t-19.5 -91.5t-27 -80t-31 -68q-38 -72 -85 -128l-40 25q46 52 82 121q31 58 57 140t26 184z" />
    <glyph glyph-name="bracketleft.case" horiz-adv-x="340" 
d="M150 -60h145v-50h-195v920h195v-50h-145v-820z" />
    <glyph glyph-name="bracketright.case" horiz-adv-x="340" 
d="M190 760h-145v50h195v-920h-195v50h145v820z" />
    <glyph glyph-name="braceleft.case" horiz-adv-x="355" 
d="M65 370q75 0 75 75v235q0 60 36 95t104 35h35v-45h-35q-95 0 -95 -85v-235q0 -30 -10.5 -48.5t-22.5 -29.5q-14 -12 -32 -17q18 -6 32 -18q12 -11 22.5 -29t10.5 -48v-235q0 -85 95 -85h35v-45h-35q-68 0 -104 35t-36 95v235q0 75 -75 75v40z" />
    <glyph glyph-name="braceright.case" horiz-adv-x="355" 
d="M290 330q-75 0 -75 -75v-235q0 -60 -36 -95t-104 -35h-35v45h35q95 0 95 85v235q0 30 10 48t22 29q14 12 33 18q-19 5 -33 17q-12 11 -22 29.5t-10 48.5v235q0 85 -95 85h-35v45h35q68 0 104 -35t36 -95v-235q0 -75 75 -75v-40z" />
    <glyph glyph-name="exclamdown.case" horiz-adv-x="300" 
d="M170 540l10 -540h-60l10 540h40zM115 670q0 15 10 25t25 10t25 -10t10 -25t-10 -25t-25 -10t-25 10t-10 25z" />
    <glyph glyph-name="questiondown.case" horiz-adv-x="515" 
d="M290 540q1 -6 2 -13q1 -6 2 -14.5t1 -17.5q0 -41 -14.5 -71t-36 -53.5t-47 -43t-47 -41.5t-36 -48.5t-14.5 -62.5q0 -28 11 -52.5t31.5 -43t50 -29t67.5 -10.5q53 0 85 18.5t50 41.5q21 26 30 60l45 -15q-14 -44 -41 -78q-23 -29 -64 -53t-105 -24q-47 0 -85.5 15
t-66.5 40t-43 58.5t-15 71.5q0 46 14.5 77t36 54.5t47 42.5t47 41.5t36 51.5t14.5 73v25h45zM305 670q0 -15 -10 -25t-25 -10t-25 10t-10 25t10 25t25 10t25 -10t10 -25z" />
    <glyph glyph-name="guillemotleft.case" horiz-adv-x="440" 
d="M50 350l115 160h55l-115 -160l115 -160h-55zM220 350l115 160h55l-115 -160l115 -160h-55z" />
    <glyph glyph-name="guillemotright.case" horiz-adv-x="440" 
d="M275 190h-55l115 160l-115 160h55l115 -160zM105 190h-55l115 160l-115 160h55l115 -160z" />
    <glyph glyph-name="guilsinglleft.case" horiz-adv-x="270" 
d="M105 350l115 -160h-55l-115 160l115 160h55z" />
    <glyph glyph-name="guilsinglright.case" horiz-adv-x="270" 
d="M50 510h55l115 -160l-115 -160h-55l115 160z" />
    <glyph glyph-name="hyphen.case" horiz-adv-x="420" 
d="M375 302h-330v45h330v-45z" />
    <glyph glyph-name="endash.case" horiz-adv-x="475" 
d="M430 323h-385v45h385v-45z" />
    <glyph glyph-name="emdash.case" horiz-adv-x="715" 
d="M670 323h-625v45h625v-45z" />
    <glyph glyph-name="periodcentered.case" horiz-adv-x="185" 
d="M60 353q0 15 10 25t25 10t25 -10t10 -25t-10 -25t-25 -10t-25 10t-10 25z" />
    <glyph glyph-name="zero.tab" horiz-adv-x="620" 
d="M90 350q0 -75 19 -133t50 -97t70.5 -59.5t80.5 -20.5t80.5 20.5t70.5 59.5t50 97t19 133t-19 133t-50 97t-70.5 59.5t-80.5 20.5t-80.5 -20.5t-70.5 -59.5t-50 -97t-19 -133zM580 350q0 -84 -23 -151t-61 -113.5t-86.5 -71t-99.5 -24.5t-99.5 24.5t-86.5 71t-61 113.5
t-23 151t23 151t61 113.5t86.5 71t99.5 24.5t99.5 -24.5t86.5 -71t61 -113.5t23 -151z" />
    <glyph glyph-name="one.tab" horiz-adv-x="620" 
d="M360 700v-700h-50v610q-13 -16 -32 -28q-17 -11 -42.5 -19t-60.5 -8v40q35 0 62.5 16t45.5 36q21 23 37 53h40z" />
    <glyph glyph-name="two.tab" horiz-adv-x="620" 
d="M90 0q0 69 29 119t72 89t94 71.5t94 66t72 72.5t29 92q0 31 -12 58t-34 47.5t-53.5 32.5t-70.5 12q-52 0 -84 -20t-50 -43q-21 -27 -31 -62l-45 20q12 43 39 77q12 15 27.5 29t36.5 25t47.5 17.5t59.5 6.5q49 0 89.5 -16t69.5 -43.5t45 -64t16 -76.5q0 -56 -25.5 -98
t-64.5 -76.5t-85.5 -64.5t-89.5 -62.5t-76 -70.5t-44 -88h385v-50h-440z" />
    <glyph glyph-name="three.tab" horiz-adv-x="620" 
d="M380 370q40 -10 72 -33q27 -20 50 -55t23 -92q0 -39 -17 -75t-47.5 -64t-72.5 -44.5t-93 -16.5q-57 0 -98 16t-68 36q-32 23 -54 53l35 35q19 -26 46 -45q23 -17 57 -31t82 -14q41 0 74.5 12t57 33t36 48t12.5 57t-12.5 57t-36 47.5t-57 33t-74.5 12.5h-65v50h65
q36 0 64.5 10.5t48.5 29.5t31 44.5t11 55.5q0 26 -11 49.5t-31 41.5t-48.5 28.5t-64.5 10.5q-41 0 -71.5 -12.5t-51.5 -27.5q-25 -18 -42 -40l-35 40q21 25 51 45q26 17 63 31t86 14q45 0 82.5 -15t65 -39.5t42.5 -57t15 -68.5q0 -49 -18.5 -80t-41.5 -49q-26 -21 -60 -31z
" />
    <glyph glyph-name="four.tab" horiz-adv-x="620" 
d="M565 210v-50h-90v-160h-50v160h-360v60l350 480h60v-490h90zM425 635l-310 -425h310v425z" />
    <glyph glyph-name="five.tab" horiz-adv-x="620" 
d="M310 445q47 0 88 -17.5t71.5 -48.5t48 -73t17.5 -91q0 -47 -17.5 -88t-49 -71.5t-74.5 -48t-94 -17.5q-55 0 -95 16t-67 36q-32 23 -53 53l35 35q19 -26 45 -45q23 -17 56.5 -31t78.5 -14q41 0 75 13.5t58.5 36.5t38 55t13.5 70q0 39 -13.5 72t-36.5 57t-55.5 37.5
t-69.5 13.5q-42 0 -71.5 -13.5t-49.5 -29.5q-23 -18 -39 -42h-40l25 390h355v-50h-310l-15 -260q17 15 39 27q19 11 45.5 19.5t60.5 8.5z" />
    <glyph glyph-name="six.tab" horiz-adv-x="620" 
d="M305 440q49 0 91 -17.5t73 -48t48.5 -71.5t17.5 -88t-17.5 -88t-48.5 -71.5t-73 -48t-91 -17.5t-91 17.5t-73 48t-48.5 71.5t-17.5 88q0 32 7.5 59.5t17.5 47.5q11 24 25 43l210 335h55l-175 -280q10 6 24 10q12 4 28.5 7t37.5 3zM485 215q0 37 -13.5 69.5t-37.5 55.5
t-57 36.5t-72 13.5t-72 -13.5t-57 -36.5t-37.5 -55.5t-13.5 -69.5q0 -38 13.5 -70t37.5 -55t57 -36.5t72 -13.5t72 13.5t57 36.5t37.5 55t13.5 70z" />
    <glyph glyph-name="seven.tab" horiz-adv-x="620" 
d="M530 700v-50l-320 -650h-50l320 650h-380v50h430z" />
    <glyph glyph-name="eight.tab" horiz-adv-x="620" 
d="M310 405q32 0 58.5 9.5t46 26.5t30 39.5t10.5 49.5q0 26 -10.5 49.5t-30 41.5t-46 28.5t-58.5 10.5t-58.5 -10.5t-46 -28.5t-30 -41.5t-10.5 -49.5q0 -27 10.5 -49.5t30 -39.5t46 -26.5t58.5 -9.5zM310 40q39 0 71.5 12.5t55.5 33.5t35.5 49t12.5 60t-13.5 61t-36.5 51
t-55.5 35t-69.5 13q-38 0 -70 -13t-55 -35t-36.5 -51t-13.5 -61t12.5 -60t35.5 -49t55.5 -33.5t71.5 -12.5zM310 -10q-49 0 -90 16.5t-71 44.5t-47 65.5t-17 78.5q0 53 20.5 88t46.5 57q30 26 68 40q-30 12 -53 32q-20 17 -36 45.5t-16 72.5q0 36 15 68.5t41 57t62 39.5
t77 15t76.5 -15t62 -39.5t41.5 -57t15 -68.5q0 -44 -16.5 -72.5t-36.5 -45.5q-23 -20 -52 -32q37 -14 67 -40q26 -22 47 -57t21 -88q0 -41 -17 -78.5t-47 -65.5t-71 -44.5t-90 -16.5z" />
    <glyph glyph-name="nine.tab" horiz-adv-x="620" 
d="M315 260q-49 0 -91 17.5t-73 48t-48.5 71.5t-17.5 88t17.5 88t48.5 71.5t73 48t91 17.5t91 -17.5t73 -48t48.5 -71.5t17.5 -88q0 -32 -8 -59.5t-17 -47.5q-11 -24 -25 -43l-210 -335h-55l175 280q-10 -6 -24 -10q-12 -4 -29 -7t-37 -3zM135 485q0 -38 13.5 -70t37.5 -55
t57 -36.5t72 -13.5t72 13.5t57 36.5t37.5 55t13.5 70q0 37 -13.5 69.5t-37.5 55.5t-57 36.5t-72 13.5t-72 -13.5t-57 -36.5t-37.5 -55.5t-13.5 -69.5z" />
    <glyph glyph-name="zero.numr" horiz-adv-x="350" 
d="M75 525q0 -34 8.5 -60t22.5 -44t32 -27t37 -9t37 9t32 27t22.5 44t8.5 60t-8.5 60t-22.5 44t-32 27t-37 9t-37 -9t-32 -27t-22.5 -44t-8.5 -60zM315 525q0 -43 -11.5 -76.5t-30.5 -56.5t-44.5 -35t-53.5 -12t-53.5 12t-44.5 35t-30.5 56.5t-11.5 76.5t11.5 76.5
t30.5 56.5t44.5 35t53.5 12t53.5 -12t44.5 -35t30.5 -56.5t11.5 -76.5z" />
    <glyph glyph-name="one.numr" horiz-adv-x="200" 
d="M140 700v-350h-40v290q-6 -9 -16 -15q-8 -6 -21.5 -10.5t-32.5 -4.5v35q19 0 32.5 8t23.5 19q11 12 19 28h35z" />
    <glyph glyph-name="two.numr" horiz-adv-x="285" 
d="M25 350q0 37 14 64.5t35 48.5t46 37t46 32t35 33t14 39q0 23 -20 42t-50 19q-23 0 -38.5 -9.5t-24.5 -20.5q-11 -13 -17 -30l-35 15q8 24 24 42q13 16 35 29.5t56 13.5q26 0 46.5 -8.5t34.5 -23t21.5 -32.5t7.5 -37q0 -28 -11.5 -49t-29.5 -37t-40.5 -30t-43 -28
t-37.5 -31t-25 -39h187v-40h-230z" />
    <glyph glyph-name="three.numr" horiz-adv-x="295" 
d="M205 535q17 -3 30 -14q11 -9 20.5 -26t9.5 -45q0 -21 -9 -40.5t-25 -33.5t-38 -22.5t-48 -8.5q-30 0 -53.5 9.5t-39.5 20.5q-18 13 -32 30l30 30q11 -14 25 -25q12 -10 29.5 -17.5t40.5 -7.5q38 0 59 18t21 47q0 28 -20 46.5t-58 18.5h-47v40h45q65 0 65 55q0 23 -18 39
t-52 16q-20 0 -35 -7.5t-25 -15.5q-11 -10 -20 -22l-30 30q11 15 28 27q14 11 34.5 19.5t47.5 8.5q24 0 44.5 -8t35 -21t22.5 -30t8 -36q0 -23 -7.5 -37.5t-15.5 -22.5q-10 -10 -22 -15z" />
    <glyph glyph-name="four.numr" horiz-adv-x="300" 
d="M275 475v-40h-45v-85h-40v85h-170v40l160 225h50v-225h45zM190 650l-125 -175h125v175z" />
    <glyph glyph-name="five.numr" horiz-adv-x="280" 
d="M140 570q53 0 86.5 -33t33.5 -82q0 -23 -9 -43t-25.5 -35t-39.5 -23.5t-51 -8.5q-32 0 -55 8t-39 19q-18 12 -31 28l30 30q9 -13 23 -23q12 -8 29.5 -15t42.5 -7q42 0 63.5 20t21.5 50q0 34 -21 54.5t-59 20.5q-19 0 -32.5 -4t-21.5 -9q-10 -5 -16 -12h-35l15 195h190
v-40h-155l-10 -110q7 6 17 10q8 4 20.5 7t27.5 3z" />
    <glyph glyph-name="six.numr" horiz-adv-x="290" 
d="M145 585q26 0 49 -9.5t40 -26t26.5 -38.5t9.5 -46t-9.5 -46t-26.5 -38.5t-40 -26t-49 -9.5t-49 9.5t-40 26t-26.5 38.5t-9.5 46q0 17 4.5 32t10.5 27q6 14 15 26l100 150h45l-80 -120q4 1 9 2l10 2t11 1zM230 465q0 34 -23.5 57t-61.5 23t-61.5 -23t-23.5 -57t23.5 -57
t61.5 -23t61.5 23t23.5 57z" />
    <glyph glyph-name="seven.numr" horiz-adv-x="265" 
d="M245 700v-40l-135 -310h-40l135 310h-185v40h225z" />
    <glyph glyph-name="eight.numr" horiz-adv-x="270" 
d="M135 385q34 0 54.5 19.5t20.5 45.5t-20.5 45.5t-54.5 19.5t-54.5 -19.5t-20.5 -45.5t20.5 -45.5t54.5 -19.5zM135 555q30 0 47.5 16t17.5 39t-17.5 39t-47.5 16t-47.5 -16t-17.5 -39t17.5 -39t47.5 -16zM135 345q-24 0 -45 8.5t-36.5 23t-24.5 33.5t-9 40q0 24 9.5 40.5
t20.5 26.5q13 11 30 18q-14 6 -25 17q-10 9 -17.5 23.5t-7.5 34.5q0 19 8 36t22 30t33 21t42 8q22 0 41.5 -8t33.5 -21t22 -30t8 -36q0 -21 -8 -35t-17 -23q-11 -11 -25 -17q17 -7 30 -18q11 -10 20.5 -26.5t9.5 -40.5q0 -21 -9 -40t-24.5 -33.5t-36.5 -23t-45 -8.5z" />
    <glyph glyph-name="nine.numr" horiz-adv-x="290" 
d="M145 465q-26 0 -49 9.5t-40 26t-26.5 38.5t-9.5 46t9.5 46t26.5 38.5t40 26t49 9.5t49 -9.5t40 -26t26.5 -38.5t9.5 -46q0 -17 -5 -32t-10 -27q-7 -14 -15 -26l-100 -150h-45l80 120q-4 -2 -9 -3t-10.5 -1.5t-10.5 -0.5zM60 585q0 -34 23.5 -57t61.5 -23t61.5 23t23.5 57
t-23.5 57t-61.5 23t-61.5 -23t-23.5 -57z" />
    <glyph glyph-name="zero.dnom" horiz-adv-x="350" 
d="M75 175q0 -34 8.5 -60t22.5 -44t32 -27t37 -9t37 9t32 27t22.5 44t8.5 60t-8.5 60t-22.5 44t-32 27t-37 9t-37 -9t-32 -27t-22.5 -44t-8.5 -60zM315 175q0 -43 -11.5 -76.5t-30.5 -56.5t-44.5 -35t-53.5 -12t-53.5 12t-44.5 35t-30.5 56.5t-11.5 76.5t11.5 76.5
t30.5 56.5t44.5 35t53.5 12t53.5 -12t44.5 -35t30.5 -56.5t11.5 -76.5z" />
    <glyph glyph-name="one.dnom" horiz-adv-x="200" 
d="M140 350v-350h-40v290q-6 -9 -16 -15q-8 -6 -21.5 -10.5t-32.5 -4.5v35q19 0 32.5 8t23.5 19q11 12 19 28h35z" />
    <glyph glyph-name="two.dnom" horiz-adv-x="285" 
d="M25 0q0 37 14 64.5t35 48.5t46 37t46 32t35 33t14 39q0 23 -20 42t-50 19q-23 0 -38.5 -9.5t-24.5 -20.5q-11 -13 -17 -30l-35 15q8 24 24 42q13 16 35 29.5t56 13.5q26 0 46.5 -8.5t34.5 -23t21.5 -32.5t7.5 -37q0 -28 -11.5 -49t-29.5 -37t-40.5 -30t-43 -28t-37.5 -31
t-25 -39h187v-40h-230z" />
    <glyph glyph-name="three.dnom" horiz-adv-x="295" 
d="M205 185q17 -3 30 -14q11 -9 20.5 -26t9.5 -45q0 -21 -9 -40.5t-25 -33.5t-38 -22.5t-48 -8.5q-30 0 -53.5 9.5t-39.5 20.5q-18 13 -32 30l30 30q11 -14 25 -25q12 -10 29.5 -17.5t40.5 -7.5q38 0 59 18t21 47q0 28 -20 46.5t-58 18.5h-47v40h45q65 0 65 55q0 23 -18 39
t-52 16q-20 0 -35 -7.5t-25 -15.5q-11 -10 -20 -22l-30 30q11 15 28 27q14 11 34.5 19.5t47.5 8.5q24 0 44.5 -8t35 -21t22.5 -30t8 -36q0 -23 -7.5 -37.5t-15.5 -22.5q-10 -10 -22 -15z" />
    <glyph glyph-name="four.dnom" horiz-adv-x="300" 
d="M275 125v-40h-45v-85h-40v85h-170v40l160 225h50v-225h45zM190 300l-125 -175h125v175z" />
    <glyph glyph-name="five.dnom" horiz-adv-x="280" 
d="M140 220q53 0 86.5 -33t33.5 -82q0 -23 -9 -43t-25.5 -35t-39.5 -23.5t-51 -8.5q-32 0 -55 8t-39 19q-18 12 -31 28l30 30q9 -13 23 -23q12 -8 29.5 -15t42.5 -7q42 0 63.5 20t21.5 50q0 34 -21 54.5t-59 20.5q-19 0 -32.5 -4t-21.5 -9q-10 -5 -16 -12h-35l15 195h190
v-40h-155l-10 -110q7 6 17 10q8 4 20.5 7t27.5 3z" />
    <glyph glyph-name="six.dnom" horiz-adv-x="290" 
d="M145 235q26 0 49 -9.5t40 -26t26.5 -38.5t9.5 -46t-9.5 -46t-26.5 -38.5t-40 -26t-49 -9.5t-49 9.5t-40 26t-26.5 38.5t-9.5 46q0 17 4.5 32t10.5 27q6 14 15 26l100 150h45l-80 -120q4 1 9 2l10 2t11 1zM230 115q0 34 -23.5 57t-61.5 23t-61.5 -23t-23.5 -57t23.5 -57
t61.5 -23t61.5 23t23.5 57z" />
    <glyph glyph-name="seven.dnom" horiz-adv-x="265" 
d="M245 350v-40l-135 -310h-40l135 310h-185v40h225z" />
    <glyph glyph-name="eight.dnom" horiz-adv-x="270" 
d="M135 35q34 0 54.5 19.5t20.5 45.5t-20.5 45.5t-54.5 19.5t-54.5 -19.5t-20.5 -45.5t20.5 -45.5t54.5 -19.5zM135 205q30 0 47.5 16t17.5 39t-17.5 39t-47.5 16t-47.5 -16t-17.5 -39t17.5 -39t47.5 -16zM135 -5q-24 0 -45 8.5t-36.5 23t-24.5 33.5t-9 40q0 24 9.5 40.5
t20.5 26.5q13 11 30 18q-14 6 -25 17q-10 9 -17.5 23.5t-7.5 34.5q0 19 8 36t22 30t33 21t42 8q22 0 41.5 -8t33.5 -21t22 -30t8 -36q0 -21 -8 -35t-17 -23q-11 -11 -25 -17q17 -7 30 -18q11 -10 20.5 -26.5t9.5 -40.5q0 -21 -9 -40t-24.5 -33.5t-36.5 -23t-45 -8.5z" />
    <glyph glyph-name="nine.dnom" horiz-adv-x="290" 
d="M145 115q-26 0 -49 9.5t-40 26t-26.5 38.5t-9.5 46t9.5 46t26.5 38.5t40 26t49 9.5t49 -9.5t40 -26t26.5 -38.5t9.5 -46q0 -17 -5 -32t-10 -27q-7 -14 -15 -26l-100 -150h-45l80 120q-4 -2 -9 -3t-10.5 -1.5t-10.5 -0.5zM60 235q0 -34 23.5 -57t61.5 -23t61.5 23t23.5 57
t-23.5 57t-61.5 23t-61.5 -23t-23.5 -57z" />
    <glyph glyph-name="foundryicon" horiz-adv-x="1538" 
d="M278 429h-72v-199h-35v199h-71v31h178v-31zM519 396q32 0 54.5 -24.5t22.5 -59.5q0 -36 -22.5 -60.5t-54.5 -24.5q-29 0 -47 21v-79h-34v224h24l9 -19q8 10 20.5 16t27.5 6zM516 258q19 0 33 15.5t14 38.5q0 21 -14 36.5t-33 15.5q-20 0 -33.5 -15.5t-13.5 -36.5
q0 -23 13.5 -38.5t33.5 -15.5zM377 393h37l-77 -190q-16 -34 -49 -34q-7 0 -10 1v28q23 0 31 20l6 16l-63 159h37l44 -116zM701 396q32 0 54 -24t22 -59q0 -2 -0.5 -4.5t-0.5 -4.5v-6h-119q2 -17 14.5 -29t29.5 -12q12 0 22 4t15 13h35q-9 -23 -29 -35t-43 -12
q-32 0 -55 24.5t-23 60.5q0 17 6 32.5t16.5 27t25 18t30.5 6.5zM745 325q-1 17 -14.5 28.5t-29.5 11.5t-29 -10.5t-15 -29.5h88zM939 429h-72v-199h-35v199h-71v31h178v-31zM1180 396q32 0 54.5 -24.5t22.5 -59.5q0 -36 -22.5 -60.5t-54.5 -24.5q-29 0 -47 21v-79h-34v224
h24l9 -19q8 10 20.5 16t27.5 6zM1177 258q19 0 33 15.5t14 38.5q0 21 -14 36.5t-33 15.5q-20 0 -33.5 -15.5t-13.5 -36.5q0 -23 13.5 -38.5t33.5 -15.5zM1038 393h37l-77 -190q-16 -34 -49 -34q-7 0 -10 1v28q23 0 31 20l6 16l-63 159h37l44 -116zM1362 396q32 0 54 -24
t22 -59q0 -2 -0.5 -4.5t-0.5 -4.5v-6h-119q2 -17 14.5 -29t29.5 -12q12 0 22 4t15 13h35q-9 -23 -29 -35t-43 -12q-32 0 -55 24.5t-23 60.5q0 17 6 32.5t16.5 27t25 18t30.5 6.5zM1406 325q-1 17 -14.5 28.5t-29.5 11.5t-29 -10.5t-15 -29.5h88z" />
    </font>
</defs>
</svg>
