<?xml version="1.0" standalone="no"?>
<!DOCTYPE svg PUBLIC "-//W3C//DTD SVG 1.1//EN" "http://www.w3.org/Graphics/SVG/1.1/DTD/svg11.dtd" >
<svg xmlns="http://www.w3.org/2000/svg" xmlns:xlink="http://www.w3.org/1999/xlink" version="1.1">
<metadata>
Created by FontForge 20170910 at Mon May 15 09:04:30 2017
 By Jimmy Wärting
Copyright (c) 2017 by TypeType. Designers Ivan Gladkikh, Pavel Emelyanov. Technical designers Olexa Volochay, Nadyr Rakhimov, Dmitriy Greshnev. All rights reserved.
</metadata>
<defs>
<font id="TTNorms-Regular" horiz-adv-x="580" >
  <font-face 
    font-family="TT Norms"
    font-weight="400"
    font-stretch="normal"
    units-per-em="1000"
    panose-1="2 0 5 3 3 0 0 2 0 3"
    ascent="800"
    descent="-200"
    x-height="480"
    cap-height="700"
    bbox="-140 -220 1438 965"
    underline-thickness="50"
    underline-position="-100"
    unicode-range="U+000D-FB06"
  />
<missing-glyph horiz-adv-x="0" 
 />
    <glyph glyph-name="i_j" unicode="ij" horiz-adv-x="490" 
d="M335 10q-10 -6 -24 -10q-12 -4 -29 -7t-37 -3q-34 0 -64 13.5t-52.5 37t-35.5 55.5t-13 70v314h70v-314q0 -50 30 -80.5t75 -30.5q17 0 31.5 3.5t25.5 8.5q12 5 23 13v400h70v-550q0 -140 -130 -140q-14 0 -24.5 2t-18.5 5q-10 4 -17 8v65q7 -4 16 -8q17 -7 39 -7
q30 0 47.5 18.5t17.5 56.5v80zM70 640q0 19 13 32t32 13t32 -13t13 -32t-13 -32t-32 -13t-32 13t-13 32zM325 640q0 19 13 32t32 13t32 -13t13 -32t-13 -32t-32 -13t-32 13t-13 32z" />
    <glyph glyph-name="c_t" unicode="ct" horiz-adv-x="865" 
d="M40 240q0 52 19 98t52 79.5t76.5 53t92.5 19.5q13 0 24 -1t19 -2q10 -1 17 -2q-4 7 -8 17q-3 8 -5 18.5t-2 24.5q0 34 15 64t40.5 52.5t60.5 35.5t74 13q37 0 69.5 -13t55.5 -36t36.5 -54t13.5 -67v-60h105v-65h-105v-285q0 -38 17.5 -56.5t47.5 -18.5q13 0 25 2t21 5
q11 4 19 8v-65q-9 -4 -20 -8q-9 -3 -21.5 -5t-26.5 -2q-62 0 -97 36t-35 104v285h-90v65h90v60q0 45 -30 75t-75 30q-57 0 -88.5 -30.5t-31.5 -79.5q0 -29 12.5 -53.5t27.5 -44.5q18 -23 40 -42l-50 -50q-16 22 -37 40q-18 15 -45.5 27.5t-62.5 12.5q-34 0 -64.5 -14
t-54 -39t-37.5 -59t-14 -73t14 -73t37.5 -59t54 -39t64.5 -14q35 0 63 12.5t48 27.5q23 18 39 40l50 -45q-23 -28 -53 -50q-26 -19 -63 -34.5t-84 -15.5q-49 0 -92.5 19.5t-76.5 53t-52 79t-19 98.5z" />
    <glyph glyph-name="s_t" unicode="st" horiz-adv-x="785" 
d="M315 375q-11 14 -26 25q-14 9 -33.5 17t-45.5 8q-41 0 -65.5 -22t-24.5 -48t19.5 -41t48 -25t62.5 -19.5t62.5 -25t48 -41.5t19.5 -68q0 -30 -12 -56.5t-34.5 -46t-55 -31t-73.5 -11.5q-45 0 -78 13t-55 29q-26 18 -42 43l50 50q14 -20 32 -35q16 -14 39.5 -24.5
t53.5 -10.5q53 0 79 23t26 57q0 27 -19.5 43t-48 26.5t-62.5 20t-62.5 24.5t-48 40t-19.5 66q0 26 11.5 50.5t32.5 43t50.5 30t65.5 11.5q13 0 22.5 -1t15.5 -2q7 -1 12 -2q-4 7 -8 17q-3 8 -5 18.5t-2 24.5q0 34 15 64t40 52.5t58.5 35.5t71.5 13q39 0 72 -13t57 -36
t37.5 -54t13.5 -67v-60h105v-65h-105v-285q0 -38 17.5 -56.5t47.5 -18.5q13 0 25 2t21 5q11 4 19 8v-65q-9 -4 -20 -8q-9 -3 -21.5 -5t-26.5 -2q-62 0 -97 36t-35 104v285h-90v65h90v60q0 45 -30.5 75t-79.5 30q-53 0 -84 -30.5t-31 -79.5q0 -26 7.5 -46.5t17.5 -34.5
q11 -17 25 -29z" />
    <glyph glyph-name="s_p" unicode="sp" horiz-adv-x="1030" 
d="M580 -210h-70v750q0 22 -7.5 41.5t-20.5 33.5t-29 22t-33 8q-45 0 -75 -30.5t-30 -79.5q0 -26 7.5 -46.5t17.5 -34.5q11 -17 25 -29l-50 -50q-11 14 -26 25q-14 9 -33.5 17t-45.5 8q-41 0 -65.5 -22t-24.5 -48t19.5 -41t48 -25t62.5 -19.5t62.5 -25t48 -41.5t19.5 -68
q0 -30 -12 -56.5t-34.5 -46t-55 -31t-73.5 -11.5q-45 0 -78 13t-55 29q-26 18 -42 43l50 50q14 -20 32 -35q16 -14 39.5 -24.5t53.5 -10.5q53 0 79 23t26 57q0 27 -19.5 43t-48 26.5t-62.5 20t-62.5 24.5t-48 40t-19.5 66q0 26 11.5 50.5t32.5 43t50.5 30t65.5 11.5
q13 0 22.5 -1t15.5 -2q7 -1 12 -2q-4 7 -8 17q-3 8 -5 18.5t-2 24.5q0 34 13.5 64t36.5 52.5t55 35.5t70 13q32 0 61 -13t51 -36t35 -54t13 -67v-135q18 24 44 42q22 16 53 29.5t73 13.5q45 0 86.5 -19.5t73.5 -53t51 -79.5t19 -98q0 -53 -19 -98.5t-51 -79t-73.5 -53
t-86.5 -19.5q-42 0 -73 13t-53 29q-26 18 -44 43v-285zM580 240q0 -38 14.5 -71.5t38.5 -58.5t54.5 -40t62.5 -15q30 0 58.5 14t51 39t36.5 59t14 73t-14 73t-36.5 59t-51 39t-58.5 14q-32 0 -62.5 -15t-54.5 -40t-38.5 -59t-14.5 -71z" />
    <glyph glyph-name="f_f" unicode="ff" horiz-adv-x="605" 
d="M570 415h-115v-415h-70v415h-215v-415h-70v415h-75v65h75v70q0 68 35 104t95 36q15 0 27.5 -2.5t22.5 -5.5q11 -4 20 -7v-65q-8 3 -19 7q-9 3 -21 5.5t-25 2.5q-30 0 -47.5 -18.5t-17.5 -56.5v-70h215v90q0 68 35 104t95 36q15 0 27.5 -2.5t22.5 -5.5q11 -4 20 -7v-65
q-8 3 -19 7q-9 3 -21 5.5t-25 2.5q-30 0 -47.5 -18.5t-17.5 -56.5v-90h115v-65z" />
    <glyph glyph-name="uniFB02" unicode="fl" horiz-adv-x="550" 
d="M390 531q0 24 -9 45t-24 36t-35 24t-42 9q-23 0 -43 -9t-35 -24t-23.5 -36t-8.5 -45v-51h115v-65h-115v-415h-70v415h-75v65h75v51q0 37 14 69.5t38.5 57t57 38.5t70.5 14q37 0 70 -14t57.5 -38.5t38.5 -57t14 -69.5v-531h-70v531z" />
    <glyph glyph-name="f_t" unicode="ft" horiz-adv-x="640" 
d="M400 640h65v-160h105v-65h-105v-285q0 -38 17.5 -56.5t47.5 -18.5q13 0 25 2t21 5q11 4 19 8v-65q-9 -4 -20 -8q-9 -3 -21.5 -5t-26.5 -2q-62 0 -97 36t-35 104v285h-225v-415h-70v415h-75v65h75v90q0 68 35 104t95 36q15 0 27.5 -2.5t22.5 -5.5q11 -4 20 -7v-65
q-8 3 -19 7q-9 3 -21 5.5t-25 2.5q-30 0 -47.5 -18.5t-17.5 -56.5v-90h190q40 0 40 50v110z" />
    <glyph glyph-name="uniFB01" unicode="fi" horiz-adv-x="540" 
d="M385 415h-215v-415h-70v415h-75v65h75v90q0 68 35 104t95 36q15 0 27.5 -2.5t22.5 -5.5q11 -4 20 -7v-65q-8 3 -19 7q-9 3 -21 5.5t-25 2.5q-30 0 -47.5 -18.5t-17.5 -56.5v-90h285v-480h-70v415zM375 640q0 19 13 32t32 13t32 -13t13 -32t-13 -32t-32 -13t-32 13t-13 32
z" />
    <glyph glyph-name="f_f_i" unicode="ffi" horiz-adv-x="825" 
d="M670 415h-215v-415h-70v415h-215v-415h-70v415h-75v65h75v70q0 68 35 104t95 36q15 0 27.5 -2.5t22.5 -5.5q11 -4 20 -7v-65q-8 3 -19 7q-9 3 -21 5.5t-25 2.5q-30 0 -47.5 -18.5t-17.5 -56.5v-70h215v90q0 68 35 104t95 36q15 0 27.5 -2.5t22.5 -5.5q11 -4 20 -7v-65
q-8 3 -19 7q-9 3 -21 5.5t-25 2.5q-30 0 -47.5 -18.5t-17.5 -56.5v-90h285v-480h-70v415zM660 640q0 19 13 32t32 13t32 -13t13 -32t-13 -32t-32 -13t-32 13t-13 32z" />
    <glyph glyph-name=".notdef" horiz-adv-x="0" 
 />
    <glyph glyph-name=".null" horiz-adv-x="0" 
 />
    <glyph glyph-name=".null" horiz-adv-x="0" 
 />
    <glyph glyph-name="nonmarkingreturn" unicode="&#xd;" horiz-adv-x="0" 
 />
    <glyph glyph-name="space" unicode=" " horiz-adv-x="190" 
 />
    <glyph glyph-name="four" unicode="4" horiz-adv-x="585" 
d="M550 220v-70h-90v-150h-75v150h-355v85l335 465h95v-480h90zM385 615l-285 -395h285v395z" />
    <glyph glyph-name="five" unicode="5" horiz-adv-x="610" 
d="M310 450q51 0 94 -17.5t74.5 -48.5t49 -73t17.5 -91q0 -51 -17 -93t-48.5 -72.5t-76 -47.5t-98.5 -17q-59 0 -101.5 16t-71.5 36q-33 23 -57 53l50 50q19 -25 45 -43q23 -16 56.5 -29t78.5 -13q37 0 67.5 11.5t52.5 32.5t33.5 50.5t11.5 65.5q0 72 -44 116t-116 44
q-40 0 -69 -12t-48 -26q-23 -17 -38 -37h-55l25 395h375v-70h-310l-15 -220q16 11 36 20q17 8 42 14t57 6z" />
    <glyph glyph-name="six" unicode="6" horiz-adv-x="590" 
d="M300 450q51 0 94 -17.5t74.5 -48.5t49 -73t17.5 -91t-18 -91t-49.5 -73t-76 -48.5t-96.5 -17.5q-53 0 -97 17.5t-75.5 48.5t-49.5 73t-18 91q0 32 7.5 59.5t17.5 47.5q11 24 25 43l210 330h75l-165 -260q9 2 20 5q10 2 24 3.5t31 1.5zM460 220q0 36 -11.5 65.5
t-33.5 50.5t-52.5 32.5t-67.5 11.5q-38 0 -68 -11.5t-52 -32.5t-33.5 -50.5t-11.5 -65.5t11.5 -65.5t33.5 -50.5t52 -32.5t68 -11.5q37 0 67.5 11.5t52.5 32.5t33.5 50.5t11.5 65.5z" />
    <glyph glyph-name="seven" unicode="7" horiz-adv-x="495" 
d="M470 700v-70l-310 -630h-75l310 630h-365v70h440z" />
    <glyph glyph-name="eight" unicode="8" horiz-adv-x="590" 
d="M295 410q60 0 95 33t35 82t-35 82t-95 33t-95 -33t-35 -82t35 -82t95 -33zM295 710q43 0 80.5 -15.5t65 -41.5t43.5 -59t16 -69q0 -40 -14 -67.5t-31 -44.5q-20 -20 -45 -33q34 -15 60 -39q23 -21 41.5 -54t18.5 -82q0 -43 -17.5 -82t-49 -68.5t-74.5 -47t-94 -17.5
t-94 17.5t-74.5 47t-49 68.5t-17.5 82q0 49 18.5 82t41.5 54q26 24 60 39q-26 13 -45 33q-17 17 -31 44.5t-14 67.5q0 36 16 69t43.5 59t65 41.5t80.5 15.5zM295 350q-34 0 -63 -12t-50.5 -32.5t-34 -46.5t-12.5 -54t11 -54t31.5 -46.5t50 -32.5t67.5 -12q37 0 67 12
t50.5 32.5t31.5 46.5t11 54t-12.5 54t-34 46.5t-50.5 32.5t-63 12z" />
    <glyph glyph-name="nine" unicode="9" horiz-adv-x="590" 
d="M290 250q-51 0 -94 17.5t-74.5 48.5t-49 73t-17.5 91t18 91t49.5 73t75.5 48.5t97 17.5q52 0 96.5 -17.5t76 -48.5t49.5 -73t18 -91q0 -32 -8 -59.5t-17 -47.5q-11 -24 -25 -43l-210 -330h-75l165 260q-9 -3 -20 -5q-22 -5 -55 -5zM130 480q0 -36 11.5 -65.5t33.5 -50.5
t52 -32.5t68 -11.5q37 0 67.5 11.5t52.5 32.5t33.5 50.5t11.5 65.5t-11.5 65.5t-33.5 50.5t-52.5 32.5t-67.5 11.5q-38 0 -68 -11.5t-52 -32.5t-33.5 -50.5t-11.5 -65.5z" />
    <glyph glyph-name="afii10018" unicode="&#x411;" horiz-adv-x="655" 
d="M180 420h195q47 0 87 -16.5t69.5 -45t46.5 -67t17 -81.5t-17 -81.5t-46.5 -67t-69.5 -45t-87 -16.5h-270v700h435v-70h-360v-210zM375 70q32 0 58.5 10.5t46 29.5t30 44.5t10.5 55.5t-10.5 55.5t-30 44.5t-46 29.5t-58.5 10.5h-195v-280h195z" />
    <glyph glyph-name="afii10020" unicode="&#x413;" horiz-adv-x="550" 
d="M105 700h435v-70h-360v-630h-75v700z" />
    <glyph glyph-name="afii10021" unicode="&#x414;" horiz-adv-x="710" 
d="M40 70q35 36 62 94q23 50 43 129.5t20 196.5v210h430v-630h85v-220h-75v150h-530v-150h-75v220h40zM240 490q0 -115 -18.5 -194t-41.5 -130q-26 -59 -60 -96h400v560h-280v-140z" />
    <glyph glyph-name="afii10024" unicode="&#x416;" horiz-adv-x="965" 
d="M520 255v-255h-75v255l-95 100l-250 -355h-90l290 410l-265 290h95l315 -344v344h75v-344l315 344h95l-265 -290l290 -410h-90l-250 355z" />
    <glyph glyph-name="afii10025" unicode="&#x417;" horiz-adv-x="595" 
d="M390 370q40 -12 72 -35q27 -20 50 -53.5t23 -86.5q0 -39 -18 -76t-51.5 -65.5t-80.5 -46t-105 -17.5q-63 0 -109 17t-78 38q-37 24 -63 55l50 50q21 -26 51 -45q26 -17 63 -31t86 -14q43 0 76.5 11t56.5 30t35 43.5t12 50.5q0 28 -12 53.5t-35 44.5t-56.5 30.5
t-76.5 11.5h-80v70h80q37 0 66 9.5t49 25.5t30 36.5t10 43.5q0 24 -10 46t-30 38.5t-49 26t-66 9.5q-42 0 -74 -12.5t-55 -27.5q-26 -18 -46 -40l-50 50q25 28 58 50q29 19 70.5 34.5t96.5 15.5q54 0 97 -15t72.5 -40t45 -59t15.5 -71q0 -45 -18.5 -75t-41.5 -48
q-26 -21 -60 -32z" />
    <glyph glyph-name="afii10027" unicode="&#x419;" horiz-adv-x="780" 
d="M390 795q-60 0 -97.5 37.5t-37.5 97.5h55q0 -34 23 -57t57 -23t57 23t23 57h55q0 -60 -37.5 -97.5t-97.5 -37.5zM600 0v565l-430 -565h-65v700h75v-565l430 565h65v-700h-75z" />
    <glyph glyph-name="afii10029" unicode="&#x41b;" horiz-adv-x="735" 
d="M630 0h-75v630h-300v-140q0 -106 -6 -184.5t-18 -134t-28.5 -91t-38.5 -55.5t-48 -27.5t-56 -7.5q-26 0 -46 5q-11 2 -19 5v75q8 -3 18 -5q18 -5 37 -5q28 0 52 14.5t41 59.5t27 128.5t10 222.5v210h450v-700z" />
    <glyph glyph-name="afii10033" unicode="&#x41f;" horiz-adv-x="750" 
d="M645 0h-75v630h-390v-630h-75v700h540v-700z" />
    <glyph glyph-name="afii10038" unicode="&#x424;" horiz-adv-x="845" 
d="M130 360q0 -45 16.5 -83.5t49 -67t80 -45.5t109.5 -19v430q-62 -2 -109.5 -19t-80 -45.5t-49 -67t-16.5 -83.5zM715 360q0 45 -16.5 83.5t-49 67t-80 45.5t-109.5 19v-430q62 2 109.5 19t80 45.5t49 67t16.5 83.5zM460 -20h-75v95q-77 2 -138 25t-104 61.5t-65.5 89.5
t-22.5 109t22.5 109t65.5 89.5t104 61.5t138 25v75h75v-75q77 -2 138 -25t104 -61.5t65.5 -89.5t22.5 -109t-22.5 -109t-65.5 -89.5t-104 -61.5t-138 -25v-95z" />
    <glyph glyph-name="afii10040" unicode="&#x426;" horiz-adv-x="755" 
d="M105 700h75v-630h380v630h75v-630h90v-220h-75v150h-545v700z" />
    <glyph glyph-name="afii10041" unicode="&#x427;" horiz-adv-x="705" 
d="M170 490q0 -85 46 -130t129 -45q43 0 76.5 11.5t56.5 25.5q27 17 47 38v310h75v-700h-75v305q-23 -17 -52 -30q-25 -11 -60 -20.5t-78 -9.5q-55 0 -99.5 17t-75.5 48.5t-48 77t-17 102.5v210h75v-210z" />
    <glyph glyph-name="afii10042" unicode="&#x428;" horiz-adv-x="1015" 
d="M105 700h75v-630h290v630h75v-630h290v630h75v-700h-805v700z" />
    <glyph glyph-name="afii10043" unicode="&#x429;" horiz-adv-x="1030" 
d="M105 700h75v-630h290v630h75v-630h290v630h75v-630h90v-220h-75v150h-820v700z" />
    <glyph glyph-name="afii10044" unicode="&#x42a;" horiz-adv-x="710" 
d="M170 0v630h-170v70h245v-260h180q49 0 90 -17t71 -46.5t47 -69.5t17 -87t-17 -87t-47 -69.5t-71 -46.5t-90 -17h-255zM425 70q68 0 109 41t41 109t-41 109t-109 41h-180v-300h180z" />
    <glyph glyph-name="afii10045" unicode="&#x42b;" horiz-adv-x="885" 
d="M705 0v700h75v-700h-75zM105 0v700h75v-260h180q49 0 90 -17t71 -46.5t47 -69.5t17 -87t-17 -87t-47 -69.5t-71 -46.5t-90 -17h-255zM360 70q68 0 109 41t41 109t-41 109t-109 41h-180v-300h180z" />
    <glyph glyph-name="afii10046" unicode="&#x42c;" horiz-adv-x="655" 
d="M105 0v700h75v-260h190q49 0 90 -17t71 -46.5t47 -69.5t17 -87t-17 -87t-47 -69.5t-71 -46.5t-90 -17h-265zM370 70q68 0 109 41t41 109t-41 109t-109 41h-190v-300h190z" />
    <glyph glyph-name="afii10047" unicode="&#x42d;" horiz-adv-x="750" 
d="M690 350q0 -75 -28 -140.5t-77 -114.5t-114.5 -77t-140.5 -28q-72 0 -125.5 22.5t-90.5 49.5q-43 32 -74 73l50 45q25 -34 60 -60q30 -23 75 -41.5t105 -18.5q58 0 107.5 20t87 55.5t61 83t29.5 101.5h-370v70h370q-8 52 -31.5 98t-60.5 79.5t-86 53t-107 19.5
q-60 0 -104 -18.5t-73 -41.5q-34 -26 -58 -60l-50 45q29 40 71 72q35 27 88.5 50t125.5 23q75 0 140.5 -28t114.5 -77t77 -114.5t28 -140.5z" />
    <glyph glyph-name="afii10048" unicode="&#x42e;" horiz-adv-x="1055" 
d="M180 390h135q7 66 36 124t74 101.5t103.5 69t126.5 25.5q69 0 131 -27.5t108.5 -75.5t73.5 -114t27 -143t-27 -143t-73.5 -114t-108.5 -75.5t-131 -27.5q-68 0 -127 25.5t-104.5 70t-74 105t-34.5 129.5h-135v-320h-75v700h75v-310zM390 350q0 -64 21 -117t57 -91.5
t84.5 -60t102.5 -21.5t102.5 21.5t84.5 60t57 91.5t21 117t-21 117t-57 91.5t-84.5 60t-102.5 21.5t-102.5 -21.5t-84.5 -60t-57 -91.5t-21 -117z" />
    <glyph glyph-name="afii10049" unicode="&#x42f;" horiz-adv-x="670" 
d="M565 700v-700h-75v280h-200l-155 -280h-85l165 290q-41 14 -73 40q-27 23 -49.5 61.5t-22.5 98.5q0 45 16 83.5t44.5 66.5t68 44t86.5 16h280zM285 630q-64 0 -102 -38t-38 -102t38 -102t102 -38h205v280h-205z" />
    <glyph glyph-name="afii10026" unicode="&#x418;" horiz-adv-x="780" 
d="M600 0v565l-430 -565h-65v700h75v-565l430 565h65v-700h-75z" />
    <glyph glyph-name="afii10023" unicode="&#x401;" horiz-adv-x="640" 
d="M595 70v-70h-490v700h480v-70h-405v-230h325v-70h-325v-260h415zM205 855q0 19 13 32t32 13t32 -13t13 -32t-13 -32t-32 -13t-32 13t-13 32zM395 855q0 19 13 32t32 13t32 -13t13 -32t-13 -32t-32 -13t-32 13t-13 32z" />
    <glyph glyph-name="D" unicode="D" horiz-adv-x="750" 
d="M325 700q77 0 143.5 -28t116 -76t77.5 -111.5t28 -134.5t-28 -134.5t-77.5 -111.5t-116 -76t-143.5 -28h-220v700h220zM180 630v-560h145q62 0 115 22t92 60t61 89t22 109t-22 109t-61 89t-92 60t-115 22h-145z" />
    <glyph glyph-name="A" unicode="A" horiz-adv-x="700" 
d="M350 595l-135 -330h270zM185 195l-80 -195h-80l290 700h70l290 -700h-80l-80 195h-330z" />
    <glyph glyph-name="B" unicode="B" horiz-adv-x="670" 
d="M490 374q31 -15 57 -38q22 -21 40 -54t18 -82q0 -43 -15.5 -79.5t-43.5 -63.5t-67.5 -42t-88.5 -15h-285v700h270q43 0 79 -14t61.5 -38.5t40 -57.5t14.5 -70q0 -42 -12.5 -69.5t-27.5 -44.5q-18 -21 -40 -32zM390 70q64 0 102 36.5t38 93.5q0 28 -10 53.5t-28 44.5
t-44 30.5t-58 11.5h-210v-270h210zM180 630v-225h195q57 0 88.5 30.5t31.5 84.5q0 49 -31.5 79.5t-88.5 30.5h-195z" />
    <glyph glyph-name="C" unicode="C" horiz-adv-x="750" 
d="M60 350q0 75 28 140.5t77 114.5t114.5 77t140.5 28q72 0 125 -23t89 -50q41 -32 71 -72l-50 -45q-24 34 -58 60q-29 23 -73 41.5t-104 18.5t-112 -22t-90.5 -61t-60.5 -92t-22 -115t22 -115t60.5 -92t90.5 -61t112 -22t105 18.5t75 41.5q35 26 60 60l50 -45
q-31 -41 -74 -73q-37 -27 -90.5 -49.5t-125.5 -22.5q-75 0 -140.5 28t-114.5 77t-77 114.5t-28 140.5z" />
    <glyph glyph-name="E" unicode="E" horiz-adv-x="640" 
d="M595 70v-70h-490v700h480v-70h-405v-230h325v-70h-325v-260h415z" />
    <glyph glyph-name="F" unicode="F" horiz-adv-x="615" 
d="M580 700v-70h-400v-240h320v-70h-320v-320h-75v700h475z" />
    <glyph glyph-name="G" unicode="G" horiz-adv-x="795" 
d="M60 350q0 75 28 140.5t77 114.5t114.5 77t140.5 28q72 0 125 -23t89 -50q41 -32 71 -72l-50 -45q-24 34 -58 60q-29 23 -73 41.5t-104 18.5t-112 -22t-90.5 -61t-60.5 -92t-22 -115t22 -115t60.5 -92t90.5 -61t112 -22q57 0 98 14.5t68 32.5q32 21 54 48v135h-160v70h235
v-225q-32 -41 -76 -73q-38 -27 -92.5 -49.5t-126.5 -22.5q-75 0 -140.5 28t-114.5 77t-77 114.5t-28 140.5z" />
    <glyph glyph-name="H" unicode="H" horiz-adv-x="750" 
d="M105 700h75v-310h390v310h75v-700h-75v320h-390v-320h-75v700z" />
    <glyph glyph-name="I" unicode="I" horiz-adv-x="285" 
d="M105 700h75v-700h-75v700z" />
    <glyph glyph-name="J" unicode="J" horiz-adv-x="495" 
d="M395 700v-495q0 -47 -16 -86.5t-44.5 -68t-68 -44.5t-86.5 -16q-42 0 -73 12.5t-53 27.5q-26 18 -44 40l50 50q12 -17 30 -30q15 -11 37.5 -20.5t52.5 -9.5q64 0 102 38.5t38 106.5v495h75z" />
    <glyph glyph-name="K" unicode="K" horiz-adv-x="670" 
d="M540 700h95l-265 -290l290 -410h-90l-250 355l-140 -150v-205h-75v700h75v-395z" />
    <glyph glyph-name="L" unicode="L" horiz-adv-x="560" 
d="M105 0v700h75v-630h360v-70h-435z" />
    <glyph glyph-name="M" unicode="M" horiz-adv-x="920" 
d="M460 200l-280 370v-570h-75v700h65l290 -380l290 380h65v-700h-75v570z" />
    <glyph glyph-name="N" unicode="N" horiz-adv-x="780" 
d="M675 700v-700h-65l-430 565v-565h-75v700h65l430 -565v565h75z" />
    <glyph glyph-name="O" unicode="O" horiz-adv-x="840" 
d="M135 350q0 -62 22 -115t60.5 -92t90.5 -61t112 -22t112 22t90.5 61t60.5 92t22 115t-22 115t-60.5 92t-90.5 61t-112 22t-112 -22t-90.5 -61t-60.5 -92t-22 -115zM780 350q0 -75 -28 -140.5t-77 -114.5t-114.5 -77t-140.5 -28t-140.5 28t-114.5 77t-77 114.5t-28 140.5
t28 140.5t77 114.5t114.5 77t140.5 28t140.5 -28t114.5 -77t77 -114.5t28 -140.5z" />
    <glyph glyph-name="P" unicode="P" horiz-adv-x="650" 
d="M370 700q49 0 90 -17t71 -46.5t47 -69.5t17 -87t-17 -87t-47 -69.5t-71 -46.5t-90 -17h-190v-260h-75v700h265zM180 630v-300h190q68 0 109 41t41 109t-41 109t-109 41h-190z" />
    <glyph glyph-name="Q" unicode="Q" horiz-adv-x="840" 
d="M780 350q0 -45 -9 -83t-23.5 -69.5t-33 -56.5t-37.5 -44q-45 -45 -102 -72q17 -28 44 -50q23 -19 59 -34.5t87 -15.5q11 0 19.5 0.5t14.5 1.5t11 3v-65q-5 -2 -11 -3t-14.5 -1.5t-19.5 -0.5q-72 0 -121 22t-80 48q-36 31 -59 70q-11 -3 -24 -5q-25 -5 -61 -5
q-75 0 -140.5 28t-114.5 77t-77 114.5t-28 140.5t28 140.5t77 114.5t114.5 77t140.5 28t140.5 -28t114.5 -77t77 -114.5t28 -140.5zM135 350q0 -62 22 -115t60.5 -92t90.5 -61t112 -22t112 22t90.5 61t60.5 92t22 115t-22 115t-60.5 92t-90.5 61t-112 22t-112 -22t-90.5 -61
t-60.5 -92t-22 -115z" />
    <glyph glyph-name="R" unicode="R" horiz-adv-x="675" 
d="M385 700q47 0 86.5 -16t68 -44t44.5 -66.5t16 -83.5q0 -60 -23 -98.5t-50 -61.5q-32 -26 -72 -40l165 -290h-85l-155 280h-200v-280h-75v700h280zM180 630v-280h205q64 0 102 38t38 102t-38 102t-102 38h-205z" />
    <glyph glyph-name="T" unicode="T" horiz-adv-x="555" 
d="M535 700v-70h-220v-630h-75v630h-220v70h515z" />
    <glyph glyph-name="S" unicode="S" horiz-adv-x="565" 
d="M440 190q0 34 -16.5 55.5t-43 36.5t-60.5 25.5t-70 21.5t-70 24.5t-60.5 35t-43 53t-16.5 78.5q0 38 15.5 72.5t45 60.5t71 41.5t93.5 15.5q51 0 89 -14t64 -31q30 -20 52 -45l-50 -50q-16 19 -39 35q-20 13 -48.5 24t-67.5 11q-36 0 -64 -10t-47 -26.5t-29 -38
t-10 -45.5q0 -45 28 -69.5t70.5 -40.5t91.5 -29t91.5 -34.5t70.5 -58t28 -98.5q0 -43 -15.5 -79.5t-45.5 -63.5t-74 -42t-100 -15q-60 0 -104.5 16t-73.5 36q-34 23 -57 53l46 51q19 -25 46 -43q23 -17 58.5 -30t84.5 -13q79 0 119.5 36.5t40.5 93.5z" />
    <glyph glyph-name="U" unicode="U" horiz-adv-x="760" 
d="M380 60q43 0 81.5 16.5t67 46t45 68.5t16.5 84v425h75v-425q0 -58 -22.5 -110t-61.5 -91t-91 -61.5t-110 -22.5t-110 22.5t-91 61.5t-61.5 91t-22.5 110v425h75v-425q0 -45 16.5 -84t45 -68.5t67 -46t81.5 -16.5z" />
    <glyph glyph-name="V" unicode="V" horiz-adv-x="680" 
d="M30 700h80l230 -595l230 595h80l-275 -700h-70z" />
    <glyph glyph-name="X" unicode="X" horiz-adv-x="650" 
d="M520 700h90l-240 -335l260 -365h-90l-215 305l-215 -305h-90l260 365l-240 335h90l195 -275z" />
    <glyph glyph-name="W" unicode="W" horiz-adv-x="1040" 
d="M520 585l-185 -585h-75l-230 700h80l185 -585l190 585h70l190 -585l185 585h80l-230 -700h-75z" />
    <glyph glyph-name="Y" unicode="Y" horiz-adv-x="635" 
d="M320 325l210 375h85l-260 -455v-245h-75v245l-260 455h85l210 -375h5z" />
    <glyph glyph-name="Z" unicode="Z" horiz-adv-x="600" 
d="M60 630v70h485v-70l-410 -560h420v-70h-510v70l410 560h-395z" />
    <glyph glyph-name="three" unicode="3" horiz-adv-x="560" 
d="M370 370q36 -10 65 -33q24 -20 44.5 -54t20.5 -88q0 -39 -16.5 -76t-47 -65.5t-74 -46t-97.5 -17.5q-60 0 -104.5 16t-73.5 36q-34 23 -57 53l50 50q19 -25 46 -43q23 -16 57 -29t82 -13q39 0 70 10.5t52 29t32 43t11 52.5q0 27 -11.5 51t-33 43t-52 30t-68.5 11h-70v70
h70q64 0 99.5 34t35.5 91q0 49 -35.5 82t-99.5 33q-40 0 -69.5 -12.5t-49.5 -27.5q-24 -18 -41 -40l-50 55q21 26 52 47q26 18 65.5 33t92.5 15q47 0 85.5 -15t66.5 -40t43 -59t15 -71q0 -45 -16.5 -75t-36.5 -48q-23 -21 -52 -32z" />
    <glyph glyph-name="period" unicode="." horiz-adv-x="210" 
d="M55 40q0 23 13.5 36.5t36.5 13.5t36.5 -13.5t13.5 -36.5t-13.5 -36.5t-36.5 -13.5t-36.5 13.5t-13.5 36.5z" />
    <glyph glyph-name="comma" unicode="," horiz-adv-x="215" 
d="M160 50l-115 -180l-45 25l90 195z" />
    <glyph glyph-name="exclam" unicode="!" horiz-adv-x="310" 
d="M125 170l-15 530h90l-15 -530h-60zM105 40q0 23 13.5 36.5t36.5 13.5t36.5 -13.5t13.5 -36.5t-13.5 -36.5t-36.5 -13.5t-36.5 13.5t-13.5 36.5z" />
    <glyph glyph-name="question" unicode="?" horiz-adv-x="525" 
d="M215 170q-2 7 -3 14q-1 6 -1.5 14t-0.5 17q0 40 14.5 69t36 51.5t47 41.5t47 39.5t36 45t14.5 58.5q0 24 -10 46t-29 38.5t-45.5 26t-60.5 9.5q-49 0 -79 -17.5t-47 -37.5q-20 -25 -29 -55l-65 20q13 45 42 80q12 15 28.5 29.5t38.5 25.5t49.5 18t61.5 7q49 0 89.5 -15.5
t69.5 -42t45 -61t16 -71.5q0 -48 -14.5 -79t-36 -54t-47 -41.5t-47 -39t-36 -48t-14.5 -68.5v-20h-70zM200 40q0 23 13.5 36.5t36.5 13.5t36.5 -13.5t13.5 -36.5t-13.5 -36.5t-36.5 -13.5t-36.5 13.5t-13.5 36.5z" />
    <glyph glyph-name="hyphen" unicode="-" horiz-adv-x="425" 
d="M380 265h-335v65h335v-65z" />
    <glyph glyph-name="parenleft" unicode="(" horiz-adv-x="335" 
d="M145 250q0 -100 24 -180.5t53 -138.5q34 -68 78 -121l-55 -30q-47 55 -83 126q-31 61 -56.5 148t-25.5 196t25.5 196t56.5 148q36 71 83 126l55 -30q-44 -53 -78 -121q-29 -58 -53 -138.5t-24 -180.5z" />
    <glyph glyph-name="parenright" unicode=")" horiz-adv-x="335" 
d="M190 250q0 49 -6.5 94.5t-17.5 85.5t-25 75t-29 64q-34 68 -77 121l55 30q46 -55 82 -126q15 -30 30 -67.5t27 -80.5t19 -92.5t7 -103.5t-7 -103.5t-19 -92.5t-27 -80.5t-30 -67.5q-36 -71 -82 -126l-55 30q43 53 77 121q29 58 53.5 138.5t24.5 180.5z" />
    <glyph glyph-name="slash" unicode="/" horiz-adv-x="435" 
d="M100 -210h-65l300 920h65z" />
    <glyph glyph-name="colon" unicode=":" horiz-adv-x="210" 
d="M55 40q0 23 13.5 36.5t36.5 13.5t36.5 -13.5t13.5 -36.5t-13.5 -36.5t-36.5 -13.5t-36.5 13.5t-13.5 36.5zM55 440q0 23 13.5 36.5t36.5 13.5t36.5 -13.5t13.5 -36.5t-13.5 -36.5t-36.5 -13.5t-36.5 13.5t-13.5 36.5z" />
    <glyph glyph-name="semicolon" unicode=";" horiz-adv-x="220" 
d="M160 50l-115 -180l-45 25l90 195zM65 440q0 23 13.5 36.5t36.5 13.5t36.5 -13.5t13.5 -36.5t-13.5 -36.5t-36.5 -13.5t-36.5 13.5t-13.5 36.5z" />
    <glyph glyph-name="bracketleft" unicode="[" horiz-adv-x="335" 
d="M160 -145h135v-65h-205v920h205v-65h-135v-790z" />
    <glyph glyph-name="bracketright" unicode="]" horiz-adv-x="335" 
d="M175 645h-135v65h205v-920h-205v65h135v790z" />
    <glyph glyph-name="backslash" unicode="\" horiz-adv-x="435" 
d="M35 710h65l300 -920h-65z" />
    <glyph glyph-name="braceleft" unicode="{" horiz-adv-x="355" 
d="M60 280q70 0 70 70v225q0 60 39 97.5t111 37.5h40v-60h-40q-42 0 -63.5 -20.5t-21.5 -54.5v-225q0 -32 -9.5 -51.5t-20.5 -30.5q-13 -12 -30 -18q17 -6 30 -18q11 -11 20.5 -30.5t9.5 -51.5v-225q0 -34 21.5 -54.5t63.5 -20.5h40v-60h-40q-72 0 -111 37.5t-39 97.5v225
q0 70 -70 70v60z" />
    <glyph glyph-name="braceright" unicode="}" horiz-adv-x="355" 
d="M295 220q-70 0 -70 -70v-225q0 -60 -39 -97.5t-111 -37.5h-40v60h40q42 0 63.5 20.5t21.5 54.5v225q0 32 9.5 51.5t20.5 30.5q13 12 30 18q-17 6 -30 18q-11 11 -20.5 30.5t-9.5 51.5v225q0 34 -21.5 54.5t-63.5 20.5h-40v60h40q72 0 111 -37.5t39 -97.5v-225
q0 -70 70 -70v-60z" />
    <glyph glyph-name="bar" unicode="|" horiz-adv-x="335" 
d="M200 -210h-65v920h65v-920z" />
    <glyph glyph-name="quotedblright" unicode="&#x201d;" horiz-adv-x="365" 
d="M340 680l-115 -180l-45 25l95 195zM185 680l-115 -180l-45 25l95 195z" />
    <glyph glyph-name="quotedblleft" unicode="&#x201c;" horiz-adv-x="365" 
d="M25 540l115 180l45 -25l-95 -195zM180 540l115 180l45 -25l-95 -195z" />
    <glyph glyph-name="bullet" unicode="&#x2022;" horiz-adv-x="400" 
d="M105 240q0 19 8 36t21 30t30 21t36 8t36 -8t30 -21t21 -30t8 -36t-8 -36t-21 -30t-30 -21t-36 -8t-36 8t-30 21t-21 30t-8 36z" />
    <glyph glyph-name="endash" unicode="&#x2013;" horiz-adv-x="480" 
d="M435 260h-390v65h390v-65z" />
    <glyph glyph-name="emdash" unicode="&#x2014;" horiz-adv-x="720" 
d="M675 260h-630v65h630v-65z" />
    <glyph glyph-name="brokenbar" unicode="&#xa6;" horiz-adv-x="335" 
d="M200 170v-380h-65v380h65zM135 330v380h65v-380h-65z" />
    <glyph glyph-name="guillemotleft" unicode="&#xab;" horiz-adv-x="465" 
d="M45 240l115 165h75l-115 -165l115 -165h-75zM230 240l115 165h75l-115 -165l115 -165h-75z" />
    <glyph glyph-name="guillemotright" unicode="&#xbb;" horiz-adv-x="465" 
d="M305 75h-75l115 165l-115 165h75l115 -165zM120 75h-75l115 165l-115 165h75l115 -165z" />
    <glyph glyph-name="ellipsis" unicode="&#x2026;" horiz-adv-x="670" 
d="M60 40q0 23 13.5 36.5t36.5 13.5t36.5 -13.5t13.5 -36.5t-13.5 -36.5t-36.5 -13.5t-36.5 13.5t-13.5 36.5zM285 40q0 23 13.5 36.5t36.5 13.5t36.5 -13.5t13.5 -36.5t-13.5 -36.5t-36.5 -13.5t-36.5 13.5t-13.5 36.5zM510 40q0 23 13.5 36.5t36.5 13.5t36.5 -13.5
t13.5 -36.5t-13.5 -36.5t-36.5 -13.5t-36.5 13.5t-13.5 36.5z" />
    <glyph glyph-name="ampersand" unicode="&#x26;" horiz-adv-x="625" 
d="M420 560q0 -40 -20.5 -75t-44.5 -62q-29 -32 -65 -58l160 -195q12 20 22 46q8 22 15.5 53t7.5 71h65q0 -51 -10.5 -92.5t-22.5 -70.5q-14 -34 -32 -62q11 -17 24 -30q11 -11 25 -20.5t31 -9.5q5 0 10 0.5t10 1.5t10 3v-65q-5 -2 -11 -3q-5 -1 -11.5 -1.5t-12.5 -0.5
q-26 0 -47.5 12.5t-36.5 27.5q-18 18 -31 40q-21 -22 -48 -40q-23 -15 -57.5 -27.5t-79.5 -12.5t-82 14t-63 37.5t-40.5 54t-14.5 64.5q0 47 20.5 84.5t46.5 64.5q30 32 68 56q-30 30 -53 63q-20 28 -36 61.5t-16 65.5t12.5 60t34 49t50.5 33.5t63 12.5t63 -12t50.5 -33
t34 -48t12.5 -57zM245 325q-31 -24 -55 -51q-21 -23 -38 -52.5t-17 -61.5q0 -48 35.5 -76.5t99.5 -28.5q34 0 60 9.5t44 20.5q21 13 36 30zM165 555q0 -23 14 -48t31 -47q19 -26 45 -50q28 21 50 46q19 20 34.5 46.5t15.5 52.5q0 38 -26.5 64t-68.5 26t-68.5 -26t-26.5 -64z
" />
    <glyph glyph-name="quotedblbase" unicode="&#x201e;" horiz-adv-x="370" 
d="M160 50l-115 -175l-45 20l90 195zM315 50l-115 -175l-45 20l90 195z" />
    <glyph glyph-name="guilsinglleft" unicode="&#x2039;" horiz-adv-x="280" 
d="M120 240l115 -165h-70l-120 165l120 165h70z" />
    <glyph glyph-name="guilsinglright" unicode="&#x203a;" horiz-adv-x="280" 
d="M45 405h70l120 -165l-120 -165h-70l115 165z" />
    <glyph glyph-name="paragraph" unicode="&#xb6;" horiz-adv-x="540" 
d="M210 370q-34 0 -64 13t-52.5 35.5t-35.5 52.5t-13 64t13 64t35.5 52.5t52.5 35.5t64 13h235v-800h-65v735h-105v-735h-65v470z" />
    <glyph glyph-name="dagger" unicode="&#x2020;" horiz-adv-x="420" 
d="M180 700h60v-135h120v-55h-120v-310h-60v310h-120v55h120v135z" />
    <glyph glyph-name="daggerdbl" unicode="&#x2021;" horiz-adv-x="420" 
d="M180 700h60v-135h120v-55h-120v-120h120v-55h-120v-135h-60v135h-120v55h120v120h-120v55h120v135z" />
    <glyph glyph-name="asterisk" unicode="*" horiz-adv-x="390" 
d="M120 385l-45 35l85 105l-125 30l20 55l120 -40l-10 130h60l-10 -130l120 40l20 -55l-125 -30l85 -105l-45 -35l-75 110z" />
    <glyph glyph-name="periodcentered" unicode="&#xb7;" horiz-adv-x="190" 
d="M46 250q0 23 13.5 36.5t36.5 13.5t36.5 -13.5t13.5 -36.5t-13.5 -36.5t-36.5 -13.5t-36.5 13.5t-13.5 36.5z" />
    <glyph glyph-name="exclamdown" unicode="&#xa1;" horiz-adv-x="280" 
d="M170 310l15 -520h-90l15 520h60zM190 440q0 -23 -13.5 -36.5t-36.5 -13.5t-36.5 13.5t-13.5 36.5t13.5 36.5t36.5 13.5t36.5 -13.5t13.5 -36.5z" />
    <glyph glyph-name="questiondown" unicode="&#xbf;" horiz-adv-x="465" 
d="M295 310l2 -14q1 -6 2 -14.5t1 -16.5q0 -40 -14.5 -68t-36 -49.5t-47 -39.5t-47 -37.5t-36 -43t-14.5 -57.5q0 -24 10 -46t28.5 -38.5t45.5 -26t61 -9.5q49 0 78.5 17t45.5 38q18 24 26 55l65 -20q-13 -45 -40 -80q-23 -30 -65.5 -55t-109.5 -25q-49 0 -89.5 15.5
t-69.5 42t-45 60.5t-16 72q0 47 14.5 78t36 53t47 38.5t47 36.5t36 46.5t14.5 67.5v20h70zM310 440q0 -23 -13.5 -36.5t-36.5 -13.5t-36.5 13.5t-13.5 36.5t13.5 36.5t36.5 13.5t36.5 -13.5t13.5 -36.5z" />
    <glyph glyph-name="numbersign" unicode="#" horiz-adv-x="725" 
d="M590 700l-40 -205h155l-10 -65h-157l-31 -160h148l-10 -65h-151l-39 -205h-65l39 205h-190l-39 -205h-65l39 205h-154l10 65h157l31 160h-148l10 65h150l40 205h65l-40 -205h190l40 205h65zM252 270h190l31 160h-190z" />
    <glyph glyph-name="dollar" unicode="$" horiz-adv-x="565" 
d="M440 190q0 34 -16.5 55.5t-43 36.5t-60.5 25.5t-70 21.5t-70 24.5t-60.5 35t-43 53t-16.5 78.5q0 35 13 66.5t37.5 57t59.5 42.5t80 22v102h70v-102q42 -5 73.5 -19.5t53.5 -29.5q26 -18 43 -39l-50 -50q-16 19 -39 35q-20 13 -48.5 24t-67.5 11q-36 0 -64 -10t-47 -26.5
t-29 -38t-10 -45.5q0 -45 28 -69.5t70.5 -40.5t91.5 -29t91.5 -34.5t70.5 -58t28 -98.5q0 -79 -50.5 -133t-144.5 -65v-102h-70v101q-53 5 -91 21t-64 35q-30 21 -50 48l46 51q19 -25 46 -43q23 -17 58.5 -30t84.5 -13q79 0 119.5 36.5t40.5 93.5z" />
    <glyph glyph-name="plus" unicode="+" horiz-adv-x="515" 
d="M225 70v190h-185v65h185v190h65v-190h185v-65h-185v-190h-65z" />
    <glyph glyph-name="less" unicode="&#x3c;" horiz-adv-x="495" 
d="M45 265l405 215v-70l-315 -165l315 -165v-70l-405 215v40z" />
    <glyph glyph-name="greater" unicode="&#x3e;" horiz-adv-x="495" 
d="M450 225l-405 -215v70l315 165l-315 165v70l405 -215v-40z" />
    <glyph glyph-name="equal" unicode="=" horiz-adv-x="495" 
d="M450 175h-405v65h405v-65zM450 350h-405v65h405v-65z" />
    <glyph glyph-name="underscore" unicode="_" horiz-adv-x="330" 
d="M340 -170h-350v65h350v-65z" />
    <glyph glyph-name="asciitilde" unicode="~" horiz-adv-x="530" 
d="M170 300q-25 0 -41.5 -9.5t-27.5 -20.5q-12 -13 -21 -30l-45 35q14 24 34 42q17 16 42 29.5t59 13.5q37 0 61 -11t43.5 -24t38.5 -24t47 -11q24 0 41 9.5t28 20.5q12 13 21 30l45 -35q-15 -25 -34 -43q-17 -16 -42 -29t-59 -13q-38 0 -61.5 11t-43 24t-38.5 24t-47 11z
" />
    <glyph glyph-name="Euro" unicode="&#x20ac;" horiz-adv-x="740" 
d="M450 300v-65h-230q7 -28 29 -59t53.5 -56.5t72 -42.5t85.5 -17t79.5 14t59.5 31q29 19 51 45l50 -50q-26 -31 -62 -55q-31 -21 -75.5 -38t-102.5 -17q-60 0 -112 20.5t-93 55t-70.5 78.5t-44.5 91h-100v65h90v100h-90v65h100q15 47 44.5 91t70.5 78.5t93 55t112 20.5
q58 0 101.5 -17.5t73.5 -37.5q34 -25 60 -55l-50 -50q-21 25 -48 45q-24 17 -58 31t-79 14t-85.5 -17t-72 -42.5t-53.5 -56.5t-29 -59h230v-65h-245v-100h245z" />
    <glyph glyph-name="currency" unicode="&#xa4;" horiz-adv-x="670" 
d="M50 350h80v350h260q49 0 89.5 -16t69.5 -44t45 -66.5t16 -83.5t-16 -83.5t-45 -66.5t-69.5 -44t-89.5 -16h-185v-85h245v-70h-245v-125h-75v125h-80v70h80v85h-80v70zM205 630v-280h185q32 0 58.5 10.5t46 29.5t30 44.5t10.5 55.5t-10.5 55.5t-30 44.5t-46 29.5
t-58.5 10.5h-185z" />
    <glyph glyph-name="logicalnot" unicode="&#xac;" horiz-adv-x="460" 
d="M420 185h-70v140h-305v65h375v-205z" />
    <glyph glyph-name="plusminus" unicode="&#xb1;" horiz-adv-x="515" 
d="M45 90h425v-65h-425v65zM225 155v190h-185v65h185v190h65v-190h185v-65h-185v-190h-65z" />
    <glyph glyph-name="afii61352" unicode="&#x2116;" horiz-adv-x="1125" 
d="M780 65h290v-65h-290v65zM670 700v-700h-65l-425 565v-565h-75v700h65l425 -565v565h75zM1080 325q0 -32 -12.5 -60t-33.5 -49t-49 -33.5t-60 -12.5t-60 12.5t-49 33.5t-33.5 49t-12.5 60t12.5 60t33.5 49t49 33.5t60 12.5t60 -12.5t49 -33.5t33.5 -49t12.5 -60z
M1015 325q0 42 -26 68.5t-64 26.5t-64 -26.5t-26 -68.5t26 -68.5t64 -26.5t64 26.5t26 68.5z" />
    <glyph glyph-name="multiply" unicode="&#xd7;" horiz-adv-x="460" 
d="M230 355l140 140l45 -45l-140 -140l140 -140l-45 -45l-140 140l-140 -140l-45 45l140 140l-140 140l45 45z" />
    <glyph glyph-name="divide" unicode="&#xf7;" horiz-adv-x="510" 
d="M465 260h-420v65h420v-65zM305 115q0 -23 -13.5 -36.5t-36.5 -13.5t-36.5 13.5t-13.5 36.5t13.5 36.5t36.5 13.5t36.5 -13.5t13.5 -36.5zM205 470q0 23 13.5 36.5t36.5 13.5t36.5 -13.5t13.5 -36.5t-13.5 -36.5t-36.5 -13.5t-36.5 13.5t-13.5 36.5z" />
    <glyph glyph-name="minus" unicode="&#x2212;" horiz-adv-x="515" 
d="M470 260h-425v65h425v-65z" />
    <glyph glyph-name="yen" unicode="&#xa5;" horiz-adv-x="635" 
d="M360 255l-5 -10v-65h160v-65h-160v-115h-75v115h-160v65h160v65l-6 10h-154v65h117l-217 380h85l210 -375h5l210 375h85l-218 -380h118v-65h-155z" />
    <glyph glyph-name="sterling" unicode="&#xa3;" horiz-adv-x="560" 
d="M135 490q0 49 16 89.5t44.5 69.5t68 45t86.5 16q45 0 78.5 -13.5t56.5 -29.5q26 -18 45 -42l-50 -50q-14 18 -33 32q-17 12 -41 22.5t-56 10.5q-30 0 -56.5 -11.5t-46 -31.5t-31 -47.5t-11.5 -59.5v-130h205v-70h-205v-155q0 -17 -4 -29t-9 -20q-5 -10 -12 -16h350v-70
h-465v70q30 0 50 19.5t20 45.5v155h-65v70h65v130v0z" />
    <glyph glyph-name="uni20B4" unicode="&#x20b4;" horiz-adv-x="635" 
d="M65 465h370l7 14q3 7 5.5 17t2.5 24q0 24 -10 45.5t-29 38t-47 26.5t-64 10q-39 0 -68 -11t-49 -24q-23 -16 -38 -35l-50 50q21 25 52 45q26 17 64 31t89 14q52 0 93.5 -15.5t71 -41.5t45 -60.5t15.5 -72.5q0 -14 -1.5 -24t-3.5 -17q-3 -8 -5 -14h55v-70h-505v70z
M570 235h-370q-4 -6 -8 -14q-7 -16 -7 -41q0 -24 10 -45.5t29 -38t47 -26.5t64 -10q39 0 67.5 10.5t48.5 24.5q23 15 39 35l50 -50q-22 -26 -52 -45q-26 -17 -64 -31t-89 -14q-52 0 -93.5 15.5t-71 41.5t-45 60.5t-15.5 72.5q0 26 5 41q2 8 5 14h-55v70h505v-70z" />
    <glyph glyph-name="approxequal" unicode="&#x2248;" horiz-adv-x="540" 
d="M175 385q-25 0 -41.5 -10t-27.5 -21q-12 -13 -21 -30l-45 31q13 24 32 42q17 16 42 29.5t61 13.5q37 0 61 -10t43.5 -22.5t38.5 -22.5t47 -10q24 0 41 9.5t28 20.5q12 13 21 31l45 -31q-13 -25 -32 -43q-17 -16 -42.5 -29t-60.5 -13q-38 0 -61.5 10t-43 22.5t-38.5 22.5
t-47 10zM175 216q-25 0 -41.5 -10t-27.5 -21q-12 -13 -21 -30l-45 31q13 24 32 42q17 16 42 29.5t61 13.5q37 0 61 -10t43.5 -22.5t38.5 -22.5t47 -10q24 0 41 9.5t28 20.5q12 13 21 31l45 -31q-13 -25 -32 -43q-17 -16 -42.5 -29t-60.5 -13q-38 0 -61.5 10t-43 22.5
t-38.5 22.5t-47 10z" />
    <glyph glyph-name="notequal" unicode="&#x2260;" horiz-adv-x="495" 
d="M450 175h-226l-54 -115h-65l54 115h-114v65h144l52 110h-196v65h226l54 115h65l-54 -115h114v-65h-144l-52 -110h196v-65z" />
    <glyph glyph-name="lessequal" unicode="&#x2264;" horiz-adv-x="495" 
d="M45 370l405 190v-70l-310 -140l310 -140v-70l-405 190v40zM45 80h405v-65h-405v65z" />
    <glyph glyph-name="afii10053" unicode="&#x404;" horiz-adv-x="750" 
d="M60 350q0 75 28 140.5t77 114.5t114.5 77t140.5 28q72 0 125 -23t89 -50q41 -32 71 -72l-50 -45q-24 34 -58 60q-29 23 -73 41.5t-104 18.5q-58 0 -107 -19.5t-86 -53t-61 -79.5t-31 -98h370v-70h-370q6 -54 29 -101.5t60.5 -83t87.5 -55.5t108 -20q60 0 105 18.5
t75 41.5q35 26 60 60l50 -45q-31 -41 -74 -73q-37 -27 -90.5 -49.5t-125.5 -22.5q-75 0 -140.5 28t-114.5 77t-77 114.5t-28 140.5z" />
    <glyph glyph-name="afii10050" unicode="&#x490;" horiz-adv-x="550" 
d="M470 840h70v-210h-360v-630h-75v700h365v140z" />
    <glyph glyph-name="afii10051" unicode="&#x402;" horiz-adv-x="715" 
d="M445 455q47 0 85.5 -15.5t66.5 -45t43 -72.5t15 -97t-16.5 -97.5t-46.5 -74t-72.5 -47t-94.5 -16.5v70q72 0 113.5 43t41.5 122q0 75 -40.5 117.5t-104.5 42.5q-40 0 -72.5 -12.5t-56.5 -27.5q-28 -18 -51 -40v-305h-75v630h-180v70h435v-70h-180v-240q23 18 52 32
q25 12 59.5 22.5t78.5 10.5z" />
    <glyph glyph-name="afii10058" unicode="&#x409;" horiz-adv-x="1080" 
d="M540 0v630h-285v-140q0 -106 -6 -184.5t-18 -134t-28.5 -91t-38.5 -55.5t-48 -27.5t-56 -7.5q-26 0 -46 5q-11 2 -19 5v75q8 -3 18 -5q18 -5 37 -5q28 0 52 14.5t41 59.5t27 128.5t10 222.5v210h435v-260h180q49 0 90 -17t71 -46.5t47 -69.5t17 -87t-17 -87t-47 -69.5
t-71 -46.5t-90 -17h-255zM795 70q68 0 109 41t41 109t-41 109t-109 41h-180v-300h180z" />
    <glyph glyph-name="afii10059" unicode="&#x40a;" horiz-adv-x="1080" 
d="M105 700h75v-260h360v260h75v-260h180q49 0 90 -17t71 -46.5t47 -69.5t17 -87t-17 -87t-47 -69.5t-71 -46.5t-90 -17h-255v370h-360v-370h-75v700zM795 70q68 0 109 41t41 109t-41 109t-109 41h-180v-300h180z" />
    <glyph glyph-name="afii10060" unicode="&#x40b;" horiz-adv-x="740" 
d="M0 700h435v-70h-180v-240q23 18 52 32q25 12 59.5 22.5t78.5 10.5q47 0 85.5 -15.5t66.5 -43.5t43 -67.5t15 -88.5v-240h-75v240q0 32 -10.5 58.5t-30 46t-46 30t-58.5 10.5q-40 0 -72.5 -12.5t-56.5 -27.5q-28 -18 -51 -40v-305h-75v630h-180v70z" />
    <glyph glyph-name="afii10145" unicode="&#x40f;" horiz-adv-x="745" 
d="M640 0h-230v-150h-75v150h-230v700h75v-630h385v630h75v-700z" />
    <glyph glyph-name="AE" unicode="&#xc6;" horiz-adv-x="960" 
d="M915 70v-70h-445v205h-295l-115 -205h-80l390 700h535v-70h-360v-230h280v-70h-280v-260h370zM210 275h260v355h-60z" />
    <glyph glyph-name="Dcroat" unicode="&#x110;" horiz-adv-x="765" 
d="M340 700q77 0 143.5 -28t116 -76t77.5 -111.5t28 -134.5t-28 -134.5t-77.5 -111.5t-116 -76t-143.5 -28h-220v315h-95v70h95v315h220zM195 630v-245h170v-70h-170v-245h145q62 0 115 22t92 60t61 89t22 109t-22 109t-61 89t-92 60t-115 22h-145z" />
    <glyph glyph-name="Lslash" unicode="&#x141;" horiz-adv-x="615" 
d="M160 0v285l-120 -70l-35 60l155 85v340h75v-295l140 85l35 -60l-175 -100v-260h360v-70h-435z" />
    <glyph glyph-name="OE" unicode="&#x152;" horiz-adv-x="1005" 
d="M960 70v-70h-545q-75 0 -140 27.5t-112.5 74.5t-75 111t-27.5 137t27.5 137t75 111t112.5 74.5t140 27.5h535v-70h-360v-230h280v-70h-280v-260h370zM135 350q0 -60 21 -111.5t58.5 -89t89 -58.5t111.5 -21h100v560h-100q-60 0 -111.5 -21.5t-89 -59t-58.5 -88.5
t-21 -111z" />
    <glyph glyph-name="Oslash" unicode="&#xd8;" horiz-adv-x="840" 
d="M600 580q-22 17 -49 30q-23 11 -56 20.5t-75 9.5q-60 0 -112 -22t-90.5 -61t-60.5 -92t-22 -115q0 -42 8 -75t19 -56q12 -27 28 -49zM705 350q0 42 -8.5 75t-19.5 56q-12 27 -27 49l-410 -410q22 -17 49 -30q23 -11 56 -20.5t75 -9.5q60 0 112 22t90.5 61t60.5 92t22 115
zM780 350q0 -75 -28 -140.5t-77 -114.5t-114.5 -77t-140.5 -28q-53 0 -95.5 12.5t-72.5 27.5q-35 18 -62 40l-90 -90l-50 50l90 90q-22 27 -40 62q-15 30 -27.5 72.5t-12.5 95.5q0 75 28 140.5t77 114.5t114.5 77t140.5 28q53 0 95 -12.5t72 -27.5q35 -18 63 -40l90 90
l50 -50l-90 -90q22 -28 40 -63q15 -30 27.5 -72t12.5 -95z" />
    <glyph glyph-name="Thorn" unicode="&#xde;" horiz-adv-x="650" 
d="M180 160h120q49 0 88.5 15t67.5 42t43.5 63.5t15.5 79.5t-15.5 79.5t-43.5 63.5t-67.5 42t-88.5 15h-120v-400zM300 630q64 0 117 -21t91.5 -57.5t60 -86t21.5 -105.5t-21.5 -105.5t-60 -86t-91.5 -57.5t-117 -21h-120v-110h-75v740h75v-90h120z" />
    <glyph glyph-name="Germandbls" horiz-adv-x="650" 
d="M390 420q41 0 77.5 -16t63.5 -44t43 -66.5t16 -83.5q0 -43 -17 -81.5t-47.5 -67t-72.5 -45t-93 -16.5h-50v70h50q36 0 64.5 10.5t48.5 29.5t31 44.5t11 55.5t-11 55.5t-30.5 44.5t-47 29.5t-61.5 10.5h-55v70l160 210h-155q-64 0 -102 -38.5t-38 -105.5v-486h-75v486
q0 46 16 85.5t44.5 68t68 44.5t86.5 16h235v-70z" />
    <glyph glyph-name="breve" unicode="&#x2d8;" horiz-adv-x="330" 
d="M165 615q38 0 59 21.5t21 63.5h55q0 -60 -37.5 -97.5t-97.5 -37.5t-97.5 37.5t-37.5 97.5h55q0 -42 21 -63.5t59 -21.5z" />
    <glyph glyph-name="dieresis" unicode="&#xa8;" horiz-adv-x="340" 
d="M30 635q0 19 13 32t32 13t32 -13t13 -32t-13 -32t-32 -13t-32 13t-13 32zM220 635q0 19 13 32t32 13t32 -13t13 -32t-13 -32t-32 -13t-32 13t-13 32z" />
    <glyph glyph-name="circumflex" unicode="&#x2c6;" horiz-adv-x="350" 
d="M320 565h-65l-80 95l-80 -95h-65l110 135h70z" />
    <glyph glyph-name="acute" unicode="&#xb4;" horiz-adv-x="210" 
d="M105 700h75l-95 -135h-55z" />
    <glyph glyph-name="tilde" unicode="&#x2dc;" horiz-adv-x="370" 
d="M120 640q-15 0 -27.5 -15.5t-12.5 -49.5h-50q0 60 26 90t64 30q26 0 43.5 -10t31 -22.5t26 -22.5t29.5 -10q15 0 27.5 15.5t12.5 49.5h50q0 -60 -26 -90t-64 -30q-26 0 -43.5 10t-31 22.5t-26 22.5t-29.5 10z" />
    <glyph glyph-name="macron" unicode="&#xaf;" horiz-adv-x="350" 
d="M320 635h-290v55h290v-55z" />
    <glyph glyph-name="ogonek" unicode="&#x2db;" horiz-adv-x="220" 
d="M135 0q-16 -18 -28 -36q-11 -16 -19 -35.5t-8 -38.5q0 -45 50 -45q22 0 41 7q10 4 19 8v-50q-9 -4 -20 -8q-9 -3 -20.5 -5t-25.5 -2q-45 0 -69.5 24t-24.5 66q0 24 8 45t19 37q12 18 28 33h50z" />
    <glyph glyph-name="ring" unicode="&#x2da;" horiz-adv-x="250" 
d="M80 600q0 -23 13 -36.5t32 -13.5t32 13.5t13 36.5t-13 36.5t-32 13.5t-32 -13.5t-13 -36.5zM220 600q0 -42 -26.5 -68.5t-68.5 -26.5t-68.5 26.5t-26.5 68.5t26.5 68.5t68.5 26.5t68.5 -26.5t26.5 -68.5z" />
    <glyph glyph-name="dotaccent" unicode="&#x2d9;" horiz-adv-x="150" 
d="M30 640q0 19 13 32t32 13t32 -13t13 -32t-13 -32t-32 -13t-32 13t-13 32z" />
    <glyph glyph-name="caron" unicode="&#x2c7;" horiz-adv-x="350" 
d="M210 565h-70l-110 135h65l80 -95l80 95h65z" />
    <glyph glyph-name="cedilla" unicode="&#xb8;" horiz-adv-x="240" 
d="M160 20l-35 -75h5q38 0 59 -20t21 -52t-25 -55t-70 -23q-19 0 -34.5 5t-26.5 11q-13 7 -24 16l20 33q7 -8 17 -13q8 -5 20.5 -8.5t27.5 -3.5q23 0 36.5 12.5t13.5 27.5t-10.5 25t-29.5 10q-7 0 -12.5 -1.5t-9.5 -3.5q-4 -3 -8 -5l-25 25l45 95h45z" />
    <glyph glyph-name="commaaccent" unicode="&#xf6c3;" horiz-adv-x="170" 
d="M75 -80h65l-60 -135h-50z" />
    <glyph glyph-name="hungarumlaut" unicode="&#x2dd;" horiz-adv-x="365" 
d="M105 700h75l-96 -135h-54zM259 700h76l-95 -135h-55z" />
    <glyph glyph-name="afii57929" unicode="&#x2bc;" horiz-adv-x="170" 
d="M75 700h65l-60 -135h-50z" />
    <glyph glyph-name="afii10017" unicode="&#x410;" horiz-adv-x="700" 
d="M350 595l-135 -330h270zM185 195l-80 -195h-80l290 700h70l290 -700h-80l-80 195h-330z" />
    <glyph glyph-name="afii10019" unicode="&#x412;" horiz-adv-x="670" 
d="M490 374q31 -15 57 -38q22 -21 40 -54t18 -82q0 -43 -15.5 -79.5t-43.5 -63.5t-67.5 -42t-88.5 -15h-285v700h270q43 0 79 -14t61.5 -38.5t40 -57.5t14.5 -70q0 -42 -12.5 -69.5t-27.5 -44.5q-18 -21 -40 -32zM390 70q64 0 102 36.5t38 93.5q0 28 -10 53.5t-28 44.5
t-44 30.5t-58 11.5h-210v-270h210zM180 630v-225h195q57 0 88.5 30.5t31.5 84.5q0 49 -31.5 79.5t-88.5 30.5h-195z" />
    <glyph glyph-name="afii10022" unicode="&#x415;" horiz-adv-x="640" 
d="M595 70v-70h-490v700h480v-70h-405v-230h325v-70h-325v-260h415z" />
    <glyph glyph-name="afii10028" unicode="&#x41a;" horiz-adv-x="670" 
d="M540 700h95l-265 -290l290 -410h-90l-250 355l-140 -150v-205h-75v700h75v-395z" />
    <glyph glyph-name="afii10030" unicode="&#x41c;" horiz-adv-x="920" 
d="M460 200l-280 370v-570h-75v700h65l290 -380l290 380h65v-700h-75v570z" />
    <glyph glyph-name="afii10031" unicode="&#x41d;" horiz-adv-x="750" 
d="M105 700h75v-310h390v310h75v-700h-75v320h-390v-320h-75v700z" />
    <glyph glyph-name="afii10032" unicode="&#x41e;" horiz-adv-x="840" 
d="M135 350q0 -62 22 -115t60.5 -92t90.5 -61t112 -22t112 22t90.5 61t60.5 92t22 115t-22 115t-60.5 92t-90.5 61t-112 22t-112 -22t-90.5 -61t-60.5 -92t-22 -115zM780 350q0 -75 -28 -140.5t-77 -114.5t-114.5 -77t-140.5 -28t-140.5 28t-114.5 77t-77 114.5t-28 140.5
t28 140.5t77 114.5t114.5 77t140.5 28t140.5 -28t114.5 -77t77 -114.5t28 -140.5z" />
    <glyph glyph-name="afii10034" unicode="&#x420;" horiz-adv-x="650" 
d="M370 700q49 0 90 -17t71 -46.5t47 -69.5t17 -87t-17 -87t-47 -69.5t-71 -46.5t-90 -17h-190v-260h-75v700h265zM180 630v-300h190q68 0 109 41t41 109t-41 109t-109 41h-190z" />
    <glyph glyph-name="afii10035" unicode="&#x421;" horiz-adv-x="755" 
d="M60 350q0 75 28 140.5t77 114.5t114.5 77t140.5 28q72 0 125 -23t89 -50q41 -32 71 -72l-50 -45q-24 34 -58 60q-29 23 -73 41.5t-104 18.5t-112 -22t-90.5 -61t-60.5 -92t-22 -115t22 -115t60.5 -92t90.5 -61t112 -22t105 18.5t75 41.5q35 26 60 60l50 -45
q-31 -41 -74 -73q-37 -27 -90.5 -49.5t-125.5 -22.5q-75 0 -140.5 28t-114.5 77t-77 114.5t-28 140.5z" />
    <glyph glyph-name="afii10036" unicode="&#x422;" horiz-adv-x="555" 
d="M535 700v-70h-220v-630h-75v630h-220v70h515z" />
    <glyph glyph-name="afii10039" unicode="&#x425;" horiz-adv-x="650" 
d="M520 700h90l-240 -335l260 -365h-90l-215 305l-215 -305h-90l260 365l-240 335h90l195 -275z" />
    <glyph glyph-name="afii10037" unicode="&#x423;" horiz-adv-x="610" 
d="M515 700h80l-260 -545q-21 -43 -41.5 -74t-44.5 -51.5t-53 -30t-66 -9.5q-26 0 -46 5q-11 2 -19 5v70q7 -3 17 -5q18 -5 43 -5q24 0 42.5 5.5t33.5 17.5t28 30t26 42l30 55q-65 123 -130.5 245t-129.5 245h80l220 -410z" />
    <glyph glyph-name="quoteleft" unicode="&#x2018;" horiz-adv-x="210" 
d="M25 540l115 180l45 -25l-95 -195z" />
    <glyph glyph-name="quoteright" unicode="&#x2019;" horiz-adv-x="210" 
d="M185 680l-115 -180l-45 25l95 195z" />
    <glyph glyph-name="grave" unicode="`" horiz-adv-x="210" 
d="M180 565h-55l-95 135h75z" />
    <glyph glyph-name="quotesingle" unicode="'" horiz-adv-x="195" 
d="M130 490h-65v210h65v-210z" />
    <glyph glyph-name="quotedbl" unicode="&#x22;" horiz-adv-x="350" 
d="M130 490h-65v210h65v-210zM285 490h-65v210h65v-210z" />
    <glyph glyph-name="quotesinglbase" unicode="&#x201a;" horiz-adv-x="215" 
d="M160 50l-115 -175l-45 20l90 195z" />
    <glyph glyph-name="afii10052" unicode="&#x403;" horiz-adv-x="550" 
d="M370 930h75l-95 -135h-55zM105 700h435v-70h-360v-630h-75v700z" />
    <glyph glyph-name="afii10061" unicode="&#x40c;" horiz-adv-x="670" 
d="M540 700h95l-265 -290l290 -410h-90l-250 355l-140 -150v-205h-75v700h75v-395zM400 930h75l-95 -135h-55z" />
    <glyph glyph-name="afii10062" unicode="&#x40e;" horiz-adv-x="610" 
d="M310 795q-60 0 -97.5 37.5t-37.5 97.5h55q0 -34 23 -57t57 -23t57 23t23 57h55q0 -60 -37.5 -97.5t-97.5 -37.5zM515 700h80l-260 -545q-21 -43 -41.5 -74t-44.5 -51.5t-53 -30t-66 -9.5q-26 0 -46 5q-11 2 -19 5v70q7 -3 17 -5q18 -5 43 -5q24 0 42.5 5.5t33.5 17.5
t28 30t26 42l30 55q-65 123 -130.5 245t-129.5 245h80l220 -410z" />
    <glyph glyph-name="afii10057" unicode="&#x408;" horiz-adv-x="495" 
d="M395 700v-495q0 -47 -16 -86.5t-44.5 -68t-68 -44.5t-86.5 -16q-42 0 -73 12.5t-53 27.5q-26 18 -44 40l50 50q12 -17 30 -30q15 -11 37.5 -20.5t52.5 -9.5q64 0 102 38.5t38 106.5v495h75z" />
    <glyph glyph-name="afii10055" unicode="&#x406;" horiz-adv-x="285" 
d="M105 700h75v-700h-75v700z" />
    <glyph glyph-name="afii10054" unicode="&#x405;" horiz-adv-x="565" 
d="M440 190q0 34 -16.5 55.5t-43 36.5t-60.5 25.5t-70 21.5t-70 24.5t-60.5 35t-43 53t-16.5 78.5q0 38 15.5 72.5t45 60.5t71 41.5t93.5 15.5q51 0 89 -14t64 -31q30 -20 52 -45l-50 -50q-16 19 -39 35q-20 13 -48.5 24t-67.5 11q-36 0 -64 -10t-47 -26.5t-29 -38
t-10 -45.5q0 -45 28 -69.5t70.5 -40.5t91.5 -29t91.5 -34.5t70.5 -58t28 -98.5q0 -43 -15.5 -79.5t-45.5 -63.5t-74 -42t-100 -15q-60 0 -104.5 16t-73.5 36q-34 23 -57 53l46 51q19 -25 46 -43q23 -17 58.5 -30t84.5 -13q79 0 119.5 36.5t40.5 93.5z" />
    <glyph glyph-name="afii10056" unicode="&#x407;" horiz-adv-x="285" 
d="M105 700h75v-700h-75v700zM6 855q0 19 13 32t32 13t32 -13t13 -32t-13 -32t-32 -13t-32 13t-13 32zM196 855q0 19 13 32t32 13t32 -13t13 -32t-13 -32t-32 -13t-32 13t-13 32z" />
    <glyph glyph-name="Eth" unicode="&#xd0;" horiz-adv-x="765" 
d="M340 700q77 0 143.5 -28t116 -76t77.5 -111.5t28 -134.5t-28 -134.5t-77.5 -111.5t-116 -76t-143.5 -28h-220v315h-95v70h95v315h220zM195 630v-245h170v-70h-170v-245h145q62 0 115 22t92 60t61 89t22 109t-22 109t-61 89t-92 60t-115 22h-145z" />
    <glyph glyph-name="uni00AD" unicode="&#xad;" horiz-adv-x="425" 
d="M380 260h-335v65h335v-65z" />
    <glyph glyph-name="uni20BD" unicode="&#x20bd;" horiz-adv-x="670" 
d="M50 350h80v350h260q49 0 89.5 -16t69.5 -44t45 -66.5t16 -83.5t-16 -83.5t-45 -66.5t-69.5 -44t-89.5 -16h-185v-85h245v-70h-245v-125h-75v125h-80v70h80v85h-80v70zM205 630v-280h185q32 0 58.5 10.5t46 29.5t30 44.5t10.5 55.5t-10.5 55.5t-30 44.5t-46 29.5
t-58.5 10.5h-185z" />
    <glyph glyph-name="zero" unicode="0" horiz-adv-x="680" 
d="M135 350q0 -71 17.5 -125.5t46 -91t65.5 -55t77 -18.5q39 0 75.5 18.5t65 55t46 91t17.5 125.5t-17.5 125.5t-46 91t-65.5 55t-76 18.5t-76 -18.5t-65.5 -55t-46 -91t-17.5 -125.5zM620 350q0 -84 -23.5 -151t-62 -113.5t-89 -71t-104.5 -24.5q-55 0 -105.5 24.5
t-89.5 71t-62.5 113.5t-23.5 151t23.5 151t62.5 113.5t89.5 71t104.5 24.5t104.5 -24.5t89.5 -71t62.5 -113.5t23.5 -151z" />
    <glyph glyph-name="cyrBreve" unicode="&#xf6d1;" horiz-adv-x="330" 
d="M165 795q-60 0 -97.5 37.5t-37.5 97.5h55q0 -34 23 -57t57 -23t57 23t23 57h55q0 -60 -37.5 -97.5t-97.5 -37.5z" />
    <glyph glyph-name="cyrbreve" unicode="&#xf6d4;" horiz-adv-x="330" 
d="M165 615q38 0 59 21.5t21 63.5h55q0 -60 -37.5 -97.5t-97.5 -37.5t-97.5 37.5t-37.5 97.5h55q0 -42 21 -63.5t59 -21.5z" />
    <glyph glyph-name="uni1E9E" unicode="&#x1e9e;" horiz-adv-x="650" 
d="M390 420q41 0 77.5 -16t63.5 -44t43 -66.5t16 -83.5q0 -43 -17 -81.5t-47.5 -67t-72.5 -45t-93 -16.5h-50v70h50q36 0 64.5 10.5t48.5 29.5t31 44.5t11 55.5t-11 55.5t-30.5 44.5t-47 29.5t-61.5 10.5h-55v70l160 210h-155q-64 0 -102 -38.5t-38 -105.5v-486h-75v486
q0 46 16 85.5t44.5 68t68 44.5t86.5 16h235v-70z" />
    <glyph glyph-name="asciicircum" unicode="^" horiz-adv-x="400" 
d="M225 700l130 -280h-65l-90 200l-90 -200h-65l130 280h50z" />
    <glyph glyph-name="greaterequal" unicode="&#x2265;" horiz-adv-x="495" 
d="M450 330l-405 -190v70l310 140l-310 140v70l405 -190v-40zM450 15h-405v65h405v-65z" />
    <glyph glyph-name="two" unicode="2" horiz-adv-x="550" 
d="M40 0q0 74 28 126t69.5 91.5t90 70.5t90 62.5t69.5 68t28 86.5q0 60 -39 97.5t-111 37.5q-48 0 -76.5 -18.5t-45.5 -41.5q-19 -26 -28 -60l-65 30q13 45 40 80q12 15 28 29.5t37.5 25.5t48.5 18t61 7q51 0 92.5 -16t71 -43.5t45.5 -65t16 -80.5q0 -54 -23 -94t-58.5 -73
t-78.5 -61.5t-83.5 -59t-73.5 -66t-48 -81.5h365v-70h-450z" />
    <glyph glyph-name="one" unicode="1" horiz-adv-x="350" 
d="M245 700v-700h-75v560h-130v45q45 2 74 17t46 32q19 20 30 46h55z" />
    <glyph glyph-name="Agrave" unicode="&#xc0;" horiz-adv-x="700" 
d="M350 595l-135 -330h270zM185 195l-80 -195h-80l290 700h70l290 -700h-80l-80 195h-330zM375 795h-55l-95 135h75z" />
    <glyph glyph-name="Aacute" unicode="&#xc1;" horiz-adv-x="700" 
d="M350 595l-135 -330h270zM185 195l-80 -195h-80l290 700h70l290 -700h-80l-80 195h-330zM405 930h75l-95 -135h-55z" />
    <glyph glyph-name="Abreve" unicode="&#x102;" horiz-adv-x="700" 
d="M350 595l-135 -330h270zM185 195l-80 -195h-80l290 700h70l290 -700h-80l-80 195h-330zM350 845q38 0 59 21.5t21 63.5h55q0 -60 -37.5 -97.5t-97.5 -37.5t-97.5 37.5t-37.5 97.5h55q0 -42 21 -63.5t59 -21.5z" />
    <glyph glyph-name="Acircumflex" unicode="&#xc2;" horiz-adv-x="700" 
d="M350 595l-135 -330h270zM185 195l-80 -195h-80l290 700h70l290 -700h-80l-80 195h-330zM495 795h-65l-80 95l-80 -95h-65l110 135h70z" />
    <glyph glyph-name="Adieresis" unicode="&#xc4;" horiz-adv-x="700" 
d="M350 595l-135 -330h270zM185 195l-80 -195h-80l290 700h70l290 -700h-80l-80 195h-330zM210 856q0 19 13 32t32 13t32 -13t13 -32t-13 -32t-32 -13t-32 13t-13 32zM400 856q0 19 13 32t32 13t32 -13t13 -32t-13 -32t-32 -13t-32 13t-13 32z" />
    <glyph glyph-name="Amacron" unicode="&#x100;" horiz-adv-x="700" 
d="M350 595l-135 -330h270zM185 195l-80 -195h-80l290 700h70l290 -700h-80l-80 195h-330zM495 830h-290v55h290v-55z" />
    <glyph glyph-name="Aring" unicode="&#xc5;" horiz-adv-x="700" 
d="M350 595l-135 -330h270zM185 195l-80 -195h-80l290 700h70l290 -700h-80l-80 195h-330zM305 860q0 -23 13 -36.5t32 -13.5t32 13.5t13 36.5t-13 36.5t-32 13.5t-32 -13.5t-13 -36.5zM445 860q0 -42 -26.5 -68.5t-68.5 -26.5t-68.5 26.5t-26.5 68.5t26.5 68.5t68.5 26.5
t68.5 -26.5t26.5 -68.5z" />
    <glyph glyph-name="Atilde" unicode="&#xc3;" horiz-adv-x="700" 
d="M350 595l-135 -330h270zM185 195l-80 -195h-80l290 700h70l290 -700h-80l-80 195h-330zM285 860q-15 0 -27.5 -15.5t-12.5 -49.5h-50q0 60 26 90t64 30q26 0 43.5 -10t31 -22.5t26 -22.5t29.5 -10q15 0 27.5 15.5t12.5 49.5h50q0 -60 -26 -90t-64 -30q-26 0 -43.5 10
t-31 22.5t-26 22.5t-29.5 10z" />
    <glyph glyph-name="Cacute" unicode="&#x106;" horiz-adv-x="750" 
d="M60 350q0 75 28 140.5t77 114.5t114.5 77t140.5 28q72 0 125 -23t89 -50q41 -32 71 -72l-50 -45q-24 34 -58 60q-29 23 -73 41.5t-104 18.5t-112 -22t-90.5 -61t-60.5 -92t-22 -115t22 -115t60.5 -92t90.5 -61t112 -22t105 18.5t75 41.5q35 26 60 60l50 -45
q-31 -41 -74 -73q-37 -27 -90.5 -49.5t-125.5 -22.5q-75 0 -140.5 28t-114.5 77t-77 114.5t-28 140.5zM455 930h75l-95 -135h-55z" />
    <glyph glyph-name="Ccaron" unicode="&#x10c;" horiz-adv-x="750" 
d="M60 350q0 75 28 140.5t77 114.5t114.5 77t140.5 28q72 0 125 -23t89 -50q41 -32 71 -72l-50 -45q-24 34 -58 60q-29 23 -73 41.5t-104 18.5t-112 -22t-90.5 -61t-60.5 -92t-22 -115t22 -115t60.5 -92t90.5 -61t112 -22t105 18.5t75 41.5q35 26 60 60l50 -45
q-31 -41 -74 -73q-37 -27 -90.5 -49.5t-125.5 -22.5q-75 0 -140.5 28t-114.5 77t-77 114.5t-28 140.5zM450 795h-70l-110 135h65l80 -95l80 95h65z" />
    <glyph glyph-name="Ccircumflex" unicode="&#x108;" horiz-adv-x="750" 
d="M60 350q0 75 28 140.5t77 114.5t114.5 77t140.5 28q72 0 125 -23t89 -50q41 -32 71 -72l-50 -45q-24 34 -58 60q-29 23 -73 41.5t-104 18.5t-112 -22t-90.5 -61t-60.5 -92t-22 -115t22 -115t60.5 -92t90.5 -61t112 -22t105 18.5t75 41.5q35 26 60 60l50 -45
q-31 -41 -74 -73q-37 -27 -90.5 -49.5t-125.5 -22.5q-75 0 -140.5 28t-114.5 77t-77 114.5t-28 140.5zM560 795h-65l-80 95l-80 -95h-65l110 135h70z" />
    <glyph glyph-name="Dcaron" unicode="&#x10e;" horiz-adv-x="750" 
d="M325 700q77 0 143.5 -28t116 -76t77.5 -111.5t28 -134.5t-28 -134.5t-77.5 -111.5t-116 -76t-143.5 -28h-220v700h220zM180 630v-560h145q62 0 115 22t92 60t61 89t22 109t-22 109t-61 89t-92 60t-115 22h-145zM405 795h-70l-110 135h65l80 -95l80 95h65z" />
    <glyph glyph-name="Egrave" unicode="&#xc8;" horiz-adv-x="640" 
d="M595 70v-70h-490v700h480v-70h-405v-230h325v-70h-325v-260h415zM390 795h-55l-95 135h75z" />
    <glyph glyph-name="Eacute" unicode="&#xc9;" horiz-adv-x="640" 
d="M595 70v-70h-490v700h480v-70h-405v-230h325v-70h-325v-260h415zM390 930h75l-95 -135h-55z" />
    <glyph glyph-name="Ecaron" unicode="&#x11a;" horiz-adv-x="640" 
d="M595 70v-70h-490v700h480v-70h-405v-230h325v-70h-325v-260h415zM390 790h-70l-110 135h65l80 -95l80 95h65z" />
    <glyph glyph-name="Edieresis" unicode="&#xcb;" horiz-adv-x="640" 
d="M595 70v-70h-490v700h480v-70h-405v-230h325v-70h-325v-260h415zM210 855q0 19 13 32t32 13t32 -13t13 -32t-13 -32t-32 -13t-32 13t-13 32zM400 855q0 19 13 32t32 13t32 -13t13 -32t-13 -32t-32 -13t-32 13t-13 32z" />
    <glyph glyph-name="Edotaccent" unicode="&#x116;" horiz-adv-x="640" 
d="M595 70v-70h-490v700h480v-70h-405v-230h325v-70h-325v-260h415zM305 860q0 19 13 32t32 13t32 -13t13 -32t-13 -32t-32 -13t-32 13t-13 32z" />
    <glyph glyph-name="Ecircumflex" unicode="&#xca;" horiz-adv-x="640" 
d="M595 70v-70h-490v700h480v-70h-405v-230h325v-70h-325v-260h415zM495 790h-65l-80 95l-80 -95h-65l110 135h70z" />
    <glyph glyph-name="Emacron" unicode="&#x112;" horiz-adv-x="640" 
d="M595 70v-70h-490v700h480v-70h-405v-230h325v-70h-325v-260h415zM495 830h-290v55h290v-55z" />
    <glyph glyph-name="Gbreve" unicode="&#x11e;" horiz-adv-x="795" 
d="M60 350q0 75 28 140.5t77 114.5t114.5 77t140.5 28q72 0 125 -23t89 -50q41 -32 71 -72l-50 -45q-24 34 -58 60q-29 23 -73 41.5t-104 18.5t-112 -22t-90.5 -61t-60.5 -92t-22 -115t22 -115t60.5 -92t90.5 -61t112 -22q57 0 98 14.5t68 32.5q32 21 54 48v135h-160v70h235
v-225q-32 -41 -76 -73q-38 -27 -92.5 -49.5t-126.5 -22.5q-75 0 -140.5 28t-114.5 77t-77 114.5t-28 140.5zM410 840q38 0 59 21.5t21 63.5h55q0 -60 -37.5 -97.5t-97.5 -37.5t-97.5 37.5t-37.5 97.5h55q0 -42 21 -63.5t59 -21.5z" />
    <glyph glyph-name="Gcommaaccent" unicode="&#x122;" horiz-adv-x="795" 
d="M60 350q0 75 28 140.5t77 114.5t114.5 77t140.5 28q72 0 125 -23t89 -50q41 -32 71 -72l-50 -45q-24 34 -58 60q-29 23 -73 41.5t-104 18.5t-112 -22t-90.5 -61t-60.5 -92t-22 -115t22 -115t60.5 -92t90.5 -61t112 -22q57 0 98 14.5t68 32.5q32 21 54 48v135h-160v70h235
v-225q-32 -41 -76 -73q-38 -27 -92.5 -49.5t-126.5 -22.5q-75 0 -140.5 28t-114.5 77t-77 114.5t-28 140.5zM385 -80h65l-60 -135h-50z" />
    <glyph glyph-name="Kcommaaccent" unicode="&#x136;" horiz-adv-x="670" 
d="M540 700h95l-265 -290l290 -410h-90l-250 355l-140 -150v-205h-75v700h75v-395zM326 -80h65l-60 -135h-50z" />
    <glyph glyph-name="Lacute" unicode="&#x139;" horiz-adv-x="560" 
d="M105 0v700h75v-630h360v-70h-435zM195 930h75l-95 -135h-55z" />
    <glyph glyph-name="Lcaron" unicode="&#x13d;" horiz-adv-x="560" 
d="M105 0v700h75v-630h360v-70h-435zM310 700h65l-60 -135h-50z" />
    <glyph glyph-name="Lcommaaccent" unicode="&#x13b;" horiz-adv-x="560" 
d="M105 0v700h75v-630h360v-70h-435zM300 -80h65l-60 -135h-50z" />
    <glyph glyph-name="Igrave" unicode="&#xcc;" horiz-adv-x="285" 
d="M105 700h75v-700h-75v700zM171 795h-55l-95 135h75z" />
    <glyph glyph-name="Iacute" unicode="&#xcd;" horiz-adv-x="285" 
d="M105 700h75v-700h-75v700zM195 930h75l-95 -135h-55z" />
    <glyph glyph-name="Icircumflex" unicode="&#xce;" horiz-adv-x="285" 
d="M105 700h75v-700h-75v700zM291 790h-65l-80 95l-80 -95h-65l110 135h70z" />
    <glyph glyph-name="Idieresis" unicode="&#xcf;" horiz-adv-x="285" 
d="M105 700h75v-700h-75v700zM6 855q0 19 13 32t32 13t32 -13t13 -32t-13 -32t-32 -13t-32 13t-13 32zM196 855q0 19 13 32t32 13t32 -13t13 -32t-13 -32t-32 -13t-32 13t-13 32z" />
    <glyph glyph-name="Idotaccent" unicode="&#x130;" horiz-adv-x="285" 
d="M105 700h75v-700h-75v700zM100 860q0 19 13 32t32 13t32 -13t13 -32t-13 -32t-32 -13t-32 13t-13 32z" />
    <glyph glyph-name="Imacron" unicode="&#x12a;" horiz-adv-x="285" 
d="M105 700h75v-700h-75v700zM291 830h-290v55h290v-55z" />
    <glyph glyph-name="Nacute" unicode="&#x143;" horiz-adv-x="780" 
d="M675 700v-700h-65l-430 565v-565h-75v700h65l430 -565v565h75zM440 930h75l-95 -135h-55z" />
    <glyph glyph-name="Ncaron" unicode="&#x147;" horiz-adv-x="780" 
d="M675 700v-700h-65l-430 565v-565h-75v700h65l430 -565v565h75zM430 790h-70l-110 135h65l80 -95l80 95h65z" />
    <glyph glyph-name="Ncommaaccent" unicode="&#x145;" horiz-adv-x="780" 
d="M675 700v-700h-65l-430 565v-565h-75v700h65l430 -565v565h75zM375 -80h65l-60 -135h-50z" />
    <glyph glyph-name="Ntilde" unicode="&#xd1;" horiz-adv-x="780" 
d="M675 700v-700h-65l-430 565v-565h-75v700h65l430 -565v565h75zM325 860q-15 0 -27.5 -15.5t-12.5 -49.5h-50q0 60 26 90t64 30q26 0 43.5 -10t31 -22.5t26 -22.5t29.5 -10q15 0 27.5 15.5t12.5 49.5h50q0 -60 -26 -90t-64 -30q-26 0 -43.5 10t-31 22.5t-26 22.5t-29.5 10
z" />
    <glyph glyph-name="Ograve" unicode="&#xd2;" horiz-adv-x="840" 
d="M135 350q0 -62 22 -115t60.5 -92t90.5 -61t112 -22t112 22t90.5 61t60.5 92t22 115t-22 115t-60.5 92t-90.5 61t-112 22t-112 -22t-90.5 -61t-60.5 -92t-22 -115zM780 350q0 -75 -28 -140.5t-77 -114.5t-114.5 -77t-140.5 -28t-140.5 28t-114.5 77t-77 114.5t-28 140.5
t28 140.5t77 114.5t114.5 77t140.5 28t140.5 -28t114.5 -77t77 -114.5t28 -140.5zM450 795h-55l-95 135h75z" />
    <glyph glyph-name="Oacute" unicode="&#xd3;" horiz-adv-x="840" 
d="M135 350q0 -62 22 -115t60.5 -92t90.5 -61t112 -22t112 22t90.5 61t60.5 92t22 115t-22 115t-60.5 92t-90.5 61t-112 22t-112 -22t-90.5 -61t-60.5 -92t-22 -115zM780 350q0 -75 -28 -140.5t-77 -114.5t-114.5 -77t-140.5 -28t-140.5 28t-114.5 77t-77 114.5t-28 140.5
t28 140.5t77 114.5t114.5 77t140.5 28t140.5 -28t114.5 -77t77 -114.5t28 -140.5zM475 930h75l-95 -135h-55z" />
    <glyph glyph-name="Ocircumflex" unicode="&#xd4;" horiz-adv-x="840" 
d="M135 350q0 -62 22 -115t60.5 -92t90.5 -61t112 -22t112 22t90.5 61t60.5 92t22 115t-22 115t-60.5 92t-90.5 61t-112 22t-112 -22t-90.5 -61t-60.5 -92t-22 -115zM780 350q0 -75 -28 -140.5t-77 -114.5t-114.5 -77t-140.5 -28t-140.5 28t-114.5 77t-77 114.5t-28 140.5
t28 140.5t77 114.5t114.5 77t140.5 28t140.5 -28t114.5 -77t77 -114.5t28 -140.5zM565 790h-65l-80 95l-80 -95h-65l110 135h70z" />
    <glyph glyph-name="Odieresis" unicode="&#xd6;" horiz-adv-x="840" 
d="M135 350q0 -62 22 -115t60.5 -92t90.5 -61t112 -22t112 22t90.5 61t60.5 92t22 115t-22 115t-60.5 92t-90.5 61t-112 22t-112 -22t-90.5 -61t-60.5 -92t-22 -115zM780 350q0 -75 -28 -140.5t-77 -114.5t-114.5 -77t-140.5 -28t-140.5 28t-114.5 77t-77 114.5t-28 140.5
t28 140.5t77 114.5t114.5 77t140.5 28t140.5 -28t114.5 -77t77 -114.5t28 -140.5zM280 855q0 19 13 32t32 13t32 -13t13 -32t-13 -32t-32 -13t-32 13t-13 32zM470 855q0 19 13 32t32 13t32 -13t13 -32t-13 -32t-32 -13t-32 13t-13 32z" />
    <glyph glyph-name="Ohungarumlaut" unicode="&#x150;" horiz-adv-x="840" 
d="M135 350q0 -62 22 -115t60.5 -92t90.5 -61t112 -22t112 22t90.5 61t60.5 92t22 115t-22 115t-60.5 92t-90.5 61t-112 22t-112 -22t-90.5 -61t-60.5 -92t-22 -115zM780 350q0 -75 -28 -140.5t-77 -114.5t-114.5 -77t-140.5 -28t-140.5 28t-114.5 77t-77 114.5t-28 140.5
t28 140.5t77 114.5t114.5 77t140.5 28t140.5 -28t114.5 -77t77 -114.5t28 -140.5zM390 925h75l-96 -135h-54zM544 925h76l-95 -135h-55z" />
    <glyph glyph-name="Omacron" unicode="&#x14c;" horiz-adv-x="840" 
d="M135 350q0 -62 22 -115t60.5 -92t90.5 -61t112 -22t112 22t90.5 61t60.5 92t22 115t-22 115t-60.5 92t-90.5 61t-112 22t-112 -22t-90.5 -61t-60.5 -92t-22 -115zM780 350q0 -75 -28 -140.5t-77 -114.5t-114.5 -77t-140.5 -28t-140.5 28t-114.5 77t-77 114.5t-28 140.5
t28 140.5t77 114.5t114.5 77t140.5 28t140.5 -28t114.5 -77t77 -114.5t28 -140.5zM565 830h-290v55h290v-55z" />
    <glyph glyph-name="Otilde" unicode="&#xd5;" horiz-adv-x="840" 
d="M135 350q0 -62 22 -115t60.5 -92t90.5 -61t112 -22t112 22t90.5 61t60.5 92t22 115t-22 115t-60.5 92t-90.5 61t-112 22t-112 -22t-90.5 -61t-60.5 -92t-22 -115zM780 350q0 -75 -28 -140.5t-77 -114.5t-114.5 -77t-140.5 -28t-140.5 28t-114.5 77t-77 114.5t-28 140.5
t28 140.5t77 114.5t114.5 77t140.5 28t140.5 -28t114.5 -77t77 -114.5t28 -140.5zM360 860q-15 0 -27.5 -15.5t-12.5 -49.5h-50q0 60 26 90t64 30q26 0 43.5 -10t31 -22.5t26 -22.5t29.5 -10q15 0 27.5 15.5t12.5 49.5h50q0 -60 -26 -90t-64 -30q-26 0 -43.5 10t-31 22.5
t-26 22.5t-29.5 10z" />
    <glyph glyph-name="Racute" unicode="&#x154;" horiz-adv-x="675" 
d="M385 700q47 0 86.5 -16t68 -44t44.5 -66.5t16 -83.5q0 -60 -23 -98.5t-50 -61.5q-32 -26 -72 -40l165 -290h-85l-155 280h-200v-280h-75v700h280zM180 630v-280h205q64 0 102 38t38 102t-38 102t-102 38h-205zM385 930h75l-95 -135h-55z" />
    <glyph glyph-name="Rcaron" unicode="&#x158;" horiz-adv-x="675" 
d="M385 700q47 0 86.5 -16t68 -44t44.5 -66.5t16 -83.5q0 -60 -23 -98.5t-50 -61.5q-32 -26 -72 -40l165 -290h-85l-155 280h-200v-280h-75v700h280zM180 630v-280h205q64 0 102 38t38 102t-38 102t-102 38h-205zM380 790h-70l-110 135h65l80 -95l80 95h65z" />
    <glyph glyph-name="Rcommaaccent" unicode="&#x156;" horiz-adv-x="675" 
d="M385 700q47 0 86.5 -16t68 -44t44.5 -66.5t16 -83.5q0 -60 -23 -98.5t-50 -61.5q-32 -26 -72 -40l165 -290h-85l-155 280h-200v-280h-75v700h280zM180 630v-280h205q64 0 102 38t38 102t-38 102t-102 38h-205zM320 -80h65l-60 -135h-50z" />
    <glyph glyph-name="Sacute" unicode="&#x15a;" horiz-adv-x="565" 
d="M440 190q0 34 -16.5 55.5t-43 36.5t-60.5 25.5t-70 21.5t-70 24.5t-60.5 35t-43 53t-16.5 78.5q0 38 15.5 72.5t45 60.5t71 41.5t93.5 15.5q51 0 89 -14t64 -31q30 -20 52 -45l-50 -50q-16 19 -39 35q-20 13 -48.5 24t-67.5 11q-36 0 -64 -10t-47 -26.5t-29 -38
t-10 -45.5q0 -45 28 -69.5t70.5 -40.5t91.5 -29t91.5 -34.5t70.5 -58t28 -98.5q0 -43 -15.5 -79.5t-45.5 -63.5t-74 -42t-100 -15q-60 0 -104.5 16t-73.5 36q-34 23 -57 53l46 51q19 -25 46 -43q23 -17 58.5 -30t84.5 -13q79 0 119.5 36.5t40.5 93.5zM330 930h75l-95 -135
h-55z" />
    <glyph glyph-name="Scaron" unicode="&#x160;" horiz-adv-x="565" 
d="M440 190q0 34 -16.5 55.5t-43 36.5t-60.5 25.5t-70 21.5t-70 24.5t-60.5 35t-43 53t-16.5 78.5q0 38 15.5 72.5t45 60.5t71 41.5t93.5 15.5q51 0 89 -14t64 -31q30 -20 52 -45l-50 -50q-16 19 -39 35q-20 13 -48.5 24t-67.5 11q-36 0 -64 -10t-47 -26.5t-29 -38
t-10 -45.5q0 -45 28 -69.5t70.5 -40.5t91.5 -29t91.5 -34.5t70.5 -58t28 -98.5q0 -43 -15.5 -79.5t-45.5 -63.5t-74 -42t-100 -15q-60 0 -104.5 16t-73.5 36q-34 23 -57 53l46 51q19 -25 46 -43q23 -17 58.5 -30t84.5 -13q79 0 119.5 36.5t40.5 93.5zM320 790h-70l-110 135
h65l80 -95l80 95h65z" />
    <glyph glyph-name="Scommaaccent" unicode="&#x218;" horiz-adv-x="565" 
d="M440 190q0 34 -16.5 55.5t-43 36.5t-60.5 25.5t-70 21.5t-70 24.5t-60.5 35t-43 53t-16.5 78.5q0 38 15.5 72.5t45 60.5t71 41.5t93.5 15.5q51 0 89 -14t64 -31q30 -20 52 -45l-50 -50q-16 19 -39 35q-20 13 -48.5 24t-67.5 11q-36 0 -64 -10t-47 -26.5t-29 -38
t-10 -45.5q0 -45 28 -69.5t70.5 -40.5t91.5 -29t91.5 -34.5t70.5 -58t28 -98.5q0 -43 -15.5 -79.5t-45.5 -63.5t-74 -42t-100 -15q-60 0 -104.5 16t-73.5 36q-34 23 -57 53l46 51q19 -25 46 -43q23 -17 58.5 -30t84.5 -13q79 0 119.5 36.5t40.5 93.5zM255 -80h65l-60 -135
h-50z" />
    <glyph glyph-name="Tcaron" unicode="&#x164;" horiz-adv-x="555" 
d="M535 700v-70h-220v-630h-75v630h-220v70h515zM315 790h-70l-110 135h65l80 -95l80 95h65z" />
    <glyph glyph-name="Tcommaaccent" unicode="&#x162;" horiz-adv-x="555" 
d="M535 700v-70h-220v-630h-75v630h-220v70h515zM245 -80h65l-60 -135h-50z" />
    <glyph glyph-name="Yacute" unicode="&#xdd;" horiz-adv-x="635" 
d="M320 325l210 375h85l-260 -455v-245h-75v245l-260 455h85l210 -375h5zM370 930h75l-95 -135h-55z" />
    <glyph glyph-name="Ydieresis" unicode="&#x178;" horiz-adv-x="635" 
d="M320 325l210 375h85l-260 -455v-245h-75v245l-260 455h85l210 -375h5zM180 855q0 19 13 32t32 13t32 -13t13 -32t-13 -32t-32 -13t-32 13t-13 32zM370 855q0 19 13 32t32 13t32 -13t13 -32t-13 -32t-32 -13t-32 13t-13 32z" />
    <glyph glyph-name="Ugrave" unicode="&#xd9;" horiz-adv-x="760" 
d="M380 60q43 0 81.5 16.5t67 46t45 68.5t16.5 84v425h75v-425q0 -58 -22.5 -110t-61.5 -91t-91 -61.5t-110 -22.5t-110 22.5t-91 61.5t-61.5 91t-22.5 110v425h75v-425q0 -45 16.5 -84t45 -68.5t67 -46t81.5 -16.5zM420 795h-55l-95 135h75z" />
    <glyph glyph-name="Uacute" unicode="&#xda;" horiz-adv-x="760" 
d="M380 60q43 0 81.5 16.5t67 46t45 68.5t16.5 84v425h75v-425q0 -58 -22.5 -110t-61.5 -91t-91 -61.5t-110 -22.5t-110 22.5t-91 61.5t-61.5 91t-22.5 110v425h75v-425q0 -45 16.5 -84t45 -68.5t67 -46t81.5 -16.5zM420 930h75l-95 -135h-55z" />
    <glyph glyph-name="Ucircumflex" unicode="&#xdb;" horiz-adv-x="760" 
d="M380 60q43 0 81.5 16.5t67 46t45 68.5t16.5 84v425h75v-425q0 -58 -22.5 -110t-61.5 -91t-91 -61.5t-110 -22.5t-110 22.5t-91 61.5t-61.5 91t-22.5 110v425h75v-425q0 -45 16.5 -84t45 -68.5t67 -46t81.5 -16.5zM525 790h-65l-80 95l-80 -95h-65l110 135h70z" />
    <glyph glyph-name="Udieresis" unicode="&#xdc;" horiz-adv-x="760" 
d="M380 60q43 0 81.5 16.5t67 46t45 68.5t16.5 84v425h75v-425q0 -58 -22.5 -110t-61.5 -91t-91 -61.5t-110 -22.5t-110 22.5t-91 61.5t-61.5 91t-22.5 110v425h75v-425q0 -45 16.5 -84t45 -68.5t67 -46t81.5 -16.5zM235 855q0 19 13 32t32 13t32 -13t13 -32t-13 -32
t-32 -13t-32 13t-13 32zM425 855q0 19 13 32t32 13t32 -13t13 -32t-13 -32t-32 -13t-32 13t-13 32z" />
    <glyph glyph-name="Umacron" unicode="&#x16a;" horiz-adv-x="760" 
d="M380 60q43 0 81.5 16.5t67 46t45 68.5t16.5 84v425h75v-425q0 -58 -22.5 -110t-61.5 -91t-91 -61.5t-110 -22.5t-110 22.5t-91 61.5t-61.5 91t-22.5 110v425h75v-425q0 -45 16.5 -84t45 -68.5t67 -46t81.5 -16.5zM525 830h-290v55h290v-55z" />
    <glyph glyph-name="Uhungarumlaut" unicode="&#x170;" horiz-adv-x="760" 
d="M380 60q43 0 81.5 16.5t67 46t45 68.5t16.5 84v425h75v-425q0 -58 -22.5 -110t-61.5 -91t-91 -61.5t-110 -22.5t-110 22.5t-91 61.5t-61.5 91t-22.5 110v425h75v-425q0 -45 16.5 -84t45 -68.5t67 -46t81.5 -16.5zM340 925h75l-96 -135h-54zM494 925h76l-95 -135h-55z" />
    <glyph glyph-name="Uring" unicode="&#x16e;" horiz-adv-x="760" 
d="M380 60q43 0 81.5 16.5t67 46t45 68.5t16.5 84v425h75v-425q0 -58 -22.5 -110t-61.5 -91t-91 -61.5t-110 -22.5t-110 22.5t-91 61.5t-61.5 91t-22.5 110v425h75v-425q0 -45 16.5 -84t45 -68.5t67 -46t81.5 -16.5zM335 870q0 -23 13 -36.5t32 -13.5t32 13.5t13 36.5
t-13 36.5t-32 13.5t-32 -13.5t-13 -36.5zM475 870q0 -42 -26.5 -68.5t-68.5 -26.5t-68.5 26.5t-26.5 68.5t26.5 68.5t68.5 26.5t68.5 -26.5t26.5 -68.5z" />
    <glyph glyph-name="Zacute" unicode="&#x179;" horiz-adv-x="600" 
d="M60 630v70h485v-70l-410 -560h420v-70h-510v70l410 560h-395zM345 930h75l-95 -135h-55z" />
    <glyph glyph-name="Zcaron" unicode="&#x17d;" horiz-adv-x="600" 
d="M60 630v70h485v-70l-410 -560h420v-70h-510v70l410 560h-395zM335 790h-70l-110 135h65l80 -95l80 95h65z" />
    <glyph glyph-name="Zdotaccent" unicode="&#x17b;" horiz-adv-x="600" 
d="M60 630v70h485v-70l-410 -560h420v-70h-510v70l410 560h-395zM250 860q0 19 13 32t32 13t32 -13t13 -32t-13 -32t-32 -13t-32 13t-13 32z" />
    <glyph glyph-name="percent" unicode="%" horiz-adv-x="760" 
d="M565 700h70l-440 -700h-70zM350 555q0 -32 -12.5 -60t-33.5 -49t-49 -33.5t-60 -12.5t-60 12.5t-49 33.5t-33.5 49t-12.5 60t12.5 60t33.5 49t49 33.5t60 12.5t60 -12.5t49 -33.5t33.5 -49t12.5 -60zM285 555q0 42 -26 68.5t-64 26.5t-64 -26.5t-26 -68.5t26 -68.5
t64 -26.5t64 26.5t26 68.5zM410 145q0 32 12.5 60t33.5 49t49 33.5t60 12.5t60 -12.5t49 -33.5t33.5 -49t12.5 -60t-12.5 -60t-33.5 -49t-49 -33.5t-60 -12.5t-60 12.5t-49 33.5t-33.5 49t-12.5 60zM475 145q0 -42 26 -68.5t64 -26.5t64 26.5t26 68.5t-26 68.5t-64 26.5
t-64 -26.5t-26 -68.5z" />
    <glyph glyph-name="at" unicode="@" horiz-adv-x="900" 
d="M440 370q-23 0 -43 -9t-35 -25.5t-23.5 -39.5t-8.5 -51t8.5 -51t23.5 -39.5t35 -25.5t43 -9q49 0 82 34t33 91t-33 91t-82 34zM435 430q32 0 55 -8.5t37 -19.5q17 -12 28 -27v50h60v-228q0 -41 16 -59t44 -18q18 0 34 8t28.5 25.5t20 46t7.5 70.5q0 63 -23.5 118
t-65.5 95.5t-99.5 63.5t-126.5 23q-66 0 -123 -24.5t-100 -68t-67.5 -102t-24.5 -125.5q0 -68 24.5 -126t67.5 -101.5t100 -68t123 -24.5q45 0 80 10t60 22q28 14 50 33l35 -45q-25 -22 -58 -40q-29 -15 -71 -27.5t-96 -12.5q-77 0 -146 30.5t-121 82.5t-82.5 121t-30.5 146
t30.5 146t82.5 121t121 82.5t146 30.5q80 0 149.5 -29t120.5 -78t80.5 -114.5t29.5 -138.5q0 -54 -12.5 -93.5t-33.5 -65.5t-49.5 -38.5t-59.5 -12.5t-51.5 10.5t-33.5 24.5q-15 15 -25 35q-11 -20 -29 -35q-16 -14 -41 -24.5t-60 -10.5q-34 0 -64.5 14t-54 39t-37.5 59
t-14 73t14 73t37.5 59t54 39t64.5 14z" />
    <glyph glyph-name="a" unicode="a" horiz-adv-x="520" 
d="M365 305q0 53 -33.5 86.5t-86.5 33.5q-32 0 -57 -11t-42 -24q-20 -16 -36 -35l-45 45q20 25 47 45q23 17 56 31t77 14q41 0 76 -14t60.5 -39t39.5 -59t14 -73v-305h-70v65q-15 -21 -38 -38q-20 -14 -49 -25.5t-68 -11.5q-38 0 -69 12t-53.5 31.5t-35 45t-12.5 51.5
q0 60 36 97t104 48zM210 55q34 0 62.5 11.5t49 32.5t32 50.5t11.5 65.5v30l-165 -30q-90 -17 -90 -85q0 -30 25.5 -52.5t74.5 -22.5z" />
    <glyph glyph-name="b" unicode="b" horiz-adv-x="600" 
d="M150 240q0 -38 14.5 -71.5t38.5 -58.5t54.5 -40t62.5 -15q30 0 58.5 14t51 39t36.5 59t14 73t-14 73t-36.5 59t-51 39t-58.5 14q-32 0 -62.5 -15t-54.5 -40t-38.5 -59t-14.5 -71zM150 405q18 24 44 42q22 16 53 29.5t73 13.5q45 0 86.5 -19.5t73.5 -53t51 -79.5t19 -98
q0 -53 -19 -98.5t-51 -79t-73.5 -53t-86.5 -19.5q-42 0 -73 13t-53 29q-26 18 -44 43v-75h-70v700h70v-295z" />
    <glyph glyph-name="c" unicode="c" horiz-adv-x="515" 
d="M40 240q0 52 19 98t52 79.5t76.5 53t92.5 19.5q47 0 83 -15t61 -33q29 -21 51 -47l-50 -50q-16 22 -37 40q-18 15 -45.5 27.5t-62.5 12.5q-34 0 -64.5 -14t-54 -39t-37.5 -59t-14 -73t14 -73t37.5 -59t54 -39t64.5 -14q35 0 63 12.5t48 27.5q23 18 39 40l50 -45
q-23 -28 -53 -50q-26 -19 -63 -34.5t-84 -15.5q-49 0 -92.5 19.5t-76.5 53t-52 79t-19 98.5z" />
    <glyph glyph-name="d" unicode="d" horiz-adv-x="600" 
d="M440 240q0 37 -14.5 71t-38.5 59t-54.5 40t-62.5 15q-30 0 -59 -14t-51.5 -39t-36 -59t-13.5 -73t13.5 -73t36 -59t51.5 -39t59 -14q32 0 62.5 15t54.5 40t38.5 58.5t14.5 71.5zM440 700h70v-700h-70v75q-18 -25 -44 -43q-22 -16 -53 -29t-73 -13q-45 0 -86.5 19.5
t-73.5 53t-51 79t-19 98.5q0 52 19 98t51 79.5t73.5 53t86.5 19.5q42 0 73 -13.5t53 -29.5q26 -18 44 -42v295z" />
    <glyph glyph-name="e" unicode="e" horiz-adv-x="555" 
d="M110 215q2 -32 16 -61t37 -51t53 -35t64 -13q38 0 66.5 12.5t48.5 27.5q23 18 40 40l45 -45q-21 -28 -51 -50q-26 -19 -63 -34.5t-86 -15.5t-92.5 19.5t-76.5 53t-52 79t-19 98.5q0 52 19 98t51.5 79.5t75 53t89.5 19.5q49 0 91 -18t73 -49.5t48.5 -76t17.5 -96.5
q0 -8 -1 -14.5t-2 -11.5q-1 -6 -2 -10zM275 425q-32 0 -60.5 -12t-50.5 -33t-36 -48.5t-18 -57.5h325q-4 32 -17.5 60t-34.5 48t-48.5 31.5t-59.5 11.5z" />
    <glyph glyph-name="f" unicode="f" horiz-adv-x="320" 
d="M285 415h-115v-415h-70v415h-75v65h75v90q0 68 35 104t95 36q15 0 27.5 -2.5t22.5 -5.5q11 -4 20 -7v-65q-8 3 -19 7q-9 3 -21 5.5t-25 2.5q-30 0 -47.5 -18.5t-17.5 -56.5v-90h115v-65z" />
    <glyph glyph-name="g" unicode="g" 
d="M425 90q-16 -22 -39 -40q-20 -15 -49.5 -27.5t-71.5 -12.5q-45 0 -86 18.5t-71.5 51t-49 76t-18.5 94.5t18.5 94.5t49 76t71.5 51t86 18.5q42 0 71.5 -12.5t49.5 -27.5q23 -18 39 -40v70h70v-450q0 -51 -18.5 -94.5t-50.5 -76t-74.5 -51t-91.5 -18.5q-51 0 -88.5 15.5
t-62.5 34.5q-29 22 -49 50l45 45q17 -22 40 -40q20 -15 48.5 -27.5t66.5 -12.5q34 0 64 13.5t52.5 36.5t35.5 55t13 70v60zM110 250q0 -38 13 -70t34.5 -55t49.5 -36.5t58 -13.5q32 0 61 13.5t51 36.5t35 55t13 70q0 37 -13 69.5t-35 55.5t-51 36.5t-61 13.5
q-30 0 -58 -13.5t-49.5 -36.5t-34.5 -55.5t-13 -69.5z" />
    <glyph glyph-name="h" unicode="h" horiz-adv-x="585" 
d="M150 410q15 22 38 40q20 15 48.5 27.5t68.5 12.5q43 0 79 -14.5t61.5 -41t40 -64.5t14.5 -85v-285h-70v285q0 64 -36.5 102t-93.5 38q-32 0 -59.5 -11.5t-47.5 -32.5t-31.5 -50.5t-11.5 -65.5v-265h-70v700h70v-290z" />
    <glyph glyph-name="i" unicode="i" horiz-adv-x="230" 
d="M75 480h70v-480h-70v480zM65 640q0 19 13 32t32 13t32 -13t13 -32t-13 -32t-32 -13t-32 13t-13 32z" />
    <glyph glyph-name="j" unicode="j" horiz-adv-x="230" 
d="M75 480h70v-550q0 -140 -130 -140q-14 0 -24.5 2t-18.5 5q-10 4 -17 8v65q7 -4 16 -8q17 -7 39 -7q30 0 47.5 18.5t17.5 56.5v550zM65 640q0 19 13 32t32 13t32 -13t13 -32t-13 -32t-32 -13t-32 13t-13 32z" />
    <glyph glyph-name="k" unicode="k" horiz-adv-x="510" 
d="M150 0h-70v700h70v-475l240 255h85l-185 -195l205 -285h-80l-170 235l-95 -100v-135z" />
    <glyph glyph-name="l" unicode="l" horiz-adv-x="240" 
d="M150 0h-70v700h70v-700z" />
    <glyph glyph-name="m" unicode="m" horiz-adv-x="870" 
d="M715 285q0 69 -33.5 104.5t-86.5 35.5q-26 0 -49.5 -11t-41.5 -31.5t-28.5 -50.5t-10.5 -67v-265h-70v285q0 68 -33.5 104t-86.5 36q-26 0 -49.5 -11t-41.5 -31.5t-28.5 -50.5t-10.5 -67v-265h-70v480h70v-60q13 19 32 35q17 13 42 24t61 11q43 0 73 -13.5t48 -29.5
q21 -18 34 -42q14 24 37 42q20 16 51.5 29.5t76.5 13.5q39 0 73 -13t59 -39t39 -64.5t14 -88.5v-285h-70v285z" />
    <glyph glyph-name="n" unicode="n" 
d="M145 410q15 22 38 40q20 15 48.5 27.5t68.5 12.5q43 0 79 -14.5t61.5 -41t40 -64.5t14.5 -85v-285h-70v285q0 64 -36.5 102t-93.5 38q-32 0 -59.5 -11.5t-47.5 -32.5t-31.5 -50.5t-11.5 -65.5v-265h-70v480h70v-70z" />
    <glyph glyph-name="o" unicode="o" 
d="M460 240q0 39 -14 73t-38 59t-55.5 39t-67.5 14t-67.5 -14t-55.5 -39t-38 -59t-14 -73t14 -73t38 -58.5t55.5 -39t67.5 -14.5t67.5 14t55.5 39t38 59t14 73zM40 240q0 52 19.5 98t52.5 79.5t77.5 53t95.5 19.5t95.5 -19.5t77.5 -53t52.5 -79.5t19.5 -98
q0 -53 -19.5 -98.5t-52.5 -79t-77.5 -53t-95.5 -19.5t-95.5 19.5t-77.5 53t-52.5 79t-19.5 98.5z" />
    <glyph glyph-name="p" unicode="p" horiz-adv-x="595" 
d="M145 240q0 -38 14.5 -71.5t38.5 -58.5t54.5 -40t62.5 -15q30 0 58.5 14t51 39t36.5 59t14 73t-14 73t-36.5 59t-51 39t-58.5 14q-32 0 -62.5 -15t-54.5 -40t-38.5 -59t-14.5 -71zM145 -210h-70v690h70v-75q18 24 44 42q22 16 53 29.5t73 13.5q45 0 86.5 -19.5t73.5 -53
t51 -79.5t19 -98q0 -53 -19 -98.5t-51 -79t-73.5 -53t-86.5 -19.5q-42 0 -73 13t-53 29q-26 18 -44 43v-285z" />
    <glyph glyph-name="q" unicode="q" horiz-adv-x="595" 
d="M440 240q0 37 -14.5 71t-38.5 59t-54.5 40t-62.5 15q-30 0 -59 -14t-51.5 -39t-36 -59t-13.5 -73t13.5 -73t36 -59t51.5 -39t59 -14q32 0 62.5 15t54.5 40t38.5 58.5t14.5 71.5zM440 75q-18 -25 -44 -43q-22 -16 -53 -29t-73 -13q-45 0 -86.5 19.5t-73.5 53t-51 79
t-19 98.5q0 52 19 98t51 79.5t73.5 53t86.5 19.5q42 0 73 -13.5t53 -29.5q26 -18 44 -42v75h70v-690h-70v285z" />
    <glyph glyph-name="r" unicode="r" horiz-adv-x="345" 
d="M325 420h-30q-30 0 -57 -11t-48 -31t-33 -48.5t-12 -64.5v-265h-70v480h70v-65q16 20 39 37q20 14 49.5 26t71.5 12h20v-70z" />
    <glyph glyph-name="s" unicode="s" horiz-adv-x="430" 
d="M315 375q-11 14 -26 25q-14 9 -33.5 17t-45.5 8q-41 0 -65.5 -22t-24.5 -48t19.5 -41t48 -25t62.5 -19.5t62.5 -25t48 -41.5t19.5 -68q0 -30 -12 -56.5t-34.5 -46t-55 -31t-73.5 -11.5q-45 0 -78 13t-55 29q-26 18 -42 43l50 50q14 -20 32 -35q16 -14 39.5 -24.5
t53.5 -10.5q53 0 79 23t26 57q0 27 -19.5 43t-48 26.5t-62.5 20t-62.5 24.5t-48 40t-19.5 66q0 26 11.5 50.5t32.5 43t50.5 30t65.5 11.5q38 0 66.5 -10.5t48.5 -22.5q23 -14 40 -32z" />
    <glyph glyph-name="t" unicode="t" horiz-adv-x="360" 
d="M120 640h65v-160h105v-65h-105v-285q0 -38 17.5 -56.5t47.5 -18.5q13 0 25 2t21 5q11 4 19 8v-65q-9 -4 -20 -8q-9 -3 -21.5 -5t-26.5 -2q-62 0 -97 36t-35 104v285h-90v65h55q40 0 40 50v110z" />
    <glyph glyph-name="u" unicode="u" horiz-adv-x="585" 
d="M425 65q-15 -21 -38 -38q-20 -14 -49 -25.5t-68 -11.5q-41 0 -77 15t-62 43t-41 66.5t-15 85.5v280h70v-280q0 -32 10.5 -58.5t29 -46t43 -30t52.5 -10.5q30 0 56.5 11.5t46 32.5t31 50.5t11.5 65.5v265h70v-480h-70v65z" />
    <glyph glyph-name="v" unicode="v" horiz-adv-x="490" 
d="M205 0l-195 480h75l155 -385l155 385h75l-195 -480h-70z" />
    <glyph glyph-name="w" unicode="w" horiz-adv-x="730" 
d="M390 480l120 -370l125 370h75l-165 -480h-65l-120 365l-120 -365h-65l-165 480h75l125 -370l120 370h60z" />
    <glyph glyph-name="x" unicode="x" horiz-adv-x="480" 
d="M95 0h-85l180 250l-165 230h85l125 -175l125 175h85l-165 -230l180 -250h-85l-140 195z" />
    <glyph glyph-name="y" unicode="y" horiz-adv-x="490" 
d="M205 0l-195 480h75l155 -390l155 390h75l-220 -550q-30 -75 -64 -107.5t-86 -32.5q-25 0 -43 5q-10 2 -17 5v65q8 -3 16 -5q15 -5 34 -5q34 0 55 18.5t35 56.5z" />
    <glyph glyph-name="z" unicode="z" horiz-adv-x="465" 
d="M410 415l-290 -350h300v-65h-385v65l290 350h-280v65h365v-65z" />
    <glyph glyph-name="afii10100" unicode="&#x453;" horiz-adv-x="410" 
d="M275 700h75l-95 -135h-55zM395 415h-250v-415h-70v480h320v-65z" />
    <glyph glyph-name="perthousand" unicode="&#x2030;" horiz-adv-x="1120" 
d="M565 700h70l-440 -700h-70zM350 555q0 -32 -12.5 -60t-33.5 -49t-49 -33.5t-60 -12.5t-60 12.5t-49 33.5t-33.5 49t-12.5 60t12.5 60t33.5 49t49 33.5t60 12.5t60 -12.5t49 -33.5t33.5 -49t12.5 -60zM285 555q0 42 -26 68.5t-64 26.5t-64 -26.5t-26 -68.5t26 -68.5
t64 -26.5t64 26.5t26 68.5zM410 145q0 32 12.5 60t33.5 49t49 33.5t60 12.5t60 -12.5t49 -33.5t33.5 -49t12.5 -60t-12.5 -60t-33.5 -49t-49 -33.5t-60 -12.5t-60 12.5t-49 33.5t-33.5 49t-12.5 60zM475 145q0 -42 26 -68.5t64 -26.5t64 26.5t26 68.5t-26 68.5t-64 26.5
t-64 -26.5t-26 -68.5zM770 145q0 32 12.5 60t33.5 49t49 33.5t60 12.5t60 -12.5t49 -33.5t33.5 -49t12.5 -60t-12.5 -60t-33.5 -49t-49 -33.5t-60 -12.5t-60 12.5t-49 33.5t-33.5 49t-12.5 60zM835 145q0 -42 26 -68.5t64 -26.5t64 26.5t26 68.5t-26 68.5t-64 26.5
t-64 -26.5t-26 -68.5z" />
    <glyph glyph-name="afii10099" unicode="&#x452;" 
d="M160 610h140v-65h-140v-165q15 22 38 40q20 15 48.5 27.5t68.5 12.5q43 0 80.5 -16.5t65 -46.5t43.5 -72.5t16 -94.5q0 -54 -17 -98.5t-46.5 -76t-69.5 -48.5t-87 -17v65q32 0 59.5 12t47.5 34.5t31.5 55t11.5 73.5q0 37 -11.5 67.5t-30.5 52.5t-44.5 33.5t-53.5 11.5
q-32 0 -59.5 -11.5t-47.5 -32.5t-31.5 -50.5t-11.5 -65.5v-235h-70v545h-85v65h85v90h70v-90z" />
    <glyph glyph-name="trademark" unicode="&#x2122;" horiz-adv-x="665" 
d="M455 470l-100 130v-200h-55v300h50l105 -140l105 140h50v-300h-55v200zM10 700h235v-50h-90v-250h-55v250h-90v50z" />
    <glyph glyph-name="afii10106" unicode="&#x459;" horiz-adv-x="805" 
d="M755 150q0 -68 -44 -109t-130 -41h-191v415h-195v-75q0 -109 -11 -177t-30.5 -106.5t-47 -52.5t-61.5 -14q-20 0 -35 5q-8 2 -15 5v70q5 -3 12 -5q12 -5 28 -5q21 0 37.5 9.5t28 39t18 84.5t6.5 147v140h335v-180h120q87 0 131 -41t44 -109zM581 65q52 0 78 23.5t26 61.5
t-26 61.5t-79 23.5h-120v-170h121z" />
    <glyph glyph-name="afii10107" unicode="&#x45a;" horiz-adv-x="815" 
d="M765 150q0 -68 -44 -109t-130 -41h-191v235h-255v-235h-70v480h70v-180h255v180h70v-180h120q87 0 131 -41t44 -109zM591 65q52 0 78 23.5t26 61.5t-26 61.5t-79 23.5h-120v-170h121z" />
    <glyph glyph-name="afii10109" unicode="&#x45c;" horiz-adv-x="505" 
d="M305 700h75l-95 -135h-55zM145 0h-70v480h70v-255l240 255h85l-185 -195l205 -285h-80l-170 235l-95 -100v-135z" />
    <glyph glyph-name="afii10108" unicode="&#x45b;" horiz-adv-x="595" 
d="M160 610h140v-65h-140v-165q15 22 38 40q20 15 48.5 27.5t68.5 12.5q43 0 79 -14.5t61.5 -41t40 -64.5t14.5 -85v-255h-70v255q0 64 -36.5 102t-93.5 38q-32 0 -59.5 -11.5t-47.5 -32.5t-31.5 -50.5t-11.5 -65.5v-235h-70v545h-85v65h85v90h70v-90z" />
    <glyph glyph-name="afii10193" unicode="&#x45f;" horiz-adv-x="570" 
d="M75 480h70v-415h270v415h70v-480h-170v-120h-70v120h-170v480z" />
    <glyph glyph-name="afii10110" unicode="&#x45e;" horiz-adv-x="490" 
d="M205 0l-195 480h75l155 -390l155 390h75l-220 -550q-30 -75 -64 -107.5t-86 -32.5q-25 0 -43 5q-10 2 -17 5v65q8 -3 16 -5q15 -5 34 -5q34 0 55 18.5t35 56.5zM240 615q38 0 59 21.5t21 63.5h55q0 -60 -37.5 -97.5t-97.5 -37.5t-97.5 37.5t-37.5 97.5h55q0 -42 21 -63.5
t59 -21.5z" />
    <glyph glyph-name="section" unicode="&#xa7;" horiz-adv-x="540" 
d="M135 320q0 -33 23 -55t53.5 -35.5t60.5 -21t43 -13.5q25 6 45 18q17 11 31 29.5t14 47.5q0 33 -23 55.5t-53.5 37t-60.5 23t-43 14.5q-26 -7 -45 -20q-17 -11 -31 -30.5t-14 -49.5zM475 290q0 -36 -15.5 -60.5t-34.5 -40.5q-22 -18 -50 -29q20 -11 37 -27
q14 -14 26 -34.5t12 -48.5q0 -32 -13.5 -61t-39 -51t-61.5 -35t-81 -13t-78.5 14t-56.5 31q-26 19 -45 45l50 50q14 -21 33 -38q17 -14 41 -25.5t56 -11.5q60 0 92.5 28.5t32.5 66.5q0 30 -23.5 48t-58.5 32.5t-75.5 28t-75.5 33.5t-58.5 50t-23.5 78q0 35 15.5 60.5
t34.5 42.5q22 19 50 32q-20 9 -35 24q-14 13 -24.5 32.5t-10.5 48.5q0 30 12.5 57t36 48t57 33t74.5 12q38 0 68 -11t50 -24q24 -16 42 -35l-50 -46q-13 14 -30 25q-14 10 -34.5 18t-45.5 8q-53 0 -81.5 -25.5t-28.5 -59.5q0 -30 23 -48.5t57.5 -32.5t74.5 -27.5t74.5 -33.5
t57.5 -50.5t23 -77.5z" />
    <glyph glyph-name="copyright" unicode="&#xa9;" horiz-adv-x="880" 
d="M140 350q0 -64 23 -118.5t63.5 -95t95 -63.5t118.5 -23t118.5 23t95 63.5t63.5 95t23 118.5t-23 118.5t-63.5 95t-95 63.5t-118.5 23t-118.5 -23t-95 -63.5t-63.5 -95t-23 -118.5zM315 350q0 -57 36.5 -93.5t93.5 -36.5q28 0 48.5 8t34.5 19q16 12 27 28l40 -40
q-16 -21 -38 -38q-19 -14 -46.5 -25.5t-65.5 -11.5q-41 0 -76 14t-60.5 39.5t-39.5 60.5t-14 76t14 76t39.5 60.5t60.5 39.5t76 14q38 0 65.5 -12t46.5 -26q22 -17 38 -37l-40 -40q-11 15 -27 27q-14 11 -34.5 19.5t-48.5 8.5q-57 0 -93.5 -36.5t-36.5 -93.5zM805 350
q0 -75 -28.5 -140.5t-77.5 -114.5t-116 -77t-143 -28q-77 0 -143.5 28t-115.5 77t-77.5 114.5t-28.5 140.5t28.5 140.5t77.5 114.5t115.5 77t143.5 28q76 0 143 -28t116 -77t77.5 -114.5t28.5 -140.5z" />
    <glyph glyph-name="registered" unicode="&#xae;" horiz-adv-x="880" 
d="M600 165h-64l-76 140h-85v-140h-60v370h141q56 0 90 -33t34 -82q0 -29 -11 -47.5t-24 -30.5q-16 -14 -35 -22zM375 365h85q65 0 65 55t-65 55h-85v-110zM140 350q0 -64 23 -118.5t63.5 -95t95 -63.5t118.5 -23t118.5 23t95 63.5t63.5 95t23 118.5t-23 118.5t-63.5 95
t-95 63.5t-118.5 23t-118.5 -23t-95 -63.5t-63.5 -95t-23 -118.5zM805 350q0 -75 -28.5 -140.5t-77.5 -114.5t-116 -77t-143 -28q-77 0 -143.5 28t-115.5 77t-77.5 114.5t-28.5 140.5t28.5 140.5t77.5 114.5t115.5 77t143.5 28q76 0 143 -28t116 -77t77.5 -114.5
t28.5 -140.5z" />
    <glyph glyph-name="degree" unicode="&#xb0;" horiz-adv-x="360" 
d="M100 575q0 -34 23 -57t57 -23t57 23t23 57t-23 57t-57 23t-57 -23t-23 -57zM320 575q0 -28 -10.5 -52.5t-29.5 -43t-44.5 -29t-55.5 -10.5t-55.5 10.5t-44.5 29t-29.5 43t-10.5 52.5t10.5 52.5t29.5 43t44.5 29t55.5 10.5t55.5 -10.5t44.5 -29t29.5 -43t10.5 -52.5z" />
    <glyph glyph-name="afii10103" unicode="&#x456;" horiz-adv-x="230" 
d="M75 480h70v-480h-70v480zM65 640q0 19 13 32t32 13t32 -13t13 -32t-13 -32t-32 -13t-32 13t-13 32z" />
    <glyph glyph-name="afii10098" unicode="&#x491;" horiz-adv-x="410" 
d="M75 480h254v120h66v-185h-250v-415h-70v480z" />
    <glyph glyph-name="mu" unicode="&#xb5;" 
d="M420 70q-15 -22 -36 -40q-18 -15 -46.5 -27.5t-67.5 -12.5q-32 0 -55 6t-39 14q-18 9 -31 20v-240h-70v690h70v-285q0 -64 36.5 -102t93.5 -38q30 0 55.5 11t44.5 31t29.5 48.5t10.5 64.5v270h70v-380q0 -19 13 -32t32 -13q10 0 18 2q4 1 7 3v-65q-4 -2 -8 -3t-9 -1.5
t-13 -0.5q-38 0 -58.5 12.5t-31.5 27.5q-12 18 -15 40z" />
    <glyph glyph-name="afii10071" unicode="&#x451;" horiz-adv-x="555" 
d="M110 215q2 -32 16 -61t37 -51t53 -35t64 -13q38 0 66.5 12.5t48.5 27.5q23 18 40 40l45 -45q-21 -28 -51 -50q-26 -19 -63 -34.5t-86 -15.5t-92.5 19.5t-76.5 53t-52 79t-19 98.5q0 52 19 98t51.5 79.5t75 53t89.5 19.5q49 0 91 -18t73 -49.5t48.5 -76t17.5 -96.5
q0 -8 -1 -14.5t-2 -11.5q-1 -6 -2 -10zM275 425q-32 0 -60.5 -12t-50.5 -33t-36 -48.5t-18 -57.5h325q-4 32 -17.5 60t-34.5 48t-48.5 31.5t-59.5 11.5zM134 632q0 19 13 32t32 13t32 -13t13 -32t-13 -32t-32 -13t-32 13t-13 32zM324 632q0 19 13 32t32 13t32 -13t13 -32
t-13 -32t-32 -13t-32 13t-13 32z" />
    <glyph glyph-name="afii10101" unicode="&#x454;" horiz-adv-x="515" 
d="M40 240q0 52 19 98t52 79.5t76.5 53t92.5 19.5q47 0 83 -15t61 -33q29 -21 51 -47l-50 -50q-16 22 -37 40q-18 15 -45.5 27.5t-62.5 12.5q-32 0 -60.5 -12t-50.5 -32.5t-36 -46.5t-18 -54h235v-65h-240q4 -32 19 -61t38 -51t52 -35t61 -13q35 0 63 12.5t48 27.5
q23 18 39 40l50 -45q-23 -28 -53 -50q-26 -19 -63 -34.5t-84 -15.5q-49 0 -92.5 19.5t-76.5 53t-52 79t-19 98.5z" />
    <glyph glyph-name="afii10105" unicode="&#x458;" horiz-adv-x="230" 
d="M75 480h70v-550q0 -140 -130 -140q-14 0 -24.5 2t-18.5 5q-10 4 -17 8v65q7 -4 16 -8q17 -7 39 -7q30 0 47.5 18.5t17.5 56.5v550zM65 640q0 19 13 32t32 13t32 -13t13 -32t-13 -32t-32 -13t-32 13t-13 32z" />
    <glyph glyph-name="afii10102" unicode="&#x455;" horiz-adv-x="430" 
d="M315 375q-11 14 -26 25q-14 9 -33.5 17t-45.5 8q-41 0 -65.5 -22t-24.5 -48t19.5 -41t48 -25t62.5 -19.5t62.5 -25t48 -41.5t19.5 -68q0 -30 -12 -56.5t-34.5 -46t-55 -31t-73.5 -11.5q-45 0 -78 13t-55 29q-26 18 -42 43l50 50q14 -20 32 -35q16 -14 39.5 -24.5
t53.5 -10.5q53 0 79 23t26 57q0 27 -19.5 43t-48 26.5t-62.5 20t-62.5 24.5t-48 40t-19.5 66q0 26 11.5 50.5t32.5 43t50.5 30t65.5 11.5q38 0 66.5 -10.5t48.5 -22.5q23 -14 40 -32z" />
    <glyph glyph-name="afii10104" unicode="&#x457;" horiz-adv-x="230" 
d="M-29 633q0 19 13 32t32 13t32 -13t13 -32t-13 -32t-32 -13t-32 13t-13 32zM161 633q0 19 13 32t32 13t32 -13t13 -32t-13 -32t-32 -13t-32 13t-13 32zM75 480h70v-480h-70v480z" />
    <glyph glyph-name="afii10065" unicode="&#x430;" horiz-adv-x="520" 
d="M365 305q0 53 -33.5 86.5t-86.5 33.5q-32 0 -57 -11t-42 -24q-20 -16 -36 -35l-45 45q20 25 47 45q23 17 56 31t77 14q41 0 76 -14t60.5 -39t39.5 -59t14 -73v-305h-70v65q-15 -21 -38 -38q-20 -14 -49 -25.5t-68 -11.5q-38 0 -69 12t-53.5 31.5t-35 45t-12.5 51.5
q0 60 36 97t104 48zM210 55q34 0 62.5 11.5t49 32.5t32 50.5t11.5 65.5v30l-165 -30q-90 -17 -90 -85q0 -30 25.5 -52.5t74.5 -22.5z" />
    <glyph glyph-name="afii10066" unicode="&#x431;" horiz-adv-x="585" 
d="M530 230q0 -51 -18.5 -94.5t-50.5 -76t-74.5 -51t-91.5 -18.5q-51 0 -94.5 19.5t-76 58.5t-51 97t-18.5 135q0 92 18.5 158.5t51.5 111.5t77.5 70.5t97.5 34.5q45 8 76 17.5t51 17.5q23 10 38 20l35 -55q-13 -10 -39 -21q-22 -10 -58 -21.5t-93 -22.5q-38 -8 -70 -25.5
t-56 -47t-38 -70t-16 -92.5q17 26 42 47q21 18 52.5 33t75.5 15q47 0 88.5 -18.5t73 -51t50 -76t18.5 -94.5zM130 230q0 -38 13 -70t35.5 -55t52.5 -36.5t64 -13.5t64 13.5t52.5 36.5t35.5 55t13 70q0 37 -13 69.5t-35.5 55.5t-52.5 36.5t-64 13.5t-64 -13.5t-52.5 -36.5
t-35.5 -55.5t-13 -69.5z" />
    <glyph glyph-name="afii10067" unicode="&#x432;" horiz-adv-x="520" 
d="M295 480q68 0 106.5 -36t38.5 -89q0 -26 -9.5 -45t-20.5 -31q-13 -14 -30 -24q22 -7 40 -22q15 -13 27.5 -35.5t12.5 -57.5q0 -64 -40 -102t-115 -38h-230v480h220zM145 225v-160h160q42 0 63.5 21t21.5 59t-21.5 59t-63.5 21h-160zM370 350q0 30 -18.5 47.5t-56.5 17.5
h-150v-130h150q38 0 56.5 17.5t18.5 47.5z" />
    <glyph glyph-name="afii10068" unicode="&#x433;" horiz-adv-x="410" 
d="M395 415h-250v-415h-70v480h320v-65z" />
    <glyph glyph-name="afii10069" unicode="&#x434;" horiz-adv-x="555" 
d="M520 -120h-70v120h-385v-120h-70v185h35q24 26 42 66q16 34 29.5 85.5t13.5 123.5v140h330v-415h75v-185zM185 340q0 -69 -12.5 -120.5t-27.5 -86.5q-18 -40 -40 -68h270v350h-190v-75z" />
    <glyph glyph-name="afii10070" unicode="&#x435;" horiz-adv-x="555" 
d="M110 215q2 -32 16 -61t37 -51t53 -35t64 -13q38 0 66.5 12.5t48.5 27.5q23 18 40 40l45 -45q-21 -28 -51 -50q-26 -19 -63 -34.5t-86 -15.5t-92.5 19.5t-76.5 53t-52 79t-19 98.5q0 52 19 98t51.5 79.5t75 53t89.5 19.5q49 0 91 -18t73 -49.5t48.5 -76t17.5 -96.5
q0 -8 -1 -14.5t-2 -11.5q-1 -6 -2 -10zM275 425q-32 0 -60.5 -12t-50.5 -33t-36 -48.5t-18 -57.5h325q-4 32 -17.5 60t-34.5 48t-48.5 31.5t-59.5 11.5z" />
    <glyph glyph-name="afii10072" unicode="&#x436;" horiz-adv-x="730" 
d="M255 235l-170 -235h-80l205 285l-185 195h85l215 -230v230h70v-230l215 230h85l-185 -195l205 -285h-80l-170 235l-70 -75v-160h-70v160z" />
    <glyph glyph-name="afii10073" unicode="&#x437;" horiz-adv-x="440" 
d="M365 355q0 -32 -12 -53t-26 -32q-17 -14 -37 -20q26 -6 47 -20q18 -12 33 -34.5t15 -60.5q0 -28 -11.5 -54t-34.5 -46.5t-57.5 -32.5t-81.5 -12q-45 0 -78.5 13t-56.5 29q-26 18 -45 43l45 45q16 -19 36 -33q17 -12 42 -22t57 -10q60 0 87.5 23t27.5 57t-27.5 57
t-87.5 23h-55v65h55q45 0 70 22.5t25 52.5t-23 50t-72 20q-29 0 -50.5 -8.5t-37.5 -19.5q-18 -12 -32 -27l-50 50q18 19 44 35q22 13 53 24t73 11q37 0 67.5 -11.5t52.5 -30t33.5 -43t11.5 -50.5z" />
    <glyph glyph-name="afii10074" unicode="&#x438;" 
d="M495 480v-480h-70v360l-290 -360h-60v480h70v-360l290 360h60z" />
    <glyph glyph-name="afii10075" unicode="&#x439;" 
d="M285 615q38 0 59 21.5t21 63.5h55q0 -60 -37.5 -97.5t-97.5 -37.5t-97.5 37.5t-37.5 97.5h55q0 -42 21 -63.5t59 -21.5zM495 480v-480h-70v360l-290 -360h-60v480h70v-360l290 360h60z" />
    <glyph glyph-name="afii10076" unicode="&#x43a;" horiz-adv-x="505" 
d="M145 0h-70v480h70v-255l240 255h85l-185 -195l205 -285h-80l-170 235l-95 -100v-135z" />
    <glyph glyph-name="afii10077" unicode="&#x43b;" horiz-adv-x="560" 
d="M475 480v-480h-70v415h-210v-75q0 -109 -11 -177t-30.5 -106.5t-47 -52.5t-61.5 -14q-20 0 -35 5q-8 2 -15 5v70q5 -3 12 -5q12 -5 28 -5q21 0 37.5 9.5t28 39t18 84.5t6.5 147v140h350z" />
    <glyph glyph-name="afii10078" unicode="&#x43c;" horiz-adv-x="650" 
d="M320 135l-175 220v-355h-70v480h55l190 -240l190 240h55v-480h-70v355z" />
    <glyph glyph-name="afii10079" unicode="&#x43d;" horiz-adv-x="575" 
d="M420 210h-275v-210h-70v480h70v-205h275v205h70v-480h-70v210z" />
    <glyph glyph-name="afii10080" unicode="&#x43e;" 
d="M460 240q0 39 -14 73t-38 59t-55.5 39t-67.5 14t-67.5 -14t-55.5 -39t-38 -59t-14 -73t14 -73t38 -58.5t55.5 -39t67.5 -14.5t67.5 14t55.5 39t38 59t14 73zM40 240q0 52 19.5 98t52.5 79.5t77.5 53t95.5 19.5t95.5 -19.5t77.5 -53t52.5 -79.5t19.5 -98
q0 -53 -19.5 -98.5t-52.5 -79t-77.5 -53t-95.5 -19.5t-95.5 19.5t-77.5 53t-52.5 79t-19.5 98.5z" />
    <glyph glyph-name="afii10081" unicode="&#x43f;" horiz-adv-x="575" 
d="M420 415h-275v-415h-70v480h415v-480h-70v415z" />
    <glyph glyph-name="afii10082" unicode="&#x440;" horiz-adv-x="595" 
d="M145 240q0 -38 14.5 -71.5t38.5 -58.5t54.5 -40t62.5 -15q30 0 58.5 14t51 39t36.5 59t14 73t-14 73t-36.5 59t-51 39t-58.5 14q-32 0 -62.5 -15t-54.5 -40t-38.5 -59t-14.5 -71zM145 -210h-70v690h70v-75q18 24 44 42q22 16 53 29.5t73 13.5q45 0 86.5 -19.5t73.5 -53
t51 -79.5t19 -98q0 -53 -19 -98.5t-51 -79t-73.5 -53t-86.5 -19.5q-42 0 -73 13t-53 29q-26 18 -44 43v-285z" />
    <glyph glyph-name="afii10083" unicode="&#x441;" horiz-adv-x="515" 
d="M40 240q0 52 19 98t52 79.5t76.5 53t92.5 19.5q47 0 83 -15t61 -33q29 -21 51 -47l-50 -50q-16 22 -37 40q-18 15 -45.5 27.5t-62.5 12.5q-34 0 -64.5 -14t-54 -39t-37.5 -59t-14 -73t14 -73t37.5 -59t54 -39t64.5 -14q35 0 63 12.5t48 27.5q23 18 39 40l50 -45
q-23 -28 -53 -50q-26 -19 -63 -34.5t-84 -15.5q-49 0 -92.5 19.5t-76.5 53t-52 79t-19 98.5z" />
    <glyph glyph-name="afii10084" unicode="&#x442;" horiz-adv-x="450" 
d="M15 480h410v-65h-170v-415h-70v415h-170v65z" />
    <glyph glyph-name="afii10085" unicode="&#x443;" horiz-adv-x="490" 
d="M205 0l-195 480h75l155 -390l155 390h75l-220 -550q-30 -75 -64 -107.5t-86 -32.5q-25 0 -43 5q-10 2 -17 5v65q8 -3 16 -5q15 -5 34 -5q34 0 55 18.5t35 56.5z" />
    <glyph glyph-name="afii10086" unicode="&#x444;" horiz-adv-x="710" 
d="M110 240q0 -40 14.5 -74t41 -58.5t64.5 -38.5t85 -14v370q-47 0 -85 -14t-64.5 -39t-41 -59t-14.5 -73zM590 240q0 39 -14.5 73t-41 59t-64.5 39t-85 14v-370q47 0 85 14t64.5 38.5t41 58.5t14.5 74zM385 -210h-70v200q-62 0 -112.5 19.5t-86.5 53t-56 79t-20 98.5
q0 52 20 98t56 79.5t86.5 53t112.5 19.5v210h70v-210q62 0 112.5 -19.5t86.5 -53t56 -79.5t20 -98q0 -53 -20 -98.5t-56 -79t-86.5 -53t-112.5 -19.5v-200z" />
    <glyph glyph-name="afii10087" unicode="&#x445;" horiz-adv-x="480" 
d="M95 0h-85l180 250l-165 230h85l125 -175l125 175h85l-165 -230l180 -250h-85l-140 195z" />
    <glyph glyph-name="afii10088" unicode="&#x446;" horiz-adv-x="590" 
d="M75 480h70v-415h265v415h70v-415h75v-185h-70v120h-410v480z" />
    <glyph glyph-name="afii10089" unicode="&#x447;" horiz-adv-x="540" 
d="M385 195q-17 -11 -38 -20q-18 -8 -42.5 -14t-54.5 -6q-41 0 -75 13.5t-58.5 38t-38 58.5t-13.5 75v140h70v-140q0 -53 33.5 -86.5t86.5 -33.5q30 0 54 7t41 15q19 10 35 23v215h70v-480h-70v195z" />
    <glyph glyph-name="afii10090" unicode="&#x448;" horiz-adv-x="780" 
d="M75 480h70v-415h205v415h71v-415h204v415h70v-480h-620v480z" />
    <glyph glyph-name="afii10091" unicode="&#x449;" horiz-adv-x="805" 
d="M75 480h70v-415h205v415h71v-415h204v415h70v-415h75v-185h-70v120h-625v480z" />
    <glyph glyph-name="afii10092" unicode="&#x44a;" horiz-adv-x="535" 
d="M485 160q0 -72 -46 -116t-128 -44h-191v415h-125v65h195v-160h120q83 0 129 -44t46 -116zM311 65q48 0 76 26.5t28 68.5t-28 68.5t-77 26.5h-120v-190h121z" />
    <glyph glyph-name="afii10093" unicode="&#x44b;" horiz-adv-x="685" 
d="M600 0h-70v480h70v-480zM266 65q48 0 76 26.5t28 68.5t-28 68.5t-77 26.5h-120v-190h121zM440 160q0 -72 -46 -116t-128 -44h-191v480h70v-160h120q83 0 129 -44t46 -116z" />
    <glyph glyph-name="afii10094" unicode="&#x44c;" horiz-adv-x="495" 
d="M271 65q48 0 76 26.5t28 68.5t-28 68.5t-77 26.5h-125v-190h126zM445 160q0 -72 -46 -116t-128 -44h-196v480h70v-160h125q83 0 129 -44t46 -116z" />
    <glyph glyph-name="afii10095" unicode="&#x44d;" horiz-adv-x="510" 
d="M460 240q0 -53 -19 -98.5t-52 -79t-76.5 -53t-92.5 -19.5q-48 0 -84.5 15.5t-62.5 34.5q-30 22 -53 50l50 45q16 -22 39 -40q20 -15 47.5 -27.5t63.5 -12.5q32 0 61 13t52 35t38 51t19 61h-240v65h235q-4 28 -18 54t-36 46.5t-50.5 32.5t-60.5 12q-36 0 -63 -12.5
t-45 -27.5q-21 -18 -37 -40l-50 50q22 26 51 47q25 18 60.5 33t83.5 15q49 0 92.5 -19.5t76.5 -53t52 -79.5t19 -98z" />
    <glyph glyph-name="afii10096" unicode="&#x44e;" horiz-adv-x="780" 
d="M730 240q0 -53 -19 -98.5t-52 -79t-76.5 -53t-92.5 -19.5q-47 0 -88 17.5t-73 47.5t-52.5 70t-26.5 85h-105v-210h-70v480h70v-205h105q6 43 26.5 82t52.5 68.5t73 47t88 17.5q49 0 92.5 -19.5t76.5 -53t52 -79.5t19 -98zM320 240q0 -39 14 -73t37.5 -59t54 -39t64.5 -14
t64.5 14t54 39t37.5 59t14 73t-14 73t-37.5 59t-54 39t-64.5 14t-64.5 -14t-54 -39t-37.5 -59t-14 -73z" />
    <glyph glyph-name="afii10097" unicode="&#x44f;" horiz-adv-x="510" 
d="M45 320q0 34 12.5 63t35.5 50.5t55.5 34t71.5 12.5h205v-480h-70v160h-140l-100 -160h-80l110 175q-28 9 -50 27q-19 16 -34.5 44.5t-15.5 73.5zM220 415q-49 0 -77 -26.5t-28 -68.5t28 -68.5t77 -26.5h135v190h-135z" />
    <glyph glyph-name="agrave" unicode="&#xe0;" horiz-adv-x="520" 
d="M365 305q0 53 -33.5 86.5t-86.5 33.5q-32 0 -57 -11t-42 -24q-20 -16 -36 -35l-45 45q20 25 47 45q23 17 56 31t77 14q41 0 76 -14t60.5 -39t39.5 -59t14 -73v-305h-70v65q-15 -21 -38 -38q-20 -14 -49 -25.5t-68 -11.5q-38 0 -69 12t-53.5 31.5t-35 45t-12.5 51.5
q0 60 36 97t104 48zM210 55q34 0 62.5 11.5t49 32.5t32 50.5t11.5 65.5v30l-165 -30q-90 -17 -90 -85q0 -30 25.5 -52.5t74.5 -22.5zM290 565h-55l-95 135h75z" />
    <glyph glyph-name="aacute" unicode="&#xe1;" horiz-adv-x="520" 
d="M365 305q0 53 -33.5 86.5t-86.5 33.5q-32 0 -57 -11t-42 -24q-20 -16 -36 -35l-45 45q20 25 47 45q23 17 56 31t77 14q41 0 76 -14t60.5 -39t39.5 -59t14 -73v-305h-70v65q-15 -21 -38 -38q-20 -14 -49 -25.5t-68 -11.5q-38 0 -69 12t-53.5 31.5t-35 45t-12.5 51.5
q0 60 36 97t104 48zM210 55q34 0 62.5 11.5t49 32.5t32 50.5t11.5 65.5v30l-165 -30q-90 -17 -90 -85q0 -30 25.5 -52.5t74.5 -22.5zM305 700h75l-95 -135h-55z" />
    <glyph glyph-name="abreve" unicode="&#x103;" horiz-adv-x="520" 
d="M365 305q0 53 -33.5 86.5t-86.5 33.5q-32 0 -57 -11t-42 -24q-20 -16 -36 -35l-45 45q20 25 47 45q23 17 56 31t77 14q41 0 76 -14t60.5 -39t39.5 -59t14 -73v-305h-70v65q-15 -21 -38 -38q-20 -14 -49 -25.5t-68 -11.5q-38 0 -69 12t-53.5 31.5t-35 45t-12.5 51.5
q0 60 36 97t104 48zM210 55q34 0 62.5 11.5t49 32.5t32 50.5t11.5 65.5v30l-165 -30q-90 -17 -90 -85q0 -30 25.5 -52.5t74.5 -22.5zM260 615q38 0 59 21.5t21 63.5h55q0 -60 -37.5 -97.5t-97.5 -37.5t-97.5 37.5t-37.5 97.5h55q0 -42 21 -63.5t59 -21.5z" />
    <glyph glyph-name="acircumflex" unicode="&#xe2;" horiz-adv-x="520" 
d="M365 305q0 53 -33.5 86.5t-86.5 33.5q-32 0 -57 -11t-42 -24q-20 -16 -36 -35l-45 45q20 25 47 45q23 17 56 31t77 14q41 0 76 -14t60.5 -39t39.5 -59t14 -73v-305h-70v65q-15 -21 -38 -38q-20 -14 -49 -25.5t-68 -11.5q-38 0 -69 12t-53.5 31.5t-35 45t-12.5 51.5
q0 60 36 97t104 48zM210 55q34 0 62.5 11.5t49 32.5t32 50.5t11.5 65.5v30l-165 -30q-90 -17 -90 -85q0 -30 25.5 -52.5t74.5 -22.5zM410 565h-65l-80 95l-80 -95h-65l110 135h70z" />
    <glyph glyph-name="adieresis" unicode="&#xe4;" horiz-adv-x="520" 
d="M365 305q0 53 -33.5 86.5t-86.5 33.5q-32 0 -57 -11t-42 -24q-20 -16 -36 -35l-45 45q20 25 47 45q23 17 56 31t77 14q41 0 76 -14t60.5 -39t39.5 -59t14 -73v-305h-70v65q-15 -21 -38 -38q-20 -14 -49 -25.5t-68 -11.5q-38 0 -69 12t-53.5 31.5t-35 45t-12.5 51.5
q0 60 36 97t104 48zM210 55q34 0 62.5 11.5t49 32.5t32 50.5t11.5 65.5v30l-165 -30q-90 -17 -90 -85q0 -30 25.5 -52.5t74.5 -22.5zM120 631q0 19 13 32t32 13t32 -13t13 -32t-13 -32t-32 -13t-32 13t-13 32zM310 631q0 19 13 32t32 13t32 -13t13 -32t-13 -32t-32 -13
t-32 13t-13 32z" />
    <glyph glyph-name="amacron" unicode="&#x101;" horiz-adv-x="520" 
d="M365 305q0 53 -33.5 86.5t-86.5 33.5q-32 0 -57 -11t-42 -24q-20 -16 -36 -35l-45 45q20 25 47 45q23 17 56 31t77 14q41 0 76 -14t60.5 -39t39.5 -59t14 -73v-305h-70v65q-15 -21 -38 -38q-20 -14 -49 -25.5t-68 -11.5q-38 0 -69 12t-53.5 31.5t-35 45t-12.5 51.5
q0 60 36 97t104 48zM210 55q34 0 62.5 11.5t49 32.5t32 50.5t11.5 65.5v30l-165 -30q-90 -17 -90 -85q0 -30 25.5 -52.5t74.5 -22.5zM405 611h-290v55h290v-55z" />
    <glyph glyph-name="aring" unicode="&#xe5;" horiz-adv-x="520" 
d="M365 305q0 53 -33.5 86.5t-86.5 33.5q-32 0 -57 -11t-42 -24q-20 -16 -36 -35l-45 45q20 25 47 45q23 17 56 31t77 14q41 0 76 -14t60.5 -39t39.5 -59t14 -73v-305h-70v65q-15 -21 -38 -38q-20 -14 -49 -25.5t-68 -11.5q-38 0 -69 12t-53.5 31.5t-35 45t-12.5 51.5
q0 60 36 97t104 48zM210 55q34 0 62.5 11.5t49 32.5t32 50.5t11.5 65.5v30l-165 -30q-90 -17 -90 -85q0 -30 25.5 -52.5t74.5 -22.5zM215 640q0 -23 13 -36.5t32 -13.5t32 13.5t13 36.5t-13 36.5t-32 13.5t-32 -13.5t-13 -36.5zM355 640q0 -42 -26.5 -68.5t-68.5 -26.5
t-68.5 26.5t-26.5 68.5t26.5 68.5t68.5 26.5t68.5 -26.5t26.5 -68.5z" />
    <glyph glyph-name="atilde" unicode="&#xe3;" horiz-adv-x="520" 
d="M365 305q0 53 -33.5 86.5t-86.5 33.5q-32 0 -57 -11t-42 -24q-20 -16 -36 -35l-45 45q20 25 47 45q23 17 56 31t77 14q41 0 76 -14t60.5 -39t39.5 -59t14 -73v-305h-70v65q-15 -21 -38 -38q-20 -14 -49 -25.5t-68 -11.5q-38 0 -69 12t-53.5 31.5t-35 45t-12.5 51.5
q0 60 36 97t104 48zM210 55q34 0 62.5 11.5t49 32.5t32 50.5t11.5 65.5v30l-165 -30q-90 -17 -90 -85q0 -30 25.5 -52.5t74.5 -22.5zM195 631q-15 0 -27.5 -15.5t-12.5 -49.5h-50q0 60 26 90t64 30q26 0 43.5 -10t31 -22.5t26 -22.5t29.5 -10q15 0 27.5 15.5t12.5 49.5h50
q0 -60 -26 -90t-64 -30q-26 0 -43.5 10t-31 22.5t-26 22.5t-29.5 10z" />
    <glyph glyph-name="ae" unicode="&#xe6;" horiz-adv-x="870" 
d="M440 215q2 -32 16 -61t37 -51t52.5 -35t61.5 -13q38 0 65.5 12.5t46.5 27.5q22 18 38 40l46 -45q-21 -28 -50 -50q-25 -19 -61.5 -34.5t-84.5 -15.5q-51 0 -89 18.5t-63 41.5q-30 26 -50 60q-16 -34 -43 -60q-23 -23 -60.5 -41.5t-91.5 -18.5q-39 0 -70.5 11.5
t-53.5 30.5t-34 44.5t-12 53.5q0 30 12.5 57t34.5 48t52 33t66 12h165v15q0 58 -33.5 94t-86.5 36q-32 0 -56 -11t-41 -24q-19 -16 -33 -35l-45 45q18 25 44 45q22 17 54.5 31t75.5 14q45 0 76.5 -15.5t51.5 -34.5q23 -22 38 -50q20 28 47 50q23 19 58 34.5t80 15.5t85 -18
t70 -50t47.5 -77.5t17.5 -99.5q0 -6 -1 -11l-2 -10t-2 -9h-375zM600 425q-30 0 -57.5 -12t-49 -32.5t-35.5 -46.5t-18 -54h315q-11 64 -53 104.5t-102 40.5zM210 55q36 0 65.5 13t50.5 35t32.5 51t11.5 61h-165q-45 0 -70 -23.5t-25 -61.5q0 -30 25.5 -52.5t74.5 -22.5z" />
    <glyph glyph-name="cacute" unicode="&#x107;" horiz-adv-x="515" 
d="M40 240q0 52 19 98t52 79.5t76.5 53t92.5 19.5q47 0 83 -15t61 -33q29 -21 51 -47l-50 -50q-16 22 -37 40q-18 15 -45.5 27.5t-62.5 12.5q-34 0 -64.5 -14t-54 -39t-37.5 -59t-14 -73t14 -73t37.5 -59t54 -39t64.5 -14q35 0 63 12.5t48 27.5q23 18 39 40l50 -45
q-23 -28 -53 -50q-26 -19 -63 -34.5t-84 -15.5q-49 0 -92.5 19.5t-76.5 53t-52 79t-19 98.5zM325 700h75l-95 -135h-55z" />
    <glyph glyph-name="ccaron" unicode="&#x10d;" horiz-adv-x="515" 
d="M40 240q0 52 19 98t52 79.5t76.5 53t92.5 19.5q47 0 83 -15t61 -33q29 -21 51 -47l-50 -50q-16 22 -37 40q-18 15 -45.5 27.5t-62.5 12.5q-34 0 -64.5 -14t-54 -39t-37.5 -59t-14 -73t14 -73t37.5 -59t54 -39t64.5 -14q35 0 63 12.5t48 27.5q23 18 39 40l50 -45
q-23 -28 -53 -50q-26 -19 -63 -34.5t-84 -15.5q-49 0 -92.5 19.5t-76.5 53t-52 79t-19 98.5zM310 565h-70l-110 135h65l80 -95l80 95h65z" />
    <glyph glyph-name="ccircumflex" unicode="&#x109;" horiz-adv-x="515" 
d="M40 240q0 52 19 98t52 79.5t76.5 53t92.5 19.5q47 0 83 -15t61 -33q29 -21 51 -47l-50 -50q-16 22 -37 40q-18 15 -45.5 27.5t-62.5 12.5q-34 0 -64.5 -14t-54 -39t-37.5 -59t-14 -73t14 -73t37.5 -59t54 -39t64.5 -14q35 0 63 12.5t48 27.5q23 18 39 40l50 -45
q-23 -28 -53 -50q-26 -19 -63 -34.5t-84 -15.5q-49 0 -92.5 19.5t-76.5 53t-52 79t-19 98.5zM420 565h-65l-80 95l-80 -95h-65l110 135h70z" />
    <glyph glyph-name="dcaron" unicode="&#x10f;" horiz-adv-x="645" 
d="M440 240q0 37 -14.5 71t-38.5 59t-54.5 40t-62.5 15q-30 0 -59 -14t-51.5 -39t-36 -59t-13.5 -73t13.5 -73t36 -59t51.5 -39t59 -14q32 0 62.5 15t54.5 40t38.5 58.5t14.5 71.5zM440 700h70v-700h-70v75q-18 -25 -44 -43q-22 -16 -53 -29t-73 -13q-45 0 -86.5 19.5
t-73.5 53t-51 79t-19 98.5q0 52 19 98t51 79.5t73.5 53t86.5 19.5q42 0 73 -13.5t53 -29.5q26 -18 44 -42v295zM620 700h65l-60 -135h-50z" />
    <glyph glyph-name="dcroat" unicode="&#x111;" horiz-adv-x="600" 
d="M435 545h-130v65h130v90h70v-90h80v-65h-80v-545h-70v75q-17 -25 -41 -43q-21 -16 -51.5 -29t-72.5 -13q-45 0 -86.5 19t-73.5 52t-51 76.5t-19 92.5t19 92.5t51 76.5t73.5 52t86.5 19q42 0 72.5 -13.5t51.5 -29.5q24 -18 41 -42v160zM435 230q0 36 -14 67.5t-37 55.5
t-52.5 38t-61.5 14q-30 0 -59 -14t-51.5 -38t-36 -55.5t-13.5 -67.5t13.5 -67.5t36 -55.5t51.5 -38t59 -14q32 0 61.5 14t52.5 38t37 55.5t14 67.5z" />
    <glyph glyph-name="eth" unicode="&#xf0;" horiz-adv-x="575" 
d="M335 660q48 -35 87 -88q33 -45 60.5 -115t27.5 -167q0 -73 -18.5 -129t-51 -94t-76 -57.5t-94.5 -19.5q-47 0 -88.5 18.5t-73 51t-50 76t-18.5 94.5q0 49 19 92.5t51 76.5t73.5 52t86.5 19q43 0 75 -15t53 -33q25 -21 42 -47q-11 62 -37 107.5t-52 76.5q-31 36 -66 61
l-115 -85l-35 55l90 65q-15 9 -33 19q-16 8 -37 16.5t-45 14.5l20 60q32 -10 59.5 -21.5t47.5 -22.5q24 -12 43 -26l120 85l35 -50zM430 230q0 37 -13 69.5t-35 55.5t-51 36.5t-61 13.5t-61 -13.5t-51 -36.5t-35 -55.5t-13 -69.5q0 -38 13 -70t35 -55t51 -36.5t61 -13.5
t61 13.5t51 36.5t35 55t13 70z" />
    <glyph glyph-name="egrave" unicode="&#xe8;" horiz-adv-x="555" 
d="M110 215q2 -32 16 -61t37 -51t53 -35t64 -13q38 0 66.5 12.5t48.5 27.5q23 18 40 40l45 -45q-21 -28 -51 -50q-26 -19 -63 -34.5t-86 -15.5t-92.5 19.5t-76.5 53t-52 79t-19 98.5q0 52 19 98t51.5 79.5t75 53t89.5 19.5q49 0 91 -18t73 -49.5t48.5 -76t17.5 -96.5
q0 -8 -1 -14.5t-2 -11.5q-1 -6 -2 -10zM275 425q-32 0 -60.5 -12t-50.5 -33t-36 -48.5t-18 -57.5h325q-4 32 -17.5 60t-34.5 48t-48.5 31.5t-59.5 11.5zM310 565h-55l-95 135h75z" />
    <glyph glyph-name="eacute" unicode="&#xe9;" horiz-adv-x="555" 
d="M110 215q2 -32 16 -61t37 -51t53 -35t64 -13q38 0 66.5 12.5t48.5 27.5q23 18 40 40l45 -45q-21 -28 -51 -50q-26 -19 -63 -34.5t-86 -15.5t-92.5 19.5t-76.5 53t-52 79t-19 98.5q0 52 19 98t51.5 79.5t75 53t89.5 19.5q49 0 91 -18t73 -49.5t48.5 -76t17.5 -96.5
q0 -8 -1 -14.5t-2 -11.5q-1 -6 -2 -10zM275 425q-32 0 -60.5 -12t-50.5 -33t-36 -48.5t-18 -57.5h325q-4 32 -17.5 60t-34.5 48t-48.5 31.5t-59.5 11.5zM325 700h75l-95 -135h-55z" />
    <glyph glyph-name="ecaron" unicode="&#x11b;" horiz-adv-x="555" 
d="M110 215q2 -32 16 -61t37 -51t53 -35t64 -13q38 0 66.5 12.5t48.5 27.5q23 18 40 40l45 -45q-21 -28 -51 -50q-26 -19 -63 -34.5t-86 -15.5t-92.5 19.5t-76.5 53t-52 79t-19 98.5q0 52 19 98t51.5 79.5t75 53t89.5 19.5q49 0 91 -18t73 -49.5t48.5 -76t17.5 -96.5
q0 -8 -1 -14.5t-2 -11.5q-1 -6 -2 -10zM275 425q-32 0 -60.5 -12t-50.5 -33t-36 -48.5t-18 -57.5h325q-4 32 -17.5 60t-34.5 48t-48.5 31.5t-59.5 11.5zM315 565h-70l-110 135h65l80 -95l80 95h65z" />
    <glyph glyph-name="ecircumflex" unicode="&#xea;" horiz-adv-x="555" 
d="M110 215q2 -32 16 -61t37 -51t53 -35t64 -13q38 0 66.5 12.5t48.5 27.5q23 18 40 40l45 -45q-21 -28 -51 -50q-26 -19 -63 -34.5t-86 -15.5t-92.5 19.5t-76.5 53t-52 79t-19 98.5q0 52 19 98t51.5 79.5t75 53t89.5 19.5q49 0 91 -18t73 -49.5t48.5 -76t17.5 -96.5
q0 -8 -1 -14.5t-2 -11.5q-1 -6 -2 -10zM275 425q-32 0 -60.5 -12t-50.5 -33t-36 -48.5t-18 -57.5h325q-4 32 -17.5 60t-34.5 48t-48.5 31.5t-59.5 11.5zM425 565h-65l-80 95l-80 -95h-65l110 135h70z" />
    <glyph glyph-name="edieresis" unicode="&#xeb;" horiz-adv-x="555" 
d="M110 215q2 -32 16 -61t37 -51t53 -35t64 -13q38 0 66.5 12.5t48.5 27.5q23 18 40 40l45 -45q-21 -28 -51 -50q-26 -19 -63 -34.5t-86 -15.5t-92.5 19.5t-76.5 53t-52 79t-19 98.5q0 52 19 98t51.5 79.5t75 53t89.5 19.5q49 0 91 -18t73 -49.5t48.5 -76t17.5 -96.5
q0 -8 -1 -14.5t-2 -11.5q-1 -6 -2 -10zM275 425q-32 0 -60.5 -12t-50.5 -33t-36 -48.5t-18 -57.5h325q-4 32 -17.5 60t-34.5 48t-48.5 31.5t-59.5 11.5zM135 631q0 19 13 32t32 13t32 -13t13 -32t-13 -32t-32 -13t-32 13t-13 32zM325 631q0 19 13 32t32 13t32 -13t13 -32
t-13 -32t-32 -13t-32 13t-13 32z" />
    <glyph glyph-name="edotaccent" unicode="&#x117;" horiz-adv-x="555" 
d="M110 215q2 -32 16 -61t37 -51t53 -35t64 -13q38 0 66.5 12.5t48.5 27.5q23 18 40 40l45 -45q-21 -28 -51 -50q-26 -19 -63 -34.5t-86 -15.5t-92.5 19.5t-76.5 53t-52 79t-19 98.5q0 52 19 98t51.5 79.5t75 53t89.5 19.5q49 0 91 -18t73 -49.5t48.5 -76t17.5 -96.5
q0 -8 -1 -14.5t-2 -11.5q-1 -6 -2 -10zM275 425q-32 0 -60.5 -12t-50.5 -33t-36 -48.5t-18 -57.5h325q-4 32 -17.5 60t-34.5 48t-48.5 31.5t-59.5 11.5zM230 631q0 19 13 32t32 13t32 -13t13 -32t-13 -32t-32 -13t-32 13t-13 32z" />
    <glyph glyph-name="emacron" unicode="&#x113;" horiz-adv-x="555" 
d="M110 215q2 -32 16 -61t37 -51t53 -35t64 -13q38 0 66.5 12.5t48.5 27.5q23 18 40 40l45 -45q-21 -28 -51 -50q-26 -19 -63 -34.5t-86 -15.5t-92.5 19.5t-76.5 53t-52 79t-19 98.5q0 52 19 98t51.5 79.5t75 53t89.5 19.5q49 0 91 -18t73 -49.5t48.5 -76t17.5 -96.5
q0 -8 -1 -14.5t-2 -11.5q-1 -6 -2 -10zM275 425q-32 0 -60.5 -12t-50.5 -33t-36 -48.5t-18 -57.5h325q-4 32 -17.5 60t-34.5 48t-48.5 31.5t-59.5 11.5zM425 601h-290v55h290v-55z" />
    <glyph glyph-name="gbreve" unicode="&#x11f;" 
d="M425 90q-16 -22 -39 -40q-20 -15 -49.5 -27.5t-71.5 -12.5q-45 0 -86 18.5t-71.5 51t-49 76t-18.5 94.5t18.5 94.5t49 76t71.5 51t86 18.5q42 0 71.5 -12.5t49.5 -27.5q23 -18 39 -40v70h70v-450q0 -51 -18.5 -94.5t-50.5 -76t-74.5 -51t-91.5 -18.5q-51 0 -88.5 15.5
t-62.5 34.5q-29 22 -49 50l45 45q17 -22 40 -40q20 -15 48.5 -27.5t66.5 -12.5q34 0 64 13.5t52.5 36.5t35.5 55t13 70v60zM110 250q0 -38 13 -70t34.5 -55t49.5 -36.5t58 -13.5q32 0 61 13.5t51 36.5t35 55t13 70q0 37 -13 69.5t-35 55.5t-51 36.5t-61 13.5
q-30 0 -58 -13.5t-49.5 -36.5t-34.5 -55.5t-13 -69.5zM280 615q38 0 59 21.5t21 63.5h55q0 -60 -37.5 -97.5t-97.5 -37.5t-97.5 37.5t-37.5 97.5h55q0 -42 21 -63.5t59 -21.5z" />
    <glyph glyph-name="gcommaaccent" unicode="&#x123;" 
d="M425 90q-16 -22 -39 -40q-20 -15 -49.5 -27.5t-71.5 -12.5q-45 0 -86 18.5t-71.5 51t-49 76t-18.5 94.5t18.5 94.5t49 76t71.5 51t86 18.5q42 0 71.5 -12.5t49.5 -27.5q23 -18 39 -40v70h70v-450q0 -51 -18.5 -94.5t-50.5 -76t-74.5 -51t-91.5 -18.5q-51 0 -88.5 15.5
t-62.5 34.5q-29 22 -49 50l45 45q17 -22 40 -40q20 -15 48.5 -27.5t66.5 -12.5q34 0 64 13.5t52.5 36.5t35.5 55t13 70v60zM110 250q0 -38 13 -70t34.5 -55t49.5 -36.5t58 -13.5q32 0 61 13.5t51 36.5t35 55t13 70q0 37 -13 69.5t-35 55.5t-51 36.5t-61 13.5
q-30 0 -58 -13.5t-49.5 -36.5t-34.5 -55.5t-13 -69.5zM305 565h-65l60 135h50z" />
    <glyph glyph-name="kcommaaccent" unicode="&#x137;" horiz-adv-x="510" 
d="M150 0h-70v700h70v-475l240 255h85l-185 -195l205 -285h-80l-170 235l-95 -100v-135zM245 -80h65l-60 -135h-50z" />
    <glyph glyph-name="lacute" unicode="&#x13a;" horiz-adv-x="240" 
d="M150 0h-70v700h70v-700zM165 930h75l-95 -135h-55z" />
    <glyph glyph-name="lcaron" unicode="&#x13e;" horiz-adv-x="285" 
d="M150 0h-70v700h70v-700zM255 700h65l-60 -135h-50z" />
    <glyph glyph-name="lcommaaccent" unicode="&#x13c;" horiz-adv-x="240" 
d="M150 0h-70v700h70v-700zM80 -80h65l-60 -135h-50z" />
    <glyph glyph-name="lslash" unicode="&#x142;" horiz-adv-x="350" 
d="M205 415l125 80l30 -50l-155 -100v-345h-70v310l-125 -75l-30 50l155 95v320h70v-285z" />
    <glyph glyph-name="igrave" unicode="&#xec;" horiz-adv-x="230" 
d="M136 565h-55l-95 135h75zM75 480h70v-480h-70v480z" />
    <glyph glyph-name="iacute" unicode="&#xed;" horiz-adv-x="230" 
d="M155 700h75l-95 -135h-55zM75 480h70v-480h-70v480z" />
    <glyph glyph-name="icircumflex" unicode="&#xee;" horiz-adv-x="230" 
d="M75 480h70v-480h-70v480zM256 565h-65l-80 95l-80 -95h-65l110 135h70z" />
    <glyph glyph-name="idieresis" unicode="&#xef;" horiz-adv-x="230" 
d="M-29 631q0 19 13 32t32 13t32 -13t13 -32t-13 -32t-32 -13t-32 13t-13 32zM161 631q0 19 13 32t32 13t32 -13t13 -32t-13 -32t-32 -13t-32 13t-13 32zM75 480h70v-480h-70v480z" />
    <glyph glyph-name="dotlessi" unicode="&#x131;" horiz-adv-x="230" 
d="M75 480h70v-480h-70v480z" />
    <glyph glyph-name="imacron" unicode="&#x12b;" horiz-adv-x="230" 
d="M256 601h-290v55h290v-55zM75 480h70v-480h-70v480z" />
    <glyph glyph-name="nacute" unicode="&#x144;" 
d="M145 410q15 22 38 40q20 15 48.5 27.5t68.5 12.5q43 0 79 -14.5t61.5 -41t40 -64.5t14.5 -85v-285h-70v285q0 64 -36.5 102t-93.5 38q-32 0 -59.5 -11.5t-47.5 -32.5t-31.5 -50.5t-11.5 -65.5v-265h-70v480h70v-70zM340 700h75l-95 -135h-55z" />
    <glyph glyph-name="ncaron" unicode="&#x148;" 
d="M145 410q15 22 38 40q20 15 48.5 27.5t68.5 12.5q43 0 79 -14.5t61.5 -41t40 -64.5t14.5 -85v-285h-70v285q0 64 -36.5 102t-93.5 38q-32 0 -59.5 -11.5t-47.5 -32.5t-31.5 -50.5t-11.5 -65.5v-265h-70v480h70v-70zM325 565h-70l-110 135h65l80 -95l80 95h65z" />
    <glyph glyph-name="ncommaaccent" unicode="&#x146;" 
d="M145 410q15 22 38 40q20 15 48.5 27.5t68.5 12.5q43 0 79 -14.5t61.5 -41t40 -64.5t14.5 -85v-285h-70v285q0 64 -36.5 102t-93.5 38q-32 0 -59.5 -11.5t-47.5 -32.5t-31.5 -50.5t-11.5 -65.5v-265h-70v480h70v-70zM255 -80h65l-60 -135h-50z" />
    <glyph glyph-name="ntilde" unicode="&#xf1;" 
d="M145 410q15 22 38 40q20 15 48.5 27.5t68.5 12.5q43 0 79 -14.5t61.5 -41t40 -64.5t14.5 -85v-285h-70v285q0 64 -36.5 102t-93.5 38q-32 0 -59.5 -11.5t-47.5 -32.5t-31.5 -50.5t-11.5 -65.5v-265h-70v480h70v-70zM220 631q-15 0 -27.5 -15.5t-12.5 -49.5h-50
q0 60 26 90t64 30q26 0 43.5 -10t31 -22.5t26 -22.5t29.5 -10q15 0 27.5 15.5t12.5 49.5h50q0 -60 -26 -90t-64 -30q-26 0 -43.5 10t-31 22.5t-26 22.5t-29.5 10z" />
    <glyph glyph-name="ograve" unicode="&#xf2;" 
d="M460 240q0 39 -14 73t-38 59t-55.5 39t-67.5 14t-67.5 -14t-55.5 -39t-38 -59t-14 -73t14 -73t38 -58.5t55.5 -39t67.5 -14.5t67.5 14t55.5 39t38 59t14 73zM40 240q0 52 19.5 98t52.5 79.5t77.5 53t95.5 19.5t95.5 -19.5t77.5 -53t52.5 -79.5t19.5 -98
q0 -53 -19.5 -98.5t-52.5 -79t-77.5 -53t-95.5 -19.5t-95.5 19.5t-77.5 53t-52.5 79t-19.5 98.5zM310 565h-55l-95 135h75z" />
    <glyph glyph-name="oacute" unicode="&#xf3;" 
d="M460 240q0 39 -14 73t-38 59t-55.5 39t-67.5 14t-67.5 -14t-55.5 -39t-38 -59t-14 -73t14 -73t38 -58.5t55.5 -39t67.5 -14.5t67.5 14t55.5 39t38 59t14 73zM40 240q0 52 19.5 98t52.5 79.5t77.5 53t95.5 19.5t95.5 -19.5t77.5 -53t52.5 -79.5t19.5 -98
q0 -53 -19.5 -98.5t-52.5 -79t-77.5 -53t-95.5 -19.5t-95.5 19.5t-77.5 53t-52.5 79t-19.5 98.5zM330 700h75l-95 -135h-55z" />
    <glyph glyph-name="ocircumflex" unicode="&#xf4;" 
d="M460 240q0 39 -14 73t-38 59t-55.5 39t-67.5 14t-67.5 -14t-55.5 -39t-38 -59t-14 -73t14 -73t38 -58.5t55.5 -39t67.5 -14.5t67.5 14t55.5 39t38 59t14 73zM40 240q0 52 19.5 98t52.5 79.5t77.5 53t95.5 19.5t95.5 -19.5t77.5 -53t52.5 -79.5t19.5 -98
q0 -53 -19.5 -98.5t-52.5 -79t-77.5 -53t-95.5 -19.5t-95.5 19.5t-77.5 53t-52.5 79t-19.5 98.5zM430 565h-65l-80 95l-80 -95h-65l110 135h70z" />
    <glyph glyph-name="odieresis" unicode="&#xf6;" 
d="M460 240q0 39 -14 73t-38 59t-55.5 39t-67.5 14t-67.5 -14t-55.5 -39t-38 -59t-14 -73t14 -73t38 -58.5t55.5 -39t67.5 -14.5t67.5 14t55.5 39t38 59t14 73zM40 240q0 52 19.5 98t52.5 79.5t77.5 53t95.5 19.5t95.5 -19.5t77.5 -53t52.5 -79.5t19.5 -98
q0 -53 -19.5 -98.5t-52.5 -79t-77.5 -53t-95.5 -19.5t-95.5 19.5t-77.5 53t-52.5 79t-19.5 98.5zM140 631q0 19 13 32t32 13t32 -13t13 -32t-13 -32t-32 -13t-32 13t-13 32zM330 631q0 19 13 32t32 13t32 -13t13 -32t-13 -32t-32 -13t-32 13t-13 32z" />
    <glyph glyph-name="ohungarumlaut" unicode="&#x151;" 
d="M460 240q0 39 -14 73t-38 59t-55.5 39t-67.5 14t-67.5 -14t-55.5 -39t-38 -59t-14 -73t14 -73t38 -58.5t55.5 -39t67.5 -14.5t67.5 14t55.5 39t38 59t14 73zM40 240q0 52 19.5 98t52.5 79.5t77.5 53t95.5 19.5t95.5 -19.5t77.5 -53t52.5 -79.5t19.5 -98
q0 -53 -19.5 -98.5t-52.5 -79t-77.5 -53t-95.5 -19.5t-95.5 19.5t-77.5 53t-52.5 79t-19.5 98.5zM250 700h75l-96 -135h-54zM404 700h76l-95 -135h-55z" />
    <glyph glyph-name="omacron" unicode="&#x14d;" 
d="M460 240q0 39 -14 73t-38 59t-55.5 39t-67.5 14t-67.5 -14t-55.5 -39t-38 -59t-14 -73t14 -73t38 -58.5t55.5 -39t67.5 -14.5t67.5 14t55.5 39t38 59t14 73zM40 240q0 52 19.5 98t52.5 79.5t77.5 53t95.5 19.5t95.5 -19.5t77.5 -53t52.5 -79.5t19.5 -98
q0 -53 -19.5 -98.5t-52.5 -79t-77.5 -53t-95.5 -19.5t-95.5 19.5t-77.5 53t-52.5 79t-19.5 98.5zM430 601h-290v55h290v-55z" />
    <glyph glyph-name="otilde" unicode="&#xf5;" 
d="M460 240q0 39 -14 73t-38 59t-55.5 39t-67.5 14t-67.5 -14t-55.5 -39t-38 -59t-14 -73t14 -73t38 -58.5t55.5 -39t67.5 -14.5t67.5 14t55.5 39t38 59t14 73zM40 240q0 52 19.5 98t52.5 79.5t77.5 53t95.5 19.5t95.5 -19.5t77.5 -53t52.5 -79.5t19.5 -98
q0 -53 -19.5 -98.5t-52.5 -79t-77.5 -53t-95.5 -19.5t-95.5 19.5t-77.5 53t-52.5 79t-19.5 98.5zM220 631q-15 0 -27.5 -15.5t-12.5 -49.5h-50q0 60 26 90t64 30q26 0 43.5 -10t31 -22.5t26 -22.5t29.5 -10q15 0 27.5 15.5t12.5 49.5h50q0 -60 -26 -90t-64 -30
q-26 0 -43.5 10t-31 22.5t-26 22.5t-29.5 10z" />
    <glyph glyph-name="oslash" unicode="&#xf8;" 
d="M385 390q-13 9 -28 17q-14 7 -31.5 12.5t-40.5 5.5q-36 0 -67.5 -14t-55.5 -39t-38 -59t-14 -73q0 -25 4.5 -44t10.5 -33q6 -16 15 -28zM460 240q0 24 -5 43.5t-10 33.5q-7 16 -15 28l-245 -255q11 -10 27 -18q13 -7 31.5 -12t41.5 -5q36 0 67.5 14t55.5 39t38 59t14 73z
M530 240q0 -53 -19.5 -98.5t-52.5 -79t-77.5 -53t-95.5 -19.5q-34 0 -60.5 7.5t-45.5 17.5q-22 11 -39 25l-65 -65l-45 45l65 65q-16 17 -28 40q-11 20 -19 48.5t-8 66.5q0 52 19.5 98t52.5 79.5t77.5 53t95.5 19.5q34 0 60.5 -8t45.5 -17q22 -11 39 -25l65 65l45 -45
l-65 -65q15 -17 27 -40q11 -20 19.5 -48.5t8.5 -66.5z" />
    <glyph glyph-name="oe" unicode="&#x153;" horiz-adv-x="940" 
d="M510 210q4 -32 18 -60t36 -49t50.5 -33.5t60.5 -12.5q38 0 65.5 12.5t46.5 27.5q22 18 38 40l45 -45q-21 -28 -49 -50q-25 -19 -61 -34.5t-85 -15.5q-53 0 -91 19.5t-62 42.5q-29 27 -47 63q-20 -36 -49 -63q-25 -23 -62.5 -42.5t-88.5 -19.5q-47 0 -89.5 19.5t-75 53
t-51.5 79t-19 98.5q0 52 19 98t51.5 79.5t75 53t89.5 19.5q51 0 88.5 -20t62.5 -43q29 -27 49 -62q18 35 46 62q24 23 61 43t88 20q45 0 85 -18t70 -50t47.5 -77.5t17.5 -99.5q0 -7 -1 -13t-2 -11q-1 -6 -2 -11h-375zM110 240q0 -39 14 -73t37 -59t52.5 -39t61.5 -14
t61.5 14t52.5 39t37 59t14 73t-14 73t-37 59t-52.5 39t-61.5 14t-61.5 -14t-52.5 -39t-37 -59t-14 -73zM670 425q-30 0 -57.5 -12t-49 -33t-35.5 -48t-18 -57h310q-4 34 -16.5 61.5t-32 47t-45.5 30.5t-56 11z" />
    <glyph glyph-name="racute" unicode="&#x155;" horiz-adv-x="345" 
d="M325 420h-30q-30 0 -57 -11t-48 -31t-33 -48.5t-12 -64.5v-265h-70v480h70v-65q16 20 39 37q20 14 49.5 26t71.5 12h20v-70zM245 700h75l-95 -135h-55z" />
    <glyph glyph-name="rcaron" unicode="&#x159;" horiz-adv-x="345" 
d="M325 420h-30q-30 0 -57 -11t-48 -31t-33 -48.5t-12 -64.5v-265h-70v480h70v-65q16 20 39 37q20 14 49.5 26t71.5 12h20v-70zM235 565h-70l-110 135h65l80 -95l80 95h65z" />
    <glyph glyph-name="rcommaaccent" unicode="&#x157;" horiz-adv-x="345" 
d="M325 420h-30q-30 0 -57 -11t-48 -31t-33 -48.5t-12 -64.5v-265h-70v480h70v-65q16 20 39 37q20 14 49.5 26t71.5 12h20v-70zM80 -80h65l-60 -135h-50z" />
    <glyph glyph-name="sacute" unicode="&#x15b;" horiz-adv-x="430" 
d="M315 375q-11 14 -26 25q-14 9 -33.5 17t-45.5 8q-41 0 -65.5 -22t-24.5 -48t19.5 -41t48 -25t62.5 -19.5t62.5 -25t48 -41.5t19.5 -68q0 -30 -12 -56.5t-34.5 -46t-55 -31t-73.5 -11.5q-45 0 -78 13t-55 29q-26 18 -42 43l50 50q14 -20 32 -35q16 -14 39.5 -24.5
t53.5 -10.5q53 0 79 23t26 57q0 27 -19.5 43t-48 26.5t-62.5 20t-62.5 24.5t-48 40t-19.5 66q0 26 11.5 50.5t32.5 43t50.5 30t65.5 11.5q38 0 66.5 -10.5t48.5 -22.5q23 -14 40 -32zM250 700h75l-95 -135h-55z" />
    <glyph glyph-name="scaron" unicode="&#x161;" horiz-adv-x="430" 
d="M315 375q-11 14 -26 25q-14 9 -33.5 17t-45.5 8q-41 0 -65.5 -22t-24.5 -48t19.5 -41t48 -25t62.5 -19.5t62.5 -25t48 -41.5t19.5 -68q0 -30 -12 -56.5t-34.5 -46t-55 -31t-73.5 -11.5q-45 0 -78 13t-55 29q-26 18 -42 43l50 50q14 -20 32 -35q16 -14 39.5 -24.5
t53.5 -10.5q53 0 79 23t26 57q0 27 -19.5 43t-48 26.5t-62.5 20t-62.5 24.5t-48 40t-19.5 66q0 26 11.5 50.5t32.5 43t50.5 30t65.5 11.5q38 0 66.5 -10.5t48.5 -22.5q23 -14 40 -32zM245 565h-70l-110 135h65l80 -95l80 95h65z" />
    <glyph glyph-name="scommaaccent" unicode="&#x219;" horiz-adv-x="430" 
d="M315 375q-11 14 -26 25q-14 9 -33.5 17t-45.5 8q-41 0 -65.5 -22t-24.5 -48t19.5 -41t48 -25t62.5 -19.5t62.5 -25t48 -41.5t19.5 -68q0 -30 -12 -56.5t-34.5 -46t-55 -31t-73.5 -11.5q-45 0 -78 13t-55 29q-26 18 -42 43l50 50q14 -20 32 -35q16 -14 39.5 -24.5
t53.5 -10.5q53 0 79 23t26 57q0 27 -19.5 43t-48 26.5t-62.5 20t-62.5 24.5t-48 40t-19.5 66q0 26 11.5 50.5t32.5 43t50.5 30t65.5 11.5q38 0 66.5 -10.5t48.5 -22.5q23 -14 40 -32zM175 -80h65l-60 -135h-50z" />
    <glyph glyph-name="thorn" unicode="&#xfe;" horiz-adv-x="600" 
d="M150 240q0 -38 14.5 -71.5t38.5 -58.5t54.5 -40t62.5 -15q30 0 58.5 14t51 39t36.5 59t14 73t-14 73t-36.5 59t-51 39t-58.5 14q-32 0 -62.5 -15t-54.5 -40t-38.5 -59t-14.5 -71zM150 -210h-70v910h70v-295q18 24 44 42q22 16 53 29.5t73 13.5q45 0 86.5 -19.5t73.5 -53
t51 -79.5t19 -98q0 -53 -19 -98.5t-51 -79t-73.5 -53t-86.5 -19.5q-42 0 -73 13t-53 29q-26 18 -44 43v-285z" />
    <glyph glyph-name="tcaron" unicode="&#x165;" horiz-adv-x="375" 
d="M120 640h65v-160h105v-65h-105v-285q0 -38 17.5 -56.5t47.5 -18.5q13 0 25 2t21 5q11 4 19 8v-65q-9 -4 -20 -8q-9 -3 -21.5 -5t-26.5 -2q-62 0 -97 36t-35 104v285h-90v65h55q40 0 40 50v110zM345 700h65l-60 -135h-50z" />
    <glyph glyph-name="tcommaaccent" unicode="&#x163;" horiz-adv-x="360" 
d="M120 640h65v-160h105v-65h-105v-285q0 -38 17.5 -56.5t47.5 -18.5q13 0 25 2t21 5q11 4 19 8v-65q-9 -4 -20 -8q-9 -3 -21.5 -5t-26.5 -2q-62 0 -97 36t-35 104v285h-90v65h55q40 0 40 50v110zM185 -80h65l-60 -135h-50z" />
    <glyph glyph-name="yacute" unicode="&#xfd;" horiz-adv-x="490" 
d="M205 0l-195 480h75l155 -390l155 390h75l-220 -550q-30 -75 -64 -107.5t-86 -32.5q-25 0 -43 5q-10 2 -17 5v65q8 -3 16 -5q15 -5 34 -5q34 0 55 18.5t35 56.5zM295 700h75l-95 -135h-55z" />
    <glyph glyph-name="ydieresis" unicode="&#xff;" horiz-adv-x="490" 
d="M205 0l-195 480h75l155 -390l155 390h75l-220 -550q-30 -75 -64 -107.5t-86 -32.5q-25 0 -43 5q-10 2 -17 5v65q8 -3 16 -5q15 -5 34 -5q34 0 55 18.5t35 56.5zM95 631q0 19 13 32t32 13t32 -13t13 -32t-13 -32t-32 -13t-32 13t-13 32zM285 631q0 19 13 32t32 13t32 -13
t13 -32t-13 -32t-32 -13t-32 13t-13 32z" />
    <glyph glyph-name="ugrave" unicode="&#xf9;" horiz-adv-x="585" 
d="M425 65q-15 -21 -38 -38q-20 -14 -49 -25.5t-68 -11.5q-41 0 -77 15t-62 43t-41 66.5t-15 85.5v280h70v-280q0 -32 10.5 -58.5t29 -46t43 -30t52.5 -10.5q30 0 56.5 11.5t46 32.5t31 50.5t11.5 65.5v265h70v-480h-70v65zM315 565h-55l-95 135h75z" />
    <glyph glyph-name="uacute" unicode="&#xfa;" horiz-adv-x="585" 
d="M425 65q-15 -21 -38 -38q-20 -14 -49 -25.5t-68 -11.5q-41 0 -77 15t-62 43t-41 66.5t-15 85.5v280h70v-280q0 -32 10.5 -58.5t29 -46t43 -30t52.5 -10.5q30 0 56.5 11.5t46 32.5t31 50.5t11.5 65.5v265h70v-480h-70v65zM325 700h75l-95 -135h-55z" />
    <glyph glyph-name="ucircumflex" unicode="&#xfb;" horiz-adv-x="585" 
d="M425 65q-15 -21 -38 -38q-20 -14 -49 -25.5t-68 -11.5q-41 0 -77 15t-62 43t-41 66.5t-15 85.5v280h70v-280q0 -32 10.5 -58.5t29 -46t43 -30t52.5 -10.5q30 0 56.5 11.5t46 32.5t31 50.5t11.5 65.5v265h70v-480h-70v65zM430 565h-65l-80 95l-80 -95h-65l110 135h70z" />
    <glyph glyph-name="udieresis" unicode="&#xfc;" horiz-adv-x="585" 
d="M425 65q-15 -21 -38 -38q-20 -14 -49 -25.5t-68 -11.5q-41 0 -77 15t-62 43t-41 66.5t-15 85.5v280h70v-280q0 -32 10.5 -58.5t29 -46t43 -30t52.5 -10.5q30 0 56.5 11.5t46 32.5t31 50.5t11.5 65.5v265h70v-480h-70v65zM140 626q0 19 13 32t32 13t32 -13t13 -32t-13 -32
t-32 -13t-32 13t-13 32zM330 626q0 19 13 32t32 13t32 -13t13 -32t-13 -32t-32 -13t-32 13t-13 32z" />
    <glyph glyph-name="uhungarumlaut" unicode="&#x171;" horiz-adv-x="585" 
d="M425 65q-15 -21 -38 -38q-20 -14 -49 -25.5t-68 -11.5q-41 0 -77 15t-62 43t-41 66.5t-15 85.5v280h70v-280q0 -32 10.5 -58.5t29 -46t43 -30t52.5 -10.5q30 0 56.5 11.5t46 32.5t31 50.5t11.5 65.5v265h70v-480h-70v65zM245 700h75l-96 -135h-54zM399 700h76l-95 -135
h-55z" />
    <glyph glyph-name="umacron" unicode="&#x16b;" horiz-adv-x="585" 
d="M425 65q-15 -21 -38 -38q-20 -14 -49 -25.5t-68 -11.5q-41 0 -77 15t-62 43t-41 66.5t-15 85.5v280h70v-280q0 -32 10.5 -58.5t29 -46t43 -30t52.5 -10.5q30 0 56.5 11.5t46 32.5t31 50.5t11.5 65.5v265h70v-480h-70v65zM430 601h-290v55h290v-55z" />
    <glyph glyph-name="uring" unicode="&#x16f;" horiz-adv-x="585" 
d="M425 65q-15 -21 -38 -38q-20 -14 -49 -25.5t-68 -11.5q-41 0 -77 15t-62 43t-41 66.5t-15 85.5v280h70v-280q0 -32 10.5 -58.5t29 -46t43 -30t52.5 -10.5q30 0 56.5 11.5t46 32.5t31 50.5t11.5 65.5v265h70v-480h-70v65zM235 640q0 -23 13 -36.5t32 -13.5t32 13.5
t13 36.5t-13 36.5t-32 13.5t-32 -13.5t-13 -36.5zM375 640q0 -42 -26.5 -68.5t-68.5 -26.5t-68.5 26.5t-26.5 68.5t26.5 68.5t68.5 26.5t68.5 -26.5t26.5 -68.5z" />
    <glyph glyph-name="zacute" unicode="&#x17a;" horiz-adv-x="465" 
d="M410 415l-290 -350h300v-65h-385v65l290 350h-280v65h365v-65zM270 700h75l-95 -135h-55z" />
    <glyph glyph-name="zcaron" unicode="&#x17e;" horiz-adv-x="465" 
d="M410 415l-290 -350h300v-65h-385v65l290 350h-280v65h365v-65zM260 565h-70l-110 135h65l80 -95l80 95h65z" />
    <glyph glyph-name="zdotaccent" unicode="&#x17c;" horiz-adv-x="465" 
d="M410 415l-290 -350h300v-65h-385v65l290 350h-280v65h365v-65zM175 626q0 19 13 32t32 13t32 -13t13 -32t-13 -32t-32 -13t-32 13t-13 32z" />
    <glyph glyph-name="cent" unicode="&#xa2;" horiz-adv-x="500" 
d="M40 240q0 49 16.5 91t44.5 74.5t65.5 54t78.5 27.5v103h65v-104q38 -6 66.5 -20.5t48.5 -28.5q23 -18 40 -37l-45 -45q-15 19 -36 35q-18 13 -44 24t-60 11t-64.5 -14t-54 -39t-37.5 -59t-14 -73t14 -73t37.5 -59t54 -39t64.5 -14t60 10.5t44 24.5q21 15 36 35l45 -45
q-17 -21 -40 -39q-20 -15 -48.5 -29t-66.5 -18v-104h-65v103q-41 6 -78.5 26.5t-65.5 52.5t-44.5 74.5t-16.5 93.5z" />
    <glyph glyph-name="florin" unicode="&#x192;" horiz-adv-x="350" 
d="M135 335h-80v65h90l35 170q14 72 50 106t100 34q13 0 24 -2.5t19 -5.5q10 -4 17 -7v-65q-7 3 -17 7q-8 3 -19 5.5t-24 2.5q-65 0 -80 -75l-35 -170h115v-65h-125l-75 -410q-25 -140 -150 -140q-14 0 -24.5 2t-18.5 5q-10 4 -17 8v65q7 -4 17 -8q8 -3 18.5 -5t24.5 -2
q66 0 80 75z" />
    <glyph glyph-name="germandbls" unicode="&#xdf;" horiz-adv-x="585" 
d="M395 385q37 -14 67 -38q26 -21 47 -55t21 -87q0 -43 -16 -80.5t-44.5 -65t-68 -43.5t-86.5 -16h-45v70h45q32 0 58.5 10.5t46 29t30 43t10.5 52.5t-10.5 52.5t-30 43t-46 29t-58.5 10.5h-45v70h10q26 0 49.5 9t41.5 24.5t28.5 36.5t10.5 45t-10 46t-27 38.5t-41 26
t-52 9.5t-52 -9.5t-41 -26.5t-27 -40t-10 -49v-520h-70v520q0 39 15 74t42 60.5t63.5 40.5t79.5 15t79.5 -15t63.5 -40t42 -59t15 -71t-13.5 -63.5t-29.5 -43.5q-18 -20 -42 -33z" />
    <glyph glyph-name="ordfeminine" unicode="&#xaa;" horiz-adv-x="330" 
d="M130 405q-21 0 -38 7t-30 18t-20 25.5t-7 29.5q0 73 90 90l105 20q0 30 -17.5 47.5t-47.5 17.5q-19 0 -33 -6t-23 -14q-11 -9 -19 -20l-35 30q11 17 27 30q14 11 34 20.5t49 9.5q57 0 86 -28.5t29 -81.5v-185h-50v40q-8 -14 -22 -25q-12 -10 -31 -17.5t-47 -7.5zM135 530
q-45 -9 -45 -40q0 -40 50 -40q38 0 64 25.5t26 64.5v10z" />
    <glyph glyph-name="ordmasculine" unicode="&#xba;" horiz-adv-x="360" 
d="M85 555q0 -49 26.5 -77t68.5 -28t68.5 28t26.5 77t-26.5 77t-68.5 28t-68.5 -28t-26.5 -77zM330 555q0 -34 -11.5 -62.5t-31.5 -49t-47.5 -32t-59.5 -11.5t-59.5 11.5t-47.5 32t-31.5 49t-11.5 62.5t11.5 62.5t31.5 49t47.5 32t59.5 11.5t59.5 -11.5t47.5 -32t31.5 -49
t11.5 -62.5z" />
    <glyph glyph-name="onesuperior" unicode="&#xb9;" horiz-adv-x="210" 
d="M150 800v-350h-55v265h-65v40q23 0 37.5 7t22.5 15q10 10 15 23h45z" />
    <glyph glyph-name="twosuperior" unicode="&#xb2;" horiz-adv-x="300" 
d="M30 450q0 37 13.5 65t33.5 49t43 37.5t43 31.5t33.5 31t13.5 36q0 23 -17 39t-43 16q-19 0 -32.5 -8.5t-21.5 -19.5q-10 -12 -16 -27l-45 15q7 25 22 45q13 17 35 31t58 14q53 0 84 -30t31 -75q0 -28 -10 -47.5t-26 -35.5t-35.5 -28.5t-38.5 -25.5t-35 -28t-25 -35h170
v-50h-235z" />
    <glyph glyph-name="threesuperior" unicode="&#xb3;" horiz-adv-x="310" 
d="M220 635q15 -5 27 -16q11 -10 19.5 -26.5t8.5 -42.5q0 -45 -31.5 -75t-88.5 -30q-34 0 -58.5 9.5t-40.5 20.5q-18 13 -31 30l35 40q11 -14 25 -25q12 -10 29.5 -17.5t40.5 -7.5q65 0 65 55q0 26 -18 43t-52 17h-40v50h40q26 0 40.5 13.5t14.5 36.5q0 19 -15 32t-45 13
q-18 0 -32 -7t-23 -15q-11 -10 -19 -22l-36 37q12 16 28 28q14 11 34 20t48 9q53 0 84 -28.5t31 -66.5q0 -23 -6 -37.5t-14 -22.5q-9 -10 -20 -15z" />
    <glyph glyph-name="foursuperior" unicode="&#x2074;" horiz-adv-x="310" 
d="M280 580v-50h-40v-80h-55v80h-165v50l155 220h65v-220h40zM185 735l-110 -155h110v155z" />
    <glyph glyph-name="fraction" unicode="&#x2044;" horiz-adv-x="205" 
d="M290 700h65l-430 -700h-65z" />
    <glyph glyph-name="onehalf" unicode="&#xbd;" horiz-adv-x="695" 
d="M495 700h65l-430 -700h-65zM160 701v-350h-55v265h-65v40q23 0 37.5 7t22.5 15q10 10 15 23h45zM415 1q0 37 13.5 65t33.5 49t43 37.5t43 31.5t33.5 31t13.5 36q0 23 -17 39t-43 16q-19 0 -32.5 -8.5t-21.5 -19.5q-10 -12 -16 -27l-45 15q7 25 22 45q13 17 35 31t58 14
q53 0 84 -30t31 -75q0 -28 -10 -47.5t-26 -35.5t-35.5 -28.5t-38.5 -25.5t-35 -28t-25 -35h170v-50h-235z" />
    <glyph glyph-name="onequarter" unicode="&#xbc;" horiz-adv-x="665" 
d="M495 700h65l-430 -700h-65zM160 701v-350h-55v265h-65v40q23 0 37.5 7t22.5 15q10 10 15 23h45zM625 131v-50h-40v-80h-55v80h-165v50l155 220h65v-220h40zM530 286l-110 -155h110v155z" />
    <glyph glyph-name="threequarters" unicode="&#xbe;" horiz-adv-x="730" 
d="M560 700h65l-430 -700h-65zM690 131v-50h-40v-80h-55v80h-165v50l155 220h65v-220h40zM595 286l-110 -155h110v155zM225 536q15 -5 27 -16q11 -10 19.5 -26.5t8.5 -42.5q0 -45 -31.5 -75t-88.5 -30q-34 0 -58.5 9.5t-40.5 20.5q-18 13 -31 30l35 40q11 -14 25 -25
q12 -10 29.5 -17.5t40.5 -7.5q65 0 65 55q0 26 -18 43t-52 17h-40v50h40q26 0 40.5 13.5t14.5 36.5q0 19 -15 32t-45 13q-18 0 -32 -7t-23 -15q-11 -10 -19 -22l-36 37q12 16 28 28q14 11 34 20t48 9q53 0 84 -28.5t31 -66.5q0 -23 -6 -37.5t-14 -22.5q-9 -10 -20 -15z" />
    <glyph glyph-name="at.case" horiz-adv-x="900" 
d="M440 470q-23 0 -43 -9t-35 -25.5t-23.5 -39.5t-8.5 -51t8.5 -51t23.5 -39.5t35 -25.5t43 -9q49 0 82 34t33 91t-33 91t-82 34zM435 530q32 0 55 -8.5t37 -19.5q17 -12 28 -27v50h60v-228q0 -41 16 -59t44 -18q18 0 34 8t28.5 25.5t20 46t7.5 70.5q0 63 -23.5 118
t-65.5 95.5t-99.5 63.5t-126.5 23q-66 0 -123 -24.5t-100 -68t-67.5 -102t-24.5 -125.5q0 -68 24.5 -126t67.5 -101.5t100 -68t123 -24.5q45 0 80 10t60 22q28 14 50 33l35 -45q-25 -22 -58 -40q-29 -15 -71 -27.5t-96 -12.5q-77 0 -146 30.5t-121 82.5t-82.5 121t-30.5 146
t30.5 146t82.5 121t121 82.5t146 30.5q80 0 149.5 -29t120.5 -78t80.5 -114.5t29.5 -138.5q0 -54 -12.5 -93.5t-33.5 -65.5t-49.5 -38.5t-59.5 -12.5t-51.5 10.5t-33.5 24.5q-15 15 -25 35q-11 -20 -29 -35q-16 -14 -41 -24.5t-60 -10.5q-34 0 -64.5 14t-54 39t-37.5 59
t-14 73t14 73t37.5 59t54 39t64.5 14z" />
    <glyph glyph-name="parenleft.case" horiz-adv-x="335" 
d="M145 350q0 -100 24 -180.5t53 -138.5q34 -68 78 -121l-55 -30q-47 55 -83 126q-31 61 -56.5 148t-25.5 196t25.5 196t56.5 148q36 71 83 126l55 -30q-44 -53 -78 -121q-29 -58 -53 -138.5t-24 -180.5z" />
    <glyph glyph-name="parenright.case" horiz-adv-x="335" 
d="M190 350q0 49 -6.5 94.5t-17.5 85.5t-25 75t-29 64q-34 68 -77 121l55 30q46 -55 82 -126q15 -30 30 -67.5t27 -80.5t19 -92.5t7 -103.5t-7 -103.5t-19 -92.5t-27 -80.5t-30 -67.5q-36 -71 -82 -126l-55 30q43 53 77 121q29 58 53.5 138.5t24.5 180.5z" />
    <glyph glyph-name="bracketleft.case" horiz-adv-x="335" 
d="M160 -45h135v-65h-205v920h205v-65h-135v-790z" />
    <glyph glyph-name="bracketright.case" horiz-adv-x="335" 
d="M175 745h-135v65h205v-920h-205v65h135v790z" />
    <glyph glyph-name="braceleft.case" horiz-adv-x="355" 
d="M60 380q70 0 70 70v225q0 60 39 97.5t111 37.5h40v-60h-40q-42 0 -63.5 -20.5t-21.5 -54.5v-225q0 -32 -9.5 -51.5t-20.5 -30.5q-13 -12 -30 -18q17 -6 30 -18q11 -11 20.5 -30.5t9.5 -51.5v-225q0 -34 21.5 -54.5t63.5 -20.5h40v-60h-40q-72 0 -111 37.5t-39 97.5v225
q0 70 -70 70v60z" />
    <glyph glyph-name="braceright.case" horiz-adv-x="355" 
d="M295 320q-70 0 -70 -70v-225q0 -60 -39 -97.5t-111 -37.5h-40v60h40q42 0 63.5 20.5t21.5 54.5v225q0 32 9.5 51.5t20.5 30.5q13 12 30 18q-17 6 -30 18q-11 11 -20.5 30.5t-9.5 51.5v225q0 34 -21.5 54.5t-63.5 20.5h-40v60h40q72 0 111 -37.5t39 -97.5v-225
q0 -70 70 -70v-60z" />
    <glyph glyph-name="exclamdown.case" horiz-adv-x="310" 
d="M185 530l15 -530h-90l15 530h60zM205 660q0 -23 -13.5 -36.5t-36.5 -13.5t-36.5 13.5t-13.5 36.5t13.5 36.5t36.5 13.5t36.5 -13.5t13.5 -36.5z" />
    <glyph glyph-name="questiondown.case" horiz-adv-x="520" 
d="M305 525l2 -14q1 -6 2 -14.5t1 -16.5q0 -40 -14.5 -69t-36 -51.5t-47 -41.5t-47 -39.5t-36 -45t-14.5 -58.5q0 -24 10 -46t28.5 -38.5t45.5 -26t61 -9.5q49 0 79 17t47 38q19 24 29 55l65 -20q-15 -45 -43 -80q-12 -15 -28.5 -29.5t-38.5 -25.5t-49 -18t-61 -7
q-49 0 -89.5 15.5t-69.5 42t-45 60.5t-16 72q0 47 14.5 78.5t36 54.5t47 41.5t47 39t36 48t14.5 68.5v20h70zM320 655q0 -23 -13.5 -36.5t-36.5 -13.5t-36.5 13.5t-13.5 36.5t13.5 36.5t36.5 13.5t36.5 -13.5t13.5 -36.5z" />
    <glyph glyph-name="guillemotleft.case" horiz-adv-x="465" 
d="M45 350l115 165h75l-115 -165l115 -165h-75zM230 350l115 165h75l-115 -165l115 -165h-75z" />
    <glyph glyph-name="guillemotright.case" horiz-adv-x="465" 
d="M305 185h-75l115 165l-115 165h75l115 -165zM120 185h-75l115 165l-115 165h75l115 -165z" />
    <glyph glyph-name="guilsinglleft.case" horiz-adv-x="280" 
d="M120 350l115 -165h-70l-120 165l120 165h70z" />
    <glyph glyph-name="guilsinglright.case" horiz-adv-x="280" 
d="M45 515h70l120 -165l-120 -165h-70l115 165z" />
    <glyph glyph-name="hyphen.case" horiz-adv-x="425" 
d="M380 297h-335v65h335v-65z" />
    <glyph glyph-name="endash.case" horiz-adv-x="480" 
d="M435 312h-390v65h390v-65z" />
    <glyph glyph-name="emdash.case" horiz-adv-x="720" 
d="M675 312h-630v65h630v-65z" />
    <glyph glyph-name="periodcentered.case" horiz-adv-x="190" 
d="M45 352q0 23 13.5 36.5t36.5 13.5t36.5 -13.5t13.5 -36.5t-13.5 -36.5t-36.5 -13.5t-36.5 13.5t-13.5 36.5z" />
    <glyph glyph-name="zero.tab" horiz-adv-x="630" 
d="M110 350q0 -71 17.5 -125.5t46 -91t65.5 -55t77 -18.5q39 0 75.5 18.5t65 55t46 91t17.5 125.5t-17.5 125.5t-46 91t-65.5 55t-76 18.5t-76 -18.5t-65.5 -55t-46 -91t-17.5 -125.5zM595 350q0 -84 -23.5 -151t-62 -113.5t-89 -71t-104.5 -24.5q-55 0 -105.5 24.5
t-89.5 71t-62.5 113.5t-23.5 151t23.5 151t62.5 113.5t89.5 71t104.5 24.5t104.5 -24.5t89.5 -71t62.5 -113.5t23.5 -151z" />
    <glyph glyph-name="one.tab" horiz-adv-x="630" 
d="M375 700v-700h-75v560h-130v45q45 2 74 17t46 32q19 20 30 46h55z" />
    <glyph glyph-name="two.tab" horiz-adv-x="630" 
d="M85 0q0 74 28 126t69.5 91.5t90 70.5t90 62.5t69.5 68t28 86.5q0 60 -39 97.5t-111 37.5q-48 0 -76.5 -18.5t-45.5 -41.5q-19 -26 -28 -60l-65 30q13 45 40 80q12 15 28 29.5t37.5 25.5t48.5 18t61 7q51 0 92.5 -16t71 -43.5t45.5 -65t16 -80.5q0 -54 -23 -94t-58.5 -73
t-78.5 -61.5t-83.5 -59t-73.5 -66t-48 -81.5h365v-70h-450z" />
    <glyph glyph-name="three.tab" horiz-adv-x="630" 
d="M410 370q36 -10 65 -33q24 -20 44.5 -54t20.5 -88q0 -39 -16.5 -76t-47 -65.5t-74 -46t-97.5 -17.5q-60 0 -104.5 16t-73.5 36q-34 23 -57 53l50 50q19 -25 46 -43q23 -16 57 -29t82 -13q39 0 70 10.5t52 29t32 43t11 52.5q0 27 -11.5 51t-33 43t-52 30t-68.5 11h-70v70
h70q64 0 99.5 34t35.5 91q0 49 -35.5 82t-99.5 33q-40 0 -69.5 -12.5t-49.5 -27.5q-24 -18 -41 -40l-50 55q21 26 52 47q26 18 65.5 33t92.5 15q47 0 85.5 -15t66.5 -40t43 -59t15 -71q0 -45 -16.5 -75t-36.5 -48q-23 -21 -52 -32z" />
    <glyph glyph-name="four.tab" horiz-adv-x="630" 
d="M580 220v-70h-90v-150h-75v150h-355v85l335 465h95v-480h90zM415 615l-285 -395h285v395z" />
    <glyph glyph-name="five.tab" horiz-adv-x="630" 
d="M320 450q51 0 94 -17.5t74.5 -48.5t49 -73t17.5 -91q0 -51 -17 -93t-48.5 -72.5t-76 -47.5t-98.5 -17q-59 0 -101.5 16t-71.5 36q-33 23 -57 53l50 50q19 -25 45 -43q23 -16 56.5 -29t78.5 -13q37 0 67.5 11.5t52.5 32.5t33.5 50.5t11.5 65.5q0 72 -44 116t-116 44
q-40 0 -69 -12t-48 -26q-23 -17 -38 -37h-55l25 395h375v-70h-310l-15 -220q16 11 36 20q17 8 42 14t57 6z" />
    <glyph glyph-name="six.tab" horiz-adv-x="630" 
d="M315 450q51 0 94 -17.5t74.5 -48.5t49 -73t17.5 -91t-18 -91t-49.5 -73t-76 -48.5t-96.5 -17.5q-53 0 -97 17.5t-75.5 48.5t-49.5 73t-18 91q0 32 7.5 59.5t17.5 47.5q11 24 25 43l210 330h75l-165 -260q9 2 20 5q10 2 24 3.5t31 1.5zM475 220q0 36 -11.5 65.5
t-33.5 50.5t-52.5 32.5t-67.5 11.5q-38 0 -68 -11.5t-52 -32.5t-33.5 -50.5t-11.5 -65.5t11.5 -65.5t33.5 -50.5t52 -32.5t68 -11.5q37 0 67.5 11.5t52.5 32.5t33.5 50.5t11.5 65.5z" />
    <glyph glyph-name="seven.tab" horiz-adv-x="630" 
d="M540 700v-70l-310 -630h-75l310 630h-365v70h440z" />
    <glyph glyph-name="eight.tab" horiz-adv-x="630" 
d="M315 410q60 0 95 33t35 82t-35 82t-95 33t-95 -33t-35 -82t35 -82t95 -33zM315 710q43 0 80.5 -15.5t65 -41.5t43.5 -59t16 -69q0 -40 -14 -67.5t-31 -44.5q-20 -20 -45 -33q34 -15 60 -39q23 -21 41.5 -54t18.5 -82q0 -43 -17.5 -82t-49 -68.5t-74.5 -47t-94 -17.5
t-94 17.5t-74.5 47t-49 68.5t-17.5 82q0 49 18.5 82t41.5 54q26 24 60 39q-26 13 -45 33q-17 17 -31 44.5t-14 67.5q0 36 16 69t43.5 59t65 41.5t80.5 15.5zM315 350q-34 0 -63 -12t-50.5 -32.5t-34 -46.5t-12.5 -54t11 -54t31.5 -46.5t50 -32.5t67.5 -12q37 0 67 12
t50.5 32.5t31.5 46.5t11 54t-12.5 54t-34 46.5t-50.5 32.5t-63 12z" />
    <glyph glyph-name="nine.tab" horiz-adv-x="630" 
d="M315 250q-51 0 -94 17.5t-74.5 48.5t-49 73t-17.5 91t18 91t49.5 73t75.5 48.5t97 17.5q52 0 96.5 -17.5t76 -48.5t49.5 -73t18 -91q0 -32 -8 -59.5t-17 -47.5q-11 -24 -25 -43l-210 -330h-75l165 260q-9 -3 -20 -5q-22 -5 -55 -5zM155 480q0 -36 11.5 -65.5t33.5 -50.5
t52 -32.5t68 -11.5q37 0 67.5 11.5t52.5 32.5t33.5 50.5t11.5 65.5t-11.5 65.5t-33.5 50.5t-52.5 32.5t-67.5 11.5q-38 0 -68 -11.5t-52 -32.5t-33.5 -50.5t-11.5 -65.5z" />
    <glyph glyph-name="Igrave.alt" horiz-adv-x="375" 
d="M215 795h-55l-95 135h75zM40 700h295v-70h-110v-560h110v-70h-295v70h110v560h-110v70z" />
    <glyph glyph-name="Iacute.alt" horiz-adv-x="375" 
d="M40 700h295v-70h-110v-560h110v-70h-295v70h110v560h-110v70zM240 930h75l-95 -135h-55z" />
    <glyph glyph-name="Icircumflex.alt" horiz-adv-x="375" 
d="M335 795h-65l-80 95l-80 -95h-65l110 135h70zM40 700h295v-70h-110v-560h110v-70h-295v70h110v560h-110v70z" />
    <glyph glyph-name="Idieresis.alt" horiz-adv-x="375" 
d="M50 855q0 19 13 32t32 13t32 -13t13 -32t-13 -32t-32 -13t-32 13t-13 32zM240 855q0 19 13 32t32 13t32 -13t13 -32t-13 -32t-32 -13t-32 13t-13 32zM40 700h295v-70h-110v-560h110v-70h-295v70h110v560h-110v70z" />
    <glyph glyph-name="Idotaccent.alt" horiz-adv-x="375" 
d="M145 860q0 19 13 32t32 13t32 -13t13 -32t-13 -32t-32 -13t-32 13t-13 32zM40 700h295v-70h-110v-560h110v-70h-295v70h110v560h-110v70z" />
    <glyph glyph-name="Imacron.alt" horiz-adv-x="375" 
d="M335 830h-290v55h290v-55zM40 700h295v-70h-110v-560h110v-70h-295v70h110v560h-110v70z" />
    <glyph glyph-name="Iogonek.alt" horiz-adv-x="375" 
d="M40 0v70h110v560h-110v70h295v-70h-110v-560h110v-70q-16 -18 -28 -36q-11 -16 -19 -35.5t-8 -38.5q0 -45 50 -45q22 0 41 7q10 4 19 8v-50q-9 -4 -20 -8q-9 -3 -20.5 -5t-25.5 -2q-45 0 -69.5 24t-24.5 66q0 24 8 45t19 37q12 18 28 33h-245z" />
    <glyph glyph-name="I.alt" horiz-adv-x="375" 
d="M40 700h295v-70h-110v-560h110v-70h-295v70h110v560h-110v70z" />
    <glyph glyph-name="lslash.alt" horiz-adv-x="365" 
d="M145 310l-130 -75l-30 50l160 95v320h70v-280l125 75l30 -50l-155 -95v-220q0 -75 70 -75q11 0 21 2t18 5q9 4 16 8v-65q-8 -4 -19 -8q-9 -3 -21 -5t-25 -2q-60 0 -95 36t-35 104v180z" />
    <glyph glyph-name="afii10110.alt" horiz-adv-x="490" 
d="M240 615q38 0 59 21.5t21 63.5h55q0 -60 -37.5 -97.5t-97.5 -37.5t-97.5 37.5t-37.5 97.5h55q0 -42 21 -63.5t59 -21.5zM205 0l-195 480h75l155 -385l155 385h75l-280 -690h-75z" />
    <glyph glyph-name="agrave.alt" horiz-adv-x="525" 
d="M365 305q0 53 -33.5 86.5t-86.5 33.5q-32 0 -57 -11t-42 -24q-20 -16 -36 -35l-45 45q20 25 47 45q23 17 56 31t77 14q41 0 76 -14t60.5 -39t39.5 -59t14 -73v-205q0 -19 13 -32t32 -13q10 0 18 2q4 1 7 3v-65q-4 -2 -8 -3t-9 -1.5t-13 -0.5q-38 0 -58.5 12.5t-31.5 27.5
q-12 18 -15 40q-14 -22 -37 -40q-20 -15 -50 -27.5t-73 -12.5q-38 0 -69 12t-53.5 31.5t-35 45t-12.5 51.5q0 60 36 97t104 48zM210 55q34 0 62.5 11.5t49 32.5t32 50.5t11.5 65.5v30l-165 -30q-90 -17 -90 -85q0 -30 25.5 -52.5t74.5 -22.5zM295 565h-55l-95 135h75z" />
    <glyph glyph-name="aacute.alt" horiz-adv-x="525" 
d="M365 305q0 53 -33.5 86.5t-86.5 33.5q-32 0 -57 -11t-42 -24q-20 -16 -36 -35l-45 45q20 25 47 45q23 17 56 31t77 14q41 0 76 -14t60.5 -39t39.5 -59t14 -73v-205q0 -19 13 -32t32 -13q10 0 18 2q4 1 7 3v-65q-4 -2 -8 -3t-9 -1.5t-13 -0.5q-38 0 -58.5 12.5t-31.5 27.5
q-12 18 -15 40q-14 -22 -37 -40q-20 -15 -50 -27.5t-73 -12.5q-38 0 -69 12t-53.5 31.5t-35 45t-12.5 51.5q0 60 36 97t104 48zM210 55q34 0 62.5 11.5t49 32.5t32 50.5t11.5 65.5v30l-165 -30q-90 -17 -90 -85q0 -30 25.5 -52.5t74.5 -22.5zM310 700h75l-95 -135h-55z" />
    <glyph glyph-name="abreve.alt" horiz-adv-x="525" 
d="M365 305q0 53 -33.5 86.5t-86.5 33.5q-32 0 -57 -11t-42 -24q-20 -16 -36 -35l-45 45q20 25 47 45q23 17 56 31t77 14q41 0 76 -14t60.5 -39t39.5 -59t14 -73v-205q0 -19 13 -32t32 -13q10 0 18 2q4 1 7 3v-65q-4 -2 -8 -3t-9 -1.5t-13 -0.5q-38 0 -58.5 12.5t-31.5 27.5
q-12 18 -15 40q-14 -22 -37 -40q-20 -15 -50 -27.5t-73 -12.5q-38 0 -69 12t-53.5 31.5t-35 45t-12.5 51.5q0 60 36 97t104 48zM210 55q34 0 62.5 11.5t49 32.5t32 50.5t11.5 65.5v30l-165 -30q-90 -17 -90 -85q0 -30 25.5 -52.5t74.5 -22.5zM265 615q38 0 59 21.5t21 63.5
h55q0 -60 -37.5 -97.5t-97.5 -37.5t-97.5 37.5t-37.5 97.5h55q0 -42 21 -63.5t59 -21.5z" />
    <glyph glyph-name="acircumflex.alt" horiz-adv-x="525" 
d="M365 305q0 53 -33.5 86.5t-86.5 33.5q-32 0 -57 -11t-42 -24q-20 -16 -36 -35l-45 45q20 25 47 45q23 17 56 31t77 14q41 0 76 -14t60.5 -39t39.5 -59t14 -73v-205q0 -19 13 -32t32 -13q10 0 18 2q4 1 7 3v-65q-4 -2 -8 -3t-9 -1.5t-13 -0.5q-38 0 -58.5 12.5t-31.5 27.5
q-12 18 -15 40q-14 -22 -37 -40q-20 -15 -50 -27.5t-73 -12.5q-38 0 -69 12t-53.5 31.5t-35 45t-12.5 51.5q0 60 36 97t104 48zM210 55q34 0 62.5 11.5t49 32.5t32 50.5t11.5 65.5v30l-165 -30q-90 -17 -90 -85q0 -30 25.5 -52.5t74.5 -22.5zM420 565h-65l-80 95l-80 -95
h-65l110 135h70z" />
    <glyph glyph-name="adieresis.alt" horiz-adv-x="525" 
d="M365 305q0 53 -33.5 86.5t-86.5 33.5q-32 0 -57 -11t-42 -24q-20 -16 -36 -35l-45 45q20 25 47 45q23 17 56 31t77 14q41 0 76 -14t60.5 -39t39.5 -59t14 -73v-205q0 -19 13 -32t32 -13q10 0 18 2q4 1 7 3v-65q-4 -2 -8 -3t-9 -1.5t-13 -0.5q-38 0 -58.5 12.5t-31.5 27.5
q-12 18 -15 40q-14 -22 -37 -40q-20 -15 -50 -27.5t-73 -12.5q-38 0 -69 12t-53.5 31.5t-35 45t-12.5 51.5q0 60 36 97t104 48zM210 55q34 0 62.5 11.5t49 32.5t32 50.5t11.5 65.5v30l-165 -30q-90 -17 -90 -85q0 -30 25.5 -52.5t74.5 -22.5zM130 631q0 19 13 32t32 13
t32 -13t13 -32t-13 -32t-32 -13t-32 13t-13 32zM320 631q0 19 13 32t32 13t32 -13t13 -32t-13 -32t-32 -13t-32 13t-13 32z" />
    <glyph glyph-name="amacron.alt" horiz-adv-x="525" 
d="M365 305q0 53 -33.5 86.5t-86.5 33.5q-32 0 -57 -11t-42 -24q-20 -16 -36 -35l-45 45q20 25 47 45q23 17 56 31t77 14q41 0 76 -14t60.5 -39t39.5 -59t14 -73v-205q0 -19 13 -32t32 -13q10 0 18 2q4 1 7 3v-65q-4 -2 -8 -3t-9 -1.5t-13 -0.5q-38 0 -58.5 12.5t-31.5 27.5
q-12 18 -15 40q-14 -22 -37 -40q-20 -15 -50 -27.5t-73 -12.5q-38 0 -69 12t-53.5 31.5t-35 45t-12.5 51.5q0 60 36 97t104 48zM210 55q34 0 62.5 11.5t49 32.5t32 50.5t11.5 65.5v30l-165 -30q-90 -17 -90 -85q0 -30 25.5 -52.5t74.5 -22.5zM415 611h-290v55h290v-55z" />
    <glyph glyph-name="aogonek.alt" horiz-adv-x="525" 
d="M210 55q34 0 62.5 11.5t49 32.5t32 50.5t11.5 65.5v30l-165 -30q-90 -17 -90 -85q0 -30 25.5 -52.5t74.5 -22.5zM370 70q-14 -22 -37 -40q-20 -15 -50 -27.5t-73 -12.5q-38 0 -69 12t-53.5 31.5t-35 45t-12.5 51.5q0 60 36 97t104 48l185 30q0 53 -33.5 86.5t-86.5 33.5
q-32 0 -57 -11t-42 -24q-20 -16 -36 -35l-45 45q20 25 47 45q23 17 56 31t77 14q41 0 76 -14t60.5 -39t39.5 -59t14 -73v-205q0 -19 13 -32t32 -13q10 0 18 2q4 1 7 3v-65q-2 -1 -6 -2q-3 -1 -8 -2t-10 -1q-6 -7 -13.5 -18t-15 -24.5t-12.5 -28t-5 -29.5q0 -45 50 -45
q22 0 41 7q10 4 19 8v-50q-9 -4 -20 -8q-9 -3 -20.5 -5t-25.5 -2q-45 0 -69.5 24t-24.5 66q0 21 6 39t14 32t16.5 24t13.5 15q-23 6 -36.5 18.5t-19.5 25.5q-8 15 -9 31z" />
    <glyph glyph-name="aring.alt" horiz-adv-x="525" 
d="M220 640q0 -23 13 -36.5t32 -13.5t32 13.5t13 36.5t-13 36.5t-32 13.5t-32 -13.5t-13 -36.5zM360 640q0 -42 -26.5 -68.5t-68.5 -26.5t-68.5 26.5t-26.5 68.5t26.5 68.5t68.5 26.5t68.5 -26.5t26.5 -68.5zM365 305q0 53 -33.5 86.5t-86.5 33.5q-32 0 -57 -11t-42 -24
q-20 -16 -36 -35l-45 45q20 25 47 45q23 17 56 31t77 14q41 0 76 -14t60.5 -39t39.5 -59t14 -73v-205q0 -19 13 -32t32 -13q10 0 18 2q4 1 7 3v-65q-4 -2 -8 -3t-9 -1.5t-13 -0.5q-38 0 -58.5 12.5t-31.5 27.5q-12 18 -15 40q-14 -22 -37 -40q-20 -15 -50 -27.5t-73 -12.5
q-38 0 -69 12t-53.5 31.5t-35 45t-12.5 51.5q0 60 36 97t104 48zM210 55q34 0 62.5 11.5t49 32.5t32 50.5t11.5 65.5v30l-165 -30q-90 -17 -90 -85q0 -30 25.5 -52.5t74.5 -22.5z" />
    <glyph glyph-name="atilde.alt" horiz-adv-x="525" 
d="M365 305q0 53 -33.5 86.5t-86.5 33.5q-32 0 -57 -11t-42 -24q-20 -16 -36 -35l-45 45q20 25 47 45q23 17 56 31t77 14q41 0 76 -14t60.5 -39t39.5 -59t14 -73v-205q0 -19 13 -32t32 -13q10 0 18 2q4 1 7 3v-65q-4 -2 -8 -3t-9 -1.5t-13 -0.5q-38 0 -58.5 12.5t-31.5 27.5
q-12 18 -15 40q-14 -22 -37 -40q-20 -15 -50 -27.5t-73 -12.5q-38 0 -69 12t-53.5 31.5t-35 45t-12.5 51.5q0 60 36 97t104 48zM210 55q34 0 62.5 11.5t49 32.5t32 50.5t11.5 65.5v30l-165 -30q-90 -17 -90 -85q0 -30 25.5 -52.5t74.5 -22.5zM205 631q-15 0 -27.5 -15.5
t-12.5 -49.5h-50q0 60 26 90t64 30q26 0 43.5 -10t31 -22.5t26 -22.5t29.5 -10q15 0 27.5 15.5t12.5 49.5h50q0 -60 -26 -90t-64 -30q-26 0 -43.5 10t-31 22.5t-26 22.5t-29.5 10z" />
    <glyph glyph-name="lacute.alt" horiz-adv-x="290" 
d="M160 930h75l-95 -135h-55zM80 700h70v-570q0 -75 70 -75q11 0 21 2t18 5q9 4 16 8v-65q-8 -4 -19 -8q-9 -3 -21 -5t-25 -2q-60 0 -95 36t-35 104v570z" />
    <glyph glyph-name="lcaron.alt" horiz-adv-x="295" 
d="M80 700h70v-570q0 -75 70 -75q11 0 21 2t18 5q9 4 16 8v-65q-8 -4 -19 -8q-9 -3 -21 -5t-25 -2q-60 0 -95 36t-35 104v570zM260 700h65l-60 -135h-50z" />
    <glyph glyph-name="lcommaaccent.alt" horiz-adv-x="290" 
d="M80 700h70v-570q0 -75 70 -75q11 0 21 2t18 5q9 4 16 8v-65q-8 -4 -19 -8q-9 -3 -21 -5t-25 -2q-60 0 -95 36t-35 104v570zM145 -80h65l-60 -135h-50z" />
    <glyph glyph-name="yacute.alt" 
d="M335 700h75l-95 -135h-55zM425 94q-15 -22 -38 -40q-20 -15 -49 -27t-68 -12q-43 0 -79 14.5t-61.5 41.5t-40 66t-14.5 88v255h70v-255q0 -32 10.5 -58.5t28.5 -46t42.5 -30t52.5 -10.5q30 0 57 11.5t46.5 32.5t31 50.5t11.5 65.5v240h70v-465q0 -47 -17.5 -88
t-47.5 -71.5t-70 -48t-85 -17.5q-51 0 -88.5 15.5t-62.5 34.5q-29 22 -49 50l45 45q17 -22 40 -40q20 -15 48.5 -27.5t66.5 -12.5q32 0 59.5 11.5t47.5 32.5t31.5 50.5t11.5 65.5v79z" />
    <glyph glyph-name="ydieresis.alt" 
d="M425 94q-15 -22 -38 -40q-20 -15 -49 -27t-68 -12q-43 0 -79 14.5t-61.5 41.5t-40 66t-14.5 88v255h70v-255q0 -32 10.5 -58.5t28.5 -46t42.5 -30t52.5 -10.5q30 0 57 11.5t46.5 32.5t31 50.5t11.5 65.5v240h70v-465q0 -47 -17.5 -88t-47.5 -71.5t-70 -48t-85 -17.5
q-51 0 -88.5 15.5t-62.5 34.5q-29 22 -49 50l45 45q17 -22 40 -40q20 -15 48.5 -27.5t66.5 -12.5q32 0 59.5 11.5t47.5 32.5t31.5 50.5t11.5 65.5v79zM145 626q0 19 13 32t32 13t32 -13t13 -32t-13 -32t-32 -13t-32 13t-13 32zM335 626q0 19 13 32t32 13t32 -13t13 -32
t-13 -32t-32 -13t-32 13t-13 32z" />
    <glyph glyph-name="ugrave.alt" 
d="M320 565h-55l-95 135h75zM420 70q-15 -22 -36 -40q-18 -15 -46.5 -27.5t-67.5 -12.5q-43 0 -79 14.5t-61.5 41t-40 64.5t-14.5 85v285h70v-285q0 -64 36.5 -102t93.5 -38q30 0 55.5 11t44.5 31t29.5 48.5t10.5 64.5v270h70v-380q0 -19 13 -32t32 -13q10 0 18 2q4 1 7 3
v-65q-4 -2 -8 -3t-9 -1.5t-13 -0.5q-38 0 -58.5 12.5t-31.5 27.5q-12 18 -15 40z" />
    <glyph glyph-name="uacute.alt" 
d="M330 700h75l-95 -135h-55zM420 70q-15 -22 -36 -40q-18 -15 -46.5 -27.5t-67.5 -12.5q-43 0 -79 14.5t-61.5 41t-40 64.5t-14.5 85v285h70v-285q0 -64 36.5 -102t93.5 -38q30 0 55.5 11t44.5 31t29.5 48.5t10.5 64.5v270h70v-380q0 -19 13 -32t32 -13q10 0 18 2q4 1 7 3
v-65q-4 -2 -8 -3t-9 -1.5t-13 -0.5q-38 0 -58.5 12.5t-31.5 27.5q-12 18 -15 40z" />
    <glyph glyph-name="ucircumflex.alt" 
d="M420 70q-15 -22 -36 -40q-18 -15 -46.5 -27.5t-67.5 -12.5q-43 0 -79 14.5t-61.5 41t-40 64.5t-14.5 85v285h70v-285q0 -64 36.5 -102t93.5 -38q30 0 55.5 11t44.5 31t29.5 48.5t10.5 64.5v270h70v-380q0 -19 13 -32t32 -13q10 0 18 2q4 1 7 3v-65q-4 -2 -8 -3t-9 -1.5
t-13 -0.5q-38 0 -58.5 12.5t-31.5 27.5q-12 18 -15 40zM435 565h-65l-80 95l-80 -95h-65l110 135h70z" />
    <glyph glyph-name="udieresis.alt" 
d="M420 70q-15 -22 -36 -40q-18 -15 -46.5 -27.5t-67.5 -12.5q-43 0 -79 14.5t-61.5 41t-40 64.5t-14.5 85v285h70v-285q0 -64 36.5 -102t93.5 -38q30 0 55.5 11t44.5 31t29.5 48.5t10.5 64.5v270h70v-380q0 -19 13 -32t32 -13q10 0 18 2q4 1 7 3v-65q-4 -2 -8 -3t-9 -1.5
t-13 -0.5q-38 0 -58.5 12.5t-31.5 27.5q-12 18 -15 40zM145 626q0 19 13 32t32 13t32 -13t13 -32t-13 -32t-32 -13t-32 13t-13 32zM335 626q0 19 13 32t32 13t32 -13t13 -32t-13 -32t-32 -13t-32 13t-13 32z" />
    <glyph glyph-name="uhungarumlaut.alt" 
d="M420 70q-15 -22 -36 -40q-18 -15 -46.5 -27.5t-67.5 -12.5q-43 0 -79 14.5t-61.5 41t-40 64.5t-14.5 85v285h70v-285q0 -64 36.5 -102t93.5 -38q30 0 55.5 11t44.5 31t29.5 48.5t10.5 64.5v270h70v-380q0 -19 13 -32t32 -13q10 0 18 2q4 1 7 3v-65q-4 -2 -8 -3t-9 -1.5
t-13 -0.5q-38 0 -58.5 12.5t-31.5 27.5q-12 18 -15 40zM250 700h75l-96 -135h-54zM404 700h76l-95 -135h-55z" />
    <glyph glyph-name="umacron.alt" 
d="M420 70q-15 -22 -36 -40q-18 -15 -46.5 -27.5t-67.5 -12.5q-43 0 -79 14.5t-61.5 41t-40 64.5t-14.5 85v285h70v-285q0 -64 36.5 -102t93.5 -38q30 0 55.5 11t44.5 31t29.5 48.5t10.5 64.5v270h70v-380q0 -19 13 -32t32 -13q10 0 18 2q4 1 7 3v-65q-4 -2 -8 -3t-9 -1.5
t-13 -0.5q-38 0 -58.5 12.5t-31.5 27.5q-12 18 -15 40zM430 601h-290v55h290v-55z" />
    <glyph glyph-name="uogonek.alt" 
d="M420 70q-15 -22 -36 -40q-18 -15 -46.5 -27.5t-67.5 -12.5q-43 0 -79 14.5t-61.5 41t-40 64.5t-14.5 85v285h70v-285q0 -64 36.5 -102t93.5 -38q30 0 55.5 11t44.5 31t29.5 48.5t10.5 64.5v270h70v-380q0 -19 13 -32t32 -13q10 0 18 2q4 1 7 3v-65q-2 -1 -6 -2
q-3 -1 -8 -2t-10 -1q-6 -7 -13.5 -18t-15 -24.5t-12.5 -28t-5 -29.5q0 -45 50 -45q22 0 41 7q10 4 19 8v-50q-9 -4 -20 -8q-9 -3 -20.5 -5t-25.5 -2q-45 0 -69.5 24t-24.5 66q0 21 6 39t14 32t16.5 24t13.5 15q-23 6 -36.5 18.5t-19.5 25.5q-8 15 -9 31z" />
    <glyph glyph-name="uring.alt" 
d="M240 640q0 -23 13 -36.5t32 -13.5t32 13.5t13 36.5t-13 36.5t-32 13.5t-32 -13.5t-13 -36.5zM380 640q0 -42 -26.5 -68.5t-68.5 -26.5t-68.5 26.5t-26.5 68.5t26.5 68.5t68.5 26.5t68.5 -26.5t26.5 -68.5zM420 70q-15 -22 -36 -40q-18 -15 -46.5 -27.5t-67.5 -12.5
q-43 0 -79 14.5t-61.5 41t-40 64.5t-14.5 85v285h70v-285q0 -64 36.5 -102t93.5 -38q30 0 55.5 11t44.5 31t29.5 48.5t10.5 64.5v270h70v-380q0 -19 13 -32t32 -13q10 0 18 2q4 1 7 3v-65q-4 -2 -8 -3t-9 -1.5t-13 -0.5q-38 0 -58.5 12.5t-31.5 27.5q-12 18 -15 40z" />
    <glyph glyph-name="a.alt" horiz-adv-x="525" 
d="M365 305q0 53 -33.5 86.5t-86.5 33.5q-32 0 -57 -11t-42 -24q-20 -16 -36 -35l-45 45q20 25 47 45q23 17 56 31t77 14q41 0 76 -14t60.5 -39t39.5 -59t14 -73v-205q0 -19 13 -32t32 -13q10 0 18 2q4 1 7 3v-65q-4 -2 -8 -3t-9 -1.5t-13 -0.5q-38 0 -58.5 12.5t-31.5 27.5
q-12 18 -15 40q-14 -22 -37 -40q-20 -15 -50 -27.5t-73 -12.5q-38 0 -69 12t-53.5 31.5t-35 45t-12.5 51.5q0 60 36 97t104 48zM210 55q34 0 62.5 11.5t49 32.5t32 50.5t11.5 65.5v30l-165 -30q-90 -17 -90 -85q0 -30 25.5 -52.5t74.5 -22.5z" />
    <glyph glyph-name="l.alt" horiz-adv-x="290" 
d="M80 700h70v-570q0 -75 70 -75q11 0 21 2t18 5q9 4 16 8v-65q-8 -4 -19 -8q-9 -3 -21 -5t-25 -2q-60 0 -95 36t-35 104v570z" />
    <glyph glyph-name="afii10085.alt" horiz-adv-x="490" 
d="M205 0l-195 480h75l155 -385l155 385h75l-280 -690h-75z" />
    <glyph glyph-name="y.alt" 
d="M425 94q-15 -22 -38 -40q-20 -15 -49 -27t-68 -12q-43 0 -79 14.5t-61.5 41.5t-40 66t-14.5 88v255h70v-255q0 -32 10.5 -58.5t28.5 -46t42.5 -30t52.5 -10.5q30 0 57 11.5t46.5 32.5t31 50.5t11.5 65.5v240h70v-465q0 -47 -17.5 -88t-47.5 -71.5t-70 -48t-85 -17.5
q-51 0 -88.5 15.5t-62.5 34.5q-29 22 -49 50l45 45q17 -22 40 -40q20 -15 48.5 -27.5t66.5 -12.5q32 0 59.5 11.5t47.5 32.5t31.5 50.5t11.5 65.5v79z" />
    <glyph glyph-name="u.alt" 
d="M420 70q-15 -22 -36 -40q-18 -15 -46.5 -27.5t-67.5 -12.5q-43 0 -79 14.5t-61.5 41t-40 64.5t-14.5 85v285h70v-285q0 -64 36.5 -102t93.5 -38q30 0 55.5 11t44.5 31t29.5 48.5t10.5 64.5v270h70v-380q0 -19 13 -32t32 -13q10 0 18 2q4 1 7 3v-65q-4 -2 -8 -3t-9 -1.5
t-13 -0.5q-38 0 -58.5 12.5t-31.5 27.5q-12 18 -15 40z" />
    <glyph glyph-name="afii10065.alt" horiz-adv-x="525" 
d="M365 305q0 53 -33.5 86.5t-86.5 33.5q-32 0 -57 -11t-42 -24q-20 -16 -36 -35l-45 45q20 25 47 45q23 17 56 31t77 14q41 0 76 -14t60.5 -39t39.5 -59t14 -73v-205q0 -19 13 -32t32 -13q10 0 18 2q4 1 7 3v-65q-4 -2 -8 -3t-9 -1.5t-13 -0.5q-38 0 -58.5 12.5t-31.5 27.5
q-12 18 -15 40q-14 -22 -37 -40q-20 -15 -50 -27.5t-73 -12.5q-38 0 -69 12t-53.5 31.5t-35 45t-12.5 51.5q0 60 36 97t104 48zM210 55q34 0 62.5 11.5t49 32.5t32 50.5t11.5 65.5v30l-165 -30q-90 -17 -90 -85q0 -30 25.5 -52.5t74.5 -22.5z" />
    <glyph glyph-name="zerosuperior" unicode="&#x2070;" horiz-adv-x="350" 
d="M85 625q0 -32 7.5 -56t20.5 -40.5t29 -25t33 -8.5t33 8.5t29 25t20.5 40.5t7.5 56t-7.5 56t-20.5 40.5t-29 25t-33 8.5t-33 -8.5t-29 -25t-20.5 -40.5t-7.5 -56zM320 625q0 -43 -11.5 -76.5t-31 -56.5t-46 -35t-56.5 -12t-56.5 12t-46 35t-31 56.5t-11.5 76.5t11.5 76.5
t31 56.5t46 35t56.5 12t56.5 -12t46 -35t31 -56.5t11.5 -76.5z" />
    <glyph glyph-name="fivesuperior" unicode="&#x2075;" horiz-adv-x="290" 
d="M150 670q53 0 86.5 -33t33.5 -82q0 -45 -35 -77.5t-95 -32.5q-34 0 -58.5 8t-40.5 19q-18 12 -31 28l35 35q11 -11 25 -20q12 -8 29.5 -14t40.5 -6q38 0 56.5 17t18.5 43q0 30 -18 47.5t-52 17.5q-17 0 -29 -3t-20 -7q-10 -4 -16 -10h-45l20 200h195v-50h-150l-10 -95
q7 3 17 7q8 3 18.5 5.5t24.5 2.5z" />
    <glyph glyph-name="sixsuperior" unicode="&#x2076;" horiz-adv-x="300" 
d="M150 685q28 0 52 -9.5t41 -26t27 -38.5t10 -46t-10 -46t-27 -38.5t-41 -26t-52 -9.5t-52 9.5t-41 26t-27 38.5t-10 46q0 17 3.5 31.5t8.5 25.5q5 12 13 23l105 155h60l-75 -115h15zM225 565q0 30 -20.5 50t-54.5 20t-54.5 -20t-20.5 -49q0 -31 20.5 -51t54.5 -20t54.5 20
t20.5 50z" />
    <glyph glyph-name="sevensuperior" unicode="&#x2077;" horiz-adv-x="275" 
d="M255 800v-50l-135 -300h-55l135 300h-180v50h235z" />
    <glyph glyph-name="eightsuperior" unicode="&#x2078;" horiz-adv-x="280" 
d="M140 495q34 0 52 16t18 39t-18 41.5t-52 18.5t-52 -18.5t-18 -41.5t18 -39t52 -16zM140 660q30 0 42.5 13.5t12.5 36.5q0 19 -14.5 32t-40.5 13t-40.5 -13t-14.5 -32q0 -23 12.5 -36.5t42.5 -13.5zM140 445q-28 0 -51 8.5t-39.5 23t-25.5 33.5t-9 40q0 25 10 41t22 26
q14 11 33 18q-14 6 -25 17q-10 9 -17.5 23.5t-7.5 34.5q0 19 8 36t22.5 30t35 21t44.5 8t44.5 -8t35 -21t22.5 -30t8 -36q0 -20 -8 -34.5t-17 -23.5q-11 -11 -25 -17q18 -7 32 -18q12 -10 22.5 -26t10.5 -41q0 -21 -9 -40t-25.5 -33.5t-39.5 -23t-51 -8.5z" />
    <glyph glyph-name="ninesuperior" unicode="&#x2079;" horiz-adv-x="300" 
d="M150 565q-28 0 -52 9.5t-41 26t-27 38.5t-10 46t10 46t27 38.5t41 26t52 9.5t52 -9.5t41 -26t27 -38.5t10 -46q0 -17 -4 -31.5t-9 -25.5q-5 -12 -12 -23l-105 -155h-60l75 115h-15zM75 685q0 -30 20.5 -50t54.5 -20t54.5 20t20.5 49q0 31 -20.5 51t-54.5 20t-54.5 -20
t-20.5 -50z" />
    <glyph glyph-name="zeroinferior" unicode="&#x2080;" horiz-adv-x="350" 
d="M85 75q0 -32 7.5 -56t20.5 -40.5t29 -25t33 -8.5t33 8.5t29 25t20.5 40.5t7.5 56t-7.5 56t-20.5 40.5t-29 25t-33 8.5t-33 -8.5t-29 -25t-20.5 -40.5t-7.5 -56zM320 75q0 -43 -11.5 -76.5t-31 -56.5t-46 -35t-56.5 -12t-56.5 12t-46 35t-31 56.5t-11.5 76.5t11.5 76.5
t31 56.5t46 35t56.5 12t56.5 -12t46 -35t31 -56.5t11.5 -76.5z" />
    <glyph glyph-name="oneinferior" unicode="&#x2081;" horiz-adv-x="210" 
d="M150 250v-350h-55v265h-65v40q23 0 37.5 7t22.5 15q10 10 15 23h45z" />
    <glyph glyph-name="twoinferior" unicode="&#x2082;" horiz-adv-x="300" 
d="M30 -100q0 37 13.5 65t33.5 49t43 37.5t43 31.5t33.5 31t13.5 36q0 23 -17 39t-43 16q-19 0 -32.5 -8.5t-21.5 -19.5q-10 -12 -16 -27l-45 15q7 25 22 45q13 17 35 31t58 14q53 0 84 -30t31 -75q0 -27 -10 -47t-26 -36t-35.5 -28.5t-38.5 -25.5t-35 -28t-25 -35h170v-50
h-235z" />
    <glyph glyph-name="threeinferior" unicode="&#x2083;" horiz-adv-x="310" 
d="M220 85q15 -5 27 -16q11 -10 19.5 -26.5t8.5 -42.5q0 -45 -31.5 -75t-88.5 -30q-34 0 -58.5 9.5t-40.5 20.5q-18 13 -31 30l35 40q11 -14 25 -25q12 -10 29.5 -17.5t40.5 -7.5q65 0 65 55q0 26 -18 43t-52 17h-40v50h40q26 0 40.5 13.5t14.5 36.5q0 19 -15 32t-45 13
q-18 0 -32 -7t-23 -15q-11 -10 -19 -22l-36 37q12 16 28 28q14 11 34 20t48 9q53 0 84 -28.5t31 -66.5q0 -23 -6 -37.5t-14 -22.5q-9 -10 -20 -15z" />
    <glyph glyph-name="fourinferior" unicode="&#x2084;" horiz-adv-x="310" 
d="M280 30v-50h-40v-80h-55v80h-165v50l155 220h65v-220h40zM185 185l-110 -155h110v155z" />
    <glyph glyph-name="fiveinferior" unicode="&#x2085;" horiz-adv-x="290" 
d="M150 120q53 0 86.5 -33t33.5 -82q0 -45 -35 -77.5t-95 -32.5q-34 0 -58.5 8t-40.5 19q-18 12 -31 28l35 35q11 -11 25 -20q12 -8 29.5 -14t40.5 -6q38 0 56.5 17t18.5 43q0 30 -18 47.5t-52 17.5q-17 0 -29 -3t-20 -7q-10 -4 -16 -10h-45l20 200h195v-50h-150l-10 -95
q7 3 17 7q8 3 18.5 5.5t24.5 2.5z" />
    <glyph glyph-name="sixinferior" unicode="&#x2086;" horiz-adv-x="300" 
d="M150 135q28 0 52 -9.5t41 -26t27 -38.5t10 -46t-10 -46t-27 -38.5t-41 -26t-52 -9.5t-52 9.5t-41 26t-27 38.5t-10 46q0 17 3.5 31.5t8.5 25.5q5 12 13 23l105 155h60l-75 -115h15zM225 15q0 30 -20.5 50t-54.5 20t-54.5 -20t-20.5 -49q0 -31 20.5 -51t54.5 -20t54.5 20
t20.5 50z" />
    <glyph glyph-name="seveninferior" unicode="&#x2087;" horiz-adv-x="275" 
d="M255 250v-50l-135 -300h-55l135 300h-180v50h235z" />
    <glyph glyph-name="eightinferior" unicode="&#x2088;" horiz-adv-x="280" 
d="M140 -55q34 0 52 16t18 39t-18 41.5t-52 18.5t-52 -18.5t-18 -41.5t18 -39t52 -16zM140 110q30 0 42.5 13.5t12.5 36.5q0 19 -14.5 32t-40.5 13t-40.5 -13t-14.5 -32q0 -23 12.5 -36.5t42.5 -13.5zM140 -105q-28 0 -51 8.5t-39.5 23t-25.5 33.5t-9 40q0 25 10 41t22 26
q14 11 33 18q-14 6 -25 17q-10 9 -17.5 23.5t-7.5 34.5q0 19 8 36t22.5 30t35 21t44.5 8t44.5 -8t35 -21t22.5 -30t8 -36q0 -20 -8 -34.5t-17 -23.5q-11 -11 -25 -17q18 -7 32 -18q12 -10 22.5 -26t10.5 -41q0 -21 -9 -40t-25.5 -33.5t-39.5 -23t-51 -8.5z" />
    <glyph glyph-name="nineinferior" unicode="&#x2089;" horiz-adv-x="300" 
d="M150 15q-28 0 -52 9.5t-41 26t-27 38.5t-10 46t10 46t27 38.5t41 26t52 9.5t52 -9.5t41 -26t27 -38.5t10 -46q0 -17 -4 -31.5t-9 -25.5q-5 -12 -12 -23l-105 -155h-60l75 115h-15zM75 135q0 -30 20.5 -50t54.5 -20t54.5 20t20.5 49q0 31 -20.5 51t-54.5 20t-54.5 -20
t-20.5 -50z" />
    <glyph glyph-name="zero.numr" horiz-adv-x="350" 
d="M85 525q0 -32 7.5 -56t20.5 -40.5t29 -25t33 -8.5t33 8.5t29 25t20.5 40.5t7.5 56t-7.5 56t-20.5 40.5t-29 25t-33 8.5t-33 -8.5t-29 -25t-20.5 -40.5t-7.5 -56zM320 525q0 -43 -11.5 -76.5t-31 -56.5t-46 -35t-56.5 -12t-56.5 12t-46 35t-31 56.5t-11.5 76.5t11.5 76.5
t31 56.5t46 35t56.5 12t56.5 -12t46 -35t31 -56.5t11.5 -76.5z" />
    <glyph glyph-name="one.numr" horiz-adv-x="210" 
d="M150 700v-350h-55v265h-65v40q23 0 37.5 7t22.5 15q10 10 15 23h45z" />
    <glyph glyph-name="two.numr" horiz-adv-x="300" 
d="M30 350q0 37 13.5 65t33.5 49t43 37.5t43 31.5t33.5 31t13.5 36q0 23 -17 39t-43 16q-19 0 -32.5 -8.5t-21.5 -19.5q-10 -12 -16 -27l-45 15q7 25 22 45q13 17 35 31t58 14q53 0 84 -30t31 -75q0 -28 -10 -47.5t-26 -35.5t-35.5 -28.5t-38.5 -25.5t-35 -28t-25 -35h170
v-50h-235z" />
    <glyph glyph-name="three.numr" horiz-adv-x="310" 
d="M220 535q15 -5 27 -16q11 -10 19.5 -26.5t8.5 -42.5q0 -45 -31.5 -75t-88.5 -30q-34 0 -58.5 9.5t-40.5 20.5q-18 13 -31 30l35 40q11 -14 25 -25q12 -10 29.5 -17.5t40.5 -7.5q65 0 65 55q0 26 -18 43t-52 17h-40v50h40q26 0 40.5 13.5t14.5 36.5q0 19 -15 32t-45 13
q-18 0 -32 -7t-23 -15q-11 -10 -19 -22l-36 37q12 16 28 28q14 11 34 20t48 9q53 0 84 -28.5t31 -66.5q0 -23 -6 -37.5t-14 -22.5q-9 -10 -20 -15z" />
    <glyph glyph-name="four.numr" horiz-adv-x="310" 
d="M280 480v-50h-40v-80h-55v80h-165v50l155 220h65v-220h40zM185 635l-110 -155h110v155z" />
    <glyph glyph-name="five.numr" horiz-adv-x="290" 
d="M150 570q53 0 86.5 -33t33.5 -82q0 -45 -35 -77.5t-95 -32.5q-34 0 -58.5 8t-40.5 19q-18 12 -31 28l35 35q11 -11 25 -20q12 -8 29.5 -14t40.5 -6q38 0 56.5 17t18.5 43q0 30 -18 47.5t-52 17.5q-17 0 -29 -3t-20 -7q-10 -4 -16 -10h-45l20 200h195v-50h-150l-10 -95
q7 3 17 7q8 3 18.5 5.5t24.5 2.5z" />
    <glyph glyph-name="six.numr" horiz-adv-x="300" 
d="M150 585q28 0 52 -9.5t41 -26t27 -38.5t10 -46t-10 -46t-27 -38.5t-41 -26t-52 -9.5t-52 9.5t-41 26t-27 38.5t-10 46q0 17 3.5 31.5t8.5 25.5q5 12 13 23l105 155h60l-75 -115h15zM225 465q0 30 -20.5 50t-54.5 20t-54.5 -20t-20.5 -49q0 -31 20.5 -51t54.5 -20t54.5 20
t20.5 50z" />
    <glyph glyph-name="seven.numr" horiz-adv-x="275" 
d="M255 700v-50l-135 -300h-55l135 300h-180v50h235z" />
    <glyph glyph-name="eight.numr" horiz-adv-x="280" 
d="M140 395q34 0 52 16t18 39t-18 41.5t-52 18.5t-52 -18.5t-18 -41.5t18 -39t52 -16zM140 560q30 0 42.5 13.5t12.5 36.5q0 19 -14.5 32t-40.5 13t-40.5 -13t-14.5 -32q0 -23 12.5 -36.5t42.5 -13.5zM140 345q-28 0 -51 8.5t-39.5 23t-25.5 33.5t-9 40q0 25 10 41t22 26
q14 11 33 18q-14 6 -25 17q-10 9 -17.5 23.5t-7.5 34.5q0 19 8 36t22.5 30t35 21t44.5 8t44.5 -8t35 -21t22.5 -30t8 -36q0 -20 -8 -34.5t-17 -23.5q-11 -11 -25 -17q18 -7 32 -18q12 -10 22.5 -26t10.5 -41q0 -21 -9 -40t-25.5 -33.5t-39.5 -23t-51 -8.5z" />
    <glyph glyph-name="nine.numr" horiz-adv-x="300" 
d="M150 465q-28 0 -52 9.5t-41 26t-27 38.5t-10 46t10 46t27 38.5t41 26t52 9.5t52 -9.5t41 -26t27 -38.5t10 -46q0 -17 -4 -31.5t-9 -25.5q-5 -12 -12 -23l-105 -155h-60l75 115h-15zM75 585q0 -30 20.5 -50t54.5 -20t54.5 20t20.5 49q0 31 -20.5 51t-54.5 20t-54.5 -20
t-20.5 -50z" />
    <glyph glyph-name="zero.dnom" horiz-adv-x="350" 
d="M85 175q0 -32 7.5 -56t20.5 -40.5t29 -25t33 -8.5t33 8.5t29 25t20.5 40.5t7.5 56t-7.5 56t-20.5 40.5t-29 25t-33 8.5t-33 -8.5t-29 -25t-20.5 -40.5t-7.5 -56zM320 175q0 -43 -11.5 -76.5t-31 -56.5t-46 -35t-56.5 -12t-56.5 12t-46 35t-31 56.5t-11.5 76.5t11.5 76.5
t31 56.5t46 35t56.5 12t56.5 -12t46 -35t31 -56.5t11.5 -76.5z" />
    <glyph glyph-name="one.dnom" horiz-adv-x="210" 
d="M150 350v-350h-55v265h-65v40q23 0 37.5 7t22.5 15q10 10 15 23h45z" />
    <glyph glyph-name="two.dnom" horiz-adv-x="300" 
d="M30 0q0 37 13.5 65t33.5 49t43 37.5t43 31.5t33.5 31t13.5 36q0 23 -17 39t-43 16q-19 0 -32.5 -8.5t-21.5 -19.5q-10 -12 -16 -27l-45 15q7 25 22 45q13 17 35 31t58 14q53 0 84 -30t31 -75q0 -28 -10 -47.5t-26 -35.5t-35.5 -28.5t-38.5 -25.5t-35 -28t-25 -35h170v-50
h-235z" />
    <glyph glyph-name="three.dnom" horiz-adv-x="310" 
d="M220 185q15 -5 27 -16q11 -10 19.5 -26.5t8.5 -42.5q0 -45 -31.5 -75t-88.5 -30q-34 0 -58.5 9.5t-40.5 20.5q-18 13 -31 30l35 40q11 -14 25 -25q12 -10 29.5 -17.5t40.5 -7.5q65 0 65 55q0 26 -18 43t-52 17h-40v50h40q26 0 40.5 13.5t14.5 36.5q0 19 -15 32t-45 13
q-18 0 -32 -7t-23 -15q-11 -10 -19 -22l-36 37q12 16 28 28q14 11 34 20t48 9q53 0 84 -28.5t31 -66.5q0 -23 -6 -37.5t-14 -22.5q-9 -10 -20 -15z" />
    <glyph glyph-name="four.dnom" horiz-adv-x="310" 
d="M280 130v-50h-40v-80h-55v80h-165v50l155 220h65v-220h40zM185 285l-110 -155h110v155z" />
    <glyph glyph-name="five.dnom" horiz-adv-x="290" 
d="M150 220q53 0 86.5 -33t33.5 -82q0 -45 -35 -77.5t-95 -32.5q-34 0 -58.5 8t-40.5 19q-18 12 -31 28l35 35q11 -11 25 -20q12 -8 29.5 -14t40.5 -6q38 0 56.5 17t18.5 43q0 30 -18 47.5t-52 17.5q-17 0 -29 -3t-20 -7q-10 -4 -16 -10h-45l20 200h195v-50h-150l-10 -95
q7 3 17 7q8 3 18.5 5.5t24.5 2.5z" />
    <glyph glyph-name="six.dnom" horiz-adv-x="300" 
d="M150 235q28 0 52 -9.5t41 -26t27 -38.5t10 -46t-10 -46t-27 -38.5t-41 -26t-52 -9.5t-52 9.5t-41 26t-27 38.5t-10 46q0 17 3.5 31.5t8.5 25.5q5 12 13 23l105 155h60l-75 -115h15zM225 115q0 30 -20.5 50t-54.5 20t-54.5 -20t-20.5 -49q0 -31 20.5 -51t54.5 -20t54.5 20
t20.5 50z" />
    <glyph glyph-name="seven.dnom" horiz-adv-x="275" 
d="M255 350v-50l-135 -300h-55l135 300h-180v50h235z" />
    <glyph glyph-name="eight.dnom" horiz-adv-x="280" 
d="M140 45q34 0 52 16t18 39t-18 41.5t-52 18.5t-52 -18.5t-18 -41.5t18 -39t52 -16zM140 210q30 0 42.5 13.5t12.5 36.5q0 19 -14.5 32t-40.5 13t-40.5 -13t-14.5 -32q0 -23 12.5 -36.5t42.5 -13.5zM140 -5q-28 0 -51 8.5t-39.5 23t-25.5 33.5t-9 40q0 25 10 41t22 26
q14 11 33 18q-14 6 -25 17q-10 9 -17.5 23.5t-7.5 34.5q0 19 8 36t22.5 30t35 21t44.5 8t44.5 -8t35 -21t22.5 -30t8 -36q0 -20 -8 -34.5t-17 -23.5q-11 -11 -25 -17q18 -7 32 -18q12 -10 22.5 -26t10.5 -41q0 -21 -9 -40t-25.5 -33.5t-39.5 -23t-51 -8.5z" />
    <glyph glyph-name="nine.dnom" horiz-adv-x="300" 
d="M150 115q-28 0 -52 9.5t-41 26t-27 38.5t-10 46t10 46t27 38.5t41 26t52 9.5t52 -9.5t41 -26t27 -38.5t10 -46q0 -17 -4 -31.5t-9 -25.5q-5 -12 -12 -23l-105 -155h-60l75 115h-15zM75 235q0 -30 20.5 -50t54.5 -20t54.5 20t20.5 49q0 31 -20.5 51t-54.5 20t-54.5 -20
t-20.5 -50z" />
    <glyph glyph-name="Aogonek" unicode="&#x104;" horiz-adv-x="700" 
d="M515 195h-330l-80 -195h-80l290 700h70l290 -700h-30q-16 -18 -28 -36q-11 -16 -19 -35.5t-8 -38.5q0 -45 50 -45q22 0 41 7q10 4 19 8v-50q-9 -4 -20 -8q-9 -3 -20.5 -5t-25.5 -2q-45 0 -69.5 24t-24.5 66q0 24 8 45t19 37q12 18 28 33zM350 595l-135 -330h270z" />
    <glyph glyph-name="aogonek" unicode="&#x105;" horiz-adv-x="520" 
d="M415 0q-16 -18 -28 -36q-11 -16 -19 -35.5t-8 -38.5q0 -45 50 -45q22 0 41 7q10 4 19 8v-50q-9 -4 -20 -8q-9 -3 -20.5 -5t-25.5 -2q-45 0 -69.5 24t-24.5 66q0 24 8 45t19 37q12 18 28 33v65q-15 -21 -38 -38q-20 -14 -49 -25.5t-68 -11.5q-38 0 -69 12t-53.5 31.5
t-35 45t-12.5 51.5q0 60 36 97t104 48l185 30q0 53 -33.5 86.5t-86.5 33.5q-32 0 -57 -11t-42 -24q-20 -16 -36 -35l-45 45q20 25 47 45q23 17 56 31t77 14q41 0 76 -14t60.5 -39t39.5 -59t14 -73v-305h-20zM210 55q34 0 62.5 11.5t49 32.5t32 50.5t11.5 65.5v30l-165 -30
q-90 -17 -90 -85q0 -30 25.5 -52.5t74.5 -22.5z" />
    <glyph glyph-name="Iogonek" unicode="&#x12e;" horiz-adv-x="285" 
d="M105 700h75v-700h-25q-16 -18 -28 -36q-11 -16 -19 -35.5t-8 -38.5q0 -45 50 -45q22 0 41 7q10 4 19 8v-50q-9 -4 -20 -8q-9 -3 -20.5 -5t-25.5 -2q-45 0 -69.5 24t-24.5 66q0 24 8 45t19 37q12 18 28 33v700z" />
    <glyph glyph-name="iogonek" unicode="&#x12f;" horiz-adv-x="230" 
d="M75 480h70v-480h-20q-16 -18 -28 -36q-11 -16 -19 -35.5t-8 -38.5q0 -45 50 -45q22 0 41 7q10 4 19 8v-50q-9 -4 -20 -8q-9 -3 -20.5 -5t-25.5 -2q-45 0 -69.5 24t-24.5 66q0 24 8 45t19 37q12 18 28 33v480zM65 640q0 19 13 32t32 13t32 -13t13 -32t-13 -32t-32 -13
t-32 13t-13 32z" />
    <glyph glyph-name="Uogonek" unicode="&#x172;" horiz-adv-x="760" 
d="M380 61q43 0 81.5 16.5t67 46t45 68.5t16.5 84v424h75v-425q0 -53 -19 -101t-52.5 -86t-78.5 -63t-97 -32q-5 -6 -13 -17t-16 -25t-13.5 -30t-5.5 -31q0 -45 50 -45q22 0 41 7q10 4 19 8v-50q-9 -4 -20 -8q-9 -3 -20.5 -5t-25.5 -2q-45 0 -69.5 24t-24.5 66q0 18 5 34.5
t12 30t14.5 24t13.5 17.5q-56 3 -105 26.5t-85.5 62t-58 89t-21.5 106.5v425h75v-424q0 -45 16.5 -84t45 -68.5t67 -46t81.5 -16.5z" />
    <glyph glyph-name="Eogonek" unicode="&#x118;" horiz-adv-x="640" 
d="M105 0v700h480v-70h-405v-230h325v-70h-325v-260h415v-70q-16 -18 -28 -36q-11 -16 -19 -35.5t-8 -38.5q0 -45 50 -45q22 0 41 7q10 4 19 8v-50q-9 -4 -20 -8q-9 -3 -20.5 -5t-25.5 -2q-45 0 -69.5 24t-24.5 66q0 24 8 45t19 37q12 18 28 33h-440z" />
    <glyph glyph-name="eogonek" unicode="&#x119;" horiz-adv-x="555" 
d="M110 215q2 -32 16 -61t37 -51t53 -35t64 -13q38 0 66.5 12.5t48.5 27.5q23 18 40 40l45 -45q-18 -24 -43 -43q-21 -17 -52 -33t-72 -21q-5 -6 -13.5 -17.5t-16 -25t-13 -29.5t-5.5 -31q0 -45 50 -45q22 0 41 7q10 4 19 8v-50q-9 -4 -20 -8q-9 -3 -20.5 -5t-25.5 -2
q-45 0 -69.5 24t-24.5 66q0 37 17 65t29 41q-46 4 -86 24.5t-70 54t-47.5 77t-17.5 93.5q0 52 19 98t51.5 79.5t75 53t89.5 19.5q49 0 91 -18t73 -49.5t48.5 -76t17.5 -96.5q0 -8 -1 -14.5t-2 -11.5q-1 -6 -2 -10zM275 425q-32 0 -60.5 -12t-50.5 -33t-36 -48.5t-18 -57.5
h325q-4 32 -17.5 60t-34.5 48t-48.5 31.5t-59.5 11.5z" />
    <glyph glyph-name="Scedilla" unicode="&#x15e;" horiz-adv-x="565" 
d="M440 191q0 34 -16.5 55.5t-43 36.5t-60.5 25.5t-70 21.5t-70 24.5t-60.5 34.5t-43 52.5t-16.5 78.5q0 38 15.5 72.5t45 60.5t71 41.5t93.5 15.5q51 0 89 -14t64 -31q30 -20 52 -45l-50 -50q-16 19 -39 35q-20 13 -48.5 24t-67.5 11q-36 0 -64 -10t-47 -26.5t-29 -38
t-10 -45.5q0 -45 28 -69.5t70.5 -40.5t91.5 -29t91.5 -34.5t70.5 -58t28 -98.5q0 -41 -14 -76.5t-41.5 -61.5t-67.5 -42t-91 -19l-21 -46h5q38 0 59 -20t21 -52t-25 -55t-70 -23q-19 0 -34.5 5t-26.5 11q-13 7 -24 16l20 33q7 -8 17 -13q8 -5 20.5 -8.5t27.5 -3.5
q23 0 36.5 12.5t13.5 27.5t-10.5 25t-29.5 10q-7 0 -12.5 -1.5t-9.5 -3.5q-4 -3 -8 -5l-25 25l31 66q-54 4 -94 21t-66 36q-31 22 -51 48l46 51q19 -25 46 -43q23 -17 58.5 -30t84.5 -13q79 0 119.5 36.5t40.5 93.5z" />
    <glyph glyph-name="scedilla" unicode="&#x15f;" horiz-adv-x="430" 
d="M315 375q-11 14 -26 25q-14 9 -33.5 17t-45.5 8q-41 0 -65.5 -22t-24.5 -48t19.5 -41t48 -25t62.5 -19.5t62.5 -25t48 -41.5t19.5 -68q0 -28 -10.5 -53t-30 -44t-48.5 -31.5t-65 -15.5l-21 -46h5q38 0 59 -20t21 -52t-25 -55t-70 -23q-19 0 -34.5 5t-26.5 11
q-13 7 -24 16l20 33q7 -8 17 -13q8 -5 20.5 -8.5t27.5 -3.5q23 0 36.5 12.5t13.5 27.5t-10.5 25t-29.5 10q-7 0 -12.5 -1.5t-9.5 -3.5q-4 -3 -8 -5l-25 25l31 66q-39 4 -67 17.5t-47 28.5q-22 18 -37 38l50 50q14 -20 32 -35q16 -14 39.5 -24.5t53.5 -10.5q53 0 79 23t26 57
q0 27 -19.5 43t-48 26.5t-62.5 20t-62.5 24.5t-48 40t-19.5 66q0 26 11.5 50.5t32.5 43t50.5 30t65.5 11.5q38 0 66.5 -10.5t48.5 -22.5q23 -14 40 -32z" />
    <glyph glyph-name="uogonek" unicode="&#x173;" horiz-adv-x="585" 
d="M425 65q-15 -21 -38 -38q-20 -14 -49 -25.5t-68 -11.5q-41 0 -77 15t-62 43t-41 66.5t-15 85.5v280h70v-280q0 -32 10.5 -58.5t29 -46t43 -30t52.5 -10.5q30 0 56.5 11.5t46 32.5t31 50.5t11.5 65.5v265h70v-480h-20q-16 -18 -28 -36q-11 -16 -19 -35.5t-8 -38.5
q0 -45 50 -45q22 0 41 7q10 4 19 8v-50q-9 -4 -20 -8q-9 -3 -20.5 -5t-25.5 -2q-45 0 -69.5 24t-24.5 66q0 24 8 45t19 37q12 18 28 33v65z" />
    <glyph glyph-name="ccedilla" unicode="&#xe7;" horiz-adv-x="515" 
d="M40 240q0 52 19 98t52 79.5t76.5 53t92.5 19.5q47 0 83 -15t61 -33q29 -21 51 -47l-50 -50q-16 22 -37 40q-18 15 -45.5 27.5t-62.5 12.5q-34 0 -64.5 -14t-54 -39t-37.5 -59t-14 -72q0 -39 14 -73t37.5 -59t54 -39t64.5 -14q35 0 63 12.5t48 27.5q23 18 39 40l50 -45
q-21 -26 -49 -47q-24 -18 -58 -34t-77 -19l-21 -46h5q38 0 59 -20t21 -52t-25 -55t-70 -23q-19 0 -34.5 5t-26.5 11q-13 7 -24 16l20 33q7 -8 17 -13q8 -5 20.5 -8.5t27.5 -3.5q23 0 36.5 12.5t13.5 27.5t-10.5 25t-29.5 10q-7 0 -12.5 -1.5t-9.5 -3.5q-4 -3 -8 -5l-25 25
l31 67q-44 5 -82.5 26t-67 54t-45 76t-16.5 92z" />
    <glyph glyph-name="Ccedilla" unicode="&#xc7;" horiz-adv-x="750" 
d="M60 350q0 75 28 140.5t77 114.5t114.5 77t140.5 28q72 0 125 -23t89 -50q41 -32 71 -72l-50 -45q-24 34 -58 60q-29 23 -73 41.5t-104 18.5t-112 -22t-90.5 -61t-60.5 -92t-22 -114q0 -62 22 -115t60.5 -92t90.5 -61t112 -22t105 18.5t75 41.5q35 26 60 60l50 -45
q-30 -39 -71 -70q-18 -13 -39.5 -26t-48 -24t-56.5 -17.5t-64 -7.5l-21 -46h5q38 0 59 -20t21 -52t-25 -55t-70 -23q-19 0 -34.5 5t-26.5 11q-13 7 -24 16l20 33q7 -8 17 -13q8 -5 20.5 -8.5t27.5 -3.5q23 0 36.5 12.5t13.5 27.5t-10.5 25t-29.5 10q-7 0 -12.5 -1.5
t-9.5 -3.5q-4 -3 -8 -5l-25 25l31 67q-69 6 -128.5 36t-103.5 78t-69 110.5t-25 133.5z" />
    <glyph glyph-name="nonbreakingspace" unicode="&#xa0;" horiz-adv-x="190" 
 />
    <glyph glyph-name="uni021B" unicode="&#x21b;" horiz-adv-x="360" 
d="M120 640h65v-160h105v-65h-105v-285q0 -38 17.5 -56.5t47.5 -18.5q13 0 25 2t21 5q11 4 19 8v-65q-9 -4 -20 -8q-9 -3 -21.5 -5t-26.5 -2q-62 0 -97 36t-35 104v285h-90v65h55q40 0 40 50v110zM185 -80h65l-60 -135h-50z" />
    <glyph glyph-name="uni021A" unicode="&#x21a;" horiz-adv-x="555" 
d="M535 700v-70h-220v-630h-75v630h-220v70h515zM245 -80h65l-60 -135h-50z" />
    <glyph glyph-name="foundryicon" horiz-adv-x="1538" 
d="M278 429h-72v-199h-35v199h-71v31h178v-31zM519 396q32 0 54.5 -24.5t22.5 -59.5q0 -36 -22.5 -60.5t-54.5 -24.5q-29 0 -47 21v-79h-34v224h24l9 -19q8 10 20.5 16t27.5 6zM516 258q19 0 33 15.5t14 38.5q0 21 -14 36.5t-33 15.5q-20 0 -33.5 -15.5t-13.5 -36.5
q0 -23 13.5 -38.5t33.5 -15.5zM377 393h37l-77 -190q-16 -34 -49 -34q-7 0 -10 1v28q23 0 31 20l6 16l-63 159h37l44 -116zM701 396q32 0 54 -24t22 -59q0 -2 -0.5 -4.5t-0.5 -4.5v-6h-119q2 -17 14.5 -29t29.5 -12q12 0 22 4t15 13h35q-9 -23 -29 -35t-43 -12
q-32 0 -55 24.5t-23 60.5q0 17 6 32.5t16.5 27t25 18t30.5 6.5zM745 325q-1 17 -14.5 28.5t-29.5 11.5t-29 -10.5t-15 -29.5h88zM939 429h-72v-199h-35v199h-71v31h178v-31zM1180 396q32 0 54.5 -24.5t22.5 -59.5q0 -36 -22.5 -60.5t-54.5 -24.5q-29 0 -47 21v-79h-34v224
h24l9 -19q8 10 20.5 16t27.5 6zM1177 258q19 0 33 15.5t14 38.5q0 21 -14 36.5t-33 15.5q-20 0 -33.5 -15.5t-13.5 -36.5q0 -23 13.5 -38.5t33.5 -15.5zM1038 393h37l-77 -190q-16 -34 -49 -34q-7 0 -10 1v28q23 0 31 20l6 16l-63 159h37l44 -116zM1362 396q32 0 54 -24
t22 -59q0 -2 -0.5 -4.5t-0.5 -4.5v-6h-119q2 -17 14.5 -29t29.5 -12q12 0 22 4t15 13h35q-9 -23 -29 -35t-43 -12q-32 0 -55 24.5t-23 60.5q0 17 6 32.5t16.5 27t25 18t30.5 6.5zM1406 325q-1 17 -14.5 28.5t-29.5 11.5t-29 -10.5t-15 -29.5h88z" />
    </font>
</defs>
</svg>
