<?xml version="1.0" standalone="no"?>
<!DOCTYPE svg PUBLIC "-//W3C//DTD SVG 1.1//EN" "http://www.w3.org/Graphics/SVG/1.1/DTD/svg11.dtd" >
<svg xmlns="http://www.w3.org/2000/svg" xmlns:xlink="http://www.w3.org/1999/xlink" version="1.1">
<metadata>
Created by FontForge 20170910 at Mon May 15 09:03:47 2017
 By Jimmy Wärting
Copyright (c) 2017 by TypeType. Designers Ivan Gladkikh, Pavel Emelyanov. Technical designers Olexa Volochay, Nadyr Rakhimov, Dmitriy Greshnev. All rights reserved.
</metadata>
<defs>
<font id="TTNorms-Bold" horiz-adv-x="600" >
  <font-face 
    font-family="TT Norms"
    font-weight="700"
    font-stretch="normal"
    units-per-em="1000"
    panose-1="2 0 8 3 4 0 0 2 0 4"
    ascent="800"
    descent="-200"
    x-height="490"
    cap-height="700"
    bbox="-175 -230 1438 980"
    underline-thickness="50"
    underline-position="-100"
    unicode-range="U+000D-FB06"
  />
<missing-glyph horiz-adv-x="0" 
 />
    <glyph glyph-name="i_j" unicode="ij" horiz-adv-x="560" 
d="M350 12q-11 -7 -25 -11q-12 -5 -29.5 -8t-40.5 -3q-41 0 -76 14.5t-60.5 40.5t-39.5 63t-14 82v300h135v-300q0 -38 23.5 -61.5t61.5 -23.5q15 0 27 3t20 7q10 4 18 10v365h135v-530q0 -83 -42.5 -126.5t-117.5 -43.5q-19 0 -34.5 2t-26.5 5q-13 4 -24 8v120q8 -3 16 -5
q15 -5 34 -5q26 0 43 16t17 39v42zM210 630q0 -34 -21 -54.5t-59 -20.5q-34 0 -54.5 20.5t-20.5 54.5t20.5 54.5t54.5 20.5q38 0 59 -20.5t21 -54.5zM495 630q0 -34 -21 -54.5t-59 -20.5q-34 0 -54.5 20.5t-20.5 54.5t20.5 54.5t54.5 20.5q38 0 59 -20.5t21 -54.5z" />
    <glyph glyph-name="c_t" unicode="ct" horiz-adv-x="920" 
d="M410 315q-12 18 -29 32q-14 12 -36 22.5t-50 10.5q-26 0 -49.5 -10.5t-41.5 -29t-28.5 -43t-10.5 -52.5t10.5 -52.5t28.5 -43t41.5 -29t49.5 -10.5q28 0 50 10t38 22q18 14 32 33l80 -85q-20 -28 -49 -50q-25 -19 -62.5 -34.5t-88.5 -15.5q-54 0 -102.5 21t-84.5 56
t-57 81t-21 97t21 97t57 81t84.5 56t102.5 21h15v15q0 43 15.5 79.5t44 63.5t69 42t91.5 15t92.5 -16.5t71 -47t45.5 -74t16 -97.5h100v-120h-100v-195q0 -23 17 -39t43 -16q21 0 36 5q8 2 14 5v-115q-12 -4 -26 -8q-12 -3 -28.5 -5t-35.5 -2q-75 0 -115 41.5t-40 128.5v200
h-85v120h85q0 57 -26.5 86t-68.5 29t-66 -24t-24 -66q0 -21 9.5 -40t20.5 -33q13 -17 30 -32z" />
    <glyph glyph-name="s_t" unicode="st" horiz-adv-x="845" 
d="M235 500v15q0 43 15.5 79.5t44 63.5t69 42t91.5 15t92.5 -16.5t71 -47t45.5 -74t16 -97.5h100v-120h-100v-195q0 -23 17 -39t43 -16q21 0 36 5q8 2 14 5v-115q-12 -4 -26 -8q-12 -3 -28.5 -5t-35.5 -2q-75 0 -115 41.5t-40 128.5v200h-85v120h85q0 57 -26.5 86t-68.5 29
t-66 -24t-24 -66q0 -17 6 -31.5t14 -25.5q9 -12 20 -23l-70 -80q-9 11 -21 20q-11 8 -25.5 14t-33.5 6q-30 0 -45 -12.5t-15 -27.5q0 -17 16.5 -27.5t41.5 -19t54.5 -18t54.5 -26t41.5 -42.5t16.5 -67q0 -32 -13 -60t-37.5 -49t-61 -33.5t-83.5 -12.5q-53 0 -91 14t-62 31
q-29 19 -47 45l75 75q12 -16 28 -28q14 -11 33 -19t44 -8q34 0 49.5 13t15.5 32t-16.5 29.5t-41.5 19.5t-54.5 18.5t-54.5 25.5t-41.5 41t-16.5 66q0 28 14 56t39.5 50t60.5 35.5t76 13.5h5z" />
    <glyph glyph-name="s_p" unicode="sp" horiz-adv-x="1070" 
d="M795 -10q-36 0 -63 10.5t-45 24.5q-21 15 -37 35v-270h-135v700q0 53 -23 79t-57 26q-30 0 -52.5 -23t-22.5 -57q0 -21 6 -37.5t14 -28.5q9 -14 20 -24l-70 -80q-9 11 -21 20q-11 8 -25.5 14t-33.5 6q-30 0 -45 -12.5t-15 -27.5q0 -17 16.5 -27.5t41.5 -19t54.5 -18
t54.5 -26t41.5 -42.5t16.5 -67q0 -32 -13 -60t-37.5 -49t-61 -33.5t-83.5 -12.5q-53 0 -91 14t-62 31q-29 19 -47 45l75 75q12 -16 28 -28q14 -11 33 -19t44 -8q34 0 49.5 13t15.5 32t-16.5 29.5t-41.5 19.5t-54.5 18.5t-54.5 25.5t-41.5 41t-16.5 66q0 28 14 56t39.5 50
t60.5 35.5t76 13.5h5v15q0 43 15 79.5t42.5 63.5t65 42t82.5 15q47 0 85.5 -15.5t66.5 -44.5t43 -71t15 -94v-60q16 19 37 35q18 13 45 24t63 11q47 0 89.5 -19.5t75 -53.5t51.5 -81t19 -101t-19 -101t-51.5 -81t-75 -53.5t-89.5 -19.5zM770 380q-24 0 -46 -10t-38.5 -27.5
t-26 -42.5t-9.5 -55t9.5 -55t26 -42.5t38.5 -27.5t46 -10t46 10t38.5 27.5t26 42.5t9.5 55t-9.5 55t-26 42.5t-38.5 27.5t-46 10z" />
    <glyph glyph-name="f_f" unicode="ff" horiz-adv-x="680" 
d="M650 355h-110v-355h-135v355h-180v-355h-135v355h-70v120h70v50q0 87 40 128.5t115 41.5q19 0 35.5 -2.5t28.5 -5.5q14 -4 26 -7v-115q-6 2 -14 5q-7 2 -16 3.5t-20 1.5q-26 0 -43 -16t-17 -39v-45h180v70q0 87 40 128.5t115 41.5q19 0 35.5 -2.5t28.5 -5.5q14 -4 26 -7
v-115q-6 2 -14 5q-7 2 -16 3.5t-20 1.5q-26 0 -43 -16t-17 -39v-65h110v-120z" />
    <glyph glyph-name="uniFB02" unicode="fl" horiz-adv-x="615" 
d="M405 505q0 34 -26 59.5t-64 25.5t-64 -25.5t-26 -59.5v-30h110v-120h-110v-355h-135v355h-70v120h70v30q0 45 16.5 83.5t46 66.5t71 44t91.5 16q51 0 92.5 -16t71 -44t45.5 -66.5t16 -83.5v-505h-135v505v0z" />
    <glyph glyph-name="f_t" unicode="ft" horiz-adv-x="715" 
d="M430 635h120v-160h100v-120h-100v-190q0 -23 17 -39t43 -16q21 0 36 5q8 2 14 5v-115q-12 -4 -26 -8q-12 -3 -28.5 -5t-35.5 -2q-75 0 -115 41.5t-40 128.5v195h-190v-355h-135v355h-70v120h70v65q0 87 40 128.5t115 41.5q19 0 35.5 -2.5t28.5 -5.5q14 -4 26 -7v-115
q-6 2 -14 5q-7 2 -16 3.5t-20 1.5q-26 0 -43 -16t-17 -39v-60h150q23 0 39 17.5t16 47.5v95z" />
    <glyph glyph-name="uniFB01" unicode="fi" horiz-adv-x="615" 
d="M540 0h-135v355h-180v-355h-135v355h-70v120h70v65q0 87 40 128.5t115 41.5q19 0 35.5 -2.5t28.5 -5.5q14 -4 26 -7v-115q-6 2 -14 5q-7 2 -16 3.5t-20 1.5q-26 0 -43 -16t-17 -39v-60h315v-475zM550 630q0 -34 -21 -54.5t-59 -20.5q-34 0 -54.5 20.5t-20.5 54.5
t20.5 54.5t54.5 20.5q38 0 59 -20.5t21 -54.5z" />
    <glyph glyph-name="f_f_i" unicode="ffi" horiz-adv-x="930" 
d="M855 0h-135v355h-180v-355h-135v355h-180v-355h-135v355h-70v120h70v50q0 87 40 128.5t115 41.5q19 0 35.5 -2.5t28.5 -5.5q14 -4 26 -7v-115q-6 2 -14 5q-7 2 -16 3.5t-20 1.5q-26 0 -43 -16t-17 -39v-45h180v70q0 87 40 128.5t115 41.5q19 0 35.5 -2.5t28.5 -5.5
q14 -4 26 -7v-115q-6 2 -14 5q-7 2 -16 3.5t-20 1.5q-26 0 -43 -16t-17 -39v-65h315v-475zM865 630q0 -34 -21 -54.5t-59 -20.5q-34 0 -54.5 20.5t-20.5 54.5t20.5 54.5t54.5 20.5q38 0 59 -20.5t21 -54.5z" />
    <glyph glyph-name=".notdef" horiz-adv-x="0" 
 />
    <glyph glyph-name=".null" horiz-adv-x="0" 
 />
    <glyph glyph-name=".null" horiz-adv-x="0" 
 />
    <glyph glyph-name="nonmarkingreturn" unicode="&#xd;" horiz-adv-x="0" 
 />
    <glyph glyph-name="space" unicode=" " horiz-adv-x="205" 
 />
    <glyph glyph-name="four" unicode="4" horiz-adv-x="610" 
d="M590 255v-130h-80v-125h-150v125h-330v150l305 425h175v-445h80zM360 525l-190 -270h190v270z" />
    <glyph glyph-name="five" unicode="5" horiz-adv-x="620" 
d="M340 465q51 0 94 -17.5t74.5 -49t49 -74.5t17.5 -94q0 -53 -19 -97.5t-53.5 -77.5t-83.5 -51.5t-109 -18.5q-68 0 -117 17t-81 38q-38 24 -62 55l90 95q17 -20 42 -35q20 -14 50 -24.5t68 -10.5q57 0 88.5 30.5t31.5 79.5t-33.5 82t-86.5 33q-30 0 -52 -8.5t-36 -19.5
q-17 -12 -27 -27l-105 10l25 400h425v-130h-290l-10 -130q12 7 29 12q14 5 34.5 9t46.5 4z" />
    <glyph glyph-name="six" unicode="6" horiz-adv-x="615" 
d="M330 475q47 0 90.5 -20t76.5 -54t53 -78t20 -93q0 -51 -19.5 -95.5t-55 -77.5t-84 -52.5t-106.5 -19.5t-106.5 19.5t-84 52.5t-55 77.5t-19.5 95.5q0 35 9.5 66.5t20.5 54.5q13 27 30 49l195 300h155l-150 -230q5 1 9 2t9 2t12 1zM425 230q0 49 -33.5 82t-86.5 33
t-86.5 -33t-33.5 -82t33.5 -82t86.5 -33t86.5 33t33.5 82z" />
    <glyph glyph-name="seven" unicode="7" horiz-adv-x="535" 
d="M510 700v-120l-275 -580h-155l270 565h-320v135h480z" />
    <glyph glyph-name="eight" unicode="8" horiz-adv-x="610" 
d="M305 110q24 0 45 8.5t36.5 22.5t24.5 32t9 37t-9 37t-24.5 32t-36.5 22.5t-45 8.5t-45 -8.5t-36.5 -22.5t-24.5 -32t-9 -37t9 -37t24.5 -32t36.5 -22.5t45 -8.5zM305 430q42 0 66 23t24 57t-24 57t-66 23t-66 -23t-24 -57t24 -57t66 -23zM305 -15q-56 0 -103 18.5t-81 49
t-52.5 71.5t-18.5 86q0 43 16 75t36 53q23 25 53 42q-22 14 -40 34q-15 17 -27.5 43.5t-12.5 62.5q0 37 17 72.5t47.5 62.5t72.5 43.5t93 16.5t93 -16.5t72.5 -43.5t47.5 -62.5t17 -72.5q0 -36 -12.5 -62.5t-27.5 -43.5q-18 -20 -40 -34q29 -17 52 -42q20 -21 36.5 -53
t16.5 -75q0 -45 -19 -86t-52.5 -71.5t-80.5 -49t-103 -18.5z" />
    <glyph glyph-name="nine" unicode="9" horiz-adv-x="615" 
d="M285 225q-47 0 -90.5 20t-76.5 53.5t-53 78t-20 93.5q0 51 19.5 95.5t55 77.5t84 52.5t106.5 19.5t106.5 -19.5t84 -52.5t55 -77.5t19.5 -95.5q0 -36 -9.5 -67t-20.5 -54q-13 -27 -30 -49l-195 -300h-155l150 230q-5 -2 -9 -3q-10 -2 -21 -2zM190 470q0 -49 33.5 -82
t86.5 -33t86.5 33t33.5 82t-33.5 82t-86.5 33t-86.5 -33t-33.5 -82z" />
    <glyph glyph-name="afii10018" unicode="&#x411;" horiz-adv-x="680" 
d="M390 135q42 0 68.5 25.5t26.5 59.5t-26.5 59.5t-68.5 25.5h-150v-170h150zM90 0v700h485v-135h-335v-125h155q52 0 96.5 -17.5t76 -47.5t49.5 -70t18 -85t-18 -85t-49.5 -70t-76 -47.5t-96.5 -17.5h-305z" />
    <glyph glyph-name="afii10020" unicode="&#x413;" horiz-adv-x="575" 
d="M90 700h475v-135h-325v-565h-150v700z" />
    <glyph glyph-name="afii10021" unicode="&#x414;" horiz-adv-x="745" 
d="M40 135q30 32 55 81q20 42 37.5 108.5t17.5 160.5v215h485v-565h85v-280h-150v145h-420v-145h-150v280h40zM300 485q0 -94 -17.5 -160.5t-37.5 -108.5q-25 -49 -55 -81h295v430h-185v-80z" />
    <glyph glyph-name="afii10024" unicode="&#x416;" horiz-adv-x="1030" 
d="M380 300l-205 -300h-175l280 410l-260 290h175l245 -270v270h150v-270l245 270h175l-260 -290l280 -410h-175l-205 300l-60 -65v-235h-150v235z" />
    <glyph glyph-name="afii10025" unicode="&#x417;" horiz-adv-x="630" 
d="M450 370q36 -14 65 -38q24 -20 44.5 -53.5t20.5 -83.5q0 -42 -18.5 -80t-54 -67t-88 -46t-119.5 -17q-68 0 -119 18.5t-86 41.5q-40 26 -70 60l90 90q20 -21 46 -38q23 -14 55 -25.5t74 -11.5q65 0 97.5 27.5t32.5 62.5q0 36 -30 63t-95 27h-90v130h85q54 0 79.5 22
t25.5 53q0 30 -26.5 52.5t-83.5 22.5q-32 0 -58 -10.5t-46 -22.5q-23 -14 -41 -32l-90 95q26 29 63 52q32 20 78 36.5t109 16.5q60 0 107.5 -16.5t80 -43.5t50 -62.5t17.5 -72.5q0 -45 -16.5 -73.5t-36.5 -45.5q-23 -20 -52 -31z" />
    <glyph glyph-name="afii10027" unicode="&#x419;" horiz-adv-x="805" 
d="M400 875q26 0 43 17t17 43h100q0 -34 -11.5 -62.5t-32.5 -49t-50.5 -32t-65.5 -11.5t-65.5 11.5t-50.5 32t-32.5 49t-11.5 62.5h100q0 -26 17 -43t43 -17zM565 0v445l-345 -445h-130v700h150v-445l345 445h130v-700h-150z" />
    <glyph glyph-name="afii10029" unicode="&#x41b;" horiz-adv-x="765" 
d="M675 0h-150v565h-205v-80q0 -152 -17 -249t-47.5 -153t-72.5 -77t-93 -21q-19 0 -35.5 2.5t-28.5 5.5q-14 4 -26 9v143q8 -3 16 -5q15 -5 34 -5q26 0 48 12.5t38 50t25 106t9 180.5v216h505v-700z" />
    <glyph glyph-name="afii10033" unicode="&#x41f;" horiz-adv-x="775" 
d="M685 0h-150v565h-295v-565h-150v700h595v-700z" />
    <glyph glyph-name="afii10038" unicode="&#x424;" horiz-adv-x="870" 
d="M190 360q0 -68 45.5 -112t124.5 -48v320q-79 -4 -124.5 -48t-45.5 -112zM510 -20h-150v90q-71 2 -130 25.5t-101 63t-65.5 91.5t-23.5 110t23.5 110t65.5 91.5t101 63t130 25.5v75h150v-75q71 -2 130 -25.5t101 -63t65.5 -91.5t23.5 -110t-23.5 -110t-65.5 -91.5
t-101 -63t-130 -25.5v-90zM680 360q0 68 -45.5 112t-124.5 48v-320q79 4 124.5 48t45.5 112z" />
    <glyph glyph-name="afii10040" unicode="&#x426;" horiz-adv-x="785" 
d="M90 700h150v-565h285v565h150v-565h85v-280h-150v145h-520v700z" />
    <glyph glyph-name="afii10041" unicode="&#x427;" horiz-adv-x="735" 
d="M230 485q0 -64 32.5 -97t92.5 -33q32 0 57 7.5t44 17.5q21 11 39 25v295h150v-700h-150v260q-19 -11 -45 -20q-22 -8 -52 -14t-68 -6q-117 0 -183.5 68.5t-66.5 196.5v215h150v-215z" />
    <glyph glyph-name="afii10042" unicode="&#x428;" horiz-adv-x="1060" 
d="M970 0h-880v700h150v-565h215v565h150v-565h215v565h150v-700z" />
    <glyph glyph-name="afii10043" unicode="&#x429;" horiz-adv-x="1080" 
d="M970 135h85v-280h-150v145h-815v700h150v-565h215v565h150v-565h215v565h150v-565z" />
    <glyph glyph-name="afii10044" unicode="&#x42a;" horiz-adv-x="745" 
d="M165 0v565h-165v135h315v-230h135q54 0 100 -18t79.5 -49.5t52 -74.5t18.5 -93t-18.5 -92.5t-52 -74.5t-79.5 -50t-100 -18h-285zM445 135q22 0 41.5 8t33.5 21.5t22 31.5t8 39t-8 39t-22 31.5t-33.5 21.5t-41.5 8h-130v-200h130z" />
    <glyph glyph-name="afii10045" unicode="&#x42b;" horiz-adv-x="945" 
d="M855 0h-150v700h150v-700zM90 0v700h150v-230h135q54 0 100 -18t79.5 -49.5t52 -74.5t18.5 -93t-18.5 -92.5t-52 -74.5t-79.5 -50t-100 -18h-285zM370 135q22 0 41.5 8t33.5 21.5t22 31.5t8 39t-8 39t-22 31.5t-33.5 21.5t-41.5 8h-130v-200h130z" />
    <glyph glyph-name="afii10046" unicode="&#x42c;" horiz-adv-x="680" 
d="M90 0v700h150v-230h145q54 0 100 -18t79.5 -49.5t52 -74.5t18.5 -93t-18.5 -92.5t-52 -74.5t-79.5 -50t-100 -18h-295zM380 135q22 0 41.5 8t33.5 21.5t22 31.5t8 39t-8 39t-22 31.5t-33.5 21.5t-41.5 8h-140v-200h140z" />
    <glyph glyph-name="afii10047" unicode="&#x42d;" horiz-adv-x="755" 
d="M325 715q81 0 150.5 -29t120.5 -78.5t80 -116t29 -141.5t-29 -141.5t-80 -116t-120.5 -78.5t-150.5 -29q-74 0 -129 22t-92 48q-43 31 -74 70l90 95q22 -28 52 -50q26 -19 64 -34.5t89 -15.5q45 0 81.5 13t64 35.5t46.5 52.5t28 64h-310v135h310q-9 32 -28.5 61t-47.5 51
t-64.5 35t-79.5 13q-49 0 -85.5 -15.5t-60.5 -34.5q-29 -22 -49 -50l-95 95q30 39 72 70q36 26 90 48t128 22z" />
    <glyph glyph-name="afii10048" unicode="&#x42e;" horiz-adv-x="1090" 
d="M1040 350q0 -77 -28 -143.5t-76.5 -116t-113 -77.5t-137.5 -28q-69 0 -128.5 23.5t-105 64.5t-75.5 95.5t-41 116.5h-95v-285h-150v700h150v-275h95q11 58 41 110.5t75.5 92.5t105 63.5t128.5 23.5q73 0 137.5 -28t113 -77.5t76.5 -116t28 -143.5zM890 350q0 51 -16.5 93
t-44.5 72.5t-65.5 47.5t-78.5 17t-78.5 -17t-65.5 -47.5t-44.5 -72.5t-16.5 -93t16.5 -93t44.5 -72.5t65.5 -47.5t78.5 -17t78.5 17t65.5 47.5t44.5 72.5t16.5 93z" />
    <glyph glyph-name="afii10049" unicode="&#x42f;" horiz-adv-x="700" 
d="M610 0h-150v245h-130l-135 -245h-160l150 265q-36 17 -63 46q-23 24 -42.5 63t-19.5 96q0 48 18 90t49.5 73t75.5 49t97 18h310v-700zM210 470q0 -38 26.5 -64t68.5 -26h155v185h-155q-42 0 -68.5 -26.5t-26.5 -68.5z" />
    <glyph glyph-name="afii10026" unicode="&#x418;" horiz-adv-x="805" 
d="M565 0v445l-345 -445h-130v700h150v-445l345 445h130v-700h-150z" />
    <glyph glyph-name="afii10023" unicode="&#x401;" horiz-adv-x="665" 
d="M615 135v-135h-525v700h515v-135h-365v-140h285v-135h-285v-155h375zM169 857q0 30 22.5 52.5t52.5 22.5t52.5 -22.5t22.5 -52.5t-22.5 -52.5t-52.5 -22.5t-52.5 22.5t-22.5 52.5zM389 857q0 30 22.5 52.5t52.5 22.5t52.5 -22.5t22.5 -52.5t-22.5 -52.5t-52.5 -22.5
t-52.5 22.5t-22.5 52.5z" />
    <glyph glyph-name="D" unicode="D" horiz-adv-x="760" 
d="M350 700q77 0 143 -27.5t114 -74.5t75.5 -111t27.5 -137t-27.5 -137t-75.5 -111t-114 -74.5t-143 -27.5h-260v700h260zM240 565v-430h110q43 0 81.5 16.5t67 46t45 68.5t16.5 84t-16 84t-44 68.5t-66.5 46t-83.5 16.5h-110z" />
    <glyph glyph-name="A" unicode="A" horiz-adv-x="730" 
d="M365 525l-85 -230h170zM230 165l-60 -165h-160l275 700h160l275 -700h-160l-60 165h-270z" />
    <glyph glyph-name="B" unicode="B" horiz-adv-x="695" 
d="M90 0v700h300q49 0 89.5 -15.5t69.5 -41.5t45 -59t16 -69q0 -38 -12.5 -65t-27.5 -45q-18 -21 -40 -35q31 -15 57 -38q22 -20 40 -51t18 -76q0 -41 -17 -78t-48.5 -65t-75 -45t-97.5 -17h-317zM400 125q42 0 68.5 26t26.5 64t-26.5 64t-68.5 26h-160v-180h160zM240 575
v-150h140q38 0 59 20.5t21 54.5t-21 54.5t-59 20.5h-140z" />
    <glyph glyph-name="C" unicode="C" horiz-adv-x="755" 
d="M430 715q73 0 127.5 -22t90.5 -48q42 -31 72 -70l-95 -95q-21 28 -49 50q-25 19 -61 34.5t-85 15.5t-91 -17.5t-73 -48.5t-48.5 -73t-17.5 -91t17.5 -91t48.5 -73t73 -48.5t91 -17.5q51 0 89 15.5t64 34.5q30 22 52 50l90 -95q-31 -39 -74 -70q-37 -26 -92.5 -48
t-128.5 -22q-81 0 -150.5 29t-120.5 78.5t-80 116t-29 141.5t29 141.5t80 116t120.5 78.5t150.5 29z" />
    <glyph glyph-name="E" unicode="E" horiz-adv-x="665" 
d="M615 135v-135h-525v700h515v-135h-365v-140h285v-135h-285v-155h375z" />
    <glyph glyph-name="F" unicode="F" horiz-adv-x="645" 
d="M605 700v-135h-365v-155h285v-135h-285v-275h-150v700h515z" />
    <glyph glyph-name="G" unicode="G" horiz-adv-x="810" 
d="M735 380v-260q-33 -38 -78 -68q-38 -26 -95 -46.5t-132 -20.5q-81 0 -150.5 29t-120.5 78.5t-80 116t-29 141.5t29 141.5t80 116t120.5 78.5t150.5 29q73 0 127.5 -22t90.5 -48q42 -31 72 -70l-95 -95q-21 28 -49 50q-25 19 -61 34.5t-85 15.5t-91 -17.5t-73 -48.5
t-48.5 -73t-17.5 -91t17.5 -91t48.5 -73t73 -48.5t91 -17.5q39 0 68 8t49 19q23 12 38 28v95h-125v110h275z" />
    <glyph glyph-name="H" unicode="H" horiz-adv-x="780" 
d="M690 0h-150v285h-300v-285h-150v700h150v-280h300v280h150v-700z" />
    <glyph glyph-name="I" unicode="I" horiz-adv-x="330" 
d="M90 700h150v-700h-150v700z" />
    <glyph glyph-name="J" unicode="J" horiz-adv-x="515" 
d="M430 700v-475q0 -54 -17.5 -98t-50 -75.5t-77.5 -49t-100 -17.5q-45 0 -80 13t-58 29q-27 18 -47 43l90 90q10 -11 22 -20q11 -8 26.5 -14t36.5 -6q49 0 77 28t28 77v475h150z" />
    <glyph glyph-name="K" unicode="K" horiz-adv-x="710" 
d="M240 395l275 305h175l-260 -290l280 -410h-175l-205 300l-90 -100v-200h-150v700h150v-305z" />
    <glyph glyph-name="L" unicode="L" horiz-adv-x="590" 
d="M90 0v700h150v-565h325v-135h-475z" />
    <glyph glyph-name="M" unicode="M" horiz-adv-x="930" 
d="M707 700h133v-700h-150v467l-225 -287l-225 285v-465h-150v700h135l240 -305z" />
    <glyph glyph-name="N" unicode="N" horiz-adv-x="805" 
d="M715 700v-700h-130l-345 445v-445h-150v700h130l345 -445v445h150z" />
    <glyph glyph-name="O" unicode="O" horiz-adv-x="860" 
d="M205 350q0 -49 17.5 -91t48 -73t71.5 -48.5t88 -17.5t88 17.5t71.5 48.5t48 73t17.5 91t-17.5 91t-48 73t-71.5 48.5t-88 17.5t-88 -17.5t-71.5 -48.5t-48 -73t-17.5 -91zM50 350q0 75 29 141.5t80 116t120.5 78.5t150.5 29t150.5 -29t120.5 -78.5t80 -116t29 -141.5
t-29 -141.5t-80 -116t-120.5 -78.5t-150.5 -29t-150.5 29t-120.5 78.5t-80 116t-29 141.5z" />
    <glyph glyph-name="P" unicode="P" horiz-adv-x="680" 
d="M385 700q54 0 100 -18t79.5 -50t52 -75t18.5 -92q0 -50 -18.5 -93t-52 -74.5t-79.5 -49.5t-100 -18h-145v-230h-150v700h295zM240 565v-200h140q22 0 41.5 8t33.5 21.5t22 31.5t8 39t-8 39t-22 31.5t-33.5 21.5t-41.5 8h-140z" />
    <glyph glyph-name="Q" unicode="Q" horiz-adv-x="865" 
d="M50 350q0 75 29 141.5t80 116t120.5 78.5t150.5 29t150.5 -29t120.5 -78.5t80 -116t29 -141.5q0 -42 -8.5 -78.5t-22 -66.5t-31 -54.5t-35.5 -43.5q-42 -45 -96 -75q15 -20 40 -36q21 -14 54.5 -25t83.5 -11h20v-120h-30q-81 0 -137.5 23t-93.5 51q-43 33 -72 74
q-7 -1 -15 -2q-7 -1 -16.5 -1h-20.5q-81 0 -150.5 29t-120.5 78.5t-80 116t-29 141.5zM205 350q0 -49 17.5 -91t48 -73t71.5 -48.5t88 -17.5t88 17.5t71.5 48.5t48 73t17.5 91t-17.5 91t-48 73t-71.5 48.5t-88 17.5t-88 -17.5t-71.5 -48.5t-48 -73t-17.5 -91z" />
    <glyph glyph-name="R" unicode="R" horiz-adv-x="710" 
d="M90 700h310q52 0 96.5 -18t76 -49t49.5 -73t18 -90q0 -57 -20 -96t-43 -63q-27 -29 -62 -46l150 -265h-160l-135 245h-130v-245h-150v700zM490 470q0 42 -26.5 68.5t-68.5 26.5h-155v-185h155q42 0 68.5 26t26.5 64z" />
    <glyph glyph-name="T" unicode="T" horiz-adv-x="590" 
d="M570 700v-135h-200v-565h-150v565h-200v135h550z" />
    <glyph glyph-name="S" unicode="S" 
d="M395 205q0 32 -25.5 50t-64 31t-83 26.5t-83 36.5t-64 60.5t-25.5 100.5q0 41 17 78.5t49 65.5t77.5 44.5t101.5 16.5q58 0 101 -15t72 -33q33 -21 57 -47l-90 -95q-16 17 -35 30q-17 11 -41 20.5t-54 9.5q-45 0 -70 -22.5t-25 -52.5q0 -33 25.5 -50.5t64 -30.5t83 -26.5
t83 -36.5t64 -61t25.5 -100q0 -47 -17.5 -87t-51.5 -69.5t-83 -46.5t-113 -17q-66 0 -115.5 17.5t-82.5 39.5q-39 26 -67 58l90 90q18 -21 43 -38q21 -14 51.5 -25.5t70.5 -11.5q57 0 86 26t29 64z" />
    <glyph glyph-name="U" unicode="U" horiz-adv-x="780" 
d="M390 120q32 0 60 12.5t49 34.5t33.5 52t12.5 66v415h150v-415q0 -64 -23 -118.5t-64 -95t-96.5 -63.5t-121.5 -23t-121.5 23t-96.5 63.5t-64 95t-23 118.5v415h150v-415q0 -36 12.5 -66t33.5 -52t49 -34.5t60 -12.5z" />
    <glyph glyph-name="V" unicode="V" horiz-adv-x="720" 
d="M20 700h160l180 -520l180 520h160l-260 -700h-160z" />
    <glyph glyph-name="X" unicode="X" horiz-adv-x="700" 
d="M180 0h-170l245 365l-225 335h170l150 -225l150 225h170l-225 -335l245 -365h-170l-170 255z" />
    <glyph glyph-name="W" unicode="W" horiz-adv-x="1080" 
d="M610 700l145 -480l145 480h160l-230 -700h-140l-150 470l-150 -470h-140l-230 700h160l145 -480l145 480h140z" />
    <glyph glyph-name="Y" unicode="Y" horiz-adv-x="670" 
d="M335 400l165 300h160l-250 -450v-250h-150v250l-250 450h160z" />
    <glyph glyph-name="Z" unicode="Z" horiz-adv-x="650" 
d="M65 565v135h525v-135l-355 -430h365v-135h-550v135l355 430h-340z" />
    <glyph glyph-name="three" unicode="3" horiz-adv-x="575" 
d="M410 370q35 -13 62 -37q23 -20 43 -53.5t20 -84.5q0 -41 -18 -79t-51.5 -67t-81.5 -46.5t-109 -17.5q-68 0 -117.5 17t-82.5 38q-39 24 -65 55l90 95q18 -21 42 -38q20 -14 50 -25.5t68 -11.5q60 0 90 26t30 64t-29 64t-86 26h-75v125h70q45 0 70 23.5t25 61.5
q0 34 -25 57t-70 23q-32 0 -57 -10.5t-42 -22.5q-20 -14 -36 -32l-90 90q24 29 58 52q29 20 74 36.5t108 16.5q54 0 97.5 -15.5t74 -42t47 -62t16.5 -75.5q0 -42 -15.5 -70t-34.5 -46q-22 -21 -50 -34z" />
    <glyph glyph-name="a" unicode="a" horiz-adv-x="535" 
d="M330 50q-16 -17 -36 -30q-17 -11 -42 -20.5t-57 -9.5q-38 0 -68 11.5t-52 30.5t-33.5 44.5t-11.5 53.5q0 60 38.5 100t106.5 52l155 28q0 30 -21.5 50t-63.5 20q-29 0 -49 -8t-34 -17q-16 -11 -27 -25l-75 75q20 26 49 47q24 18 60.5 33t85.5 15q47 0 85.5 -15
t66.5 -41.5t43 -62t15 -76.5v-305h-135v50zM230 100q45 0 72.5 28.5t27.5 81.5v15l-110 -20q-55 -9 -55 -55q0 -23 15.5 -36.5t49.5 -13.5z" />
    <glyph glyph-name="b" unicode="b" horiz-adv-x="620" 
d="M345 500q47 0 89.5 -19.5t75 -53.5t51.5 -81t19 -101t-19 -101t-51.5 -81t-75 -53.5t-89.5 -19.5q-36 0 -63 10.5t-45 24.5q-21 15 -37 35v-60h-135v700h135v-270q16 19 37 35q18 13 45 24t63 11zM320 110q24 0 46 10t38.5 27.5t26 42.5t9.5 55t-9.5 55t-26 42.5
t-38.5 27.5t-46 10t-46 -10t-38.5 -27.5t-26 -42.5t-9.5 -55t9.5 -55t26 -42.5t38.5 -27.5t46 -10z" />
    <glyph glyph-name="c" unicode="c" horiz-adv-x="525" 
d="M30 245q0 51 21 97t57 81t84.5 56t102.5 21q51 0 88.5 -15.5t62.5 -34.5q29 -22 49 -50l-85 -85q-12 18 -29 32q-14 12 -36 22.5t-50 10.5q-26 0 -49.5 -10.5t-41.5 -29t-28.5 -43t-10.5 -52.5t10.5 -52.5t28.5 -43t41.5 -29t49.5 -10.5q28 0 50 10t38 22q18 14 32 33
l80 -85q-20 -28 -49 -50q-25 -19 -62.5 -34.5t-88.5 -15.5q-54 0 -102.5 21t-84.5 56t-57 81t-21 97z" />
    <glyph glyph-name="d" unicode="d" horiz-adv-x="620" 
d="M265 500q35 0 62.5 -11t45.5 -24q21 -16 37 -35v270h135v-700h-135v60q-16 -20 -37 -35q-18 -14 -45.5 -24.5t-62.5 -10.5q-47 0 -89.5 19.5t-75 53.5t-51.5 81t-19 101t19 101t51.5 81t75 53.5t89.5 19.5zM290 110q24 0 46 10t38.5 27.5t26 42.5t9.5 55t-9.5 55
t-26 42.5t-38.5 27.5t-46 10t-46 -10t-38.5 -27.5t-26 -42.5t-9.5 -55t9.5 -55t26 -42.5t38.5 -27.5t46 -10z" />
    <glyph glyph-name="e" unicode="e" horiz-adv-x="570" 
d="M170 200q8 -38 40.5 -66.5t89.5 -28.5q32 0 56 9.5t41 20.5q19 13 33 30l70 -90q-22 -25 -54 -43q-27 -16 -66 -29t-90 -13q-54 0 -101.5 20t-83 55t-55.5 81t-20 99q0 52 20 98.5t55 81.5t81 55t99 20q52 0 97 -18.5t78 -51.5t51.5 -78t18.5 -97q0 -14 -1 -24t-2 -17
q-1 -8 -2 -14h-355zM285 385q-45 0 -74.5 -26t-40.5 -64h225q-8 38 -36.5 64t-73.5 26z" />
    <glyph glyph-name="f" unicode="f" horiz-adv-x="365" 
d="M335 355h-110v-355h-135v355h-70v120h70v65q0 87 40 128.5t115 41.5q19 0 35.5 -2.5t28.5 -5.5q14 -4 26 -7v-115q-6 2 -14 5q-7 2 -16 3.5t-20 1.5q-26 0 -43 -16t-17 -39v-60h110v-120z" />
    <glyph glyph-name="g" unicode="g" 
d="M395 80q-16 -20 -37 -35q-18 -14 -45.5 -24.5t-62.5 -10.5q-41 0 -80.5 19.5t-70.5 52.5t-50 77.5t-19 95.5t19 95.5t50 77.5t70.5 52.5t80.5 19.5q35 0 62.5 -11t45.5 -24q21 -16 37 -35v60h135v-450q0 -53 -19.5 -98.5t-54 -79t-82.5 -53t-104 -19.5q-57 0 -99 16
t-70 36q-33 23 -56 53l85 80q14 -19 34 -33q17 -12 42 -22t59 -10q60 0 95 35t35 95v40zM170 255q0 -26 8.5 -48t23.5 -38t35 -25t43 -9q22 0 43 9t37 25.5t25.5 38t9.5 47.5q0 25 -9.5 47t-25.5 38.5t-37 25.5t-43 9q-23 0 -43 -9t-35 -25t-23.5 -38t-8.5 -48z" />
    <glyph glyph-name="h" unicode="h" 
d="M200 430q15 19 36 35q18 13 44 24t60 11q41 0 76 -14.5t60.5 -42.5t39.5 -67.5t14 -90.5v-285h-135v270q0 45 -26.5 72.5t-68.5 27.5q-45 0 -72.5 -29t-27.5 -86v-255h-135v700h135v-270z" />
    <glyph glyph-name="i" unicode="i" horiz-adv-x="275" 
d="M200 0h-135v490h135v-490zM210 630q0 -34 -21 -54.5t-59 -20.5q-34 0 -54.5 20.5t-20.5 54.5t20.5 54.5t54.5 20.5q38 0 59 -20.5t21 -54.5z" />
    <glyph glyph-name="j" unicode="j" horiz-adv-x="275" 
d="M65 490h135v-530q0 -83 -42.5 -126.5t-117.5 -43.5q-19 0 -34.5 2t-26.5 5q-13 4 -24 8v120q8 -3 16 -5q15 -5 34 -5q26 0 43 16t17 39v520zM210 630q0 -34 -21 -54.5t-59 -20.5q-34 0 -54.5 20.5t-20.5 54.5t20.5 54.5t54.5 20.5q38 0 59 -20.5t21 -54.5z" />
    <glyph glyph-name="k" unicode="k" horiz-adv-x="545" 
d="M200 120v-120h-135v700h135v-410l175 200h155l-185 -210l195 -280h-150l-130 190z" />
    <glyph glyph-name="l" unicode="l" horiz-adv-x="275" 
d="M200 0h-135v700h135v-700z" />
    <glyph glyph-name="m" unicode="m" horiz-adv-x="875" 
d="M670 270q0 49 -23 74.5t-57 25.5q-38 0 -64 -29t-26 -86v-255h-135v270q0 49 -23 74.5t-57 25.5q-38 0 -64 -29t-26 -86v-255h-135v490h135v-60q14 19 33 35q17 13 41 24t56 11q39 0 65.5 -13.5t43.5 -29.5q19 -18 31 -42q16 24 41 42q20 16 51 29.5t73 13.5
q79 0 127 -53t48 -162v-285h-135v270z" />
    <glyph glyph-name="n" unicode="n" horiz-adv-x="595" 
d="M195 430q15 19 36 35q18 13 44 24t60 11q41 0 76 -14.5t60.5 -42.5t39.5 -67.5t14 -90.5v-285h-135v270q0 45 -26.5 72.5t-68.5 27.5q-45 0 -72.5 -29t-27.5 -86v-255h-135v490h135v-60z" />
    <glyph glyph-name="o" unicode="o" horiz-adv-x="590" 
d="M170 245q0 -28 9.5 -52t26 -41t38.5 -27t46 -10t46 10t38.5 27t26 41t9.5 52t-9.5 52t-26 41t-38.5 27t-46 10t-46 -10t-38.5 -27t-26 -41t-9.5 -52zM550 245q0 -51 -21 -97t-56.5 -81t-83 -56t-99.5 -21q-53 0 -100 21t-82.5 56t-56.5 81t-21 97t21 97t56.5 81t82.5 56
t100 21q52 0 99.5 -21t83 -56t56.5 -81t21 -97z" />
    <glyph glyph-name="p" unicode="p" horiz-adv-x="615" 
d="M340 -10q-36 0 -63 10.5t-45 24.5q-21 15 -37 35v-270h-135v700h135v-60q16 19 37 35q18 13 45 24t63 11q47 0 89.5 -19.5t75 -53.5t51.5 -81t19 -101t-19 -101t-51.5 -81t-75 -53.5t-89.5 -19.5zM315 380q-24 0 -46 -10t-38.5 -27.5t-26 -42.5t-9.5 -55t9.5 -55
t26 -42.5t38.5 -27.5t46 -10t46 10t38.5 27.5t26 42.5t9.5 55t-9.5 55t-26 42.5t-38.5 27.5t-46 10z" />
    <glyph glyph-name="q" unicode="q" horiz-adv-x="615" 
d="M265 -10q-47 0 -89.5 19.5t-75 53.5t-51.5 81t-19 101t19 101t51.5 81t75 53.5t89.5 19.5q35 0 62.5 -11t45.5 -24q21 -16 37 -35v60h135v-700h-135v270q-16 -20 -37 -35q-18 -14 -45.5 -24.5t-62.5 -10.5zM290 380q-24 0 -46 -10t-38.5 -27.5t-26 -42.5t-9.5 -55
t9.5 -55t26 -42.5t38.5 -27.5t46 -10t46 10t38.5 27.5t26 42.5t9.5 55t-9.5 55t-26 42.5t-38.5 27.5t-46 10z" />
    <glyph glyph-name="r" unicode="r" horiz-adv-x="370" 
d="M355 360q-5 1 -11 2t-14.5 2t-19.5 1q-53 0 -84 -33t-31 -97v-235h-135v490h135v-60q15 18 36 32q18 12 44 22.5t60 10.5h20v-135z" />
    <glyph glyph-name="s" unicode="s" horiz-adv-x="455" 
d="M330 345q-9 11 -21 20q-11 8 -25.5 14t-33.5 6q-30 0 -45 -12.5t-15 -27.5q0 -17 16.5 -27.5t41.5 -19t54.5 -18t54.5 -26t41.5 -42.5t16.5 -67q0 -32 -13 -60t-37.5 -49t-61 -33.5t-83.5 -12.5q-53 0 -91 14t-62 31q-29 19 -47 45l75 75q12 -16 28 -28q14 -11 33 -19
t44 -8q34 0 49.5 13t15.5 32t-16.5 29.5t-41.5 19.5t-54.5 18.5t-54.5 25.5t-41.5 41t-16.5 66q0 28 14 56t39.5 50t60.5 35.5t76 13.5q43 0 75 -12t53 -26q25 -17 42 -37z" />
    <glyph glyph-name="t" unicode="t" horiz-adv-x="405" 
d="M120 635h120v-155h100v-120h-100v-195q0 -23 17 -39t43 -16q21 0 36 5q8 2 14 5v-115q-12 -4 -26 -8q-12 -3 -28.5 -5t-35.5 -2q-75 0 -115 41.5t-40 128.5v200h-85v120h45q23 0 39 17.5t16 47.5v90z" />
    <glyph glyph-name="u" unicode="u" 
d="M390 50q-15 -17 -36 -30q-18 -11 -44 -20.5t-60 -9.5q-41 0 -76 14.5t-60.5 41.5t-39.5 65t-14 86v293h135v-280q0 -42 26.5 -68.5t68.5 -26.5q45 0 72.5 29t27.5 86v260h135v-490h-135v50z" />
    <glyph glyph-name="v" unicode="v" horiz-adv-x="520" 
d="M185 0l-185 490h140l115 -325l115 325h140l-185 -490h-140z" />
    <glyph glyph-name="w" unicode="w" horiz-adv-x="770" 
d="M430 490l95 -295l95 295h140l-167 -490h-118l-95 280l-95 -280h-118l-167 490h140l95 -295l95 295h100z" />
    <glyph glyph-name="x" unicode="x" horiz-adv-x="510" 
d="M145 0h-145l165 250l-155 240h150l90 -145l90 145h150l-155 -240l165 -250h-145l-105 155z" />
    <glyph glyph-name="y" unicode="y" horiz-adv-x="520" 
d="M190 5l-190 485h140l115 -325l115 325h140l-195 -520q-34 -91 -80 -135.5t-110 -44.5q-19 0 -34.5 2t-26.5 5q-13 4 -24 8v120q6 -3 14 -5q15 -5 36 -5q34 0 54.5 16t30.5 39z" />
    <glyph glyph-name="z" unicode="z" horiz-adv-x="500" 
d="M445 370l-240 -250h250v-120h-420v120l240 250h-230v120h400v-120z" />
    <glyph glyph-name="afii10066" unicode="&#x431;" horiz-adv-x="605" 
d="M555 235q0 -51 -18 -95.5t-50 -77.5t-77.5 -52.5t-99.5 -19.5q-58 0 -106.5 20.5t-84 61t-55 100t-19.5 138.5q0 90 18 155t51 109t79 69.5t102 36.5q45 9 77.5 18.5t54.5 17.5q26 10 43 19l60 -100q-12 -11 -38 -22q-22 -10 -59.5 -22.5t-97.5 -25.5q-64 -14 -104 -54.5
t-51 -100.5q17 19 39 35q19 13 45.5 24t60.5 11q45 0 86.5 -19.5t73.5 -52.5t51 -77.5t19 -95.5zM195 235q0 -57 33 -91t82 -34q22 0 42 9t35 25.5t24 39.5t9 51t-9 51t-24 39.5t-35 25.5t-42 9q-49 0 -82 -34t-33 -91z" />
    <glyph glyph-name="afii10067" unicode="&#x432;" horiz-adv-x="530" 
d="M305 490q37 0 67.5 -11.5t52.5 -30t33.5 -43t11.5 -50.5q0 -29 -9.5 -47.5t-20.5 -30.5q-13 -14 -30 -22q22 -8 40 -23q15 -13 27.5 -34t12.5 -53q0 -30 -12 -56.5t-34.5 -46t-55 -31t-73.5 -11.5h-255v490h245zM195 210v-100h110q23 0 36.5 13.5t13.5 36.5t-13.5 36.5
t-36.5 13.5h-110zM335 340q0 40 -40 40h-100v-80h100q40 0 40 40z" />
    <glyph glyph-name="afii10068" unicode="&#x433;" horiz-adv-x="430" 
d="M415 365h-220v-365h-135v490h355v-125z" />
    <glyph glyph-name="afii10069" unicode="&#x434;" horiz-adv-x="575" 
d="M25 120q22 23 40 56q15 29 27.5 72.5t12.5 106.5v135h375v-370h65v-235h-135v115h-280v-115h-135v235h30zM230 340q0 -49 -10.5 -89.5t-22.5 -69.5q-14 -34 -32 -61h180v250h-115v-30z" />
    <glyph glyph-name="afii10072" unicode="&#x436;" horiz-adv-x="785" 
d="M320 140l-45 50l-130 -190h-150l195 280l-185 210h155l160 -185v185h135v-185l160 185h155l-185 -210l195 -280h-150l-130 190l-45 -50v-140h-135v140z" />
    <glyph glyph-name="afii10073" unicode="&#x437;" horiz-adv-x="465" 
d="M405 355q0 -30 -12.5 -49.5t-27.5 -30.5q-18 -13 -40 -20q28 -8 50 -24q19 -14 34.5 -37.5t15.5 -58.5q0 -28 -13 -54t-39.5 -46.5t-66 -32.5t-91.5 -12q-53 0 -91 14t-64 31q-30 19 -50 45l75 75q12 -16 29 -28q14 -11 35.5 -19t50.5 -8q42 0 61 16t19 39
q0 21 -17.5 35.5t-62.5 14.5h-50v90h50q34 0 49.5 13t15.5 32q0 23 -15.5 36.5t-49.5 13.5q-21 0 -39 -7.5t-32 -15.5q-16 -10 -29 -22l-75 75q19 22 46 40q23 15 59 27.5t85 12.5q45 0 80.5 -12t59.5 -32.5t37 -46.5t13 -54z" />
    <glyph glyph-name="afii10074" unicode="&#x438;" horiz-adv-x="595" 
d="M525 490v-490h-135v275l-213 -275h-117v490h135v-275l212 275h118z" />
    <glyph glyph-name="afii10075" unicode="&#x439;" horiz-adv-x="595" 
d="M290 645q26 0 43 17t17 43h100q0 -32 -11.5 -59.5t-32.5 -47.5t-50.5 -31.5t-65.5 -11.5t-65.5 11.5t-50.5 31.5t-32.5 47.5t-11.5 59.5h100q0 -26 17 -43t43 -17zM525 490v-490h-135v275l-213 -275h-117v490h135v-275l212 275h118z" />
    <glyph glyph-name="afii10076" unicode="&#x43a;" horiz-adv-x="540" 
d="M340 280l195 -280h-150l-130 190l-60 -70v-120h-135v490h135v-200l175 200h155z" />
    <glyph glyph-name="afii10077" unicode="&#x43b;" horiz-adv-x="575" 
d="M505 490v-490h-135v370h-130v-30q0 -107 -12.5 -176t-35.5 -108.5t-55.5 -55t-71.5 -15.5q-15 0 -28 2t-22 5q-11 4 -20 8v120q4 -2 9 -3t10 -1.5t11 -0.5q21 0 36.5 8t26.5 33.5t16.5 72.5t5.5 126v135h395z" />
    <glyph glyph-name="afii10078" unicode="&#x43c;" horiz-adv-x="660" 
d="M195 290v-290h-135v490h115l150 -195l150 195h115v-490h-135v290l-130 -170z" />
    <glyph glyph-name="afii10079" unicode="&#x43d;" horiz-adv-x="590" 
d="M195 0h-135v490h135v-185h190v185h135v-490h-135v185h-190v-185z" />
    <glyph glyph-name="afii10081" unicode="&#x43f;" horiz-adv-x="590" 
d="M195 0h-135v490h460v-490h-135v370h-190v-370z" />
    <glyph glyph-name="afii10084" unicode="&#x442;" horiz-adv-x="475" 
d="M10 490h445v-130h-155v-360h-135v360h-155v130z" />
    <glyph glyph-name="afii10086" unicode="&#x444;" horiz-adv-x="755" 
d="M305 375q-68 -4 -104 -39.5t-36 -95.5t36 -95.5t104 -39.5v270zM440 -210h-135v195q-60 2 -110.5 23t-87 55.5t-57 80t-20.5 96.5t20.5 96.5t57 80t87 55.5t110.5 23v205h135v-205q60 -2 110.5 -23t87 -55.5t57 -80t20.5 -96.5t-20.5 -96.5t-57 -80t-87 -55.5t-110.5 -23
v-195zM440 105q68 4 104 39.5t36 95.5t-36 95.5t-104 39.5v-270z" />
    <glyph glyph-name="afii10088" unicode="&#x446;" 
d="M60 490h135v-370h175v370h135v-370h65v-235h-135v115h-375v490z" />
    <glyph glyph-name="afii10089" unicode="&#x447;" horiz-adv-x="555" 
d="M350 165q-15 -10 -33 -18q-16 -7 -37 -12t-45 -5q-41 0 -75 13.5t-58.5 39.5t-38 63t-13.5 84v160h135v-150q0 -38 23 -61.5t57 -23.5q20 0 36 4.5t27 10.5q12 6 22 15v205h135v-490h-135v165z" />
    <glyph glyph-name="afii10090" unicode="&#x448;" horiz-adv-x="800" 
d="M60 490h135v-370h135v370h135v-370h135v370h135v-490h-675v490z" />
    <glyph glyph-name="afii10091" unicode="&#x449;" horiz-adv-x="830" 
d="M60 490h135v-370h135v370h135v-370h135v370h135v-370h65v-235h-135v115h-605v490z" />
    <glyph glyph-name="afii10092" unicode="&#x44a;" horiz-adv-x="555" 
d="M520 170q0 -75 -50 -122.5t-140 -47.5h-220v360h-115v130h250v-150h85q90 0 140 -47.5t50 -122.5zM325 110q26 0 43 17t17 43t-17 43t-43 17h-80v-120h80z" />
    <glyph glyph-name="afii10093" unicode="&#x44b;" horiz-adv-x="735" 
d="M665 0h-135v490h135v-490zM275 110q26 0 43 17t17 43t-17 43t-43 17h-80v-120h80zM470 170q0 -75 -50 -122.5t-140 -47.5h-220v490h135v-150h85q90 0 140 -47.5t50 -122.5z" />
    <glyph glyph-name="afii10095" unicode="&#x44d;" horiz-adv-x="520" 
d="M480 245q0 -51 -21 -97t-57 -81t-84.5 -56t-102.5 -21q-49 0 -86 15.5t-63 34.5q-30 22 -51 50l70 75q15 -19 34 -33q17 -12 40.5 -22t55.5 -10q38 0 62 14.5t38 32.5q17 21 25 48h-200v100h200q-8 26 -25 47q-14 18 -38 33t-62 15q-32 0 -55 -10.5t-39 -22.5
q-18 -14 -31 -32l-75 75q21 28 50 50q25 19 62 34.5t88 15.5q54 0 102.5 -21t84.5 -56t57 -81t21 -97z" />
    <glyph glyph-name="afii10094" unicode="&#x44c;" horiz-adv-x="510" 
d="M280 110q26 0 43 17t17 43t-17 43t-43 17h-85v-120h85zM475 170q0 -75 -50 -122.5t-140 -47.5h-225v490h135v-150h90q90 0 140 -47.5t50 -122.5z" />
    <glyph glyph-name="afii10096" unicode="&#x44e;" horiz-adv-x="820" 
d="M775 245q0 -53 -20 -99t-55 -81t-81.5 -55t-98.5 -20q-49 0 -91 17t-75 45t-55 62.5t-29 70.5h-75v-185h-135v490h135v-185h75q7 36 29 70.5t55 62.5t75 45t91 17q52 0 98.5 -20t81.5 -55t55 -81.5t20 -98.5zM640 245q0 30 -9.5 55t-26 42.5t-38.5 27.5t-46 10t-46 -10
t-38.5 -27.5t-26 -42.5t-9.5 -55t9.5 -55t26 -42.5t38.5 -27.5t46 -10t46 10t38.5 27.5t26 42.5t9.5 55z" />
    <glyph glyph-name="afii10097" unicode="&#x44f;" horiz-adv-x="535" 
d="M465 490v-490h-135v145h-70l-90 -145h-145l105 165q-26 13 -45 34q-17 18 -31 46t-14 70q0 36 14 67.5t39.5 55.5t60.5 38t76 14h235zM240 375q-30 0 -47.5 -17t-17.5 -43t17.5 -43t47.5 -17h90v120h-90z" />
    <glyph glyph-name="afii10071" unicode="&#x451;" horiz-adv-x="570" 
d="M170 200q8 -38 40.5 -66.5t89.5 -28.5q32 0 56 9.5t41 20.5q19 13 33 30l70 -90q-22 -25 -54 -43q-27 -16 -66 -29t-90 -13q-54 0 -101.5 20t-83 55t-55.5 81t-20 99q0 52 20 98.5t55 81.5t81 55t99 20q52 0 97 -18.5t78 -51.5t51.5 -78t18.5 -97q0 -14 -1 -24t-2 -17
q-1 -8 -2 -14h-355zM285 385q-45 0 -74.5 -26t-40.5 -64h225q-8 38 -36.5 64t-73.5 26zM101 635q0 30 22.5 52.5t52.5 22.5t52.5 -22.5t22.5 -52.5t-22.5 -52.5t-52.5 -22.5t-52.5 22.5t-22.5 52.5zM321 635q0 30 22.5 52.5t52.5 22.5t52.5 -22.5t22.5 -52.5t-22.5 -52.5
t-52.5 -22.5t-52.5 22.5t-22.5 52.5z" />
    <glyph glyph-name="period" unicode="." horiz-adv-x="250" 
d="M45 65q0 30 23 52.5t57 22.5t57 -22.5t23 -52.5t-23 -52.5t-57 -22.5t-57 22.5t-23 52.5z" />
    <glyph glyph-name="comma" unicode="," horiz-adv-x="260" 
d="M215 80l-130 -210l-90 45l110 230z" />
    <glyph glyph-name="exclam" unicode="!" horiz-adv-x="330" 
d="M110 200l-25 500h160l-25 -500h-110zM85 65q0 30 23 52.5t57 22.5t57 -22.5t23 -52.5t-23 -52.5t-57 -22.5t-57 22.5t-23 52.5z" />
    <glyph glyph-name="question" unicode="?" horiz-adv-x="550" 
d="M185 245q0 36 12.5 61.5t31.5 44.5t41 34t41 30.5t31.5 34.5t12.5 45q0 30 -24 52.5t-66 22.5q-36 0 -59 -12.5t-37 -27.5q-16 -18 -24 -40l-125 55q17 47 50 85q14 16 33 31t43.5 27t55 19.5t68.5 7.5q54 0 98.5 -16.5t76 -44t48.5 -64t17 -75.5q0 -46 -13.5 -78.5
t-33.5 -56.5t-43 -43t-43 -38.5t-33.5 -43t-13.5 -55.5h-135q-3 7 -5 15q-5 15 -5 30zM175 65q0 30 23 52.5t57 22.5t57 -22.5t23 -52.5t-23 -52.5t-57 -22.5t-57 22.5t-23 52.5z" />
    <glyph glyph-name="hyphen" unicode="-" horiz-adv-x="430" 
d="M395 235h-360v120h360v-120z" />
    <glyph glyph-name="parenleft" unicode="(" horiz-adv-x="365" 
d="M205 250q0 -91 20.5 -167t46.5 -133q30 -66 68 -120l-105 -60q-47 57 -83 131q-31 63 -56.5 151.5t-25.5 197.5t25.5 197.5t56.5 151.5q36 74 83 131l105 -65q-38 -53 -68 -118q-26 -56 -46.5 -131t-20.5 -166z" />
    <glyph glyph-name="parenright" unicode=")" horiz-adv-x="365" 
d="M160 250q0 91 -21 166t-47 131q-30 65 -67 118l105 65q46 -57 82 -131q15 -32 30 -70t27 -82t19 -93.5t7 -103.5t-7 -103.5t-19 -93.5t-27 -82.5t-30 -69.5q-36 -74 -82 -131l-105 60q37 54 67 120q26 57 47 133t21 167z" />
    <glyph glyph-name="slash" unicode="/" horiz-adv-x="485" 
d="M155 -210h-125l300 920h125z" />
    <glyph glyph-name="colon" unicode=":" horiz-adv-x="250" 
d="M45 65q0 30 23 52.5t57 22.5t57 -22.5t23 -52.5t-23 -52.5t-57 -22.5t-57 22.5t-23 52.5zM45 425q0 30 23 52.5t57 22.5t57 -22.5t23 -52.5t-23 -52.5t-57 -22.5t-57 22.5t-23 52.5z" />
    <glyph glyph-name="semicolon" unicode=";" horiz-adv-x="270" 
d="M65 425q0 30 23 52.5t57 22.5t57 -22.5t23 -52.5t-23 -52.5t-57 -22.5t-57 22.5t-23 52.5zM215 80l-130 -210l-90 45l110 230z" />
    <glyph glyph-name="at" unicode="@" horiz-adv-x="900" 
d="M445 335q-36 0 -60.5 -25.5t-24.5 -64.5q0 -40 24.5 -65t60.5 -25q34 0 57 24t23 66t-23 66t-57 24zM430 430q24 0 42 -6t30 -14q14 -9 23 -20v35h95v-220q0 -23 16 -39t39 -16q15 0 28 6t22 20t14.5 37t5.5 57q0 56 -22 106t-61.5 87.5t-93.5 59.5t-118 22
q-60 0 -113 -23t-92 -62.5t-62 -93.5t-23 -116t23 -116t62 -93.5t92 -62.5t113 -23q43 0 76.5 9.5t56.5 20.5q27 13 47 30l55 -70q-26 -25 -61 -43q-30 -16 -73.5 -29t-100.5 -13q-79 0 -149.5 31.5t-124 85t-85 124t-31.5 149.5t31.5 149.5t85 124t124 85t149.5 31.5
q84 0 156.5 -29.5t125.5 -80.5t83 -118t30 -142q0 -51 -13 -90t-36 -65.5t-54 -40.5t-67 -14q-30 0 -51.5 9.5t-35.5 20.5q-17 13 -28 30q-11 -17 -29 -30q-15 -11 -38.5 -20.5t-57.5 -9.5q-36 0 -67.5 13.5t-55.5 38.5t-38 58.5t-14 74.5q0 40 14 74t37.5 58.5t54 38.5
t64.5 14z" />
    <glyph glyph-name="bracketleft" unicode="[" horiz-adv-x="360" 
d="M210 -95h120v-115h-250v920h250v-115h-120v-690z" />
    <glyph glyph-name="bracketright" unicode="]" horiz-adv-x="360" 
d="M150 595h-120v115h250v-920h-250v115h120v690z" />
    <glyph glyph-name="backslash" unicode="\" horiz-adv-x="485" 
d="M30 710h125l300 -920h-125z" />
    <glyph glyph-name="braceleft" unicode="{" horiz-adv-x="395" 
d="M55 305q30 0 47.5 17.5t17.5 47.5v170q0 83 43 126.5t122 43.5h75v-120h-50q-26 0 -43 -17t-17 -46v-162q0 -38 -10.5 -60.5t-22.5 -34.5q-14 -14 -32 -20q18 -6 32 -20q12 -12 22.5 -34.5t10.5 -60.5v-163q0 -28 17 -45t43 -17h50v-120h-75q-79 0 -122 43.5t-43 126.5
v170q0 30 -17.5 47.5t-47.5 17.5v110z" />
    <glyph glyph-name="braceright" unicode="}" horiz-adv-x="395" 
d="M340 195q-30 0 -47.5 -17.5t-17.5 -47.5v-170q0 -83 -43 -126.5t-122 -43.5h-75v120h50q26 0 43 17t17 45v163q0 38 10 60.5t22 34.5q14 14 33 20q-19 6 -33 20q-12 12 -22 34.5t-10 60.5v162q0 29 -17 46t-43 17h-50v120h75q79 0 122 -43.5t43 -126.5v-170
q0 -30 17.5 -47.5t47.5 -17.5v-110z" />
    <glyph glyph-name="bar" unicode="|" horiz-adv-x="375" 
d="M255 -210h-135v920h135v-920z" />
    <glyph glyph-name="quotedblright" unicode="&#x201d;" horiz-adv-x="455" 
d="M435 660l-135 -215l-80 45l105 230zM235 660l-135 -215l-80 45l105 230z" />
    <glyph glyph-name="quotedblleft" unicode="&#x201c;" horiz-adv-x="455" 
d="M20 505l135 215l80 -45l-105 -230zM220 505l135 215l80 -45l-105 -230z" />
    <glyph glyph-name="bullet" unicode="&#x2022;" horiz-adv-x="430" 
d="M90 240q0 26 9.5 49t26.5 40t40 26.5t49 9.5t49 -9.5t40 -26.5t26.5 -40t9.5 -49t-9.5 -49t-26.5 -40t-40 -26.5t-49 -9.5t-49 9.5t-40 26.5t-26.5 40t-9.5 49z" />
    <glyph glyph-name="endash" unicode="&#x2013;" horiz-adv-x="495" 
d="M460 235h-425v117h425v-117z" />
    <glyph glyph-name="emdash" unicode="&#x2014;" horiz-adv-x="735" 
d="M700 235h-665v117h665v-117z" />
    <glyph glyph-name="brokenbar" unicode="&#xa6;" horiz-adv-x="375" 
d="M255 170v-380h-135v380h135zM120 330v380h135v-380h-135z" />
    <glyph glyph-name="copyright" unicode="&#xa9;" horiz-adv-x="870" 
d="M720 350q0 58 -22.5 110t-61.5 91t-91 61.5t-110 22.5t-110 -22.5t-91 -61.5t-61.5 -91t-22.5 -110t22.5 -110t61.5 -91t91 -61.5t110 -22.5t110 22.5t91 61.5t61.5 91t22.5 110zM810 350q0 -75 -29 -141.5t-79.5 -116t-119 -78.5t-147.5 -29t-147.5 29t-119 78.5
t-79.5 116t-29 141.5t29 141.5t79.5 116t119 78.5t147.5 29t147.5 -29t119 -78.5t79.5 -116t29 -141.5zM340 350q0 -21 8.5 -40t23.5 -33.5t35 -23t43 -8.5q24 0 41 8t28 19q12 12 21 28l65 -60q-16 -25 -39 -43q-20 -16 -50 -29t-71 -13q-43 0 -79.5 15t-63.5 41t-42 62
t-15 77t15 76.5t42 62t63.5 41.5t79.5 15q41 0 70 -12.5t48 -27.5q22 -18 37 -40l-60 -60q-9 14 -21 25q-11 9 -28 17t-41 8q-23 0 -43 -8.5t-35 -23t-23.5 -33.5t-8.5 -40z" />
    <glyph glyph-name="guillemotleft" unicode="&#xab;" horiz-adv-x="550" 
d="M170 240l125 -175h-130l-125 175l125 175h130zM385 240l125 -175h-130l-125 175l125 175h130z" />
    <glyph glyph-name="guillemotright" unicode="&#xbb;" horiz-adv-x="550" 
d="M255 415h130l125 -175l-125 -175h-130l125 175zM40 415h130l125 -175l-125 -175h-130l125 175z" />
    <glyph glyph-name="ellipsis" unicode="&#x2026;" horiz-adv-x="790" 
d="M45 65q0 30 23 52.5t57 22.5t57 -22.5t23 -52.5t-23 -52.5t-57 -22.5t-57 22.5t-23 52.5zM315 65q0 30 23 52.5t57 22.5t57 -22.5t23 -52.5t-23 -52.5t-57 -22.5t-57 22.5t-23 52.5zM585 65q0 30 23 52.5t57 22.5t57 -22.5t23 -52.5t-23 -52.5t-57 -22.5t-57 22.5
t-23 52.5z" />
    <glyph glyph-name="ampersand" unicode="&#x26;" horiz-adv-x="655" 
d="M550 145q7 -11 17 -20q8 -8 18.5 -14t24.5 -6q10 0 18 2q4 1 7 3v-115q-7 -4 -17 -8q-19 -7 -43 -7q-29 0 -51.5 10.5t-39.5 24.5q-19 15 -34 35q-18 -20 -44 -35q-22 -14 -55 -24.5t-76 -10.5q-51 0 -91.5 15t-69 40t-44 58.5t-15.5 71.5q0 49 20 87t45 64q28 31 65 54
q-26 27 -45 56q-17 25 -31 56t-14 63q0 36 14 67.5t39 55.5t59 38t73 14q41 0 75 -13t58.5 -36t38 -54t13.5 -67q0 -38 -18 -71t-40 -57q-26 -29 -57 -52l105 -130q8 13 15 30q5 14 10 33t5 42h125q0 -45 -9.5 -82t-20.5 -63q-13 -31 -30 -55zM280 100q23 0 40.5 6t31.5 14
q15 9 28 20l-120 145q-20 -15 -35 -33q-14 -15 -24.5 -34.5t-10.5 -42.5q0 -34 22.5 -54.5t67.5 -20.5zM340 540q0 26 -17 43t-43 17q-30 0 -47.5 -17t-17.5 -43q0 -17 10 -35t22 -32q14 -17 33 -33q17 16 30 33q11 14 20.5 32t9.5 35z" />
    <glyph glyph-name="quotedblbase" unicode="&#x201e;" horiz-adv-x="450" 
d="M210 80l-135 -210l-80 45l105 230zM410 80l-135 -210l-80 45l105 230z" />
    <glyph glyph-name="guilsinglleft" unicode="&#x2039;" horiz-adv-x="340" 
d="M175 240l125 -175h-135l-125 175l125 175h135z" />
    <glyph glyph-name="guilsinglright" unicode="&#x203a;" horiz-adv-x="340" 
d="M40 415h135l125 -175l-125 -175h-135l125 175z" />
    <glyph glyph-name="section" unicode="&#xa7;" horiz-adv-x="545" 
d="M390 565q-11 9 -24 17q-11 7 -26.5 12.5t-34.5 5.5q-42 0 -58.5 -13.5t-16.5 -36.5q0 -21 19.5 -34.5t49 -26t64 -26.5t64 -35t49 -51.5t19.5 -76.5q0 -34 -14 -58.5t-31 -40.5q-20 -18 -45 -31q20 -12 37 -29q14 -14 26 -36t12 -50q0 -34 -14.5 -64.5t-42.5 -54
t-68.5 -37.5t-92.5 -14q-56 0 -95 15.5t-64 34.5q-29 22 -48 50l75 75q12 -17 29 -30q14 -11 35.5 -20.5t50.5 -9.5q45 0 65 17t20 43q0 22 -20.5 37t-52 28t-67.5 27t-67.5 35t-52 51.5t-20.5 76.5q0 34 14 58.5t31 40.5q19 18 45 31q-17 12 -30 30q-11 15 -20.5 36
t-9.5 49q0 30 13.5 58t40 49.5t64.5 34.5t87 13q45 0 77.5 -12t54.5 -26q26 -17 43 -37zM365 295q0 26 -20.5 44.5t-44.5 29.5q-29 13 -65 21q-16 -4 -28 -13q-11 -8 -19 -21t-8 -36q0 -26 20 -44.5t45 -29.5q28 -13 65 -21q15 4 27 14q11 8 19.5 21.5t8.5 34.5z" />
    <glyph glyph-name="registered" unicode="&#xae;" horiz-adv-x="870" 
d="M610 160h-100l-70 130h-50v-130h-95v380h165q28 0 52.5 -10.5t43 -27.5t29 -40t10.5 -47q0 -30 -11 -50.5t-24 -32.5q-16 -14 -35 -22zM390 375h65q40 0 40 40t-40 40h-65v-80zM720 350q0 58 -22.5 110t-61.5 91t-91 61.5t-110 22.5t-110 -22.5t-91 -61.5t-61.5 -91
t-22.5 -110t22.5 -110t61.5 -91t91 -61.5t110 -22.5t110 22.5t91 61.5t61.5 91t22.5 110zM810 350q0 -75 -29 -141.5t-79.5 -116t-119 -78.5t-147.5 -29t-147.5 29t-119 78.5t-79.5 116t-29 141.5t29 141.5t79.5 116t119 78.5t147.5 29t147.5 -29t119 -78.5t79.5 -116
t29 -141.5z" />
    <glyph glyph-name="paragraph" unicode="&#xb6;" horiz-adv-x="610" 
d="M210 340q-36 0 -68.5 15t-57 39.5t-39.5 57t-15 68.5t15 68.5t39.5 57t57 39.5t68.5 15h325v-800h-120v670h-85v-670h-120v440z" />
    <glyph glyph-name="dagger" unicode="&#x2020;" horiz-adv-x="455" 
d="M170 700h115v-125h115v-105h-115v-300h-115v300h-115v105h115v125z" />
    <glyph glyph-name="daggerdbl" unicode="&#x2021;" horiz-adv-x="455" 
d="M170 700h115v-115h115v-105h-115v-90h115v-105h-115v-115h-115v115h-115v105h115v90h-115v105h115v115z" />
    <glyph glyph-name="asterisk" unicode="*" horiz-adv-x="400" 
d="M135 360l-75 60l70 85l-105 30l30 90l105 -40l-10 115h100l-10 -115l105 40l30 -90l-105 -30l70 -85l-75 -60l-65 95z" />
    <glyph glyph-name="periodcentered" unicode="&#xb7;" horiz-adv-x="200" 
d="M21 245q0 30 23 52.5t57 22.5t57 -22.5t23 -52.5t-23 -52.5t-57 -22.5t-57 22.5t-23 52.5z" />
    <glyph glyph-name="exclamdown" unicode="&#xa1;" horiz-adv-x="310" 
d="M210 290l25 -500h-160l25 500h110zM75 425q0 30 23 52.5t57 22.5t57 -22.5t23 -52.5t-23 -52.5t-57 -22.5t-57 22.5t-23 52.5z" />
    <glyph glyph-name="questiondown" unicode="&#xbf;" horiz-adv-x="475" 
d="M350 245q0 -36 -12.5 -61.5t-31.5 -44.5t-41 -34t-41 -30.5t-31.5 -34.5t-12.5 -45q0 -30 24 -52.5t66 -22.5q35 0 58.5 12.5t37.5 27.5q16 18 24 40l125 -55q-17 -48 -50 -85q-14 -16 -33 -31.5t-43.5 -27.5t-55.5 -19t-68 -7q-54 0 -98.5 16.5t-76 44t-48.5 64
t-17 75.5q0 46 13.5 78.5t33.5 56.5t43 43t43 38.5t33.5 42.5t13.5 56h135l5 -15q2 -7 3.5 -14.5t1.5 -15.5zM360 425q0 -30 -23 -52.5t-57 -22.5t-57 22.5t-23 52.5t23 52.5t57 22.5t57 -22.5t23 -52.5z" />
    <glyph glyph-name="trademark" unicode="&#x2122;" horiz-adv-x="710" 
d="M10 700h260v-85h-85v-225h-90v225h-85v85zM660 700v-310h-90v167l-85 -107l-85 107v-167h-90v310h80l95 -125l95 125h80z" />
    <glyph glyph-name="onesuperior" unicode="&#xb9;" horiz-adv-x="230" 
d="M180 800v-355h-95v235h-60v75q34 4 52.5 19t22.5 26h80z" />
    <glyph glyph-name="twosuperior" unicode="&#xb2;" horiz-adv-x="330" 
d="M295 690q0 -34 -16.5 -56t-39 -38.5t-46 -30t-38.5 -30.5h135v-90h-255q0 41 12 70t29.5 50t38.5 35.5t38.5 27.5t29.5 26t12 31q0 15 -10.5 25t-29.5 10q-11 0 -20 -6t-16 -14q-8 -9 -14 -20l-75 26q8 27 26 49q15 19 41 34.5t68 15.5q60 0 95 -33t35 -82z" />
    <glyph glyph-name="threesuperior" unicode="&#xb3;" horiz-adv-x="335" 
d="M245 635q15 -7 27 -18q11 -10 19.5 -26.5t8.5 -40.5q0 -45 -35.5 -77.5t-99.5 -32.5q-40 0 -66 10t-43 22q-19 14 -31 33l55 55q8 -11 19 -20q10 -8 24 -14t34 -6q25 0 36.5 10t11.5 25q0 19 -12.5 29.5t-42.5 10.5h-35v75h35q23 0 31.5 7t8.5 18q0 14 -8.5 22t-31.5 8
q-14 0 -25.5 -5.5t-20.5 -12.5q-11 -8 -19 -17l-50 55q13 17 31 30q16 11 39.5 20.5t55.5 9.5q30 0 53.5 -8.5t40.5 -22.5t26 -32t9 -37t-7.5 -32.5t-15.5 -21.5q-10 -10 -22 -16z" />
    <glyph glyph-name="foursuperior" unicode="&#x2074;" horiz-adv-x="330" 
d="M270 595h35v-85h-35v-65h-95v65h-160v85l155 205h100v-205zM175 595v85l-65 -85h65z" />
    <glyph glyph-name="onehalf" unicode="&#xbd;" horiz-adv-x="745" 
d="M500 700h125l-435 -700h-125zM190 701v-355h-95v235h-60v75q34 4 52.5 19t22.5 26h80zM710 246q0 -34 -16.5 -56t-39 -38.5t-46 -30t-38.5 -30.5h135v-90h-255q0 41 12 70t29.5 50t38.5 35.5t38.5 27.5t29.5 26t12 31q0 15 -10.5 25t-29.5 10q-11 0 -20 -6t-16 -14
q-8 -9 -14 -20l-75 26q8 27 26 49q15 19 41 34.5t68 15.5q60 0 95 -33t35 -82z" />
    <glyph glyph-name="onequarter" unicode="&#xbc;" horiz-adv-x="705" 
d="M500 700h125l-435 -700h-125zM190 701v-355h-95v235h-60v75q34 4 52.5 19t22.5 26h80zM645 151h35v-85h-35v-65h-95v65h-160v85l155 205h100v-205zM550 151v85l-65 -85h65z" />
    <glyph glyph-name="threequarters" unicode="&#xbe;" horiz-adv-x="765" 
d="M560 700h125l-435 -700h-125zM705 151h35v-85h-35v-65h-95v65h-160v85l155 205h100v-205zM610 151v85l-65 -85h65zM241 536q15 -7 27 -18q11 -10 19.5 -26.5t8.5 -40.5q0 -45 -35.5 -77.5t-99.5 -32.5q-40 0 -66 10t-43 22q-19 14 -31 33l55 55q8 -11 19 -20
q10 -8 24 -14t34 -6q25 0 36.5 10t11.5 25q0 19 -12.5 29.5t-42.5 10.5h-35v75h35q23 0 31.5 7t8.5 18q0 14 -8.5 22t-31.5 8q-14 0 -25.5 -5.5t-20.5 -12.5q-11 -8 -19 -17l-50 55q13 17 31 30q16 11 39.5 20.5t55.5 9.5q30 0 53.5 -8.5t40.5 -22.5t26 -32t9 -37
t-7.5 -32.5t-15.5 -21.5q-10 -10 -22 -16z" />
    <glyph glyph-name="numbersign" unicode="#" horiz-adv-x="760" 
d="M690 285l-20 -100h-135l-35 -185h-115l35 185h-145l-35 -185h-115l35 185h-135l20 100h135l25 130h-135l20 100h135l35 185h115l-35 -185h145l35 185h115l-35 -185h135l-20 -100h-135l-25 -130h135zM465 415h-145l-25 -130h145z" />
    <glyph glyph-name="dollar" unicode="$" 
d="M365 708q40 -8 70 -23t50 -29q24 -17 40 -36l-90 -95q-16 17 -35 30q-17 11 -41 20.5t-54 9.5q-45 0 -70 -22.5t-25 -52.5q0 -33 25.5 -50.5t64 -30.5t83 -26.5t83 -36.5t64 -61t25.5 -100q0 -79 -49 -137t-141 -76v-97h-130v94q-53 8 -92 26t-65 37q-31 22 -53 48l90 90
q18 -21 43 -38q21 -14 51.5 -25.5t70.5 -11.5q57 0 86 26t29 64q0 32 -25.5 50t-64 31t-83 26.5t-83 36.5t-64 60.5t-25.5 100.5q0 35 12.5 67.5t36.5 59t58.5 45.5t77.5 27v96h130v-97v0z" />
    <glyph glyph-name="percent" unicode="%" horiz-adv-x="815" 
d="M130 550q0 -30 20 -50t50 -20t50 20t20 50t-20 50t-50 20t-50 -20t-20 -50zM565 700h125l-440 -700h-125zM370 550q0 -32 -13 -61.5t-36 -52.5t-54 -37t-67 -14t-67 14t-54 37t-36 52.5t-13 61.5t13 61.5t36 52.5t54 37t67 14t67 -14t54 -37t36 -52.5t13 -61.5zM685 150
q0 30 -20 50t-50 20t-50 -20t-20 -50t20 -50t50 -20t50 20t20 50zM445 150q0 32 13 61.5t36 52.5t54 37t67 14t67 -14t54 -37t36 -52.5t13 -61.5t-13 -61.5t-36 -52.5t-54 -37t-67 -14t-67 14t-54 37t-36 52.5t-13 61.5z" />
    <glyph glyph-name="plus" unicode="+" horiz-adv-x="525" 
d="M205 60v170h-170v125h170v170h115v-170h170v-125h-170v-170h-115z" />
    <glyph glyph-name="less" unicode="&#x3c;" horiz-adv-x="510" 
d="M40 290l430 205v-130l-260 -120l260 -120v-130l-430 205v90z" />
    <glyph glyph-name="greater" unicode="&#x3e;" horiz-adv-x="510" 
d="M470 200l-430 -205v130l260 120l-260 120v130l430 -205v-90z" />
    <glyph glyph-name="equal" unicode="=" horiz-adv-x="495" 
d="M455 140h-415v115h415v-115zM455 335h-415v115h415v-115z" />
    <glyph glyph-name="underscore" unicode="_" horiz-adv-x="345" 
d="M355 -210h-365v125h365v-125z" />
    <glyph glyph-name="asciitilde" unicode="~" horiz-adv-x="565" 
d="M200 270q-23 0 -40 -8t-28 -17q-13 -11 -22 -25l-80 55q13 29 34 52q18 20 46 36.5t70 16.5q36 0 60 -9.5t43.5 -20.5t38.5 -20.5t43 -9.5q23 0 39.5 7.5t27.5 17.5q13 11 23 25l80 -55q-13 -30 -34 -53q-18 -20 -46 -36t-70 -16q-36 0 -60 9.5t-43.5 20.5t-38.5 20.5
t-43 9.5z" />
    <glyph glyph-name="Euro" unicode="&#x20ac;" horiz-adv-x="750" 
d="M265 315h210v-90h-180q14 -31 39 -55q20 -21 53.5 -38t82.5 -17q38 0 67 11.5t50 25.5q24 17 43 38l85 -90q-24 -32 -59 -58q-30 -22 -76 -39.5t-110 -17.5q-47 0 -86.5 10.5t-72 27t-59 38t-46.5 44.5q-48 53 -76 120h-95v90h80v70h-80v90h95q28 67 76 120
q20 22 46.5 44t59 38.5t72 27t86.5 10.5q64 0 110 -17.5t76 -37.5q35 -25 59 -55l-90 -90q-17 19 -40 35q-20 13 -48.5 24t-66.5 11q-49 0 -82.5 -17.5t-53.5 -37.5q-25 -25 -39 -55h180v-90h-210v-70z" />
    <glyph glyph-name="perthousand" unicode="&#x2030;" horiz-adv-x="1190" 
d="M130 550q0 -30 20 -50t50 -20t50 20t20 50t-20 50t-50 20t-50 -20t-20 -50zM565 700h125l-440 -700h-125zM370 550q0 -32 -13 -61.5t-36 -52.5t-54 -37t-67 -14t-67 14t-54 37t-36 52.5t-13 61.5t13 61.5t36 52.5t54 37t67 14t67 -14t54 -37t36 -52.5t13 -61.5zM685 150
q0 30 -20 50t-50 20t-50 -20t-20 -50t20 -50t50 -20t50 20t20 50zM445 150q0 32 13 61.5t36 52.5t54 37t67 14t67 -14t54 -37t36 -52.5t13 -61.5t-13 -61.5t-36 -52.5t-54 -37t-67 -14t-67 14t-54 37t-36 52.5t-13 61.5zM1060 150q0 30 -20 50t-50 20t-50 -20t-20 -50
t20 -50t50 -20t50 20t20 50zM820 150q0 32 13 61.5t36 52.5t54 37t67 14t67 -14t54 -37t36 -52.5t13 -61.5t-13 -61.5t-36 -52.5t-54 -37t-67 -14t-67 14t-54 37t-36 52.5t-13 61.5z" />
    <glyph glyph-name="currency" unicode="&#xa4;" horiz-adv-x="695" 
d="M410 385q42 0 68.5 26t26.5 64q0 42 -26.5 68.5t-68.5 26.5h-140v-185h140zM270 265v-55h210v-120h-210v-90h-150v90h-75v120h75v55h-75v120h75v315h292q54 0 98.5 -17.5t76.5 -47.5t50 -70t18 -85t-17 -84t-49 -68.5t-77.5 -46t-101.5 -16.5h-140z" />
    <glyph glyph-name="logicalnot" unicode="&#xac;" horiz-adv-x="475" 
d="M440 163h-125v127h-280v120h405v-247z" />
    <glyph glyph-name="plusminus" unicode="&#xb1;" horiz-adv-x="525" 
d="M35 115h455v-115h-455v115zM205 170v160h-170v125h170v160h115v-160h170v-125h-170v-160h-115z" />
    <glyph glyph-name="degree" unicode="&#xb0;" horiz-adv-x="380" 
d="M130 560q0 -30 17 -47.5t43 -17.5t43 17.5t17 47.5t-17 47.5t-43 17.5t-43 -17.5t-17 -47.5zM345 560q0 -30 -12.5 -57t-33.5 -48t-49 -33t-60 -12t-60 12t-49 33t-33.5 48t-12.5 57t12.5 57t33.5 48t49 33t60 12t60 -12t49 -33t33.5 -48t12.5 -57z" />
    <glyph glyph-name="afii61352" unicode="&#x2116;" horiz-adv-x="1170" 
d="M1130 0h-330v120h330v-120zM715 700v-700h-130l-345 445v-445h-150v700h130l345 -445v445h150zM1035 360q0 30 -20 50t-50 20t-50 -20t-20 -50t20 -50t50 -20t50 20t20 50zM795 360q0 32 13 61.5t36 52.5t54 37t67 14t67 -14t54 -37t36 -52.5t13 -61.5t-13 -61.5
t-36 -52.5t-54 -37t-67 -14t-67 14t-54 37t-36 52.5t-13 61.5z" />
    <glyph glyph-name="ordfeminine" unicode="&#xaa;" horiz-adv-x="365" 
d="M140 385q-49 0 -77 26.5t-28 68.5q0 34 27.5 60.5t74.5 34.5l98 15q0 15 -14.5 27.5t-40.5 12.5q-19 0 -33 -5t-23 -10q-11 -7 -19 -15l-55 50q13 17 32 30q17 11 42 20.5t61 9.5q64 0 99.5 -35t35.5 -95v-185h-85v35q-9 -13 -23 -23q-12 -8 -30 -15t-42 -7zM160 520
q-15 -3 -25 -13.5t-10 -21.5t10.5 -20.5t29.5 -9.5q13 0 25.5 6t22.5 16t16 22.5t6 25.5v10z" />
    <glyph glyph-name="ordmasculine" unicode="&#xba;" horiz-adv-x="380" 
d="M120 545q0 -34 20 -54.5t50 -20.5t50 20.5t20 54.5t-20 54.5t-50 20.5t-50 -20.5t-20 -54.5zM355 545q0 -34 -13 -64t-35.5 -52.5t-52.5 -35.5t-64 -13t-64 13t-52.5 35.5t-35.5 52.5t-13 64t13 64t35.5 52.5t52.5 35.5t64 13t64 -13t52.5 -35.5t35.5 -52.5t13 -64z" />
    <glyph glyph-name="multiply" unicode="&#xd7;" horiz-adv-x="490" 
d="M455 180l-80 -80l-130 130l-130 -130l-80 80l130 130l-130 130l80 80l130 -130l130 130l80 -80l-130 -130z" />
    <glyph glyph-name="divide" unicode="&#xf7;" horiz-adv-x="520" 
d="M485 240h-450v105h450v-105zM340 475q0 -30 -23 -52.5t-57 -22.5t-57 22.5t-23 52.5t23 52.5t57 22.5t57 -22.5t23 -52.5zM340 110q0 -30 -23 -52.5t-57 -22.5t-57 22.5t-23 52.5t23 52.5t57 22.5t57 -22.5t23 -52.5z" />
    <glyph glyph-name="minus" unicode="&#x2212;" horiz-adv-x="530" 
d="M495 235h-460v120h460v-120z" />
    <glyph glyph-name="cent" unicode="&#xa2;" horiz-adv-x="510" 
d="M170 245q0 -28 10.5 -52.5t27.5 -43t40 -29t47 -10.5q26 0 45 8t32 18q15 11 25 26l83 -85q-16 -18 -36 -34q-17 -14 -42 -27t-57 -21v-100h-120v100q-41 13 -77 37t-62 56t-41 72t-15 85t15 84.5t41 71.5t62 55t77 34v100h120v-100q32 -8 56 -21.5t41 -26.5
q19 -16 33 -32l-80 -80q-10 14 -24 25q-12 9 -31 17t-45 8q-24 0 -47 -10.5t-40 -29t-27.5 -43t-10.5 -52.5z" />
    <glyph glyph-name="florin" unicode="&#x192;" horiz-adv-x="385" 
d="M184 -40q-16 -83 -56.5 -126.5t-122.5 -43.5q-30 0 -53 5q-12 2 -22 5v115q8 -3 16 -5q15 -5 34 -5q34 0 49.5 14.5t20.5 40.5l65 340h-65v120h85l21 120q14 83 55 126.5t124 43.5q15 0 28 -1.5t24 -3.5q12 -3 23 -5v-115q-8 2 -16 5q-7 2 -16 3.5t-18 1.5
q-34 0 -49.5 -14.5t-20.5 -40.5l-20 -120h95v-120h-115z" />
    <glyph glyph-name="yen" unicode="&#xa5;" horiz-adv-x="670" 
d="M410 250v-50h145v-105h-145v-95h-150v95h-145v105h145v50h-145v105h86l-191 345h160l165 -300l165 300h160l-192 -345h87v-105h-145z" />
    <glyph glyph-name="sterling" unicode="&#xa3;" horiz-adv-x="585" 
d="M120 480q0 52 17 95.5t48.5 74.5t76 48t98.5 17q51 0 89 -15t64 -33q30 -21 52 -47l-100 -95q-11 14 -26 25q-13 9 -31.5 17t-42.5 8q-45 0 -75 -30t-30 -75v-85h175v-105h-175v-95q0 -14 -3 -24t-7 -17q-4 -8 -10 -14h320v-130h-500v130q60 0 60 55v95h-60v105h60v95v0z
" />
    <glyph glyph-name="uni20B4" unicode="&#x20b4;" horiz-adv-x="650" 
d="M385 480q2 3 5 7q2 4 3.5 9.5t1.5 13.5q0 30 -25 52.5t-70 22.5q-30 0 -54 -9.5t-41 -20.5q-20 -13 -35 -30l-90 95q24 26 57 47q29 18 71.5 33t101.5 15q56 0 101.5 -16.5t77.5 -44.5t49 -65.5t17 -78.5q0 -15 -2.5 -22t-2.5 -8h50v-95h-550v95h335zM265 220
q-3 -4 -5 -8q-5 -8 -5 -22q0 -30 25 -52.5t70 -22.5q30 0 54 9.5t41 20.5q19 13 35 30l90 -95q-24 -27 -57 -48q-29 -18 -72 -32.5t-101 -14.5q-56 0 -101.5 16.5t-77.5 44.5t-49 65.5t-17 78.5q0 15 2.5 22t2.5 8h-50v95h550v-95h-335z" />
    <glyph glyph-name="approxequal" unicode="&#x2248;" horiz-adv-x="575" 
d="M205 365q-23 0 -40 -8.5t-28 -19.5q-13 -12 -22 -27l-85 60q14 29 36 52q19 20 48 36.5t71 16.5q36 0 59.5 -9.5t42.5 -20.5t38 -20.5t45 -9.5q23 0 39.5 8t27.5 19q13 12 23 28l85 -60q-14 -30 -36 -53q-19 -20 -48 -36t-71 -16q-36 0 -59.5 9.5t-42.5 20.5t-38 20.5
t-45 9.5zM205 175q-23 0 -40 -8.5t-28 -19.5q-13 -12 -22 -27l-85 60q14 29 36 52q19 20 48 36.5t71 16.5q36 0 59.5 -9.5t42.5 -20.5t38 -20.5t45 -9.5q23 0 39.5 8t27.5 19q13 12 23 28l85 -60q-14 -30 -36 -53q-19 -20 -48 -36t-71 -16q-36 0 -59.5 9.5t-42.5 20.5
t-38 20.5t-45 9.5z" />
    <glyph glyph-name="notequal" unicode="&#x2260;" horiz-adv-x="485" 
d="M450 140h-210l-40 -100h-120l40 100h-85v115h130l35 80h-165v115h210l40 100h120l-40 -100h85v-115h-130l-35 -80h165v-115z" />
    <glyph glyph-name="lessequal" unicode="&#x2264;" horiz-adv-x="505" 
d="M35 110h435v-110h-435v110zM470 470l-250 -105l250 -105v-120l-435 190v70l435 190v-120z" />
    <glyph glyph-name="mu" unicode="&#xb5;" horiz-adv-x="595" 
d="M60 490h135v-275q0 -45 26 -72.5t64 -27.5q42 0 68.5 29t26.5 86v260h135v-345q0 -15 10 -25t25 -10q6 0 14 2q4 1 6 3v-115q-6 -3 -14 -5q-15 -5 -36 -5q-38 0 -61.5 11.5t-36.5 25.5q-16 17 -22 38q-14 -21 -36 -38q-19 -14 -48 -25.5t-71 -11.5q-21 0 -36 5
q-8 2 -14 5v-210h-135v700z" />
    <glyph glyph-name="afii10053" unicode="&#x404;" horiz-adv-x="755" 
d="M430 715q73 0 127.5 -22t90.5 -48q42 -31 72 -70l-95 -95q-21 28 -49 50q-25 19 -61 34.5t-85 15.5q-43 0 -79.5 -13t-64.5 -35t-47.5 -51t-28.5 -61h310v-135h-310q9 -34 28 -64t46.5 -52.5t64 -35.5t81.5 -13q51 0 89 15.5t64 34.5q30 22 52 50l90 -95q-31 -39 -74 -70
q-37 -26 -92.5 -48t-128.5 -22q-81 0 -150.5 29t-120.5 78.5t-80 116t-29 141.5t29 141.5t80 116t120.5 78.5t150.5 29z" />
    <glyph glyph-name="afii10050" unicode="&#x490;" horiz-adv-x="575" 
d="M425 835h140v-270h-325v-565h-150v700h335v135z" />
    <glyph glyph-name="afii10098" unicode="&#x491;" horiz-adv-x="430" 
d="M60 490h230v105h125v-230h-220v-365h-135v490z" />
    <glyph glyph-name="afii10051" unicode="&#x402;" horiz-adv-x="735" 
d="M545 225q0 42 -30.5 71t-79.5 29q-57 0 -91 -33t-34 -82v-210h-150v565h-160v135h470v-135h-160v-155q16 14 39 25q20 9 47.5 17t63.5 8q235 0 235 -235q0 -113 -63 -176.5t-172 -63.5h-30v135q57 0 86 28t29 77z" />
    <glyph glyph-name="afii10058" unicode="&#x409;" horiz-adv-x="1095" 
d="M510 0v565h-190v-80q0 -152 -17 -249t-47.5 -153t-72.5 -77t-93 -21q-19 0 -35.5 2.5t-28.5 5.5q-14 4 -26 9v143q8 -3 16 -5q15 -5 34 -5q26 0 48 12.5t38 50t25 106t9 180.5v216h490v-230h140q54 0 100 -18t79.5 -49.5t52 -74.5t18.5 -93t-18.5 -92.5t-52 -74.5
t-79.5 -50t-100 -18h-290zM795 135q22 0 41.5 8t33.5 21.5t22 31.5t8 39t-8 39t-22 31.5t-33.5 21.5t-41.5 8h-135v-200h135z" />
    <glyph glyph-name="afii10059" unicode="&#x40a;" horiz-adv-x="1105" 
d="M520 0v335h-280v-335h-150v700h150v-230h280v230h150v-230h140q54 0 100 -18t79.5 -49.5t52 -74.5t18.5 -93t-18.5 -92.5t-52 -74.5t-79.5 -50t-100 -18h-290zM805 135q22 0 41.5 8t33.5 21.5t22 31.5t8 39t-8 39t-22 31.5t-33.5 21.5t-41.5 8h-135v-200h135z" />
    <glyph glyph-name="afii10060" unicode="&#x40b;" horiz-adv-x="765" 
d="M545 220q0 45 -30.5 75t-79.5 30q-28 0 -51 -8.5t-39.5 -23t-25.5 -33.5t-9 -40v-220h-150v565h-160v135h470v-135h-160v-155q16 14 39 25q20 9 47.5 17t63.5 8q235 0 235 -240v-220h-150v220v0z" />
    <glyph glyph-name="afii10145" unicode="&#x40f;" horiz-adv-x="775" 
d="M685 0h-225v-145h-150v145h-220v700h150v-565h295v565h150v-700z" />
    <glyph glyph-name="afii10099" unicode="&#x452;" horiz-adv-x="595" 
d="M210 630h115v-120h-115v-120q15 19 36 35q18 13 44 24t60 11q41 0 76.5 -15.5t62 -45t41.5 -72.5t15 -97q0 -117 -64 -181t-181 -64v125q49 0 79.5 31.5t30.5 88.5q0 45 -27.5 72.5t-72.5 27.5t-72.5 -29t-27.5 -86v-215h-135v510h-80v120h80v70h135v-70z" />
    <glyph glyph-name="afii10106" unicode="&#x459;" horiz-adv-x="810" 
d="M495 490v-160h90q45 0 80.5 -12.5t59.5 -34.5t37 -52t13 -66t-13 -66t-37 -52t-59.5 -34.5t-80.5 -12.5h-225v370h-120v-30q0 -107 -12.5 -176t-35.5 -108.5t-55.5 -55t-71.5 -15.5q-15 0 -28 2t-22 5q-11 4 -20 8v120q4 -2 9 -3t10 -1.5t11 -0.5q21 0 36.5 8t26.5 33.5
t16.5 72.5t5.5 126v135h385zM640 165q0 55 -60 55h-85v-110h85q60 0 60 55z" />
    <glyph glyph-name="afii10107" unicode="&#x45a;" horiz-adv-x="820" 
d="M195 0h-135v490h135v-160h175v160h135v-160h90q45 0 80.5 -12.5t59.5 -34.5t37 -52t13 -66t-13 -66t-37 -52t-59.5 -34.5t-80.5 -12.5h-225v210h-175v-210zM650 165q0 55 -60 55h-85v-110h85q60 0 60 55z" />
    <glyph glyph-name="afii10108" unicode="&#x45b;" horiz-adv-x="605" 
d="M210 630h115v-120h-115v-120q15 19 36 35q18 13 44 24t60 11q41 0 76 -14.5t60.5 -42.5t39.5 -67.5t14 -90.5v-245h-135v230q0 45 -26.5 72.5t-68.5 27.5q-45 0 -72.5 -29t-27.5 -86v-215h-135v510h-80v120h80v70h135v-70z" />
    <glyph glyph-name="afii10193" unicode="&#x45f;" horiz-adv-x="585" 
d="M60 490h135v-370h185v370h135v-490h-160v-115h-135v115h-160v490z" />
    <glyph glyph-name="afii10101" unicode="&#x454;" horiz-adv-x="525" 
d="M30 245q0 51 21 97t57 81t84.5 56t102.5 21q50 0 87.5 -15.5t62.5 -34.5q29 -22 50 -50l-75 -75q-13 18 -31 32q-16 12 -39 22.5t-55 10.5q-38 0 -62 -15t-38 -33q-17 -21 -25 -47h200v-100h-200q8 -27 25 -48q14 -18 38 -32.5t62 -14.5q31 0 55 10t41 22q19 14 34 33
l70 -75q-21 -28 -51 -50q-26 -19 -63 -34.5t-86 -15.5q-54 0 -102.5 21t-84.5 56t-57 81t-21 97z" />
    <glyph glyph-name="AE" unicode="&#xc6;" horiz-adv-x="1000" 
d="M360 700h585v-130h-330v-150h250v-125h-250v-165h340v-130h-490v170h-245l-90 -170h-160zM290 300h175v270h-25z" />
    <glyph glyph-name="Dcroat" unicode="&#x110;" horiz-adv-x="780" 
d="M370 700q77 0 143 -27.5t114 -74.5t75.5 -111t27.5 -137t-27.5 -137t-75.5 -111t-114 -74.5t-143 -27.5h-260v290h-85v120h85v290h260zM260 565v-155h135v-120h-135v-155h110q43 0 81.5 16.5t67 46t45 68.5t16.5 84t-16 84t-44 68.5t-66.5 46t-83.5 16.5h-110z" />
    <glyph glyph-name="ae" unicode="&#xe6;" horiz-adv-x="875" 
d="M255 500q39 0 69 -12.5t50 -27.5q24 -18 41 -40q20 22 47 40q23 15 56 27.5t77 12.5q51 0 94.5 -18.5t76 -51.5t51 -78t18.5 -97q0 -14 -1 -24t-2 -17q-1 -8 -2 -14h-350q8 -38 40.5 -66.5t89.5 -28.5q30 0 53 9.5t39 20.5q18 13 33 30l70 -90q-23 -25 -54 -43
q-26 -16 -64.5 -29t-86.5 -13t-83.5 14t-60.5 31q-29 19 -51 45q-19 -26 -47 -45q-24 -17 -60.5 -31t-87.5 -14q-41 0 -74.5 12t-57 32.5t-36 47t-12.5 55.5q0 31 14 59.5t40.5 50.5t65.5 35t90 13h100q0 90 -85 90q-29 0 -50.5 -8.5t-35.5 -19.5q-17 -12 -29 -27l-75 75
q20 26 48 47q24 18 59 33t83 15zM590 385q-45 0 -73.5 -26t-36.5 -64h220q-8 38 -36.5 64t-73.5 26zM225 100q24 0 45 8.5t36.5 23.5t24.5 35t9 43h-90q-45 0 -67.5 -19t-22.5 -43q0 -17 17.5 -32.5t47.5 -15.5z" />
    <glyph glyph-name="Lslash" unicode="&#x141;" horiz-adv-x="650" 
d="M150 0v235l-95 -55l-65 115l160 90v315h150v-235l100 55l65 -110l-165 -95v-180h325v-135h-475z" />
    <glyph glyph-name="eth" unicode="&#xf0;" 
d="M407 411q-14 41 -33.5 72t-36.5 51q-20 24 -42 41l-115 -75l-55 80l70 50q-13 6 -29 12q-14 5 -32.5 11t-38.5 12l35 100q42 -11 73 -23t53 -21q26 -11 44 -21l115 80l60 -80l-90 -60q43 -36 77 -88q29 -44 53.5 -110.5t24.5 -156.5q0 -71 -19 -126t-53 -92.5t-82 -57
t-106 -19.5q-53 0 -98.5 19t-79 52t-53 76.5t-19.5 92.5t19 92.5t51 76.5t73.5 52t86.5 19q34 0 60.5 -9.5t46.5 -20.5q22 -13 40 -29zM395 230q0 24 -9.5 46t-25.5 38.5t-37 26t-43 9.5q-23 0 -43.5 -9.5t-36.5 -26t-25.5 -38.5t-9.5 -46t9.5 -46t25.5 -38.5t36.5 -26
t43.5 -9.5q22 0 43 9.5t37 26t25.5 38.5t9.5 46z" />
    <glyph glyph-name="dcroat" unicode="&#x111;" horiz-adv-x="610" 
d="M285 630h110v70h135v-70h75v-120h-75v-510h-135v55q-16 -19 -37 -33q-18 -12 -44.5 -22t-61.5 -10q-46 0 -86.5 18t-70.5 49.5t-47.5 75.5t-17.5 97q0 52 17.5 96.5t47.5 76t70 49.5t85 18q35 0 62.5 -11t45.5 -24q21 -16 37 -35v110h-110v120zM280 105q22 0 43 9.5
t37 26.5t25.5 40t9.5 49t-9.5 49t-25.5 40t-37 26.5t-43 9.5q-23 0 -43.5 -9.5t-36.5 -26.5t-25.5 -40t-9.5 -49t9.5 -49t25.5 -40t36.5 -26.5t43.5 -9.5z" />
    <glyph glyph-name="lslash.alt" horiz-adv-x="410" 
d="M260 460l100 60l55 -100l-155 -90v-159q0 -23 17 -39t43 -16q20 0 34 3l16 4v-121q-11 -3 -24 -6q-11 -2 -26.5 -4t-34.5 -2q-75 0 -117.5 43.5t-42.5 126.5v90l-100 -60l-55 100l155 90v320h135v-240z" />
    <glyph glyph-name="OE" unicode="&#x152;" horiz-adv-x="1020" 
d="M965 700v-130h-325v-148h245v-125h-245v-167h335v-130h-555q-79 0 -146.5 28t-117 76t-78 111.5t-28.5 134.5t28.5 134.5t78 111.5t117 76t146.5 28h545zM420 565q-47 0 -87 -16.5t-69.5 -46t-46.5 -68.5t-17 -84q0 -53 18 -93t48.5 -67t70.5 -41t83 -14h70v430h-70z" />
    <glyph glyph-name="Oslash" unicode="&#xd8;" horiz-adv-x="860" 
d="M550 545q-16 9 -34 17q-16 7 -38 12.5t-48 5.5q-47 0 -88 -17.5t-71.5 -48.5t-48 -73t-17.5 -91q0 -29 4.5 -50.5t10.5 -35.5q6 -17 15 -29zM655 350q0 28 -5 50t-10 36q-7 17 -15 29l-315 -310q16 -10 34 -18q16 -7 38 -12t48 -5q47 0 88 17.5t71.5 48.5t48 73t17.5 91z
M810 350q0 -75 -29 -141.5t-80 -116t-120.5 -78.5t-150.5 -29q-51 0 -92.5 10.5t-70.5 24.5q-34 15 -62 35l-85 -85l-80 80l85 85q-21 24 -38 57q-14 28 -25.5 67.5t-11.5 90.5q0 75 29 141.5t80 116t120.5 78.5t150.5 29q51 0 92.5 -11t70.5 -24q34 -16 62 -35l85 85
l80 -80l-85 -85q20 -24 37 -57q14 -28 26 -67.5t12 -90.5z" />
    <glyph glyph-name="Thorn" unicode="&#xde;" horiz-adv-x="670" 
d="M310 645q69 0 127 -22.5t100 -61.5t65 -91t23 -110t-23 -110t-65 -91t-100 -61.5t-127 -22.5h-70v-95h-150v740h150v-75h70zM240 205h55q91 0 135.5 41.5t44.5 113.5t-44.5 113.5t-135.5 41.5h-55v-310z" />
    <glyph glyph-name="dotlessi" unicode="&#x131;" horiz-adv-x="275" 
d="M195 0h-135v490h135v-490z" />
    <glyph glyph-name="oe" unicode="&#x153;" horiz-adv-x="945" 
d="M545 200q8 -38 40.5 -66.5t89.5 -28.5q32 0 56 9.5t41 20.5q19 13 33 30l70 -85q-22 -26 -54 -45q-27 -17 -66 -31t-90 -14q-49 0 -85 13t-59 29q-27 18 -46 43q-21 -25 -49 -43q-24 -16 -59.5 -29t-81.5 -13q-53 0 -99 20t-81 55t-55 81t-20 99q0 52 20 98.5t55 81.5
t81 55t99 20q45 0 80 -14t60 -31q28 -20 50 -45q20 25 47 45q23 17 58 31t80 14q52 0 97 -19.5t78 -52.5t51.5 -77.5t18.5 -95.5q0 -14 -1 -24t-2 -17q-1 -8 -2 -14h-355zM400 245q0 30 -9.5 55t-25.5 42.5t-37 27.5t-43 10q-23 0 -43.5 -10t-36.5 -27.5t-25.5 -42.5
t-9.5 -55t9.5 -55t25.5 -42.5t36.5 -27.5t43.5 -10q22 0 43 10t37 27.5t25.5 42.5t9.5 55zM660 390q-45 0 -74.5 -26.5t-40.5 -68.5h225q-8 42 -36.5 68.5t-73.5 26.5z" />
    <glyph glyph-name="oslash" unicode="&#xf8;" horiz-adv-x="590" 
d="M335 365q-6 2 -13 5q-6 2 -14.5 3.5t-17.5 1.5q-24 0 -46 -10t-38.5 -27t-26 -41t-9.5 -52q0 -21 5 -36q2 -8 5 -14zM550 245q0 -51 -21 -97t-56.5 -81t-83 -56t-99.5 -21q-34 0 -59 6t-42 14q-20 9 -34 20l-60 -65l-70 70l55 60q-14 19 -25 43q-10 20 -17.5 47.5
t-7.5 59.5q0 51 21 97t56.5 81t82.5 56t100 21q34 0 59 -6t42 -14q19 -9 34 -20l60 65l70 -70l-55 -60q14 -19 25 -43q9 -20 17 -47.5t8 -59.5zM245 125q6 -3 13 -5q13 -5 32 -5q24 0 46 10t38.5 27t26 41t9.5 52q0 11 -1.5 20t-3.5 16q-3 8 -5 14z" />
    <glyph glyph-name="thorn" unicode="&#xfe;" horiz-adv-x="620" 
d="M345 -10q-36 0 -63 10.5t-45 24.5q-21 15 -37 35v-270h-135v910h135v-270q16 19 37 35q18 13 45 24t63 11q47 0 89.5 -19.5t75 -53.5t51.5 -81t19 -101t-19 -101t-51.5 -81t-75 -53.5t-89.5 -19.5zM320 380q-24 0 -46 -10t-38.5 -27.5t-26 -42.5t-9.5 -55t9.5 -55
t26 -42.5t38.5 -27.5t46 -10t46 10t38.5 27.5t26 42.5t9.5 55t-9.5 55t-26 42.5t-38.5 27.5t-46 10z" />
    <glyph glyph-name="germandbls" unicode="&#xdf;" horiz-adv-x="610" 
d="M440 385q35 -15 62 -39q23 -21 43 -54t20 -82q0 -43 -17 -81.5t-48.5 -67t-75 -45t-97.5 -16.5h-47v130h50q42 0 68.5 25.5t26.5 59.5q0 38 -26.5 64t-68.5 26h-50v125h10q42 0 66 22.5t24 52.5q0 34 -26 59.5t-64 25.5t-64 -26.5t-26 -68.5v-495h-135v495q0 47 16 86.5
t46 68t72.5 44.5t95.5 16q49 0 89.5 -15.5t69.5 -42t45 -61t16 -71.5q0 -36 -12 -61t-26 -42q-17 -19 -37 -32z" />
    <glyph glyph-name="Germandbls" horiz-adv-x="675" 
d="M465 410q45 -11 80 -36q30 -21 55 -59.5t25 -99.5q0 -43 -18 -82t-50 -68.5t-77.5 -47t-99.5 -17.5h-60v120h50q45 0 72.5 26.5t27.5 68.5t-27.5 68.5t-72.5 26.5h-50v110l110 150h-100q-45 0 -72.5 -27.5t-27.5 -72.5v-470h-150v470q0 49 18 91t50 73t77.5 48.5
t99.5 17.5h260v-125l-120 -165v0z" />
    <glyph glyph-name="breve" unicode="&#x2d8;" horiz-adv-x="380" 
d="M190 645q26 0 43 17t17 43h100q0 -32 -11.5 -59.5t-32.5 -47.5t-50.5 -31.5t-65.5 -11.5t-65.5 11.5t-50.5 31.5t-32.5 47.5t-11.5 59.5h100q0 -26 17 -43t43 -17z" />
    <glyph glyph-name="dieresis" unicode="&#xa8;" horiz-adv-x="430" 
d="M30 635q0 30 22.5 52.5t52.5 22.5t52.5 -22.5t22.5 -52.5t-22.5 -52.5t-52.5 -22.5t-52.5 22.5t-22.5 52.5zM250 635q0 30 22.5 52.5t52.5 22.5t52.5 -22.5t22.5 -52.5t-22.5 -52.5t-52.5 -22.5t-52.5 22.5t-22.5 52.5z" />
    <glyph glyph-name="circumflex" unicode="&#x2c6;" horiz-adv-x="420" 
d="M390 555h-120l-60 80l-60 -80h-120l120 150h120z" />
    <glyph glyph-name="acute" unicode="&#xb4;" horiz-adv-x="280" 
d="M110 705h140l-110 -150h-110z" />
    <glyph glyph-name="tilde" unicode="&#x2dc;" horiz-adv-x="415" 
d="M280 560q-26 0 -43.5 8t-31 17t-26 17t-29.5 8q-15 0 -25 -12t-10 -38h-85q0 79 30 114.5t77 35.5q25 0 43 -8.5t31.5 -19t26 -19t27.5 -8.5t25 12.5t10 42.5h85q0 -79 -30 -114.5t-75 -35.5z" />
    <glyph glyph-name="macron" unicode="&#xaf;" horiz-adv-x="380" 
d="M350 615h-320v100h320v-100z" />
    <glyph glyph-name="ogonek" unicode="&#x2db;" horiz-adv-x="250" 
d="M160 0q-10 -14 -18 -31q-7 -14 -12 -32t-5 -37q0 -40 45 -40q21 0 36 5q8 2 14 5v-75q-9 -4 -21 -8q-11 -3 -25.5 -5t-33.5 -2q-49 0 -79.5 29.5t-30.5 72.5q0 26 9.5 47t20.5 37q13 18 30 34h70z" />
    <glyph glyph-name="ring" unicode="&#x2da;" horiz-adv-x="290" 
d="M105 605q0 -40 40 -40t40 40t-40 40t-40 -40zM260 605q0 -23 -9 -43t-24.5 -35t-36.5 -23.5t-45 -8.5t-45 8.5t-36.5 23.5t-24.5 35t-9 43q0 22 9 42t24.5 35t36.5 24t45 9t45 -9t36.5 -24t24.5 -35t9 -42z" />
    <glyph glyph-name="dotaccent" unicode="&#x2d9;" horiz-adv-x="215" 
d="M185 640q0 -34 -21 -54.5t-59 -20.5q-34 0 -54.5 20.5t-20.5 54.5t20.5 54.5t54.5 20.5q38 0 59 -20.5t21 -54.5z" />
    <glyph glyph-name="caron" unicode="&#x2c7;" horiz-adv-x="420" 
d="M270 555h-120l-120 150h121l59 -80l60 80h120z" />
    <glyph glyph-name="cedilla" unicode="&#xb8;" horiz-adv-x="280" 
d="M195 20l-35 -70q25 -1 45 -11q17 -8 31 -25t14 -49q0 -42 -28.5 -68.5t-81.5 -26.5q-26 0 -46.5 7t-34.5 15q-17 10 -29 23l30 55q9 -8 20 -13q9 -5 22 -8.5t28 -3.5q35 0 35 25t-35 25q-6 0 -10.5 -1t-7.5 -2q-4 -1 -7 -2l-25 30l45 100h70z" />
    <glyph glyph-name="commaaccent" unicode="&#xf6c3;" horiz-adv-x="230" 
d="M75 -80h125l-70 -150h-100z" />
    <glyph glyph-name="hungarumlaut" unicode="&#x2dd;" horiz-adv-x="465" 
d="M110 705h135l-115 -150h-100zM300 705h135l-115 -150h-100z" />
    <glyph glyph-name="afii57929" unicode="&#x2bc;" horiz-adv-x="230" 
d="M75 705h125l-70 -150h-100z" />
    <glyph glyph-name="afii10017" unicode="&#x410;" horiz-adv-x="730" 
d="M365 525l-85 -230h170zM230 165l-60 -165h-160l275 700h160l275 -700h-160l-60 165h-270z" />
    <glyph glyph-name="afii10019" unicode="&#x412;" horiz-adv-x="695" 
d="M90 0v700h300q49 0 89.5 -15.5t69.5 -41.5t45 -59t16 -69q0 -38 -12.5 -65t-27.5 -45q-18 -21 -40 -35q31 -15 57 -38q22 -20 40 -51t18 -76q0 -41 -17 -78t-48.5 -65t-75 -45t-97.5 -17h-317zM400 125q42 0 68.5 26t26.5 64t-26.5 64t-68.5 26h-160v-180h160zM240 575
v-150h140q38 0 59 20.5t21 54.5t-21 54.5t-59 20.5h-140z" />
    <glyph glyph-name="afii10022" unicode="&#x415;" horiz-adv-x="665" 
d="M615 135v-135h-525v700h515v-135h-365v-140h285v-135h-285v-155h375z" />
    <glyph glyph-name="afii10028" unicode="&#x41a;" horiz-adv-x="710" 
d="M240 395l275 305h175l-260 -290l280 -410h-175l-205 300l-90 -100v-200h-150v700h150v-305z" />
    <glyph glyph-name="afii10030" unicode="&#x41c;" horiz-adv-x="930" 
d="M707 700h133v-700h-150v467l-225 -287l-225 285v-465h-150v700h135l240 -305z" />
    <glyph glyph-name="afii10031" unicode="&#x41d;" horiz-adv-x="780" 
d="M690 0h-150v285h-300v-285h-150v700h150v-280h300v280h150v-700z" />
    <glyph glyph-name="afii10032" unicode="&#x41e;" horiz-adv-x="860" 
d="M205 350q0 -49 17.5 -91t48 -73t71.5 -48.5t88 -17.5t88 17.5t71.5 48.5t48 73t17.5 91t-17.5 91t-48 73t-71.5 48.5t-88 17.5t-88 -17.5t-71.5 -48.5t-48 -73t-17.5 -91zM50 350q0 75 29 141.5t80 116t120.5 78.5t150.5 29t150.5 -29t120.5 -78.5t80 -116t29 -141.5
t-29 -141.5t-80 -116t-120.5 -78.5t-150.5 -29t-150.5 29t-120.5 78.5t-80 116t-29 141.5z" />
    <glyph glyph-name="afii10034" unicode="&#x420;" horiz-adv-x="680" 
d="M385 700q54 0 100 -18t79.5 -50t52 -75t18.5 -92q0 -50 -18.5 -93t-52 -74.5t-79.5 -49.5t-100 -18h-145v-230h-150v700h295zM240 565v-200h140q22 0 41.5 8t33.5 21.5t22 31.5t8 39t-8 39t-22 31.5t-33.5 21.5t-41.5 8h-140z" />
    <glyph glyph-name="afii10035" unicode="&#x421;" horiz-adv-x="755" 
d="M430 715q73 0 127.5 -22t90.5 -48q42 -31 72 -70l-95 -95q-21 28 -49 50q-25 19 -61 34.5t-85 15.5t-91 -17.5t-73 -48.5t-48.5 -73t-17.5 -91t17.5 -91t48.5 -73t73 -48.5t91 -17.5q51 0 89 15.5t64 34.5q30 22 52 50l90 -95q-31 -39 -74 -70q-37 -26 -92.5 -48
t-128.5 -22q-81 0 -150.5 29t-120.5 78.5t-80 116t-29 141.5t29 141.5t80 116t120.5 78.5t150.5 29z" />
    <glyph glyph-name="afii10036" unicode="&#x422;" horiz-adv-x="590" 
d="M570 700v-135h-200v-565h-150v565h-200v135h550z" />
    <glyph glyph-name="afii10039" unicode="&#x425;" horiz-adv-x="700" 
d="M180 0h-170l245 365l-225 335h170l150 -225l150 225h170l-225 -335l245 -365h-170l-170 255z" />
    <glyph glyph-name="afii10037" unicode="&#x423;" horiz-adv-x="640" 
d="M340 370l140 330h160l-245 -525q-20 -43 -44 -77.5t-53.5 -58.5t-66 -36.5t-81.5 -12.5q-17 0 -31.5 2t-25.5 5q-12 4 -23 8v130q7 -3 17 -5q18 -5 43 -5q45 0 72.5 22t42.5 48l20 35l-250 470h160z" />
    <glyph glyph-name="afii10065" unicode="&#x430;" horiz-adv-x="535" 
d="M330 50q-16 -17 -36 -30q-17 -11 -42 -20.5t-57 -9.5q-38 0 -68 11.5t-52 30.5t-33.5 44.5t-11.5 53.5q0 60 38.5 100t106.5 52l155 28q0 30 -21.5 50t-63.5 20q-29 0 -49 -8t-34 -17q-16 -11 -27 -25l-75 75q20 26 49 47q24 18 60.5 33t85.5 15q47 0 85.5 -15
t66.5 -41.5t43 -62t15 -76.5v-305h-135v50zM230 100q45 0 72.5 28.5t27.5 81.5v15l-110 -20q-55 -9 -55 -55q0 -23 15.5 -36.5t49.5 -13.5z" />
    <glyph glyph-name="afii10070" unicode="&#x435;" horiz-adv-x="570" 
d="M170 200q8 -38 40.5 -66.5t89.5 -28.5q32 0 56 9.5t41 20.5q19 13 33 30l70 -90q-22 -25 -54 -43q-27 -16 -66 -29t-90 -13q-54 0 -101.5 20t-83 55t-55.5 81t-20 99q0 52 20 98.5t55 81.5t81 55t99 20q52 0 97 -18.5t78 -51.5t51.5 -78t18.5 -97q0 -14 -1 -24t-2 -17
q-1 -8 -2 -14h-355zM285 385q-45 0 -74.5 -26t-40.5 -64h225q-8 38 -36.5 64t-73.5 26z" />
    <glyph glyph-name="afii10080" unicode="&#x43e;" horiz-adv-x="590" 
d="M170 245q0 -28 9.5 -52t26 -41t38.5 -27t46 -10t46 10t38.5 27t26 41t9.5 52t-9.5 52t-26 41t-38.5 27t-46 10t-46 -10t-38.5 -27t-26 -41t-9.5 -52zM550 245q0 -51 -21 -97t-56.5 -81t-83 -56t-99.5 -21q-53 0 -100 21t-82.5 56t-56.5 81t-21 97t21 97t56.5 81t82.5 56
t100 21q52 0 99.5 -21t83 -56t56.5 -81t21 -97z" />
    <glyph glyph-name="afii10082" unicode="&#x440;" horiz-adv-x="615" 
d="M340 -10q-36 0 -63 10.5t-45 24.5q-21 15 -37 35v-270h-135v700h135v-60q16 19 37 35q18 13 45 24t63 11q47 0 89.5 -19.5t75 -53.5t51.5 -81t19 -101t-19 -101t-51.5 -81t-75 -53.5t-89.5 -19.5zM315 380q-24 0 -46 -10t-38.5 -27.5t-26 -42.5t-9.5 -55t9.5 -55
t26 -42.5t38.5 -27.5t46 -10t46 10t38.5 27.5t26 42.5t9.5 55t-9.5 55t-26 42.5t-38.5 27.5t-46 10z" />
    <glyph glyph-name="afii10083" unicode="&#x441;" horiz-adv-x="525" 
d="M30 245q0 51 21 97t57 81t84.5 56t102.5 21q51 0 88.5 -15.5t62.5 -34.5q29 -22 49 -50l-85 -85q-12 18 -29 32q-14 12 -36 22.5t-50 10.5q-26 0 -49.5 -10.5t-41.5 -29t-28.5 -43t-10.5 -52.5t10.5 -52.5t28.5 -43t41.5 -29t49.5 -10.5q28 0 50 10t38 22q18 14 32 33
l80 -85q-20 -28 -49 -50q-25 -19 -62.5 -34.5t-88.5 -15.5q-54 0 -102.5 21t-84.5 56t-57 81t-21 97z" />
    <glyph glyph-name="afii10085" unicode="&#x443;" horiz-adv-x="520" 
d="M190 5l-190 485h140l115 -325l115 325h140l-195 -520q-34 -91 -80 -135.5t-110 -44.5q-19 0 -34.5 2t-26.5 5q-13 4 -24 8v120q6 -3 14 -5q15 -5 36 -5q34 0 54.5 16t30.5 39z" />
    <glyph glyph-name="afii10087" unicode="&#x445;" horiz-adv-x="510" 
d="M145 0h-145l165 250l-155 240h150l90 -145l90 145h150l-155 -240l165 -250h-145l-105 155z" />
    <glyph glyph-name="quoteleft" unicode="&#x2018;" horiz-adv-x="260" 
d="M20 505l135 215l85 -50l-105 -230z" />
    <glyph glyph-name="quoteright" unicode="&#x2019;" horiz-adv-x="260" 
d="M240 655l-135 -215l-85 50l105 230z" />
    <glyph glyph-name="grave" unicode="`" horiz-adv-x="280" 
d="M250 555h-110l-110 150h140z" />
    <glyph glyph-name="quotesingle" unicode="'" horiz-adv-x="230" 
d="M175 470h-120v230h120v-230z" />
    <glyph glyph-name="quotedbl" unicode="&#x22;" horiz-adv-x="415" 
d="M175 470h-120v230h120v-230zM360 470h-120v230h120v-230z" />
    <glyph glyph-name="quotesinglbase" unicode="&#x201a;" horiz-adv-x="260" 
d="M215 80l-130 -210l-90 45l110 230z" />
    <glyph glyph-name="afii10052" unicode="&#x403;" horiz-adv-x="575" 
d="M350 935h140l-110 -150h-110zM90 700h475v-135h-325v-565h-150v700z" />
    <glyph glyph-name="afii10100" unicode="&#x453;" horiz-adv-x="430" 
d="M255 705h140l-110 -150h-110zM415 365h-220v-365h-135v490h355v-125z" />
    <glyph glyph-name="afii10061" unicode="&#x40c;" horiz-adv-x="710" 
d="M240 395l275 305h175l-260 -290l280 -410h-175l-205 300l-90 -100v-200h-150v700h150v-305zM397 935h140l-110 -150h-110z" />
    <glyph glyph-name="afii10109" unicode="&#x45c;" horiz-adv-x="540" 
d="M305 705h140l-110 -150h-110zM340 280l195 -280h-150l-130 190l-60 -70v-120h-135v490h135v-200l175 200h155z" />
    <glyph glyph-name="afii10062" unicode="&#x40e;" horiz-adv-x="640" 
d="M335 875q26 0 43 17t17 43h100q0 -34 -11.5 -62.5t-32.5 -49t-50.5 -32t-65.5 -11.5t-65.5 11.5t-50.5 32t-32.5 49t-11.5 62.5h100q0 -26 17 -43t43 -17zM340 370l140 330h160l-245 -525q-20 -43 -44 -77.5t-53.5 -58.5t-66 -36.5t-81.5 -12.5q-17 0 -31.5 2t-25.5 5
q-12 4 -23 8v130q7 -3 17 -5q18 -5 43 -5q45 0 72.5 22t42.5 48l20 35l-250 470h160z" />
    <glyph glyph-name="afii10110.alt" horiz-adv-x="520" 
d="M255 645q26 0 43 17t17 43h100q0 -32 -11.5 -59.5t-32.5 -47.5t-50.5 -31.5t-65.5 -11.5t-65.5 11.5t-50.5 31.5t-32.5 47.5t-11.5 59.5h100q0 -26 17 -43t43 -17zM190 0l-190 490h140l115 -325l115 325h140l-270 -700h-140z" />
    <glyph glyph-name="afii10057" unicode="&#x408;" horiz-adv-x="515" 
d="M430 700v-475q0 -54 -17.5 -98t-50 -75.5t-77.5 -49t-100 -17.5q-45 0 -80 13t-58 29q-27 18 -47 43l90 90q10 -11 22 -20q11 -8 26.5 -14t36.5 -6q49 0 77 28t28 77v475h150z" />
    <glyph glyph-name="afii10105" unicode="&#x458;" horiz-adv-x="275" 
d="M65 490h135v-530q0 -83 -42.5 -126.5t-117.5 -43.5q-19 0 -34.5 2t-26.5 5q-13 4 -24 8v120q8 -3 16 -5q15 -5 34 -5q26 0 43 16t17 39v520zM210 630q0 -34 -21 -54.5t-59 -20.5q-34 0 -54.5 20.5t-20.5 54.5t20.5 54.5t54.5 20.5q38 0 59 -20.5t21 -54.5z" />
    <glyph glyph-name="afii10055" unicode="&#x406;" horiz-adv-x="330" 
d="M90 700h150v-700h-150v700z" />
    <glyph glyph-name="afii10103" unicode="&#x456;" horiz-adv-x="275" 
d="M200 0h-135v490h135v-490zM210 630q0 -34 -21 -54.5t-59 -20.5q-34 0 -54.5 20.5t-20.5 54.5t20.5 54.5t54.5 20.5q38 0 59 -20.5t21 -54.5z" />
    <glyph glyph-name="afii10102" unicode="&#x455;" horiz-adv-x="455" 
d="M330 345q-9 11 -21 20q-11 8 -25.5 14t-33.5 6q-30 0 -45 -12.5t-15 -27.5q0 -17 16.5 -27.5t41.5 -19t54.5 -18t54.5 -26t41.5 -42.5t16.5 -67q0 -32 -13 -60t-37.5 -49t-61 -33.5t-83.5 -12.5q-53 0 -91 14t-62 31q-29 19 -47 45l75 75q12 -16 28 -28q14 -11 33 -19
t44 -8q34 0 49.5 13t15.5 32t-16.5 29.5t-41.5 19.5t-54.5 18.5t-54.5 25.5t-41.5 41t-16.5 66q0 28 14 56t39.5 50t60.5 35.5t76 13.5q43 0 75 -12t53 -26q25 -17 42 -37z" />
    <glyph glyph-name="afii10054" unicode="&#x405;" 
d="M395 205q0 32 -25.5 50t-64 31t-83 26.5t-83 36.5t-64 60.5t-25.5 100.5q0 41 17 78.5t49 65.5t77.5 44.5t101.5 16.5q58 0 101 -15t72 -33q33 -21 57 -47l-90 -95q-16 17 -35 30q-17 11 -41 20.5t-54 9.5q-45 0 -70 -22.5t-25 -52.5q0 -33 25.5 -50.5t64 -30.5t83 -26.5
t83 -36.5t64 -61t25.5 -100q0 -47 -17.5 -87t-51.5 -69.5t-83 -46.5t-113 -17q-66 0 -115.5 17.5t-82.5 39.5q-39 26 -67 58l90 90q18 -21 43 -38q21 -14 51.5 -25.5t70.5 -11.5q57 0 86 26t29 64z" />
    <glyph glyph-name="afii10056" unicode="&#x407;" horiz-adv-x="330" 
d="M90 700h150v-700h-150v700zM-19 850q0 30 22.5 52.5t52.5 22.5t52.5 -22.5t22.5 -52.5t-22.5 -52.5t-52.5 -22.5t-52.5 22.5t-22.5 52.5zM201 850q0 30 22.5 52.5t52.5 22.5t52.5 -22.5t22.5 -52.5t-22.5 -52.5t-52.5 -22.5t-52.5 22.5t-22.5 52.5z" />
    <glyph glyph-name="afii10104" unicode="&#x457;" horiz-adv-x="275" 
d="M-49 635q0 30 22.5 52.5t52.5 22.5t52.5 -22.5t22.5 -52.5t-22.5 -52.5t-52.5 -22.5t-52.5 22.5t-22.5 52.5zM171 635q0 30 22.5 52.5t52.5 22.5t52.5 -22.5t22.5 -52.5t-22.5 -52.5t-52.5 -22.5t-52.5 22.5t-22.5 52.5zM200 0h-135v490h135v-490z" />
    <glyph glyph-name="Agrave" unicode="&#xc0;" horiz-adv-x="730" 
d="M365 525l-85 -230h170zM230 165l-60 -165h-160l275 700h160l275 -700h-160l-60 165h-270zM415 785h-110l-110 150h140z" />
    <glyph glyph-name="Aacute" unicode="&#xc1;" horiz-adv-x="730" 
d="M365 525l-85 -230h170zM230 165l-60 -165h-160l275 700h160l275 -700h-160l-60 165h-270zM395 935h140l-110 -150h-110z" />
    <glyph glyph-name="Abreve" unicode="&#x102;" horiz-adv-x="730" 
d="M365 525l-85 -230h170zM230 165l-60 -165h-160l275 700h160l275 -700h-160l-60 165h-270zM370 875q26 0 43 17t17 43h100q0 -32 -11.5 -59.5t-32.5 -47.5t-50.5 -31.5t-65.5 -11.5t-65.5 11.5t-50.5 31.5t-32.5 47.5t-11.5 59.5h100q0 -26 17 -43t43 -17z" />
    <glyph glyph-name="Acircumflex" unicode="&#xc2;" horiz-adv-x="730" 
d="M365 525l-85 -230h170zM230 165l-60 -165h-160l275 700h160l275 -700h-160l-60 165h-270zM540 785h-120l-60 80l-60 -80h-120l120 150h120z" />
    <glyph glyph-name="Adieresis" unicode="&#xc4;" horiz-adv-x="730" 
d="M365 525l-85 -230h170zM230 165l-60 -165h-160l275 700h160l275 -700h-160l-60 165h-270zM185 855q0 30 22.5 52.5t52.5 22.5t52.5 -22.5t22.5 -52.5t-22.5 -52.5t-52.5 -22.5t-52.5 22.5t-22.5 52.5zM405 855q0 30 22.5 52.5t52.5 22.5t52.5 -22.5t22.5 -52.5
t-22.5 -52.5t-52.5 -22.5t-52.5 22.5t-22.5 52.5z" />
    <glyph glyph-name="Amacron" unicode="&#x100;" horiz-adv-x="730" 
d="M365 525l-85 -230h170zM230 165l-60 -165h-160l275 700h160l275 -700h-160l-60 165h-270zM525 815h-320v100h320v-100z" />
    <glyph glyph-name="Aring" unicode="&#xc5;" horiz-adv-x="730" 
d="M365 525l-85 -230h170zM230 165l-60 -165h-160l275 700h160l275 -700h-160l-60 165h-270zM330 865q0 -40 40 -40t40 40t-40 40t-40 -40zM485 865q0 -23 -9 -43t-24.5 -35t-36.5 -23.5t-45 -8.5t-45 8.5t-36.5 23.5t-24.5 35t-9 43q0 22 9 42t24.5 35t36.5 24t45 9t45 -9
t36.5 -24t24.5 -35t9 -42z" />
    <glyph glyph-name="Atilde" unicode="&#xc3;" horiz-adv-x="730" 
d="M365 525l-85 -230h170zM230 165l-60 -165h-160l275 700h160l275 -700h-160l-60 165h-270zM435 780q-26 0 -43.5 8t-31 17t-26 17t-29.5 8q-15 0 -25 -12t-10 -38h-85q0 79 30 114.5t77 35.5q25 0 43 -8.5t31.5 -19t26 -19t27.5 -8.5t25 12.5t10 42.5h85q0 -79 -30 -114.5
t-75 -35.5z" />
    <glyph glyph-name="Cacute" unicode="&#x106;" horiz-adv-x="755" 
d="M430 715q73 0 127.5 -22t90.5 -48q42 -31 72 -70l-95 -95q-21 28 -49 50q-25 19 -61 34.5t-85 15.5t-91 -17.5t-73 -48.5t-48.5 -73t-17.5 -91t17.5 -91t48.5 -73t73 -48.5t91 -17.5q51 0 89 15.5t64 34.5q30 22 52 50l90 -95q-31 -39 -74 -70q-37 -26 -92.5 -48
t-128.5 -22q-81 0 -150.5 29t-120.5 78.5t-80 116t-29 141.5t29 141.5t80 116t120.5 78.5t150.5 29zM435 935h140l-110 -150h-110z" />
    <glyph glyph-name="Ccaron" unicode="&#x10c;" horiz-adv-x="755" 
d="M430 715q73 0 127.5 -22t90.5 -48q42 -31 72 -70l-95 -95q-21 28 -49 50q-25 19 -61 34.5t-85 15.5t-91 -17.5t-73 -48.5t-48.5 -73t-17.5 -91t17.5 -91t48.5 -73t73 -48.5t91 -17.5q51 0 89 15.5t64 34.5q30 22 52 50l90 -95q-31 -39 -74 -70q-37 -26 -92.5 -48
t-128.5 -22q-81 0 -150.5 29t-120.5 78.5t-80 116t-29 141.5t29 141.5t80 116t120.5 78.5t150.5 29zM475 785h-120l-120 150h121l59 -80l60 80h120z" />
    <glyph glyph-name="Ccircumflex" unicode="&#x108;" horiz-adv-x="755" 
d="M430 715q73 0 127.5 -22t90.5 -48q42 -31 72 -70l-95 -95q-21 28 -49 50q-25 19 -61 34.5t-85 15.5t-91 -17.5t-73 -48.5t-48.5 -73t-17.5 -91t17.5 -91t48.5 -73t73 -48.5t91 -17.5q51 0 89 15.5t64 34.5q30 22 52 50l90 -95q-31 -39 -74 -70q-37 -26 -92.5 -48
t-128.5 -22q-81 0 -150.5 29t-120.5 78.5t-80 116t-29 141.5t29 141.5t80 116t120.5 78.5t150.5 29zM595 785h-120l-60 80l-60 -80h-120l120 150h120z" />
    <glyph glyph-name="Dcaron" unicode="&#x10e;" horiz-adv-x="760" 
d="M350 700q77 0 143 -27.5t114 -74.5t75.5 -111t27.5 -137t-27.5 -137t-75.5 -111t-114 -74.5t-143 -27.5h-260v700h260zM240 565v-430h110q43 0 81.5 16.5t67 46t45 68.5t16.5 84t-16 84t-44 68.5t-66.5 46t-83.5 16.5h-110zM437 785h-120l-120 150h121l59 -80l60 80h120z
" />
    <glyph glyph-name="Egrave" unicode="&#xc8;" horiz-adv-x="665" 
d="M615 135v-135h-525v700h515v-135h-365v-140h285v-135h-285v-155h375zM415 785h-110l-110 150h140z" />
    <glyph glyph-name="Eacute" unicode="&#xc9;" horiz-adv-x="665" 
d="M615 135v-135h-525v700h515v-135h-365v-140h285v-135h-285v-155h375zM375 935h140l-110 -150h-110z" />
    <glyph glyph-name="Ecaron" unicode="&#x11a;" horiz-adv-x="665" 
d="M615 135v-135h-525v700h515v-135h-365v-140h285v-135h-285v-155h375zM415 785h-120l-120 150h121l59 -80l60 80h120z" />
    <glyph glyph-name="Ecircumflex" unicode="&#xca;" horiz-adv-x="665" 
d="M615 135v-135h-525v700h515v-135h-365v-140h285v-135h-285v-155h375zM525 785h-120l-60 80l-60 -80h-120l120 150h120z" />
    <glyph glyph-name="Edieresis" unicode="&#xcb;" horiz-adv-x="665" 
d="M615 135v-135h-525v700h515v-135h-365v-140h285v-135h-285v-155h375zM170 855q0 30 22.5 52.5t52.5 22.5t52.5 -22.5t22.5 -52.5t-22.5 -52.5t-52.5 -22.5t-52.5 22.5t-22.5 52.5zM390 855q0 30 22.5 52.5t52.5 22.5t52.5 -22.5t22.5 -52.5t-22.5 -52.5t-52.5 -22.5
t-52.5 22.5t-22.5 52.5z" />
    <glyph glyph-name="Edotaccent" unicode="&#x116;" horiz-adv-x="665" 
d="M615 135v-135h-525v700h515v-135h-365v-140h285v-135h-285v-155h375zM440 860q0 -34 -21 -54.5t-59 -20.5q-34 0 -54.5 20.5t-20.5 54.5t20.5 54.5t54.5 20.5q38 0 59 -20.5t21 -54.5z" />
    <glyph glyph-name="Emacron" unicode="&#x112;" horiz-adv-x="665" 
d="M615 135v-135h-525v700h515v-135h-365v-140h285v-135h-285v-155h375zM515 815h-320v100h320v-100z" />
    <glyph glyph-name="Gcommaaccent" unicode="&#x122;" horiz-adv-x="810" 
d="M735 380v-260q-33 -38 -78 -68q-38 -26 -95 -46.5t-132 -20.5q-81 0 -150.5 29t-120.5 78.5t-80 116t-29 141.5t29 141.5t80 116t120.5 78.5t150.5 29q73 0 127.5 -22t90.5 -48q42 -31 72 -70l-95 -95q-21 28 -49 50q-25 19 -61 34.5t-85 15.5t-91 -17.5t-73 -48.5
t-48.5 -73t-17.5 -91t17.5 -91t48.5 -73t73 -48.5t91 -17.5q39 0 68 8t49 19q23 12 38 28v95h-125v110h275zM360 -80h125l-70 -150h-100z" />
    <glyph glyph-name="Gbreve" unicode="&#x11e;" horiz-adv-x="810" 
d="M735 380v-260q-33 -38 -78 -68q-38 -26 -95 -46.5t-132 -20.5q-81 0 -150.5 29t-120.5 78.5t-80 116t-29 141.5t29 141.5t80 116t120.5 78.5t150.5 29q73 0 127.5 -22t90.5 -48q42 -31 72 -70l-95 -95q-21 28 -49 50q-25 19 -61 34.5t-85 15.5t-91 -17.5t-73 -48.5
t-48.5 -73t-17.5 -91t17.5 -91t48.5 -73t73 -48.5t91 -17.5q39 0 68 8t49 19q23 12 38 28v95h-125v110h275zM420 875q26 0 43 17t17 43h100q0 -32 -11.5 -59.5t-32.5 -47.5t-50.5 -31.5t-65.5 -11.5t-65.5 11.5t-50.5 31.5t-32.5 47.5t-11.5 59.5h100q0 -26 17 -43t43 -17z
" />
    <glyph glyph-name="Kcommaaccent" unicode="&#x136;" horiz-adv-x="710" 
d="M240 395l275 305h175l-260 -290l280 -410h-175l-205 300l-90 -100v-200h-150v700h150v-305zM315 -80h125l-70 -150h-100z" />
    <glyph glyph-name="Lacute" unicode="&#x139;" horiz-adv-x="590" 
d="M90 0v700h150v-565h325v-135h-475zM195 935h140l-110 -150h-110z" />
    <glyph glyph-name="Lcaron" unicode="&#x13d;" horiz-adv-x="590" 
d="M90 0v700h150v-565h325v-135h-475zM335 701h125l-70 -150h-100z" />
    <glyph glyph-name="Lcommaaccent" unicode="&#x13b;" horiz-adv-x="590" 
d="M90 0v700h150v-565h325v-135h-475zM267 -80h125l-70 -150h-100z" />
    <glyph glyph-name="agrave.alt" horiz-adv-x="545" 
d="M470 -10q-38 0 -61.5 11.5t-36.5 25.5q-16 17 -22 38q-14 -21 -36 -38q-19 -14 -48 -25.5t-71 -11.5q-38 0 -68 11.5t-52 30.5t-33.5 44.5t-11.5 53.5q0 60 38.5 100t106.5 52l155 28q0 30 -21.5 50t-63.5 20q-29 0 -49 -8t-34 -17q-16 -11 -27 -25l-75 75q20 26 49 47
q24 18 60.5 33t85.5 15q47 0 85.5 -15t66.5 -41.5t43 -62t15 -76.5v-165q0 -15 10 -25t25 -10q6 0 14 2q4 1 6 3v-110q-6 -3 -14 -5q-15 -5 -36 -5zM230 100q45 0 72.5 28.5t27.5 81.5v15l-110 -20q-55 -9 -55 -55q0 -23 15.5 -36.5t49.5 -13.5zM340 555h-110l-110 150h140z
" />
    <glyph glyph-name="aacute.alt" horiz-adv-x="545" 
d="M470 -10q-38 0 -61.5 11.5t-36.5 25.5q-16 17 -22 38q-14 -21 -36 -38q-19 -14 -48 -25.5t-71 -11.5q-38 0 -68 11.5t-52 30.5t-33.5 44.5t-11.5 53.5q0 60 38.5 100t106.5 52l155 28q0 30 -21.5 50t-63.5 20q-29 0 -49 -8t-34 -17q-16 -11 -27 -25l-75 75q20 26 49 47
q24 18 60.5 33t85.5 15q47 0 85.5 -15t66.5 -41.5t43 -62t15 -76.5v-165q0 -15 10 -25t25 -10q6 0 14 2q4 1 6 3v-110q-6 -3 -14 -5q-15 -5 -36 -5zM230 100q45 0 72.5 28.5t27.5 81.5v15l-110 -20q-55 -9 -55 -55q0 -23 15.5 -36.5t49.5 -13.5zM300 705h140l-110 -150h-110
z" />
    <glyph glyph-name="abreve.alt" horiz-adv-x="545" 
d="M470 -10q-38 0 -61.5 11.5t-36.5 25.5q-16 17 -22 38q-14 -21 -36 -38q-19 -14 -48 -25.5t-71 -11.5q-38 0 -68 11.5t-52 30.5t-33.5 44.5t-11.5 53.5q0 60 38.5 100t106.5 52l155 28q0 30 -21.5 50t-63.5 20q-29 0 -49 -8t-34 -17q-16 -11 -27 -25l-75 75q20 26 49 47
q24 18 60.5 33t85.5 15q47 0 85.5 -15t66.5 -41.5t43 -62t15 -76.5v-165q0 -15 10 -25t25 -10q6 0 14 2q4 1 6 3v-110q-6 -3 -14 -5q-15 -5 -36 -5zM230 100q45 0 72.5 28.5t27.5 81.5v15l-110 -20q-55 -9 -55 -55q0 -23 15.5 -36.5t49.5 -13.5zM275 645q26 0 43 17t17 43
h100q0 -32 -11.5 -59.5t-32.5 -47.5t-50.5 -31.5t-65.5 -11.5t-65.5 11.5t-50.5 31.5t-32.5 47.5t-11.5 59.5h100q0 -26 17 -43t43 -17z" />
    <glyph glyph-name="acircumflex.alt" horiz-adv-x="545" 
d="M470 -10q-38 0 -61.5 11.5t-36.5 25.5q-16 17 -22 38q-14 -21 -36 -38q-19 -14 -48 -25.5t-71 -11.5q-38 0 -68 11.5t-52 30.5t-33.5 44.5t-11.5 53.5q0 60 38.5 100t106.5 52l155 28q0 30 -21.5 50t-63.5 20q-29 0 -49 -8t-34 -17q-16 -11 -27 -25l-75 75q20 26 49 47
q24 18 60.5 33t85.5 15q47 0 85.5 -15t66.5 -41.5t43 -62t15 -76.5v-165q0 -15 10 -25t25 -10q6 0 14 2q4 1 6 3v-110q-6 -3 -14 -5q-15 -5 -36 -5zM230 100q45 0 72.5 28.5t27.5 81.5v15l-110 -20q-55 -9 -55 -55q0 -23 15.5 -36.5t49.5 -13.5zM450 555h-120l-60 80
l-60 -80h-120l120 150h120z" />
    <glyph glyph-name="adieresis.alt" horiz-adv-x="545" 
d="M470 -10q-38 0 -61.5 11.5t-36.5 25.5q-16 17 -22 38q-14 -21 -36 -38q-19 -14 -48 -25.5t-71 -11.5q-38 0 -68 11.5t-52 30.5t-33.5 44.5t-11.5 53.5q0 60 38.5 100t106.5 52l155 28q0 30 -21.5 50t-63.5 20q-29 0 -49 -8t-34 -17q-16 -11 -27 -25l-75 75q20 26 49 47
q24 18 60.5 33t85.5 15q47 0 85.5 -15t66.5 -41.5t43 -62t15 -76.5v-165q0 -15 10 -25t25 -10q6 0 14 2q4 1 6 3v-110q-6 -3 -14 -5q-15 -5 -36 -5zM230 100q45 0 72.5 28.5t27.5 81.5v15l-110 -20q-55 -9 -55 -55q0 -23 15.5 -36.5t49.5 -13.5zM100 626q0 30 22.5 52.5
t52.5 22.5t52.5 -22.5t22.5 -52.5t-22.5 -52.5t-52.5 -22.5t-52.5 22.5t-22.5 52.5zM320 626q0 30 22.5 52.5t52.5 22.5t52.5 -22.5t22.5 -52.5t-22.5 -52.5t-52.5 -22.5t-52.5 22.5t-22.5 52.5z" />
    <glyph glyph-name="amacron.alt" horiz-adv-x="545" 
d="M470 -10q-38 0 -61.5 11.5t-36.5 25.5q-16 17 -22 38q-14 -21 -36 -38q-19 -14 -48 -25.5t-71 -11.5q-38 0 -68 11.5t-52 30.5t-33.5 44.5t-11.5 53.5q0 60 38.5 100t106.5 52l155 28q0 30 -21.5 50t-63.5 20q-29 0 -49 -8t-34 -17q-16 -11 -27 -25l-75 75q20 26 49 47
q24 18 60.5 33t85.5 15q47 0 85.5 -15t66.5 -41.5t43 -62t15 -76.5v-165q0 -15 10 -25t25 -10q6 0 14 2q4 1 6 3v-110q-6 -3 -14 -5q-15 -5 -36 -5zM230 100q45 0 72.5 28.5t27.5 81.5v15l-110 -20q-55 -9 -55 -55q0 -23 15.5 -36.5t49.5 -13.5zM435 596h-320v100h320v-100z
" />
    <glyph glyph-name="aogonek.alt" horiz-adv-x="545" 
d="M230 100q45 0 72.5 28.5t27.5 81.5v15l-110 -20q-55 -9 -55 -55q0 -23 15.5 -36.5t49.5 -13.5zM350 65q-14 -21 -36 -38q-19 -14 -48 -25.5t-71 -11.5q-38 0 -68 11.5t-52 30.5t-33.5 44.5t-11.5 53.5q0 60 38.5 100t106.5 52l155 28q0 30 -21.5 50t-63.5 20
q-29 0 -49 -8t-34 -17q-16 -11 -27 -25l-75 75q20 26 49 47q24 18 60.5 33t85.5 15q47 0 85.5 -15t66.5 -41.5t43 -62t15 -76.5v-165q0 -15 10 -25t25 -10q6 0 14 2q4 1 6 3v-110l-12 -4q-5 -2 -13 -3.5t-17 -2.5q-8 -12 -18 -36.5t-10 -53.5q0 -40 45 -40q21 0 36 5
q8 2 14 5v-75q-9 -4 -21 -8q-11 -3 -25.5 -5t-33.5 -2q-49 0 -79.5 29.5t-30.5 72.5q0 25 9 46.5t20 37.5q13 18 30 34q-20 7 -32.5 18t-19.5 22q-9 12 -12 25z" />
    <glyph glyph-name="aring.alt" horiz-adv-x="545" 
d="M245 645q0 -40 40 -40t40 40t-40 40t-40 -40zM400 645q0 -23 -9 -43t-24.5 -35t-36.5 -23.5t-45 -8.5t-45 8.5t-36.5 23.5t-24.5 35t-9 43q0 22 9 42t24.5 35t36.5 24t45 9t45 -9t36.5 -24t24.5 -35t9 -42zM470 -10q-38 0 -61.5 11.5t-36.5 25.5q-16 17 -22 38
q-14 -21 -36 -38q-19 -14 -48 -25.5t-71 -11.5q-38 0 -68 11.5t-52 30.5t-33.5 44.5t-11.5 53.5q0 60 38.5 100t106.5 52l155 28q0 30 -21.5 50t-63.5 20q-29 0 -49 -8t-34 -17q-16 -11 -27 -25l-75 75q20 26 49 47q24 18 60.5 33t85.5 15q47 0 85.5 -15t66.5 -41.5t43 -62
t15 -76.5v-165q0 -15 10 -25t25 -10q6 0 14 2q4 1 6 3v-110q-6 -3 -14 -5q-15 -5 -36 -5zM230 100q45 0 72.5 28.5t27.5 81.5v15l-110 -20q-55 -9 -55 -55q0 -23 15.5 -36.5t49.5 -13.5z" />
    <glyph glyph-name="atilde.alt" horiz-adv-x="545" 
d="M470 -10q-38 0 -61.5 11.5t-36.5 25.5q-16 17 -22 38q-14 -21 -36 -38q-19 -14 -48 -25.5t-71 -11.5q-38 0 -68 11.5t-52 30.5t-33.5 44.5t-11.5 53.5q0 60 38.5 100t106.5 52l155 28q0 30 -21.5 50t-63.5 20q-29 0 -49 -8t-34 -17q-16 -11 -27 -25l-75 75q20 26 49 47
q24 18 60.5 33t85.5 15q47 0 85.5 -15t66.5 -41.5t43 -62t15 -76.5v-165q0 -15 10 -25t25 -10q6 0 14 2q4 1 6 3v-110q-6 -3 -14 -5q-15 -5 -36 -5zM230 100q45 0 72.5 28.5t27.5 81.5v15l-110 -20q-55 -9 -55 -55q0 -23 15.5 -36.5t49.5 -13.5zM360 551q-26 0 -43.5 8
t-31 17t-26 17t-29.5 8q-15 0 -25 -12t-10 -38h-85q0 79 30 114.5t77 35.5q25 0 43 -8.5t31.5 -19t26 -19t27.5 -8.5t25 12.5t10 42.5h85q0 -79 -30 -114.5t-75 -35.5z" />
    <glyph glyph-name="cacute" unicode="&#x107;" horiz-adv-x="525" 
d="M30 245q0 51 21 97t57 81t84.5 56t102.5 21q51 0 88.5 -15.5t62.5 -34.5q29 -22 49 -50l-85 -85q-12 18 -29 32q-14 12 -36 22.5t-50 10.5q-26 0 -49.5 -10.5t-41.5 -29t-28.5 -43t-10.5 -52.5t10.5 -52.5t28.5 -43t41.5 -29t49.5 -10.5q28 0 50 10t38 22q18 14 32 33
l80 -85q-20 -28 -49 -50q-25 -19 -62.5 -34.5t-88.5 -15.5q-54 0 -102.5 21t-84.5 56t-57 81t-21 97zM305 705h140l-110 -150h-110z" />
    <glyph glyph-name="ccaron" unicode="&#x10d;" horiz-adv-x="525" 
d="M30 245q0 51 21 97t57 81t84.5 56t102.5 21q51 0 88.5 -15.5t62.5 -34.5q29 -22 49 -50l-85 -85q-12 18 -29 32q-14 12 -36 22.5t-50 10.5q-26 0 -49.5 -10.5t-41.5 -29t-28.5 -43t-10.5 -52.5t10.5 -52.5t28.5 -43t41.5 -29t49.5 -10.5q28 0 50 10t38 22q18 14 32 33
l80 -85q-20 -28 -49 -50q-25 -19 -62.5 -34.5t-88.5 -15.5q-54 0 -102.5 21t-84.5 56t-57 81t-21 97zM340 555h-120l-120 150h121l59 -80l60 80h120z" />
    <glyph glyph-name="ccircumflex" unicode="&#x109;" horiz-adv-x="525" 
d="M30 245q0 51 21 97t57 81t84.5 56t102.5 21q51 0 88.5 -15.5t62.5 -34.5q29 -22 49 -50l-85 -85q-12 18 -29 32q-14 12 -36 22.5t-50 10.5q-26 0 -49.5 -10.5t-41.5 -29t-28.5 -43t-10.5 -52.5t10.5 -52.5t28.5 -43t41.5 -29t49.5 -10.5q28 0 50 10t38 22q18 14 32 33
l80 -85q-20 -28 -49 -50q-25 -19 -62.5 -34.5t-88.5 -15.5q-54 0 -102.5 21t-84.5 56t-57 81t-21 97zM459 555h-120l-60 80l-60 -80h-120l120 150h120z" />
    <glyph glyph-name="dcaron" unicode="&#x10f;" horiz-adv-x="690" 
d="M265 500q35 0 62.5 -11t45.5 -24q21 -16 37 -35v270h135v-700h-135v60q-16 -20 -37 -35q-18 -14 -45.5 -24.5t-62.5 -10.5q-47 0 -89.5 19.5t-75 53.5t-51.5 81t-19 101t19 101t51.5 81t75 53.5t89.5 19.5zM290 110q24 0 46 10t38.5 27.5t26 42.5t9.5 55t-9.5 55
t-26 42.5t-38.5 27.5t-46 10t-46 -10t-38.5 -27.5t-26 -42.5t-9.5 -55t9.5 -55t26 -42.5t38.5 -27.5t46 -10zM625 700h125l-70 -150h-100z" />
    <glyph glyph-name="egrave" unicode="&#xe8;" horiz-adv-x="570" 
d="M170 200q8 -38 40.5 -66.5t89.5 -28.5q32 0 56 9.5t41 20.5q19 13 33 30l70 -90q-22 -25 -54 -43q-27 -16 -66 -29t-90 -13q-54 0 -101.5 20t-83 55t-55.5 81t-20 99q0 52 20 98.5t55 81.5t81 55t99 20q52 0 97 -18.5t78 -51.5t51.5 -78t18.5 -97q0 -14 -1 -24t-2 -17
q-1 -8 -2 -14h-355zM285 385q-45 0 -74.5 -26t-40.5 -64h225q-8 38 -36.5 64t-73.5 26zM350 555h-110l-110 150h140z" />
    <glyph glyph-name="eacute" unicode="&#xe9;" horiz-adv-x="570" 
d="M170 200q8 -38 40.5 -66.5t89.5 -28.5q32 0 56 9.5t41 20.5q19 13 33 30l70 -90q-22 -25 -54 -43q-27 -16 -66 -29t-90 -13q-54 0 -101.5 20t-83 55t-55.5 81t-20 99q0 52 20 98.5t55 81.5t81 55t99 20q52 0 97 -18.5t78 -51.5t51.5 -78t18.5 -97q0 -14 -1 -24t-2 -17
q-1 -8 -2 -14h-355zM285 385q-45 0 -74.5 -26t-40.5 -64h225q-8 38 -36.5 64t-73.5 26zM315 705h140l-110 -150h-110z" />
    <glyph glyph-name="ecaron" unicode="&#x11b;" horiz-adv-x="570" 
d="M170 200q8 -38 40.5 -66.5t89.5 -28.5q32 0 56 9.5t41 20.5q19 13 33 30l70 -90q-22 -25 -54 -43q-27 -16 -66 -29t-90 -13q-54 0 -101.5 20t-83 55t-55.5 81t-20 99q0 52 20 98.5t55 81.5t81 55t99 20q52 0 97 -18.5t78 -51.5t51.5 -78t18.5 -97q0 -14 -1 -24t-2 -17
q-1 -8 -2 -14h-355zM285 385q-45 0 -74.5 -26t-40.5 -64h225q-8 38 -36.5 64t-73.5 26zM345 555h-120l-120 150h121l59 -80l60 80h120z" />
    <glyph glyph-name="ecircumflex" unicode="&#xea;" horiz-adv-x="570" 
d="M170 200q8 -38 40.5 -66.5t89.5 -28.5q32 0 56 9.5t41 20.5q19 13 33 30l70 -90q-22 -25 -54 -43q-27 -16 -66 -29t-90 -13q-54 0 -101.5 20t-83 55t-55.5 81t-20 99q0 52 20 98.5t55 81.5t81 55t99 20q52 0 97 -18.5t78 -51.5t51.5 -78t18.5 -97q0 -14 -1 -24t-2 -17
q-1 -8 -2 -14h-355zM285 385q-45 0 -74.5 -26t-40.5 -64h225q-8 38 -36.5 64t-73.5 26zM464 555h-120l-60 80l-60 -80h-120l120 150h120z" />
    <glyph glyph-name="edieresis" unicode="&#xeb;" horiz-adv-x="570" 
d="M170 200q8 -38 40.5 -66.5t89.5 -28.5q32 0 56 9.5t41 20.5q19 13 33 30l70 -90q-22 -25 -54 -43q-27 -16 -66 -29t-90 -13q-54 0 -101.5 20t-83 55t-55.5 81t-20 99q0 52 20 98.5t55 81.5t81 55t99 20q52 0 97 -18.5t78 -51.5t51.5 -78t18.5 -97q0 -14 -1 -24t-2 -17
q-1 -8 -2 -14h-355zM285 385q-45 0 -74.5 -26t-40.5 -64h225q-8 38 -36.5 64t-73.5 26zM105 626q0 30 22.5 52.5t52.5 22.5t52.5 -22.5t22.5 -52.5t-22.5 -52.5t-52.5 -22.5t-52.5 22.5t-22.5 52.5zM325 626q0 30 22.5 52.5t52.5 22.5t52.5 -22.5t22.5 -52.5t-22.5 -52.5
t-52.5 -22.5t-52.5 22.5t-22.5 52.5z" />
    <glyph glyph-name="edotaccent" unicode="&#x117;" horiz-adv-x="570" 
d="M170 200q8 -38 40.5 -66.5t89.5 -28.5q32 0 56 9.5t41 20.5q19 13 33 30l70 -90q-22 -25 -54 -43q-27 -16 -66 -29t-90 -13q-54 0 -101.5 20t-83 55t-55.5 81t-20 99q0 52 20 98.5t55 81.5t81 55t99 20q52 0 97 -18.5t78 -51.5t51.5 -78t18.5 -97q0 -14 -1 -24t-2 -17
q-1 -8 -2 -14h-355zM285 385q-45 0 -74.5 -26t-40.5 -64h225q-8 38 -36.5 64t-73.5 26zM368 631q0 -34 -21 -54.5t-59 -20.5q-34 0 -54.5 20.5t-20.5 54.5t20.5 54.5t54.5 20.5q38 0 59 -20.5t21 -54.5z" />
    <glyph glyph-name="emacron" unicode="&#x113;" horiz-adv-x="570" 
d="M170 200q8 -38 40.5 -66.5t89.5 -28.5q32 0 56 9.5t41 20.5q19 13 33 30l70 -90q-22 -25 -54 -43q-27 -16 -66 -29t-90 -13q-54 0 -101.5 20t-83 55t-55.5 81t-20 99q0 52 20 98.5t55 81.5t81 55t99 20q52 0 97 -18.5t78 -51.5t51.5 -78t18.5 -97q0 -14 -1 -24t-2 -17
q-1 -8 -2 -14h-355zM285 385q-45 0 -74.5 -26t-40.5 -64h225q-8 38 -36.5 64t-73.5 26zM445 586h-320v100h320v-100z" />
    <glyph glyph-name="gbreve" unicode="&#x11f;" 
d="M395 80q-16 -20 -37 -35q-18 -14 -45.5 -24.5t-62.5 -10.5q-41 0 -80.5 19.5t-70.5 52.5t-50 77.5t-19 95.5t19 95.5t50 77.5t70.5 52.5t80.5 19.5q35 0 62.5 -11t45.5 -24q21 -16 37 -35v60h135v-450q0 -53 -19.5 -98.5t-54 -79t-82.5 -53t-104 -19.5q-57 0 -99 16
t-70 36q-33 23 -56 53l85 80q14 -19 34 -33q17 -12 42 -22t59 -10q60 0 95 35t35 95v40zM170 255q0 -26 8.5 -48t23.5 -38t35 -25t43 -9q22 0 43 9t37 25.5t25.5 38t9.5 47.5q0 25 -9.5 47t-25.5 38.5t-37 25.5t-43 9q-23 0 -43 -9t-35 -25t-23.5 -38t-8.5 -48zM297 647
q26 0 43 17t17 43h100q0 -32 -11.5 -59.5t-32.5 -47.5t-50.5 -31.5t-65.5 -11.5t-65.5 11.5t-50.5 31.5t-32.5 47.5t-11.5 59.5h100q0 -26 17 -43t43 -17z" />
    <glyph glyph-name="gcommaaccent" unicode="&#x123;" 
d="M395 80q-16 -20 -37 -35q-18 -14 -45.5 -24.5t-62.5 -10.5q-41 0 -80.5 19.5t-70.5 52.5t-50 77.5t-19 95.5t19 95.5t50 77.5t70.5 52.5t80.5 19.5q35 0 62.5 -11t45.5 -24q21 -16 37 -35v60h135v-450q0 -53 -19.5 -98.5t-54 -79t-82.5 -53t-104 -19.5q-57 0 -99 16
t-70 36q-33 23 -56 53l85 80q14 -19 34 -33q17 -12 42 -22t59 -10q60 0 95 35t35 95v40zM170 255q0 -26 8.5 -48t23.5 -38t35 -25t43 -9q22 0 43 9t37 25.5t25.5 38t9.5 47.5q0 25 -9.5 47t-25.5 38.5t-37 25.5t-43 9q-23 0 -43 -9t-35 -25t-23.5 -38t-8.5 -48zM345 555
h-125l70 150h100z" />
    <glyph glyph-name="kcommaaccent" unicode="&#x137;" horiz-adv-x="545" 
d="M200 120v-120h-135v700h135v-410l175 200h155l-185 -210l195 -280h-150l-130 190zM235 -80h125l-70 -150h-100z" />
    <glyph glyph-name="lacute.alt" horiz-adv-x="335" 
d="M160 935h140l-110 -150h-110zM200 171q0 -23 17 -39t43 -16q20 0 34 3l16 4v-121q-11 -3 -24 -6q-11 -2 -26.5 -4t-34.5 -2q-75 0 -117.5 43.5t-42.5 126.5v540h135v-529z" />
    <glyph glyph-name="lcaron.alt" horiz-adv-x="350" 
d="M200 171q0 -23 17 -39t43 -16q20 0 34 3l16 4v-121q-11 -3 -24 -6q-11 -2 -26.5 -4t-34.5 -2q-75 0 -117.5 43.5t-42.5 126.5v540h135v-529zM285 700h125l-70 -150h-100z" />
    <glyph glyph-name="lcommaaccent.alt" horiz-adv-x="335" 
d="M200 171q0 -23 17 -39t43 -16q20 0 34 3l16 4v-121q-11 -3 -24 -6q-11 -2 -26.5 -4t-34.5 -2q-75 0 -117.5 43.5t-42.5 126.5v540h135v-529zM120 -80h125l-70 -150h-100z" />
    <glyph glyph-name="Igrave.alt" horiz-adv-x="420" 
d="M40 700h340v-135h-95v-430h95v-135h-340v135h95v430h-95v135zM260 785h-110l-110 150h140z" />
    <glyph glyph-name="Iacute.alt" horiz-adv-x="420" 
d="M40 700h340v-135h-95v-430h95v-135h-340v135h95v430h-95v135zM230 935h140l-110 -150h-110z" />
    <glyph glyph-name="Icircumflex.alt" horiz-adv-x="420" 
d="M40 700h340v-135h-95v-430h95v-135h-340v135h95v430h-95v135zM388 785h-120l-60 80l-60 -80h-120l120 150h120z" />
    <glyph glyph-name="Idieresis.alt" horiz-adv-x="420" 
d="M40 700h340v-135h-95v-430h95v-135h-340v135h95v430h-95v135zM26 855q0 30 22.5 52.5t52.5 22.5t52.5 -22.5t22.5 -52.5t-22.5 -52.5t-52.5 -22.5t-52.5 22.5t-22.5 52.5zM246 855q0 30 22.5 52.5t52.5 22.5t52.5 -22.5t22.5 -52.5t-22.5 -52.5t-52.5 -22.5t-52.5 22.5
t-22.5 52.5z" />
    <glyph glyph-name="Idotaccent.alt" horiz-adv-x="420" 
d="M40 700h340v-135h-95v-430h95v-135h-340v135h95v430h-95v135zM285 860q0 -34 -21 -54.5t-59 -20.5q-34 0 -54.5 20.5t-20.5 54.5t20.5 54.5t54.5 20.5q38 0 59 -20.5t21 -54.5z" />
    <glyph glyph-name="Imacron.alt" horiz-adv-x="420" 
d="M40 700h340v-135h-95v-430h95v-135h-340v135h95v430h-95v135zM370 815h-320v100h320v-100z" />
    <glyph glyph-name="Iogonek.alt" horiz-adv-x="420" 
d="M40 0v135h95v430h-95v135h340v-135h-95v-430h95v-135q-10 -14 -18 -31q-7 -14 -12 -32t-5 -37q0 -40 45 -40q21 0 36 5q8 2 14 5v-75q-9 -4 -21 -8q-11 -3 -25.5 -5t-33.5 -2q-49 0 -79.5 29.5t-30.5 72.5q0 26 9.5 47t20.5 37q13 18 30 34h-270z" />
    <glyph glyph-name="Nacute" unicode="&#x143;" horiz-adv-x="805" 
d="M715 700v-700h-130l-345 445v-445h-150v700h130l345 -445v445h150zM430 935h140l-110 -150h-110z" />
    <glyph glyph-name="Ncaron" unicode="&#x147;" horiz-adv-x="805" 
d="M715 700v-700h-130l-345 445v-445h-150v700h130l345 -445v445h150zM460 785h-120l-120 150h121l59 -80l60 80h120z" />
    <glyph glyph-name="Ncommaaccent" unicode="&#x145;" horiz-adv-x="805" 
d="M715 700v-700h-130l-345 445v-445h-150v700h130l345 -445v445h150zM355 -80h125l-70 -150h-100z" />
    <glyph glyph-name="Ntilde" unicode="&#xd1;" horiz-adv-x="805" 
d="M715 700v-700h-130l-345 445v-445h-150v700h130l345 -445v445h150zM475 780q-26 0 -43.5 8t-31 17t-26 17t-29.5 8q-15 0 -25 -12t-10 -38h-85q0 79 30 114.5t77 35.5q25 0 43 -8.5t31.5 -19t26 -19t27.5 -8.5t25 12.5t10 42.5h85q0 -79 -30 -114.5t-75 -35.5z" />
    <glyph glyph-name="Ograve" unicode="&#xd2;" horiz-adv-x="860" 
d="M205 350q0 -49 17.5 -91t48 -73t71.5 -48.5t88 -17.5t88 17.5t71.5 48.5t48 73t17.5 91t-17.5 91t-48 73t-71.5 48.5t-88 17.5t-88 -17.5t-71.5 -48.5t-48 -73t-17.5 -91zM50 350q0 75 29 141.5t80 116t120.5 78.5t150.5 29t150.5 -29t120.5 -78.5t80 -116t29 -141.5
t-29 -141.5t-80 -116t-120.5 -78.5t-150.5 -29t-150.5 29t-120.5 78.5t-80 116t-29 141.5zM485 785h-110l-110 150h140z" />
    <glyph glyph-name="Oacute" unicode="&#xd3;" horiz-adv-x="860" 
d="M205 350q0 -49 17.5 -91t48 -73t71.5 -48.5t88 -17.5t88 17.5t71.5 48.5t48 73t17.5 91t-17.5 91t-48 73t-71.5 48.5t-88 17.5t-88 -17.5t-71.5 -48.5t-48 -73t-17.5 -91zM50 350q0 75 29 141.5t80 116t120.5 78.5t150.5 29t150.5 -29t120.5 -78.5t80 -116t29 -141.5
t-29 -141.5t-80 -116t-120.5 -78.5t-150.5 -29t-150.5 29t-120.5 78.5t-80 116t-29 141.5zM460 935h140l-110 -150h-110z" />
    <glyph glyph-name="Ocircumflex" unicode="&#xd4;" horiz-adv-x="860" 
d="M205 350q0 -49 17.5 -91t48 -73t71.5 -48.5t88 -17.5t88 17.5t71.5 48.5t48 73t17.5 91t-17.5 91t-48 73t-71.5 48.5t-88 17.5t-88 -17.5t-71.5 -48.5t-48 -73t-17.5 -91zM50 350q0 75 29 141.5t80 116t120.5 78.5t150.5 29t150.5 -29t120.5 -78.5t80 -116t29 -141.5
t-29 -141.5t-80 -116t-120.5 -78.5t-150.5 -29t-150.5 29t-120.5 78.5t-80 116t-29 141.5zM605 785h-120l-60 80l-60 -80h-120l120 150h120z" />
    <glyph glyph-name="Odieresis" unicode="&#xd6;" horiz-adv-x="860" 
d="M205 350q0 -49 17.5 -91t48 -73t71.5 -48.5t88 -17.5t88 17.5t71.5 48.5t48 73t17.5 91t-17.5 91t-48 73t-71.5 48.5t-88 17.5t-88 -17.5t-71.5 -48.5t-48 -73t-17.5 -91zM50 350q0 75 29 141.5t80 116t120.5 78.5t150.5 29t150.5 -29t120.5 -78.5t80 -116t29 -141.5
t-29 -141.5t-80 -116t-120.5 -78.5t-150.5 -29t-150.5 29t-120.5 78.5t-80 116t-29 141.5zM245 855q0 30 22.5 52.5t52.5 22.5t52.5 -22.5t22.5 -52.5t-22.5 -52.5t-52.5 -22.5t-52.5 22.5t-22.5 52.5zM465 855q0 30 22.5 52.5t52.5 22.5t52.5 -22.5t22.5 -52.5t-22.5 -52.5
t-52.5 -22.5t-52.5 22.5t-22.5 52.5z" />
    <glyph glyph-name="Ohungarumlaut" unicode="&#x150;" horiz-adv-x="860" 
d="M205 350q0 -49 17.5 -91t48 -73t71.5 -48.5t88 -17.5t88 17.5t71.5 48.5t48 73t17.5 91t-17.5 91t-48 73t-71.5 48.5t-88 17.5t-88 -17.5t-71.5 -48.5t-48 -73t-17.5 -91zM50 350q0 75 29 141.5t80 116t120.5 78.5t150.5 29t150.5 -29t120.5 -78.5t80 -116t29 -141.5
t-29 -141.5t-80 -116t-120.5 -78.5t-150.5 -29t-150.5 29t-120.5 78.5t-80 116t-29 141.5zM365 935h135l-115 -150h-100zM555 935h135l-115 -150h-100z" />
    <glyph glyph-name="Omacron" unicode="&#x14c;" horiz-adv-x="860" 
d="M205 350q0 -49 17.5 -91t48 -73t71.5 -48.5t88 -17.5t88 17.5t71.5 48.5t48 73t17.5 91t-17.5 91t-48 73t-71.5 48.5t-88 17.5t-88 -17.5t-71.5 -48.5t-48 -73t-17.5 -91zM50 350q0 75 29 141.5t80 116t120.5 78.5t150.5 29t150.5 -29t120.5 -78.5t80 -116t29 -141.5
t-29 -141.5t-80 -116t-120.5 -78.5t-150.5 -29t-150.5 29t-120.5 78.5t-80 116t-29 141.5zM590 815h-320v100h320v-100z" />
    <glyph glyph-name="Otilde" unicode="&#xd5;" horiz-adv-x="860" 
d="M205 350q0 -49 17.5 -91t48 -73t71.5 -48.5t88 -17.5t88 17.5t71.5 48.5t48 73t17.5 91t-17.5 91t-48 73t-71.5 48.5t-88 17.5t-88 -17.5t-71.5 -48.5t-48 -73t-17.5 -91zM50 350q0 75 29 141.5t80 116t120.5 78.5t150.5 29t150.5 -29t120.5 -78.5t80 -116t29 -141.5
t-29 -141.5t-80 -116t-120.5 -78.5t-150.5 -29t-150.5 29t-120.5 78.5t-80 116t-29 141.5zM505 780q-26 0 -43.5 8t-31 17t-26 17t-29.5 8q-15 0 -25 -12t-10 -38h-85q0 79 30 114.5t77 35.5q25 0 43 -8.5t31.5 -19t26 -19t27.5 -8.5t25 12.5t10 42.5h85q0 -79 -30 -114.5
t-75 -35.5z" />
    <glyph glyph-name="Racute" unicode="&#x154;" horiz-adv-x="710" 
d="M90 700h310q52 0 96.5 -18t76 -49t49.5 -73t18 -90q0 -57 -20 -96t-43 -63q-27 -29 -62 -46l150 -265h-160l-135 245h-130v-245h-150v700zM490 470q0 42 -26.5 68.5t-68.5 26.5h-155v-185h155q42 0 68.5 26t26.5 64zM375 935h140l-110 -150h-110z" />
    <glyph glyph-name="Rcaron" unicode="&#x158;" horiz-adv-x="710" 
d="M90 700h310q52 0 96.5 -18t76 -49t49.5 -73t18 -90q0 -57 -20 -96t-43 -63q-27 -29 -62 -46l150 -265h-160l-135 245h-130v-245h-150v700zM490 470q0 42 -26.5 68.5t-68.5 26.5h-155v-185h155q42 0 68.5 26t26.5 64zM410 785h-120l-120 150h121l59 -80l60 80h120z" />
    <glyph glyph-name="Sacute" unicode="&#x15a;" 
d="M395 205q0 32 -25.5 50t-64 31t-83 26.5t-83 36.5t-64 60.5t-25.5 100.5q0 41 17 78.5t49 65.5t77.5 44.5t101.5 16.5q58 0 101 -15t72 -33q33 -21 57 -47l-90 -95q-16 17 -35 30q-17 11 -41 20.5t-54 9.5q-45 0 -70 -22.5t-25 -52.5q0 -33 25.5 -50.5t64 -30.5t83 -26.5
t83 -36.5t64 -61t25.5 -100q0 -47 -17.5 -87t-51.5 -69.5t-83 -46.5t-113 -17q-66 0 -115.5 17.5t-82.5 39.5q-39 26 -67 58l90 90q18 -21 43 -38q21 -14 51.5 -25.5t70.5 -11.5q57 0 86 26t29 64zM315 935h140l-110 -150h-110z" />
    <glyph glyph-name="Rcommaaccent" unicode="&#x156;" horiz-adv-x="710" 
d="M90 700h310q52 0 96.5 -18t76 -49t49.5 -73t18 -90q0 -57 -20 -96t-43 -63q-27 -29 -62 -46l150 -265h-160l-135 245h-130v-245h-150v700zM490 470q0 42 -26.5 68.5t-68.5 26.5h-155v-185h155q42 0 68.5 26t26.5 64zM300 -80h125l-70 -150h-100z" />
    <glyph glyph-name="Scaron" unicode="&#x160;" 
d="M395 205q0 32 -25.5 50t-64 31t-83 26.5t-83 36.5t-64 60.5t-25.5 100.5q0 41 17 78.5t49 65.5t77.5 44.5t101.5 16.5q58 0 101 -15t72 -33q33 -21 57 -47l-90 -95q-16 17 -35 30q-17 11 -41 20.5t-54 9.5q-45 0 -70 -22.5t-25 -52.5q0 -33 25.5 -50.5t64 -30.5t83 -26.5
t83 -36.5t64 -61t25.5 -100q0 -47 -17.5 -87t-51.5 -69.5t-83 -46.5t-113 -17q-66 0 -115.5 17.5t-82.5 39.5q-39 26 -67 58l90 90q18 -21 43 -38q21 -14 51.5 -25.5t70.5 -11.5q57 0 86 26t29 64zM355 785h-120l-120 150h121l59 -80l60 80h120z" />
    <glyph glyph-name="Scommaaccent" unicode="&#x218;" 
d="M395 205q0 32 -25.5 50t-64 31t-83 26.5t-83 36.5t-64 60.5t-25.5 100.5q0 41 17 78.5t49 65.5t77.5 44.5t101.5 16.5q58 0 101 -15t72 -33q33 -21 57 -47l-90 -95q-16 17 -35 30q-17 11 -41 20.5t-54 9.5q-45 0 -70 -22.5t-25 -52.5q0 -33 25.5 -50.5t64 -30.5t83 -26.5
t83 -36.5t64 -61t25.5 -100q0 -47 -17.5 -87t-51.5 -69.5t-83 -46.5t-113 -17q-66 0 -115.5 17.5t-82.5 39.5q-39 26 -67 58l90 90q18 -21 43 -38q21 -14 51.5 -25.5t70.5 -11.5q57 0 86 26t29 64zM235 -80h125l-70 -150h-100z" />
    <glyph glyph-name="Tcaron" unicode="&#x164;" horiz-adv-x="590" 
d="M570 700v-135h-200v-565h-150v565h-200v135h550zM355 785h-120l-120 150h121l59 -80l60 80h120z" />
    <glyph glyph-name="Tcommaaccent" unicode="&#x162;" horiz-adv-x="590" 
d="M570 700v-135h-200v-565h-150v565h-200v135h550zM230 -80h125l-70 -150h-100z" />
    <glyph glyph-name="Yacute" unicode="&#xdd;" horiz-adv-x="670" 
d="M335 400l165 300h160l-250 -450v-250h-150v250l-250 450h160zM365 935h140l-110 -150h-110z" />
    <glyph glyph-name="Ydieresis" unicode="&#x178;" horiz-adv-x="670" 
d="M335 400l165 300h160l-250 -450v-250h-150v250l-250 450h160zM155 855q0 30 22.5 52.5t52.5 22.5t52.5 -22.5t22.5 -52.5t-22.5 -52.5t-52.5 -22.5t-52.5 22.5t-22.5 52.5zM375 855q0 30 22.5 52.5t52.5 22.5t52.5 -22.5t22.5 -52.5t-22.5 -52.5t-52.5 -22.5t-52.5 22.5
t-22.5 52.5z" />
    <glyph glyph-name="igrave" unicode="&#xec;" horiz-adv-x="275" 
d="M186 555h-110l-110 150h140zM195 0h-135v490h135v-490z" />
    <glyph glyph-name="iacute" unicode="&#xed;" horiz-adv-x="275" 
d="M150 705h140l-110 -150h-110zM195 0h-135v490h135v-490z" />
    <glyph glyph-name="icircumflex" unicode="&#xee;" horiz-adv-x="275" 
d="M195 0h-135v490h135v-490zM306 555h-120l-60 80l-60 -80h-120l120 150h120z" />
    <glyph glyph-name="idieresis" unicode="&#xef;" horiz-adv-x="275" 
d="M-52 626q0 30 22.5 52.5t52.5 22.5t52.5 -22.5t22.5 -52.5t-22.5 -52.5t-52.5 -22.5t-52.5 22.5t-22.5 52.5zM168 626q0 30 22.5 52.5t52.5 22.5t52.5 -22.5t22.5 -52.5t-22.5 -52.5t-52.5 -22.5t-52.5 22.5t-22.5 52.5zM195 0h-135v490h135v-490z" />
    <glyph glyph-name="imacron" unicode="&#x12b;" horiz-adv-x="275" 
d="M291 586h-320v100h320v-100zM195 0h-135v490h135v-490z" />
    <glyph glyph-name="nacute" unicode="&#x144;" horiz-adv-x="595" 
d="M195 430q15 19 36 35q18 13 44 24t60 11q41 0 76 -14.5t60.5 -42.5t39.5 -67.5t14 -90.5v-285h-135v270q0 45 -26.5 72.5t-68.5 27.5q-45 0 -72.5 -29t-27.5 -86v-255h-135v490h135v-60zM325 705h140l-110 -150h-110z" />
    <glyph glyph-name="ncaron" unicode="&#x148;" horiz-adv-x="595" 
d="M195 430q15 19 36 35q18 13 44 24t60 11q41 0 76 -14.5t60.5 -42.5t39.5 -67.5t14 -90.5v-285h-135v270q0 45 -26.5 72.5t-68.5 27.5q-45 0 -72.5 -29t-27.5 -86v-255h-135v490h135v-60zM355 555h-120l-120 150h121l59 -80l60 80h120z" />
    <glyph glyph-name="ncommaaccent" unicode="&#x146;" horiz-adv-x="595" 
d="M195 430q15 19 36 35q18 13 44 24t60 11q41 0 76 -14.5t60.5 -42.5t39.5 -67.5t14 -90.5v-285h-135v270q0 45 -26.5 72.5t-68.5 27.5q-45 0 -72.5 -29t-27.5 -86v-255h-135v490h135v-60zM230 -80h125l-70 -150h-100z" />
    <glyph glyph-name="ntilde" unicode="&#xf1;" horiz-adv-x="595" 
d="M195 430q15 19 36 35q18 13 44 24t60 11q41 0 76 -14.5t60.5 -42.5t39.5 -67.5t14 -90.5v-285h-135v270q0 45 -26.5 72.5t-68.5 27.5q-45 0 -72.5 -29t-27.5 -86v-255h-135v490h135v-60zM370 556q-26 0 -43.5 8t-31 17t-26 17t-29.5 8q-15 0 -25 -12t-10 -38h-85
q0 79 30 114.5t77 35.5q25 0 43 -8.5t31.5 -19t26 -19t27.5 -8.5t25 12.5t10 42.5h85q0 -79 -30 -114.5t-75 -35.5z" />
    <glyph glyph-name="ograve" unicode="&#xf2;" horiz-adv-x="590" 
d="M170 245q0 -28 9.5 -52t26 -41t38.5 -27t46 -10t46 10t38.5 27t26 41t9.5 52t-9.5 52t-26 41t-38.5 27t-46 10t-46 -10t-38.5 -27t-26 -41t-9.5 -52zM550 245q0 -51 -21 -97t-56.5 -81t-83 -56t-99.5 -21q-53 0 -100 21t-82.5 56t-56.5 81t-21 97t21 97t56.5 81t82.5 56
t100 21q52 0 99.5 -21t83 -56t56.5 -81t21 -97zM345 555h-110l-110 150h140z" />
    <glyph glyph-name="oacute" unicode="&#xf3;" horiz-adv-x="590" 
d="M170 245q0 -28 9.5 -52t26 -41t38.5 -27t46 -10t46 10t38.5 27t26 41t9.5 52t-9.5 52t-26 41t-38.5 27t-46 10t-46 -10t-38.5 -27t-26 -41t-9.5 -52zM550 245q0 -51 -21 -97t-56.5 -81t-83 -56t-99.5 -21q-53 0 -100 21t-82.5 56t-56.5 81t-21 97t21 97t56.5 81t82.5 56
t100 21q52 0 99.5 -21t83 -56t56.5 -81t21 -97zM315 705h140l-110 -150h-110z" />
    <glyph glyph-name="ocircumflex" unicode="&#xf4;" horiz-adv-x="590" 
d="M170 245q0 -28 9.5 -52t26 -41t38.5 -27t46 -10t46 10t38.5 27t26 41t9.5 52t-9.5 52t-26 41t-38.5 27t-46 10t-46 -10t-38.5 -27t-26 -41t-9.5 -52zM550 245q0 -51 -21 -97t-56.5 -81t-83 -56t-99.5 -21q-53 0 -100 21t-82.5 56t-56.5 81t-21 97t21 97t56.5 81t82.5 56
t100 21q52 0 99.5 -21t83 -56t56.5 -81t21 -97zM470 555h-120l-60 80l-60 -80h-120l120 150h120z" />
    <glyph glyph-name="ohungarumlaut" unicode="&#x151;" horiz-adv-x="592" 
d="M170 245q0 -28 9.5 -52t26 -41t38.5 -27t46 -10t46 10t38.5 27t26 41t9.5 52t-9.5 52t-26 41t-38.5 27t-46 10t-46 -10t-38.5 -27t-26 -41t-9.5 -52zM550 245q0 -51 -21 -97t-56.5 -81t-83 -56t-99.5 -21q-53 0 -100 21t-82.5 56t-56.5 81t-21 97t21 97t56.5 81t82.5 56
t100 21q52 0 99.5 -21t83 -56t56.5 -81t21 -97zM225 705h135l-115 -150h-100zM415 705h135l-115 -150h-100z" />
    <glyph glyph-name="odieresis" unicode="&#xf6;" horiz-adv-x="590" 
d="M170 245q0 -28 9.5 -52t26 -41t38.5 -27t46 -10t46 10t38.5 27t26 41t9.5 52t-9.5 52t-26 41t-38.5 27t-46 10t-46 -10t-38.5 -27t-26 -41t-9.5 -52zM550 245q0 -51 -21 -97t-56.5 -81t-83 -56t-99.5 -21q-53 0 -100 21t-82.5 56t-56.5 81t-21 97t21 97t56.5 81t82.5 56
t100 21q52 0 99.5 -21t83 -56t56.5 -81t21 -97zM110 631q0 30 22.5 52.5t52.5 22.5t52.5 -22.5t22.5 -52.5t-22.5 -52.5t-52.5 -22.5t-52.5 22.5t-22.5 52.5zM330 631q0 30 22.5 52.5t52.5 22.5t52.5 -22.5t22.5 -52.5t-22.5 -52.5t-52.5 -22.5t-52.5 22.5t-22.5 52.5z" />
    <glyph glyph-name="omacron" unicode="&#x14d;" horiz-adv-x="590" 
d="M170 245q0 -28 9.5 -52t26 -41t38.5 -27t46 -10t46 10t38.5 27t26 41t9.5 52t-9.5 52t-26 41t-38.5 27t-46 10t-46 -10t-38.5 -27t-26 -41t-9.5 -52zM550 245q0 -51 -21 -97t-56.5 -81t-83 -56t-99.5 -21q-53 0 -100 21t-82.5 56t-56.5 81t-21 97t21 97t56.5 81t82.5 56
t100 21q52 0 99.5 -21t83 -56t56.5 -81t21 -97zM450 586h-320v100h320v-100z" />
    <glyph glyph-name="otilde" unicode="&#xf5;" horiz-adv-x="590" 
d="M170 245q0 -28 9.5 -52t26 -41t38.5 -27t46 -10t46 10t38.5 27t26 41t9.5 52t-9.5 52t-26 41t-38.5 27t-46 10t-46 -10t-38.5 -27t-26 -41t-9.5 -52zM550 245q0 -51 -21 -97t-56.5 -81t-83 -56t-99.5 -21q-53 0 -100 21t-82.5 56t-56.5 81t-21 97t21 97t56.5 81t82.5 56
t100 21q52 0 99.5 -21t83 -56t56.5 -81t21 -97zM365 556q-26 0 -43.5 8t-31 17t-26 17t-29.5 8q-15 0 -25 -12t-10 -38h-85q0 79 30 114.5t77 35.5q25 0 43 -8.5t31.5 -19t26 -19t27.5 -8.5t25 12.5t10 42.5h85q0 -79 -30 -114.5t-75 -35.5z" />
    <glyph glyph-name="racute" unicode="&#x155;" horiz-adv-x="370" 
d="M355 360q-5 1 -11 2t-14.5 2t-19.5 1q-53 0 -84 -33t-31 -97v-235h-135v490h135v-60q15 18 36 32q18 12 44 22.5t60 10.5h20v-135zM230 705h140l-110 -150h-110z" />
    <glyph glyph-name="rcaron" unicode="&#x159;" horiz-adv-x="370" 
d="M355 360q-5 1 -11 2t-14.5 2t-19.5 1q-53 0 -84 -33t-31 -97v-235h-135v490h135v-60q15 18 36 32q18 12 44 22.5t60 10.5h20v-135zM261 555h-120l-120 150h121l59 -80l60 80h120z" />
    <glyph glyph-name="rcommaaccent" unicode="&#x157;" horiz-adv-x="370" 
d="M355 360q-5 1 -11 2t-14.5 2t-19.5 1q-53 0 -84 -33t-31 -97v-235h-135v490h135v-60q15 18 36 32q18 12 44 22.5t60 10.5h20v-135zM66 -80h125l-70 -150h-100z" />
    <glyph glyph-name="sacute" unicode="&#x15b;" horiz-adv-x="455" 
d="M330 345q-9 11 -21 20q-11 8 -25.5 14t-33.5 6q-30 0 -45 -12.5t-15 -27.5q0 -17 16.5 -27.5t41.5 -19t54.5 -18t54.5 -26t41.5 -42.5t16.5 -67q0 -32 -13 -60t-37.5 -49t-61 -33.5t-83.5 -12.5q-53 0 -91 14t-62 31q-29 19 -47 45l75 75q12 -16 28 -28q14 -11 33 -19
t44 -8q34 0 49.5 13t15.5 32t-16.5 29.5t-41.5 19.5t-54.5 18.5t-54.5 25.5t-41.5 41t-16.5 66q0 28 14 56t39.5 50t60.5 35.5t76 13.5q43 0 75 -12t53 -26q25 -17 42 -37zM245 705h140l-110 -150h-110z" />
    <glyph glyph-name="scaron" unicode="&#x161;" horiz-adv-x="455" 
d="M330 345q-9 11 -21 20q-11 8 -25.5 14t-33.5 6q-30 0 -45 -12.5t-15 -27.5q0 -17 16.5 -27.5t41.5 -19t54.5 -18t54.5 -26t41.5 -42.5t16.5 -67q0 -32 -13 -60t-37.5 -49t-61 -33.5t-83.5 -12.5q-53 0 -91 14t-62 31q-29 19 -47 45l75 75q12 -16 28 -28q14 -11 33 -19
t44 -8q34 0 49.5 13t15.5 32t-16.5 29.5t-41.5 19.5t-54.5 18.5t-54.5 25.5t-41.5 41t-16.5 66q0 28 14 56t39.5 50t60.5 35.5t76 13.5q43 0 75 -12t53 -26q25 -17 42 -37zM285 555h-120l-120 150h121l59 -80l60 80h120z" />
    <glyph glyph-name="scommaaccent" unicode="&#x219;" horiz-adv-x="455" 
d="M330 345q-9 11 -21 20q-11 8 -25.5 14t-33.5 6q-30 0 -45 -12.5t-15 -27.5q0 -17 16.5 -27.5t41.5 -19t54.5 -18t54.5 -26t41.5 -42.5t16.5 -67q0 -32 -13 -60t-37.5 -49t-61 -33.5t-83.5 -12.5q-53 0 -91 14t-62 31q-29 19 -47 45l75 75q12 -16 28 -28q14 -11 33 -19
t44 -8q34 0 49.5 13t15.5 32t-16.5 29.5t-41.5 19.5t-54.5 18.5t-54.5 25.5t-41.5 41t-16.5 66q0 28 14 56t39.5 50t60.5 35.5t76 13.5q43 0 75 -12t53 -26q25 -17 42 -37zM165 -80h125l-70 -150h-100z" />
    <glyph glyph-name="tcaron" unicode="&#x165;" horiz-adv-x="425" 
d="M120 635h120v-155h100v-120h-100v-195q0 -23 17 -39t43 -16q21 0 36 5q8 2 14 5v-115q-12 -4 -26 -8q-12 -3 -28.5 -5t-35.5 -2q-75 0 -115 41.5t-40 128.5v200h-85v120h45q23 0 39 17.5t16 47.5v90zM360 701h125l-70 -150h-100z" />
    <glyph glyph-name="tcommaaccent" unicode="&#x163;" horiz-adv-x="405" 
d="M120 635h120v-155h100v-120h-100v-195q0 -23 17 -39t43 -16q21 0 36 5q8 2 14 5v-115q-12 -4 -26 -8q-12 -3 -28.5 -5t-35.5 -2q-75 0 -115 41.5t-40 128.5v200h-85v120h45q23 0 39 17.5t16 47.5v90zM170 -80h125l-70 -150h-100z" />
    <glyph glyph-name="yacute.alt" 
d="M320 705h140l-110 -150h-110zM530 490v-460q0 -51 -18.5 -94.5t-52 -76t-79.5 -51t-100 -18.5q-57 0 -98 15.5t-68 34.5q-32 22 -54 50l75 80q15 -19 36 -33q18 -12 44 -22t60 -10q53 0 86.5 34t33.5 91v45q-16 -17 -37 -30q-18 -11 -45.5 -20.5t-62.5 -9.5
q-39 0 -73 14.5t-59 41t-39 64.5t-14 85v270h135v-255q0 -42 26 -68.5t64 -26.5q45 0 75 31t30 84v235h135z" />
    <glyph glyph-name="ydieresis.alt" 
d="M530 490v-460q0 -51 -18.5 -94.5t-52 -76t-79.5 -51t-100 -18.5q-57 0 -98 15.5t-68 34.5q-32 22 -54 50l75 80q15 -19 36 -33q18 -12 44 -22t60 -10q53 0 86.5 34t33.5 91v45q-16 -17 -37 -30q-18 -11 -45.5 -20.5t-62.5 -9.5q-39 0 -73 14.5t-59 41t-39 64.5t-14 85
v270h135v-255q0 -42 26 -68.5t64 -26.5q45 0 75 31t30 84v235h135zM115 626q0 30 22.5 52.5t52.5 22.5t52.5 -22.5t22.5 -52.5t-22.5 -52.5t-52.5 -22.5t-52.5 22.5t-22.5 52.5zM335 626q0 30 22.5 52.5t52.5 22.5t52.5 -22.5t22.5 -52.5t-22.5 -52.5t-52.5 -22.5
t-52.5 22.5t-22.5 52.5z" />
    <glyph glyph-name="Ugrave" unicode="&#xd9;" horiz-adv-x="780" 
d="M390 120q32 0 60 12.5t49 34.5t33.5 52t12.5 66v415h150v-415q0 -64 -23 -118.5t-64 -95t-96.5 -63.5t-121.5 -23t-121.5 23t-96.5 63.5t-64 95t-23 118.5v415h150v-415q0 -36 12.5 -66t33.5 -52t49 -34.5t60 -12.5zM460 785h-110l-110 150h140z" />
    <glyph glyph-name="ugrave.alt" 
d="M345 555h-110l-110 150h140zM60 490h135v-275q0 -45 26 -72.5t64 -27.5q42 0 68.5 29t26.5 86v260h135v-345q0 -15 10 -25t25 -10q6 0 14 2q4 1 6 3v-115q-6 -3 -14 -5q-15 -5 -36 -5q-38 0 -61.5 11.5t-36.5 25.5q-16 17 -22 38q-14 -21 -36 -38q-19 -14 -48 -25.5
t-71 -11.5q-39 0 -73 14.5t-59 41.5t-39 66t-14 88v290z" />
    <glyph glyph-name="uacute.alt" 
d="M310 705h140l-110 -150h-110zM60 490h135v-275q0 -45 26 -72.5t64 -27.5q42 0 68.5 29t26.5 86v260h135v-345q0 -15 10 -25t25 -10q6 0 14 2q4 1 6 3v-115q-6 -3 -14 -5q-15 -5 -36 -5q-38 0 -61.5 11.5t-36.5 25.5q-16 17 -22 38q-14 -21 -36 -38q-19 -14 -48 -25.5
t-71 -11.5q-39 0 -73 14.5t-59 41.5t-39 66t-14 88v290z" />
    <glyph glyph-name="Uacute" unicode="&#xda;" horiz-adv-x="780" 
d="M390 120q32 0 60 12.5t49 34.5t33.5 52t12.5 66v415h150v-415q0 -64 -23 -118.5t-64 -95t-96.5 -63.5t-121.5 -23t-121.5 23t-96.5 63.5t-64 95t-23 118.5v415h150v-415q0 -36 12.5 -66t33.5 -52t49 -34.5t60 -12.5zM415 935h140l-110 -150h-110z" />
    <glyph glyph-name="Ucircumflex" unicode="&#xdb;" horiz-adv-x="780" 
d="M390 120q32 0 60 12.5t49 34.5t33.5 52t12.5 66v415h150v-415q0 -64 -23 -118.5t-64 -95t-96.5 -63.5t-121.5 -23t-121.5 23t-96.5 63.5t-64 95t-23 118.5v415h150v-415q0 -36 12.5 -66t33.5 -52t49 -34.5t60 -12.5zM570 785h-120l-60 80l-60 -80h-120l120 150h120z" />
    <glyph glyph-name="ucircumflex.alt" 
d="M60 490h135v-275q0 -45 26 -72.5t64 -27.5q42 0 68.5 29t26.5 86v260h135v-345q0 -15 10 -25t25 -10q6 0 14 2q4 1 6 3v-115q-6 -3 -14 -5q-15 -5 -36 -5q-38 0 -61.5 11.5t-36.5 25.5q-16 17 -22 38q-14 -21 -36 -38q-19 -14 -48 -25.5t-71 -11.5q-39 0 -73 14.5
t-59 41.5t-39 66t-14 88v290zM465 555h-120l-60 80l-60 -80h-120l120 150h120z" />
    <glyph glyph-name="udieresis.alt" 
d="M60 490h135v-275q0 -45 26 -72.5t64 -27.5q42 0 68.5 29t26.5 86v260h135v-345q0 -15 10 -25t25 -10q6 0 14 2q4 1 6 3v-115q-6 -3 -14 -5q-15 -5 -36 -5q-38 0 -61.5 11.5t-36.5 25.5q-16 17 -22 38q-14 -21 -36 -38q-19 -14 -48 -25.5t-71 -11.5q-39 0 -73 14.5
t-59 41.5t-39 66t-14 88v290zM105 626q0 30 22.5 52.5t52.5 22.5t52.5 -22.5t22.5 -52.5t-22.5 -52.5t-52.5 -22.5t-52.5 22.5t-22.5 52.5zM325 626q0 30 22.5 52.5t52.5 22.5t52.5 -22.5t22.5 -52.5t-22.5 -52.5t-52.5 -22.5t-52.5 22.5t-22.5 52.5z" />
    <glyph glyph-name="uhungarumlaut.alt" 
d="M60 490h135v-275q0 -45 26 -72.5t64 -27.5q42 0 68.5 29t26.5 86v260h135v-345q0 -15 10 -25t25 -10q6 0 14 2q4 1 6 3v-115q-6 -3 -14 -5q-15 -5 -36 -5q-38 0 -61.5 11.5t-36.5 25.5q-16 17 -22 38q-14 -21 -36 -38q-19 -14 -48 -25.5t-71 -11.5q-39 0 -73 14.5
t-59 41.5t-39 66t-14 88v290zM220 705h135l-115 -150h-100zM410 705h135l-115 -150h-100z" />
    <glyph glyph-name="umacron.alt" 
d="M60 490h135v-275q0 -45 26 -72.5t64 -27.5q42 0 68.5 29t26.5 86v260h135v-345q0 -15 10 -25t25 -10q6 0 14 2q4 1 6 3v-115q-6 -3 -14 -5q-15 -5 -36 -5q-38 0 -61.5 11.5t-36.5 25.5q-16 17 -22 38q-14 -21 -36 -38q-19 -14 -48 -25.5t-71 -11.5q-39 0 -73 14.5
t-59 41.5t-39 66t-14 88v290zM450 586h-320v100h320v-100z" />
    <glyph glyph-name="uogonek.alt" 
d="M60 490h135v-275q0 -45 26 -72.5t64 -27.5q42 0 68.5 29t26.5 86v260h135v-345q0 -15 10 -25t25 -10q6 0 14 2q4 1 6 3v-115l-12 -4q-5 -2 -13 -3.5t-17 -2.5q-8 -12 -18 -36.5t-10 -53.5q0 -40 45 -40q21 0 36 5q8 2 14 5v-75q-9 -4 -21 -8q-11 -3 -25.5 -5t-33.5 -2
q-49 0 -79.5 29.5t-30.5 72.5q0 25 9 46.5t20 37.5q13 18 30 34q-20 7 -32.5 18t-19.5 22q-9 12 -12 25q-14 -21 -36 -38q-19 -14 -48 -25.5t-71 -11.5q-39 0 -73 14.5t-59 41.5t-39 66t-14 88v290z" />
    <glyph glyph-name="uring.alt" 
d="M255 645q0 -40 40 -40t40 40t-40 40t-40 -40zM410 645q0 -23 -9 -43t-24.5 -35t-36.5 -23.5t-45 -8.5t-45 8.5t-36.5 23.5t-24.5 35t-9 43q0 22 9 42t24.5 35t36.5 24t45 9t45 -9t36.5 -24t24.5 -35t9 -42zM60 490h135v-275q0 -45 26 -72.5t64 -27.5q42 0 68.5 29
t26.5 86v260h135v-345q0 -15 10 -25t25 -10q6 0 14 2q4 1 6 3v-115q-6 -3 -14 -5q-15 -5 -36 -5q-38 0 -61.5 11.5t-36.5 25.5q-16 17 -22 38q-14 -21 -36 -38q-19 -14 -48 -25.5t-71 -11.5q-39 0 -73 14.5t-59 41.5t-39 66t-14 88v290z" />
    <glyph glyph-name="zacute" unicode="&#x17a;" horiz-adv-x="500" 
d="M445 370l-240 -250h250v-120h-420v120l240 250h-230v120h400v-120zM270 705h140l-110 -150h-110z" />
    <glyph glyph-name="zcaron" unicode="&#x17e;" horiz-adv-x="500" 
d="M445 370l-240 -250h250v-120h-420v120l240 250h-230v120h400v-120zM300 555h-120l-120 150h121l59 -80l60 80h120z" />
    <glyph glyph-name="zdotaccent" unicode="&#x17c;" horiz-adv-x="500" 
d="M445 370l-240 -250h250v-120h-420v120l240 250h-230v120h400v-120zM325 631q0 -34 -21 -54.5t-59 -20.5q-34 0 -54.5 20.5t-20.5 54.5t20.5 54.5t54.5 20.5q38 0 59 -20.5t21 -54.5z" />
    <glyph glyph-name="Zdotaccent" unicode="&#x17b;" horiz-adv-x="650" 
d="M65 565v135h525v-135l-355 -430h365v-135h-550v135l355 430h-340zM405 860q0 -34 -21 -54.5t-59 -20.5q-34 0 -54.5 20.5t-20.5 54.5t20.5 54.5t54.5 20.5q38 0 59 -20.5t21 -54.5z" />
    <glyph glyph-name="Zcaron" unicode="&#x17d;" horiz-adv-x="650" 
d="M65 565v135h525v-135l-355 -430h365v-135h-550v135l355 430h-340zM380 785h-120l-120 150h121l59 -80l60 80h120z" />
    <glyph glyph-name="Zacute" unicode="&#x179;" horiz-adv-x="650" 
d="M65 565v135h525v-135l-355 -430h365v-135h-550v135l355 430h-340zM350 935h140l-110 -150h-110z" />
    <glyph glyph-name="Uring" unicode="&#x16e;" horiz-adv-x="780" 
d="M390 120q32 0 60 12.5t49 34.5t33.5 52t12.5 66v415h150v-415q0 -64 -23 -118.5t-64 -95t-96.5 -63.5t-121.5 -23t-121.5 23t-96.5 63.5t-64 95t-23 118.5v415h150v-415q0 -36 12.5 -66t33.5 -52t49 -34.5t60 -12.5zM350 870q0 -40 40 -40t40 40t-40 40t-40 -40zM505 870
q0 -23 -9 -43t-24.5 -35t-36.5 -23.5t-45 -8.5t-45 8.5t-36.5 23.5t-24.5 35t-9 43q0 22 9 42t24.5 35t36.5 24t45 9t45 -9t36.5 -24t24.5 -35t9 -42z" />
    <glyph glyph-name="Umacron" unicode="&#x16a;" horiz-adv-x="780" 
d="M390 120q32 0 60 12.5t49 34.5t33.5 52t12.5 66v415h150v-415q0 -64 -23 -118.5t-64 -95t-96.5 -63.5t-121.5 -23t-121.5 23t-96.5 63.5t-64 95t-23 118.5v415h150v-415q0 -36 12.5 -66t33.5 -52t49 -34.5t60 -12.5zM550 815h-320v100h320v-100z" />
    <glyph glyph-name="Uhungarumlaut" unicode="&#x170;" horiz-adv-x="780" 
d="M390 120q32 0 60 12.5t49 34.5t33.5 52t12.5 66v415h150v-415q0 -64 -23 -118.5t-64 -95t-96.5 -63.5t-121.5 -23t-121.5 23t-96.5 63.5t-64 95t-23 118.5v415h150v-415q0 -36 12.5 -66t33.5 -52t49 -34.5t60 -12.5zM320 935h135l-115 -150h-100zM510 935h135l-115 -150
h-100z" />
    <glyph glyph-name="Udieresis" unicode="&#xdc;" horiz-adv-x="780" 
d="M390 120q32 0 60 12.5t49 34.5t33.5 52t12.5 66v415h150v-415q0 -64 -23 -118.5t-64 -95t-96.5 -63.5t-121.5 -23t-121.5 23t-96.5 63.5t-64 95t-23 118.5v415h150v-415q0 -36 12.5 -66t33.5 -52t49 -34.5t60 -12.5zM210 855q0 30 22.5 52.5t52.5 22.5t52.5 -22.5
t22.5 -52.5t-22.5 -52.5t-52.5 -22.5t-52.5 22.5t-22.5 52.5zM430 855q0 30 22.5 52.5t52.5 22.5t52.5 -22.5t22.5 -52.5t-22.5 -52.5t-52.5 -22.5t-52.5 22.5t-22.5 52.5z" />
    <glyph glyph-name="a.alt" horiz-adv-x="545" 
d="M470 -10q-38 0 -61.5 11.5t-36.5 25.5q-16 17 -22 38q-14 -21 -36 -38q-19 -14 -48 -25.5t-71 -11.5q-38 0 -68 11.5t-52 30.5t-33.5 44.5t-11.5 53.5q0 60 38.5 100t106.5 52l155 28q0 30 -21.5 50t-63.5 20q-29 0 -49 -8t-34 -17q-16 -11 -27 -25l-75 75q20 26 49 47
q24 18 60.5 33t85.5 15q47 0 85.5 -15t66.5 -41.5t43 -62t15 -76.5v-165q0 -15 10 -25t25 -10q6 0 14 2q4 1 6 3v-110q-6 -3 -14 -5q-15 -5 -36 -5zM230 100q45 0 72.5 28.5t27.5 81.5v15l-110 -20q-55 -9 -55 -55q0 -23 15.5 -36.5t49.5 -13.5z" />
    <glyph glyph-name="l.alt" horiz-adv-x="330" 
d="M200 171q0 -23 17 -39t43 -16q20 0 34 3l16 4v-121q-11 -3 -24 -6q-11 -2 -26.5 -4t-34.5 -2q-75 0 -117.5 43.5t-42.5 126.5v540h135v-529z" />
    <glyph glyph-name="afii10085.alt" horiz-adv-x="520" 
d="M190 0l-190 490h140l115 -325l115 325h140l-270 -700h-140z" />
    <glyph glyph-name="y.alt" 
d="M530 490v-460q0 -51 -18.5 -94.5t-52 -76t-79.5 -51t-100 -18.5q-57 0 -98 15.5t-68 34.5q-32 22 -54 50l75 80q15 -19 36 -33q18 -12 44 -22t60 -10q53 0 86.5 34t33.5 91v45q-16 -17 -37 -30q-18 -11 -45.5 -20.5t-62.5 -9.5q-39 0 -73 14.5t-59 41t-39 64.5t-14 85
v270h135v-255q0 -42 26 -68.5t64 -26.5q45 0 75 31t30 84v235h135z" />
    <glyph glyph-name="I.alt" horiz-adv-x="420" 
d="M40 700h340v-135h-95v-430h95v-135h-340v135h95v430h-95v135z" />
    <glyph glyph-name="u.alt" 
d="M60 490h135v-275q0 -45 26 -72.5t64 -27.5q42 0 68.5 29t26.5 86v260h135v-345q0 -15 10 -25t25 -10q6 0 14 2q4 1 6 3v-115q-6 -3 -14 -5q-15 -5 -36 -5q-38 0 -61.5 11.5t-36.5 25.5q-16 17 -22 38q-14 -21 -36 -38q-19 -14 -48 -25.5t-71 -11.5q-39 0 -73 14.5
t-59 41.5t-39 66t-14 88v290z" />
    <glyph glyph-name="afii10065.alt" horiz-adv-x="545" 
d="M470 -10q-38 0 -61.5 11.5t-36.5 25.5q-16 17 -22 38q-14 -21 -36 -38q-19 -14 -48 -25.5t-71 -11.5q-38 0 -68 11.5t-52 30.5t-33.5 44.5t-11.5 53.5q0 60 38.5 100t106.5 52l155 28q0 30 -21.5 50t-63.5 20q-29 0 -49 -8t-34 -17q-16 -11 -27 -25l-75 75q20 26 49 47
q24 18 60.5 33t85.5 15q47 0 85.5 -15t66.5 -41.5t43 -62t15 -76.5v-165q0 -15 10 -25t25 -10q6 0 14 2q4 1 6 3v-110q-6 -3 -14 -5q-15 -5 -36 -5zM230 100q45 0 72.5 28.5t27.5 81.5v15l-110 -20q-55 -9 -55 -55q0 -23 15.5 -36.5t49.5 -13.5z" />
    <glyph glyph-name="Eth" unicode="&#xd0;" horiz-adv-x="780" 
d="M370 700q77 0 143 -27.5t114 -74.5t75.5 -111t27.5 -137t-27.5 -137t-75.5 -111t-114 -74.5t-143 -27.5h-260v290h-85v120h85v290h260zM260 565v-155h135v-120h-135v-155h110q43 0 81.5 16.5t67 46t45 68.5t16.5 84t-16 84t-44 68.5t-66.5 46t-83.5 16.5h-110z" />
    <glyph glyph-name="uni00AD" unicode="&#xad;" horiz-adv-x="430" 
d="M395 235h-360v120h360v-120z" />
    <glyph glyph-name="uni20BD" unicode="&#x20bd;" horiz-adv-x="695" 
d="M410 385q42 0 68.5 26t26.5 64q0 42 -26.5 68.5t-68.5 26.5h-140v-185h140zM270 265v-55h210v-120h-210v-90h-150v90h-75v120h75v55h-75v120h75v315h292q54 0 98.5 -17.5t76.5 -47.5t50 -70t18 -85t-17 -84t-49 -68.5t-77.5 -46t-101.5 -16.5h-140z" />
    <glyph glyph-name="zero" unicode="0" horiz-adv-x="710" 
d="M205 350q0 -58 13 -101.5t34 -72t48 -42.5t55 -14t55 14t48 42.5t34 72t13 101.5t-13 101.5t-34 72t-48 42.5t-55 14t-55 -14t-48 -42.5t-34 -72t-13 -101.5zM655 350q0 -84 -24.5 -152t-65.5 -115t-95.5 -72.5t-114.5 -25.5t-114.5 25.5t-95.5 72.5t-65.5 115t-24.5 152
t24.5 152t65.5 115t95.5 72.5t114.5 25.5t114.5 -25.5t95.5 -72.5t65.5 -115t24.5 -152z" />
    <glyph glyph-name="cyrBreve" unicode="&#xf6d1;" horiz-adv-x="380" 
d="M190 875q26 0 43 17t17 43h100q0 -34 -11.5 -62.5t-32.5 -49t-50.5 -32t-65.5 -11.5t-65.5 11.5t-50.5 32t-32.5 49t-11.5 62.5h100q0 -26 17 -43t43 -17z" />
    <glyph glyph-name="cyrbreve" unicode="&#xf6d4;" horiz-adv-x="380" 
d="M190 645q26 0 43 17t17 43h100q0 -32 -11.5 -59.5t-32.5 -47.5t-50.5 -31.5t-65.5 -11.5t-65.5 11.5t-50.5 31.5t-32.5 47.5t-11.5 59.5h100q0 -26 17 -43t43 -17z" />
    <glyph glyph-name="one" unicode="1" horiz-adv-x="400" 
d="M310 700v-700h-150v510h-120v95q43 5 71 20.5t45 32.5q19 19 29 42h125z" />
    <glyph glyph-name="uni1E9E" unicode="&#x1e9e;" horiz-adv-x="675" 
d="M465 410q45 -11 80 -36q30 -21 55 -59.5t25 -99.5q0 -43 -18 -82t-50 -68.5t-77.5 -47t-99.5 -17.5h-60v120h50q45 0 72.5 26.5t27.5 68.5t-27.5 68.5t-72.5 26.5h-50v110l110 150h-100q-45 0 -72.5 -27.5t-27.5 -72.5v-470h-150v470q0 49 18 91t50 73t77.5 48.5
t99.5 17.5h260v-125l-120 -165v0z" />
    <glyph glyph-name="two" unicode="2" horiz-adv-x="580" 
d="M35 0q0 82 25 139.5t62 98.5t80.5 70t80.5 55.5t62 54.5t25 67q0 42 -25.5 66t-74.5 24q-32 0 -53 -13.5t-34 -29.5q-15 -18 -23 -42l-125 60q16 46 49 82q14 15 32.5 30t42.5 27t54 19t67 7q54 0 99.5 -17.5t77.5 -48t50 -71.5t18 -88q0 -48 -16.5 -83.5t-43.5 -64
t-60 -52t-66.5 -46.5t-63.5 -48t-50 -56h300v-140h-490z" />
    <glyph glyph-name="asciicircum" unicode="^" horiz-adv-x="430" 
d="M265 700l135 -300h-115l-70 160l-70 -160h-115l135 300h100z" />
    <glyph glyph-name="agrave" unicode="&#xe0;" horiz-adv-x="535" 
d="M330 50q-16 -17 -36 -30q-17 -11 -42 -20.5t-57 -9.5q-38 0 -68 11.5t-52 30.5t-33.5 44.5t-11.5 53.5q0 60 38.5 100t106.5 52l155 28q0 30 -21.5 50t-63.5 20q-29 0 -49 -8t-34 -17q-16 -11 -27 -25l-75 75q20 26 49 47q24 18 60.5 33t85.5 15q47 0 85.5 -15
t66.5 -41.5t43 -62t15 -76.5v-305h-135v50zM230 100q45 0 72.5 28.5t27.5 81.5v15l-110 -20q-55 -9 -55 -55q0 -23 15.5 -36.5t49.5 -13.5zM330 555h-110l-110 150h140z" />
    <glyph glyph-name="aacute" unicode="&#xe1;" horiz-adv-x="535" 
d="M330 50q-16 -17 -36 -30q-17 -11 -42 -20.5t-57 -9.5q-38 0 -68 11.5t-52 30.5t-33.5 44.5t-11.5 53.5q0 60 38.5 100t106.5 52l155 28q0 30 -21.5 50t-63.5 20q-29 0 -49 -8t-34 -17q-16 -11 -27 -25l-75 75q20 26 49 47q24 18 60.5 33t85.5 15q47 0 85.5 -15
t66.5 -41.5t43 -62t15 -76.5v-305h-135v50zM230 100q45 0 72.5 28.5t27.5 81.5v15l-110 -20q-55 -9 -55 -55q0 -23 15.5 -36.5t49.5 -13.5zM295 705h140l-110 -150h-110z" />
    <glyph glyph-name="abreve" unicode="&#x103;" horiz-adv-x="535" 
d="M330 50q-16 -17 -36 -30q-17 -11 -42 -20.5t-57 -9.5q-38 0 -68 11.5t-52 30.5t-33.5 44.5t-11.5 53.5q0 60 38.5 100t106.5 52l155 28q0 30 -21.5 50t-63.5 20q-29 0 -49 -8t-34 -17q-16 -11 -27 -25l-75 75q20 26 49 47q24 18 60.5 33t85.5 15q47 0 85.5 -15
t66.5 -41.5t43 -62t15 -76.5v-305h-135v50zM230 100q45 0 72.5 28.5t27.5 81.5v15l-110 -20q-55 -9 -55 -55q0 -23 15.5 -36.5t49.5 -13.5zM275 645q26 0 43 17t17 43h100q0 -32 -11.5 -59.5t-32.5 -47.5t-50.5 -31.5t-65.5 -11.5t-65.5 11.5t-50.5 31.5t-32.5 47.5
t-11.5 59.5h100q0 -26 17 -43t43 -17z" />
    <glyph glyph-name="acircumflex" unicode="&#xe2;" horiz-adv-x="535" 
d="M330 50q-16 -17 -36 -30q-17 -11 -42 -20.5t-57 -9.5q-38 0 -68 11.5t-52 30.5t-33.5 44.5t-11.5 53.5q0 60 38.5 100t106.5 52l155 28q0 30 -21.5 50t-63.5 20q-29 0 -49 -8t-34 -17q-16 -11 -27 -25l-75 75q20 26 49 47q24 18 60.5 33t85.5 15q47 0 85.5 -15
t66.5 -41.5t43 -62t15 -76.5v-305h-135v50zM230 100q45 0 72.5 28.5t27.5 81.5v15l-110 -20q-55 -9 -55 -55q0 -23 15.5 -36.5t49.5 -13.5zM450 555h-120l-60 80l-60 -80h-120l120 150h120z" />
    <glyph glyph-name="adieresis" unicode="&#xe4;" horiz-adv-x="535" 
d="M330 50q-16 -17 -36 -30q-17 -11 -42 -20.5t-57 -9.5q-38 0 -68 11.5t-52 30.5t-33.5 44.5t-11.5 53.5q0 60 38.5 100t106.5 52l155 28q0 30 -21.5 50t-63.5 20q-29 0 -49 -8t-34 -17q-16 -11 -27 -25l-75 75q20 26 49 47q24 18 60.5 33t85.5 15q47 0 85.5 -15
t66.5 -41.5t43 -62t15 -76.5v-305h-135v50zM230 100q45 0 72.5 28.5t27.5 81.5v15l-110 -20q-55 -9 -55 -55q0 -23 15.5 -36.5t49.5 -13.5zM95 626q0 30 22.5 52.5t52.5 22.5t52.5 -22.5t22.5 -52.5t-22.5 -52.5t-52.5 -22.5t-52.5 22.5t-22.5 52.5zM315 626q0 30 22.5 52.5
t52.5 22.5t52.5 -22.5t22.5 -52.5t-22.5 -52.5t-52.5 -22.5t-52.5 22.5t-22.5 52.5z" />
    <glyph glyph-name="amacron" unicode="&#x101;" horiz-adv-x="535" 
d="M330 50q-16 -17 -36 -30q-17 -11 -42 -20.5t-57 -9.5q-38 0 -68 11.5t-52 30.5t-33.5 44.5t-11.5 53.5q0 60 38.5 100t106.5 52l155 28q0 30 -21.5 50t-63.5 20q-29 0 -49 -8t-34 -17q-16 -11 -27 -25l-75 75q20 26 49 47q24 18 60.5 33t85.5 15q47 0 85.5 -15
t66.5 -41.5t43 -62t15 -76.5v-305h-135v50zM230 100q45 0 72.5 28.5t27.5 81.5v15l-110 -20q-55 -9 -55 -55q0 -23 15.5 -36.5t49.5 -13.5zM435 596h-320v100h320v-100z" />
    <glyph glyph-name="aring" unicode="&#xe5;" horiz-adv-x="535" 
d="M330 50q-16 -17 -36 -30q-17 -11 -42 -20.5t-57 -9.5q-38 0 -68 11.5t-52 30.5t-33.5 44.5t-11.5 53.5q0 60 38.5 100t106.5 52l155 28q0 30 -21.5 50t-63.5 20q-29 0 -49 -8t-34 -17q-16 -11 -27 -25l-75 75q20 26 49 47q24 18 60.5 33t85.5 15q47 0 85.5 -15
t66.5 -41.5t43 -62t15 -76.5v-305h-135v50zM230 100q45 0 72.5 28.5t27.5 81.5v15l-110 -20q-55 -9 -55 -55q0 -23 15.5 -36.5t49.5 -13.5zM240 645q0 -40 40 -40t40 40t-40 40t-40 -40zM395 645q0 -23 -9 -43t-24.5 -35t-36.5 -23.5t-45 -8.5t-45 8.5t-36.5 23.5t-24.5 35
t-9 43q0 22 9 42t24.5 35t36.5 24t45 9t45 -9t36.5 -24t24.5 -35t9 -42z" />
    <glyph glyph-name="atilde" unicode="&#xe3;" horiz-adv-x="535" 
d="M330 50q-16 -17 -36 -30q-17 -11 -42 -20.5t-57 -9.5q-38 0 -68 11.5t-52 30.5t-33.5 44.5t-11.5 53.5q0 60 38.5 100t106.5 52l155 28q0 30 -21.5 50t-63.5 20q-29 0 -49 -8t-34 -17q-16 -11 -27 -25l-75 75q20 26 49 47q24 18 60.5 33t85.5 15q47 0 85.5 -15
t66.5 -41.5t43 -62t15 -76.5v-305h-135v50zM230 100q45 0 72.5 28.5t27.5 81.5v15l-110 -20q-55 -9 -55 -55q0 -23 15.5 -36.5t49.5 -13.5zM350 551q-26 0 -43.5 8t-31 17t-26 17t-29.5 8q-15 0 -25 -12t-10 -38h-85q0 79 30 114.5t77 35.5q25 0 43 -8.5t31.5 -19t26 -19
t27.5 -8.5t25 12.5t10 42.5h85q0 -79 -30 -114.5t-75 -35.5z" />
    <glyph glyph-name="lacute" unicode="&#x13a;" horiz-adv-x="280" 
d="M200 0h-135v700h135v-700zM165 935h140l-110 -150h-110z" />
    <glyph glyph-name="lcaron" unicode="&#x13e;" horiz-adv-x="350" 
d="M200 0h-135v700h135v-700zM285 701h125l-70 -150h-100z" />
    <glyph glyph-name="lcommaaccent" unicode="&#x13c;" horiz-adv-x="280" 
d="M200 0h-135v700h135v-700zM71 -80h125l-70 -150h-100z" />
    <glyph glyph-name="lslash" unicode="&#x142;" horiz-adv-x="385" 
d="M255 325v-325h-135v245l-95 -55l-60 100l155 90v320h135v-240l100 60l55 -100z" />
    <glyph glyph-name="yacute" unicode="&#xfd;" horiz-adv-x="520" 
d="M190 5l-190 485h140l115 -325l115 325h140l-195 -520q-34 -91 -80 -135.5t-110 -44.5q-19 0 -34.5 2t-26.5 5q-13 4 -24 8v120q6 -3 14 -5q15 -5 36 -5q34 0 54.5 16t30.5 39zM285 705h140l-110 -150h-110z" />
    <glyph glyph-name="ydieresis" unicode="&#xff;" horiz-adv-x="520" 
d="M190 5l-190 485h140l115 -325l115 325h140l-195 -520q-34 -91 -80 -135.5t-110 -44.5q-19 0 -34.5 2t-26.5 5q-13 4 -24 8v120q6 -3 14 -5q15 -5 36 -5q34 0 54.5 16t30.5 39zM75 631q0 30 22.5 52.5t52.5 22.5t52.5 -22.5t22.5 -52.5t-22.5 -52.5t-52.5 -22.5
t-52.5 22.5t-22.5 52.5zM295 631q0 30 22.5 52.5t52.5 22.5t52.5 -22.5t22.5 -52.5t-22.5 -52.5t-52.5 -22.5t-52.5 22.5t-22.5 52.5z" />
    <glyph glyph-name="Igrave" unicode="&#xcc;" horiz-adv-x="330" 
d="M90 700h150v-700h-150v700zM221 785h-110l-110 150h140z" />
    <glyph glyph-name="Iacute" unicode="&#xcd;" horiz-adv-x="330" 
d="M90 700h150v-700h-150v700zM190 935h140l-110 -150h-110z" />
    <glyph glyph-name="Icircumflex" unicode="&#xce;" horiz-adv-x="330" 
d="M90 700h150v-700h-150v700zM345 785h-120l-60 80l-60 -80h-120l120 150h120z" />
    <glyph glyph-name="Idieresis" unicode="&#xcf;" horiz-adv-x="330" 
d="M90 700h150v-700h-150v700zM-19 855q0 30 22.5 52.5t52.5 22.5t52.5 -22.5t22.5 -52.5t-22.5 -52.5t-52.5 -22.5t-52.5 22.5t-22.5 52.5zM201 855q0 30 22.5 52.5t52.5 22.5t52.5 -22.5t22.5 -52.5t-22.5 -52.5t-52.5 -22.5t-52.5 22.5t-22.5 52.5z" />
    <glyph glyph-name="Idotaccent" unicode="&#x130;" horiz-adv-x="330" 
d="M90 700h150v-700h-150v700zM245 860q0 -34 -21 -54.5t-59 -20.5q-34 0 -54.5 20.5t-20.5 54.5t20.5 54.5t54.5 20.5q38 0 59 -20.5t21 -54.5z" />
    <glyph glyph-name="Imacron" unicode="&#x12a;" horiz-adv-x="330" 
d="M90 700h150v-700h-150v700zM326 815h-320v100h320v-100z" />
    <glyph glyph-name="ugrave" unicode="&#xf9;" 
d="M390 50q-15 -17 -36 -30q-18 -11 -44 -20.5t-60 -9.5q-41 0 -76 14.5t-60.5 41.5t-39.5 65t-14 86v293h135v-280q0 -42 26.5 -68.5t68.5 -26.5q45 0 72.5 29t27.5 86v260h135v-490h-135v50zM345 555h-110l-110 150h140z" />
    <glyph glyph-name="uacute" unicode="&#xfa;" 
d="M390 50q-15 -17 -36 -30q-18 -11 -44 -20.5t-60 -9.5q-41 0 -76 14.5t-60.5 41.5t-39.5 65t-14 86v293h135v-280q0 -42 26.5 -68.5t68.5 -26.5q45 0 72.5 29t27.5 86v260h135v-490h-135v50zM310 705h140l-110 -150h-110z" />
    <glyph glyph-name="ucircumflex" unicode="&#xfb;" 
d="M390 50q-15 -17 -36 -30q-18 -11 -44 -20.5t-60 -9.5q-41 0 -76 14.5t-60.5 41.5t-39.5 65t-14 86v293h135v-280q0 -42 26.5 -68.5t68.5 -26.5q45 0 72.5 29t27.5 86v260h135v-490h-135v50zM465 555h-120l-60 80l-60 -80h-120l120 150h120z" />
    <glyph glyph-name="udieresis" unicode="&#xfc;" 
d="M390 50q-15 -17 -36 -30q-18 -11 -44 -20.5t-60 -9.5q-41 0 -76 14.5t-60.5 41.5t-39.5 65t-14 86v293h135v-280q0 -42 26.5 -68.5t68.5 -26.5q45 0 72.5 29t27.5 86v260h135v-490h-135v50zM105 631q0 30 22.5 52.5t52.5 22.5t52.5 -22.5t22.5 -52.5t-22.5 -52.5
t-52.5 -22.5t-52.5 22.5t-22.5 52.5zM325 631q0 30 22.5 52.5t52.5 22.5t52.5 -22.5t22.5 -52.5t-22.5 -52.5t-52.5 -22.5t-52.5 22.5t-22.5 52.5z" />
    <glyph glyph-name="uhungarumlaut" unicode="&#x171;" 
d="M390 50q-15 -17 -36 -30q-18 -11 -44 -20.5t-60 -9.5q-41 0 -76 14.5t-60.5 41.5t-39.5 65t-14 86v293h135v-280q0 -42 26.5 -68.5t68.5 -26.5q45 0 72.5 29t27.5 86v260h135v-490h-135v50zM215 705h135l-115 -150h-100zM405 705h135l-115 -150h-100z" />
    <glyph glyph-name="umacron" unicode="&#x16b;" 
d="M390 50q-15 -17 -36 -30q-18 -11 -44 -20.5t-60 -9.5q-41 0 -76 14.5t-60.5 41.5t-39.5 65t-14 86v293h135v-280q0 -42 26.5 -68.5t68.5 -26.5q45 0 72.5 29t27.5 86v260h135v-490h-135v50zM450 586h-320v100h320v-100z" />
    <glyph glyph-name="uring" unicode="&#x16f;" 
d="M390 50q-15 -17 -36 -30q-18 -11 -44 -20.5t-60 -9.5q-41 0 -76 14.5t-60.5 41.5t-39.5 65t-14 86v293h135v-280q0 -42 26.5 -68.5t68.5 -26.5q45 0 72.5 29t27.5 86v260h135v-490h-135v50zM250 650q0 -40 40 -40t40 40t-40 40t-40 -40zM405 650q0 -23 -9 -43t-24.5 -35
t-36.5 -23.5t-45 -8.5t-45 8.5t-36.5 23.5t-24.5 35t-9 43q0 22 9 42t24.5 35t36.5 24t45 9t45 -9t36.5 -24t24.5 -35t9 -42z" />
    <glyph glyph-name="afii10110" unicode="&#x45e;" horiz-adv-x="520" 
d="M190 5l-190 485h140l115 -325l115 325h140l-195 -520q-34 -91 -80 -135.5t-110 -44.5q-19 0 -34.5 2t-26.5 5q-13 4 -24 8v120q6 -3 14 -5q15 -5 36 -5q34 0 54.5 16t30.5 39zM260 645q26 0 43 17t17 43h100q0 -32 -11.5 -59.5t-32.5 -47.5t-50.5 -31.5t-65.5 -11.5
t-65.5 11.5t-50.5 31.5t-32.5 47.5t-11.5 59.5h100q0 -26 17 -43t43 -17z" />
    <glyph glyph-name="fraction" unicode="&#x2044;" horiz-adv-x="210" 
d="M260 700h125l-435 -700h-125z" />
    <glyph glyph-name="greaterequal" unicode="&#x2265;" horiz-adv-x="505" 
d="M470 0h-435v110h435v-110zM35 590l435 -190v-70l-435 -190v120l250 105l-250 105v120z" />
    <glyph glyph-name="at.case" horiz-adv-x="900" 
d="M445 435q-36 0 -60.5 -25.5t-24.5 -64.5q0 -40 24.5 -65t60.5 -25q34 0 57 24t23 66t-23 66t-57 24zM430 530q24 0 42 -6t30 -14q14 -9 23 -20v35h95v-220q0 -23 16 -39t39 -16q15 0 28 6t22 20t14.5 37t5.5 57q0 56 -22 106t-61.5 87.5t-93.5 59.5t-118 22
q-60 0 -113 -23t-92 -62.5t-62 -93.5t-23 -116t23 -116t62 -93.5t92 -62.5t113 -23q43 0 76.5 9.5t56.5 20.5q27 13 47 30l55 -70q-26 -25 -61 -43q-30 -16 -73.5 -29t-100.5 -13q-79 0 -149.5 31.5t-124 85t-85 124t-31.5 149.5t31.5 149.5t85 124t124 85t149.5 31.5
q84 0 156.5 -29.5t125.5 -80.5t83 -118t30 -142q0 -51 -13 -90t-36 -65.5t-54 -40.5t-67 -14q-30 0 -51.5 9.5t-35.5 20.5q-17 13 -28 30q-11 -17 -29 -30q-15 -11 -38.5 -20.5t-57.5 -9.5q-36 0 -67.5 13.5t-55.5 38.5t-38 58.5t-14 74.5q0 40 14 74t37.5 58.5t54 38.5
t64.5 14z" />
    <glyph glyph-name="parenleft.case" horiz-adv-x="365" 
d="M205 350q0 -91 20.5 -167t46.5 -133q30 -66 68 -120l-105 -60q-47 57 -83 131q-31 63 -56.5 151.5t-25.5 197.5t25.5 197.5t56.5 151.5q36 74 83 131l105 -65q-38 -53 -68 -118q-26 -56 -46.5 -131t-20.5 -166z" />
    <glyph glyph-name="parenright.case" horiz-adv-x="365" 
d="M160 350q0 91 -21 166t-47 131q-30 65 -67 118l105 65q46 -57 82 -131q15 -32 30 -70t27 -82t19 -93.5t7 -103.5t-7 -103.5t-19 -93.5t-27 -82.5t-30 -69.5q-36 -74 -82 -131l-105 60q37 54 67 120q26 57 47 133t21 167z" />
    <glyph glyph-name="bracketleft.case" horiz-adv-x="360" 
d="M210 5h120v-115h-250v920h250v-115h-120v-690z" />
    <glyph glyph-name="bracketright.case" horiz-adv-x="360" 
d="M150 695h-120v115h250v-920h-250v115h120v690z" />
    <glyph glyph-name="braceleft.case" horiz-adv-x="395" 
d="M55 405q30 0 47.5 17.5t17.5 47.5v170q0 83 43 126.5t122 43.5h75v-120h-50q-26 0 -43 -17t-17 -46v-162q0 -38 -10.5 -60.5t-22.5 -34.5q-14 -14 -32 -20q18 -6 32 -20q12 -12 22.5 -34.5t10.5 -60.5v-163q0 -28 17 -45t43 -17h50v-120h-75q-79 0 -122 43.5t-43 126.5
v170q0 30 -17.5 47.5t-47.5 17.5v110z" />
    <glyph glyph-name="braceright.case" horiz-adv-x="395" 
d="M340 295q-30 0 -47.5 -17.5t-17.5 -47.5v-170q0 -83 -43 -126.5t-122 -43.5h-75v120h50q26 0 43 17t17 45v163q0 38 10 60.5t22 34.5q14 14 33 20q-19 6 -33 20q-12 12 -22 34.5t-10 60.5v162q0 29 -17 46t-43 17h-50v120h75q79 0 122 -43.5t43 -126.5v-170
q0 -30 17.5 -47.5t47.5 -17.5v-110z" />
    <glyph glyph-name="exclamdown.case" horiz-adv-x="330" 
d="M220 500l25 -500h-160l25 500h110zM85 635q0 30 23 52.5t57 22.5t57 -22.5t23 -52.5t-23 -52.5t-57 -22.5t-57 22.5t-23 52.5z" />
    <glyph glyph-name="questiondown.case" horiz-adv-x="550" 
d="M365 450q0 -36 -12.5 -61.5t-31.5 -44.5t-41 -34t-41 -30.5t-31.5 -34.5t-12.5 -45q0 -30 24 -52.5t66 -22.5q35 0 58.5 12.5t37.5 27.5q16 18 24 40l125 -55q-17 -48 -50 -85q-14 -16 -33 -31.5t-43.5 -27.5t-55.5 -19t-68 -7q-54 0 -98.5 16.5t-76 44t-48.5 64
t-17 75.5q0 46 13.5 78.5t33.5 56.5t43 43t43 38.5t33.5 42.5t13.5 56h135l5 -15q2 -7 3.5 -14.5t1.5 -15.5zM375 630q0 -30 -23 -52.5t-57 -22.5t-57 22.5t-23 52.5t23 52.5t57 22.5t57 -22.5t23 -52.5z" />
    <glyph glyph-name="guillemotleft.case" horiz-adv-x="560" 
d="M175 350l125 -175h-130l-125 175l125 175h130zM390 350l125 -175h-130l-125 175l125 175h130z" />
    <glyph glyph-name="guillemotright.case" horiz-adv-x="560" 
d="M260 525h130l125 -175l-125 -175h-130l125 175zM45 525h130l125 -175l-125 -175h-130l125 175z" />
    <glyph glyph-name="guilsinglleft.case" horiz-adv-x="350" 
d="M180 350l125 -175h-135l-125 175l125 175h135z" />
    <glyph glyph-name="guilsinglright.case" horiz-adv-x="350" 
d="M45 525h135l125 -175l-125 -175h-135l125 175z" />
    <glyph glyph-name="hyphen.case" horiz-adv-x="430" 
d="M395 279h-360v120h360v-120z" />
    <glyph glyph-name="endash.case" horiz-adv-x="495" 
d="M460 286h-425v117h425v-117z" />
    <glyph glyph-name="emdash.case" horiz-adv-x="735" 
d="M700 286h-665v117h665v-117z" />
    <glyph glyph-name="periodcentered.case" horiz-adv-x="200" 
d="M20 350q0 30 23 52.5t57 22.5t57 -22.5t23 -52.5t-23 -52.5t-57 -22.5t-57 22.5t-23 52.5z" />
    <glyph glyph-name="zerosuperior" unicode="&#x2070;" horiz-adv-x="370" 
d="M120 620q0 -49 19.5 -72t45.5 -23t45.5 23t19.5 72q0 53 -19.5 76.5t-45.5 23.5t-45.5 -23.5t-19.5 -76.5zM345 620q0 -41 -12.5 -74.5t-34 -57t-50.5 -36t-63 -12.5t-63 12.5t-50.5 36t-34 57t-12.5 74.5q0 43 12.5 77.5t34 58.5t50.5 36.5t63 12.5t63 -12.5t50.5 -36.5
t34 -58.5t12.5 -77.5z" />
    <glyph glyph-name="fivesuperior" unicode="&#x2075;" horiz-adv-x="310" 
d="M180 675q24 0 45 -9t36.5 -25t24.5 -36.5t9 -44.5q0 -53 -36 -86.5t-104 -33.5q-40 0 -67.5 7.5t-44.5 17.5q-20 11 -33 25l50 60q9 -9 21 -15q11 -6 25.5 -10.5t33.5 -4.5q26 0 40.5 13t14.5 32t-13.5 32t-36.5 13q-11 0 -20 -2.5t-14 -5.5q-7 -4 -11 -7h-65l20 205h215
v-80h-135l-5 -55q6 2 14 5q7 2 16 3.5t20 1.5z" />
    <glyph glyph-name="sixsuperior" unicode="&#x2076;" horiz-adv-x="315" 
d="M180 700q57 -11 88.5 -44t31.5 -86q0 -57 -38.5 -93.5t-106.5 -36.5q-64 0 -102 36.5t-38 93.5q0 19 3.5 33.5t8.5 25.5q5 12 13 21l110 150h100zM210 570q0 23 -14.5 36.5t-40.5 13.5q-23 0 -36.5 -13.5t-13.5 -36.5t13.5 -36.5t36.5 -13.5q26 0 40.5 13.5t14.5 36.5z
" />
    <glyph glyph-name="sevensuperior" unicode="&#x2077;" horiz-adv-x="290" 
d="M275 800v-90l-125 -265h-95l125 265h-165v90h260z" />
    <glyph glyph-name="eightsuperior" unicode="&#x2078;" horiz-adv-x="320" 
d="M160 520q26 0 38 10t12 25t-12 25t-38 10t-38 -10t-12 -25t12 -25t38 -10zM160 665q19 0 29.5 9.5t10.5 20.5t-10.5 20.5t-29.5 9.5t-29.5 -9.5t-10.5 -20.5t10.5 -20.5t29.5 -9.5zM160 440q-36 0 -63 8.5t-45 23t-27.5 33.5t-9.5 40q0 26 10.5 42.5t24.5 26.5
q15 11 35 16q-16 6 -28 17q-11 9 -19 23t-8 35q0 42 33 71t97 29t97 -29t33 -71q0 -21 -8.5 -35t-19.5 -23q-12 -11 -27 -17q19 -5 35 -16q13 -10 24 -26.5t11 -42.5q0 -21 -9.5 -40t-27.5 -33.5t-45 -23t-63 -8.5z" />
    <glyph glyph-name="ninesuperior" unicode="&#x2079;" horiz-adv-x="315" 
d="M135 545q-57 11 -88.5 44t-31.5 86q0 57 38.5 93.5t106.5 36.5q64 0 102 -36.5t38 -93.5q0 -19 -4 -33.5t-9 -25.5q-5 -12 -12 -21l-110 -150h-100zM105 675q0 -23 14.5 -36.5t40.5 -13.5q23 0 36.5 13.5t13.5 36.5t-13.5 36.5t-36.5 13.5q-26 0 -40.5 -13.5t-14.5 -36.5
z" />
    <glyph glyph-name="zero.tab" horiz-adv-x="650" 
d="M175 350q0 -58 13 -101.5t34 -72t48 -42.5t55 -14t55 14t48 42.5t34 72t13 101.5t-13 101.5t-34 72t-48 42.5t-55 14t-55 -14t-48 -42.5t-34 -72t-13 -101.5zM625 350q0 -84 -24.5 -152t-65.5 -115t-95.5 -72.5t-114.5 -25.5t-114.5 25.5t-95.5 72.5t-65.5 115t-24.5 152
t24.5 152t65.5 115t95.5 72.5t114.5 25.5t114.5 -25.5t95.5 -72.5t65.5 -115t24.5 -152z" />
    <glyph glyph-name="one.tab" horiz-adv-x="650" 
d="M430 700v-700h-150v510h-120v95q43 5 71 20.5t45 32.5q19 19 29 42h125z" />
    <glyph glyph-name="two.tab" horiz-adv-x="650" 
d="M75 0q0 82 25 139.5t62 98.5t80.5 70t80.5 55.5t62 54.5t25 67q0 42 -25.5 66t-74.5 24q-32 0 -53 -13.5t-34 -29.5q-15 -18 -23 -42l-125 60q16 46 49 82q14 15 32.5 30t42.5 27t54 19t67 7q54 0 99.5 -17.5t77.5 -48t50 -71.5t18 -88q0 -48 -16.5 -83.5t-43.5 -64
t-60 -52t-66.5 -46.5t-63.5 -48t-50 -56h300v-140h-490z" />
    <glyph glyph-name="three.tab" horiz-adv-x="650" 
d="M450 370q35 -13 62 -37q23 -20 43 -53.5t20 -84.5q0 -41 -18 -79t-51.5 -67t-81.5 -46.5t-109 -17.5q-68 0 -117.5 17t-82.5 38q-39 24 -65 55l90 95q18 -21 42 -38q20 -14 50 -25.5t68 -11.5q60 0 90 26t30 64t-29 64t-86 26h-75v125h70q45 0 70 23.5t25 61.5
q0 34 -25 57t-70 23q-32 0 -57 -10.5t-42 -22.5q-20 -14 -36 -32l-90 90q24 29 58 52q29 20 74 36.5t108 16.5q54 0 97.5 -15.5t74 -42t47 -62t16.5 -75.5q0 -42 -15.5 -70t-34.5 -46q-22 -21 -50 -34z" />
    <glyph glyph-name="four.tab" horiz-adv-x="650" 
d="M605 255v-130h-80v-125h-150v125h-330v150l305 425h175v-445h80zM375 525l-190 -270h190v270z" />
    <glyph glyph-name="five.tab" horiz-adv-x="650" 
d="M355 465q51 0 94 -17.5t74.5 -49t49 -74.5t17.5 -94q0 -53 -19 -97.5t-53.5 -77.5t-83.5 -51.5t-109 -18.5q-68 0 -117 17t-81 38q-38 24 -62 55l90 95q17 -20 42 -35q20 -14 50 -24.5t68 -10.5q57 0 88.5 30.5t31.5 79.5t-33.5 82t-86.5 33q-30 0 -52 -8.5t-36 -19.5
q-17 -12 -27 -27l-105 10l25 400h425v-130h-290l-10 -130q12 7 29 12q14 5 34.5 9t46.5 4z" />
    <glyph glyph-name="six.tab" horiz-adv-x="650" 
d="M350 475q47 0 90.5 -20t76.5 -54t53 -78t20 -93q0 -51 -19.5 -95.5t-55 -77.5t-84 -52.5t-106.5 -19.5t-106.5 19.5t-84 52.5t-55 77.5t-19.5 95.5q0 35 9.5 66.5t20.5 54.5q13 27 30 49l195 300h155l-150 -230q5 1 9 2t9 2t12 1zM445 230q0 49 -33.5 82t-86.5 33
t-86.5 -33t-33.5 -82t33.5 -82t86.5 -33t86.5 33t33.5 82z" />
    <glyph glyph-name="seven.tab" horiz-adv-x="650" 
d="M565 700v-120l-275 -580h-155l270 565h-320v135h480z" />
    <glyph glyph-name="eight.tab" horiz-adv-x="650" 
d="M325 110q24 0 45 8.5t36.5 22.5t24.5 32t9 37t-9 37t-24.5 32t-36.5 22.5t-45 8.5t-45 -8.5t-36.5 -22.5t-24.5 -32t-9 -37t9 -37t24.5 -32t36.5 -22.5t45 -8.5zM325 430q42 0 66 23t24 57t-24 57t-66 23t-66 -23t-24 -57t24 -57t66 -23zM325 -15q-56 0 -103 18.5t-81 49
t-52.5 71.5t-18.5 86q0 43 16 75t36 53q23 25 53 42q-22 14 -40 34q-15 17 -27.5 43.5t-12.5 62.5q0 37 17 72.5t47.5 62.5t72.5 43.5t93 16.5t93 -16.5t72.5 -43.5t47.5 -62.5t17 -72.5q0 -36 -12.5 -62.5t-27.5 -43.5q-18 -20 -40 -34q29 -17 52 -42q20 -21 36.5 -53
t16.5 -75q0 -45 -19 -86t-52.5 -71.5t-80.5 -49t-103 -18.5z" />
    <glyph glyph-name="nine.tab" horiz-adv-x="650" 
d="M300 225q-47 0 -90.5 20t-76.5 53.5t-53 78t-20 93.5q0 51 19.5 95.5t55 77.5t84 52.5t106.5 19.5t106.5 -19.5t84 -52.5t55 -77.5t19.5 -95.5q0 -36 -9.5 -67t-20.5 -54q-13 -27 -30 -49l-195 -300h-155l150 230q-5 -2 -9 -3q-10 -2 -21 -2zM205 470q0 -49 33.5 -82
t86.5 -33t86.5 33t33.5 82t-33.5 82t-86.5 33t-86.5 -33t-33.5 -82z" />
    <glyph glyph-name="zeroinferior" unicode="&#x2080;" horiz-adv-x="370" 
d="M120 75q0 -49 19.5 -72t45.5 -23t45.5 23t19.5 72q0 53 -19.5 76.5t-45.5 23.5t-45.5 -23.5t-19.5 -76.5zM345 75q0 -41 -12.5 -74.5t-34 -57t-50.5 -36t-63 -12.5t-63 12.5t-50.5 36t-34 57t-12.5 74.5q0 43 12.5 77.5t34 58.5t50.5 36.5t63 12.5t63 -12.5t50.5 -36.5
t34 -58.5t12.5 -77.5z" />
    <glyph glyph-name="oneinferior" unicode="&#x2081;" horiz-adv-x="230" 
d="M180 255v-355h-95v235h-60v75q34 4 52.5 19t22.5 26h80z" />
    <glyph glyph-name="twoinferior" unicode="&#x2082;" horiz-adv-x="330" 
d="M295 145q0 -34 -16.5 -56t-39 -38.5t-46 -30t-38.5 -30.5h135v-90h-255q0 41 12 70t29.5 50t38.5 35.5t38.5 27.5t29.5 26t12 31q0 15 -10.5 25t-29.5 10q-11 0 -20 -6t-16 -14q-8 -9 -14 -20l-75 26q8 27 26 49q15 19 41 34.5t68 15.5q60 0 95 -33t35 -82z" />
    <glyph glyph-name="threeinferior" unicode="&#x2083;" horiz-adv-x="335" 
d="M245 90q15 -7 27 -18q11 -10 19.5 -26.5t8.5 -40.5q0 -45 -35.5 -77.5t-99.5 -32.5q-40 0 -66 10t-43 22q-19 14 -31 33l55 55q8 -11 19 -20q10 -8 24 -14t34 -6q25 0 36.5 10t11.5 25q0 19 -12.5 29.5t-42.5 10.5h-35v75h35q23 0 31.5 7t8.5 18q0 14 -8.5 22t-31.5 8
q-14 0 -25.5 -5.5t-20.5 -12.5q-11 -8 -19 -17l-50 55q13 17 31 30q16 11 39.5 20.5t55.5 9.5q30 0 53.5 -8.5t40.5 -22.5t26 -32t9 -37t-7.5 -32.5t-15.5 -21.5q-10 -10 -22 -16z" />
    <glyph glyph-name="fourinferior" unicode="&#x2084;" horiz-adv-x="330" 
d="M270 50h35v-85h-35v-65h-95v65h-160v85l155 205h100v-205zM175 50v85l-65 -85h65z" />
    <glyph glyph-name="fiveinferior" unicode="&#x2085;" horiz-adv-x="310" 
d="M180 130q24 0 45 -9t36.5 -25t24.5 -36.5t9 -44.5q0 -53 -36 -86.5t-104 -33.5q-40 0 -67.5 7.5t-44.5 17.5q-20 11 -33 25l50 60q9 -9 21 -15q11 -6 25.5 -10.5t33.5 -4.5q26 0 40.5 13t14.5 32t-13.5 32t-36.5 13q-11 0 -20 -2.5t-14 -5.5q-7 -4 -11 -7h-65l20 205h215
v-80h-135l-5 -55q6 2 14 5q7 2 16 3.5t20 1.5z" />
    <glyph glyph-name="sixinferior" unicode="&#x2086;" horiz-adv-x="315" 
d="M180 155q57 -11 88.5 -44t31.5 -86q0 -57 -38.5 -93.5t-106.5 -36.5q-64 0 -102 36.5t-38 93.5q0 19 3.5 33.5t8.5 25.5q5 12 13 21l110 150h100zM210 25q0 23 -14.5 36.5t-40.5 13.5q-23 0 -36.5 -13.5t-13.5 -36.5t13.5 -36.5t36.5 -13.5q26 0 40.5 13.5t14.5 36.5z
" />
    <glyph glyph-name="seveninferior" unicode="&#x2087;" horiz-adv-x="290" 
d="M275 255v-90l-125 -265h-95l125 265h-165v90h260z" />
    <glyph glyph-name="eightinferior" unicode="&#x2088;" horiz-adv-x="320" 
d="M160 -25q26 0 38 10t12 25t-12 25t-38 10t-38 -10t-12 -25t12 -25t38 -10zM160 120q19 0 29.5 9.5t10.5 20.5t-10.5 20.5t-29.5 9.5t-29.5 -9.5t-10.5 -20.5t10.5 -20.5t29.5 -9.5zM160 -105q-36 0 -63 8.5t-45 23t-27.5 33.5t-9.5 40q0 26 10.5 42.5t24.5 26.5
q15 11 35 16q-16 6 -28 17q-11 9 -19 23t-8 35q0 42 33 71t97 29t97 -29t33 -71q0 -21 -8.5 -35t-19.5 -23q-12 -11 -27 -17q19 -5 35 -16q13 -10 24 -26.5t11 -42.5q0 -21 -9.5 -40t-27.5 -33.5t-45 -23t-63 -8.5z" />
    <glyph glyph-name="nineinferior" unicode="&#x2089;" horiz-adv-x="315" 
d="M135 0q-57 11 -88.5 44t-31.5 86q0 57 38.5 93.5t106.5 36.5q64 0 102 -36.5t38 -93.5q0 -19 -4 -33.5t-9 -25.5q-5 -12 -12 -21l-110 -150h-100zM105 130q0 -23 14.5 -36.5t40.5 -13.5q23 0 36.5 13.5t13.5 36.5t-13.5 36.5t-36.5 13.5q-26 0 -40.5 -13.5t-14.5 -36.5z
" />
    <glyph glyph-name="zero.numr" horiz-adv-x="370" 
d="M120 520q0 -49 19.5 -72t45.5 -23t45.5 23t19.5 72q0 53 -19.5 76.5t-45.5 23.5t-45.5 -23.5t-19.5 -76.5zM345 520q0 -41 -12.5 -74.5t-34 -57t-50.5 -36t-63 -12.5t-63 12.5t-50.5 36t-34 57t-12.5 74.5q0 43 12.5 77.5t34 58.5t50.5 36.5t63 12.5t63 -12.5t50.5 -36.5
t34 -58.5t12.5 -77.5z" />
    <glyph glyph-name="one.numr" horiz-adv-x="230" 
d="M180 700v-355h-95v235h-60v75q34 4 52.5 19t22.5 26h80z" />
    <glyph glyph-name="two.numr" horiz-adv-x="330" 
d="M295 590q0 -34 -16.5 -56t-39 -38.5t-46 -30t-38.5 -30.5h135v-90h-255q0 41 12 70t29.5 50t38.5 35.5t38.5 27.5t29.5 26t12 31q0 15 -10.5 25t-29.5 10q-11 0 -20 -6t-16 -14q-8 -9 -14 -20l-75 26q8 27 26 49q15 19 41 34.5t68 15.5q60 0 95 -33t35 -82z" />
    <glyph glyph-name="three.numr" horiz-adv-x="335" 
d="M245 535q15 -7 27 -18q11 -10 19.5 -26.5t8.5 -40.5q0 -45 -35.5 -77.5t-99.5 -32.5q-40 0 -66 10t-43 22q-19 14 -31 33l55 55q8 -11 19 -20q10 -8 24 -14t34 -6q25 0 36.5 10t11.5 25q0 19 -12.5 29.5t-42.5 10.5h-35v75h35q23 0 31.5 7t8.5 18q0 14 -8.5 22t-31.5 8
q-14 0 -25.5 -5.5t-20.5 -12.5q-11 -8 -19 -17l-50 55q13 17 31 30q16 11 39.5 20.5t55.5 9.5q30 0 53.5 -8.5t40.5 -22.5t26 -32t9 -37t-7.5 -32.5t-15.5 -21.5q-10 -10 -22 -16z" />
    <glyph glyph-name="four.numr" horiz-adv-x="330" 
d="M270 495h35v-85h-35v-65h-95v65h-160v85l155 205h100v-205zM175 495v85l-65 -85h65z" />
    <glyph glyph-name="five.numr" horiz-adv-x="310" 
d="M180 575q24 0 45 -9t36.5 -25t24.5 -36.5t9 -44.5q0 -53 -36 -86.5t-104 -33.5q-40 0 -67.5 7.5t-44.5 17.5q-20 11 -33 25l50 60q9 -9 21 -15q11 -6 25.5 -10.5t33.5 -4.5q26 0 40.5 13t14.5 32t-13.5 32t-36.5 13q-11 0 -20 -2.5t-14 -5.5q-7 -4 -11 -7h-65l20 205h215
v-80h-135l-5 -55q6 2 14 5q7 2 16 3.5t20 1.5z" />
    <glyph glyph-name="six.numr" horiz-adv-x="315" 
d="M180 600q57 -11 88.5 -44t31.5 -86q0 -57 -38.5 -93.5t-106.5 -36.5q-64 0 -102 36.5t-38 93.5q0 19 3.5 33.5t8.5 25.5q5 12 13 21l110 150h100zM210 470q0 23 -14.5 36.5t-40.5 13.5q-23 0 -36.5 -13.5t-13.5 -36.5t13.5 -36.5t36.5 -13.5q26 0 40.5 13.5t14.5 36.5z
" />
    <glyph glyph-name="seven.numr" horiz-adv-x="290" 
d="M275 700v-90l-125 -265h-95l125 265h-165v90h260z" />
    <glyph glyph-name="eight.numr" horiz-adv-x="320" 
d="M160 420q26 0 38 10t12 25t-12 25t-38 10t-38 -10t-12 -25t12 -25t38 -10zM160 565q19 0 29.5 9.5t10.5 20.5t-10.5 20.5t-29.5 9.5t-29.5 -9.5t-10.5 -20.5t10.5 -20.5t29.5 -9.5zM160 340q-36 0 -63 8.5t-45 23t-27.5 33.5t-9.5 40q0 26 10.5 42.5t24.5 26.5
q15 11 35 16q-16 6 -28 17q-11 9 -19 23t-8 35q0 42 33 71t97 29t97 -29t33 -71q0 -21 -8.5 -35t-19.5 -23q-12 -11 -27 -17q19 -5 35 -16q13 -10 24 -26.5t11 -42.5q0 -21 -9.5 -40t-27.5 -33.5t-45 -23t-63 -8.5z" />
    <glyph glyph-name="nine.numr" horiz-adv-x="315" 
d="M135 445q-57 11 -88.5 44t-31.5 86q0 57 38.5 93.5t106.5 36.5q64 0 102 -36.5t38 -93.5q0 -19 -4 -33.5t-9 -25.5q-5 -12 -12 -21l-110 -150h-100zM105 575q0 -23 14.5 -36.5t40.5 -13.5q23 0 36.5 13.5t13.5 36.5t-13.5 36.5t-36.5 13.5q-26 0 -40.5 -13.5t-14.5 -36.5
z" />
    <glyph glyph-name="zero.dnom" horiz-adv-x="370" 
d="M120 170q0 -49 19.5 -72t45.5 -23t45.5 23t19.5 72q0 53 -19.5 76.5t-45.5 23.5t-45.5 -23.5t-19.5 -76.5zM345 170q0 -41 -12.5 -74.5t-34 -57t-50.5 -36t-63 -12.5t-63 12.5t-50.5 36t-34 57t-12.5 74.5q0 43 12.5 77.5t34 58.5t50.5 36.5t63 12.5t63 -12.5t50.5 -36.5
t34 -58.5t12.5 -77.5z" />
    <glyph glyph-name="one.dnom" horiz-adv-x="230" 
d="M180 350v-355h-95v235h-60v75q34 4 52.5 19t22.5 26h80z" />
    <glyph glyph-name="two.dnom" horiz-adv-x="330" 
d="M295 240q0 -34 -16.5 -56t-39 -38.5t-46 -30t-38.5 -30.5h135v-90h-255q0 41 12 70t29.5 50t38.5 35.5t38.5 27.5t29.5 26t12 31q0 15 -10.5 25t-29.5 10q-11 0 -20 -6t-16 -14q-8 -9 -14 -20l-75 26q8 27 26 49q15 19 41 34.5t68 15.5q60 0 95 -33t35 -82z" />
    <glyph glyph-name="three.dnom" horiz-adv-x="335" 
d="M245 185q15 -7 27 -18q11 -10 19.5 -26.5t8.5 -40.5q0 -45 -35.5 -77.5t-99.5 -32.5q-40 0 -66 10t-43 22q-19 14 -31 33l55 55q8 -11 19 -20q10 -8 24 -14t34 -6q25 0 36.5 10t11.5 25q0 19 -12.5 29.5t-42.5 10.5h-35v75h35q23 0 31.5 7t8.5 18q0 14 -8.5 22t-31.5 8
q-14 0 -25.5 -5.5t-20.5 -12.5q-11 -8 -19 -17l-50 55q13 17 31 30q16 11 39.5 20.5t55.5 9.5q30 0 53.5 -8.5t40.5 -22.5t26 -32t9 -37t-7.5 -32.5t-15.5 -21.5q-10 -10 -22 -16z" />
    <glyph glyph-name="four.dnom" horiz-adv-x="330" 
d="M270 145h35v-85h-35v-65h-95v65h-160v85l155 205h100v-205zM175 145v85l-65 -85h65z" />
    <glyph glyph-name="five.dnom" horiz-adv-x="310" 
d="M180 225q24 0 45 -9t36.5 -25t24.5 -36.5t9 -44.5q0 -53 -36 -86.5t-104 -33.5q-40 0 -67.5 7.5t-44.5 17.5q-20 11 -33 25l50 60q9 -9 21 -15q11 -6 25.5 -10.5t33.5 -4.5q26 0 40.5 13t14.5 32t-13.5 32t-36.5 13q-11 0 -20 -2.5t-14 -5.5q-7 -4 -11 -7h-65l20 205h215
v-80h-135l-5 -55q6 2 14 5q7 2 16 3.5t20 1.5z" />
    <glyph glyph-name="six.dnom" horiz-adv-x="315" 
d="M180 250q57 -11 88.5 -44t31.5 -86q0 -57 -38.5 -93.5t-106.5 -36.5q-64 0 -102 36.5t-38 93.5q0 19 3.5 33.5t8.5 25.5q5 12 13 21l110 150h100zM210 120q0 23 -14.5 36.5t-40.5 13.5q-23 0 -36.5 -13.5t-13.5 -36.5t13.5 -36.5t36.5 -13.5q26 0 40.5 13.5t14.5 36.5z
" />
    <glyph glyph-name="seven.dnom" horiz-adv-x="290" 
d="M275 350v-90l-125 -265h-95l125 265h-165v90h260z" />
    <glyph glyph-name="eight.dnom" horiz-adv-x="320" 
d="M160 70q26 0 38 10t12 25t-12 25t-38 10t-38 -10t-12 -25t12 -25t38 -10zM160 215q19 0 29.5 9.5t10.5 20.5t-10.5 20.5t-29.5 9.5t-29.5 -9.5t-10.5 -20.5t10.5 -20.5t29.5 -9.5zM160 -10q-36 0 -63 8.5t-45 23t-27.5 33.5t-9.5 40q0 26 10.5 42.5t24.5 26.5
q15 11 35 16q-16 6 -28 17q-11 9 -19 23t-8 35q0 42 33 71t97 29t97 -29t33 -71q0 -21 -8.5 -35t-19.5 -23q-12 -11 -27 -17q19 -5 35 -16q13 -10 24 -26.5t11 -42.5q0 -21 -9.5 -40t-27.5 -33.5t-45 -23t-63 -8.5z" />
    <glyph glyph-name="nine.dnom" horiz-adv-x="315" 
d="M135 95q-57 11 -88.5 44t-31.5 86q0 57 38.5 93.5t106.5 36.5q64 0 102 -36.5t38 -93.5q0 -19 -4 -33.5t-9 -25.5q-5 -12 -12 -21l-110 -150h-100zM105 225q0 -23 14.5 -36.5t40.5 -13.5q23 0 36.5 13.5t13.5 36.5t-13.5 36.5t-36.5 13.5q-26 0 -40.5 -13.5t-14.5 -36.5z
" />
    <glyph glyph-name="Aogonek" unicode="&#x104;" horiz-adv-x="730" 
d="M500 165h-270l-60 -165h-160l275 700h160l275 -700h-90q-10 -14 -18 -31q-7 -14 -12 -32t-5 -37q0 -40 45 -40q21 0 36 5q8 2 14 5v-75q-9 -4 -21 -8q-11 -3 -25.5 -5t-33.5 -2q-49 0 -79.5 29.5t-30.5 72.5q0 26 9.5 47t20.5 37q13 18 30 34zM365 525l-85 -230h170z" />
    <glyph glyph-name="aogonek" unicode="&#x105;" horiz-adv-x="535" 
d="M230 100q45 0 72.5 28.5t27.5 81.5v15l-110 -20q-55 -9 -55 -55q0 -23 15.5 -36.5t49.5 -13.5zM330 50q-16 -17 -36 -30q-17 -11 -42 -20.5t-57 -9.5q-38 0 -68 11.5t-52 30.5t-33.5 44.5t-11.5 53.5q0 60 38.5 100t106.5 52l155 28q0 30 -21.5 50t-63.5 20q-29 0 -49 -8
t-34 -17q-16 -11 -27 -25l-75 75q20 26 49 47q24 18 60.5 33t85.5 15q47 0 85.5 -15t66.5 -41.5t43 -62t15 -76.5v-305h-65q-10 -14 -18 -31q-7 -14 -12 -32t-5 -37q0 -40 45 -40q21 0 36 5q8 2 14 5v-75q-9 -4 -21 -8q-11 -3 -25.5 -5t-33.5 -2q-49 0 -79.5 29.5
t-30.5 72.5q0 26 9.5 47t20.5 37q13 18 30 34v50z" />
    <glyph glyph-name="Iogonek" unicode="&#x12e;" horiz-adv-x="330" 
d="M30 -118q0 26 9.5 47t20.5 37q13 18 30 34v700h150v-700h-80q-10 -14 -18 -31q-7 -14 -12 -32t-5 -37q0 -40 45 -40q21 0 36 5q8 2 14 5v-75q-9 -4 -21 -8q-11 -3 -25.5 -5t-33.5 -2q-49 0 -79.5 29.5t-30.5 72.5z" />
    <glyph glyph-name="iogonek" unicode="&#x12f;" horiz-adv-x="275" 
d="M65 490h135v-490h-65q-10 -14 -18 -31q-7 -14 -12 -32t-5 -37q0 -40 45 -40q21 0 36 5q8 2 14 5v-75q-9 -4 -21 -8q-11 -3 -25.5 -5t-33.5 -2q-49 0 -79.5 29.5t-30.5 72.5q0 26 9.5 47t20.5 37q13 18 30 34v490zM210 630q0 -34 -21 -54.5t-59 -20.5q-34 0 -54.5 20.5
t-20.5 54.5t20.5 54.5t54.5 20.5q38 0 59 -20.5t21 -54.5z" />
    <glyph glyph-name="Uogonek" unicode="&#x172;" horiz-adv-x="780" 
d="M390 120q32 0 60 12.5t49 34.5t33.5 52t12.5 66v415h150v-415q0 -58 -19 -108.5t-53 -89.5t-81.5 -64.5t-103.5 -33.5q-8 -13 -18 -37t-10 -52q0 -40 45 -40q21 0 36 5q8 2 14 5v-75q-9 -4 -21 -8q-11 -3 -25.5 -5t-33.5 -2q-49 0 -79.5 29.5t-30.5 72.5q0 35 16 62.5
t30 42.5q-60 5 -110.5 29.5t-87.5 64t-57.5 92t-20.5 112.5v415h150v-415q0 -36 12.5 -66t33.5 -52t49 -34.5t60 -12.5z" />
    <glyph glyph-name="Ccedilla" unicode="&#xc7;" horiz-adv-x="755" 
d="M430 715q73 0 127.5 -22t90.5 -48q42 -31 72 -70l-95 -95q-21 28 -49 50q-25 19 -61 34.5t-85 15.5t-91 -17.5t-73 -48.5t-48.5 -73t-17.5 -90q0 -49 17.5 -91t48.5 -73t73 -48.5t91 -17.5q51 0 89 15.5t64 34.5q30 22 52 50l90 -95q-30 -37 -70 -67q-35 -27 -86.5 -48.5
t-120.5 -24.5l-18 -36q25 -1 45 -11q17 -8 31 -25t14 -49q0 -42 -28.5 -68.5t-81.5 -26.5q-26 0 -46.5 7t-34.5 15q-17 10 -29 23l30 55q9 -8 20 -13q9 -5 22 -8.5t28 -3.5q35 0 35 26q0 25 -35 25q-6 0 -10.5 -1t-7.5 -2q-4 -1 -7 -2l-25 30l30 67q-71 9 -131.5 40.5
t-104.5 80t-69 110.5t-25 131q0 75 29 141.5t80 116t120.5 78.5t150.5 29z" />
    <glyph glyph-name="ccedilla" unicode="&#xe7;" horiz-adv-x="525" 
d="M30 245q0 51 21 97t57 81t84.5 56t102.5 21q51 0 88.5 -15.5t62.5 -34.5q29 -22 49 -50l-85 -85q-12 18 -29 32q-14 12 -36 22.5t-50 10.5q-26 0 -49.5 -10.5t-41.5 -29t-28.5 -43t-10.5 -51.5q0 -28 10.5 -52.5t28.5 -43t41.5 -29t49.5 -10.5q28 0 50 10t38 22
q18 14 32 33l80 -85q-19 -25 -45 -47q-23 -18 -56.5 -34t-78.5 -19l-20 -41q25 -1 45 -11q17 -8 31 -25t14 -49q0 -42 -28.5 -68.5t-81.5 -26.5q-26 0 -46.5 7t-34.5 15q-17 10 -29 23l30 55q9 -8 20 -13q9 -5 22 -8.5t28 -3.5q35 0 35 26q0 25 -35 25q-6 0 -10.5 -1
t-7.5 -2q-4 -1 -7 -2l-25 30l33 74q-46 8 -86 31.5t-69 57t-46 75t-17 86.5z" />
    <glyph glyph-name="Eogonek" unicode="&#x118;" horiz-adv-x="665" 
d="M90 0v700h515v-135h-365v-140h285v-135h-285v-155h375v-135q-10 -14 -18 -31q-7 -14 -12 -32t-5 -37q0 -40 45 -40q21 0 36 5q8 2 14 5v-75q-9 -4 -21 -8q-11 -3 -25.5 -5t-33.5 -2q-49 0 -79.5 29.5t-30.5 72.5q0 26 9.5 47t20.5 37q13 18 30 34h-455z" />
    <glyph glyph-name="eogonek" unicode="&#x119;" horiz-adv-x="570" 
d="M170 200q8 -38 40.5 -66.5t89.5 -28.5q32 0 56 9.5t41 20.5q19 13 33 30l70 -90q-18 -19 -44 -36q-22 -14 -53.5 -27.5t-72.5 -18.5q-7 -11 -18.5 -37t-11.5 -56q0 -40 45 -40q21 0 36 5q8 2 14 5v-75q-9 -4 -21 -8q-11 -3 -25.5 -5t-33.5 -2q-49 0 -79.5 29.5
t-30.5 72.5q0 20 5.5 37.5t14 31.5t17 24.5t14.5 16.5q-48 6 -89.5 28t-72 56t-47.5 77.5t-17 91.5q0 52 20 98.5t55 81.5t81 55t99 20q52 0 97 -18.5t78 -51.5t51.5 -78t18.5 -97q0 -14 -1 -24t-2 -17q-1 -8 -2 -14h-355zM285 385q-45 0 -74.5 -26t-40.5 -64h225
q-8 38 -36.5 64t-73.5 26z" />
    <glyph glyph-name="Scedilla" unicode="&#x15e;" 
d="M395 205q0 32 -25.5 50t-64 31t-83 26.5t-83 36.5t-64 60.5t-25.5 100.5q0 41 17 78.5t49 65.5t77.5 44.5t101.5 16.5q58 0 101 -15t72 -33q33 -21 57 -47l-90 -95q-16 17 -35 30q-17 11 -41 20.5t-54 9.5q-45 0 -70 -22.5t-25 -52.5q0 -33 25.5 -50.5t64 -30.5t83 -26.5
t83 -36.5t64 -61t25.5 -100q0 -44 -15.5 -82t-45 -67t-72.5 -47.5t-99 -22.5l-18 -36q25 -1 45 -11q17 -8 31 -25t14 -49q0 -42 -28.5 -68.5t-81.5 -26.5q-26 0 -46.5 7t-34.5 15q-17 10 -29 23l30 55q9 -8 20 -13q9 -5 22 -8.5t28 -3.5q35 0 35 25t-35 25q-6 0 -10.5 -1
t-7.5 -2q-4 -1 -7 -2l-25 30l30 67q-57 5 -100 23.5t-72 38.5q-34 23 -58 51l90 90q18 -21 43 -38q21 -14 51.5 -25.5t70.5 -11.5q57 0 86 26t29 64z" />
    <glyph glyph-name="scedilla" unicode="&#x15f;" horiz-adv-x="455" 
d="M330 345q-9 11 -21 20q-11 8 -25.5 14t-33.5 6q-30 0 -45 -12.5t-15 -27.5q0 -17 16.5 -27.5t41.5 -19t54.5 -18t54.5 -26t41.5 -42.5t16.5 -67q0 -59 -42.5 -102t-122.5 -51l-20 -42q25 -1 45 -11q17 -8 31 -25t14 -49q0 -42 -28.5 -68.5t-81.5 -26.5q-26 0 -46.5 7
t-34.5 15q-17 10 -29 23l30 55q9 -8 20 -13q9 -5 22 -8.5t28 -3.5q35 0 35 25t-35 25q-6 0 -10.5 -1t-7.5 -2q-4 -1 -7 -2l-25 30l32 73q-43 5 -73 19t-50 29q-23 18 -39 39l75 75q12 -16 28 -28q14 -11 33 -19t44 -8q34 0 49.5 13t15.5 32t-16.5 29.5t-41.5 19.5
t-54.5 18.5t-54.5 25.5t-41.5 41t-16.5 66q0 28 14 56t39.5 50t60.5 35.5t76 13.5q43 0 75 -12t53 -26q25 -17 42 -37z" />
    <glyph glyph-name="uogonek" unicode="&#x173;" 
d="M390 50q-15 -17 -36 -30q-18 -11 -44 -20.5t-60 -9.5q-41 0 -76 14.5t-60.5 41.5t-39.5 65t-14 86v293h135v-280q0 -42 26.5 -68.5t68.5 -26.5q45 0 72.5 29t27.5 86v260h135v-490h-65q-10 -14 -18 -31q-7 -14 -12 -32t-5 -37q0 -40 45 -40q21 0 36 5q8 2 14 5v-75
q-9 -4 -21 -8q-11 -3 -25.5 -5t-33.5 -2q-49 0 -79.5 29.5t-30.5 72.5q0 26 9.5 47t20.5 37q13 18 30 34v50z" />
    <glyph glyph-name="nonbreakingspace" unicode="&#xa0;" horiz-adv-x="205" 
 />
    <glyph glyph-name="uni021A" unicode="&#x21a;" horiz-adv-x="590" 
d="M570 700v-135h-200v-565h-150v565h-200v135h550zM230 -80h125l-70 -150h-100z" />
    <glyph glyph-name="uni021B" unicode="&#x21b;" horiz-adv-x="405" 
d="M120 635h120v-155h100v-120h-100v-195q0 -23 17 -39t43 -16q21 0 36 5q8 2 14 5v-115q-12 -4 -26 -8q-12 -3 -28.5 -5t-35.5 -2q-75 0 -115 41.5t-40 128.5v200h-85v120h45q23 0 39 17.5t16 47.5v90zM170 -80h125l-70 -150h-100z" />
    <glyph glyph-name="foundryicon" horiz-adv-x="1538" 
d="M278 429h-72v-199h-35v199h-71v31h178v-31zM519 396q32 0 54.5 -24.5t22.5 -59.5q0 -36 -22.5 -60.5t-54.5 -24.5q-29 0 -47 21v-79h-34v224h24l9 -19q8 10 20.5 16t27.5 6zM516 258q19 0 33 15.5t14 38.5q0 21 -14 36.5t-33 15.5q-20 0 -33.5 -15.5t-13.5 -36.5
q0 -23 13.5 -38.5t33.5 -15.5zM377 393h37l-77 -190q-16 -34 -49 -34q-7 0 -10 1v28q23 0 31 20l6 16l-63 159h37l44 -116zM701 396q32 0 54 -24t22 -59q0 -2 -0.5 -4.5t-0.5 -4.5v-6h-119q2 -17 14.5 -29t29.5 -12q12 0 22 4t15 13h35q-9 -23 -29 -35t-43 -12
q-32 0 -55 24.5t-23 60.5q0 17 6 32.5t16.5 27t25 18t30.5 6.5zM745 325q-1 17 -14.5 28.5t-29.5 11.5t-29 -10.5t-15 -29.5h88zM939 429h-72v-199h-35v199h-71v31h178v-31zM1180 396q32 0 54.5 -24.5t22.5 -59.5q0 -36 -22.5 -60.5t-54.5 -24.5q-29 0 -47 21v-79h-34v224
h24l9 -19q8 10 20.5 16t27.5 6zM1177 258q19 0 33 15.5t14 38.5q0 21 -14 36.5t-33 15.5q-20 0 -33.5 -15.5t-13.5 -36.5q0 -23 13.5 -38.5t33.5 -15.5zM1038 393h37l-77 -190q-16 -34 -49 -34q-7 0 -10 1v28q23 0 31 20l6 16l-63 159h37l44 -116zM1362 396q32 0 54 -24
t22 -59q0 -2 -0.5 -4.5t-0.5 -4.5v-6h-119q2 -17 14.5 -29t29.5 -12q12 0 22 4t15 13h35q-9 -23 -29 -35t-43 -12q-32 0 -55 24.5t-23 60.5q0 17 6 32.5t16.5 27t25 18t30.5 6.5zM1406 325q-1 17 -14.5 28.5t-29.5 11.5t-29 -10.5t-15 -29.5h88z" />
    </font>
</defs>
</svg>
