<svg xmlns="http://www.w3.org/2000/svg" width="48" height="45.943" viewBox="0 0 48 45.943">
  <g id="Agrupar_186" data-name="Agrupar 186" transform="translate(-382 -1766.057)">
    <text id="Botânica" transform="translate(406 1809)" fill="#c4c4c4" font-size="12" font-family="Helvetica"><tspan x="-23.35" y="0">Botânica</tspan></text>
    <g id="plant" transform="translate(394.055 1766.057)">
      <g id="Agrupar_65" data-name="Agrupar 65" transform="translate(18.096 11.613)">
        <g id="Agrupar_64" data-name="Agrupar 64">
          <path id="Caminho_27" data-name="Caminho 27" d="M348.436,223.243a.521.521,0,0,0-.709-.2l-.027.016a.521.521,0,1,0,.516.905l.021-.012A.521.521,0,0,0,348.436,223.243Z" transform="translate(-347.437 -222.976)" fill="#c4c4c4"/>
        </g>
      </g>
      <g id="Agrupar_67" data-name="Agrupar 67" transform="translate(9.688 15.468)">
        <g id="Agrupar_66" data-name="Agrupar 66">
          <path id="Caminho_28" data-name="Caminho 28" d="M186.89,297.155a.52.52,0,1,0,.153.368A.525.525,0,0,0,186.89,297.155Z" transform="translate(-186.001 -297.002)" fill="#c4c4c4"/>
        </g>
      </g>
      <g id="Agrupar_69" data-name="Agrupar 69" transform="translate(0.001 0)">
        <g id="Agrupar_68" data-name="Agrupar 68">
          <path id="Caminho_29" data-name="Caminho 29" d="M13.438,13.124H12.163a18.461,18.461,0,0,0,1.471-5.233l.217-1.7a.521.521,0,0,0-.871-.447L12.8,5.9a14.475,14.475,0,0,0-1.936,2.2A30.444,30.444,0,0,1,12.553,2.3l0-.006a.521.521,0,0,0-.78-.638A14.332,14.332,0,0,0,9.012,4.3a11.887,11.887,0,0,1,1-3.564A.521.521,0,0,0,9.3.055L8.342.538A5.375,5.375,0,0,0,5.473,4.25,8.009,8.009,0,0,0,2.879,2.275l-1.4-.67A.521.521,0,0,0,.8,2.326L.89,2.5A23.076,23.076,0,0,1,3.058,8.017,6.818,6.818,0,0,0,1.922,7.33L.746,6.769a.521.521,0,0,0-.681.721l.078.143a19.266,19.266,0,0,1,2.01,5.492H.522A.521.521,0,0,0,0,13.645v8.619a4.406,4.406,0,0,0,4.4,4.4H9.558a4.406,4.406,0,0,0,4.4-4.4V13.645A.521.521,0,0,0,13.438,13.124Zm-.814-5.551L12.6,7.76a17.425,17.425,0,0,1-1.586,5.365H9.666A13.269,13.269,0,0,1,12.624,7.574ZM10.892,3.767a55.722,55.722,0,0,0-1.608,7.2s0,.006,0,.009a14.462,14.462,0,0,0-.689,2.146H6.936A13.3,13.3,0,0,1,10.892,3.767ZM6.4,5.373A4.34,4.34,0,0,1,8.55,1.61a12.938,12.938,0,0,0-.661,4.065V5.82a.52.52,0,0,0,.009.1c-.158.266-.309.537-.449.813q-.159.312-.3.632a8.011,8.011,0,0,0-.77-1.839A.52.52,0,0,0,6.4,5.373ZM2.43,3.215h0A7.014,7.014,0,0,1,6.4,9.452a14.336,14.336,0,0,0-.5,3.672H5.786A6.8,6.8,0,0,0,4.747,9.843c-.1-.166-.217-.326-.334-.481A24.108,24.108,0,0,0,2.43,3.215Zm-.74,5.164a5.8,5.8,0,0,1,3.054,4.745H3.216A20.3,20.3,0,0,0,1.689,8.379ZM12.917,22.265a3.363,3.363,0,0,1-3.359,3.359H4.4a3.363,3.363,0,0,1-3.359-3.359V16.51H8.2a.521.521,0,1,0,0-1.042H1.043v-1.3H12.917Z" transform="translate(-0.001 0)" fill="#c4c4c4"/>
        </g>
      </g>
      <g id="Agrupar_71" data-name="Agrupar 71" transform="translate(15.729 5.321)">
        <g id="Agrupar_70" data-name="Agrupar 70">
          <path id="Caminho_30" data-name="Caminho 30" d="M312.827,115.592a.521.521,0,0,0-.41-.2H309.6v-3.847a3.366,3.366,0,0,0-.061-.635l1.909-1.286a2.483,2.483,0,0,0-.174-4.226l-.02-.01a2.489,2.489,0,0,0-2.561.2v-1.429a1.983,1.983,0,0,0-2.878-1.77l-.02.01a1.983,1.983,0,0,0-.138,3.376l2.039,1.372a2.463,2.463,0,0,0-.044.462v.872a3.4,3.4,0,0,0-1.066-.3.521.521,0,0,0-.116,1.035,2.329,2.329,0,0,1,1.333.609l.025.023a2.386,2.386,0,0,1,.232.257,2.36,2.36,0,0,1,.5,1.445v3.846h-.645L305,113.437a2.348,2.348,0,0,1-.829-2.916.521.521,0,0,0-.949-.429,3.39,3.39,0,0,0,1.2,4.209l1.622,1.092h-3.522a.521.521,0,0,0-.506.645l1.737,7.083a.521.521,0,0,0,.506.4h6.422a.521.521,0,0,0,.506-.4l1.737-7.083A.521.521,0,0,0,312.827,115.592Zm-6.591-10.684a.912.912,0,1,1,1.413-.752v1.7ZM309,106.719a1.4,1.4,0,1,1,1.867,2.043l-1.693,1.14a3.364,3.364,0,0,0-.292-.442c-.06-.076-.122-.149-.187-.219v-1.635A1.448,1.448,0,0,1,309,106.719Zm2.323,11.486H305.56a.521.521,0,1,0,0,1.042h5.5l-.792,3.229h-5.6l-1.481-6.041h8.567Z" transform="translate(-302.001 -102.173)" fill="#c4c4c4"/>
        </g>
      </g>
    </g>
  </g>
</svg>
