<svg xmlns="http://www.w3.org/2000/svg" width="101.19" height="33.158" viewBox="0 0 101.19 33.158">
  <g id="Agrupar_187" data-name="Agrupar 187" transform="translate(-808.81 -1777.81)">
    <text id="Botânica" transform="translate(880 1801)" fill="#d8ad2c" font-size="15" font-family="Helvetica"><tspan x="-29.187" y="0">Botânica</tspan></text>
    <g id="plant" transform="translate(808.809 1777.81)">
      <g id="Agrupar_65" data-name="Agrupar 65" transform="translate(22.501 14.44)">
        <g id="Agrupar_64" data-name="Agrupar 64">
          <path id="Caminho_27" data-name="Caminho 27" d="M348.68,223.308a.648.648,0,0,0-.881-.249l-.034.019a.648.648,0,1,0,.641,1.125l.026-.015A.648.648,0,0,0,348.68,223.308Z" transform="translate(-347.437 -222.976)" fill="#d8ad2c"/>
        </g>
      </g>
      <g id="Agrupar_67" data-name="Agrupar 67" transform="translate(12.046 19.234)">
        <g id="Agrupar_66" data-name="Agrupar 66">
          <path id="Caminho_28" data-name="Caminho 28" d="M187.106,297.192a.647.647,0,1,0,.19.458A.652.652,0,0,0,187.106,297.192Z" transform="translate(-186.001 -297.002)" fill="#d8ad2c"/>
        </g>
      </g>
      <g id="Agrupar_69" data-name="Agrupar 69" transform="translate(0.001 0)">
        <g id="Agrupar_68" data-name="Agrupar 68">
          <path id="Caminho_29" data-name="Caminho 29" d="M16.709,16.32H15.124a22.956,22.956,0,0,0,1.829-6.508L17.222,7.7a.648.648,0,0,0-1.083-.556l-.217.2a18,18,0,0,0-2.408,2.739,37.856,37.856,0,0,1,2.095-7.222l0-.007a.648.648,0,0,0-.97-.793A17.821,17.821,0,0,0,11.206,5.35,14.781,14.781,0,0,1,12.449.918a.648.648,0,0,0-.878-.85l-1.2.6A6.684,6.684,0,0,0,6.8,5.285,9.959,9.959,0,0,0,3.58,2.829L1.836,2a.648.648,0,0,0-.847.9l.116.212A28.694,28.694,0,0,1,3.8,9.969,8.478,8.478,0,0,0,2.39,9.115l-1.462-.7a.648.648,0,0,0-.847.9l.1.177a23.957,23.957,0,0,1,2.5,6.829H.649A.648.648,0,0,0,0,16.967V27.685a5.478,5.478,0,0,0,5.472,5.472h6.411a5.478,5.478,0,0,0,5.472-5.472V16.967A.648.648,0,0,0,16.709,16.32ZM15.7,9.418l-.029.231A21.668,21.668,0,0,1,13.7,16.32H12.019A16.5,16.5,0,0,1,15.7,9.418ZM13.544,4.684a69.289,69.289,0,0,0-2,8.956s0,.007,0,.011a17.984,17.984,0,0,0-.857,2.669H8.624A16.543,16.543,0,0,1,13.544,4.684Zm-5.588,2A5.4,5.4,0,0,1,10.631,2a16.089,16.089,0,0,0-.822,5.054v.18a.647.647,0,0,0,.011.119c-.2.331-.384.667-.558,1.011q-.2.388-.375.786a9.962,9.962,0,0,0-.957-2.287A.647.647,0,0,0,7.956,6.681ZM3.021,4h0a8.722,8.722,0,0,1,4.935,7.756,17.827,17.827,0,0,0-.627,4.566H7.195A8.455,8.455,0,0,0,5.9,12.24c-.13-.206-.27-.405-.416-.6A29.978,29.978,0,0,0,3.021,4ZM2.1,10.419a7.216,7.216,0,0,1,3.8,5.9H4A25.239,25.239,0,0,0,2.1,10.419ZM16.062,27.685a4.182,4.182,0,0,1-4.177,4.177H5.473A4.182,4.182,0,0,1,1.3,27.685V20.529h8.9a.648.648,0,0,0,0-1.3H1.3V17.615H16.062Z" transform="translate(-0.001 0)" fill="#d8ad2c"/>
        </g>
      </g>
      <g id="Agrupar_71" data-name="Agrupar 71" transform="translate(19.559 6.617)">
        <g id="Agrupar_70" data-name="Agrupar 70">
          <path id="Caminho_30" data-name="Caminho 30" d="M315.463,118.859a.648.648,0,0,0-.51-.248h-3.508v-4.783a4.188,4.188,0,0,0-.076-.789l2.374-1.6a3.087,3.087,0,0,0-.216-5.255l-.024-.013a3.1,3.1,0,0,0-3.184.243v-1.777a2.466,2.466,0,0,0-3.579-2.2l-.024.013a2.466,2.466,0,0,0-.172,4.2l2.535,1.706a3.062,3.062,0,0,0-.055.575v1.084a4.226,4.226,0,0,0-1.326-.373.648.648,0,0,0-.144,1.287,2.9,2.9,0,0,1,1.657.757l.031.028a2.967,2.967,0,0,1,.289.319,2.934,2.934,0,0,1,.619,1.8v4.783h-.8l-3.614-2.432a2.92,2.92,0,0,1-1.03-3.626.648.648,0,0,0-1.18-.534,4.215,4.215,0,0,0,1.487,5.234l2.017,1.358h-4.38a.648.648,0,0,0-.629.8l2.159,8.807a.648.648,0,0,0,.629.493h7.986a.648.648,0,0,0,.629-.493l2.159-8.807A.648.648,0,0,0,315.463,118.859Zm-8.2-13.286a1.134,1.134,0,1,1,1.756-.935v2.117Zm3.431,2.252a1.742,1.742,0,1,1,2.321,2.541l-2.105,1.417a4.18,4.18,0,0,0-.362-.55c-.074-.095-.152-.185-.233-.272v-2.033A1.8,1.8,0,0,1,310.7,107.825Zm2.889,14.283h-7.161a.648.648,0,1,0,0,1.3h6.844l-.984,4.015h-6.97l-1.842-7.512h10.653Z" transform="translate(-302.001 -102.173)" fill="#d8ad2c"/>
        </g>
      </g>
    </g>
  </g>
</svg>
