<svg xmlns="http://www.w3.org/2000/svg" width="144.977" height="27.987" viewBox="0 0 144.977 27.987">
  <g id="Agrupar_184" data-name="Agrupar 184" transform="translate(-321.023 -1781.1)">
    <text id="Entretenimento" transform="translate(415 1801)" fill="#d8ad2c" font-size="15" font-family="Helvetica"><tspan x="-50.863" y="0">Entretenimento</tspan></text>
    <g id="confetti" transform="translate(320.941 1781.1)">
      <g id="Agrupar_7" data-name="Agrupar 7" transform="translate(0.082 6.613)">
        <g id="Agrupar_6" data-name="Agrupar 6" transform="translate(0)">
          <path id="Caminho_5" data-name="Caminho 5" d="M19.16,124.406a.466.466,0,0,0-.877.316l.007.018c.425,1.11.456,1.958.084,2.331-.451.45-1.575.31-3.008-.376a19.944,19.944,0,0,1-5.161-3.851c-3.652-3.653-5.159-7.237-4.227-8.169a1.274,1.274,0,0,1,1.055-.246.466.466,0,0,0,.09-.928,2.147,2.147,0,0,0-1.8.513c-1.708,1.708.9,6.163,4.227,9.487a20.852,20.852,0,0,0,5.418,4.033,9.185,9.185,0,0,0,1.125.45l-3.313,1.256a13.2,13.2,0,0,1-8.346-10.278.466.466,0,0,0-.921.145,14.116,14.116,0,0,0,8.008,10.61L6.063,131.78a.458.458,0,0,0-.093-.111,6.5,6.5,0,0,1-2.406-4.515l-.216-2.62a.461.461,0,0,0-.491-.429H2.842a.466.466,0,0,0-.428.5v0l.22,2.619A7.427,7.427,0,0,0,5.1,132.143l-3.89,1.472.7-2.87a.466.466,0,0,0-.906-.221l-.91,3.73a.466.466,0,0,0,.618.547l17.252-6.528a.435.435,0,0,0,.077-.048,1.811,1.811,0,0,0,.99-.494C19.495,127.269,19.893,126.316,19.16,124.406Z" transform="translate(-0.082 -113.468)" fill="#d8ad2c"/>
        </g>
      </g>
      <g id="Agrupar_9" data-name="Agrupar 9" transform="translate(13.616 15.374)">
        <g id="Agrupar_8" data-name="Agrupar 8">
          <path id="Caminho_6" data-name="Caminho 6" d="M242.238,264.756a15.354,15.354,0,0,0-7.9-.767l-1.666.28a.466.466,0,0,0,.154.919l1.665-.277a14.411,14.411,0,0,1,7.419.721.48.48,0,0,0,.164.027.466.466,0,0,0,.164-.9Z" transform="translate(-232.294 -263.781)" fill="#d8ad2c"/>
        </g>
      </g>
      <g id="Agrupar_11" data-name="Agrupar 11" transform="translate(14.539 8.859)">
        <g id="Agrupar_10" data-name="Agrupar 10">
          <path id="Caminho_7" data-name="Caminho 7" d="M258.8,152.263a.466.466,0,0,0-.622-.221l-9.791,4.663a.466.466,0,0,0-.221.621h0a.466.466,0,0,0,.621.221h0l9.791-4.663A.466.466,0,0,0,258.8,152.263Z" transform="translate(-248.126 -151.997)" fill="#d8ad2c"/>
        </g>
      </g>
      <g id="Agrupar_13" data-name="Agrupar 13" transform="translate(9.086 2.791)">
        <g id="Agrupar_12" data-name="Agrupar 12">
          <path id="Caminho_8" data-name="Caminho 8" d="M156.9,48.261a.466.466,0,1,0-.914.186l0,.017a13.043,13.043,0,0,1-.7,7.884l-.678,1.627a.466.466,0,0,0,.25.608.459.459,0,0,0,.179.036.466.466,0,0,0,.43-.287l.678-1.625A13.969,13.969,0,0,0,156.9,48.261Z" transform="translate(-154.576 -47.887)" fill="#d8ad2c"/>
        </g>
      </g>
      <g id="Agrupar_15" data-name="Agrupar 15" transform="translate(24.329 16.785)">
        <g id="Agrupar_14" data-name="Agrupar 14">
          <path id="Caminho_9" data-name="Caminho 9" d="M417.5,288a1.4,1.4,0,1,0,1.4,1.4A1.4,1.4,0,0,0,417.5,288Zm0,1.865a.466.466,0,1,1,.466-.466A.466.466,0,0,1,417.5,289.865Z" transform="translate(-416.105 -288)" fill="#d8ad2c"/>
        </g>
      </g>
      <g id="Agrupar_17" data-name="Agrupar 17" transform="translate(13.139 3.73)">
        <g id="Agrupar_16" data-name="Agrupar 16">
          <path id="Caminho_10" data-name="Caminho 10" d="M225.5,64a1.4,1.4,0,1,0,1.4,1.4A1.4,1.4,0,0,0,225.5,64Zm0,1.865a.466.466,0,1,1,.466-.466A.466.466,0,0,1,225.5,65.865Z" transform="translate(-224.105 -64)" fill="#d8ad2c"/>
        </g>
      </g>
      <g id="Agrupar_19" data-name="Agrupar 19" transform="translate(9.409)">
        <g id="Agrupar_18" data-name="Agrupar 18">
          <circle id="Elipse_1" data-name="Elipse 1" cx="0.933" cy="0.933" r="0.933" fill="#d8ad2c"/>
        </g>
      </g>
      <g id="Agrupar_21" data-name="Agrupar 21" transform="translate(22.93 2.331)">
        <g id="Agrupar_20" data-name="Agrupar 20">
          <path id="Caminho_11" data-name="Caminho 11" d="M392.571,40a.466.466,0,0,0-.466.466v.466a.466.466,0,0,0,.933,0v-.466A.466.466,0,0,0,392.571,40Z" transform="translate(-392.105 -40)" fill="#d8ad2c"/>
        </g>
      </g>
      <g id="Agrupar_23" data-name="Agrupar 23" transform="translate(22.93)">
        <g id="Agrupar_22" data-name="Agrupar 22">
          <path id="Caminho_12" data-name="Caminho 12" d="M392.571,0a.466.466,0,0,0-.466.466V.933a.466.466,0,0,0,.933,0V.466A.466.466,0,0,0,392.571,0Z" transform="translate(-392.105)" fill="#d8ad2c"/>
        </g>
      </g>
      <g id="Agrupar_25" data-name="Agrupar 25" transform="translate(23.863 1.399)">
        <g id="Agrupar_24" data-name="Agrupar 24">
          <path id="Caminho_13" data-name="Caminho 13" d="M409.038,24h-.466a.466.466,0,0,0,0,.933h.466a.466.466,0,0,0,0-.933Z" transform="translate(-408.105 -24)" fill="#d8ad2c"/>
        </g>
      </g>
      <g id="Agrupar_27" data-name="Agrupar 27" transform="translate(21.531 1.399)">
        <g id="Agrupar_26" data-name="Agrupar 26">
          <path id="Caminho_14" data-name="Caminho 14" d="M369.038,24h-.466a.466.466,0,1,0,0,.933h.466a.466.466,0,1,0,0-.933Z" transform="translate(-368.105 -24)" fill="#d8ad2c"/>
        </g>
      </g>
      <g id="Agrupar_29" data-name="Agrupar 29" transform="translate(17.325 5.119)">
        <g id="Agrupar_28" data-name="Agrupar 28">
          <path id="Caminho_15" data-name="Caminho 15" d="M298.744,87.832H296.4a.466.466,0,0,0-.466.466v2.341a.466.466,0,0,0,.466.466h2.341a.466.466,0,0,0,.466-.466V88.3A.466.466,0,0,0,298.744,87.832Zm-.466,2.341H296.87V88.765h1.409Z" transform="translate(-295.937 -87.832)" fill="#d8ad2c"/>
        </g>
      </g>
      <g id="Agrupar_31" data-name="Agrupar 31" transform="translate(11.274 8.865)">
        <g id="Agrupar_30" data-name="Agrupar 30">
          <path id="Caminho_16" data-name="Caminho 16" d="M197.569,152.253a.466.466,0,0,0-.645-.034l-4.663,4.2a.466.466,0,1,0,.624.693l4.663-4.2A.466.466,0,0,0,197.569,152.253Z" transform="translate(-192.107 -152.105)" fill="#d8ad2c"/>
        </g>
      </g>
      <g id="Agrupar_33" data-name="Agrupar 33" transform="translate(24.795 10.724)">
        <g id="Agrupar_32" data-name="Agrupar 32">
          <path id="Caminho_17" data-name="Caminho 17" d="M424.571,184a.466.466,0,0,0-.466.466v.466a.466.466,0,0,0,.933,0v-.466A.466.466,0,0,0,424.571,184Z" transform="translate(-424.105 -184)" fill="#d8ad2c"/>
        </g>
      </g>
      <g id="Agrupar_35" data-name="Agrupar 35" transform="translate(26.12 10.183)">
        <g id="Agrupar_34" data-name="Agrupar 34">
          <path id="Caminho_18" data-name="Caminho 18" d="M447.955,175.182l-.33-.33a.466.466,0,0,0-.659.659l.33.33a.466.466,0,0,0,.659-.659Z" transform="translate(-446.836 -174.722)" fill="#d8ad2c"/>
        </g>
      </g>
      <g id="Agrupar_37" data-name="Agrupar 37" transform="translate(26.66 8.859)">
        <g id="Agrupar_36" data-name="Agrupar 36">
          <path id="Caminho_19" data-name="Caminho 19" d="M457.038,152h-.466a.466.466,0,0,0,0,.933h.466a.466.466,0,0,0,0-.933Z" transform="translate(-456.105 -152)" fill="#d8ad2c"/>
        </g>
      </g>
      <g id="Agrupar_39" data-name="Agrupar 39" transform="translate(26.114 7.216)">
        <g id="Agrupar_38" data-name="Agrupar 38">
          <path id="Caminho_20" data-name="Caminho 20" d="M447.853,123.949a.466.466,0,0,0-.648,0l-.33.33a.466.466,0,0,0,.33.8h0a.466.466,0,0,0,.33-.137l.33-.33A.466.466,0,0,0,447.853,123.949Z" transform="translate(-446.739 -123.818)" fill="#d8ad2c"/>
        </g>
      </g>
      <g id="Agrupar_41" data-name="Agrupar 41" transform="translate(24.795 6.528)">
        <g id="Agrupar_40" data-name="Agrupar 40">
          <path id="Caminho_21" data-name="Caminho 21" d="M424.571,112a.466.466,0,0,0-.466.466v.466a.466.466,0,0,0,.933,0v-.466A.466.466,0,0,0,424.571,112Z" transform="translate(-424.105 -112)" fill="#d8ad2c"/>
        </g>
      </g>
      <g id="Agrupar_43" data-name="Agrupar 43" transform="translate(23.152 7.216)">
        <g id="Agrupar_42" data-name="Agrupar 42">
          <path id="Caminho_22" data-name="Caminho 22" d="M397.035,124.279l-.33-.33a.466.466,0,0,0-.659.659l.33.33a.466.466,0,0,0,.659-.659Z" transform="translate(-395.915 -123.818)" fill="#d8ad2c"/>
        </g>
      </g>
      <g id="Agrupar_45" data-name="Agrupar 45" transform="translate(0.083 0.021)">
        <g id="Agrupar_44" data-name="Agrupar 44" transform="translate(0)">
          <path id="Caminho_23" data-name="Caminho 23" d="M5.668,2.356a.466.466,0,0,0-.376-.317l-1.368-.2L3.313.6a.485.485,0,0,0-.836,0L1.863,1.84l-1.368.2a.466.466,0,0,0-.259.795l.99.965L.992,5.162a.466.466,0,0,0,.677.493L2.893,5.01l1.224.643a.466.466,0,0,0,.677-.491L4.56,3.8l.99-.965A.466.466,0,0,0,5.668,2.356ZM3.732,3.3a.466.466,0,0,0-.134.412l.116.674-.6-.318a.466.466,0,0,0-.434,0l-.606.318.116-.674A.466.466,0,0,0,2.054,3.3l-.49-.477.677-.1a.466.466,0,0,0,.351-.255l.3-.612.3.612a.466.466,0,0,0,.351.255l.676.1Z" transform="translate(-0.095 -0.361)" fill="#d8ad2c"/>
        </g>
      </g>
      <g id="Agrupar_47" data-name="Agrupar 47" transform="translate(21.076 20.051)">
        <g id="Agrupar_46" data-name="Agrupar 46">
          <path id="Caminho_24" data-name="Caminho 24" d="M365.7,347.351h0l-.192-.288a7.036,7.036,0,0,0-4.682-3.027.466.466,0,0,0-.154.919,6.1,6.1,0,0,1,3.558,1.983,2.751,2.751,0,0,0-1.865,1.281,1.865,1.865,0,0,0,3.257,1.818,2.7,2.7,0,0,0,.3-1.2,2.278,2.278,0,0,1,.1,2.421.466.466,0,0,0,.8.476l.012-.022A3.255,3.255,0,0,0,365.7,347.351Zm-.893,2.232a.933.933,0,0,1-1.633-.9l0-.008a1.747,1.747,0,0,1,1.263-.822.474.474,0,0,1,.233.054C365.07,348.126,365.091,349.078,364.809,349.583Z" transform="translate(-360.294 -344.031)" fill="#d8ad2c"/>
        </g>
      </g>
    </g>
  </g>
</svg>
