<svg xmlns="http://www.w3.org/2000/svg" width="126.507" height="31.744" viewBox="0 0 126.507 31.744">
  <g id="Agrupar_186" data-name="Agrupar 186" transform="translate(-562.493 -1778.977)">
    <g id="Agrupar_185" data-name="Agrupar 185">
      <text id="Gastronomia" transform="translate(646 1800)" fill="#c4c4c4" font-size="15" font-family="Helvetica"><tspan x="-42.935" y="0">Gastronomia</tspan></text>
      <g id="cooking" transform="translate(562.493 1774.561)">
        <g id="Agrupar_49" data-name="Agrupar 49" transform="translate(0 4.416)">
          <g id="Agrupar_48" data-name="Agrupar 48" transform="translate(0 0)">
            <path id="Caminho_25" data-name="Caminho 25" d="M31.744,32.932H28.462l-.8-7.569.882,1.323.218,1.094a1.8,1.8,0,1,0,3.383-1.16l-.461-.922a.059.059,0,0,0-.007-.009s0-.005,0-.008l-3.228-5.918a.541.541,0,0,0-.272-.242l-1.458-.583a4.806,4.806,0,0,0,1.19-6.084l-.278-2.777a2.129,2.129,0,0,0,1.422-1.893A2.445,2.445,0,0,0,26.47,6.032a3.227,3.227,0,0,0-5.592,0,2.445,2.445,0,0,0-2.584,2.151,2.129,2.129,0,0,0,1.422,1.893l-.278,2.777a4.8,4.8,0,0,0,1.19,6.083l-1.458.583a.538.538,0,0,0-.22.164l-1.816,2.27L14.94,20.2l-.586-.977a2.035,2.035,0,0,0-.364-.436V17.329a1.612,1.612,0,0,0-1.076-1.515V13.563h.538a1.616,1.616,0,0,0,1.614-1.614V8.72a1.616,1.616,0,0,0-1.614-1.614H11.3A1.616,1.616,0,0,0,9.686,8.72v3.228A1.616,1.616,0,0,0,11.3,13.563h.538v2.251a1.612,1.612,0,0,0-1.076,1.515v2.154A2,2,0,0,0,11.578,22l1.018.611,3.577,3.13a1.607,1.607,0,0,0,2.1.025l1.5-1.254-.887,8.423H9.479l.631-1.262a2.688,2.688,0,0,0,1.727-2.5V27.991a1.61,1.61,0,0,0-.538-3.129H1.614a1.61,1.61,0,0,0-.538,3.129v1.175A2.688,2.688,0,0,0,2.8,31.67l.631,1.262H.538A.538.538,0,0,0,0,33.47v2.152a.538.538,0,0,0,.538.538H31.744a.538.538,0,0,0,.538-.538V33.47A.538.538,0,0,0,31.744,32.932ZM11.837,12.487H11.3a.539.539,0,0,1-.538-.538V8.72a.539.539,0,0,1,.538-.538h.538ZM31.186,27.1a.728.728,0,1,1-1.364.468l-.139-.695,1.236-.309ZM27.6,20.447l2.8,5.137-1.109.277L27.4,23.024l-.781-2.969Zm-1.181,3.339.963,9.147H19.967l.963-9.147Zm-5.274-1.076.793-3.016.065.022c.108.04.217.078.328.11.043.012.086.022.128.033.1.027.206.053.31.073.053.01.106.016.159.024.1.015.194.031.293.041.069.006.139.007.209.011s.162.012.244.012.162-.008.244-.012.139,0,.209-.011c.1-.009.2-.025.293-.041.053-.008.106-.014.159-.024.1-.02.208-.046.31-.073.043-.011.086-.02.128-.033.111-.032.221-.07.328-.11l.065-.022.794,3.016ZM19.369,8.182c0-.583.739-1.076,1.614-1.076a.84.84,0,0,1,.091.007l.087.008A.547.547,0,0,0,21.7,6.8a2.151,2.151,0,0,1,3.955,0,.543.543,0,0,0,.535.324l.087-.008a.82.82,0,0,1,.09-.007c.875,0,1.614.493,1.614,1.076,0,.43-.435.841-1.057,1a.538.538,0,0,0-.4.575l.327,3.268H20.5l.327-3.267a.538.538,0,0,0-.4-.575C19.8,9.023,19.369,8.612,19.369,8.182Zm.538,6.995a3.754,3.754,0,0,1,.159-1.076h7.215a3.77,3.77,0,0,1-2.354,4.623l-.018.006a3.738,3.738,0,0,1-2.472,0l-.018-.006a3.774,3.774,0,0,1-2.512-3.547ZM12.913,8.182h.538a.539.539,0,0,1,.538.538v3.228a.539.539,0,0,1-.538.538h-.538Zm-.538,8.609a.539.539,0,0,1,.538.538v.935H12.9c-.013,0-.024-.008-.037-.009-.03,0-.059,0-.088,0a2.023,2.023,0,0,0-.28,0c-.047,0-.093,0-.139.009a1.994,1.994,0,0,0-.326.072c-.046.014-.09.029-.135.045-.02.008-.041.012-.061.02V17.329h0A.539.539,0,0,1,12.375,16.791Zm-.244,4.284a.935.935,0,0,1-.353-1.237s.006-.007.008-.011a1.2,1.2,0,0,1,.07-.117.8.8,0,0,1,.348-.295l.023-.012a.938.938,0,0,1,.29-.077l.022,0a.961.961,0,0,1,.293.023l.03.007a.937.937,0,0,1,.288.13l.009,0a.947.947,0,0,1,.273.289l.419.7-1.02,1.02Zm5.448,3.861a.536.536,0,0,1-.7-.008L13.7,22.145l.867-.867,2.314,1.851a.537.537,0,0,0,.756-.084L19.7,20.466l1.028-.411-.76,2.89ZM1.614,27.014a.538.538,0,1,1,0-1.076H11.3a.538.538,0,1,1,0,1.076Zm.538,2.152V28.09h8.609v1.076A1.616,1.616,0,0,1,9.147,30.78H3.766A1.616,1.616,0,0,1,2.152,29.166Zm6.662,2.69-.538,1.076H6.995V31.856Zm-2.9,0v1.076H4.637L4.1,31.856Zm25.288,3.228H1.076V34.008h30.13Z" transform="translate(0 -4.416)" fill="#c4c4c4"/>
          </g>
        </g>
        <g id="Agrupar_51" data-name="Agrupar 51" transform="translate(21.522 25.938)">
          <g id="Agrupar_50" data-name="Agrupar 50" transform="translate(0 0)">
            <path id="Caminho_26" data-name="Caminho 26" d="M323.766,324.416h-3.228a.538.538,0,0,0-.538.538v1.614a2.152,2.152,0,0,0,4.3,0v-1.614A.538.538,0,0,0,323.766,324.416Zm-.538,2.152a1.076,1.076,0,1,1-2.152,0v-1.076h2.152Z" transform="translate(-320 -324.416)" fill="#c4c4c4"/>
          </g>
        </g>
        <g id="Agrupar_53" data-name="Agrupar 53" transform="translate(5.918 20.557)">
          <g id="Agrupar_52" data-name="Agrupar 52">
            <rect id="Retângulo_12" data-name="Retângulo 12" width="1.076" height="2.69" fill="#c4c4c4"/>
          </g>
        </g>
        <g id="Agrupar_55" data-name="Agrupar 55" transform="translate(8.609 21.633)">
          <g id="Agrupar_54" data-name="Agrupar 54">
            <rect id="Retângulo_13" data-name="Retângulo 13" width="1.076" height="2.152" fill="#c4c4c4"/>
          </g>
        </g>
        <g id="Agrupar_57" data-name="Agrupar 57" transform="translate(3.228 21.633)">
          <g id="Agrupar_56" data-name="Agrupar 56">
            <rect id="Retângulo_14" data-name="Retângulo 14" width="1.076" height="2.152" fill="#c4c4c4"/>
          </g>
        </g>
        <g id="Agrupar_59" data-name="Agrupar 59" transform="translate(5.918 18.405)">
          <g id="Agrupar_58" data-name="Agrupar 58">
            <rect id="Retângulo_15" data-name="Retângulo 15" width="1.076" height="1.076" fill="#c4c4c4"/>
          </g>
        </g>
        <g id="Agrupar_61" data-name="Agrupar 61" transform="translate(3.228 19.481)">
          <g id="Agrupar_60" data-name="Agrupar 60">
            <rect id="Retângulo_16" data-name="Retângulo 16" width="1.076" height="1.076" fill="#c4c4c4"/>
          </g>
        </g>
        <g id="Agrupar_63" data-name="Agrupar 63" transform="translate(8.609 19.481)">
          <g id="Agrupar_62" data-name="Agrupar 62">
            <rect id="Retângulo_17" data-name="Retângulo 17" width="1.076" height="1.076" fill="#c4c4c4"/>
          </g>
        </g>
      </g>
    </g>
  </g>
</svg>
