<svg xmlns="http://www.w3.org/2000/svg" width="73.364" height="27.35" viewBox="0 0 73.364 27.35">
  <g id="Agrupar_188" data-name="Agrupar 188" transform="translate(-118.636 -1782.5)">
    <text id="Todos" transform="translate(171 1801)" fill="#d8ad2c" font-size="15" font-family="Helvetica"><tspan x="-20.013" y="0">Todos</tspan></text>
    <g id="calendar_5_" data-name="calendar (5)" transform="translate(118.636 1782.5)">
      <path id="Caminho_31" data-name="Caminho 31" d="M.415,20.211A.415.415,0,0,0,.831,19.8V7.694H25.379v4.567a.415.415,0,1,0,.831,0V4.05a2.529,2.529,0,0,0-2.526-2.526h-1.09V1.009A1.01,1.01,0,0,0,21.585,0h-.772A1.01,1.01,0,0,0,19.8,1.009v.515H17.049V1.009A1.01,1.01,0,0,0,16.039,0h-.772a1.01,1.01,0,0,0-1.009,1.009v.515H11.5V1.009A1.01,1.01,0,0,0,10.493,0H9.722A1.01,1.01,0,0,0,8.713,1.009v.515H5.957V1.009A1.01,1.01,0,0,0,4.948,0H4.176A1.01,1.01,0,0,0,3.167,1.009v.515H2.526A2.529,2.529,0,0,0,0,4.05V19.8A.415.415,0,0,0,.415,20.211Zm20.22-19.2a.179.179,0,0,1,.178-.178h.772a.178.178,0,0,1,.178.178V3.028a.178.178,0,0,1-.178.178h-.772a.178.178,0,0,1-.178-.178Zm-5.546,0a.178.178,0,0,1,.178-.178h.772a.179.179,0,0,1,.178.178V3.028a.179.179,0,0,1-.178.178h-.772a.178.178,0,0,1-.178-.178Zm-5.546,0A.179.179,0,0,1,9.722.831h.772a.179.179,0,0,1,.178.178V3.028a.179.179,0,0,1-.178.178H9.722a.178.178,0,0,1-.178-.178ZM4,1.009A.179.179,0,0,1,4.176.831h.772a.178.178,0,0,1,.178.178V3.028a.178.178,0,0,1-.178.178H4.176A.178.178,0,0,1,4,3.028ZM2.526,2.355h.641v.673A1.01,1.01,0,0,0,4.176,4.037h.772A1.01,1.01,0,0,0,5.957,3.028V2.355H8.713v.673A1.01,1.01,0,0,0,9.722,4.037h.772A1.01,1.01,0,0,0,11.5,3.028V2.355h2.756v.673a1.01,1.01,0,0,0,1.009,1.009h.772a1.01,1.01,0,0,0,1.009-1.009V2.355H19.8v.673a1.01,1.01,0,0,0,1.009,1.009h.772a1.01,1.01,0,0,0,1.009-1.009V2.355h1.09a1.7,1.7,0,0,1,1.7,1.7V6.863H.831V4.05A1.7,1.7,0,0,1,2.526,2.355Zm0,0" fill="#d8ad2c"/>
      <path id="Caminho_32" data-name="Caminho 32" d="M4.7,386.813H1.081a.25.25,0,0,1-.25-.25v-2.136a.415.415,0,0,0-.831,0v2.136a1.082,1.082,0,0,0,1.081,1.081H4.7a.415.415,0,0,0,0-.831Zm0,0" transform="translate(0 -362.738)" fill="#d8ad2c"/>
      <path id="Caminho_33" data-name="Caminho 33" d="M52.95,160.762H51.505a.415.415,0,0,0,0,.831H52.95a.415.415,0,1,0,0-.831Zm0,0" transform="translate(-48.26 -151.856)" fill="#d8ad2c"/>
      <path id="Caminho_34" data-name="Caminho 34" d="M131.623,161.593h1.444a.415.415,0,0,0,0-.831h-1.444a.415.415,0,0,0,0,.831Zm0,0" transform="translate(-123.939 -151.856)" fill="#d8ad2c"/>
      <path id="Caminho_35" data-name="Caminho 35" d="M211.74,161.593h1.444a.415.415,0,0,0,0-.831H211.74a.415.415,0,0,0,0,.831Zm0,0" transform="translate(-199.617 -151.856)" fill="#d8ad2c"/>
      <path id="Caminho_36" data-name="Caminho 36" d="M291.853,161.593H293.3a.415.415,0,1,0,0-.831h-1.444a.415.415,0,0,0,0,.831Zm0,0" transform="translate(-275.293 -151.856)" fill="#d8ad2c"/>
      <path id="Caminho_37" data-name="Caminho 37" d="M373.414,160.762H371.97a.415.415,0,0,0,0,.831h1.444a.415.415,0,0,0,0-.831Zm0,0" transform="translate(-350.972 -151.856)" fill="#d8ad2c"/>
      <path id="Caminho_38" data-name="Caminho 38" d="M52.95,198.477H51.505a.415.415,0,1,0,0,.831H52.95a.415.415,0,1,0,0-.831Zm0,0" transform="translate(-48.26 -187.481)" fill="#d8ad2c"/>
      <path id="Caminho_39" data-name="Caminho 39" d="M131.623,199.308h1.444a.415.415,0,0,0,0-.831h-1.444a.415.415,0,1,0,0,.831Zm0,0" transform="translate(-123.939 -187.481)" fill="#d8ad2c"/>
      <path id="Caminho_40" data-name="Caminho 40" d="M211.74,199.308h1.444a.415.415,0,0,0,0-.831H211.74a.415.415,0,1,0,0,.831Zm0,0" transform="translate(-199.617 -187.481)" fill="#d8ad2c"/>
      <path id="Caminho_41" data-name="Caminho 41" d="M291.853,199.308H293.3a.415.415,0,1,0,0-.831h-1.444a.415.415,0,0,0,0,.831Zm0,0" transform="translate(-275.293 -187.481)" fill="#d8ad2c"/>
      <path id="Caminho_42" data-name="Caminho 42" d="M373.414,198.477H371.97a.415.415,0,0,0,0,.831h1.444a.415.415,0,0,0,0-.831Zm0,0" transform="translate(-350.972 -187.481)" fill="#d8ad2c"/>
      <path id="Caminho_43" data-name="Caminho 43" d="M130.732,249.772l2.136,2.136a1.636,1.636,0,0,0,2.314,0l5.85-5.85a1.636,1.636,0,1,0-2.314-2.314l-4.693,4.693-.979-.979a1.636,1.636,0,1,0-2.314,2.314Zm.588-1.726a.806.806,0,0,1,1.139,0l1.273,1.273a.415.415,0,0,0,.588,0l4.987-4.987a.805.805,0,1,1,1.139,1.139l-5.85,5.85a.805.805,0,0,1-1.139,0l-2.136-2.136A.806.806,0,0,1,131.319,248.046Zm0,0" transform="translate(-123.038 -229.789)" fill="#d8ad2c"/>
      <path id="Caminho_44" data-name="Caminho 44" d="M131.614,251.743v-3.315a.415.415,0,1,0-.831,0v2.785a5.511,5.511,0,0,0-7.565,7.135H112a.415.415,0,1,0,0,.831h11.677a5.511,5.511,0,1,0,7.936-7.436Zm-3.359,9.049a4.681,4.681,0,1,1,4.681-4.681A4.686,4.686,0,0,1,128.256,260.791Zm0,0" transform="translate(-105.404 -234.273)" fill="#d8ad2c"/>
      <path id="Caminho_45" data-name="Caminho 45" d="M342.909,320.527a4.081,4.081,0,1,0,4.081,4.081A4.086,4.086,0,0,0,342.909,320.527Zm.372,7.309a.415.415,0,0,0,.043-.184v-.506a.415.415,0,1,0-.831,0v.506a.412.412,0,0,0,.043.184,3.255,3.255,0,0,1-2.856-2.856.411.411,0,0,0,.184.043h.506a.415.415,0,0,0,0-.831h-.506a.413.413,0,0,0-.184.044,3.255,3.255,0,0,1,2.856-2.856.412.412,0,0,0-.043.184v.506a.415.415,0,0,0,.831,0v-.506a.415.415,0,0,0-.043-.184,3.255,3.255,0,0,1,2.856,2.856.414.414,0,0,0-.184-.044h-.506a.415.415,0,1,0,0,.831h.506a.411.411,0,0,0,.184-.043A3.255,3.255,0,0,1,343.281,327.836Zm0,0" transform="translate(-320.058 -302.771)" fill="#d8ad2c"/>
      <path id="Caminho_46" data-name="Caminho 46" d="M406.327,372.345h-.5v-.426a.415.415,0,0,0-.831,0v.842a.415.415,0,0,0,.415.415h.916a.415.415,0,0,0,0-.831Zm0,0" transform="translate(-382.56 -350.924)" fill="#d8ad2c"/>
    </g>
  </g>
</svg>
