<?xml version="1.0" standalone="no"?>
<!DOCTYPE svg PUBLIC "-//W3C//DTD SVG 1.1//EN" "http://www.w3.org/Graphics/SVG/1.1/DTD/svg11.dtd" >
<svg xmlns="http://www.w3.org/2000/svg" xmlns:xlink="http://www.w3.org/1999/xlink" version="1.1">
<metadata>
Created by FontForge 20170910 at Thu Sep 21 15:18:56 2006
 By Jimmy Wärting
Font software Copyright 1990, 1995, 2002 , 2006Adobe Systems Incorporated. Typeface designs Copyright The Monotype Corporation. All rights reserved.
</metadata>
<defs>
<font id="PlantinMTPro-Bold" horiz-adv-x="333" >
  <font-face 
    font-family="Plantin MT Pro"
    font-weight="700"
    font-stretch="normal"
    units-per-em="1000"
    panose-1="2 2 8 3 5 4 5 3 3 4"
    ascent="695"
    descent="-305"
    x-height="450"
    cap-height="682"
    bbox="-84 -250 1307 934"
    underline-thickness="50"
    underline-position="-100"
    stemh="47"
    stemv="144"
    unicode-range="U+0020-FB04"
  />
<missing-glyph horiz-adv-x="500" 
d="M0 0v700h500v-700h-500zM250 395l170 255h-340zM280 350l170 -255v510zM80 50h340l-170 255zM50 605v-510l170 255z" />
    <glyph glyph-name="fi" unicode="fi" horiz-adv-x="677" 
d="M577 462v-325c0 -55 18 -88 68 -90v-47h-273v47c49 10 61 31 61 103v164c0 48 -19 77 -105 77h-81v-256c0 -45 11 -79 60 -88v-47h-271v47c50 7 67 27 67 88v257h-75v58c25 0 44 1 59 16c30 30 6 86 71 151c43 43 119 76 230 76c108 0 171 -33 171 -89
c0 -38 -26 -63 -66 -63c-92 0 -61 105 -143 105c-47 0 -103 -41 -103 -117v-79h197c70 0 83 6 100 12h33z" />
    <glyph glyph-name="fl" unicode="fl" horiz-adv-x="677" 
d="M577 693v-557c0 -53 18 -85 65 -89v-47h-272v47c51 7 63 38 63 90v254h-188v-241c0 -72 12 -92 61 -103v-47h-273v47c52 5 68 29 68 87v257h-74v59c31 0 47 5 57 15c32 32 18 100 71 153c52 52 127 75 235 75c58 0 79 -4 113 -19l46 19h28zM433 450v114
c-24 17 -24 82 -87 82c-42 0 -101 -32 -101 -125v-71h188z" />
    <glyph glyph-name="f_f" unicode="ff" horiz-adv-x="677" 
d="M639 450v-57h-72v-243c0 -97 29 -97 78 -103v-47h-280v47c54 13 58 45 58 103v243h-186v-243c0 -43 1 -97 64 -103v-47h-274v47c62 9 66 42 66 103v243h-66v57c41 5 57 11 72 63c15 51 31 103 106 146c46 27 102 34 144 34c100 0 133 -33 148 -48c42 30 92 48 144 48
c19 0 118 -3 118 -75c0 -42 -42 -64 -66 -64c-17 0 -38 9 -55 33c-3 4 -16 22 -18 26c-9 13 -17 18 -28 18c-25 0 -25 -19 -25 -78v-103h72zM237 548v-98h100c75 0 78 17 90 80c1 7 1 9 3 18c-17 2 -40 3 -63 43l-15 26c-6 8 -21 26 -49 26c-65 0 -66 -71 -66 -95z" />
    <glyph glyph-name="f_f_i" unicode="ffi" horiz-adv-x="1021" 
d="M916 465v-315c0 -71 15 -103 74 -103v-47h-288v47c68 0 67 61 67 103v148c0 63 -5 95 -115 95h-69v-243c0 -43 0 -103 69 -103v-47h-284v47c71 0 71 59 71 103v243h-189v-243c0 -88 29 -103 74 -103v-47h-300v47c67 0 82 28 82 103v243h-87v57c55 0 79 31 93 79
c17 58 48 164 250 164c88 0 122 -22 158 -49c71 48 163 49 198 49c39 0 178 0 178 -86c0 -17 -12 -59 -71 -59c-40 0 -50 14 -79 50c-22 28 -45 45 -75 45c-21 0 -66 -12 -81 -70c-5 -21 -7 -84 -7 -108v-15h168c25 0 92 0 129 15h34zM252 533v-83h66c110 0 118 28 130 82
c1 5 3 13 3 15c-28 5 -52 25 -70 49c-21 28 -36 47 -68 47c-61 0 -61 -60 -61 -110z" />
    <glyph glyph-name="f_f_l" unicode="ffl" horiz-adv-x="1021" 
d="M914 693v-543c0 -56 6 -103 73 -103v-47h-288v47c68 0 68 61 68 103v243h-186v-243c0 -45 1 -103 71 -103v-47h-285v47c70 0 70 59 70 103v243h-187v-256c0 -51 13 -90 73 -90v-47h-303v47c81 0 86 42 86 103v243h-86v57c33 0 73 9 94 85c15 53 45 158 255 158
c51 0 104 -7 149 -49c53 43 149 49 213 49c53 0 79 -6 105 -14l58 14h20zM581 450h186v119c-7 7 -9 9 -18 22c-18 26 -35 52 -78 52c-89 0 -90 -112 -90 -172v-21zM250 542v-92h55c122 0 128 25 144 97c-15 5 -41 13 -69 49c-20 25 -37 47 -71 47c-47 0 -59 -42 -59 -101z
" />
    <glyph glyph-name=".notdef" horiz-adv-x="500" 
d="M0 0v700h500v-700h-500zM250 395l170 255h-340zM280 350l170 -255v510zM80 50h340l-170 255zM50 605v-510l170 255z" />
    <glyph glyph-name="space" unicode=" " horiz-adv-x="278" 
 />
    <glyph glyph-name="exclam" unicode="!" horiz-adv-x="344" 
d="M138 283l-48 311c-10 66 -8 102 49 102h66c53 0 60 -34 49 -102l-47 -304c-6 -37 -6 -42 -20 -42h-30c-11 0 -14 4 -19 35zM80 83c0 51 40 91 91 91s92 -40 92 -91s-41 -92 -92 -92s-91 41 -91 92z" />
    <glyph glyph-name="quotedbl" unicode="&#x22;" horiz-adv-x="555" 
d="M171 357h-24l-50 187c-6 23 -10 46 -10 63c0 43 31 75 72 75s72 -32 72 -75c0 -17 -4 -40 -10 -63zM407 357h-24l-50 187c-6 23 -10 46 -10 63c0 43 31 75 72 75s72 -32 72 -75c0 -17 -4 -40 -10 -63z" />
    <glyph glyph-name="numbersign" unicode="#" horiz-adv-x="668" 
d="M38 502h150l41 187h92l-40 -187h173l40 187h92l-40 -187h83v-93h-101l-30 -148h131v-92h-149l-40 -185h-93l41 185h-175l-39 -185h-93l39 185h-82v92h102l30 148h-132v93zM263 409l-31 -147h174l30 147h-173z" />
    <glyph glyph-name="dollar" unicode="$" horiz-adv-x="521" 
d="M283 703v-31c110 -5 180 -85 180 -128c0 -24 -31 -44 -65 -44c-40 0 -25 52 -71 98c-11 11 -32 23 -44 25v-202c141 -76 201 -145 201 -243c0 -105 -70 -174 -201 -186v-74h-49v74c-121 -2 -197 79 -197 118c0 34 52 53 68 53c40 0 34 -102 129 -124v229
c-117 68 -189 130 -189 227c0 99 76 170 189 177v31h49zM283 237v-198c52 10 84 45 84 90c0 41 -20 68 -84 108zM234 450v175c-43 -8 -72 -41 -72 -80c0 -36 20 -62 72 -95z" />
    <glyph glyph-name="percent" unicode="%" horiz-adv-x="917" 
d="M177 365c36 0 46 35 46 153c0 106 -8 146 -47 146c-36 0 -44 -45 -44 -150c0 -115 11 -149 45 -149zM725 696l-448 -730h-101l453 730h96zM350 515c0 -112 -67 -182 -173 -182c-105 0 -172 70 -172 179c0 113 66 184 170 184c108 0 175 -69 175 -181zM738 16
c36 0 46 35 46 153c0 106 -8 146 -47 146c-36 0 -44 -45 -44 -150c0 -115 11 -149 45 -149zM911 166c0 -112 -67 -182 -173 -182c-105 0 -172 70 -172 179c0 113 66 184 170 184c108 0 175 -69 175 -181z" />
    <glyph glyph-name="ampersand" unicode="&#x26;" horiz-adv-x="781" 
d="M638 288l-64 -91l34 -51c91 -137 145 -92 145 -121v-25c0 -12 -1 -13 -29 -13h-112c-59 0 -95 21 -147 91c-83 -65 -152 -91 -244 -91c-142 0 -206 83 -206 161c0 90 81 164 212 231c-52 70 -73 108 -73 144c0 83 131 173 211 173c71 0 143 -68 143 -133
c0 -47 -47 -97 -111 -137c53 -63 100 -123 149 -189c36 41 50 71 50 102c0 55 -50 30 -50 61v22c0 7 3 9 9 9h176c18 0 19 -1 19 -14v-21c0 -24 -42 -5 -112 -108zM280 592c0 -39 31 -69 83 -129c44 26 63 48 63 73c0 27 -43 101 -93 101c-29 0 -53 -19 -53 -45zM437 117
l-181 229c-60 -40 -85 -67 -85 -106c0 -72 93 -182 155 -182c33 0 78 23 111 59z" />
    <glyph glyph-name="quoteright" unicode="&#x2019;" horiz-adv-x="344" 
d="M70 614c0 47 37 81 90 81c66 0 113 -57 113 -137c0 -36 -8 -77 -48 -117c-49 -49 -126 -65 -129 -58l-16 32c-4 7 -1 12 9 14c58 18 96 53 96 87c0 22 -9 28 -37 28c-51 0 -78 32 -78 70z" />
    <glyph glyph-name="parenleft" unicode="(" horiz-adv-x="417" 
d="M401 -154l-20 -44c-166 81 -286 269 -286 445s120 364 286 445l20 -44c-114 -92 -183 -243 -183 -401s69 -309 183 -401z" />
    <glyph glyph-name="parenright" unicode=")" horiz-adv-x="417" 
d="M16 648l20 44c166 -81 286 -269 286 -445s-120 -364 -286 -445l-20 44c114 92 183 243 183 401s-69 309 -183 401z" />
    <glyph glyph-name="asterisk" unicode="*" horiz-adv-x="510" 
d="M413 282l-40 -26l-118 107l-119 -107l-37 26l64 149l-137 77l14 45l155 -17l37 160h41l35 -157l163 16l14 -47l-135 -77z" />
    <glyph glyph-name="plus" unicode="+" horiz-adv-x="667" 
d="M383 279v-221h-100v221h-221v100h221v221h100v-221h221v-100h-221z" />
    <glyph glyph-name="comma" unicode="," horiz-adv-x="344" 
d="M78 -164v25c0 9 5 14 14 14c50 0 104 40 104 93c0 60 -66 31 -97 62c-14 14 -22 27 -22 58c0 53 33 86 84 86c71 0 118 -60 118 -151c0 -123 -99 -203 -180 -203c-15 0 -21 6 -21 16z" />
    <glyph glyph-name="hyphen" unicode="-" horiz-adv-x="458" 
d="M55 186v129h349v-129h-349z" />
    <glyph glyph-name="period" unicode="." horiz-adv-x="344" 
d="M80 83c0 51 40 91 91 91s92 -40 92 -91s-41 -92 -92 -92s-91 41 -91 92z" />
    <glyph glyph-name="slash" unicode="/" horiz-adv-x="278" 
d="M165 696h113l-164 -714h-114z" />
    <glyph glyph-name="zero" unicode="0" horiz-adv-x="521" 
d="M488 327c0 -189 -101 -340 -228 -340c-75 0 -142 52 -184 141c-28 60 -44 135 -44 202c0 70 18 146 49 207c40 77 109 126 179 126c64 0 130 -43 170 -109c35 -59 58 -149 58 -227zM177 340v-79c0 -61 4 -110 12 -147c9 -48 39 -80 73 -80c35 0 61 32 72 88
c7 34 9 82 9 175v77c-2 74 -4 107 -9 145c-7 59 -37 97 -74 97c-49 0 -77 -58 -81 -170c-1 -17 -2 -56 -2 -106z" />
    <glyph glyph-name="one" unicode="1" horiz-adv-x="521" 
d="M329 663v-545c0 -53 30 -78 86 -78h18v-40h-338v40h11c69 0 92 21 92 103v295c0 63 -24 87 -86 87h-17v44c57 17 138 61 174 94h60z" />
    <glyph glyph-name="two" unicode="2" horiz-adv-x="521" 
d="M474 177l-57 -177h-385v43c196 184 277 318 277 401c0 71 -54 123 -127 123c-43 0 -74 -14 -112 -50l-27 31c62 75 137 115 215 115c100 0 179 -70 179 -159c0 -84 -41 -152 -122 -233l-148 -148h184c43 0 62 13 78 54h45z" />
    <glyph glyph-name="three" unicode="3" horiz-adv-x="521" 
d="M68 513l-29 38c69 81 128 112 220 112c104 0 174 -55 174 -135c0 -55 -35 -99 -105 -132c97 -34 136 -110 136 -169c0 -122 -116 -240 -284 -240c-77 0 -137 25 -137 58c0 12 14 53 45 53c52 0 70 -64 131 -64s108 57 108 132c0 113 -92 142 -228 144l8 43
c115 0 189 50 189 126c0 56 -44 96 -105 96c-40 0 -67 -14 -123 -62z" />
    <glyph glyph-name="four" unicode="4" horiz-adv-x="521" 
d="M499 248v-99h-76v-161h-124v161h-263v90l298 424h89v-415h76zM299 248v298h-2l-206 -298h208z" />
    <glyph glyph-name="five" unicode="5" horiz-adv-x="521" 
d="M206 548l-36 -84c188 -42 284 -128 284 -241c0 -146 -138 -235 -306 -235c-65 0 -89 13 -89 40c0 30 19 60 40 60c26 0 85 -32 150 -32c61 0 102 38 102 100c0 81 -90 144 -273 195l128 299h211l14 29l36 -16l-49 -97c-8 -17 -12 -18 -38 -18h-174z" />
    <glyph glyph-name="six" unicode="6" horiz-adv-x="521" 
d="M415 663l49 -35c-173 -69 -243 -141 -272 -277l2 -2c39 38 74 53 119 53c100 0 178 -86 178 -195c0 -124 -99 -220 -226 -220c-133 0 -233 117 -233 272c0 93 38 187 114 263c63 63 151 105 269 141zM346 158c0 73 -18 171 -92 171c-54 0 -77 -31 -77 -85
c0 -124 24 -210 90 -210c48 0 79 48 79 124z" />
    <glyph glyph-name="seven" unicode="7" horiz-adv-x="521" 
d="M98 471h-41l45 179h377l-226 -662h-66l184 540h-194c-59 0 -71 -12 -79 -57z" />
    <glyph glyph-name="eight" unicode="8" horiz-adv-x="521" 
d="M40 142c0 59 34 101 130 165c-87 67 -122 119 -122 180c0 98 96 176 218 176c105 0 187 -63 187 -143c0 -55 -35 -99 -121 -152c93 -55 149 -132 149 -204c0 -103 -99 -177 -234 -177c-151 0 -207 92 -207 155zM179 533c0 -50 36 -80 113 -135c46 23 71 62 71 108
c0 63 -42 110 -98 110c-47 0 -86 -37 -86 -83zM131 144c0 -69 40 -110 106 -110c58 0 99 39 99 93c0 52 -31 84 -129 153c-48 -37 -76 -86 -76 -136z" />
    <glyph glyph-name="nine" unicode="9" horiz-adv-x="521" 
d="M107 -12l-31 39c57 23 168 68 222 171c8 14 28 58 32 98c-19 -18 -71 -48 -123 -48c-95 0 -176 80 -176 197c0 113 89 218 223 218c142 0 233 -115 233 -274c0 -214 -166 -360 -380 -401zM261 321c29 0 61 15 78 31c2 23 3 42 3 75c0 81 -19 189 -87 189
c-42 0 -79 -37 -79 -142c0 -60 22 -153 85 -153z" />
    <glyph glyph-name="colon" unicode=":" horiz-adv-x="344" 
d="M80 371c0 51 40 91 91 91s92 -40 92 -91s-41 -92 -92 -92s-91 41 -91 92zM80 83c0 51 40 91 91 91s92 -40 92 -91s-41 -92 -92 -92s-91 41 -91 92z" />
    <glyph glyph-name="semicolon" unicode=";" horiz-adv-x="344" 
d="M78 -164v25c0 9 5 14 14 14c50 0 104 40 104 93c0 60 -66 31 -97 62c-14 14 -22 27 -22 58c0 53 33 86 84 86c71 0 118 -60 118 -151c0 -123 -99 -203 -180 -203c-15 0 -21 6 -21 16zM80 371c0 51 40 91 91 91s92 -40 92 -91s-41 -92 -92 -92s-91 41 -91 92z" />
    <glyph glyph-name="less" unicode="&#x3c;" horiz-adv-x="667" 
d="M62 284v92l542 227v-111l-403 -162l403 -162v-111z" />
    <glyph glyph-name="equal" unicode="=" horiz-adv-x="667" 
d="M62 263h543v-100h-543v100zM62 498h543v-100h-543v100z" />
    <glyph glyph-name="greater" unicode="&#x3e;" horiz-adv-x="667" 
d="M604 284l-542 -227v111l403 162l-403 162v111l542 -227v-92z" />
    <glyph glyph-name="question" unicode="?" horiz-adv-x="458" 
d="M174 235h-20c-12 0 -14 2 -15 14l-14 159c-4 48 114 22 171 79c15 15 19 26 19 46c0 40 -41 79 -84 79c-65 0 -118 -49 -162 -49c-29 0 -49 27 -49 65s47 68 109 68c108 0 276 -84 276 -247c0 -32 -5 -62 -33 -90c-80 -80 -183 -36 -183 -88v-24c0 -10 -2 -12 -15 -12z
M76 83c0 51 40 91 91 91s92 -40 92 -91s-41 -92 -92 -92s-91 41 -91 92z" />
    <glyph glyph-name="at" unicode="@" horiz-adv-x="930" 
d="M577 450l119 7l-95 -324c-14 -48 -16 -97 31 -97c63 0 210 110 210 303c0 181 -128 307 -313 307c-279 0 -432 -225 -432 -450s158 -384 382 -384c158 0 338 88 399 269h31c-77 -191 -231 -297 -431 -297c-251 0 -432 179 -432 428c0 269 199 465 472 465
c210 0 351 -132 351 -330c0 -195 -128 -347 -293 -347c-62 0 -99 33 -99 87c0 16 4 41 12 65l-2 2c-55 -96 -105 -154 -167 -154c-50 0 -81 43 -81 110c0 195 161 360 251 360c41 0 62 -23 69 -76h2zM503 435c-57 0 -139 -210 -139 -299c0 -26 12 -46 29 -46
c43 0 145 154 145 279c0 40 -12 66 -35 66z" />
    <glyph glyph-name="A" unicode="A" horiz-adv-x="781" 
d="M452 257h-234l-32 -93c-22 -65 -9 -110 55 -117v-47h-235v47c68 13 86 41 105 89l196 499l-23 47h187l215 -553c22 -57 48 -82 89 -82v-47h-338v47c68 6 84 33 60 94zM429 316l-99 251l-89 -251h188z" />
    <glyph glyph-name="B" unicode="B" horiz-adv-x="781" 
d="M118 139v403c0 62 -16 93 -89 93v47h438c185 0 251 -72 251 -159c0 -84 -64 -143 -186 -164v-2c135 -20 209 -80 209 -170c0 -82 -68 -187 -260 -187h-449v47c75 3 86 36 86 92zM294 376h113c76 0 124 54 124 120s-42 139 -136 139h-101v-259zM294 329v-182
c0 -57 25 -100 104 -100c98 0 153 54 153 134c0 79 -60 148 -153 148h-104z" />
    <glyph glyph-name="C" unicode="C" horiz-adv-x="802" 
d="M681 223h75v-167c-79 -44 -185 -69 -293 -69c-217 0 -414 110 -414 342c0 187 137 367 405 367c97 0 189 -21 274 -61l20 -159h-74c-41 92 -118 173 -226 173c-129 0 -209 -111 -209 -291c0 -195 92 -324 231 -324c98 0 177 65 211 189z" />
    <glyph glyph-name="D" unicode="D" horiz-adv-x="875" 
d="M118 135v410c0 59 -15 90 -88 90v47h446c240 0 346 -166 346 -332c0 -167 -113 -350 -394 -350h-398v47c68 0 88 28 88 88zM294 635v-476c0 -77 29 -112 115 -112c179 0 224 150 224 278c0 107 -25 190 -85 250c-46 46 -99 60 -183 60h-71z" />
    <glyph glyph-name="E" unicode="E" horiz-adv-x="750" 
d="M612 466v-221h-66c-21 74 -57 90 -136 90h-115v-192c0 -61 20 -96 129 -96c95 0 151 20 238 122h69l-30 -169h-671v47c62 0 89 22 89 86v421c0 54 -21 81 -89 81v47h656v-143h-65c-62 78 -101 96 -185 96h-141v-253h120c83 0 116 24 131 84h66z" />
    <glyph glyph-name="F" unicode="F" horiz-adv-x="686" 
d="M585 459v-227h-67c-16 64 -48 93 -128 93h-98v-170c0 -77 8 -108 101 -108v-47h-362v47c62 0 85 28 85 88v410c0 62 -17 90 -85 90v47h634v-143h-65c-52 77 -88 96 -185 96h-123v-263h90c87 0 128 21 136 87h67z" />
    <glyph glyph-name="G" unicode="G" horiz-adv-x="844" 
d="M743 480h-65c-43 103 -134 169 -232 169c-132 0 -205 -106 -205 -299c0 -199 86 -316 231 -316c39 0 69 9 100 27v142c0 61 -17 90 -89 90v47h342v-47c-58 0 -77 -30 -77 -85v-168c-51 -27 -202 -53 -302 -53c-247 0 -398 129 -398 342c0 193 142 367 404 367
c107 0 219 -23 279 -61z" />
    <glyph glyph-name="H" unicode="H" horiz-adv-x="875" 
d="M300 380h282v170c0 53 -17 85 -89 85v47h356v-47c-77 0 -91 -34 -91 -98v-397c0 -67 22 -93 91 -93v-47h-351v47c68 0 84 33 84 89v185h-282v-179c0 -69 19 -91 87 -95v-47h-361v47h14c63 0 84 31 84 79v423c0 60 -21 86 -89 86h-9v47h361v-47c-67 0 -87 -30 -87 -91
v-164z" />
    <glyph glyph-name="I" unicode="I" horiz-adv-x="406" 
d="M379 47v-47h-352v47c65 0 86 29 86 83v416c0 61 -20 89 -86 89v47h352v-47c-76 0 -90 -36 -90 -91v-413c0 -54 20 -84 90 -84z" />
    <glyph glyph-name="J" unicode="J" horiz-adv-x="406" 
d="M116 -67v621c0 55 -23 81 -86 81v47h348v-47c-65 0 -86 -28 -86 -91v-458c0 -92 -17 -167 -64 -214c-43 -43 -110 -73 -179 -73c-62 0 -109 33 -109 78c0 29 29 52 65 52c74 0 40 -72 81 -72c22 0 30 21 30 76z" />
    <glyph glyph-name="K" unicode="K" horiz-adv-x="781" 
d="M469 635v47h277v-47c-65 -12 -83 -23 -139 -70l-180 -151l236 -269c50 -57 92 -94 129 -98v-47h-212c-34 27 -62 53 -80 75l-206 243v-178c0 -58 14 -93 86 -93v-47h-352v47c69 0 90 28 90 84v420c0 57 -20 84 -90 84v47h352v-47c-70 0 -86 -31 -86 -92v-175l147 121
c47 39 87 84 87 108c0 28 -22 38 -59 38z" />
    <glyph glyph-name="L" unicode="L" horiz-adv-x="686" 
d="M294 548v-384c0 -86 28 -117 98 -117c83 0 149 38 224 123h62l-29 -170h-614v47c57 0 83 26 83 81v429c0 48 -23 78 -83 78v47h349v-47c-69 0 -90 -27 -90 -87z" />
    <glyph glyph-name="M" unicode="M" horiz-adv-x="1010" 
d="M1001 47v-47h-351v47h10c52 0 78 26 78 80c0 69 -23 155 -30 211l-21 169h-2c-52 -127 -163 -305 -211 -507h-63c-10 43 -19 70 -42 128c-67 168 -109 224 -163 370h-2l-53 -312c-3 -20 -5 -41 -5 -56c0 -51 28 -83 73 -83h17v-47h-226v47c59 0 73 63 88 145l61 339
c11 62 0 98 -71 104v47h250c3 -104 65 -198 165 -440c67 174 164 297 164 404c0 15 -1 25 -4 36h273v-47h-14c-70 0 -79 -38 -66 -117l62 -376c10 -61 29 -94 83 -95z" />
    <glyph glyph-name="N" unicode="N" horiz-adv-x="792" 
d="M282 47v-47h-271v47h7c75 0 100 47 100 133v403c-35 30 -66 47 -103 52v47h247l377 -427v192c0 155 -18 186 -115 188v47h258v-47c-78 -7 -91 -35 -91 -142v-322c0 -100 14 -122 16 -179h-70l-473 538v-302c0 -130 24 -181 111 -181h7z" />
    <glyph glyph-name="O" unicode="O" horiz-adv-x="875" 
d="M824 347c0 -185 -134 -360 -393 -360c-252 0 -381 167 -381 342c0 230 193 367 390 367c155 0 384 -81 384 -349zM244 360c0 -218 82 -326 205 -326c45 0 85 22 114 51c51 51 67 132 67 229c0 208 -74 330 -199 330c-118 0 -187 -104 -187 -284z" />
    <glyph glyph-name="P" unicode="P" horiz-adv-x="729" 
d="M117 134v410c0 63 -18 91 -91 91v47h446c179 0 238 -108 238 -190c0 -108 -84 -190 -276 -190c-69 0 -81 4 -81 32c0 15 2 20 16 20s30 1 42 1c73 0 110 55 110 129c0 92 -53 151 -149 151h-79v-498c0 -63 19 -90 93 -90v-47h-360v47c74 0 91 28 91 87z" />
    <glyph glyph-name="Q" unicode="Q" horiz-adv-x="865" 
d="M840 -81v-113c-144 -10 -273 44 -401 116l-148 83c-162 52 -245 164 -245 328c0 211 176 363 389 363c162 0 384 -88 384 -347c0 -162 -94 -292 -249 -342c51 -32 213 -80 270 -88zM240 361c0 -214 83 -325 199 -325c112 0 186 93 186 276c0 207 -73 332 -198 332
c-118 0 -187 -104 -187 -283z" />
    <glyph glyph-name="R" unicode="R" horiz-adv-x="771" 
d="M298 305v-165c0 -62 15 -93 86 -93v-47h-354v47c73 0 92 25 92 87v416c0 59 -21 85 -92 85v47h459c171 0 220 -109 220 -176c0 -85 -73 -158 -175 -174c54 -60 119 -157 165 -212c48 -57 59 -70 86 -73v-47h-196c-26 8 -99 111 -159 198c-63 91 -74 107 -108 107h-24z
M298 635v-283h62c115 0 160 44 160 139c0 81 -44 144 -149 144h-73z" />
    <glyph glyph-name="S" unicode="S" horiz-adv-x="656" 
d="M566 489h-71c-15 93 -87 160 -173 160c-63 0 -106 -35 -106 -85c0 -146 395 -126 395 -377c0 -132 -117 -200 -285 -200c-84 0 -197 21 -268 51v169h80c18 -113 99 -173 186 -173c67 0 115 37 115 90c0 140 -211 130 -339 258c-27 27 -49 66 -49 117
c0 114 115 197 273 197c75 0 175 -24 242 -57v-150z" />
    <glyph glyph-name="T" unicode="T" horiz-adv-x="740" 
d="M282 136v499h-34c-62 0 -114 -32 -162 -100h-63v147h694v-147h-63c-48 68 -100 100 -162 100h-34v-498c0 -63 19 -90 87 -90v-47h-350v47c64 0 87 25 87 89z" />
    <glyph glyph-name="U" unicode="U" horiz-adv-x="833" 
d="M113 237v305c0 58 -13 93 -89 93v47h357v-47c-69 0 -92 -23 -92 -85v-289c0 -128 53 -195 184 -195c93 0 204 38 204 190v249c0 91 -29 127 -107 130v47h249v-47c-70 -12 -91 -38 -91 -110v-284c0 -201 -144 -254 -300 -254c-174 0 -315 55 -315 250z" />
    <glyph glyph-name="V" unicode="V" horiz-adv-x="729" 
d="M639 549l-163 -364c-20 -45 -51 -136 -68 -198h-77c-5 30 -29 98 -49 143l-194 429c-25 55 -47 73 -74 76v47h317v-47c-66 -3 -78 -32 -53 -86l160 -350l117 286c33 82 24 145 -55 150v47h216v-47c-37 -6 -55 -37 -77 -86z" />
    <glyph glyph-name="W" unicode="W" horiz-adv-x="1031" 
d="M932 514l-86 -263c-23 -70 -66 -188 -86 -264h-90c-3 27 -25 106 -37 138l-111 284l-89 -249c-26 -72 -43 -110 -59 -173h-86c-15 52 -41 137 -60 189l-132 360c-22 61 -47 92 -79 99v47h295v-47c-43 0 -60 -31 -45 -74l129 -365h2l97 280l-30 81c-18 48 -36 66 -79 78
v47h310v-47c-54 0 -67 -36 -52 -77l131 -358h2l91 276c12 36 16 53 16 79c0 47 -22 72 -68 80v47h199v-47c-44 -18 -54 -33 -83 -121z" />
    <glyph glyph-name="X" unicode="X" horiz-adv-x="781" 
d="M777 47v-47h-391v47c92 0 106 32 37 117l-81 99l-94 -110c-43 -51 -31 -100 42 -106v-47h-272v47c44 1 91 24 122 59l172 197l-205 270c-36 47 -55 59 -102 62v47h387v-47c-82 0 -91 -37 -52 -89l83 -110l88 102c20 23 29 40 29 56c0 26 -18 40 -58 41v47h246v-47
c-54 -8 -86 -28 -138 -87l-134 -151l190 -250c70 -92 78 -100 131 -100z" />
    <glyph glyph-name="Y" unicode="Y" horiz-adv-x="729" 
d="M277 141v107l-170 321c-20 38 -34 61 -93 66v47h367v-47c-86 0 -100 -29 -68 -90l116 -222l118 214c21 38 16 95 -61 98v47h230v-47c-43 -6 -75 -41 -111 -103l-152 -263v-134c0 -63 22 -88 96 -88v-47h-368v47c74 0 96 23 96 94z" />
    <glyph glyph-name="Z" unicode="Z" horiz-adv-x="686" 
d="M126 531h-64v151h575v-30l-397 -605h146c83 0 141 40 198 123h71l-33 -170h-593v36l393 599h-117c-93 0 -104 -11 -179 -104z" />
    <glyph glyph-name="bracketleft" unicode="[" horiz-adv-x="396" 
d="M73 -183v866h268v-47h-47c-67 0 -77 -18 -77 -71v-630c0 -53 10 -71 77 -71h47v-47h-268z" />
    <glyph glyph-name="backslash" unicode="\" horiz-adv-x="278" 
d="M0 696h114l164 -714h-114z" />
    <glyph glyph-name="bracketright" unicode="]" horiz-adv-x="396" 
d="M323 -183h-268v47h47c67 0 77 18 77 71v630c0 53 -10 71 -77 71h-47v47h268v-866z" />
    <glyph glyph-name="asciicircum" unicode="^" horiz-adv-x="581" 
d="M55 292l184 390h108l179 -390h-139l-96 239l-96 -239h-140z" />
    <glyph glyph-name="underscore" unicode="_" horiz-adv-x="500" 
d="M-6 -75h512v-50h-512v50z" />
    <glyph glyph-name="quoteleft" unicode="&#x2018;" horiz-adv-x="344" 
d="M70 518c0 36 8 77 48 117c49 49 126 65 129 58l16 -32c4 -7 1 -12 -9 -14c-58 -18 -96 -53 -96 -87c0 -22 9 -28 37 -28c51 0 78 -32 78 -70c0 -47 -37 -81 -90 -81c-66 0 -113 57 -113 137z" />
    <glyph glyph-name="a" unicode="a" horiz-adv-x="561" 
d="M540 105l8 -49c-28 -42 -71 -67 -114 -67c-50 0 -82 21 -100 67c-55 -50 -96 -67 -159 -67c-85 0 -143 42 -143 103c0 126 193 156 302 183v74c0 40 -27 66 -71 66c-52 0 -91 -36 -67 -103l-133 -42c-9 23 -14 45 -14 66c0 81 81 126 239 126c142 0 190 -41 190 -123
v-208c0 -44 28 -45 62 -26zM334 105v124c-92 -26 -146 -46 -146 -101c0 -37 25 -66 57 -66c25 0 51 13 89 43z" />
    <glyph glyph-name="b" unicode="b" horiz-adv-x="604" 
d="M211 693v-306c65 54 108 75 163 75c126 0 192 -117 192 -223c0 -115 -78 -250 -281 -250c-84 0 -154 20 -218 65v509l-76 49v26l188 55h32zM211 333v-173c0 -69 27 -124 86 -124c67 0 113 66 113 163c0 95 -51 165 -119 165c-26 0 -45 -7 -80 -31z" />
    <glyph glyph-name="c" unicode="c" horiz-adv-x="521" 
d="M447 145l37 -34c-39 -77 -123 -122 -226 -122c-152 0 -223 119 -223 228c0 108 63 245 270 245c102 0 168 -42 168 -108c0 -38 -31 -70 -68 -70c-85 0 -51 130 -131 130c-57 0 -102 -53 -102 -127c0 -108 74 -195 165 -195c43 0 69 12 110 53z" />
    <glyph glyph-name="d" unicode="d" horiz-adv-x="615" 
d="M606 66v-54l-174 -21h-45v75c-54 -52 -108 -77 -163 -77c-107 0 -192 98 -192 222c0 144 105 251 246 251c39 0 65 -5 109 -23v134l-79 41v32l191 47h32v-577c0 -40 27 -57 75 -50zM387 114v177c0 71 -31 124 -89 124c-64 0 -110 -69 -110 -166c0 -96 51 -168 119 -168
c25 0 50 10 80 33z" />
    <glyph glyph-name="e" unicode="e" horiz-adv-x="521" 
d="M452 143l39 -29c-65 -84 -142 -125 -237 -125c-131 0 -218 90 -218 226c0 147 98 247 242 247c129 0 210 -79 213 -206h-317c7 -90 78 -162 160 -162c38 0 69 13 118 49zM171 303h165c0 72 -29 112 -80 112s-85 -44 -85 -112z" />
    <glyph glyph-name="f" unicode="f" horiz-adv-x="354" 
d="M337 450v-59h-94v-254c0 -64 20 -90 84 -90h17v-47h-314v47c55 6 69 32 69 89v255h-77v59c50 0 59 6 65 15c17 23 6 93 75 162c42 42 100 66 176 66c90 0 144 -29 144 -78c0 -37 -39 -73 -80 -73c-62 0 -65 97 -118 97c-29 0 -41 -27 -41 -63v-126h94z" />
    <glyph glyph-name="g" unicode="g" horiz-adv-x="552" 
d="M547 450v-95c-21 -2 -60 -1 -88 4c13 -23 12 -42 12 -56c0 -102 -108 -147 -227 -147c-11 0 -37 2 -50 5c-26 -17 -36 -32 -36 -45c0 -17 12 -20 69 -20c32 0 98 4 128 4c108 0 154 -60 154 -122c0 -67 -62 -166 -266 -166c-155 0 -205 43 -205 94c0 29 17 48 75 79
c-37 11 -64 43 -64 74c0 45 31 79 100 113c-66 29 -97 71 -97 131c0 97 79 159 205 159c83 0 160 -14 212 -14c27 0 52 2 78 2zM331 288c0 86 -22 127 -68 127c-43 0 -68 -35 -68 -96c0 -77 24 -116 71 -116c42 0 65 30 65 85zM421 -63c0 24 -27 39 -81 39
c-43 0 -153 -8 -181 -3c-25 -16 -37 -33 -37 -54c0 -37 42 -58 124 -58c128 0 175 36 175 76z" />
    <glyph glyph-name="h" unicode="h" horiz-adv-x="625" 
d="M229 693v-314h2c43 55 98 83 160 83c86 0 147 -42 147 -134v-178c0 -75 11 -92 66 -103v-47h-267v47c47 13 57 31 57 103v116c0 68 -38 97 -77 97c-24 0 -56 -11 -88 -29v-201c0 -46 12 -80 58 -86v-47h-272v47c45 0 70 30 70 85v434l-70 43v29l175 55h39z" />
    <glyph glyph-name="i" unicode="i" 
d="M242 459v-321c0 -58 14 -88 74 -91v-47h-298v47c59 0 80 28 80 89v194l-80 47v32l173 50h51zM71 608c0 47 38 85 85 85s86 -38 86 -85s-39 -86 -86 -86s-85 39 -85 86z" />
    <glyph glyph-name="j" unicode="j" horiz-adv-x="313" 
d="M241 459v-369c0 -106 -47 -181 -202 -278l-37 52c73 76 95 110 95 166v300l-82 49v27l173 53h53zM75 608c0 47 38 85 85 85s86 -38 86 -85s-39 -86 -86 -86s-85 39 -85 86z" />
    <glyph glyph-name="k" unicode="k" horiz-adv-x="552" 
d="M222 693v-443c78 78 96 94 96 124c0 20 -14 30 -43 30v46h241v-46c-60 -1 -109 -32 -180 -110l66 -74c99 -111 141 -119 141 -152v-52c0 -14 -2 -16 -22 -16h-70c-38 7 -76 44 -110 83l-119 137v-70c0 -74 9 -89 63 -103v-47h-277v47c56 5 70 31 70 86v433l-73 36v36
l173 55h44z" />
    <glyph glyph-name="l" unicode="l" horiz-adv-x="311" 
d="M233 693v-560c0 -46 14 -81 71 -86v-47h-297v47c59 0 82 29 82 87v432l-82 43v29l193 55h33z" />
    <glyph glyph-name="m" unicode="m" horiz-adv-x="979" 
d="M231 326v-190c0 -56 15 -89 75 -89v-47h-285v47c54 9 66 28 66 103v176l-79 51v32l172 50h51v-82c65 61 113 85 178 85c75 0 119 -27 145 -89c59 60 121 89 190 89c104 0 151 -62 151 -163v-166c0 -54 18 -83 72 -86v-47h-282v47c57 10 66 41 66 103v131
c0 58 -28 91 -80 91c-40 0 -77 -14 -108 -43v-197c0 -58 13 -82 75 -85v-47h-285v47c57 6 66 36 66 103v143c0 52 -36 79 -80 79c-42 0 -86 -20 -108 -46z" />
    <glyph glyph-name="n" unicode="n" horiz-adv-x="625" 
d="M233 336v-203c0 -47 12 -78 63 -86v-47h-277v47c48 2 70 28 70 82v198l-70 52v27l164 53h50v-80c50 54 102 83 163 83c89 0 146 -49 146 -147v-165c0 -74 12 -93 65 -103v-47h-269v47c44 7 60 35 60 85v155c0 49 -24 84 -72 84c-31 0 -65 -15 -93 -35z" />
    <glyph glyph-name="o" unicode="o" horiz-adv-x="573" 
d="M535 225c0 -122 -76 -236 -253 -236c-147 0 -245 92 -245 228c0 123 84 245 256 245c180 0 242 -136 242 -237zM380 167c0 157 -32 248 -101 248c-71 0 -87 -70 -87 -160c0 -166 41 -219 102 -219c54 0 86 48 86 131z" />
    <glyph glyph-name="p" unicode="p" horiz-adv-x="615" 
d="M84 -56v386l-74 49v30l165 53h53v-71c48 47 103 71 158 71c109 0 192 -96 192 -221c0 -149 -114 -252 -269 -252c-32 0 -53 3 -81 11v-50c0 -63 19 -91 80 -91v-47h-298v47c54 0 74 34 74 85zM228 335v-173c0 -76 28 -125 90 -125c58 0 104 72 104 159
c0 97 -51 169 -118 169c-23 0 -45 -8 -76 -30z" />
    <glyph glyph-name="q" unicode="q" horiz-adv-x="615" 
d="M538 462v-516c0 -56 15 -82 75 -88v-46h-302v47c66 0 83 31 83 86v121c-56 -51 -97 -77 -158 -77c-111 0 -197 96 -197 222c0 146 113 251 270 251c60 0 117 -14 175 -42v42h54zM394 120v181c0 71 -36 114 -91 114c-64 0 -107 -68 -107 -166c0 -92 50 -160 119 -160
c26 0 52 10 79 31z" />
    <glyph glyph-name="r" unicode="r" horiz-adv-x="479" 
d="M93 129v201l-80 49v30l172 50h52v-129h2c45 87 95 132 151 132c47 0 87 -33 87 -70c0 -27 -25 -117 -62 -117c-33 0 -76 65 -101 65c-37 0 -77 -72 -77 -116v-89c0 -70 23 -88 93 -88v-47h-309v47c55 3 72 31 72 82z" />
    <glyph glyph-name="s" unicode="s" horiz-adv-x="458" 
d="M384 428l11 -109h-43c-30 59 -85 96 -141 96c-42 0 -71 -19 -71 -46c0 -81 282 -56 282 -234c0 -91 -69 -146 -183 -146c-57 0 -111 11 -189 41l-8 117h44c39 -69 92 -105 153 -105c55 0 81 25 81 52c0 82 -284 57 -284 226c0 105 92 142 181 142c48 0 114 -13 167 -34z
" />
    <glyph glyph-name="t" unicode="t" horiz-adv-x="375" 
d="M228 391v-240c0 -55 12 -78 71 -78c24 0 40 4 65 15v-55c-33 -27 -94 -44 -155 -44c-73 0 -125 42 -125 114v288h-66v52c83 12 150 74 166 123h44v-116h136v-59h-136z" />
    <glyph glyph-name="u" unicode="u" horiz-adv-x="625" 
d="M531 450v-297c0 -79 8 -89 72 -89v-47l-176 -26h-40v76c-61 -59 -101 -78 -160 -78c-100 0 -148 59 -148 164v155c0 56 -15 78 -57 88v45l201 9v-291c0 -54 41 -78 77 -78c26 0 56 11 87 33v214c0 36 -23 64 -59 68v45z" />
    <glyph glyph-name="v" unicode="v" horiz-adv-x="542" 
d="M482 344l-180 -355h-59l-178 355c-20 40 -32 59 -61 59v47h261v-47c-54 -2 -60 -26 -34 -77l93 -181l70 136c32 62 38 119 -32 122v47h176v-47c-17 -6 -34 -15 -56 -59z" />
    <glyph glyph-name="w" unicode="w" horiz-adv-x="771" 
d="M703 321l-142 -332h-56l-113 249l-134 -249h-52l-130 305c-43 100 -46 105 -73 109v47h226v-47c-41 0 -42 -30 -23 -73l80 -178l79 149l-24 55c-15 34 -26 45 -58 47v47h253v-47c-55 -1 -55 -27 -34 -71l77 -164l60 140c22 50 15 86 -43 95v47h171v-47
c-26 -6 -38 -21 -64 -82z" />
    <glyph glyph-name="x" unicode="x" horiz-adv-x="552" 
d="M542 47v-47h-272v47c48 1 52 29 28 57l-54 65l-58 -57c-31 -31 -29 -63 25 -65v-47h-200v47c27 7 57 24 83 48l119 109l-147 169c-21 25 -30 28 -55 30v47h266v-47c-46 0 -47 -26 -24 -53l53 -60l37 34c41 38 46 75 -15 79v47h209v-47c-29 -3 -57 -18 -86 -45l-113 -105
l134 -149c35 -39 44 -46 70 -57z" />
    <glyph glyph-name="y" unicode="y" horiz-adv-x="542" 
d="M472 323l-176 -386c-41 -89 -86 -125 -157 -125c-59 0 -100 33 -100 82c0 37 27 66 63 66c53 0 51 -58 91 -58c24 0 52 25 72 83l-197 360c-28 51 -31 53 -64 58v47h268v-47c-59 -2 -66 -27 -46 -64l109 -198l74 164c24 53 10 97 -46 98v47h178v-47
c-26 -2 -42 -20 -69 -80z" />
    <glyph glyph-name="z" unicode="z" horiz-adv-x="510" 
d="M482 144l-20 -144h-443l5 47l275 356h-58c-88 0 -108 -18 -158 -101h-49l11 168h39c9 -8 17 -13 29 -16s28 -4 51 -4h306v-41l-267 -362h44c83 0 120 22 182 97h53z" />
    <glyph glyph-name="braceleft" unicode="{" horiz-adv-x="394" 
d="M52 238v28c63 6 93 54 93 107c0 49 -23 115 -23 158c0 77 69 159 201 159v-19c-56 -6 -95 -50 -95 -93c0 -59 24 -95 24 -165c0 -65 -49 -137 -160 -160v-2c111 -23 160 -95 160 -160c0 -70 -24 -106 -24 -165c0 -43 39 -87 95 -93v-19c-132 0 -201 82 -201 159
c0 43 23 109 23 158c0 53 -30 101 -93 107z" />
    <glyph glyph-name="bar" unicode="|" horiz-adv-x="588" 
d="M240 750h106v-1000h-106v1000z" />
    <glyph glyph-name="braceright" unicode="}" horiz-adv-x="394" 
d="M342 266v-28c-63 -6 -93 -54 -93 -107c0 -49 23 -115 23 -158c0 -77 -69 -159 -201 -159v19c56 6 95 50 95 93c0 59 -24 95 -24 165c0 65 49 137 160 160v2c-111 23 -160 95 -160 160c0 70 24 106 24 165c0 43 -39 87 -95 93v19c132 0 201 -82 201 -159
c0 -43 -23 -109 -23 -158c0 -53 30 -101 93 -107z" />
    <glyph glyph-name="asciitilde" unicode="~" horiz-adv-x="520" 
d="M471 416h31c-2 -97 -56 -172 -135 -172c-43 0 -86 17 -127 34s-79 34 -111 34c-42 0 -67 -22 -78 -68h-32c10 110 62 172 144 172c39 0 78 -17 117 -35s78 -35 116 -35s65 24 75 70z" />
    <glyph glyph-name="exclamdown" unicode="&#xa1;" horiz-adv-x="344" 
d="M206 225l48 -311c10 -66 8 -102 -49 -102h-66c-53 0 -60 34 -49 102l47 304c6 37 6 42 20 42h30c11 0 14 -4 19 -35zM81 425c0 51 41 92 92 92s91 -41 91 -92s-40 -91 -91 -91s-92 40 -92 91z" />
    <glyph glyph-name="cent" unicode="&#xa2;" horiz-adv-x="521" 
d="M185 0l-37 -105h-47l44 121c-69 41 -110 117 -110 201c0 129 86 245 269 245l66 185h49l-68 -188c84 -13 122 -58 122 -105c0 -38 -31 -70 -68 -70c-42 0 -56 29 -80 99h-2l-88 -248c30 -30 62 -43 102 -43c43 0 69 12 110 53l37 -34c-39 -76 -123 -122 -224 -122
c-28 0 -52 3 -75 11zM202 177l84 234c-50 11 -114 -28 -114 -126c0 -39 10 -73 30 -108z" />
    <glyph glyph-name="sterling" unicode="&#xa3;" horiz-adv-x="510" 
d="M403 239l-12 -73h-118c-5 -36 -26 -107 -43 -136c62 1 92 -87 163 -87c20 0 32 11 32 28c0 29 -45 43 -45 77c0 27 25 53 53 53c30 0 49 -32 49 -82c0 -105 -54 -171 -140 -171c-51 0 -94 21 -150 99c-36 -69 -75 -99 -111 -99c-34 0 -55 21 -55 55c0 49 38 92 101 116
c12 48 18 97 21 147h-108l10 73h104c18 197 41 306 112 377c25 25 62 47 114 47c67 0 106 -34 106 -90c0 -40 -20 -68 -49 -68c-24 0 -43 22 -43 45c0 26 8 66 -24 66c-27 0 -41 -47 -50 -119l-34 -258h117z" />
    <glyph glyph-name="fraction" unicode="&#x2044;" horiz-adv-x="281" 
d="M-14 -13h-70l383 695h69z" />
    <glyph glyph-name="yen" unicode="&#xa5;" horiz-adv-x="657" 
d="M417 323l50 91h-97zM525 414l-83 -144h233v-48h-234v-67c0 -52 4 -72 19 -86c13 -14 37 -22 62 -22h15v-47h-363v47h15c30 0 45 1 62 15c20 16 36 38 36 93v67h-234v48h223l-79 144h-144v48h118c-23 39 -41 79 -62 119c-25 48 -73 50 -95 53l-7 1v47h362v-47
c-51 0 -84 -8 -84 -43c0 -14 2 -21 17 -49l43 -81h149l41 75c10 18 11 33 11 39c0 35 -27 57 -72 59v47h230v-47c-26 -6 -38 -12 -53 -26c-16 -15 -42 -49 -58 -77l-40 -70h122v-48h-150z" />
    <glyph glyph-name="florin" unicode="&#x192;" horiz-adv-x="629" 
d="M224 383l10 52h69c25 75 62 155 105 198c33 33 84 63 145 63c53 0 101 -37 101 -77c0 -31 -28 -57 -60 -57c-52 0 -50 78 -78 78c-11 0 -19 -11 -23 -27l-48 -178h79l-7 -52h-87l-53 -193c-36 -130 -76 -244 -142 -310c-43 -43 -99 -72 -157 -72c-59 0 -103 29 -103 70
c0 30 28 57 60 57c52 0 58 -67 87 -67c20 0 34 28 57 114l108 401h-63z" />
    <glyph glyph-name="section" unicode="&#xa7;" horiz-adv-x="573" 
d="M198 602c0 -55 71 -129 168 -240c111 -128 173 -180 173 -308c0 -150 -104 -246 -267 -246c-168 0 -228 57 -228 116c0 38 31 68 70 68c94 0 74 -137 200 -137c45 0 76 22 76 55c0 51 -54 103 -182 237c-115 121 -174 196 -174 308c0 104 72 242 279 242
c127 0 211 -50 211 -113c0 -40 -25 -65 -64 -65c-37 0 -50 16 -91 63c-31 36 -78 67 -114 67c-31 0 -57 -21 -57 -47zM480 5c0 108 -55 169 -170 290c-97 103 -169 189 -169 254c0 26 7 56 21 81l-2 2c-43 -38 -70 -93 -70 -146c0 -89 54 -144 179 -278
c96 -103 169 -183 169 -263c0 -24 -6 -45 -22 -69l2 -2c41 26 62 69 62 131z" />
    <glyph glyph-name="currency" unicode="&#xa4;" horiz-adv-x="667" 
d="M457 522l64 65l69 -70l-64 -64c24 -41 36 -79 36 -122c0 -44 -12 -85 -36 -124l64 -63l-69 -69l-64 63c-40 -25 -79 -36 -125 -36c-44 0 -81 11 -122 36l-63 -63l-70 69l64 63c-25 41 -35 78 -35 124c0 45 10 80 35 122l-64 64l68 70l66 -65c41 25 79 36 122 36
c44 0 83 -12 124 -36zM203 330c0 -72 58 -131 131 -131c72 0 130 59 130 131s-58 130 -130 130c-73 0 -131 -58 -131 -130z" />
    <glyph glyph-name="quotesingle" unicode="'" horiz-adv-x="278" 
d="M152 357h-24l-50 187c-6 23 -10 46 -10 63c0 43 31 75 72 75s72 -32 72 -75c0 -17 -4 -40 -10 -63z" />
    <glyph glyph-name="quotedblleft" unicode="&#x201c;" horiz-adv-x="615" 
d="M339 493c0 123 99 203 180 203c15 0 21 -6 21 -16v-25c0 -9 -5 -14 -14 -14c-50 0 -104 -40 -104 -93c0 -60 66 -31 97 -62c14 -14 22 -27 22 -58c0 -53 -33 -86 -84 -86c-71 0 -118 60 -118 151zM74 493c0 123 99 203 180 203c15 0 21 -6 21 -16v-25
c0 -9 -5 -14 -14 -14c-50 0 -104 -40 -104 -93c0 -60 66 -31 97 -62c14 -14 22 -27 22 -58c0 -53 -33 -86 -84 -86c-71 0 -118 60 -118 151z" />
    <glyph glyph-name="guillemotleft" unicode="&#xab;" horiz-adv-x="552" 
d="M174 27c-15 34 -29 60 -55 103c-32 53 -53 87 -81 122c32 43 54 74 78 112c27 43 42 72 58 112h100c-22 -72 -59 -138 -115 -217l-5 -7l7 -11c41 -65 74 -118 92 -159c8 -19 13 -31 21 -55h-100zM414 27c-16 34 -30 60 -55 103c-31 54 -53 87 -81 122c32 43 54 74 78 112
c27 43 42 72 58 112h100c-22 -72 -59 -138 -115 -217l-5 -7l7 -11c61 -96 92 -152 113 -214h-100z" />
    <glyph glyph-name="guilsinglleft" unicode="&#x2039;" horiz-adv-x="311" 
d="M172 476h100c-22 -72 -59 -138 -115 -217l-5 -7l7 -11c61 -96 93 -152 113 -214h-100l-8 13l-47 90c-20 39 -45 76 -81 122c32 43 54 74 78 112c27 43 42 72 58 112z" />
    <glyph glyph-name="guilsinglright" unicode="&#x203a;" horiz-adv-x="311" 
d="M140 27h-101c22 72 58 139 115 217l6 7l-8 11c-62 95 -92 152 -113 214h101c15 -34 29 -60 54 -103c32 -54 54 -87 81 -122c-32 -43 -53 -74 -78 -112c-28 -42 -42 -72 -57 -112z" />
    <glyph glyph-name="endash" unicode="&#x2013;" horiz-adv-x="500" 
d="M-6 312h512v-123h-512v123z" />
    <glyph glyph-name="dagger" unicode="&#x2020;" horiz-adv-x="469" 
d="M255 433c64 29 114 55 145 55c23 0 38 -13 38 -33v-73c0 -42 -12 -59 -39 -59c-30 0 -77 21 -145 60c9 -41 17 -88 26 -149l35 -246c8 -54 9 -76 9 -124c0 -44 -12 -58 -50 -58h-79c-35 0 -50 10 -50 65c0 37 3 78 9 117l35 246c9 60 17 108 26 148
c-74 -38 -112 -59 -146 -59c-26 0 -38 18 -38 59v73c0 20 15 33 37 33c28 0 72 -20 147 -55c-29 80 -64 173 -64 217c0 33 16 46 42 46h74c34 0 51 -11 51 -46c0 -36 -25 -113 -63 -217z" />
    <glyph glyph-name="daggerdbl" unicode="&#x2021;" horiz-adv-x="479" 
d="M215 428c-73 -34 -112 -57 -146 -57c-21 0 -31 12 -31 38v80c0 21 11 33 30 33c25 0 51 -10 147 -54c-33 77 -60 152 -60 188c0 24 16 40 41 40h87c25 0 42 -16 42 -40c0 -37 -30 -113 -61 -188c86 40 118 54 148 54c18 0 30 -12 30 -33v-80c0 -26 -11 -38 -32 -38
c-35 0 -93 32 -146 57c10 -58 26 -133 26 -174c0 -44 -15 -116 -27 -175c52 24 106 58 147 58c21 0 32 -12 32 -38v-80c0 -21 -12 -33 -31 -33c-22 0 -57 12 -147 55c32 -77 61 -151 61 -189c0 -24 -17 -40 -42 -40h-87c-25 0 -41 16 -41 40c0 36 27 110 60 188
c-95 -44 -122 -54 -148 -54c-18 0 -29 12 -29 33v80c0 26 10 38 31 38c30 0 71 -20 146 -57c-14 69 -25 140 -25 174c0 46 12 105 25 174z" />
    <glyph glyph-name="periodcentered" unicode="&#xb7;" horiz-adv-x="344" 
d="M80 326c0 51 40 91 91 91s92 -40 92 -91s-41 -92 -92 -92s-91 41 -91 92z" />
    <glyph glyph-name="paragraph" unicode="&#xb6;" horiz-adv-x="540" 
d="M311 645v-841h-49v425c-169 0 -263 93 -263 228c0 111 59 225 253 225h288v-21h-21c-46 0 -71 -18 -71 -70v-787h-48v841h-89z" />
    <glyph glyph-name="bullet" unicode="&#x2022;" horiz-adv-x="351" 
d="M37 331c0 77 62 139 139 139s140 -62 140 -139s-63 -140 -140 -140s-139 63 -139 140z" />
    <glyph glyph-name="quotesinglbase" unicode="&#x201a;" 
d="M92 -162l-16 32c-4 7 -1 12 9 14c58 18 96 53 96 87c0 22 -9 28 -37 28c-51 0 -78 32 -78 70c0 47 37 81 90 81c66 0 113 -57 113 -137c0 -36 -8 -77 -48 -117c-49 -49 -126 -65 -129 -58z" />
    <glyph glyph-name="quotedblbase" unicode="&#x201e;" horiz-adv-x="615" 
d="M340 -164v25c0 9 5 14 14 14c50 0 104 40 104 93c0 60 -66 31 -97 62c-14 14 -22 27 -22 58c0 53 33 86 84 86c71 0 118 -60 118 -151c0 -123 -99 -203 -180 -203c-15 0 -21 6 -21 16zM76 -164v25c0 9 5 14 14 14c50 0 104 40 104 93c0 60 -66 31 -97 62
c-14 14 -23 27 -23 58c0 50 33 86 85 86c71 0 118 -60 118 -151c0 -123 -99 -203 -180 -203c-15 0 -21 6 -21 16z" />
    <glyph glyph-name="quotedblright" unicode="&#x201d;" horiz-adv-x="615" 
d="M339 610c0 53 33 86 84 86c71 0 118 -60 118 -151c0 -123 -99 -203 -180 -203c-15 0 -21 6 -21 16v25c0 9 5 14 14 14c50 0 104 40 104 93c0 60 -66 31 -97 62c-14 14 -22 27 -22 58zM74 610c0 53 33 86 84 86c71 0 118 -60 118 -151c0 -123 -99 -203 -180 -203
c-15 0 -21 6 -21 16v25c0 9 5 14 14 14c50 0 104 40 104 93c0 60 -66 31 -97 62c-14 14 -22 27 -22 58z" />
    <glyph glyph-name="guillemotright" unicode="&#xbb;" horiz-adv-x="552" 
d="M378 27h-100c22 72 59 138 115 217l5 7l-7 11c-41 65 -73 118 -92 159c-9 19 -13 31 -21 55h100c16 -34 30 -60 55 -103c31 -54 53 -87 81 -122c-32 -43 -54 -74 -78 -113c-26 -43 -42 -71 -58 -111zM138 27h-100c22 72 58 139 115 217l6 7l-8 11
c-62 95 -92 152 -113 214h100c16 -34 30 -60 55 -103c32 -54 54 -87 81 -122c-32 -43 -53 -74 -78 -113c-27 -42 -42 -71 -58 -111z" />
    <glyph glyph-name="ellipsis" unicode="&#x2026;" horiz-adv-x="1031" 
d="M849 174c51 0 92 -40 92 -91s-41 -92 -92 -92s-91 41 -91 92s40 91 91 91zM515 174c51 0 92 -40 92 -91s-41 -92 -92 -92s-91 41 -91 92s40 91 91 91zM181 174c51 0 92 -40 92 -91s-41 -92 -92 -92s-91 41 -91 92s40 91 91 91z" />
    <glyph glyph-name="perthousand" unicode="&#x2030;" horiz-adv-x="1167" 
d="M981 16c37 0 45 39 45 151c0 100 -8 148 -46 148c-39 0 -45 -49 -45 -148c0 -116 10 -151 46 -151zM1153 165c0 -111 -66 -181 -172 -181c-105 0 -173 70 -173 179c0 113 66 184 170 184c109 0 175 -69 175 -182zM225 -16h-71l393 698h71zM593 16c37 0 45 39 45 151
c0 100 -8 148 -46 148c-39 0 -45 -49 -45 -148c0 -116 10 -151 46 -151zM765 165c0 -111 -66 -181 -172 -181c-105 0 -173 70 -173 179c0 113 66 184 170 184c109 0 175 -69 175 -182zM186 365c37 0 45 39 45 151c0 100 -8 148 -46 148c-39 0 -44 -49 -44 -148
c0 -116 9 -151 45 -151zM358 514c0 -111 -66 -181 -172 -181c-105 0 -173 70 -173 179c0 113 66 184 170 184c109 0 175 -69 175 -182z" />
    <glyph glyph-name="questiondown" unicode="&#xbf;" horiz-adv-x="458" 
d="M284 273h20c12 0 14 -2 15 -14l14 -159c4 -48 -114 -22 -171 -79c-15 -15 -19 -26 -19 -46c0 -40 41 -79 84 -79c65 0 118 49 162 49c29 0 49 -27 49 -65s-47 -68 -109 -68c-108 0 -276 84 -276 247c0 32 5 62 33 90c80 80 183 36 183 88v24c0 10 2 12 15 12zM199 425
c0 51 41 92 92 92s91 -41 91 -92s-40 -91 -91 -91s-92 40 -92 91z" />
    <glyph glyph-name="grave" unicode="`" 
d="M19 684h146l57 -169h-42z" />
    <glyph glyph-name="acute" unicode="&#xb4;" 
d="M314 684l-161 -169h-42l57 169h146z" />
    <glyph glyph-name="circumflex" unicode="&#x2c6;" 
d="M225 697l98 -187h-37l-117 99l-119 -99h-40l104 187h111z" />
    <glyph glyph-name="tilde" unicode="&#x2dc;" 
d="M297 654h26c8 -84 -43 -135 -103 -135c-57 0 -108 46 -144 46c-22 0 -33 -13 -38 -45h-28c-3 84 44 135 106 135c48 0 98 -45 141 -45c19 0 29 11 40 44z" />
    <glyph glyph-name="macron" unicode="&#xaf;" 
d="M10 654h314v-102h-314v102z" />
    <glyph glyph-name="breve" unicode="&#x2d8;" 
d="M283 677h32c0 -91 -77 -156 -148 -156c-81 0 -148 76 -148 156h32c17 -43 51 -62 113 -62c68 0 100 17 119 62z" />
    <glyph glyph-name="dotaccent" unicode="&#x2d9;" 
d="M167 649c36 0 65 -29 65 -65s-29 -65 -65 -65s-65 29 -65 65s29 65 65 65z" />
    <glyph glyph-name="dieresis" unicode="&#xa8;" 
d="M10 584c0 36 29 65 65 65s65 -29 65 -65s-29 -65 -65 -65s-65 29 -65 65zM193 584c0 36 29 65 65 65s65 -29 65 -65s-29 -65 -65 -65s-65 29 -65 65z" />
    <glyph glyph-name="ring" unicode="&#x2da;" 
d="M102 599c0 -36 29 -65 65 -65s65 29 65 65s-29 65 -65 65s-65 -29 -65 -65zM65 599c0 56 46 102 102 102s102 -46 102 -102s-46 -102 -102 -102s-102 46 -102 102z" />
    <glyph glyph-name="cedilla" unicode="&#xb8;" 
d="M43 -183c66 0 111 14 111 58c0 26 -22 40 -59 40l76 91h44l-31 -39c52 -8 81 -35 81 -79c0 -52 -50 -97 -173 -97h-49v26z" />
    <glyph glyph-name="hungarumlaut" unicode="&#x2dd;" 
d="M211 514l56 170h103l-120 -170h-39zM55 514l56 170h103l-120 -170h-39z" />
    <glyph glyph-name="ogonek" unicode="&#x2db;" 
d="M50 -106c0 48 32 84 90 114h42c-33 -25 -46 -46 -46 -73c0 -53 49 -111 133 -110l15 -16c-34 -24 -61 -34 -98 -34c-73 0 -136 55 -136 119z" />
    <glyph glyph-name="caron" unicode="&#x2c7;" 
d="M108 510l-98 187h37l117 -99l119 99h40l-104 -187h-111z" />
    <glyph glyph-name="emdash" unicode="&#x2014;" horiz-adv-x="1000" 
d="M-6 312h1012v-123h-1012v123z" />
    <glyph glyph-name="AE" unicode="&#xc6;" horiz-adv-x="1031" 
d="M942 164h67l-32 -164h-593v47c75 0 87 27 72 88l-46 186h-173l-43 -149c-19 -65 -8 -114 60 -125v-47h-238v47c66 6 75 34 109 128l117 325c33 91 36 135 -52 135v47h697l30 -150h-66c-76 75 -119 103 -209 103h-135l65 -267h104c93 0 121 20 125 88h63l39 -215h-66
c-28 68 -50 80 -149 80h-103l54 -213c10 -40 24 -61 97 -61c71 0 114 25 206 117zM399 368l-64 267h-2l-79 -267h145z" />
    <glyph glyph-name="ordfeminine" unicode="&#xaa;" horiz-adv-x="365" 
d="M350 448l6 -29c-18 -25 -46 -40 -75 -40c-32 0 -53 13 -65 40c-35 -29 -62 -40 -103 -40c-55 0 -93 25 -93 62c0 57 75 88 196 109v45c0 23 -17 38 -45 38c-36 0 -59 -23 -45 -60l-86 -26c-6 15 -9 28 -9 40c0 49 54 76 156 76c100 0 123 -29 123 -78v-118
c0 -25 11 -32 40 -19zM216 449v74c-69 -16 -95 -33 -95 -60c0 -23 16 -40 37 -40c16 0 35 8 58 26z" />
    <glyph glyph-name="Lslash" unicode="&#x141;" horiz-adv-x="686" 
d="M294 333v-169c0 -86 28 -117 98 -117c83 0 149 38 224 123h62l-29 -170h-614v47c57 0 83 26 83 81v89l-84 -65v86l84 65v254c0 48 -23 78 -83 78v47h349v-47c-69 0 -90 -27 -90 -87v-129l172 133v-86z" />
    <glyph glyph-name="Oslash" unicode="&#xd8;" horiz-adv-x="875" 
d="M604 496l-313 -366c40 -62 87 -96 158 -96c45 0 85 22 114 51c51 51 67 132 67 229c0 78 -12 141 -26 182zM215 41l-60 -70l-36 32l55 65c-83 65 -124 165 -124 261c0 230 193 367 390 367c68 0 157 -19 223 -57l59 69l35 -33l-54 -63c64 -48 121 -131 121 -265
c0 -185 -134 -360 -393 -360c-88 0 -157 20 -216 54zM270 179l313 367c-32 60 -82 98 -152 98c-118 0 -187 -104 -187 -284c0 -81 10 -129 26 -181z" />
    <glyph glyph-name="OE" unicode="&#x152;" horiz-adv-x="1042" 
d="M950 168h70l-32 -168h-602c-243 0 -342 172 -342 334c0 159 93 348 352 348h584v-143h-65c-64 78 -103 96 -167 96h-185v-2c89 -51 144 -148 151 -253h20c65 0 96 23 112 84h66v-221h-66c-23 66 -54 90 -112 90h-20c-1 -101 -49 -222 -168 -284v-2h151
c119 0 176 35 253 121zM233 362c0 -207 52 -314 153 -314c92 0 138 91 138 247c0 220 -53 338 -151 338c-111 0 -140 -121 -140 -271z" />
    <glyph glyph-name="ordmasculine" unicode="&#xba;" horiz-adv-x="375" 
d="M350 521c0 -85 -66 -142 -166 -142c-95 0 -159 55 -159 137c0 86 69 147 167 147c110 0 158 -79 158 -142zM247 503c0 82 -21 131 -64 131c-35 0 -55 -23 -55 -94c0 -92 21 -132 63 -132c43 0 56 33 56 95z" />
    <glyph glyph-name="ae" unicode="&#xe6;" horiz-adv-x="813" 
d="M751 149l32 -34c-46 -79 -135 -126 -240 -126c-80 0 -131 20 -186 73c-71 -51 -128 -73 -191 -73c-80 0 -137 46 -137 110c0 73 75 137 298 177v62c0 51 -22 77 -67 77c-42 0 -99 -21 -69 -103l-131 -43c-52 118 46 193 196 193c72 0 118 -14 157 -50c50 36 93 50 155 50
c123 0 199 -61 215 -176l-312 -47c-5 -112 53 -152 128 -152c51 0 99 20 152 62zM472 286l156 25c-10 71 -36 104 -81 104c-53 0 -75 -35 -75 -129zM327 98v130c-106 -23 -142 -49 -142 -101c0 -36 24 -63 56 -63c25 0 55 11 86 34z" />
    <glyph glyph-name="dotlessi" unicode="&#x131;" 
d="M242 459v-321c0 -58 14 -88 74 -91v-47h-298v47c59 0 80 28 80 89v194l-80 47v32l173 50h51z" />
    <glyph glyph-name="lslash" unicode="&#x142;" horiz-adv-x="311" 
d="M233 346v-213c0 -46 14 -81 71 -86v-47h-297v47c59 0 82 29 82 87v101l-83 -76v85l83 76v246l-82 43v29l193 55h33v-262l71 65v-85z" />
    <glyph glyph-name="oslash" unicode="&#xf8;" horiz-adv-x="573" 
d="M198 153l161 186c-17 53 -46 76 -80 76c-71 0 -87 -71 -87 -160c0 -47 4 -87 6 -102zM433 424l53 61l35 -29l-52 -60c47 -51 66 -107 66 -171c0 -122 -76 -236 -253 -236c-55 0 -100 12 -137 34l-47 -54l-33 31l42 49c-44 41 -70 98 -70 168c0 123 85 245 256 245
c57 0 105 -14 140 -38zM372 284l-160 -184c18 -43 45 -64 82 -64c54 0 86 49 86 131c0 49 -3 88 -8 117z" />
    <glyph glyph-name="oe" unicode="&#x153;" horiz-adv-x="865" 
d="M787 140l35 -28c-55 -92 -147 -123 -222 -123c-67 0 -120 18 -168 58c-60 -42 -106 -58 -165 -58c-134 0 -231 97 -231 232c0 141 98 241 235 241c65 0 122 -20 161 -56c57 38 113 56 181 56c96 0 211 -56 217 -205h-320c-5 -125 65 -169 151 -169c53 0 96 18 126 52z
M366 193c0 126 -16 222 -91 222c-65 0 -79 -75 -79 -161c0 -140 21 -218 90 -218c54 0 80 51 80 157zM511 304h163c8 66 -35 111 -80 111c-49 0 -81 -42 -83 -111z" />
    <glyph glyph-name="germandbls" unicode="&#xdf;" horiz-adv-x="635" 
d="M95 392h-74v58c34 1 51 8 60 17c22 22 10 88 77 155c52 52 120 71 197 71c149 0 214 -80 214 -148c0 -60 -48 -112 -135 -143v-2c105 -17 169 -95 169 -202c0 -123 -74 -209 -179 -209c-60 0 -105 37 -105 86c0 25 17 43 41 43c26 0 35 -19 42 -38c7 -20 13 -39 31 -39
c23 0 40 26 40 63c0 120 -70 244 -154 256v41c71 19 106 62 106 132c0 66 -41 113 -97 113c-58 0 -89 -40 -89 -94v-442c0 -36 16 -61 53 -66v-44h-266v47c47 6 69 26 69 76v269z" />
    <glyph glyph-name="logicalnot" unicode="&#xac;" horiz-adv-x="667" 
d="M62 498h543v-335h-100v235h-443v100z" />
    <glyph glyph-name="mu" unicode="&#xb5;" horiz-adv-x="556" 
d="M64 450h136v-332c0 -46 11 -65 41 -65c31 0 55 18 81 59v338h136v-326c0 -46 10 -64 32 -64c21 0 34 23 39 70h20c3 -91 -59 -143 -126 -143c-50 0 -81 24 -98 76c-49 -55 -90 -76 -142 -76c-26 0 -42 6 -72 28c0 -80 28 -124 28 -165c0 -40 -23 -65 -58 -65
c-33 0 -52 21 -52 58c0 66 35 99 35 237v370z" />
    <glyph glyph-name="trademark" unicode="&#x2122;" horiz-adv-x="1000" 
d="M76 268v17c48 3 50 6 50 65v287h-16c-63 0 -90 -24 -96 -85h-16v111h376v-111h-16c-5 61 -32 85 -95 85h-17v-287c0 -59 3 -62 50 -65v-17h-220zM428 663h180l113 -243l111 243h170v-19c-42 0 -50 -9 -50 -65v-243c0 -33 10 -49 50 -51v-17h-225v17c48 0 55 9 55 65v245
h-2l-153 -327h-12l-154 327h-2v-258c0 -41 13 -52 56 -52v-17h-137v17c49 2 54 8 54 65v229c0 54 -7 65 -45 65h-9v19z" />
    <glyph glyph-name="Eth" unicode="&#xd0;" horiz-adv-x="875" 
d="M30 682h446c240 0 346 -166 346 -332c0 -167 -113 -350 -394 -350h-398v47c68 0 88 28 88 88v199h-88v48h88v163c0 59 -15 90 -88 90v47zM294 635v-253h181v-48h-181v-175c0 -77 28 -112 115 -112c179 0 224 150 224 278c0 107 -25 190 -85 250c-46 46 -99 60 -183 60
h-71z" />
    <glyph glyph-name="onehalf" unicode="&#xbd;" horiz-adv-x="917" 
d="M850 97l-37 -97h-237v27c90 68 163 153 163 203c0 35 -29 60 -69 60c-25 0 -43 -9 -66 -28l-22 21c33 39 88 62 133 62c63 0 112 -37 112 -84c0 -67 -66 -117 -156 -189v-2h88c37 0 44 4 54 27h37zM293 -13h-70l383 695h69zM225 663v-276c0 -32 14 -42 45 -42h16v-27
h-211v27h12c41 0 49 9 49 52v140c0 40 -8 49 -45 49h-16v28c50 12 83 28 106 49h44z" />
    <glyph glyph-name="plusminus" unicode="&#xb1;" horiz-adv-x="668" 
d="M63 100h542v-100h-542v100zM384 385v-211h-100v211h-221v100h221v211h100v-211h221v-100h-221z" />
    <glyph glyph-name="Thorn" unicode="&#xde;" horiz-adv-x="729" 
d="M117 139v402c0 70 -19 94 -91 94v47h358v-47c-85 -4 -91 -29 -91 -104h181c166 0 236 -102 236 -191c0 -57 -30 -190 -273 -190h-144v-20c0 -56 22 -83 93 -83v-47h-360v47c67 0 91 23 91 92zM293 484v-287h110c92 0 118 74 118 137c0 69 -32 150 -154 150h-74z" />
    <glyph glyph-name="onequarter" unicode="&#xbc;" horiz-adv-x="917" 
d="M829 135v-59h-45v-82h-85v82h-156v51l179 217h62v-209h45zM699 135v132h-2l-107 -132h109zM293 -13h-70l383 695h69zM225 663v-276c0 -32 14 -42 45 -42h16v-27h-211v27h12c41 0 49 9 49 52v140c0 40 -8 49 -45 49h-16v28c50 12 83 28 106 49h44z" />
    <glyph glyph-name="divide" unicode="&#xf7;" horiz-adv-x="668" 
d="M63 379h542v-100h-542v100zM334 595c34 0 61 -27 61 -61s-27 -61 -61 -61s-61 27 -61 61s27 61 61 61zM273 124c0 34 27 61 61 61s61 -27 61 -61s-27 -61 -61 -61s-61 27 -61 61z" />
    <glyph glyph-name="brokenbar" unicode="&#xa6;" horiz-adv-x="588" 
d="M240 675h106v-350h-106v350zM240 175h106v-350h-106v350z" />
    <glyph glyph-name="degree" unicode="&#xb0;" horiz-adv-x="400" 
d="M305 513c0 58 -47 105 -105 105s-105 -47 -105 -105s47 -105 105 -105s105 47 105 105zM369 513c0 -93 -76 -169 -169 -169s-169 76 -169 169s76 169 169 169s169 -76 169 -169z" />
    <glyph glyph-name="thorn" unicode="&#xfe;" horiz-adv-x="615" 
d="M228 693v-302c48 47 103 71 158 71c109 0 192 -96 192 -221c0 -149 -110 -252 -269 -252c-30 0 -51 3 -81 11v-50c0 -63 19 -91 80 -91v-47h-298v47c54 0 74 34 74 85v616l-74 49v30l165 54h53zM228 335v-173c0 -76 28 -125 90 -125c58 0 104 72 104 159
c0 97 -51 169 -118 169c-23 0 -45 -8 -76 -30z" />
    <glyph glyph-name="threequarters" unicode="&#xbe;" horiz-adv-x="917" 
d="M840 135v-59h-45v-82h-85v82h-156v51l179 217h62v-209h45zM710 135v132h-2l-107 -132h109zM75 577l-22 26c42 43 79 60 136 60c64 0 109 -29 109 -72c0 -28 -22 -52 -59 -67c47 -16 77 -50 77 -87c0 -67 -81 -125 -174 -125c-49 0 -86 14 -86 33c0 15 16 29 32 29
c33 0 46 -31 77 -31c33 0 58 28 58 64c0 49 -37 68 -135 70l6 28c79 -1 111 28 111 63c0 28 -23 47 -56 47c-24 0 -45 -13 -74 -38zM304 -13h-70l383 695h69z" />
    <glyph glyph-name="registered" unicode="&#xae;" horiz-adv-x="747" 
d="M232 225v230c0 52 -9 65 -43 65v17h209c93 0 141 -49 141 -107c0 -49 -31 -85 -87 -101l66 -122c17 -32 31 -45 52 -49v-16h-118l-101 180h-22v-97c0 -55 8 -65 59 -67v-16h-207v16c40 -1 51 13 51 67zM329 347h25c51 0 80 34 80 85c0 56 -30 84 -87 84h-18v-169zM28 336
c0 191 155 346 346 346s346 -155 346 -346s-155 -346 -346 -346s-346 155 -346 346zM75 336c0 -165 134 -299 299 -299s299 134 299 299s-134 299 -299 299s-299 -134 -299 -299z" />
    <glyph glyph-name="minus" unicode="&#x2212;" horiz-adv-x="667" 
d="M62 379h543v-100h-543v100z" />
    <glyph glyph-name="eth" unicode="&#xf0;" horiz-adv-x="566" 
d="M377 167c0 157 -32 248 -101 248c-71 0 -87 -70 -87 -160c0 -166 41 -219 102 -219c54 0 86 48 86 131zM504 648l-105 -49c101 -101 133 -245 133 -350c0 -164 -93 -260 -252 -260c-169 0 -246 108 -246 226c0 140 104 247 246 247c20 0 40 -6 56 -18h4
c-7 33 -22 70 -45 106l-145 -68l-22 46l136 64c-22 28 -50 53 -84 73l68 31c42 -16 78 -36 108 -60l126 60z" />
    <glyph glyph-name="multiply" unicode="&#xd7;" horiz-adv-x="667" 
d="M77 512l74 74l183 -183l183 183l74 -74l-183 -183l181 -181l-74 -74l-181 181l-181 -181l-74 74l181 181z" />
    <glyph glyph-name="copyright" unicode="&#xa9;" horiz-adv-x="747" 
d="M538 545v-131h-19c-13 67 -59 107 -121 107c-77 0 -126 -63 -126 -182c0 -125 57 -178 125 -178c49 0 89 21 127 68v-35c-40 -41 -91 -62 -156 -62c-121 0 -205 82 -205 199c0 124 90 215 214 215c64 0 96 -26 119 -26c13 0 20 8 23 25h19zM28 336c0 191 155 346 346 346
s346 -155 346 -346s-155 -346 -346 -346s-346 155 -346 346zM75 336c0 -165 134 -299 299 -299s299 134 299 299s-134 299 -299 299s-299 -134 -299 -299z" />
    <glyph glyph-name="Aacute" unicode="&#xc1;" horiz-adv-x="781" 
d="M452 257h-234l-32 -93c-22 -65 -9 -110 55 -117v-47h-235v47c68 13 86 41 105 89l196 499l-23 47h187l215 -553c22 -57 48 -82 89 -82v-47h-338v47c68 6 84 33 60 94zM429 316l-99 251l-89 -251h188zM538 917l-161 -169h-42l57 169h146z" />
    <glyph glyph-name="Acircumflex" unicode="&#xc2;" horiz-adv-x="781" 
d="M452 257h-234l-32 -93c-22 -65 -9 -110 55 -117v-47h-235v47c68 13 86 41 105 89l196 499l-23 47h187l215 -553c22 -57 48 -82 89 -82v-47h-338v47c68 6 84 33 60 94zM429 316l-99 251l-89 -251h188zM449 930l98 -187h-37l-117 99l-119 -99h-40l104 187h111z" />
    <glyph glyph-name="Adieresis" unicode="&#xc4;" horiz-adv-x="781" 
d="M452 257h-234l-32 -93c-22 -65 -9 -110 55 -117v-47h-235v47c68 13 86 41 105 89l196 499l-23 47h187l215 -553c22 -57 48 -82 89 -82v-47h-338v47c68 6 84 33 60 94zM429 316l-99 251l-89 -251h188zM234 817c0 36 29 65 65 65s65 -29 65 -65s-29 -65 -65 -65
s-65 29 -65 65zM417 817c0 36 29 65 65 65s65 -29 65 -65s-29 -65 -65 -65s-65 29 -65 65z" />
    <glyph glyph-name="Agrave" unicode="&#xc0;" horiz-adv-x="781" 
d="M452 257h-234l-32 -93c-22 -65 -9 -110 55 -117v-47h-235v47c68 13 86 41 105 89l196 499l-23 47h187l215 -553c22 -57 48 -82 89 -82v-47h-338v47c68 6 84 33 60 94zM429 316l-99 251l-89 -251h188zM243 917h146l57 -169h-42z" />
    <glyph glyph-name="Aring" unicode="&#xc5;" horiz-adv-x="781" 
d="M452 257h-234l-32 -93c-22 -65 -9 -110 55 -117v-47h-235v47c68 13 86 41 105 89l196 499l-23 47h187l215 -553c22 -57 48 -82 89 -82v-47h-338v47c68 6 84 33 60 94zM429 316l-99 251l-89 -251h188zM326 832c0 -36 29 -65 65 -65s65 29 65 65s-29 65 -65 65
s-65 -29 -65 -65zM289 832c0 56 46 102 102 102s102 -46 102 -102s-46 -102 -102 -102s-102 46 -102 102z" />
    <glyph glyph-name="Atilde" unicode="&#xc3;" horiz-adv-x="781" 
d="M452 257h-234l-32 -93c-22 -65 -9 -110 55 -117v-47h-235v47c68 13 86 41 105 89l196 499l-23 47h187l215 -553c22 -57 48 -82 89 -82v-47h-338v47c68 6 84 33 60 94zM429 316l-99 251l-89 -251h188zM521 887h26c8 -84 -43 -135 -103 -135c-57 0 -108 46 -144 46
c-22 0 -33 -13 -38 -45h-28c-3 84 44 135 106 135c48 0 98 -45 141 -45c19 0 29 11 40 44z" />
    <glyph glyph-name="Ccedilla" unicode="&#xc7;" horiz-adv-x="802" 
d="M315 -85l67 80c-183 21 -333 132 -333 334c0 187 137 367 405 367c97 0 189 -21 274 -61l20 -159h-74c-41 92 -118 173 -226 173c-129 0 -209 -111 -209 -291c0 -195 92 -324 231 -324c98 0 177 65 211 189h75v-167c-79 -44 -185 -69 -293 -69c-14 0 -27 0 -41 3l-18 -23
c52 -8 81 -35 81 -79c0 -52 -50 -97 -173 -97h-49v26c66 0 111 14 111 58c0 26 -22 40 -59 40z" />
    <glyph glyph-name="Eacute" unicode="&#xc9;" horiz-adv-x="750" 
d="M612 466v-221h-66c-21 74 -57 90 -136 90h-115v-192c0 -61 20 -96 129 -96c95 0 151 20 238 122h69l-30 -169h-671v47c62 0 89 22 89 86v421c0 54 -21 81 -89 81v47h656v-143h-65c-62 78 -101 96 -185 96h-141v-253h120c83 0 116 24 131 84h66zM523 917l-161 -169h-42
l57 169h146z" />
    <glyph glyph-name="Ecircumflex" unicode="&#xca;" horiz-adv-x="750" 
d="M612 466v-221h-66c-21 74 -57 90 -136 90h-115v-192c0 -61 20 -96 129 -96c95 0 151 20 238 122h69l-30 -169h-671v47c62 0 89 22 89 86v421c0 54 -21 81 -89 81v47h656v-143h-65c-62 78 -101 96 -185 96h-141v-253h120c83 0 116 24 131 84h66zM434 930l98 -187h-37
l-117 99l-119 -99h-40l104 187h111z" />
    <glyph glyph-name="Edieresis" unicode="&#xcb;" horiz-adv-x="750" 
d="M612 466v-221h-66c-21 74 -57 90 -136 90h-115v-192c0 -61 20 -96 129 -96c95 0 151 20 238 122h69l-30 -169h-671v47c62 0 89 22 89 86v421c0 54 -21 81 -89 81v47h656v-143h-65c-62 78 -101 96 -185 96h-141v-253h120c83 0 116 24 131 84h66zM219 817c0 36 29 65 65 65
s65 -29 65 -65s-29 -65 -65 -65s-65 29 -65 65zM402 817c0 36 29 65 65 65s65 -29 65 -65s-29 -65 -65 -65s-65 29 -65 65z" />
    <glyph glyph-name="Egrave" unicode="&#xc8;" horiz-adv-x="750" 
d="M612 466v-221h-66c-21 74 -57 90 -136 90h-115v-192c0 -61 20 -96 129 -96c95 0 151 20 238 122h69l-30 -169h-671v47c62 0 89 22 89 86v421c0 54 -21 81 -89 81v47h656v-143h-65c-62 78 -101 96 -185 96h-141v-253h120c83 0 116 24 131 84h66zM228 917h146l57 -169h-42z
" />
    <glyph glyph-name="Iacute" unicode="&#xcd;" horiz-adv-x="406" 
d="M379 47v-47h-352v47c65 0 86 29 86 83v416c0 61 -20 89 -86 89v47h352v-47c-76 0 -90 -36 -90 -91v-413c0 -54 20 -84 90 -84zM351 917l-161 -169h-42l57 169h146z" />
    <glyph glyph-name="Icircumflex" unicode="&#xce;" horiz-adv-x="406" 
d="M379 47v-47h-352v47c65 0 86 29 86 83v416c0 61 -20 89 -86 89v47h352v-47c-76 0 -90 -36 -90 -91v-413c0 -54 20 -84 90 -84zM262 930l98 -187h-37l-117 99l-119 -99h-40l104 187h111z" />
    <glyph glyph-name="Idieresis" unicode="&#xcf;" horiz-adv-x="406" 
d="M379 47v-47h-352v47c65 0 86 29 86 83v416c0 61 -20 89 -86 89v47h352v-47c-76 0 -90 -36 -90 -91v-413c0 -54 20 -84 90 -84zM47 817c0 36 29 65 65 65s65 -29 65 -65s-29 -65 -65 -65s-65 29 -65 65zM230 817c0 36 29 65 65 65s65 -29 65 -65s-29 -65 -65 -65
s-65 29 -65 65z" />
    <glyph glyph-name="Igrave" unicode="&#xcc;" horiz-adv-x="406" 
d="M379 47v-47h-352v47c65 0 86 29 86 83v416c0 61 -20 89 -86 89v47h352v-47c-76 0 -90 -36 -90 -91v-413c0 -54 20 -84 90 -84zM56 917h146l57 -169h-42z" />
    <glyph glyph-name="Ntilde" unicode="&#xd1;" horiz-adv-x="792" 
d="M282 47v-47h-271v47h7c75 0 100 47 100 133v403c-35 30 -66 47 -103 52v47h247l377 -427v192c0 155 -18 186 -115 188v47h258v-47c-78 -7 -91 -35 -91 -142v-322c0 -100 14 -122 16 -179h-70l-473 538v-302c0 -130 24 -181 111 -181h7zM527 887h26
c8 -84 -43 -135 -103 -135c-57 0 -108 46 -144 46c-22 0 -33 -13 -38 -45h-28c-3 84 44 135 106 135c48 0 98 -45 141 -45c19 0 29 11 40 44z" />
    <glyph glyph-name="Oacute" unicode="&#xd3;" horiz-adv-x="875" 
d="M824 347c0 -185 -134 -360 -393 -360c-252 0 -381 167 -381 342c0 230 193 367 390 367c155 0 384 -81 384 -349zM244 360c0 -218 82 -326 205 -326c45 0 85 22 114 51c51 51 67 132 67 229c0 208 -74 330 -199 330c-118 0 -187 -104 -187 -284zM585 917l-161 -169h-42
l57 169h146z" />
    <glyph glyph-name="Ocircumflex" unicode="&#xd4;" horiz-adv-x="875" 
d="M824 347c0 -185 -134 -360 -393 -360c-252 0 -381 167 -381 342c0 230 193 367 390 367c155 0 384 -81 384 -349zM244 360c0 -218 82 -326 205 -326c45 0 85 22 114 51c51 51 67 132 67 229c0 208 -74 330 -199 330c-118 0 -187 -104 -187 -284zM496 930l98 -187h-37
l-117 99l-119 -99h-40l104 187h111z" />
    <glyph glyph-name="Odieresis" unicode="&#xd6;" horiz-adv-x="875" 
d="M824 347c0 -185 -134 -360 -393 -360c-252 0 -381 167 -381 342c0 230 193 367 390 367c155 0 384 -81 384 -349zM244 360c0 -218 82 -326 205 -326c45 0 85 22 114 51c51 51 67 132 67 229c0 208 -74 330 -199 330c-118 0 -187 -104 -187 -284zM281 817
c0 36 29 65 65 65s65 -29 65 -65s-29 -65 -65 -65s-65 29 -65 65zM464 817c0 36 29 65 65 65s65 -29 65 -65s-29 -65 -65 -65s-65 29 -65 65z" />
    <glyph glyph-name="Ograve" unicode="&#xd2;" horiz-adv-x="875" 
d="M824 347c0 -185 -134 -360 -393 -360c-252 0 -381 167 -381 342c0 230 193 367 390 367c155 0 384 -81 384 -349zM244 360c0 -218 82 -326 205 -326c45 0 85 22 114 51c51 51 67 132 67 229c0 208 -74 330 -199 330c-118 0 -187 -104 -187 -284zM290 917h146l57 -169h-42
z" />
    <glyph glyph-name="Otilde" unicode="&#xd5;" horiz-adv-x="875" 
d="M824 347c0 -185 -134 -360 -393 -360c-252 0 -381 167 -381 342c0 230 193 367 390 367c155 0 384 -81 384 -349zM244 360c0 -218 82 -326 205 -326c45 0 85 22 114 51c51 51 67 132 67 229c0 208 -74 330 -199 330c-118 0 -187 -104 -187 -284zM568 887h26
c8 -84 -43 -135 -103 -135c-57 0 -108 46 -144 46c-22 0 -33 -13 -38 -45h-28c-3 84 44 135 106 135c48 0 98 -45 141 -45c19 0 29 11 40 44z" />
    <glyph glyph-name="Scaron" unicode="&#x160;" horiz-adv-x="656" 
d="M566 489h-71c-15 93 -87 160 -173 160c-63 0 -106 -35 -106 -85c0 -146 395 -126 395 -377c0 -132 -117 -200 -285 -200c-84 0 -197 21 -268 51v169h80c18 -113 99 -173 186 -173c67 0 115 37 115 90c0 140 -211 130 -339 258c-27 27 -49 66 -49 117
c0 114 115 197 273 197c75 0 175 -24 242 -57v-150zM270 743l-98 187h37l117 -99l119 99h40l-104 -187h-111z" />
    <glyph glyph-name="Uacute" unicode="&#xda;" horiz-adv-x="833" 
d="M113 237v305c0 58 -13 93 -89 93v47h357v-47c-69 0 -92 -23 -92 -85v-289c0 -128 53 -195 184 -195c93 0 204 38 204 190v249c0 91 -29 127 -107 130v47h249v-47c-70 -12 -91 -38 -91 -110v-284c0 -201 -144 -254 -300 -254c-174 0 -315 55 -315 250zM584 917l-161 -169
h-42l57 169h146z" />
    <glyph glyph-name="Ucircumflex" unicode="&#xdb;" horiz-adv-x="833" 
d="M113 237v305c0 58 -13 93 -89 93v47h357v-47c-69 0 -92 -23 -92 -85v-289c0 -128 53 -195 184 -195c93 0 204 38 204 190v249c0 91 -29 127 -107 130v47h249v-47c-70 -12 -91 -38 -91 -110v-284c0 -201 -144 -254 -300 -254c-174 0 -315 55 -315 250zM495 930l98 -187
h-37l-117 99l-119 -99h-40l104 187h111z" />
    <glyph glyph-name="Udieresis" unicode="&#xdc;" horiz-adv-x="833" 
d="M113 237v305c0 58 -13 93 -89 93v47h357v-47c-69 0 -92 -23 -92 -85v-289c0 -128 53 -195 184 -195c93 0 204 38 204 190v249c0 91 -29 127 -107 130v47h249v-47c-70 -12 -91 -38 -91 -110v-284c0 -201 -144 -254 -300 -254c-174 0 -315 55 -315 250zM280 817
c0 36 29 65 65 65s65 -29 65 -65s-29 -65 -65 -65s-65 29 -65 65zM463 817c0 36 29 65 65 65s65 -29 65 -65s-29 -65 -65 -65s-65 29 -65 65z" />
    <glyph glyph-name="Ugrave" unicode="&#xd9;" horiz-adv-x="833" 
d="M113 237v305c0 58 -13 93 -89 93v47h357v-47c-69 0 -92 -23 -92 -85v-289c0 -128 53 -195 184 -195c93 0 204 38 204 190v249c0 91 -29 127 -107 130v47h249v-47c-70 -12 -91 -38 -91 -110v-284c0 -201 -144 -254 -300 -254c-174 0 -315 55 -315 250zM289 917h146
l57 -169h-42z" />
    <glyph glyph-name="Yacute" unicode="&#xdd;" horiz-adv-x="729" 
d="M277 141v107l-170 321c-20 38 -34 61 -93 66v47h367v-47c-86 0 -100 -29 -68 -90l116 -222l118 214c21 38 16 95 -61 98v47h230v-47c-43 -6 -75 -41 -111 -103l-152 -263v-134c0 -63 22 -88 96 -88v-47h-368v47c74 0 96 23 96 94zM532 917l-161 -169h-42l57 169h146z" />
    <glyph glyph-name="Ydieresis" unicode="&#x178;" horiz-adv-x="729" 
d="M277 141v107l-170 321c-20 38 -34 61 -93 66v47h367v-47c-86 0 -100 -29 -68 -90l116 -222l118 214c21 38 16 95 -61 98v47h230v-47c-43 -6 -75 -41 -111 -103l-152 -263v-134c0 -63 22 -88 96 -88v-47h-368v47c74 0 96 23 96 94zM228 817c0 36 29 65 65 65
s65 -29 65 -65s-29 -65 -65 -65s-65 29 -65 65zM411 817c0 36 29 65 65 65s65 -29 65 -65s-29 -65 -65 -65s-65 29 -65 65z" />
    <glyph glyph-name="Zcaron" unicode="&#x17d;" horiz-adv-x="686" 
d="M126 531h-64v151h575v-30l-397 -605h146c83 0 141 40 198 123h71l-33 -170h-593v36l393 599h-117c-93 0 -104 -11 -179 -104zM285 743l-98 187h37l117 -99l119 99h40l-104 -187h-111z" />
    <glyph glyph-name="aacute" unicode="&#xe1;" horiz-adv-x="561" 
d="M540 105l8 -49c-28 -42 -71 -67 -114 -67c-50 0 -82 21 -100 67c-55 -50 -96 -67 -159 -67c-85 0 -143 42 -143 103c0 126 193 156 302 183v74c0 40 -27 66 -71 66c-52 0 -91 -36 -67 -103l-133 -42c-9 23 -14 45 -14 66c0 81 81 126 239 126c142 0 190 -41 190 -123
v-208c0 -44 28 -45 62 -26zM334 105v124c-92 -26 -146 -46 -146 -101c0 -37 25 -66 57 -66c25 0 51 13 89 43zM428 684l-161 -169h-42l57 169h146z" />
    <glyph glyph-name="acircumflex" unicode="&#xe2;" horiz-adv-x="561" 
d="M540 105l8 -49c-28 -42 -71 -67 -114 -67c-50 0 -82 21 -100 67c-55 -50 -96 -67 -159 -67c-85 0 -143 42 -143 103c0 126 193 156 302 183v74c0 40 -27 66 -71 66c-52 0 -91 -36 -67 -103l-133 -42c-9 23 -14 45 -14 66c0 81 81 126 239 126c142 0 190 -41 190 -123
v-208c0 -44 28 -45 62 -26zM334 105v124c-92 -26 -146 -46 -146 -101c0 -37 25 -66 57 -66c25 0 51 13 89 43zM339 697l98 -187h-37l-117 99l-119 -99h-40l104 187h111z" />
    <glyph glyph-name="adieresis" unicode="&#xe4;" horiz-adv-x="561" 
d="M540 105l8 -49c-28 -42 -71 -67 -114 -67c-50 0 -82 21 -100 67c-55 -50 -96 -67 -159 -67c-85 0 -143 42 -143 103c0 126 193 156 302 183v74c0 40 -27 66 -71 66c-52 0 -91 -36 -67 -103l-133 -42c-9 23 -14 45 -14 66c0 81 81 126 239 126c142 0 190 -41 190 -123
v-208c0 -44 28 -45 62 -26zM334 105v124c-92 -26 -146 -46 -146 -101c0 -37 25 -66 57 -66c25 0 51 13 89 43zM124 584c0 36 29 65 65 65s65 -29 65 -65s-29 -65 -65 -65s-65 29 -65 65zM307 584c0 36 29 65 65 65s65 -29 65 -65s-29 -65 -65 -65s-65 29 -65 65z" />
    <glyph glyph-name="agrave" unicode="&#xe0;" horiz-adv-x="561" 
d="M540 105l8 -49c-28 -42 -71 -67 -114 -67c-50 0 -82 21 -100 67c-55 -50 -96 -67 -159 -67c-85 0 -143 42 -143 103c0 126 193 156 302 183v74c0 40 -27 66 -71 66c-52 0 -91 -36 -67 -103l-133 -42c-9 23 -14 45 -14 66c0 81 81 126 239 126c142 0 190 -41 190 -123
v-208c0 -44 28 -45 62 -26zM334 105v124c-92 -26 -146 -46 -146 -101c0 -37 25 -66 57 -66c25 0 51 13 89 43zM133 684h146l57 -169h-42z" />
    <glyph glyph-name="aring" unicode="&#xe5;" horiz-adv-x="561" 
d="M540 105l8 -49c-28 -42 -71 -67 -114 -67c-50 0 -82 21 -100 67c-55 -50 -96 -67 -159 -67c-85 0 -143 42 -143 103c0 126 193 156 302 183v74c0 40 -27 66 -71 66c-52 0 -91 -36 -67 -103l-133 -42c-9 23 -14 45 -14 66c0 81 81 126 239 126c142 0 190 -41 190 -123
v-208c0 -44 28 -45 62 -26zM334 105v124c-92 -26 -146 -46 -146 -101c0 -37 25 -66 57 -66c25 0 51 13 89 43zM216 599c0 -36 29 -65 65 -65s65 29 65 65s-29 65 -65 65s-65 -29 -65 -65zM179 599c0 56 46 102 102 102s102 -46 102 -102s-46 -102 -102 -102
s-102 46 -102 102z" />
    <glyph glyph-name="atilde" unicode="&#xe3;" horiz-adv-x="561" 
d="M540 105l8 -49c-28 -42 -71 -67 -114 -67c-50 0 -82 21 -100 67c-55 -50 -96 -67 -159 -67c-85 0 -143 42 -143 103c0 126 193 156 302 183v74c0 40 -27 66 -71 66c-52 0 -91 -36 -67 -103l-133 -42c-9 23 -14 45 -14 66c0 81 81 126 239 126c142 0 190 -41 190 -123
v-208c0 -44 28 -45 62 -26zM334 105v124c-92 -26 -146 -46 -146 -101c0 -37 25 -66 57 -66c25 0 51 13 89 43zM411 654h26c8 -84 -43 -135 -103 -135c-57 0 -108 46 -144 46c-22 0 -33 -13 -38 -45h-28c-3 84 44 135 106 135c48 0 98 -45 141 -45c19 0 29 11 40 44z" />
    <glyph glyph-name="ccedilla" unicode="&#xe7;" horiz-adv-x="521" 
d="M150 -85l66 79c-123 18 -181 125 -181 223c0 108 63 245 270 245c102 0 168 -42 168 -108c0 -38 -31 -70 -68 -70c-85 0 -51 130 -131 130c-57 0 -102 -53 -102 -127c0 -108 74 -195 165 -195c43 0 69 12 110 53l37 -34c-39 -77 -123 -122 -227 -122l-18 -22
c52 -8 81 -35 81 -79c0 -52 -50 -97 -173 -97h-49v26c66 0 111 14 111 58c0 26 -22 40 -59 40z" />
    <glyph glyph-name="eacute" unicode="&#xe9;" horiz-adv-x="521" 
d="M452 143l39 -29c-65 -84 -142 -125 -237 -125c-131 0 -218 90 -218 226c0 147 98 247 242 247c129 0 210 -79 213 -206h-317c7 -90 78 -162 160 -162c38 0 69 13 118 49zM171 303h165c0 72 -29 112 -80 112s-85 -44 -85 -112zM408 684l-161 -169h-42l57 169h146z" />
    <glyph glyph-name="ecircumflex" unicode="&#xea;" horiz-adv-x="521" 
d="M452 143l39 -29c-65 -84 -142 -125 -237 -125c-131 0 -218 90 -218 226c0 147 98 247 242 247c129 0 210 -79 213 -206h-317c7 -90 78 -162 160 -162c38 0 69 13 118 49zM171 303h165c0 72 -29 112 -80 112s-85 -44 -85 -112zM329 697l98 -187h-37l-117 99l-119 -99h-40
l104 187h111z" />
    <glyph glyph-name="edieresis" unicode="&#xeb;" horiz-adv-x="521" 
d="M452 143l39 -29c-65 -84 -142 -125 -237 -125c-131 0 -218 90 -218 226c0 147 98 247 242 247c129 0 210 -79 213 -206h-317c7 -90 78 -162 160 -162c38 0 69 13 118 49zM171 303h165c0 72 -29 112 -80 112s-85 -44 -85 -112zM114 584c0 36 29 65 65 65s65 -29 65 -65
s-29 -65 -65 -65s-65 29 -65 65zM297 584c0 36 29 65 65 65s65 -29 65 -65s-29 -65 -65 -65s-65 29 -65 65z" />
    <glyph glyph-name="egrave" unicode="&#xe8;" horiz-adv-x="521" 
d="M452 143l39 -29c-65 -84 -142 -125 -237 -125c-131 0 -218 90 -218 226c0 147 98 247 242 247c129 0 210 -79 213 -206h-317c7 -90 78 -162 160 -162c38 0 69 13 118 49zM171 303h165c0 72 -29 112 -80 112s-85 -44 -85 -112zM123 684h146l57 -169h-42z" />
    <glyph glyph-name="iacute" unicode="&#xed;" 
d="M242 459v-321c0 -58 14 -88 74 -91v-47h-298v47c59 0 80 28 80 89v194l-80 47v32l173 50h51zM314 684l-161 -169h-42l57 169h146z" />
    <glyph glyph-name="icircumflex" unicode="&#xee;" 
d="M242 459v-321c0 -58 14 -88 74 -91v-47h-298v47c59 0 80 28 80 89v194l-80 47v32l173 50h51zM225 697l98 -187h-37l-117 99l-119 -99h-40l104 187h111z" />
    <glyph glyph-name="idieresis" unicode="&#xef;" 
d="M242 459v-321c0 -58 14 -88 74 -91v-47h-298v47c59 0 80 28 80 89v194l-80 47v32l173 50h51zM10 584c0 36 29 65 65 65s65 -29 65 -65s-29 -65 -65 -65s-65 29 -65 65zM193 584c0 36 29 65 65 65s65 -29 65 -65s-29 -65 -65 -65s-65 29 -65 65z" />
    <glyph glyph-name="igrave" unicode="&#xec;" 
d="M242 459v-321c0 -58 14 -88 74 -91v-47h-298v47c59 0 80 28 80 89v194l-80 47v32l173 50h51zM29 684h146l57 -169h-42z" />
    <glyph glyph-name="ntilde" unicode="&#xf1;" horiz-adv-x="625" 
d="M233 336v-203c0 -47 12 -78 63 -86v-47h-277v47c48 2 70 28 70 82v198l-70 52v27l164 53h50v-80c50 54 102 83 163 83c89 0 146 -49 146 -147v-165c0 -74 12 -93 65 -103v-47h-269v47c44 7 60 35 60 85v155c0 49 -24 84 -72 84c-31 0 -65 -15 -93 -35zM443 654h26
c8 -84 -43 -135 -103 -135c-57 0 -108 46 -144 46c-22 0 -33 -13 -38 -45h-28c-3 84 44 135 106 135c48 0 98 -45 141 -45c19 0 29 11 40 44z" />
    <glyph glyph-name="oacute" unicode="&#xf3;" horiz-adv-x="573" 
d="M535 225c0 -122 -76 -236 -253 -236c-147 0 -245 92 -245 228c0 123 84 245 256 245c180 0 242 -136 242 -237zM380 167c0 157 -32 248 -101 248c-71 0 -87 -70 -87 -160c0 -166 41 -219 102 -219c54 0 86 48 86 131zM434 684l-161 -169h-42l57 169h146z" />
    <glyph glyph-name="ocircumflex" unicode="&#xf4;" horiz-adv-x="573" 
d="M535 225c0 -122 -76 -236 -253 -236c-147 0 -245 92 -245 228c0 123 84 245 256 245c180 0 242 -136 242 -237zM380 167c0 157 -32 248 -101 248c-71 0 -87 -70 -87 -160c0 -166 41 -219 102 -219c54 0 86 48 86 131zM355 697l98 -187h-37l-117 99l-119 -99h-40l104 187
h111z" />
    <glyph glyph-name="odieresis" unicode="&#xf6;" horiz-adv-x="573" 
d="M535 225c0 -122 -76 -236 -253 -236c-147 0 -245 92 -245 228c0 123 84 245 256 245c180 0 242 -136 242 -237zM380 167c0 157 -32 248 -101 248c-71 0 -87 -70 -87 -160c0 -166 41 -219 102 -219c54 0 86 48 86 131zM140 584c0 36 29 65 65 65s65 -29 65 -65
s-29 -65 -65 -65s-65 29 -65 65zM323 584c0 36 29 65 65 65s65 -29 65 -65s-29 -65 -65 -65s-65 29 -65 65z" />
    <glyph glyph-name="ograve" unicode="&#xf2;" horiz-adv-x="573" 
d="M535 225c0 -122 -76 -236 -253 -236c-147 0 -245 92 -245 228c0 123 84 245 256 245c180 0 242 -136 242 -237zM380 167c0 157 -32 248 -101 248c-71 0 -87 -70 -87 -160c0 -166 41 -219 102 -219c54 0 86 48 86 131zM149 684h146l57 -169h-42z" />
    <glyph glyph-name="otilde" unicode="&#xf5;" horiz-adv-x="573" 
d="M535 225c0 -122 -76 -236 -253 -236c-147 0 -245 92 -245 228c0 123 84 245 256 245c180 0 242 -136 242 -237zM380 167c0 157 -32 248 -101 248c-71 0 -87 -70 -87 -160c0 -166 41 -219 102 -219c54 0 86 48 86 131zM417 654h26c8 -84 -43 -135 -103 -135
c-57 0 -108 46 -144 46c-22 0 -33 -13 -38 -45h-28c-3 84 44 135 106 135c48 0 98 -45 141 -45c19 0 29 11 40 44z" />
    <glyph glyph-name="scaron" unicode="&#x161;" horiz-adv-x="458" 
d="M384 428l11 -109h-43c-30 59 -85 96 -141 96c-42 0 -71 -19 -71 -46c0 -81 282 -56 282 -234c0 -91 -69 -146 -183 -146c-57 0 -111 11 -189 41l-8 117h44c39 -69 92 -105 153 -105c55 0 81 25 81 52c0 82 -284 57 -284 226c0 105 92 142 181 142c48 0 114 -13 167 -34z
M171 510l-98 187h37l117 -99l119 99h40l-104 -187h-111z" />
    <glyph glyph-name="uacute" unicode="&#xfa;" horiz-adv-x="625" 
d="M531 450v-297c0 -79 8 -89 72 -89v-47l-176 -26h-40v76c-61 -59 -101 -78 -160 -78c-100 0 -148 59 -148 164v155c0 56 -15 78 -57 88v45l201 9v-291c0 -54 41 -78 77 -78c26 0 56 11 87 33v214c0 36 -23 64 -59 68v45zM460 684l-161 -169h-42l57 169h146z" />
    <glyph glyph-name="ucircumflex" unicode="&#xfb;" horiz-adv-x="625" 
d="M531 450v-297c0 -79 8 -89 72 -89v-47l-176 -26h-40v76c-61 -59 -101 -78 -160 -78c-100 0 -148 59 -148 164v155c0 56 -15 78 -57 88v45l201 9v-291c0 -54 41 -78 77 -78c26 0 56 11 87 33v214c0 36 -23 64 -59 68v45zM371 697l98 -187h-37l-117 99l-119 -99h-40
l104 187h111z" />
    <glyph glyph-name="udieresis" unicode="&#xfc;" horiz-adv-x="625" 
d="M531 450v-297c0 -79 8 -89 72 -89v-47l-176 -26h-40v76c-61 -59 -101 -78 -160 -78c-100 0 -148 59 -148 164v155c0 56 -15 78 -57 88v45l201 9v-291c0 -54 41 -78 77 -78c26 0 56 11 87 33v214c0 36 -23 64 -59 68v45zM156 584c0 36 29 65 65 65s65 -29 65 -65
s-29 -65 -65 -65s-65 29 -65 65zM339 584c0 36 29 65 65 65s65 -29 65 -65s-29 -65 -65 -65s-65 29 -65 65z" />
    <glyph glyph-name="ugrave" unicode="&#xf9;" horiz-adv-x="625" 
d="M531 450v-297c0 -79 8 -89 72 -89v-47l-176 -26h-40v76c-61 -59 -101 -78 -160 -78c-100 0 -148 59 -148 164v155c0 56 -15 78 -57 88v45l201 9v-291c0 -54 41 -78 77 -78c26 0 56 11 87 33v214c0 36 -23 64 -59 68v45zM165 684h146l57 -169h-42z" />
    <glyph glyph-name="yacute" unicode="&#xfd;" horiz-adv-x="542" 
d="M472 323l-176 -386c-41 -89 -86 -125 -157 -125c-59 0 -100 33 -100 82c0 37 27 66 63 66c53 0 51 -58 91 -58c24 0 52 25 72 83l-197 360c-28 51 -31 53 -64 58v47h268v-47c-59 -2 -66 -27 -46 -64l109 -198l74 164c24 53 10 97 -46 98v47h178v-47
c-26 -2 -42 -20 -69 -80zM419 684l-161 -169h-42l57 169h146z" />
    <glyph glyph-name="ydieresis" unicode="&#xff;" horiz-adv-x="542" 
d="M472 323l-176 -386c-41 -89 -86 -125 -157 -125c-59 0 -100 33 -100 82c0 37 27 66 63 66c53 0 51 -58 91 -58c24 0 52 25 72 83l-197 360c-28 51 -31 53 -64 58v47h268v-47c-59 -2 -66 -27 -46 -64l109 -198l74 164c24 53 10 97 -46 98v47h178v-47
c-26 -2 -42 -20 -69 -80zM125 584c0 36 29 65 65 65s65 -29 65 -65s-29 -65 -65 -65s-65 29 -65 65zM308 584c0 36 29 65 65 65s65 -29 65 -65s-29 -65 -65 -65s-65 29 -65 65z" />
    <glyph glyph-name="zcaron" unicode="&#x17e;" horiz-adv-x="510" 
d="M482 144l-20 -144h-443l5 47l275 356h-58c-88 0 -108 -18 -158 -101h-49l11 168h39c9 -8 17 -13 29 -16s28 -4 51 -4h306v-41l-267 -362h44c83 0 120 22 182 97h53zM197 510l-98 187h37l117 -99l119 99h40l-104 -187h-111z" />
    <glyph glyph-name="twodotenleader" unicode="&#x2025;" horiz-adv-x="500" 
d="M467 82c0 -52 -43 -91 -92 -91c-50 0 -91 41 -91 91s41 92 91 92s92 -39 92 -92zM216 82c0 -52 -43 -91 -92 -91c-50 0 -91 41 -91 91s41 92 91 92s92 -39 92 -92z" />
    <glyph glyph-name="onedotenleader" unicode="&#x2024;" horiz-adv-x="500" 
d="M341 82c0 -52 -43 -91 -92 -91c-50 0 -91 41 -91 91s41 92 91 92s92 -39 92 -92z" />
    <glyph glyph-name="colonmonetary" unicode="&#x20a1;" horiz-adv-x="802" 
d="M612 677l17 50h44l-20 -62c38 -13 59 -23 75 -31l21 -158h-75c-9 32 -38 71 -55 88l-177 -529c6 -1 14 -2 27 -2c153 0 199 146 212 190h75v-167c-106 -60 -239 -74 -329 -68l-24 -70h-44l24 73c-13 2 -37 5 -77 16l-29 -89h-45l34 102c-75 30 -119 72 -143 99
c-39 43 -74 109 -74 210c0 186 139 384 443 366l10 32h45l-12 -36c34 -4 67 -12 77 -14zM401 45l185 552c-20 17 -43 32 -69 41l-184 -551c9 -8 32 -29 68 -42zM301 124l175 524c-6 1 -14 2 -27 2c-130 0 -210 -111 -210 -292c0 -72 13 -163 62 -234z" />
    <glyph glyph-name="figuredash" unicode="&#x2012;" horiz-adv-x="521" 
d="M-6 311h533v-122h-533v122z" />
    <glyph glyph-name="oneeighth" unicode="&#x215b;" horiz-adv-x="917" 
d="M775 190c74 -41 86 -76 86 -104c0 -55 -59 -93 -144 -93c-90 0 -128 45 -128 82c0 35 33 61 75 84c-2 2 -3 2 -5 3c-40 27 -65 55 -65 88c0 60 70 94 134 94c68 0 116 -36 116 -76c0 -25 -22 -48 -35 -56c-11 -8 -32 -21 -34 -22zM744 210c19 9 36 27 36 50
c0 40 -32 54 -52 54s-45 -13 -45 -40c0 -22 7 -33 61 -64zM693 141c-4 -3 -38 -27 -38 -65c0 -12 1 -53 55 -53c39 0 54 24 54 45c0 28 -23 43 -71 73zM226 664v-255c0 -56 8 -63 61 -62v-28h-211v28c45 0 61 0 61 52v139c0 33 -4 49 -45 49h-16v28c20 5 72 18 106 49h44z
M301 -18h-70l385 700h70z" />
    <glyph glyph-name="threeeighths" unicode="&#x215c;" horiz-adv-x="917" 
d="M775 190c74 -41 86 -76 86 -104c0 -55 -59 -93 -144 -93c-90 0 -128 45 -128 82c0 35 33 61 75 84c-2 2 -3 2 -5 3c-40 27 -65 55 -65 88c0 60 70 94 134 94c68 0 116 -36 116 -76c0 -25 -22 -48 -35 -56c-11 -8 -32 -21 -34 -22zM744 210c19 9 36 27 36 50
c0 40 -32 54 -52 54s-45 -13 -45 -40c0 -22 7 -33 61 -64zM693 141c-4 -3 -38 -27 -38 -65c0 -12 1 -53 55 -53c39 0 54 24 54 45c0 28 -23 43 -71 73zM85 578l-22 26c28 29 65 60 135 60c74 0 109 -36 109 -72s-39 -58 -45 -61l-13 -6c41 -15 77 -45 77 -87
c0 -58 -68 -125 -174 -125c-37 0 -87 10 -87 33c0 1 5 30 33 30c15 0 28 -7 40 -16c14 -11 21 -17 36 -17c32 0 58 29 58 65c0 56 -49 68 -134 70l6 28c88 1 111 30 111 61c0 37 -37 46 -56 46c-28 0 -44 -12 -74 -35zM301 -18h-70l385 700h70z" />
    <glyph glyph-name="fiveeighths" unicode="&#x215d;" horiz-adv-x="917" 
d="M775 190c74 -41 86 -76 86 -104c0 -55 -59 -93 -144 -93c-90 0 -128 45 -128 82c0 35 33 61 75 84c-2 2 -3 2 -5 3c-40 27 -65 55 -65 88c0 60 70 94 134 94c68 0 116 -36 116 -76c0 -25 -22 -48 -35 -56c-11 -8 -32 -21 -34 -22zM744 210c19 9 36 27 36 50
c0 40 -32 54 -52 54s-45 -13 -45 -40c0 -22 7 -33 61 -64zM693 141c-4 -3 -38 -27 -38 -65c0 -12 1 -53 55 -53c39 0 54 24 54 45c0 28 -23 43 -71 73zM288 673l30 -12l-29 -49c-8 -13 -11 -13 -46 -13h-82l-19 -38l25 -6c92 -22 142 -65 142 -118
c0 -92 -116 -124 -183 -124c-52 0 -62 11 -62 24c0 9 7 34 30 34c7 0 20 -4 21 -5c4 -1 42 -12 68 -12c39 0 53 25 53 46c0 24 -13 39 -28 49c-33 22 -100 44 -122 48l-12 3l78 157h122zM301 -18h-70l385 700h70z" />
    <glyph glyph-name="seveneighths" unicode="&#x215e;" horiz-adv-x="917" 
d="M775 190c74 -41 86 -76 86 -104c0 -55 -59 -93 -144 -93c-90 0 -128 45 -128 82c0 35 33 61 75 84c-2 2 -3 2 -5 3c-40 27 -65 55 -65 88c0 60 70 94 134 94c68 0 116 -36 116 -76c0 -25 -22 -48 -35 -56c-11 -8 -32 -21 -34 -22zM744 210c19 9 36 27 36 50
c0 40 -32 54 -52 54s-45 -13 -45 -40c0 -22 7 -33 61 -64zM693 141c-4 -3 -38 -27 -38 -65c0 -12 1 -53 55 -53c39 0 54 24 54 45c0 28 -23 43 -71 73zM348 657l-137 -344h-50l108 275h-91c-15 0 -40 0 -48 -5c-4 -2 -5 -4 -10 -23h-36l29 97h235zM301 -18h-70l385 700h70z
" />
    <glyph glyph-name="onethird" unicode="&#x2153;" horiz-adv-x="917" 
d="M603 258l-22 26c28 29 65 60 135 60c74 0 109 -36 109 -72s-39 -58 -45 -61l-13 -6c41 -15 77 -45 77 -87c0 -58 -68 -125 -174 -125c-37 0 -87 10 -87 33c0 1 5 30 33 30c15 0 28 -7 40 -16c14 -11 21 -17 36 -17c32 0 58 29 58 65c0 56 -49 68 -134 70l6 28
c88 1 111 30 111 61c0 37 -37 46 -56 46c-28 0 -44 -12 -74 -35zM301 -18h-71l386 700h70zM226 664v-255c0 -42 0 -62 45 -62h16v-28h-211v28c45 0 61 0 61 52v139c0 33 -4 49 -45 49h-16v28c20 5 72 18 106 49h44z" />
    <glyph glyph-name="twothirds" unicode="&#x2154;" horiz-adv-x="917" 
d="M603 258l-22 26c28 29 65 60 135 60c74 0 109 -36 109 -72s-39 -58 -45 -61l-13 -6c41 -15 77 -45 77 -87c0 -58 -68 -125 -174 -125c-37 0 -87 10 -87 33c0 1 5 30 33 30c15 0 28 -7 40 -16c14 -11 21 -17 36 -17c32 0 58 29 58 65c0 56 -49 68 -134 70l6 28
c88 1 111 30 111 61c0 37 -37 46 -56 46c-28 0 -44 -12 -74 -35zM301 -18h-71l386 700h70zM322 416l-36 -97h-238v27l4 3c4 3 160 123 160 200c0 42 -40 58 -70 58c-32 0 -49 -13 -66 -27l-22 22l3 3c57 57 117 59 130 59c59 0 112 -35 112 -84c0 -55 -30 -82 -97 -142
c-18 -16 -38 -33 -59 -47v-2h88c29 0 42 0 53 27h38z" />
    <glyph glyph-name="dollar.oldstyle" unicode="&#xf724;" horiz-adv-x="458" 
d="M254 446v-123c37 -19 84 -43 107 -61c39 -30 74 -72 74 -127c0 -61 -39 -96 -65 -114c-34 -23 -75 -29 -116 -32v-54h-44v53c-121 2 -179 67 -179 96c0 38 58 50 74 50c19 0 30 -14 45 -41c13 -23 28 -41 60 -46v139c-125 67 -172 107 -172 180c0 85 81 133 172 138v31
h44v-31c42 -3 80 -13 115 -38c9 -6 48 -35 48 -66c0 -27 -37 -42 -67 -42c-28 0 -31 6 -49 43c-10 20 -22 37 -47 45zM210 346v101c-11 -2 -45 -10 -45 -47c0 -13 3 -32 45 -54zM254 163v-117c24 5 53 17 53 52c0 37 -30 53 -53 65z" />
    <glyph glyph-name="dollar.superior" unicode="&#xf6e4;" 
d="M189 668l15 -2c42 -6 90 -39 90 -66c0 -17 -26 -26 -43 -26c-15 0 -20 5 -27 20c-8 17 -15 32 -35 40v-96l28 -14c48 -24 90 -60 90 -111c0 -67 -68 -90 -99 -95l-19 -2v-39h-41v38l-20 2c-52 5 -96 41 -96 61c0 21 36 31 45 31c10 0 17 -5 19 -8c24 -36 28 -45 52 -53
v110c-55 29 -111 61 -111 117c0 33 20 83 111 93v22h41v-22zM189 436v-88c19 5 37 17 37 40c0 24 -17 35 -37 48zM148 560v76c-14 -5 -31 -13 -31 -36c0 -21 19 -33 31 -40z" />
    <glyph glyph-name="parenleft.superior" unicode="&#x207d;" horiz-adv-x="260" 
d="M257 193l-15 -31c-3 1 -4 1 -5 2c-1 0 -5 2 -6 2c-97 45 -178 157 -178 264c0 81 52 203 181 268c1 0 4 2 5 2l16 -33c-1 0 -3 -2 -4 -3c-25 -22 -109 -95 -109 -235c0 -114 64 -196 112 -233c0 0 3 -2 3 -3z" />
    <glyph glyph-name="parenright.superior" unicode="&#x207e;" horiz-adv-x="260" 
d="M3 669l15 31c3 -1 4 -1 5 -2c1 0 5 -2 6 -2c97 -45 178 -157 178 -264c0 -81 -52 -203 -181 -268c-1 0 -4 -2 -5 -2l-16 33c1 0 3 2 4 3c25 22 109 95 109 235c0 114 -64 196 -112 233c0 0 -3 2 -3 3z" />
    <glyph glyph-name="zero.oldstyle" unicode="&#xf730;" horiz-adv-x="531" 
d="M41 254c0 177 134 238 225 238s224 -61 224 -245c0 -203 -133 -259 -224 -259s-225 56 -225 266zM190 257c0 -97 2 -222 75 -222c76 0 76 116 76 207c0 73 0 203 -76 203c-79 0 -75 -130 -75 -188z" />
    <glyph glyph-name="one.oldstyle" unicode="&#xf731;" horiz-adv-x="406" 
d="M32 480h342v-47c-70 -2 -94 -10 -94 -96v-199c0 -47 0 -91 94 -91v-47h-342v47c88 3 94 32 94 103v192c0 54 0 89 -94 91v47z" />
    <glyph glyph-name="two.oldstyle" unicode="&#xf732;" horiz-adv-x="542" 
d="M92 338l-30 34c25 40 76 120 212 120c87 0 178 -39 178 -128c0 -79 -72 -134 -121 -168c-22 -14 -121 -72 -141 -83v-2h146c67 0 74 8 111 56h51l-58 -167h-391v57l32 24c74 57 152 117 187 160c24 30 30 50 30 70c0 45 -34 77 -92 77c-54 0 -88 -29 -114 -50z" />
    <glyph glyph-name="three.oldstyle" unicode="&#xf733;" horiz-adv-x="490" 
d="M315 219c54 -25 129 -61 129 -166c0 -110 -86 -243 -302 -243c-17 0 -121 0 -121 56c0 15 17 58 51 58c20 0 39 -9 68 -29c32 -22 47 -28 66 -28c46 0 89 40 89 116c0 26 -4 72 -39 102c-36 30 -90 42 -129 43c-12 0 -48 0 -48 7c0 4 8 39 10 43c4 5 27 7 37 7
c80 5 143 45 143 113c0 46 -31 96 -98 96c-33 0 -68 -12 -100 -42c-10 -9 -11 -10 -14 -10c-5 0 -18 13 -32 36c23 56 102 114 213 114c132 0 177 -78 177 -137c0 -78 -62 -114 -100 -136z" />
    <glyph glyph-name="four.oldstyle" unicode="&#xf734;" horiz-adv-x="583" 
d="M442 492v-384h76v-108h-76v-190h-150v190h-248v101l306 391h92zM292 108v229h-2l-178 -229h180z" />
    <glyph glyph-name="five.oldstyle" unicode="&#xf735;" horiz-adv-x="510" 
d="M184 354l-28 -64c68 -14 290 -61 290 -240c0 -116 -111 -240 -308 -240c-9 0 -103 0 -103 33c0 25 25 75 56 75c2 0 17 -1 32 -5l65 -21c10 -3 32 -9 53 -9c33 0 92 26 92 92c0 86 -100 149 -213 172c-16 3 -65 14 -65 24c0 4 0 5 7 21l123 286c22 2 25 3 34 3h153
c34 0 35 0 61 28l23 -7c6 -2 20 -7 20 -15c0 -9 -51 -100 -57 -110c-15 -22 -15 -23 -74 -23h-161z" />
    <glyph glyph-name="six.oldstyle" unicode="&#xf736;" horiz-adv-x="531" 
d="M213 366c29 18 61 38 109 38c99 0 172 -80 172 -193c0 -118 -82 -220 -221 -220c-132 0 -233 102 -233 267c0 318 351 407 384 407c2 0 47 -19 47 -33c0 -8 -13 -13 -21 -16c-58 -22 -137 -67 -187 -131c-32 -41 -41 -79 -50 -119zM204 302c-4 -26 -6 -40 -6 -77
c0 -143 24 -187 74 -187c43 0 68 33 68 138c0 93 -23 144 -79 144c-23 0 -35 -5 -57 -18z" />
    <glyph glyph-name="seven.oldstyle" unicode="&#xf737;" horiz-adv-x="500" 
d="M33 273l56 208c19 2 21 3 43 3h363l-229 -592c-1 -3 -6 -13 -8 -20c-2 -4 -15 -36 -15 -37c-6 -17 -11 -25 -43 -25c-25 0 -35 0 -35 12c0 8 8 28 11 36l189 484h-128c-57 0 -64 0 -77 -1c-60 -5 -63 -15 -78 -68h-49z" />
    <glyph glyph-name="eight.oldstyle" unicode="&#xf738;" horiz-adv-x="531" 
d="M341 372c59 -43 142 -104 142 -198c0 -70 -55 -183 -234 -183c-120 0 -215 59 -215 151c0 79 69 129 131 169c-59 45 -122 93 -122 179c0 91 77 176 226 176c129 0 188 -74 188 -144c0 -67 -53 -106 -116 -150zM299 403c23 17 62 44 62 107c0 43 -25 107 -97 107
c-55 0 -83 -42 -83 -81c0 -29 7 -59 82 -109c12 -8 31 -20 36 -24zM211 280c-76 -59 -79 -124 -79 -145c0 -50 34 -97 107 -97c62 0 97 40 97 90c0 56 -40 96 -125 152z" />
    <glyph glyph-name="nine.oldstyle" unicode="&#xf739;" horiz-adv-x="531" 
d="M316 117c-29 -18 -61 -38 -109 -38c-99 0 -172 80 -172 193c0 118 82 220 221 220c132 0 233 -102 233 -267c0 -318 -351 -407 -384 -407c-2 0 -47 19 -47 33c0 8 13 13 21 16c58 22 137 67 187 131c32 41 41 79 50 119zM325 181c4 26 6 40 6 77c0 143 -24 187 -74 187
c-43 0 -68 -33 -68 -138c0 -93 23 -144 79 -144c23 0 35 5 57 18z" />
    <glyph glyph-name="comma.superior" unicode="&#xf6e2;" horiz-adv-x="219" 
d="M44 225v14c0 7 6 11 15 12c40 2 59 31 59 51c0 17 -11 20 -14 21c-3 0 -19 3 -22 4c-25 3 -38 21 -38 46c0 49 45 54 59 54c28 0 80 -18 80 -92c0 -79 -70 -123 -120 -123c-6 0 -19 0 -19 13z" />
    <glyph glyph-name="uni2014.alt" unicode="&#xe002;" horiz-adv-x="750" 
d="M-5 311h760v-122h-760v122z" />
    <glyph glyph-name="period.superior" unicode="&#xf6e8;" horiz-adv-x="219" 
d="M173 370c0 -33 -29 -57 -64 -57s-63 26 -63 57s28 57 63 57c34 0 64 -24 64 -57z" />
    <glyph glyph-name="a.superior" unicode="&#xf6e9;" horiz-adv-x="365" 
d="M351 382l5 -29c-11 -16 -36 -40 -74 -40c-47 0 -59 29 -64 40c-11 -9 -23 -19 -39 -27c-16 -7 -37 -13 -65 -13c-40 0 -95 16 -95 62c0 45 54 71 84 81c18 6 98 24 114 29v44c0 34 -34 38 -46 38c-14 0 -50 -6 -50 -37c0 -8 2 -15 5 -23l-85 -26c-3 6 -10 21 -10 40
c0 55 72 76 156 76c124 0 124 -49 124 -81v-99c0 -26 0 -42 15 -42c5 0 7 1 25 7zM217 382v75c-86 -20 -95 -39 -95 -60c0 -20 14 -40 37 -40c24 0 49 19 58 25z" />
    <glyph glyph-name="b.superior" unicode="&#xf6ea;" horiz-adv-x="385" 
d="M136 738v-183c12 10 60 42 102 42c85 0 121 -77 121 -135c0 -64 -44 -149 -178 -149c-76 0 -120 28 -139 39v304l-46 29v20l119 33h21zM136 515v-91c0 -30 4 -75 53 -75c34 0 73 26 73 92c0 67 -44 92 -76 92c-22 0 -37 -10 -50 -18z" />
    <glyph glyph-name="cent.superior" unicode="&#xf6e0;" 
d="M131 317l-22 -51h-39l26 64c-64 37 -64 92 -64 104c0 103 109 125 137 126l23 1l39 95h41l-41 -97c62 -10 71 -43 71 -56c0 -20 -19 -39 -46 -39c-31 0 -40 23 -47 40l-47 -112c0 -1 1 -1 3 -3c15 -9 25 -16 50 -16c32 0 46 12 66 29l28 -23c-44 -57 -96 -66 -143 -66
c-13 0 -24 2 -35 4zM135 424l44 107c-28 0 -53 -20 -53 -61c0 -19 5 -38 9 -46z" />
    <glyph glyph-name="d.superior" unicode="&#xf6eb;" horiz-adv-x="385" 
d="M336 738v-316c0 -42 0 -61 32 -61c6 0 11 1 16 2v-38l-113 -12h-29v45c-19 -17 -37 -28 -54 -35c-16 -7 -32 -10 -48 -10c-65 0 -121 55 -121 134c0 83 64 150 155 150c32 0 53 -8 68 -13v77l-49 24v25l124 28h19zM241 392l-1 -2h2v96c0 16 0 75 -55 75
c-49 0 -71 -49 -71 -94c0 -64 41 -94 76 -94c8 0 25 1 49 19z" />
    <glyph glyph-name="e.superior" unicode="&#xf6ec;" horiz-adv-x="344" 
d="M296 405l26 -17c-14 -18 -62 -75 -154 -75c-99 0 -145 60 -145 136c0 91 66 148 160 148c65 0 137 -33 138 -124h-204c4 -51 48 -97 102 -97c27 0 49 10 77 29zM115 501h106c2 46 -23 68 -52 68c-31 0 -54 -26 -54 -68z" />
    <glyph glyph-name="i.superior" unicode="&#xf6ed;" horiz-adv-x="219" 
d="M159 597v-187c0 -27 0 -63 47 -63v-28h-193v28c52 0 52 31 52 63v110l-52 27v19l113 31h33zM158 683c0 -29 -25 -51 -56 -51c-30 0 -55 22 -55 51c0 28 25 51 55 51c31 0 56 -23 56 -51z" />
    <glyph glyph-name="l.superior" unicode="&#xf6ee;" horiz-adv-x="208" 
d="M153 734v-325c0 -35 4 -57 47 -62v-28h-193v28c51 0 52 31 52 62v249l-52 26v17l123 33h23z" />
    <glyph glyph-name="m.superior" unicode="&#xf6ef;" horiz-adv-x="635" 
d="M149 597v-50c17 14 32 26 50 35s39 15 66 15c70 0 86 -37 94 -53c40 37 81 53 124 53c99 0 98 -71 98 -109v-79c0 -18 0 -48 20 -55c17 -6 19 -7 26 -7v-28h-182v28c37 7 42 21 42 62v81c0 15 -2 53 -52 53c-8 0 -39 0 -70 -25v-109c0 -29 0 -62 51 -62v-28h-188v28
c42 5 43 29 43 62v72c0 25 0 62 -52 62c-23 0 -53 -9 -70 -26v-108c0 -27 0 -62 49 -62v-28h-186v28c40 6 43 24 43 62v108l-50 31v18l111 31h33z" />
    <glyph glyph-name="n.superior" unicode="&#x207f;" horiz-adv-x="396" 
d="M150 597v-47c22 23 42 35 59 41s32 6 41 6c86 0 94 -62 94 -99v-87c0 -45 5 -58 40 -64v-28h-170v28c41 6 36 36 36 64v72c0 21 1 54 -44 54c-13 0 -34 -3 -55 -18l1 2h-2v-110c0 -21 -7 -59 38 -64v-28h-176v28c44 0 44 36 44 64v103l-44 30v22l106 31h32z" />
    <glyph glyph-name="o.superior" unicode="&#xf6f0;" horiz-adv-x="375" 
d="M350 461c0 -94 -65 -148 -166 -148c-112 0 -159 71 -159 137s48 147 167 147c138 0 158 -113 158 -136zM247 419c0 43 0 148 -64 148c-54 0 -55 -59 -55 -94c0 -73 15 -130 63 -130c47 0 56 56 56 76z" />
    <glyph glyph-name="r.superior" unicode="&#xf6f1;" horiz-adv-x="312" 
d="M155 597v-78h2c27 49 59 78 97 78c30 0 57 -19 57 -42c0 -16 -16 -70 -41 -70c-10 0 -22 9 -46 29c-10 8 -14 10 -19 10c-20 0 -50 -36 -50 -72v-42c0 -48 8 -63 60 -63v-28h-201v28c47 0 47 35 47 63v108l-52 31v17l112 31h34z" />
    <glyph glyph-name="s.superior" unicode="&#xf6f2;" horiz-adv-x="302" 
d="M252 576l7 -65h-28c-16 27 -48 56 -92 56c-25 0 -46 -10 -46 -27c0 -16 16 -24 64 -40c65 -22 120 -38 120 -100c0 -38 -25 -87 -120 -87c-48 0 -85 12 -122 24l-5 71h28c16 -26 47 -65 100 -65c25 0 52 11 52 32s-16 26 -87 47c-92 27 -97 67 -97 90c0 84 106 85 116 85
c24 0 67 -5 110 -21z" />
    <glyph glyph-name="t.superior" unicode="&#xf6f3;" horiz-adv-x="240" 
d="M147 659v-69h87v-36h-87v-126c0 -43 0 -65 44 -65c22 0 32 5 44 9v-33c-32 -23 -87 -26 -101 -26c-81 0 -81 60 -81 81v160h-43v31c79 17 102 59 108 74h29z" />
    <glyph glyph-name="parenleft.inferior" unicode="&#x208d;" horiz-adv-x="260" 
d="M257 -86l-15 -31c-3 1 -4 1 -5 2c-1 0 -5 2 -6 2c-97 45 -178 157 -178 264c0 81 52 203 181 268c1 0 4 2 5 2l16 -33c-1 0 -3 -2 -4 -3c-25 -22 -109 -95 -109 -235c0 -114 64 -196 112 -233c0 0 3 -2 3 -3z" />
    <glyph glyph-name="parenright.inferior" unicode="&#x208e;" horiz-adv-x="260" 
d="M3 390l15 31c3 -1 4 -1 5 -2c1 0 5 -2 6 -2c97 -45 178 -157 178 -264c0 -81 -52 -203 -181 -268c-1 0 -4 -2 -5 -2l-16 33c1 0 3 2 4 3c25 22 109 95 109 235c0 114 -64 196 -112 233c0 0 -3 2 -3 3z" />
    <glyph glyph-name="hyphen.superior" unicode="&#xf6e6;" horiz-adv-x="292" 
d="M31 388v82h231v-82h-231z" />
    <glyph glyph-name="one.fitted" unicode="&#xf6dc;" horiz-adv-x="427" 
d="M277 663v-495c0 -64 0 -83 15 -103c13 -17 45 -26 70 -26h18v-39h-338v39c79 0 103 13 103 110v274c0 56 -2 102 -86 102h-17v44c52 15 136 58 174 94h61z" />
    <glyph glyph-name="R_p" unicode="&#xf6dd;" horiz-adv-x="1344" 
d="M299 306v-151c0 -60 0 -108 85 -108v-47h-354v47c92 0 92 44 92 108v372c0 65 0 108 -92 108v47h400c57 0 101 0 142 -10c87 -21 138 -95 138 -166c0 -99 -92 -161 -176 -174c51 -59 96 -122 114 -146c16 -22 52 -71 88 -108c23 -23 33 -28 49 -30v-48h-179
c-15 0 -26 2 -49 26c-31 32 -141 193 -165 225c-35 47 -37 49 -50 52c-12 3 -21 3 -43 3zM362 635h-63v-282h25c94 0 198 -1 198 136c0 32 -10 69 -30 96c-37 49 -91 50 -130 50zM957 462v-71c74 71 141 71 158 71c104 0 192 -89 192 -221s-90 -252 -271 -252
c-38 0 -60 5 -79 9v-36c0 -28 0 -81 32 -93c26 -10 29 -10 48 -10v-47h-299v47c75 0 75 55 75 103v367l-73 50v30l164 53h53zM957 335v-152c0 -61 6 -80 16 -101c11 -24 42 -46 74 -46c58 0 108 73 108 160c0 107 -59 170 -121 170c-27 0 -52 -14 -77 -31z" />
    <glyph glyph-name="cent.oldstyle" unicode="&#xf7a2;" horiz-adv-x="458" 
d="M274 353l55 134h44l-56 -137c64 -8 111 -41 111 -83c0 -25 -18 -65 -69 -65c-49 0 -62 31 -76 65l-63 -152c9 -9 33 -31 80 -31c41 0 60 16 92 43l48 -38c-66 -91 -131 -103 -205 -103c-32 0 -47 4 -65 9l-31 -75h-44l37 90c-30 16 -102 53 -102 153c0 41 16 111 93 155
c50 29 102 35 151 35zM191 153l59 142c-39 4 -75 -28 -75 -77c0 -7 0 -34 16 -65z" />
    <glyph glyph-name="hyphen.inferior" unicode="&#xf6e5;" horiz-adv-x="292" 
d="M31 109v82h231v-82h-231z" />
    <glyph glyph-name="zero.superior" unicode="&#x2070;" 
d="M305 495c0 -114 -67 -182 -140 -182c-92 0 -140 101 -140 178c0 81 52 173 140 173c93 0 140 -98 140 -169zM163 343c45 0 45 61 45 130c0 99 -2 161 -43 161c-43 0 -43 -64 -43 -170c0 -39 0 -121 41 -121z" />
    <glyph glyph-name="one.superior" unicode="&#xb9;" horiz-adv-x="323" 
d="M208 663v-276c0 -32 14 -42 45 -42h16v-27h-211v27h12c41 0 49 9 49 52v140c0 40 -8 49 -45 49h-16v28c50 12 83 28 106 49h44z" />
    <glyph glyph-name="two.superior" unicode="&#xb2;" horiz-adv-x="323" 
d="M294 415l-37 -97h-237v27c90 68 163 153 163 203c0 35 -29 60 -69 60c-25 0 -43 -9 -66 -28l-22 21c33 39 88 62 133 62c63 0 112 -37 112 -84c0 -67 -66 -117 -156 -189v-2h88c37 0 44 4 54 27h37z" />
    <glyph glyph-name="three.superior" unicode="&#xb3;" horiz-adv-x="323" 
d="M47 577l-22 26c42 43 79 60 136 60c64 0 109 -29 109 -72c0 -28 -22 -52 -59 -67c47 -16 77 -50 77 -87c0 -67 -81 -125 -174 -125c-49 0 -86 14 -86 33c0 15 16 29 32 29c33 0 46 -31 77 -31c33 0 58 28 58 64c0 49 -37 68 -135 70l6 28c79 -1 111 28 111 63
c0 28 -23 47 -56 47c-24 0 -45 -13 -74 -38z" />
    <glyph glyph-name="four.superior" unicode="&#x2074;" 
d="M313 452v-57h-46v-82h-84v82h-155v50l178 219h61v-212h46zM75 452h108v134h-2z" />
    <glyph glyph-name="five.superior" unicode="&#x2075;" 
d="M265 673l30 -12l-29 -49c-8 -13 -11 -13 -46 -13h-82l-19 -38l25 -6c92 -22 142 -65 142 -118c0 -92 -116 -124 -183 -124c-52 0 -62 11 -62 24c0 9 7 34 30 34c7 0 20 -4 21 -5c4 -1 42 -12 68 -12c39 0 53 25 53 46c0 24 -13 39 -28 49c-33 22 -100 44 -122 48l-12 3
l78 157h122z" />
    <glyph glyph-name="six.superior" unicode="&#x2076;" 
d="M259 664l36 -22c-1 -1 -6 -2 -7 -3c-92 -32 -132 -63 -153 -127l9 5c10 6 30 14 54 14c60 0 111 -44 111 -103c0 -66 -63 -115 -139 -115c-96 0 -144 75 -144 142c0 30 10 100 97 156c36 23 93 43 136 53zM212 407c0 36 -12 80 -50 80c-37 0 -37 -30 -37 -40
c0 -19 0 -104 47 -104c20 0 40 16 40 64z" />
    <glyph glyph-name="seven.superior" unicode="&#x2077;" 
d="M303 657l-137 -344h-50l108 275h-91c-15 0 -40 0 -48 -5c-4 -2 -5 -4 -10 -23h-36l29 97h235z" />
    <glyph glyph-name="eight.superior" unicode="&#x2078;" 
d="M214 510c74 -41 86 -76 86 -104c0 -55 -59 -93 -144 -93c-90 0 -128 45 -128 82c0 35 33 61 75 84c-2 2 -3 2 -5 3c-40 27 -65 55 -65 88c0 60 70 94 134 94c68 0 116 -36 116 -76c0 -25 -22 -48 -35 -56c-11 -8 -32 -21 -34 -22zM183 530c19 9 36 27 36 50
c0 40 -32 54 -52 54s-45 -13 -45 -40c0 -22 7 -33 61 -64zM132 461c-4 -3 -38 -27 -38 -65c0 -12 1 -53 55 -53c39 0 54 24 54 45c0 28 -23 43 -71 73z" />
    <glyph glyph-name="nine.superior" unicode="&#x2079;" 
d="M74 313l-36 22c1 1 6 2 7 3c92 32 132 63 153 127l-9 -5c-10 -6 -30 -14 -54 -14c-60 0 -111 44 -111 103c0 66 63 115 139 115c96 0 144 -75 144 -142c0 -30 -10 -100 -97 -156c-36 -23 -93 -43 -136 -53zM121 570c0 -36 12 -80 50 -80c37 0 37 30 37 40
c0 19 0 104 -47 104c-20 0 -40 -16 -40 -64z" />
    <glyph glyph-name="zero.inferior" unicode="&#x2080;" 
d="M305 176c0 -114 -67 -182 -140 -182c-92 0 -140 101 -140 178c0 81 52 173 140 173c93 0 140 -98 140 -169zM163 24c45 0 45 61 45 130c0 99 -2 161 -43 161c-43 0 -43 -64 -43 -170c0 -39 0 -121 41 -121z" />
    <glyph glyph-name="one.inferior" unicode="&#x2081;" 
d="M213 345v-255c0 -42 0 -62 45 -62h16v-28h-211v28c45 0 61 0 61 52v139c0 33 -4 49 -45 49h-16v28c20 5 72 18 106 49h44z" />
    <glyph glyph-name="two.inferior" unicode="&#x2082;" 
d="M299 97l-36 -97h-238v27l4 3c4 3 160 123 160 200c0 42 -40 58 -70 58c-32 0 -49 -13 -66 -27l-22 22l3 3c57 57 117 59 130 59c59 0 112 -35 112 -84c0 -55 -30 -82 -97 -142c-18 -16 -38 -33 -59 -47v-2h88c29 0 42 0 53 27h38z" />
    <glyph glyph-name="three.inferior" unicode="&#x2083;" 
d="M52 259l-22 26c28 29 65 60 135 60c74 0 109 -36 109 -72s-39 -58 -45 -61l-13 -6c41 -15 77 -45 77 -87c0 -58 -68 -125 -174 -125c-37 0 -87 10 -87 33c0 1 5 30 33 30c15 0 28 -7 40 -16c14 -11 21 -17 36 -17c32 0 58 29 58 65c0 56 -49 68 -134 70l6 28
c88 1 111 30 111 61c0 37 -37 46 -56 46c-28 0 -44 -12 -74 -35z" />
    <glyph glyph-name="four.inferior" unicode="&#x2084;" 
d="M313 133v-57h-46v-82h-84v82h-155v50l178 219h61v-212h46zM75 133h108v134h-2z" />
    <glyph glyph-name="five.inferior" unicode="&#x2085;" 
d="M265 354l30 -12l-29 -49c-8 -13 -11 -13 -46 -13h-82l-19 -38l25 -6c92 -22 142 -65 142 -118c0 -92 -116 -124 -183 -124c-52 0 -62 11 -62 24c0 9 7 34 30 34c7 0 20 -4 21 -5c4 -1 42 -12 68 -12c39 0 53 25 53 46c0 24 -13 39 -28 49c-33 22 -100 44 -122 48l-12 3
l78 157h122z" />
    <glyph glyph-name="six.inferior" unicode="&#x2086;" 
d="M258 345l36 -22c-1 -1 -6 -2 -7 -3c-92 -32 -132 -63 -153 -127l9 5c10 6 30 14 54 14c60 0 111 -44 111 -103c0 -66 -63 -115 -139 -115c-96 0 -144 75 -144 142c0 30 10 100 97 156c36 23 93 43 136 53zM211 88c0 36 -12 80 -50 80c-37 0 -37 -30 -37 -40
c0 -19 0 -104 47 -104c20 0 40 16 40 64z" />
    <glyph glyph-name="seven.inferior" unicode="&#x2087;" 
d="M303 338l-137 -344h-50l108 275h-91c-15 0 -40 0 -48 -5c-4 -2 -5 -4 -10 -23h-36l29 97h235z" />
    <glyph glyph-name="eight.inferior" unicode="&#x2088;" 
d="M214 191c74 -41 86 -76 86 -104c0 -55 -59 -93 -144 -93c-90 0 -128 45 -128 82c0 35 33 61 75 84c-2 2 -3 2 -5 3c-40 27 -65 55 -65 88c0 60 70 94 134 94c68 0 116 -36 116 -76c0 -25 -22 -48 -35 -56c-11 -8 -32 -21 -34 -22zM183 211c19 9 36 27 36 50
c0 40 -32 54 -52 54s-45 -13 -45 -40c0 -22 7 -33 61 -64zM132 142c-4 -3 -38 -27 -38 -65c0 -12 1 -53 55 -53c39 0 54 24 54 45c0 28 -23 43 -71 73z" />
    <glyph glyph-name="nine.inferior" unicode="&#x2089;" 
d="M75 -6l-36 22c1 1 6 2 7 3c92 32 132 63 153 127l-9 -5c-10 -6 -30 -14 -54 -14c-60 0 -111 44 -111 103c0 66 63 115 139 115c96 0 144 -75 144 -142c0 -30 -10 -100 -97 -156c-36 -23 -93 -43 -136 -53zM122 251c0 -36 12 -80 50 -80c37 0 37 30 37 40
c0 19 0 104 -47 104c-20 0 -40 -16 -40 -64z" />
    <glyph glyph-name="cent.inferior" unicode="&#xf6df;" 
d="M131 -2l-22 -51h-39l26 64c-64 37 -64 92 -64 104c0 103 109 125 137 126l23 1l39 95h41l-41 -97c62 -10 71 -43 71 -56c0 -20 -19 -39 -46 -39c-31 0 -40 23 -47 40l-47 -112c0 -1 1 -1 3 -3c15 -9 25 -16 50 -16c32 0 46 12 66 29l28 -23c-44 -57 -96 -66 -143 -66
c-13 0 -24 2 -35 4zM135 105l44 107c-28 0 -53 -20 -53 -61c0 -19 5 -38 9 -46z" />
    <glyph glyph-name="dollar.inferior" unicode="&#xf6e3;" 
d="M189 347l15 -2c42 -6 90 -39 90 -66c0 -17 -26 -26 -43 -26c-15 0 -20 5 -27 20c-8 17 -15 32 -35 40v-96l28 -14c48 -24 90 -60 90 -111c0 -67 -68 -90 -99 -95l-19 -2v-39h-41v38l-20 2c-52 5 -96 41 -96 61c0 21 36 31 45 31c10 0 17 -5 19 -8c24 -36 28 -45 52 -53
v110c-55 29 -111 61 -111 117c0 33 20 83 111 93v22h41v-22zM189 115v-88c19 5 37 17 37 40c0 24 -17 35 -37 48zM148 239v76c-14 -5 -31 -13 -31 -36c0 -21 19 -33 31 -40z" />
    <glyph glyph-name="period.inferior" unicode="&#xf6e7;" horiz-adv-x="219" 
d="M179 51c0 -33 -29 -57 -64 -57s-63 26 -63 57s28 57 63 57c34 0 64 -24 64 -57z" />
    <glyph glyph-name="comma.inferior" unicode="&#xf6e1;" horiz-adv-x="219" 
d="M44 -94v14c0 7 6 11 15 12c40 2 59 31 59 51c0 17 -11 20 -14 21c-3 0 -19 3 -22 4c-25 3 -38 21 -38 46c0 49 45 54 59 54c28 0 80 -18 80 -92c0 -79 -70 -123 -120 -123c-6 0 -19 0 -19 13z" />
    <glyph glyph-name="commaaccent" unicode="&#xf6c3;" horiz-adv-x="169" 
d="M25 -198v13c0 6 5 10 14 11c36 1 53 28 53 46c0 15 -10 18 -13 18s-17 3 -20 4c-22 3 -34 19 -34 41c0 45 41 49 53 49c25 0 72 -16 72 -83c0 -71 -63 -110 -108 -110c-5 0 -17 0 -17 11z" />
    <glyph glyph-name="Abreve" unicode="&#x102;" horiz-adv-x="781" 
d="M452 257h-234l-32 -93c-22 -65 -9 -110 55 -117v-47h-235v47c68 13 86 41 105 89l196 499l-23 47h187l215 -553c22 -57 48 -82 89 -82v-47h-338v47c68 6 84 33 60 94zM429 316l-99 251l-89 -251h188zM491 910h32c0 -91 -77 -156 -148 -156c-81 0 -148 76 -148 156h32
c17 -43 51 -62 113 -62c68 0 100 17 119 62z" />
    <glyph glyph-name="Amacron" unicode="&#x100;" horiz-adv-x="781" 
d="M452 257h-234l-32 -93c-22 -65 -9 -110 55 -117v-47h-235v47c68 13 86 41 105 89l196 499l-23 47h187l215 -553c22 -57 48 -82 89 -82v-47h-338v47c68 6 84 33 60 94zM429 316l-99 251l-89 -251h188zM222 887h314v-102h-314v102z" />
    <glyph glyph-name="Aogonek" unicode="&#x104;" horiz-adv-x="781" 
d="M522 -106c0 44 27 78 75 106h-160v47c68 6 84 33 60 94l-45 116h-234l-32 -93c-22 -65 -9 -110 55 -117v-47h-235v47c68 13 86 41 105 89l196 499l-23 47h187l215 -553c22 -57 48 -82 89 -82v-47h-132c-25 -21 -35 -41 -35 -65c0 -53 49 -111 133 -110l15 -16
c-34 -24 -61 -34 -98 -34c-73 0 -136 55 -136 119zM429 316l-99 251l-89 -251h188z" />
    <glyph glyph-name="AEacute" unicode="&#x1fc;" horiz-adv-x="1031" 
d="M942 164h67l-32 -164h-593v47c75 0 87 27 72 88l-46 186h-173l-43 -149c-19 -65 -8 -114 60 -125v-47h-238v47c66 6 75 34 109 128l117 325c33 91 36 135 -52 135v47h697l30 -150h-66c-76 75 -119 103 -209 103h-135l65 -267h104c93 0 121 20 125 88h63l39 -215h-66
c-28 68 -50 80 -149 80h-103l54 -213c10 -40 24 -61 97 -61c71 0 114 25 206 117zM399 368l-64 267h-2l-79 -267h145zM673 917l-161 -169h-42l57 169h146z" />
    <glyph glyph-name="Cacute" unicode="&#x106;" horiz-adv-x="802" 
d="M681 223h75v-167c-79 -44 -185 -69 -293 -69c-217 0 -414 110 -414 342c0 187 137 367 405 367c97 0 189 -21 274 -61l20 -159h-74c-41 92 -118 173 -226 173c-129 0 -209 -111 -209 -291c0 -195 92 -324 231 -324c98 0 177 65 211 189zM580 917l-161 -169h-42l57 169
h146z" />
    <glyph glyph-name="Ccaron" unicode="&#x10c;" horiz-adv-x="802" 
d="M681 223h75v-167c-79 -44 -185 -69 -293 -69c-217 0 -414 110 -414 342c0 187 137 367 405 367c97 0 189 -21 274 -61l20 -159h-74c-41 92 -118 173 -226 173c-129 0 -209 -111 -209 -291c0 -195 92 -324 231 -324c98 0 177 65 211 189zM395 743l-98 187h37l117 -99
l119 99h40l-104 -187h-111z" />
    <glyph glyph-name="Ccircumflex" unicode="&#x108;" horiz-adv-x="802" 
d="M681 223h75v-167c-79 -44 -185 -69 -293 -69c-217 0 -414 110 -414 342c0 187 137 367 405 367c97 0 189 -21 274 -61l20 -159h-74c-41 92 -118 173 -226 173c-129 0 -209 -111 -209 -291c0 -195 92 -324 231 -324c98 0 177 65 211 189zM509 930l98 -187h-37l-117 99
l-119 -99h-40l104 187h111z" />
    <glyph glyph-name="Cdotaccent" unicode="&#x10a;" horiz-adv-x="802" 
d="M681 223h75v-167c-79 -44 -185 -69 -293 -69c-217 0 -414 110 -414 342c0 187 137 367 405 367c97 0 189 -21 274 -61l20 -159h-74c-41 92 -118 173 -226 173c-129 0 -209 -111 -209 -291c0 -195 92 -324 231 -324c98 0 177 65 211 189zM454 882c36 0 65 -29 65 -65
s-29 -65 -65 -65s-65 29 -65 65s29 65 65 65z" />
    <glyph glyph-name="Dcaron" unicode="&#x10e;" horiz-adv-x="875" 
d="M118 135v410c0 59 -15 90 -88 90v47h446c240 0 346 -166 346 -332c0 -167 -113 -350 -394 -350h-398v47c68 0 88 28 88 88zM294 635v-476c0 -77 29 -112 115 -112c179 0 224 150 224 278c0 107 -25 190 -85 250c-46 46 -99 60 -183 60h-71zM326 743l-98 187h37l117 -99
l119 99h40l-104 -187h-111z" />
    <glyph glyph-name="Dcroat" unicode="&#x110;" horiz-adv-x="875" 
d="M30 682h446c240 0 346 -166 346 -332c0 -167 -113 -350 -394 -350h-398v47c68 0 88 28 88 88v199h-88v48h88v163c0 59 -15 90 -88 90v47zM294 635v-253h181v-48h-181v-175c0 -77 28 -112 115 -112c179 0 224 150 224 278c0 107 -25 190 -85 250c-46 46 -99 60 -183 60
h-71z" />
    <glyph glyph-name="Ebreve" unicode="&#x114;" horiz-adv-x="750" 
d="M612 466v-221h-66c-21 74 -57 90 -136 90h-115v-192c0 -61 20 -96 129 -96c95 0 151 20 238 122h69l-30 -169h-671v47c62 0 89 22 89 86v421c0 54 -21 81 -89 81v47h656v-143h-65c-62 78 -101 96 -185 96h-141v-253h120c83 0 116 24 131 84h66zM490 910h32
c0 -91 -77 -156 -148 -156c-81 0 -148 76 -148 156h32c17 -43 51 -62 113 -62c68 0 100 17 119 62z" />
    <glyph glyph-name="Ecaron" unicode="&#x11a;" horiz-adv-x="750" 
d="M612 466v-221h-66c-21 74 -57 90 -136 90h-115v-192c0 -61 20 -96 129 -96c95 0 151 20 238 122h69l-30 -169h-671v47c62 0 89 22 89 86v421c0 54 -21 81 -89 81v47h656v-143h-65c-62 78 -101 96 -185 96h-141v-253h120c83 0 116 24 131 84h66zM328 743l-98 187h37
l117 -99l119 99h40l-104 -187h-111z" />
    <glyph glyph-name="Edotaccent" unicode="&#x116;" horiz-adv-x="750" 
d="M612 466v-221h-66c-21 74 -57 90 -136 90h-115v-192c0 -61 20 -96 129 -96c95 0 151 20 238 122h69l-30 -169h-671v47c62 0 89 22 89 86v421c0 54 -21 81 -89 81v47h656v-143h-65c-62 78 -101 96 -185 96h-141v-253h120c83 0 116 24 131 84h66zM367 882
c36 0 65 -29 65 -65s-29 -65 -65 -65s-65 29 -65 65s29 65 65 65z" />
    <glyph glyph-name="Emacron" unicode="&#x112;" horiz-adv-x="750" 
d="M612 466v-221h-66c-21 74 -57 90 -136 90h-115v-192c0 -61 20 -96 129 -96c95 0 151 20 238 122h69l-30 -169h-671v47c62 0 89 22 89 86v421c0 54 -21 81 -89 81v47h656v-143h-65c-62 78 -101 96 -185 96h-141v-253h120c83 0 116 24 131 84h66zM206 887h314v-102h-314
v102z" />
    <glyph glyph-name="Eng" unicode="&#x14a;" horiz-adv-x="792" 
d="M282 47v-47h-271v47h7c75 0 100 47 100 133v403c-35 30 -66 47 -103 52v47h247l377 -427v192c0 155 -18 186 -115 188v47h258v-47c-78 -7 -92 -35 -91 -142l5 -489c2 -131 -6 -205 -125 -205c-49 0 -109 22 -109 78c0 27 22 52 65 52c31 0 44 -12 47 -22
c9 -25 12 -50 34 -50c23 0 30 25 30 76l-1 59l-473 538v-302c0 -130 24 -181 111 -181h7z" />
    <glyph glyph-name="Eogonek" unicode="&#x118;" horiz-adv-x="750" 
d="M527 -106c0 44 27 78 75 106h-572v47c62 0 89 22 89 86v421c0 54 -21 81 -89 81v47h656v-143h-65c-62 78 -101 96 -185 96h-141v-253h120c83 0 116 24 131 84h66v-221h-66c-21 74 -57 90 -136 90h-115v-192c0 -61 20 -96 129 -96c95 0 151 20 238 122h69l-30 -169h-53
c-25 -21 -35 -41 -35 -65c0 -53 49 -111 133 -110l15 -16c-34 -24 -61 -34 -98 -34c-73 0 -136 55 -136 119z" />
    <glyph glyph-name="Gbreve" unicode="&#x11e;" horiz-adv-x="844" 
d="M743 480h-65c-43 103 -134 169 -232 169c-132 0 -205 -106 -205 -299c0 -199 86 -316 231 -316c39 0 69 9 100 27v142c0 61 -17 90 -89 90v47h342v-47c-58 0 -77 -30 -77 -85v-168c-51 -27 -202 -53 -302 -53c-247 0 -398 129 -398 342c0 193 142 367 404 367
c107 0 219 -23 279 -61zM566 910h32c0 -91 -77 -156 -148 -156c-81 0 -148 76 -148 156h32c17 -43 51 -62 113 -62c68 0 100 17 119 62z" />
    <glyph glyph-name="Gcircumflex" unicode="&#x11c;" horiz-adv-x="844" 
d="M743 480h-65c-43 103 -134 169 -232 169c-132 0 -205 -106 -205 -299c0 -199 86 -316 231 -316c39 0 69 9 100 27v142c0 61 -17 90 -89 90v47h342v-47c-58 0 -77 -30 -77 -85v-168c-51 -27 -202 -53 -302 -53c-247 0 -398 129 -398 342c0 193 142 367 404 367
c107 0 219 -23 279 -61zM515 930l98 -187h-37l-117 99l-119 -99h-40l104 187h111z" />
    <glyph glyph-name="Gcommaaccent" unicode="&#x122;" horiz-adv-x="844" 
d="M743 480h-65c-43 103 -134 169 -232 169c-132 0 -205 -106 -205 -299c0 -199 86 -316 231 -316c39 0 69 9 100 27v142c0 61 -17 90 -89 90v47h342v-47c-58 0 -77 -30 -77 -85v-168c-51 -27 -202 -53 -302 -53c-247 0 -398 129 -398 342c0 193 142 367 404 367
c107 0 219 -23 279 -61zM394 -198v13c0 6 5 10 14 11c36 1 53 28 53 46c0 15 -10 18 -13 18s-17 3 -20 4c-22 3 -34 19 -34 41c0 45 41 49 53 49c25 0 72 -16 72 -83c0 -71 -63 -110 -108 -110c-5 0 -17 0 -17 11z" />
    <glyph glyph-name="Gdotaccent" unicode="&#x120;" horiz-adv-x="844" 
d="M743 480h-65c-43 103 -134 169 -232 169c-132 0 -205 -106 -205 -299c0 -199 86 -316 231 -316c39 0 69 9 100 27v142c0 61 -17 90 -89 90v47h342v-47c-58 0 -77 -30 -77 -85v-168c-51 -27 -202 -53 -302 -53c-247 0 -398 129 -398 342c0 193 142 367 404 367
c107 0 219 -23 279 -61zM447 882c36 0 65 -29 65 -65s-29 -65 -65 -65s-65 29 -65 65s29 65 65 65z" />
    <glyph glyph-name="Hbar" unicode="&#x126;" horiz-adv-x="875" 
d="M61 513h63v36c0 60 -21 86 -89 86h-9v47h361v-47c-67 0 -87 -30 -87 -91v-31h282v37c0 53 -17 85 -89 85v47h356v-47c-77 0 -91 -34 -91 -98v-24h61v-48h-61v-325c0 -67 22 -93 91 -93v-47h-351v47c68 0 84 33 84 89v185h-282v-179c0 -69 19 -91 87 -95v-47h-361v47h14
c63 0 84 31 84 79v339h-63v48zM300 380h282v85h-282v-85z" />
    <glyph glyph-name="Hcircumflex" unicode="&#x124;" horiz-adv-x="875" 
d="M300 380h282v170c0 53 -17 85 -89 85v47h356v-47c-77 0 -91 -34 -91 -98v-397c0 -67 22 -93 91 -93v-47h-351v47c68 0 84 33 84 89v185h-282v-179c0 -69 19 -91 87 -95v-47h-361v47h14c63 0 84 31 84 79v423c0 60 -21 86 -89 86h-9v47h361v-47c-67 0 -87 -30 -87 -91
v-164zM498 930l98 -187h-37l-117 99l-119 -99h-40l104 187h111z" />
    <glyph glyph-name="Ibreve" unicode="&#x12c;" horiz-adv-x="406" 
d="M379 47v-47h-352v47c65 0 86 29 86 83v416c0 61 -20 89 -86 89v47h352v-47c-76 0 -90 -36 -90 -91v-413c0 -54 20 -84 90 -84zM321 910h32c0 -91 -77 -156 -148 -156c-81 0 -148 76 -148 156h32c17 -43 51 -62 113 -62c68 0 100 17 119 62z" />
    <glyph glyph-name="IJ" unicode="&#x132;" horiz-adv-x="812" 
d="M379 47v-47h-352v47c65 0 86 29 86 83v416c0 61 -20 89 -86 89v47h352v-47c-76 0 -90 -36 -90 -91v-413c0 -54 20 -84 90 -84zM522 -67v621c0 55 -23 81 -86 81v47h348v-47c-65 0 -86 -28 -86 -91v-458c0 -92 -17 -167 -64 -214c-43 -43 -110 -73 -179 -73
c-62 0 -109 33 -109 78c0 29 29 52 65 52c74 0 40 -72 81 -72c22 0 30 21 30 76z" />
    <glyph glyph-name="Imacron" unicode="&#x12a;" horiz-adv-x="406" 
d="M379 47v-47h-352v47c65 0 86 29 86 83v416c0 61 -20 89 -86 89v47h352v-47c-76 0 -90 -36 -90 -91v-413c0 -54 20 -84 90 -84zM45 887h314v-102h-314v102z" />
    <glyph glyph-name="Iogonek" unicode="&#x12e;" horiz-adv-x="406" 
d="M107 -106c0 44 27 78 75 106h-155v47c65 0 86 29 86 83v416c0 61 -20 89 -86 89v47h352v-47c-76 0 -90 -36 -90 -91v-413c0 -54 20 -84 90 -84v-47h-151c-25 -21 -35 -41 -35 -65c0 -53 49 -111 133 -110l15 -16c-34 -24 -61 -34 -98 -34c-73 0 -136 55 -136 119z" />
    <glyph glyph-name="Itilde" unicode="&#x128;" horiz-adv-x="406" 
d="M379 47v-47h-352v47c65 0 86 29 86 83v416c0 61 -20 89 -86 89v47h352v-47c-76 0 -90 -36 -90 -91v-413c0 -54 20 -84 90 -84zM327 887h26c8 -84 -43 -135 -103 -135c-57 0 -108 46 -144 46c-22 0 -33 -13 -38 -45h-28c-3 84 44 135 106 135c48 0 98 -45 141 -45
c19 0 29 11 40 44z" />
    <glyph glyph-name="Jcircumflex" unicode="&#x134;" horiz-adv-x="406" 
d="M116 -67v621c0 55 -23 81 -86 81v47h348v-47c-65 0 -86 -28 -86 -91v-458c0 -92 -17 -167 -64 -214c-43 -43 -110 -73 -179 -73c-62 0 -109 33 -109 78c0 29 29 52 65 52c74 0 40 -72 81 -72c22 0 30 21 30 76zM261 930l98 -187h-37l-117 99l-119 -99h-40l104 187h111z
" />
    <glyph glyph-name="Kcommaaccent" unicode="&#x136;" horiz-adv-x="781" 
d="M469 635v47h277v-47c-65 -12 -83 -23 -139 -70l-180 -151l236 -269c50 -57 92 -94 129 -98v-47h-212c-34 27 -62 53 -80 75l-206 243v-178c0 -58 14 -93 86 -93v-47h-352v47c69 0 90 28 90 84v420c0 57 -20 84 -90 84v47h352v-47c-70 0 -86 -31 -86 -92v-175l147 121
c47 39 87 84 87 108c0 28 -22 38 -59 38zM404 -198v13c0 6 5 10 14 11c36 1 53 28 53 46c0 15 -10 18 -13 18s-17 3 -20 4c-22 3 -34 19 -34 41c0 45 41 49 53 49c25 0 72 -16 72 -83c0 -71 -63 -110 -108 -110c-5 0 -17 0 -17 11z" />
    <glyph glyph-name="Lacute" unicode="&#x139;" horiz-adv-x="686" 
d="M294 548v-384c0 -86 28 -117 98 -117c83 0 149 38 224 123h62l-29 -170h-614v47c57 0 83 26 83 81v429c0 48 -23 78 -83 78v47h349v-47c-69 0 -90 -27 -90 -87zM481 917l-161 -169h-42l57 169h146z" />
    <glyph glyph-name="Lcaron" unicode="&#x13d;" horiz-adv-x="686" 
d="M294 548v-384c0 -86 28 -117 98 -117c83 0 149 38 224 123h62l-29 -170h-614v47c57 0 83 26 83 81v429c0 48 -23 78 -83 78v47h349v-47c-69 0 -90 -27 -90 -87zM445 610c0 42 33 72 81 72c59 0 102 -51 102 -123c0 -32 -8 -69 -44 -105c-44 -44 -113 -59 -116 -52l-14 28
c-4 7 -1 11 8 13c52 16 86 48 86 78c0 20 -8 26 -33 26c-46 0 -70 28 -70 63z" />
    <glyph glyph-name="Lcommaaccent" unicode="&#x13b;" horiz-adv-x="686" 
d="M294 548v-384c0 -86 28 -117 98 -117c83 0 149 38 224 123h62l-29 -170h-614v47c57 0 83 26 83 81v429c0 48 -23 78 -83 78v47h349v-47c-69 0 -90 -27 -90 -87zM297 -198v13c0 6 5 10 14 11c36 1 53 28 53 46c0 15 -10 18 -13 18s-17 3 -20 4c-22 3 -34 19 -34 41
c0 45 41 49 53 49c25 0 72 -16 72 -83c0 -71 -63 -110 -108 -110c-5 0 -17 0 -17 11z" />
    <glyph glyph-name="Ldot" unicode="&#x13f;" horiz-adv-x="686" 
d="M294 548v-384c0 -86 28 -117 98 -117c83 0 149 38 224 123h62l-29 -170h-614v47c57 0 83 26 83 81v429c0 48 -23 78 -83 78v47h349v-47c-69 0 -90 -27 -90 -87zM456 429c36 0 65 -29 65 -65s-29 -65 -65 -65s-65 29 -65 65s29 65 65 65z" />
    <glyph glyph-name="Nacute" unicode="&#x143;" horiz-adv-x="792" 
d="M282 47v-47h-271v47h7c75 0 100 47 100 133v403c-35 30 -66 47 -103 52v47h247l377 -427v192c0 155 -18 186 -115 188v47h258v-47c-78 -7 -91 -35 -91 -142v-322c0 -100 14 -122 16 -179h-70l-473 538v-302c0 -130 24 -181 111 -181h7zM565 917l-161 -169h-42l57 169h146
z" />
    <glyph glyph-name="Ncaron" unicode="&#x147;" horiz-adv-x="792" 
d="M282 47v-47h-271v47h7c75 0 100 47 100 133v403c-35 30 -66 47 -103 52v47h247l377 -427v192c0 155 -18 186 -115 188v47h258v-47c-78 -7 -91 -35 -91 -142v-322c0 -100 14 -122 16 -179h-70l-473 538v-302c0 -130 24 -181 111 -181h7zM357 743l-98 187h37l117 -99
l119 99h40l-104 -187h-111z" />
    <glyph glyph-name="Ncommaaccent" unicode="&#x145;" horiz-adv-x="792" 
d="M282 47v-47h-271v47h7c75 0 100 47 100 133v403c-35 30 -66 47 -103 52v47h247l377 -427v192c0 155 -18 186 -115 188v47h258v-47c-78 -7 -91 -35 -91 -142v-322c0 -100 14 -122 16 -179h-70l-473 538v-302c0 -130 24 -181 111 -181h7zM376 -198v13c0 6 5 10 14 11
c36 1 53 28 53 46c0 15 -10 18 -13 18s-17 3 -20 4c-22 3 -34 19 -34 41c0 45 41 49 53 49c25 0 72 -16 72 -83c0 -71 -63 -110 -108 -110c-5 0 -17 0 -17 11z" />
    <glyph glyph-name="Obreve" unicode="&#x14e;" horiz-adv-x="875" 
d="M824 347c0 -185 -134 -360 -393 -360c-252 0 -381 167 -381 342c0 230 193 367 390 367c155 0 384 -81 384 -349zM244 360c0 -218 82 -326 205 -326c45 0 85 22 114 51c51 51 67 132 67 229c0 208 -74 330 -199 330c-118 0 -187 -104 -187 -284zM553 910h32
c0 -91 -77 -156 -148 -156c-81 0 -148 76 -148 156h32c17 -43 51 -62 113 -62c68 0 100 17 119 62z" />
    <glyph glyph-name="Ohungarumlaut" unicode="&#x150;" horiz-adv-x="875" 
d="M824 347c0 -185 -134 -360 -393 -360c-252 0 -381 167 -381 342c0 230 193 367 390 367c155 0 384 -81 384 -349zM244 360c0 -218 82 -326 205 -326c45 0 85 22 114 51c51 51 67 132 67 229c0 208 -74 330 -199 330c-118 0 -187 -104 -187 -284zM486 747l56 170h103
l-120 -170h-39zM330 747l56 170h103l-120 -170h-39z" />
    <glyph glyph-name="Omacron" unicode="&#x14c;" horiz-adv-x="875" 
d="M824 347c0 -185 -134 -360 -393 -360c-252 0 -381 167 -381 342c0 230 193 367 390 367c155 0 384 -81 384 -349zM244 360c0 -218 82 -326 205 -326c45 0 85 22 114 51c51 51 67 132 67 229c0 208 -74 330 -199 330c-118 0 -187 -104 -187 -284zM289 887h314v-102h-314
v102z" />
    <glyph glyph-name="Oslashacute" unicode="&#x1fe;" horiz-adv-x="875" 
d="M604 496l-313 -366c40 -62 87 -96 158 -96c45 0 85 22 114 51c51 51 67 132 67 229c0 78 -12 141 -26 182zM215 41l-60 -70l-36 32l55 65c-83 65 -124 165 -124 261c0 230 193 367 390 367c68 0 157 -19 223 -57l59 69l35 -33l-54 -63c64 -48 121 -131 121 -265
c0 -185 -134 -360 -393 -360c-88 0 -157 20 -216 54zM270 179l313 367c-32 60 -82 98 -152 98c-118 0 -187 -104 -187 -284c0 -81 10 -129 26 -181zM571 917l-161 -169h-42l57 169h146z" />
    <glyph glyph-name="Racute" unicode="&#x154;" horiz-adv-x="771" 
d="M298 305v-165c0 -62 15 -93 86 -93v-47h-354v47c73 0 92 25 92 87v416c0 59 -21 85 -92 85v47h459c171 0 220 -109 220 -176c0 -85 -73 -158 -175 -174c54 -60 119 -157 165 -212c48 -57 59 -70 86 -73v-47h-196c-26 8 -99 111 -159 198c-63 91 -74 107 -108 107h-24z
M298 635v-283h62c115 0 160 44 160 139c0 81 -44 144 -149 144h-73zM504 917l-161 -169h-42l57 169h146z" />
    <glyph glyph-name="Rcaron" unicode="&#x158;" horiz-adv-x="771" 
d="M298 305v-165c0 -62 15 -93 86 -93v-47h-354v47c73 0 92 25 92 87v416c0 59 -21 85 -92 85v47h459c171 0 220 -109 220 -176c0 -85 -73 -158 -175 -174c54 -60 119 -157 165 -212c48 -57 59 -70 86 -73v-47h-196c-26 8 -99 111 -159 198c-63 91 -74 107 -108 107h-24z
M298 635v-283h62c115 0 160 44 160 139c0 81 -44 144 -149 144h-73zM274 743l-98 187h37l117 -99l119 99h40l-104 -187h-111z" />
    <glyph glyph-name="Rcommaaccent" unicode="&#x156;" horiz-adv-x="771" 
d="M298 305v-165c0 -62 15 -93 86 -93v-47h-354v47c73 0 92 25 92 87v416c0 59 -21 85 -92 85v47h459c171 0 220 -109 220 -176c0 -85 -73 -158 -175 -174c54 -60 119 -157 165 -212c48 -57 59 -70 86 -73v-47h-196c-26 8 -99 111 -159 198c-63 91 -74 107 -108 107h-24z
M298 635v-283h62c115 0 160 44 160 139c0 81 -44 144 -149 144h-73zM379 -198v13c0 6 5 10 14 11c36 1 53 28 53 46c0 15 -10 18 -13 18s-17 3 -20 4c-22 3 -34 19 -34 41c0 45 41 49 53 49c25 0 72 -16 72 -83c0 -71 -63 -110 -108 -110c-5 0 -17 0 -17 11z" />
    <glyph glyph-name="Sacute" unicode="&#x15a;" horiz-adv-x="656" 
d="M566 489h-71c-15 93 -87 160 -173 160c-63 0 -106 -35 -106 -85c0 -146 395 -126 395 -377c0 -132 -117 -200 -285 -200c-84 0 -197 21 -268 51v169h80c18 -113 99 -173 186 -173c67 0 115 37 115 90c0 140 -211 130 -339 258c-27 27 -49 66 -49 117
c0 114 115 197 273 197c75 0 175 -24 242 -57v-150zM446 917l-161 -169h-42l57 169h146z" />
    <glyph glyph-name="uni015E" unicode="&#x15e;" horiz-adv-x="656" 
d="M192 -183c66 0 111 14 111 58c0 26 -22 40 -59 40l60 73c-81 3 -181 22 -246 50v169h80c18 -113 99 -173 186 -173c67 0 115 37 115 90c0 140 -211 130 -339 258c-27 27 -49 66 -49 117c0 114 115 197 273 197c75 0 175 -24 242 -57v-150h-71c-15 93 -87 160 -173 160
c-63 0 -106 -35 -106 -85c0 -146 395 -126 395 -377c0 -126 -107 -193 -262 -199l-16 -21c52 -8 81 -35 81 -79c0 -52 -50 -97 -173 -97h-49v26z" />
    <glyph glyph-name="Scircumflex" unicode="&#x15c;" horiz-adv-x="656" 
d="M566 489h-71c-15 93 -87 160 -173 160c-63 0 -106 -35 -106 -85c0 -146 395 -126 395 -377c0 -132 -117 -200 -285 -200c-84 0 -197 21 -268 51v169h80c18 -113 99 -173 186 -173c67 0 115 37 115 90c0 140 -211 130 -339 258c-27 27 -49 66 -49 117
c0 114 115 197 273 197c75 0 175 -24 242 -57v-150zM379 930l98 -187h-37l-117 99l-119 -99h-40l104 187h111z" />
    <glyph glyph-name="uni0218" unicode="&#x218;" horiz-adv-x="656" 
d="M566 489h-71c-15 93 -87 160 -173 160c-63 0 -106 -35 -106 -85c0 -146 395 -126 395 -377c0 -132 -117 -200 -285 -200c-84 0 -197 21 -268 51v169h80c18 -113 99 -173 186 -173c67 0 115 37 115 90c0 140 -211 130 -339 258c-27 27 -49 66 -49 117
c0 114 115 197 273 197c75 0 175 -24 242 -57v-150zM272 -198v13c0 6 5 10 14 11c36 1 53 28 53 46c0 15 -10 18 -13 18s-17 3 -20 4c-22 3 -34 19 -34 41c0 45 41 49 53 49c25 0 72 -16 72 -83c0 -71 -63 -110 -108 -110c-5 0 -17 0 -17 11z" />
    <glyph glyph-name="Tbar" unicode="&#x166;" horiz-adv-x="740" 
d="M146 392h136v243h-34c-62 0 -114 -32 -162 -100h-63v147h694v-147h-63c-48 68 -100 100 -162 100h-34v-243h136v-48h-136v-207c0 -63 19 -90 87 -90v-47h-350v47c64 0 87 25 87 89v208h-136v48z" />
    <glyph glyph-name="Tcaron" unicode="&#x164;" horiz-adv-x="740" 
d="M282 136v499h-34c-62 0 -114 -32 -162 -100h-63v147h694v-147h-63c-48 68 -100 100 -162 100h-34v-498c0 -63 19 -90 87 -90v-47h-350v47c64 0 87 25 87 89zM313 743l-98 187h37l117 -99l119 99h40l-104 -187h-111z" />
    <glyph glyph-name="Tcommaaccent" unicode="&#x162;" horiz-adv-x="740" 
d="M282 136v499h-34c-62 0 -114 -32 -162 -100h-63v147h694v-147h-63c-48 68 -100 100 -162 100h-34v-498c0 -63 19 -90 87 -90v-47h-350v47c64 0 87 25 87 89zM304 -198v13c0 6 5 10 14 11c36 1 53 28 53 46c0 15 -10 18 -13 18s-17 3 -20 4c-22 3 -34 19 -34 41
c0 45 41 49 53 49c25 0 72 -16 72 -83c0 -71 -63 -110 -108 -110c-5 0 -17 0 -17 11z" />
    <glyph glyph-name="Ubreve" unicode="&#x16c;" horiz-adv-x="833" 
d="M113 237v305c0 58 -13 93 -89 93v47h357v-47c-69 0 -92 -23 -92 -85v-289c0 -128 53 -195 184 -195c93 0 204 38 204 190v249c0 91 -29 127 -107 130v47h249v-47c-70 -12 -91 -38 -91 -110v-284c0 -201 -144 -254 -300 -254c-174 0 -315 55 -315 250zM587 910h32
c0 -91 -77 -156 -148 -156c-81 0 -148 76 -148 156h32c17 -43 51 -62 113 -62c68 0 100 17 119 62z" />
    <glyph glyph-name="Uhungarumlaut" unicode="&#x170;" horiz-adv-x="833" 
d="M113 237v305c0 58 -13 93 -89 93v47h357v-47c-69 0 -92 -23 -92 -85v-289c0 -128 53 -195 184 -195c93 0 204 38 204 190v249c0 91 -29 127 -107 130v47h249v-47c-70 -12 -91 -38 -91 -110v-284c0 -201 -144 -254 -300 -254c-174 0 -315 55 -315 250zM501 747l56 170h103
l-120 -170h-39zM345 747l56 170h103l-120 -170h-39z" />
    <glyph glyph-name="Umacron" unicode="&#x16a;" horiz-adv-x="833" 
d="M113 237v305c0 58 -13 93 -89 93v47h357v-47c-69 0 -92 -23 -92 -85v-289c0 -128 53 -195 184 -195c93 0 204 38 204 190v249c0 91 -29 127 -107 130v47h249v-47c-70 -12 -91 -38 -91 -110v-284c0 -201 -144 -254 -300 -254c-174 0 -315 55 -315 250zM314 887h314v-102
h-314v102z" />
    <glyph glyph-name="Uogonek" unicode="&#x172;" horiz-adv-x="833" 
d="M345 -106c0 38 20 68 56 94c-162 5 -288 64 -288 249v305c0 58 -13 93 -89 93v47h357v-47c-69 0 -92 -23 -92 -85v-289c0 -128 53 -195 184 -195c93 0 204 38 204 190v249c0 91 -29 127 -107 130v47h249v-47c-70 -12 -91 -38 -91 -110v-284c0 -190 -129 -248 -275 -253
c-16 -17 -22 -33 -22 -53c0 -53 49 -111 133 -110l15 -16c-34 -24 -61 -34 -98 -34c-73 0 -136 55 -136 119z" />
    <glyph glyph-name="Uring" unicode="&#x16e;" horiz-adv-x="833" 
d="M113 237v305c0 58 -13 93 -89 93v47h357v-47c-69 0 -92 -23 -92 -85v-289c0 -128 53 -195 184 -195c93 0 204 38 204 190v249c0 91 -29 127 -107 130v47h249v-47c-70 -12 -91 -38 -91 -110v-284c0 -201 -144 -254 -300 -254c-174 0 -315 55 -315 250zM401 832
c0 -36 29 -65 65 -65s65 29 65 65s-29 65 -65 65s-65 -29 -65 -65zM364 832c0 56 46 102 102 102s102 -46 102 -102s-46 -102 -102 -102s-102 46 -102 102z" />
    <glyph glyph-name="Utilde" unicode="&#x168;" horiz-adv-x="833" 
d="M113 237v305c0 58 -13 93 -89 93v47h357v-47c-69 0 -92 -23 -92 -85v-289c0 -128 53 -195 184 -195c93 0 204 38 204 190v249c0 91 -29 127 -107 130v47h249v-47c-70 -12 -91 -38 -91 -110v-284c0 -201 -144 -254 -300 -254c-174 0 -315 55 -315 250zM602 887h26
c8 -84 -43 -135 -103 -135c-57 0 -108 46 -144 46c-22 0 -33 -13 -38 -45h-28c-3 84 44 135 106 135c48 0 98 -45 141 -45c19 0 29 11 40 44z" />
    <glyph glyph-name="Wacute" unicode="&#x1e82;" horiz-adv-x="1031" 
d="M932 514l-86 -263c-23 -70 -66 -188 -86 -264h-90c-3 27 -25 106 -37 138l-111 284l-89 -249c-26 -72 -43 -110 -59 -173h-86c-15 52 -41 137 -60 189l-132 360c-22 61 -47 92 -79 99v47h295v-47c-43 0 -60 -31 -45 -74l129 -365h2l97 280l-30 81c-18 48 -36 66 -79 78
v47h310v-47c-54 0 -67 -36 -52 -77l131 -358h2l91 276c12 36 16 53 16 79c0 47 -22 72 -68 80v47h199v-47c-44 -18 -54 -33 -83 -121zM653 917l-161 -169h-42l57 169h146z" />
    <glyph glyph-name="Wcircumflex" unicode="&#x174;" horiz-adv-x="1031" 
d="M932 514l-86 -263c-23 -70 -66 -188 -86 -264h-90c-3 27 -25 106 -37 138l-111 284l-89 -249c-26 -72 -43 -110 -59 -173h-86c-15 52 -41 137 -60 189l-132 360c-22 61 -47 92 -79 99v47h295v-47c-43 0 -60 -31 -45 -74l129 -365h2l97 280l-30 81c-18 48 -36 66 -79 78
v47h310v-47c-54 0 -67 -36 -52 -77l131 -358h2l91 276c12 36 16 53 16 79c0 47 -22 72 -68 80v47h199v-47c-44 -18 -54 -33 -83 -121zM599 930l98 -187h-37l-117 99l-119 -99h-40l104 187h111z" />
    <glyph glyph-name="Wdieresis" unicode="&#x1e84;" horiz-adv-x="1031" 
d="M932 514l-86 -263c-23 -70 -66 -188 -86 -264h-90c-3 27 -25 106 -37 138l-111 284l-89 -249c-26 -72 -43 -110 -59 -173h-86c-15 52 -41 137 -60 189l-132 360c-22 61 -47 92 -79 99v47h295v-47c-43 0 -60 -31 -45 -74l129 -365h2l97 280l-30 81c-18 48 -36 66 -79 78
v47h310v-47c-54 0 -67 -36 -52 -77l131 -358h2l91 276c12 36 16 53 16 79c0 47 -22 72 -68 80v47h199v-47c-44 -18 -54 -33 -83 -121zM384 817c0 36 29 65 65 65s65 -29 65 -65s-29 -65 -65 -65s-65 29 -65 65zM567 817c0 36 29 65 65 65s65 -29 65 -65s-29 -65 -65 -65
s-65 29 -65 65z" />
    <glyph glyph-name="Wgrave" unicode="&#x1e80;" horiz-adv-x="1031" 
d="M932 514l-86 -263c-23 -70 -66 -188 -86 -264h-90c-3 27 -25 106 -37 138l-111 284l-89 -249c-26 -72 -43 -110 -59 -173h-86c-15 52 -41 137 -60 189l-132 360c-22 61 -47 92 -79 99v47h295v-47c-43 0 -60 -31 -45 -74l129 -365h2l97 280l-30 81c-18 48 -36 66 -79 78
v47h310v-47c-54 0 -67 -36 -52 -77l131 -358h2l91 276c12 36 16 53 16 79c0 47 -22 72 -68 80v47h199v-47c-44 -18 -54 -33 -83 -121zM377 917h146l57 -169h-42z" />
    <glyph glyph-name="Ycircumflex" unicode="&#x176;" horiz-adv-x="729" 
d="M277 141v107l-170 321c-20 38 -34 61 -93 66v47h367v-47c-86 0 -100 -29 -68 -90l116 -222l118 214c21 38 16 95 -61 98v47h230v-47c-43 -6 -75 -41 -111 -103l-152 -263v-134c0 -63 22 -88 96 -88v-47h-368v47c74 0 96 23 96 94zM455 930l98 -187h-37l-117 99l-119 -99
h-40l104 187h111z" />
    <glyph glyph-name="Ygrave" unicode="&#x1ef2;" horiz-adv-x="729" 
d="M277 141v107l-170 321c-20 38 -34 61 -93 66v47h367v-47c-86 0 -100 -29 -68 -90l116 -222l118 214c21 38 16 95 -61 98v47h230v-47c-43 -6 -75 -41 -111 -103l-152 -263v-134c0 -63 22 -88 96 -88v-47h-368v47c74 0 96 23 96 94zM250 917h146l57 -169h-42z" />
    <glyph glyph-name="Zacute" unicode="&#x179;" horiz-adv-x="686" 
d="M126 531h-64v151h575v-30l-397 -605h146c83 0 141 40 198 123h71l-33 -170h-593v36l393 599h-117c-93 0 -104 -11 -179 -104zM509 917l-161 -169h-42l57 169h146z" />
    <glyph glyph-name="Zdotaccent" unicode="&#x17b;" horiz-adv-x="686" 
d="M126 531h-64v151h575v-30l-397 -605h146c83 0 141 40 198 123h71l-33 -170h-593v36l393 599h-117c-93 0 -104 -11 -179 -104zM359 882c36 0 65 -29 65 -65s-29 -65 -65 -65s-65 29 -65 65s29 65 65 65z" />
    <glyph glyph-name="Idotaccent" unicode="&#x130;" horiz-adv-x="406" 
d="M379 47v-47h-352v47c65 0 86 29 86 83v416c0 61 -20 89 -86 89v47h352v-47c-76 0 -90 -36 -90 -91v-413c0 -54 20 -84 90 -84zM209 882c36 0 65 -29 65 -65s-29 -65 -65 -65s-65 29 -65 65s29 65 65 65z" />
    <glyph glyph-name="abreve" unicode="&#x103;" horiz-adv-x="561" 
d="M540 105l8 -49c-28 -42 -71 -67 -114 -67c-50 0 -82 21 -100 67c-55 -50 -96 -67 -159 -67c-85 0 -143 42 -143 103c0 126 193 156 302 183v74c0 40 -27 66 -71 66c-52 0 -91 -36 -67 -103l-133 -42c-9 23 -14 45 -14 66c0 81 81 126 239 126c142 0 190 -41 190 -123
v-208c0 -44 28 -45 62 -26zM334 105v124c-92 -26 -146 -46 -146 -101c0 -37 25 -66 57 -66c25 0 51 13 89 43zM400 677h32c0 -91 -77 -156 -148 -156c-81 0 -148 76 -148 156h32c17 -43 51 -62 113 -62c68 0 100 17 119 62z" />
    <glyph glyph-name="amacron" unicode="&#x101;" horiz-adv-x="561" 
d="M540 105l8 -49c-28 -42 -71 -67 -114 -67c-50 0 -82 21 -100 67c-55 -50 -96 -67 -159 -67c-85 0 -143 42 -143 103c0 126 193 156 302 183v74c0 40 -27 66 -71 66c-52 0 -91 -36 -67 -103l-133 -42c-9 23 -14 45 -14 66c0 81 81 126 239 126c142 0 190 -41 190 -123
v-208c0 -44 28 -45 62 -26zM334 105v124c-92 -26 -146 -46 -146 -101c0 -37 25 -66 57 -66c25 0 51 13 89 43zM111 654h314v-102h-314v102z" />
    <glyph glyph-name="aogonek" unicode="&#x105;" horiz-adv-x="561" 
d="M344 -106c0 40 22 71 62 98c-35 7 -58 27 -72 64c-55 -50 -96 -67 -159 -67c-85 0 -143 42 -143 103c0 126 193 156 302 183v74c0 40 -27 66 -71 66c-52 0 -91 -36 -67 -103l-133 -42c-9 23 -14 45 -14 66c0 81 81 126 239 126c142 0 190 -41 190 -123v-208
c0 -44 28 -45 62 -26l8 -49c-23 -35 -57 -58 -92 -65c-19 -18 -26 -35 -26 -56c0 -53 49 -111 133 -110l15 -16c-34 -24 -61 -34 -98 -34c-73 0 -136 55 -136 119zM334 105v124c-92 -26 -146 -46 -146 -101c0 -37 25 -66 57 -66c25 0 51 13 89 43z" />
    <glyph glyph-name="aeacute" unicode="&#x1fd;" horiz-adv-x="813" 
d="M751 149l32 -34c-46 -79 -135 -126 -240 -126c-80 0 -131 20 -186 73c-71 -51 -128 -73 -191 -73c-80 0 -137 46 -137 110c0 73 75 137 298 177v62c0 51 -22 77 -67 77c-42 0 -99 -21 -69 -103l-131 -43c-52 118 46 193 196 193c72 0 118 -14 157 -50c50 36 93 50 155 50
c123 0 199 -61 215 -176l-312 -47c-5 -112 53 -152 128 -152c51 0 99 20 152 62zM472 286l156 25c-10 71 -36 104 -81 104c-53 0 -75 -35 -75 -129zM327 98v130c-106 -23 -142 -49 -142 -101c0 -36 24 -63 56 -63c25 0 55 11 86 34zM553 684l-161 -169h-42l57 169h146z" />
    <glyph glyph-name="cacute" unicode="&#x107;" horiz-adv-x="521" 
d="M447 145l37 -34c-39 -77 -123 -122 -226 -122c-152 0 -223 119 -223 228c0 108 63 245 270 245c102 0 168 -42 168 -108c0 -38 -31 -70 -68 -70c-85 0 -51 130 -131 130c-57 0 -102 -53 -102 -127c0 -108 74 -195 165 -195c43 0 69 12 110 53zM432 684l-161 -169h-42
l57 169h146z" />
    <glyph glyph-name="ccaron" unicode="&#x10d;" horiz-adv-x="521" 
d="M447 145l37 -34c-39 -77 -123 -122 -226 -122c-152 0 -223 119 -223 228c0 108 63 245 270 245c102 0 168 -42 168 -108c0 -38 -31 -70 -68 -70c-85 0 -51 130 -131 130c-57 0 -102 -53 -102 -127c0 -108 74 -195 165 -195c43 0 69 12 110 53zM239 510l-98 187h37
l117 -99l119 99h40l-104 -187h-111z" />
    <glyph glyph-name="ccircumflex" unicode="&#x109;" horiz-adv-x="521" 
d="M447 145l37 -34c-39 -77 -123 -122 -226 -122c-152 0 -223 119 -223 228c0 108 63 245 270 245c102 0 168 -42 168 -108c0 -38 -31 -70 -68 -70c-85 0 -51 130 -131 130c-57 0 -102 -53 -102 -127c0 -108 74 -195 165 -195c43 0 69 12 110 53zM356 697l98 -187h-37
l-117 99l-119 -99h-40l104 187h111z" />
    <glyph glyph-name="cdotaccent" unicode="&#x10b;" horiz-adv-x="521" 
d="M447 145l37 -34c-39 -77 -123 -122 -226 -122c-152 0 -223 119 -223 228c0 108 63 245 270 245c102 0 168 -42 168 -108c0 -38 -31 -70 -68 -70c-85 0 -51 130 -131 130c-57 0 -102 -53 -102 -127c0 -108 74 -195 165 -195c43 0 69 12 110 53zM292 649
c36 0 65 -29 65 -65s-29 -65 -65 -65s-65 29 -65 65s29 65 65 65z" />
    <glyph glyph-name="dcaron" unicode="&#x10f;" horiz-adv-x="622" 
d="M606 66v-54l-174 -21h-45v75c-54 -52 -108 -77 -163 -77c-107 0 -192 98 -192 222c0 144 105 251 246 251c39 0 65 -5 109 -23v134l-79 41v32l191 47h32v-577c0 -40 27 -57 75 -50zM387 114v177c0 71 -31 124 -89 124c-64 0 -110 -69 -110 -166c0 -96 51 -168 119 -168
c25 0 50 10 80 33zM591 623c0 42 33 72 81 72c59 0 102 -51 102 -123c0 -32 -8 -69 -44 -105c-44 -44 -113 -59 -116 -52l-14 28c-4 7 -1 11 8 13c52 16 86 48 86 78c0 20 -8 26 -33 26c-46 0 -70 28 -70 63z" />
    <glyph glyph-name="dcroat" unicode="&#x111;" horiz-adv-x="615" 
d="M253 506v48h134v19l-79 41v32l191 47h32v-139h60v-48h-60v-390c0 -40 27 -57 75 -50v-54l-174 -21h-45v75c-54 -52 -108 -77 -163 -77c-107 0 -192 98 -192 222c0 144 105 251 246 251c39 0 65 -5 109 -23v67h-134zM387 114v177c0 71 -31 124 -89 124
c-64 0 -110 -69 -110 -166c0 -96 51 -168 119 -168c25 0 50 10 80 33z" />
    <glyph glyph-name="ebreve" unicode="&#x115;" horiz-adv-x="521" 
d="M452 143l39 -29c-65 -84 -142 -125 -237 -125c-131 0 -218 90 -218 226c0 147 98 247 242 247c129 0 210 -79 213 -206h-317c7 -90 78 -162 160 -162c38 0 69 13 118 49zM171 303h165c0 72 -29 112 -80 112s-85 -44 -85 -112zM388 677h32c0 -91 -77 -156 -148 -156
c-81 0 -148 76 -148 156h32c17 -43 51 -62 113 -62c68 0 100 17 119 62z" />
    <glyph glyph-name="ecaron" unicode="&#x11b;" horiz-adv-x="521" 
d="M452 143l39 -29c-65 -84 -142 -125 -237 -125c-131 0 -218 90 -218 226c0 147 98 247 242 247c129 0 210 -79 213 -206h-317c7 -90 78 -162 160 -162c38 0 69 13 118 49zM171 303h165c0 72 -29 112 -80 112s-85 -44 -85 -112zM227 510l-98 187h37l117 -99l119 99h40
l-104 -187h-111z" />
    <glyph glyph-name="edotaccent" unicode="&#x117;" horiz-adv-x="521" 
d="M452 143l39 -29c-65 -84 -142 -125 -237 -125c-131 0 -218 90 -218 226c0 147 98 247 242 247c129 0 210 -79 213 -206h-317c7 -90 78 -162 160 -162c38 0 69 13 118 49zM171 303h165c0 72 -29 112 -80 112s-85 -44 -85 -112zM267 649c36 0 65 -29 65 -65
s-29 -65 -65 -65s-65 29 -65 65s29 65 65 65z" />
    <glyph glyph-name="emacron" unicode="&#x113;" horiz-adv-x="521" 
d="M452 143l39 -29c-65 -84 -142 -125 -237 -125c-131 0 -218 90 -218 226c0 147 98 247 242 247c129 0 210 -79 213 -206h-317c7 -90 78 -162 160 -162c38 0 69 13 118 49zM171 303h165c0 72 -29 112 -80 112s-85 -44 -85 -112zM110 654h314v-102h-314v102z" />
    <glyph glyph-name="eng" unicode="&#x14b;" horiz-adv-x="625" 
d="M233 336v-203c0 -47 12 -78 63 -86v-47h-277v47c48 2 70 28 70 82v198l-70 52v27l164 53h50v-80c50 54 102 83 163 83c89 0 146 -49 146 -147v-190c0 -88 -5 -131 -50 -187c-31 -38 -80 -77 -152 -126l-37 52c36 38 95 88 95 166v257c0 49 -24 84 -72 84
c-31 0 -65 -15 -93 -35z" />
    <glyph glyph-name="eogonek" unicode="&#x119;" horiz-adv-x="521" 
d="M220 -106c0 39 20 70 59 96c-8 0 -17 -1 -25 -1c-131 0 -218 90 -218 226c0 147 98 247 242 247c129 0 210 -79 213 -206h-317c7 -90 78 -162 160 -162c38 0 69 13 118 49l39 -29c-43 -56 -91 -92 -146 -111c-28 -22 -39 -43 -39 -68c0 -53 49 -111 133 -110l15 -16
c-34 -24 -61 -34 -98 -34c-73 0 -136 55 -136 119zM171 303h165c0 72 -29 112 -80 112s-85 -44 -85 -112z" />
    <glyph glyph-name="gbreve" unicode="&#x11f;" horiz-adv-x="552" 
d="M547 450v-95c-21 -2 -60 -1 -88 4c13 -23 12 -42 12 -56c0 -102 -108 -147 -227 -147c-11 0 -37 2 -50 5c-26 -17 -36 -32 -36 -45c0 -17 12 -20 69 -20c32 0 98 4 128 4c108 0 154 -60 154 -122c0 -67 -62 -166 -266 -166c-155 0 -205 43 -205 94c0 29 17 48 75 79
c-37 11 -64 43 -64 74c0 45 31 79 100 113c-66 29 -97 71 -97 131c0 97 79 159 205 159c83 0 160 -14 212 -14c27 0 52 2 78 2zM331 288c0 86 -22 127 -68 127c-43 0 -68 -35 -68 -96c0 -77 24 -116 71 -116c42 0 65 30 65 85zM421 -63c0 24 -27 39 -81 39
c-43 0 -153 -8 -181 -3c-25 -16 -37 -33 -37 -54c0 -37 42 -58 124 -58c128 0 175 36 175 76zM377 677h32c0 -91 -77 -156 -148 -156c-81 0 -148 76 -148 156h32c17 -43 51 -62 113 -62c68 0 100 17 119 62z" />
    <glyph glyph-name="gcircumflex" unicode="&#x11d;" horiz-adv-x="552" 
d="M547 450v-95c-21 -2 -60 -1 -88 4c13 -23 12 -42 12 -56c0 -102 -108 -147 -227 -147c-11 0 -37 2 -50 5c-26 -17 -36 -32 -36 -45c0 -17 12 -20 69 -20c32 0 98 4 128 4c108 0 154 -60 154 -122c0 -67 -62 -166 -266 -166c-155 0 -205 43 -205 94c0 29 17 48 75 79
c-37 11 -64 43 -64 74c0 45 31 79 100 113c-66 29 -97 71 -97 131c0 97 79 159 205 159c83 0 160 -14 212 -14c27 0 52 2 78 2zM331 288c0 86 -22 127 -68 127c-43 0 -68 -35 -68 -96c0 -77 24 -116 71 -116c42 0 65 30 65 85zM421 -63c0 24 -27 39 -81 39
c-43 0 -153 -8 -181 -3c-25 -16 -37 -33 -37 -54c0 -37 42 -58 124 -58c128 0 175 36 175 76zM329 697l98 -187h-37l-117 99l-119 -99h-40l104 187h111z" />
    <glyph glyph-name="gcommaaccent" unicode="&#x123;" horiz-adv-x="552" 
d="M547 450v-95c-21 -2 -60 -1 -88 4c13 -23 12 -42 12 -56c0 -102 -108 -147 -227 -147c-11 0 -37 2 -50 5c-26 -17 -36 -32 -36 -45c0 -17 12 -20 69 -20c32 0 98 4 128 4c108 0 154 -60 154 -122c0 -67 -62 -166 -266 -166c-155 0 -205 43 -205 94c0 29 17 48 75 79
c-37 11 -64 43 -64 74c0 45 31 79 100 113c-66 29 -97 71 -97 131c0 97 79 159 205 159c83 0 160 -14 212 -14c27 0 52 2 78 2zM331 288c0 86 -22 127 -68 127c-43 0 -68 -35 -68 -96c0 -77 24 -116 71 -116c42 0 65 30 65 85zM421 -63c0 24 -27 39 -81 39
c-43 0 -153 -8 -181 -3c-25 -16 -37 -33 -37 -54c0 -37 42 -58 124 -58c128 0 175 36 175 76zM324 685v-13c0 -6 -5 -10 -14 -11c-36 -1 -53 -28 -53 -46c0 -15 10 -18 13 -18s17 -3 20 -4c22 -3 34 -19 34 -41c0 -45 -41 -49 -53 -49c-25 0 -72 16 -72 83
c0 71 63 110 108 110c5 0 17 0 17 -11z" />
    <glyph glyph-name="gdotaccent" unicode="&#x121;" horiz-adv-x="552" 
d="M547 450v-95c-21 -2 -60 -1 -88 4c13 -23 12 -42 12 -56c0 -102 -108 -147 -227 -147c-11 0 -37 2 -50 5c-26 -17 -36 -32 -36 -45c0 -17 12 -20 69 -20c32 0 98 4 128 4c108 0 154 -60 154 -122c0 -67 -62 -166 -266 -166c-155 0 -205 43 -205 94c0 29 17 48 75 79
c-37 11 -64 43 -64 74c0 45 31 79 100 113c-66 29 -97 71 -97 131c0 97 79 159 205 159c83 0 160 -14 212 -14c27 0 52 2 78 2zM331 288c0 86 -22 127 -68 127c-43 0 -68 -35 -68 -96c0 -77 24 -116 71 -116c42 0 65 30 65 85zM421 -63c0 24 -27 39 -81 39
c-43 0 -153 -8 -181 -3c-25 -16 -37 -33 -37 -54c0 -37 42 -58 124 -58c128 0 175 36 175 76zM264 649c36 0 65 -29 65 -65s-29 -65 -65 -65s-65 29 -65 65s29 65 65 65z" />
    <glyph glyph-name="hbar" unicode="&#x127;" horiz-adv-x="625" 
d="M22 547h63v19l-70 43v29l175 55h39v-146h157v-48h-157v-120h2c43 55 98 83 160 83c86 0 147 -42 147 -134v-178c0 -75 11 -92 66 -103v-47h-267v47c47 13 57 31 57 103v116c0 68 -38 97 -77 97c-24 0 -56 -11 -88 -29v-201c0 -46 12 -80 58 -86v-47h-272v47
c45 0 70 30 70 85v367h-63v48z" />
    <glyph glyph-name="hcircumflex" unicode="&#x125;" horiz-adv-x="625" 
d="M229 693v-314h2c43 55 98 83 160 83c86 0 147 -42 147 -134v-178c0 -75 11 -92 66 -103v-47h-267v47c47 13 57 31 57 103v116c0 68 -38 97 -77 97c-24 0 -56 -11 -88 -29v-201c0 -46 12 -80 58 -86v-47h-272v47c45 0 70 30 70 85v434l-70 43v29l175 55h39zM207 920
l98 -187h-37l-117 99l-119 -99h-40l104 187h111z" />
    <glyph glyph-name="ibreve" unicode="&#x12d;" 
d="M242 459v-321c0 -58 14 -88 74 -91v-47h-298v47c59 0 80 28 80 89v194l-80 47v32l173 50h51zM263 677h32c0 -91 -77 -156 -148 -156c-81 0 -148 76 -148 156h32c17 -43 51 -62 113 -62c68 0 100 17 119 62z" />
    <glyph glyph-name="ij" unicode="&#x133;" horiz-adv-x="646" 
d="M242 459v-321c0 -58 14 -88 74 -91v-47h-298v47c59 0 80 28 80 89v194l-80 47v32l173 50h51zM71 608c0 47 38 85 85 85s86 -38 86 -85s-39 -86 -86 -86s-85 39 -85 86zM574 459v-369c0 -106 -47 -181 -202 -278l-37 52c73 76 95 110 95 166v300l-82 49v27l173 53h53z
M408 608c0 47 38 85 85 85s86 -38 86 -85s-39 -86 -86 -86s-85 39 -85 86z" />
    <glyph glyph-name="imacron" unicode="&#x12b;" 
d="M242 459v-321c0 -58 14 -88 74 -91v-47h-298v47c59 0 80 28 80 89v194l-80 47v32l173 50h51zM-24 654h314v-102h-314v102z" />
    <glyph glyph-name="iogonek" unicode="&#x12f;" 
d="M70 -106c0 44 27 78 75 106h-127v47c59 0 80 28 80 89v194l-80 47v32l173 50h51v-321c0 -58 14 -88 74 -91v-47h-125c-25 -21 -35 -41 -35 -65c0 -53 49 -111 133 -110l15 -16c-34 -24 -61 -34 -98 -34c-73 0 -136 55 -136 119zM71 608c0 47 38 85 85 85s86 -38 86 -85
s-39 -86 -86 -86s-85 39 -85 86z" />
    <glyph glyph-name="itilde" unicode="&#x129;" 
d="M242 459v-321c0 -58 14 -88 74 -91v-47h-298v47c59 0 80 28 80 89v194l-80 47v32l173 50h51zM277 654h26c8 -84 -43 -135 -103 -135c-57 0 -108 46 -144 46c-22 0 -33 -13 -38 -45h-28c-3 84 44 135 106 135c48 0 98 -45 141 -45c19 0 29 11 40 44z" />
    <glyph glyph-name="jcircumflex" unicode="&#x135;" horiz-adv-x="313" 
d="M241 459v-369c0 -106 -47 -181 -202 -278l-37 52c73 76 95 110 95 166v300l-82 49v27l173 53h53zM203 697l98 -187h-37l-117 99l-119 -99h-40l104 187h111z" />
    <glyph glyph-name="kcommaaccent" unicode="&#x137;" horiz-adv-x="552" 
d="M222 693v-443c78 78 96 94 96 124c0 20 -14 30 -43 30v46h241v-46c-60 -1 -109 -32 -180 -110l66 -74c99 -111 141 -119 141 -152v-52c0 -14 -2 -16 -22 -16h-70c-38 7 -76 44 -110 83l-119 137v-70c0 -74 9 -89 63 -103v-47h-277v47c56 5 70 31 70 86v433l-73 36v36
l173 55h44zM275 -198v13c0 6 5 10 14 11c36 1 53 28 53 46c0 15 -10 18 -13 18s-17 3 -20 4c-22 3 -34 19 -34 41c0 45 41 49 53 49c25 0 72 -16 72 -83c0 -71 -63 -110 -108 -110c-5 0 -17 0 -17 11z" />
    <glyph glyph-name="lacute" unicode="&#x13a;" horiz-adv-x="311" 
d="M233 693v-560c0 -46 14 -81 71 -86v-47h-297v47c59 0 82 29 82 87v432l-82 43v29l193 55h33zM282 903l-161 -169h-42l57 169h146z" />
    <glyph glyph-name="lcaron" unicode="&#x13e;" horiz-adv-x="325" 
d="M233 693v-560c0 -46 14 -81 71 -86v-47h-297v47c59 0 82 29 82 87v432l-82 43v29l193 55h33zM293 623c0 42 33 72 81 72c59 0 102 -51 102 -123c0 -32 -8 -69 -44 -105c-44 -44 -113 -59 -116 -52l-14 28c-4 7 -1 11 8 13c52 16 86 48 86 78c0 20 -8 26 -33 26
c-46 0 -70 28 -70 63z" />
    <glyph glyph-name="lcommaaccent" unicode="&#x13c;" horiz-adv-x="311" 
d="M233 693v-560c0 -46 14 -81 71 -86v-47h-297v47c59 0 82 29 82 87v432l-82 43v29l193 55h33zM100 -198v13c0 6 5 10 14 11c36 1 53 28 53 46c0 15 -10 18 -13 18s-17 3 -20 4c-22 3 -34 19 -34 41c0 45 41 49 53 49c25 0 72 -16 72 -83c0 -71 -63 -110 -108 -110
c-5 0 -17 0 -17 11z" />
    <glyph glyph-name="ldot" unicode="&#x140;" horiz-adv-x="380" 
d="M233 693v-560c0 -46 14 -81 71 -86v-47h-297v47c59 0 82 29 82 87v432l-82 43v29l193 55h33zM358 434c36 0 65 -29 65 -65s-29 -65 -65 -65s-65 29 -65 65s29 65 65 65z" />
    <glyph glyph-name="nacute" unicode="&#x144;" horiz-adv-x="625" 
d="M233 336v-203c0 -47 12 -78 63 -86v-47h-277v47c48 2 70 28 70 82v198l-70 52v27l164 53h50v-80c50 54 102 83 163 83c89 0 146 -49 146 -147v-165c0 -74 12 -93 65 -103v-47h-269v47c44 7 60 35 60 85v155c0 49 -24 84 -72 84c-31 0 -65 -15 -93 -35zM472 684l-161 -169
h-42l57 169h146z" />
    <glyph glyph-name="ncaron" unicode="&#x148;" horiz-adv-x="625" 
d="M233 336v-203c0 -47 12 -78 63 -86v-47h-277v47c48 2 70 28 70 82v198l-70 52v27l164 53h50v-80c50 54 102 83 163 83c89 0 146 -49 146 -147v-165c0 -74 12 -93 65 -103v-47h-269v47c44 7 60 35 60 85v155c0 49 -24 84 -72 84c-31 0 -65 -15 -93 -35zM254 510l-98 187
h37l117 -99l119 99h40l-104 -187h-111z" />
    <glyph glyph-name="ncommaaccent" unicode="&#x146;" horiz-adv-x="625" 
d="M233 336v-203c0 -47 12 -78 63 -86v-47h-277v47c48 2 70 28 70 82v198l-70 52v27l164 53h50v-80c50 54 102 83 163 83c89 0 146 -49 146 -147v-165c0 -74 12 -93 65 -103v-47h-269v47c44 7 60 35 60 85v155c0 49 -24 84 -72 84c-31 0 -65 -15 -93 -35zM268 -198v13
c0 6 5 10 14 11c36 1 53 28 53 46c0 15 -10 18 -13 18s-17 3 -20 4c-22 3 -34 19 -34 41c0 45 41 49 53 49c25 0 72 -16 72 -83c0 -71 -63 -110 -108 -110c-5 0 -17 0 -17 11z" />
    <glyph glyph-name="obreve" unicode="&#x14f;" horiz-adv-x="573" 
d="M535 225c0 -122 -76 -236 -253 -236c-147 0 -245 92 -245 228c0 123 84 245 256 245c180 0 242 -136 242 -237zM380 167c0 157 -32 248 -101 248c-71 0 -87 -70 -87 -160c0 -166 41 -219 102 -219c54 0 86 48 86 131zM404 677h32c0 -91 -77 -156 -148 -156
c-81 0 -148 76 -148 156h32c17 -43 51 -62 113 -62c68 0 100 17 119 62z" />
    <glyph glyph-name="ohungarumlaut" unicode="&#x151;" horiz-adv-x="573" 
d="M535 225c0 -122 -76 -236 -253 -236c-147 0 -245 92 -245 228c0 123 84 245 256 245c180 0 242 -136 242 -237zM380 167c0 157 -32 248 -101 248c-71 0 -87 -70 -87 -160c0 -166 41 -219 102 -219c54 0 86 48 86 131zM332 514l56 170h103l-120 -170h-39zM176 514l56 170
h103l-120 -170h-39z" />
    <glyph glyph-name="omacron" unicode="&#x14d;" horiz-adv-x="573" 
d="M535 225c0 -122 -76 -236 -253 -236c-147 0 -245 92 -245 228c0 123 84 245 256 245c180 0 242 -136 242 -237zM380 167c0 157 -32 248 -101 248c-71 0 -87 -70 -87 -160c0 -166 41 -219 102 -219c54 0 86 48 86 131zM126 654h314v-102h-314v102z" />
    <glyph glyph-name="oslashacute" unicode="&#x1ff;" horiz-adv-x="573" 
d="M198 153l161 186c-17 53 -46 76 -80 76c-71 0 -87 -71 -87 -160c0 -47 4 -87 6 -102zM433 424l53 61l35 -29l-52 -60c47 -51 66 -107 66 -171c0 -122 -76 -236 -253 -236c-55 0 -100 12 -137 34l-47 -54l-33 31l42 49c-44 41 -70 98 -70 168c0 123 85 245 256 245
c57 0 105 -14 140 -38zM372 284l-160 -184c18 -43 45 -64 82 -64c54 0 86 49 86 131c0 49 -3 88 -8 117zM424 684l-161 -169h-42l57 169h146z" />
    <glyph glyph-name="racute" unicode="&#x155;" horiz-adv-x="479" 
d="M93 129v201l-80 49v30l172 50h52v-129h2c45 87 95 132 151 132c47 0 87 -33 87 -70c0 -27 -25 -117 -62 -117c-33 0 -76 65 -101 65c-37 0 -77 -72 -77 -116v-89c0 -70 23 -88 93 -88v-47h-309v47c55 3 72 31 72 82zM374 684l-161 -169h-42l57 169h146z" />
    <glyph glyph-name="rcaron" unicode="&#x159;" horiz-adv-x="479" 
d="M93 129v201l-80 49v30l172 50h52v-129h2c45 87 95 132 151 132c47 0 87 -33 87 -70c0 -27 -25 -117 -62 -117c-33 0 -76 65 -101 65c-37 0 -77 -72 -77 -116v-89c0 -70 23 -88 93 -88v-47h-309v47c55 3 72 31 72 82zM128 510l-98 187h37l117 -99l119 99h40l-104 -187
h-111z" />
    <glyph glyph-name="rcommaaccent" unicode="&#x157;" horiz-adv-x="479" 
d="M93 129v201l-80 49v30l172 50h52v-129h2c45 87 95 132 151 132c47 0 87 -33 87 -70c0 -27 -25 -117 -62 -117c-33 0 -76 65 -101 65c-37 0 -77 -72 -77 -116v-89c0 -70 23 -88 93 -88v-47h-309v47c55 3 72 31 72 82zM102 -198v13c0 6 5 10 14 11c36 1 53 28 53 46
c0 15 -10 18 -13 18s-17 3 -20 4c-22 3 -34 19 -34 41c0 45 41 49 53 49c25 0 72 -16 72 -83c0 -71 -63 -110 -108 -110c-5 0 -17 0 -17 11z" />
    <glyph glyph-name="sacute" unicode="&#x15b;" horiz-adv-x="458" 
d="M384 428l11 -109h-43c-30 59 -85 96 -141 96c-42 0 -71 -19 -71 -46c0 -81 282 -56 282 -234c0 -91 -69 -146 -183 -146c-57 0 -111 11 -189 41l-8 117h44c39 -69 92 -105 153 -105c55 0 81 25 81 52c0 82 -284 57 -284 226c0 105 92 142 181 142c48 0 114 -13 167 -34z
M348 684l-161 -169h-42l57 169h146z" />
    <glyph glyph-name="uni015F" unicode="&#x15f;" horiz-adv-x="458" 
d="M103 -183c66 0 111 14 111 58c0 26 -22 40 -59 40l62 75c-50 2 -99 14 -167 40l-8 117h44c39 -69 92 -105 153 -105c55 0 81 25 81 52c0 82 -284 57 -284 226c0 105 92 142 181 142c48 0 114 -13 167 -34l11 -109h-43c-30 59 -85 96 -141 96c-42 0 -71 -19 -71 -46
c0 -81 282 -56 282 -234c0 -85 -60 -138 -160 -145l-18 -23c52 -8 81 -35 81 -79c0 -52 -50 -97 -173 -97h-49v26z" />
    <glyph glyph-name="scircumflex" unicode="&#x15d;" horiz-adv-x="458" 
d="M384 428l11 -109h-43c-30 59 -85 96 -141 96c-42 0 -71 -19 -71 -46c0 -81 282 -56 282 -234c0 -91 -69 -146 -183 -146c-57 0 -111 11 -189 41l-8 117h44c39 -69 92 -105 153 -105c55 0 81 25 81 52c0 82 -284 57 -284 226c0 105 92 142 181 142c48 0 114 -13 167 -34z
M276 697l98 -187h-37l-117 99l-119 -99h-40l104 187h111z" />
    <glyph glyph-name="uni0219" unicode="&#x219;" horiz-adv-x="458" 
d="M384 428l11 -109h-43c-30 59 -85 96 -141 96c-42 0 -71 -19 -71 -46c0 -81 282 -56 282 -234c0 -91 -69 -146 -183 -146c-57 0 -111 11 -189 41l-8 117h44c39 -69 92 -105 153 -105c55 0 81 25 81 52c0 82 -284 57 -284 226c0 105 92 142 181 142c48 0 114 -13 167 -34z
M185 -198v13c0 6 5 10 14 11c36 1 53 28 53 46c0 15 -10 18 -13 18s-17 3 -20 4c-22 3 -34 19 -34 41c0 45 41 49 53 49c25 0 72 -16 72 -83c0 -71 -63 -110 -108 -110c-5 0 -17 0 -17 11z" />
    <glyph glyph-name="tbar" unicode="&#x167;" horiz-adv-x="375" 
d="M25 265h59v126h-66v52c83 12 150 74 166 123h44v-116h136v-59h-136v-126h122v-48h-122v-66c0 -55 12 -78 71 -78c24 0 40 4 65 15v-55c-33 -27 -94 -44 -155 -44c-73 0 -125 42 -125 114v114h-59v48z" />
    <glyph glyph-name="tcaron" unicode="&#x165;" horiz-adv-x="375" 
d="M266 623c0 42 33 72 81 72c59 0 102 -51 102 -123c0 -32 -8 -69 -44 -105c-13 -13 -27 -23 -41 -31v-45h-136v-240c0 -55 12 -78 71 -78c24 0 40 4 65 15v-55c-33 -27 -94 -44 -155 -44c-73 0 -125 42 -125 114v288h-66v52c83 12 150 74 166 123h44v-116h45c1 3 4 5 10 6
c52 16 86 48 86 78c0 20 -8 26 -33 26c-46 0 -70 28 -70 63z" />
    <glyph glyph-name="tcommaaccent" unicode="&#x163;" horiz-adv-x="375" 
d="M228 391v-240c0 -55 12 -78 71 -78c24 0 40 4 65 15v-55c-33 -27 -94 -44 -155 -44c-73 0 -125 42 -125 114v288h-66v52c83 12 150 74 166 123h44v-116h136v-59h-136zM117 -198v13c0 6 5 10 14 11c36 1 53 28 53 46c0 15 -10 18 -13 18s-17 3 -20 4c-22 3 -34 19 -34 41
c0 45 41 49 53 49c25 0 72 -16 72 -83c0 -71 -63 -110 -108 -110c-5 0 -17 0 -17 11z" />
    <glyph glyph-name="ubreve" unicode="&#x16d;" horiz-adv-x="625" 
d="M531 450v-297c0 -79 8 -89 72 -89v-47l-176 -26h-40v76c-61 -59 -101 -78 -160 -78c-100 0 -148 59 -148 164v155c0 56 -15 78 -57 88v45l201 9v-291c0 -54 41 -78 77 -78c26 0 56 11 87 33v214c0 36 -23 64 -59 68v45zM411 677h32c0 -91 -77 -156 -148 -156
c-81 0 -148 76 -148 156h32c17 -43 51 -62 113 -62c68 0 100 17 119 62z" />
    <glyph glyph-name="uhungarumlaut" unicode="&#x171;" horiz-adv-x="625" 
d="M531 450v-297c0 -79 8 -89 72 -89v-47l-176 -26h-40v76c-61 -59 -101 -78 -160 -78c-100 0 -148 59 -148 164v155c0 56 -15 78 -57 88v45l201 9v-291c0 -54 41 -78 77 -78c26 0 56 11 87 33v214c0 36 -23 64 -59 68v45zM332 514l56 170h103l-120 -170h-39zM176 514
l56 170h103l-120 -170h-39z" />
    <glyph glyph-name="umacron" unicode="&#x16b;" horiz-adv-x="625" 
d="M531 450v-297c0 -79 8 -89 72 -89v-47l-176 -26h-40v76c-61 -59 -101 -78 -160 -78c-100 0 -148 59 -148 164v155c0 56 -15 78 -57 88v45l201 9v-291c0 -54 41 -78 77 -78c26 0 56 11 87 33v214c0 36 -23 64 -59 68v45zM133 654h314v-102h-314v102z" />
    <glyph glyph-name="uogonek" unicode="&#x173;" horiz-adv-x="625" 
d="M392 -106c0 42 24 75 68 102l-33 -5h-40v76c-61 -59 -101 -78 -160 -78c-100 0 -148 59 -148 164v155c0 56 -15 78 -57 88v45l201 9v-291c0 -54 41 -78 77 -78c26 0 56 11 87 33v214c0 36 -23 64 -59 68v45l203 9v-297c0 -79 8 -89 72 -89v-47l-84 -13
c-30 -23 -41 -43 -41 -69c0 -53 49 -111 133 -110l15 -16c-34 -24 -61 -34 -98 -34c-73 0 -136 55 -136 119z" />
    <glyph glyph-name="uring" unicode="&#x16f;" horiz-adv-x="625" 
d="M531 450v-297c0 -79 8 -89 72 -89v-47l-176 -26h-40v76c-61 -59 -101 -78 -160 -78c-100 0 -148 59 -148 164v155c0 56 -15 78 -57 88v45l201 9v-291c0 -54 41 -78 77 -78c26 0 56 11 87 33v214c0 36 -23 64 -59 68v45zM243 599c0 -36 29 -65 65 -65s65 29 65 65
s-29 65 -65 65s-65 -29 -65 -65zM206 599c0 56 46 102 102 102s102 -46 102 -102s-46 -102 -102 -102s-102 46 -102 102z" />
    <glyph glyph-name="utilde" unicode="&#x169;" horiz-adv-x="625" 
d="M531 450v-297c0 -79 8 -89 72 -89v-47l-176 -26h-40v76c-61 -59 -101 -78 -160 -78c-100 0 -148 59 -148 164v155c0 56 -15 78 -57 88v45l201 9v-291c0 -54 41 -78 77 -78c26 0 56 11 87 33v214c0 36 -23 64 -59 68v45zM437 654h26c8 -84 -43 -135 -103 -135
c-57 0 -108 46 -144 46c-22 0 -33 -13 -38 -45h-28c-3 84 44 135 106 135c48 0 98 -45 141 -45c19 0 29 11 40 44z" />
    <glyph glyph-name="wacute" unicode="&#x1e83;" horiz-adv-x="771" 
d="M703 321l-142 -332h-56l-113 249l-134 -249h-52l-130 305c-43 100 -46 105 -73 109v47h226v-47c-41 0 -42 -30 -23 -73l80 -178l79 149l-24 55c-15 34 -26 45 -58 47v47h253v-47c-55 -1 -55 -27 -34 -71l77 -164l60 140c22 50 15 86 -43 95v47h171v-47
c-26 -6 -38 -21 -64 -82zM553 684l-161 -169h-42l57 169h146z" />
    <glyph glyph-name="wcircumflex" unicode="&#x175;" horiz-adv-x="771" 
d="M703 321l-142 -332h-56l-113 249l-134 -249h-52l-130 305c-43 100 -46 105 -73 109v47h226v-47c-41 0 -42 -30 -23 -73l80 -178l79 149l-24 55c-15 34 -26 45 -58 47v47h253v-47c-55 -1 -55 -27 -34 -71l77 -164l60 140c22 50 15 86 -43 95v47h171v-47
c-26 -6 -38 -21 -64 -82zM462 697l98 -187h-37l-117 99l-119 -99h-40l104 187h111z" />
    <glyph glyph-name="wdieresis" unicode="&#x1e85;" horiz-adv-x="771" 
d="M703 321l-142 -332h-56l-113 249l-134 -249h-52l-130 305c-43 100 -46 105 -73 109v47h226v-47c-41 0 -42 -30 -23 -73l80 -178l79 149l-24 55c-15 34 -26 45 -58 47v47h253v-47c-55 -1 -55 -27 -34 -71l77 -164l60 140c22 50 15 86 -43 95v47h171v-47
c-26 -6 -38 -21 -64 -82zM254 584c0 36 29 65 65 65s65 -29 65 -65s-29 -65 -65 -65s-65 29 -65 65zM437 584c0 36 29 65 65 65s65 -29 65 -65s-29 -65 -65 -65s-65 29 -65 65z" />
    <glyph glyph-name="wgrave" unicode="&#x1e81;" horiz-adv-x="771" 
d="M703 321l-142 -332h-56l-113 249l-134 -249h-52l-130 305c-43 100 -46 105 -73 109v47h226v-47c-41 0 -42 -30 -23 -73l80 -178l79 149l-24 55c-15 34 -26 45 -58 47v47h253v-47c-55 -1 -55 -27 -34 -71l77 -164l60 140c22 50 15 86 -43 95v47h171v-47
c-26 -6 -38 -21 -64 -82zM249 684h146l57 -169h-42z" />
    <glyph glyph-name="ycircumflex" unicode="&#x177;" horiz-adv-x="542" 
d="M472 323l-176 -386c-41 -89 -86 -125 -157 -125c-59 0 -100 33 -100 82c0 37 27 66 63 66c53 0 51 -58 91 -58c24 0 52 25 72 83l-197 360c-28 51 -31 53 -64 58v47h268v-47c-59 -2 -66 -27 -46 -64l109 -198l74 164c24 53 10 97 -46 98v47h178v-47
c-26 -2 -42 -20 -69 -80zM335 697l98 -187h-37l-117 99l-119 -99h-40l104 187h111z" />
    <glyph glyph-name="ygrave" unicode="&#x1ef3;" horiz-adv-x="542" 
d="M472 323l-176 -386c-41 -89 -86 -125 -157 -125c-59 0 -100 33 -100 82c0 37 27 66 63 66c53 0 51 -58 91 -58c24 0 52 25 72 83l-197 360c-28 51 -31 53 -64 58v47h268v-47c-59 -2 -66 -27 -46 -64l109 -198l74 164c24 53 10 97 -46 98v47h178v-47
c-26 -2 -42 -20 -69 -80zM148 684h146l57 -169h-42z" />
    <glyph glyph-name="zacute" unicode="&#x17a;" horiz-adv-x="510" 
d="M482 144l-20 -144h-443l5 47l275 356h-58c-88 0 -108 -18 -158 -101h-49l11 168h39c9 -8 17 -13 29 -16s28 -4 51 -4h306v-41l-267 -362h44c83 0 120 22 182 97h53zM428 684l-161 -169h-42l57 169h146z" />
    <glyph glyph-name="zdotaccent" unicode="&#x17c;" horiz-adv-x="510" 
d="M482 144l-20 -144h-443l5 47l275 356h-58c-88 0 -108 -18 -158 -101h-49l11 168h39c9 -8 17 -13 29 -16s28 -4 51 -4h306v-41l-267 -362h44c83 0 120 22 182 97h53zM279 649c36 0 65 -29 65 -65s-29 -65 -65 -65s-65 29 -65 65s29 65 65 65z" />
    <glyph glyph-name="kgreenlandic" unicode="&#x138;" horiz-adv-x="552" 
d="M222 450v-200c78 78 96 94 96 124c0 20 -14 30 -43 30v46h241v-46c-60 -1 -109 -32 -180 -110l66 -74c99 -111 141 -119 141 -152v-52c0 -14 -2 -16 -22 -16h-70c-38 7 -76 44 -110 83l-119 137v-70c0 -74 9 -89 63 -103v-47h-277v47c56 5 70 31 70 86v190l-73 36v36
l173 55h44z" />
    <glyph glyph-name="napostrophe" unicode="&#x149;" horiz-adv-x="625" 
d="M233 336v-203c0 -47 12 -78 63 -86v-47h-277v47c48 2 70 28 70 82v198l-70 52v27l164 53h50v-80c50 54 102 83 163 83c89 0 146 -49 146 -147v-165c0 -74 12 -93 65 -103v-47h-269v47c44 7 60 35 60 85v155c0 49 -24 84 -72 84c-31 0 -65 -15 -93 -35zM-26 513v13
c0 6 5 10 14 11c36 1 53 28 53 46c0 15 -10 18 -13 18s-17 3 -20 4c-22 3 -34 19 -34 41c0 45 41 49 53 49c25 0 72 -16 72 -83c0 -71 -63 -110 -108 -110c-5 0 -17 0 -17 11z" />
    <glyph glyph-name="Delta" unicode="&#x2206;" horiz-adv-x="616" 
d="M584 0h-552v36l243 611l55 13l254 -624v-36zM427 61l-167 422l-161 -422h328z" />
    <glyph glyph-name="Omega" unicode="&#x2126;" horiz-adv-x="682" 
d="M651 162l-26 -162h-237l-9 21c36 93 98 226 98 343c-1 193 -61 260 -138 260c-80 0 -135 -58 -135 -263c0 -115 53 -238 96 -340l-9 -21h-238l-23 162l33 1c19 -56 34 -66 74 -66h86c-67 52 -163 129 -163 272c0 179 121 292 282 292c162 0 279 -109 279 -286
c0 -131 -93 -211 -170 -278h98c36 0 49 9 69 66z" />
    <glyph glyph-name="uni03BC" unicode="&#x3bc;" horiz-adv-x="556" 
d="M64 450h136v-332c0 -46 11 -65 41 -65c31 0 55 18 81 59v338h136v-326c0 -46 10 -64 32 -64c21 0 34 23 39 70h20c3 -91 -59 -143 -126 -143c-50 0 -81 24 -98 76c-49 -55 -90 -76 -142 -76c-26 0 -42 6 -72 28c0 -80 28 -124 28 -165c0 -40 -23 -65 -58 -65
c-33 0 -52 21 -52 58c0 66 35 99 35 237v370z" />
    <glyph glyph-name="pi" unicode="&#x3c0;" horiz-adv-x="549" 
d="M498 452l29 -7c-4 -41 -23 -96 -36 -114c-15 -5 -35 -6 -58 -6c-5 -62 -5 -115 -5 -179c1 -61 14 -82 36 -82c16 0 27 7 41 19l12 -26c-23 -39 -70 -69 -113 -69c-53 0 -99 27 -99 129c0 88 4 140 9 210c-45 0 -78 2 -114 2v-9c0 -219 -45 -294 -61 -315
c-24 -10 -50 -15 -69 -17l-7 21c67 96 88 231 88 322c-55 1 -77 -10 -118 -35l-15 30c29 39 65 99 172 98c73 -1 166 -3 253 -3c31 0 42 7 55 31z" />
    <glyph glyph-name="Euro" unicode="&#x20ac;" horiz-adv-x="521" 
d="M500 53c-50 -42 -116 -66 -184 -66c-117 0 -223 77 -251 238h-53l10 73h36v15c0 14 0 27 1 40h-47l10 73h47c29 131 109 237 241 237c82 0 153 -30 168 -41l13 -141h-46c-18 53 -50 135 -130 135c-57 0 -97 -70 -109 -190h242l-12 -73h-234v-13c0 -15 1 -28 1 -42h225
l-12 -73h-208c15 -130 58 -188 120 -188c55 0 114 40 139 61c-1 -2 31 -45 33 -45z" />
    <glyph glyph-name="afii61289" unicode="&#x2113;" horiz-adv-x="422" 
d="M384 135l24 -22c-41 -77 -99 -125 -179 -125c-55 0 -89 15 -109 38c-23 29 -35 54 -35 142v61l-53 -34l-13 31l65 47v132c0 132 13 182 51 232c31 42 71 62 109 62c68 0 102 -59 102 -133c0 -108 -50 -180 -139 -266v-74c0 -120 19 -162 75 -162c44 0 76 35 102 71z
M207 455v-99c41 47 70 121 70 207c0 61 -10 100 -35 100c-30 0 -35 -39 -35 -208z" />
    <glyph glyph-name="estimated" unicode="&#x212e;" horiz-adv-x="814" 
d="M781 315h-607c-3 0 -5 -1 -5 -4v-184c0 -8 3 -15 8 -21c59 -61 140 -100 230 -100c97 0 183 44 242 112h53c-66 -79 -175 -130 -296 -130c-207 0 -375 150 -375 336c0 187 168 338 375 338c208 0 375 -151 375 -338v-9zM644 339v185c0 8 -3 16 -9 22
c-59 58 -139 96 -228 96s-170 -39 -229 -99c-6 -6 -9 -14 -9 -23v-181c0 -2 2 -6 5 -6h466c3 0 4 4 4 6z" />
    <glyph glyph-name="partialdiff" unicode="&#x2202;" horiz-adv-x="521" 
d="M254 407h1c39 0 83 -16 110 -53c4 31 9 70 11 107c3 45 0 96 -21 141c-18 34 -52 60 -103 60c-54 0 -104 -35 -138 -63c-17 -1 -48 59 -38 86c33 19 75 37 138 37c96 0 166 -53 211 -137c40 -74 51 -164 51 -225c0 -77 -14 -164 -47 -228c-41 -85 -111 -144 -211 -144
c-108 0 -180 70 -180 187c0 68 27 126 59 162c37 42 94 70 157 70zM283 361h-1c-26 0 -54 -9 -80 -53c-28 -50 -42 -130 -42 -200c0 -54 21 -84 61 -84c39 0 69 55 88 100c23 55 35 106 46 184c-10 21 -36 53 -72 53z" />
    <glyph glyph-name="product" unicode="&#x220f;" horiz-adv-x="680" 
d="M654 658v-33c-81 -7 -87 -17 -87 -93v-480c0 -82 7 -91 86 -99v-33h-285v33c66 6 70 13 70 98v530c0 32 -5 36 -36 36h-128c-29 0 -33 -4 -33 -33v-533c0 -80 0 -91 63 -98v-33h-279v33c79 7 87 17 87 98v481c0 78 -8 86 -90 93v33h632z" />
    <glyph glyph-name="summation" unicode="&#x2211;" horiz-adv-x="534" 
d="M514 122l-46 -209h-443v32l203 294l-200 386v33h441c1 -18 6 -102 11 -169l-34 -7c-9 40 -21 73 -35 98c-15 29 -31 38 -100 38h-129l153 -289l-208 -309h214c85 0 98 6 139 110z" />
    <glyph glyph-name="uni2219" unicode="&#x2219;" horiz-adv-x="344" 
d="M80 326c0 51 40 91 91 91s92 -40 92 -91s-41 -92 -92 -92s-91 41 -91 92z" />
    <glyph glyph-name="radical" unicode="&#x221a;" horiz-adv-x="533" 
d="M524 818l-168 -978l-29 -12l-198 510l-83 -37l-13 40l180 78l131 -361h2l129 769z" />
    <glyph glyph-name="infinity" unicode="&#x221e;" horiz-adv-x="714" 
d="M671 269v-1c0 -104 -75 -165 -151 -165c-51 0 -102 19 -162 102c-47 -59 -95 -102 -168 -102c-77 0 -148 64 -148 160c0 97 68 162 156 162c68 0 116 -36 163 -98c35 40 80 99 164 98c80 0 146 -61 146 -156zM199 176h1c49 0 84 41 118 84c-36 51 -65 95 -121 95
c-50 0 -81 -38 -81 -93c-1 -47 36 -86 83 -86zM518 355h-1c-54 0 -92 -55 -120 -89c53 -69 80 -90 125 -90c48 0 75 49 75 86c0 52 -31 93 -79 93z" />
    <glyph glyph-name="integral" unicode="&#x222b;" horiz-adv-x="387" 
d="M152 -14l-20 372c-19 355 95 425 172 425c33 0 74 -19 74 -57c0 -40 -30 -59 -59 -59c-38 0 -34 63 -54 63c-17 0 -29 -23 -23 -138l19 -342c17 -322 -75 -450 -179 -450c-40 0 -72 26 -73 58c-1 37 36 63 68 63c33 0 31 -69 51 -69c24 0 29 52 24 134z" />
    <glyph glyph-name="approxequal" unicode="&#x2248;" horiz-adv-x="497" 
d="M415 428l49 -45c-30 -57 -77 -98 -127 -98c-37 0 -62 11 -100 35c-25 17 -46 31 -75 31c-40 0 -61 -33 -83 -65l-50 44c27 54 80 97 138 97c44 0 71 -18 94 -32c33 -21 50 -33 74 -33c34 0 56 27 80 66zM415 251l49 -45c-30 -56 -76 -98 -128 -98c-36 0 -63 12 -99 35
c-27 18 -47 32 -75 32c-40 0 -61 -34 -83 -66l-50 44c27 54 81 97 138 97c45 0 71 -19 93 -31c28 -17 48 -34 75 -34c35 0 54 27 80 66z" />
    <glyph glyph-name="notequal" unicode="&#x2260;" horiz-adv-x="497" 
d="M371 478l-33 -77h116v-77h-144l-51 -120h195v-77h-224l-44 -102l-60 24l33 78h-117v77h146l51 120h-197v77h225l44 100z" />
    <glyph glyph-name="lessequal" unicode="&#x2264;" horiz-adv-x="497" 
d="M452 96l-405 205v83l405 204v-89l-330 -155v-2l330 -156v-90zM456 -15h-412v78h412v-78z" />
    <glyph glyph-name="greaterequal" unicode="&#x2265;" horiz-adv-x="497" 
d="M49 588l405 -204v-84l-405 -204v90l329 156v2l-329 155v89zM453 -15h-408v78h408v-78z" />
    <glyph glyph-name="lozenge" unicode="&#x25ca;" horiz-adv-x="539" 
d="M495 314l-179 -381h-95l-178 381l181 385h93zM408 314l-136 304h-4l-138 -303l139 -306h3z" />
    <glyph glyph-name="uni00A0" unicode="&#xa0;" horiz-adv-x="278" 
 />
    <glyph glyph-name="uni00AD" unicode="&#xad;" horiz-adv-x="458" 
d="M55 186v129h349v-129h-349z" />
    <glyph glyph-name="uni02C9" unicode="&#x2c9;" 
d="M10 654h314v-102h-314v102z" />
    <glyph glyph-name="h.superior" unicode="&#xf637;" horiz-adv-x="396" 
d="M150 734v-184c22 23 42 35 59 41s32 6 41 6c86 0 94 -62 94 -99v-87c0 -45 5 -58 40 -64v-28h-170v28c41 6 36 36 36 64v72c0 21 1 54 -44 54c-13 0 -34 -3 -55 -18l1 2h-2v-110c0 -21 -7 -59 38 -64v-28h-176v28c44 0 44 36 44 64v247l-44 23v22l112 31h26z" />
    <glyph glyph-name="zero.denominator" unicode="&#xf655;" 
d="M305 176c0 -114 -67 -182 -140 -182c-92 0 -140 101 -140 178c0 81 52 173 140 173c93 0 140 -98 140 -169zM163 24c45 0 45 61 45 130c0 99 -2 161 -43 161c-43 0 -43 -64 -43 -170c0 -39 0 -121 41 -121z" />
    <glyph glyph-name="one.denominator" unicode="&#xf656;" 
d="M213 345v-255c0 -42 0 -62 45 -62h16v-28h-211v28c45 0 61 0 61 52v139c0 33 -4 49 -45 49h-16v28c20 5 72 18 106 49h44z" />
    <glyph glyph-name="two.denominator" unicode="&#xf657;" 
d="M299 97l-36 -97h-238v27l4 3c4 3 160 123 160 200c0 42 -40 58 -70 58c-32 0 -49 -13 -66 -27l-22 22l3 3c57 57 117 59 130 59c59 0 112 -35 112 -84c0 -55 -30 -82 -97 -142c-18 -16 -38 -33 -59 -47v-2h88c29 0 42 0 53 27h38z" />
    <glyph glyph-name="three.denominator" unicode="&#xf658;" 
d="M52 259l-22 26c28 29 65 60 135 60c74 0 109 -36 109 -72s-39 -58 -45 -61l-13 -6c41 -15 77 -45 77 -87c0 -58 -68 -125 -174 -125c-37 0 -87 10 -87 33c0 1 5 30 33 30c15 0 28 -7 40 -16c14 -11 21 -17 36 -17c32 0 58 29 58 65c0 56 -49 68 -134 70l6 28
c88 1 111 30 111 61c0 37 -37 46 -56 46c-28 0 -44 -12 -74 -35z" />
    <glyph glyph-name="four.denominator" unicode="&#xf659;" 
d="M313 133v-57h-46v-82h-84v82h-155v50l178 219h61v-212h46zM75 133h108v134h-2z" />
    <glyph glyph-name="five.denominator" unicode="&#xf65a;" 
d="M265 354l30 -12l-29 -49c-8 -13 -11 -13 -46 -13h-82l-19 -38l25 -6c92 -22 142 -65 142 -118c0 -92 -116 -124 -183 -124c-52 0 -62 11 -62 24c0 9 7 34 30 34c7 0 20 -4 21 -5c4 -1 42 -12 68 -12c39 0 53 25 53 46c0 24 -13 39 -28 49c-33 22 -100 44 -122 48l-12 3
l78 157h122z" />
    <glyph glyph-name="six.denominator" unicode="&#xf65b;" 
d="M258 345l36 -22c-1 -1 -6 -2 -7 -3c-92 -32 -132 -63 -153 -127l9 5c10 6 30 14 54 14c60 0 111 -44 111 -103c0 -66 -63 -115 -139 -115c-96 0 -144 75 -144 142c0 30 10 100 97 156c36 23 93 43 136 53zM211 88c0 36 -12 80 -50 80c-37 0 -37 -30 -37 -40
c0 -19 0 -104 47 -104c20 0 40 16 40 64z" />
    <glyph glyph-name="seven.denominator" unicode="&#xf65c;" 
d="M303 338l-137 -344h-50l108 275h-91c-15 0 -40 0 -48 -5c-4 -2 -5 -4 -10 -23h-36l29 97h235z" />
    <glyph glyph-name="eight.denominator" unicode="&#xf65d;" 
d="M214 191c74 -41 86 -76 86 -104c0 -55 -59 -93 -144 -93c-90 0 -128 45 -128 82c0 35 33 61 75 84c-2 2 -3 2 -5 3c-40 27 -65 55 -65 88c0 60 70 94 134 94c68 0 116 -36 116 -76c0 -25 -22 -48 -35 -56c-11 -8 -32 -21 -34 -22zM183 211c19 9 36 27 36 50
c0 40 -32 54 -52 54s-45 -13 -45 -40c0 -22 7 -33 61 -64zM132 142c-4 -3 -38 -27 -38 -65c0 -12 1 -53 55 -53c39 0 54 24 54 45c0 28 -23 43 -71 73z" />
    <glyph glyph-name="nine.denominator" unicode="&#xf65e;" 
d="M75 -6l-36 22c1 1 6 2 7 3c92 32 132 63 153 127l-9 -5c-10 -6 -30 -14 -54 -14c-60 0 -111 44 -111 103c0 66 63 115 139 115c96 0 144 -75 144 -142c0 -30 -10 -100 -97 -156c-36 -23 -93 -43 -136 -53zM122 251c0 -36 12 -80 50 -80c37 0 37 30 37 40
c0 19 0 104 -47 104c-20 0 -40 -16 -40 -64z" />
    <glyph glyph-name="zero.numerator" unicode="&#xf661;" 
d="M305 495c0 -114 -67 -182 -140 -182c-92 0 -140 101 -140 178c0 81 52 173 140 173c93 0 140 -98 140 -169zM163 343c45 0 45 61 45 130c0 99 -2 161 -43 161c-43 0 -43 -64 -43 -170c0 -39 0 -121 41 -121z" />
    <glyph glyph-name="one.numerator" unicode="&#xf662;" horiz-adv-x="323" 
d="M208 663v-276c0 -32 14 -42 45 -42h16v-27h-211v27h12c41 0 49 9 49 52v140c0 40 -8 49 -45 49h-16v28c50 12 83 28 106 49h44z" />
    <glyph glyph-name="two.numerator" unicode="&#xf663;" horiz-adv-x="323" 
d="M294 415l-37 -97h-237v27c90 68 163 153 163 203c0 35 -29 60 -69 60c-25 0 -43 -9 -66 -28l-22 21c33 39 88 62 133 62c63 0 112 -37 112 -84c0 -67 -66 -117 -156 -189v-2h88c37 0 44 4 54 27h37z" />
    <glyph glyph-name="three.numerator" unicode="&#xf664;" horiz-adv-x="323" 
d="M47 577l-22 26c42 43 79 60 136 60c64 0 109 -29 109 -72c0 -28 -22 -52 -59 -67c47 -16 77 -50 77 -87c0 -67 -81 -125 -174 -125c-49 0 -86 14 -86 33c0 15 16 29 32 29c33 0 46 -31 77 -31c33 0 58 28 58 64c0 49 -37 68 -135 70l6 28c79 -1 111 28 111 63
c0 28 -23 47 -56 47c-24 0 -45 -13 -74 -38z" />
    <glyph glyph-name="four.numerator" unicode="&#xf665;" 
d="M313 452v-57h-46v-82h-84v82h-155v50l178 219h61v-212h46zM75 452h108v134h-2z" />
    <glyph glyph-name="five.numerator" unicode="&#xf666;" 
d="M265 673l30 -12l-29 -49c-8 -13 -11 -13 -46 -13h-82l-19 -38l25 -6c92 -22 142 -65 142 -118c0 -92 -116 -124 -183 -124c-52 0 -62 11 -62 24c0 9 7 34 30 34c7 0 20 -4 21 -5c4 -1 42 -12 68 -12c39 0 53 25 53 46c0 24 -13 39 -28 49c-33 22 -100 44 -122 48l-12 3
l78 157h122z" />
    <glyph glyph-name="six.numerator" unicode="&#xf667;" 
d="M259 664l36 -22c-1 -1 -6 -2 -7 -3c-92 -32 -132 -63 -153 -127l9 5c10 6 30 14 54 14c60 0 111 -44 111 -103c0 -66 -63 -115 -139 -115c-96 0 -144 75 -144 142c0 30 10 100 97 156c36 23 93 43 136 53zM212 407c0 36 -12 80 -50 80c-37 0 -37 -30 -37 -40
c0 -19 0 -104 47 -104c20 0 40 16 40 64z" />
    <glyph glyph-name="seven.numerator" unicode="&#xf668;" 
d="M303 657l-137 -344h-50l108 275h-91c-15 0 -40 0 -48 -5c-4 -2 -5 -4 -10 -23h-36l29 97h235z" />
    <glyph glyph-name="eight.numerator" unicode="&#xf669;" 
d="M214 510c74 -41 86 -76 86 -104c0 -55 -59 -93 -144 -93c-90 0 -128 45 -128 82c0 35 33 61 75 84c-2 2 -3 2 -5 3c-40 27 -65 55 -65 88c0 60 70 94 134 94c68 0 116 -36 116 -76c0 -25 -22 -48 -35 -56c-11 -8 -32 -21 -34 -22zM183 530c19 9 36 27 36 50
c0 40 -32 54 -52 54s-45 -13 -45 -40c0 -22 7 -33 61 -64zM132 461c-4 -3 -38 -27 -38 -65c0 -12 1 -53 55 -53c39 0 54 24 54 45c0 28 -23 43 -71 73z" />
    <glyph glyph-name="nine.numerator" unicode="&#xf66a;" 
d="M74 313l-36 22c1 1 6 2 7 3c92 32 132 63 153 127l-9 -5c-10 -6 -30 -14 -54 -14c-60 0 -111 44 -111 103c0 66 63 115 139 115c96 0 144 -75 144 -142c0 -30 -10 -100 -97 -156c-36 -23 -93 -43 -136 -53zM121 570c0 -36 12 -80 50 -80c37 0 37 30 37 40
c0 19 0 104 -47 104c-20 0 -40 -16 -40 -64z" />
    <glyph glyph-name="uni2215" unicode="&#x2215;" horiz-adv-x="281" 
d="M-14 -13h-70l383 695h69z" />
    <glyph glyph-name="uni03A9" unicode="&#x3a9;" horiz-adv-x="682" 
d="M651 162l-26 -162h-237l-9 21c36 93 98 226 98 343c-1 193 -61 260 -138 260c-80 0 -135 -58 -135 -263c0 -115 53 -238 96 -340l-9 -21h-238l-23 162l33 1c19 -56 34 -66 74 -66h86c-67 52 -163 129 -163 272c0 179 121 292 282 292c162 0 279 -109 279 -286
c0 -131 -93 -211 -170 -278h98c36 0 49 9 69 66z" />
    <glyph glyph-name="commaaccentalt" unicode="&#xe001;" horiz-adv-x="169" 
d="M140 685v-13c0 -6 -5 -10 -14 -11c-36 -1 -53 -28 -53 -46c0 -15 10 -18 13 -18s17 -3 20 -4c22 -3 34 -19 34 -41c0 -45 -41 -49 -53 -49c-25 0 -72 16 -72 83c0 71 63 110 108 110c5 0 17 0 17 -11z" />
    <glyph glyph-name="caronalt" unicode="&#xe000;" horiz-adv-x="237" 
d="M43 623c0 42 33 72 81 72c59 0 102 -51 102 -123c0 -32 -8 -69 -44 -105c-44 -44 -113 -59 -116 -52l-14 28c-4 7 -1 11 8 13c52 16 86 48 86 78c0 20 -8 26 -33 26c-46 0 -70 28 -70 63z" />
    <glyph glyph-name="uni021A" unicode="&#x21a;" horiz-adv-x="740" 
d="M282 136v499h-34c-62 0 -114 -32 -162 -100h-63v147h694v-147h-63c-48 68 -100 100 -162 100h-34v-498c0 -63 19 -90 87 -90v-47h-350v47c64 0 87 25 87 89zM304 -198v13c0 6 5 10 14 11c36 1 53 28 53 46c0 15 -10 18 -13 18s-17 3 -20 4c-22 3 -34 19 -34 41
c0 45 41 49 53 49c25 0 72 -16 72 -83c0 -71 -63 -110 -108 -110c-5 0 -17 0 -17 11z" />
    <glyph glyph-name="uni021B" unicode="&#x21b;" horiz-adv-x="375" 
d="M228 391v-240c0 -55 12 -78 71 -78c24 0 40 4 65 15v-55c-33 -27 -94 -44 -155 -44c-73 0 -125 42 -125 114v288h-66v52c83 12 150 74 166 123h44v-116h136v-59h-136zM117 -198v13c0 6 5 10 14 11c36 1 53 28 53 46c0 15 -10 18 -13 18s-17 3 -20 4c-22 3 -34 19 -34 41
c0 45 41 49 53 49c25 0 72 -16 72 -83c0 -71 -63 -110 -108 -110c-5 0 -17 0 -17 11z" />
    </font>
</defs>
</svg>
